<svg width="570" height="170" viewBox="0 0 570 170" fill="none" xmlns="http://www.w3.org/2000/svg">
<rect x="0.5" y="0.5" width="569" height="169" rx="17.5" fill="white" stroke="#8A9A6B"/>
<path d="M40.7406 22.995H44.2414V41.2097H40.7406V22.995ZM43.2412 30.4177H47.479V33.2868H43.2412V30.4177ZM25.0529 25.5219H39.3982V28.2594H25.0529V25.5219ZM32.2387 29.128C35.7395 29.128 38.2138 31.0495 38.2138 33.8396C38.2138 36.6297 35.7395 38.5248 32.2387 38.5248C28.7116 38.5248 26.2373 36.6297 26.2373 33.8396C26.2373 31.0495 28.7116 29.128 32.2387 29.128ZM32.2387 31.7865C30.6857 31.7865 29.6065 32.5235 29.6065 33.8396C29.6065 35.1557 30.6857 35.8663 32.2387 35.8663C33.7917 35.8663 34.8709 35.1557 34.8709 33.8396C34.8709 32.5235 33.7917 31.7865 32.2387 31.7865ZM30.4752 22.9424H33.9759V26.8643H30.4752V22.9424ZM28.5273 44.1314H45.1101V46.9215H28.5273V44.1314ZM28.5273 39.8409H32.0281V45.3422H28.5273V39.8409ZM72.5365 22.9687H76.0636V36.0769H72.5365V22.9687ZM59.8494 37.1298H63.2976V39.3935H72.5892V37.1298H76.0636V47.0794H59.8494V37.1298ZM63.2976 42.0783V44.2893H72.5892V42.0783H63.2976ZM62.7975 23.9689C66.5878 23.9689 69.4042 26.3642 69.4042 29.7334C69.4042 33.1026 66.5878 35.4978 62.7975 35.4978C59.0071 35.4978 56.1644 33.1026 56.1644 29.7334C56.1644 26.3642 59.0071 23.9689 62.7975 23.9689ZM62.7975 26.8643C60.9286 26.8643 59.5862 27.9435 59.5862 29.7334C59.5862 31.5496 60.9286 32.6024 62.7975 32.6024C64.64 32.6024 65.9824 31.5496 65.9824 29.7334C65.9824 27.9435 64.64 26.8643 62.7975 26.8643ZM93.0667 24.6533C96.778 24.6533 99.4628 28.0225 99.4628 33.3395C99.4628 38.7091 96.778 42.0783 93.0667 42.0783C89.3553 42.0783 86.6705 38.7091 86.6705 33.3395C86.6705 28.0225 89.3553 24.6533 93.0667 24.6533ZM93.0667 27.8382C91.2505 27.8382 90.0397 29.7597 90.0397 33.3395C90.0397 36.9719 91.2505 38.9197 93.0667 38.9197C94.8829 38.9197 96.12 36.9719 96.12 33.3395C96.12 29.7597 94.8829 27.8382 93.0667 27.8382ZM104.701 28.6279H108.991V31.5233H104.701V28.6279ZM104.701 35.7874H108.991V38.6565H104.701V35.7874ZM102.121 22.9687H105.648V47.3426H102.121V22.9687ZM113.28 24.3901H128.573V27.1538H113.28V24.3901ZM110.779 34.7608H132.81V37.5773H110.779V34.7608ZM119.913 36.735H123.44V47.369H119.913V36.735ZM126.783 24.3901H130.231V26.5484C130.231 29.1806 130.231 32.1287 129.283 36.4454L125.835 36.0506C126.783 31.9707 126.783 29.0753 126.783 26.5484V24.3901ZM146.839 24.2848H149.708V26.4432C149.708 31.2864 147.602 35.5505 142.97 37.1561L141.101 34.3923C145.181 33.0236 146.839 29.7597 146.839 26.4432V24.2848ZM147.55 24.2848H150.393V26.7853C150.393 29.7071 152.025 32.5498 155.841 33.7343L154.025 36.4454C149.629 34.9714 147.55 31.1811 147.55 26.7853V24.2848ZM157.184 22.9687H160.684V37.3667H157.184V22.9687ZM159.71 28.6015H163.922V31.4969H159.71V28.6015ZM152.735 37.9194C157.789 37.9194 160.974 39.683 160.974 42.631C160.974 45.6054 157.789 47.3426 152.735 47.3426C147.655 47.3426 144.47 45.6054 144.47 42.631C144.47 39.683 147.655 37.9194 152.735 37.9194ZM152.735 40.6306C149.629 40.6306 147.945 41.2886 147.945 42.631C147.945 43.9998 149.629 44.6315 152.735 44.6315C155.841 44.6315 157.499 43.9998 157.499 42.631C157.499 41.2886 155.841 40.6306 152.735 40.6306ZM171.422 24.0742H174.317V26.4168C174.317 31.0231 172.08 35.2083 167.315 36.735L165.605 33.9712C169.711 32.6551 171.422 29.4965 171.422 26.4168V24.0742ZM172.132 24.0742H175.001V26.4168C175.001 29.4175 176.686 32.3656 180.661 33.5764L178.95 36.3138C174.291 34.8398 172.132 30.9442 172.132 26.4168V24.0742ZM169.342 38.5775H185.978V47.3426H182.45V41.3676H169.342V38.5775ZM182.45 22.9687H185.978V37.4983H182.45V22.9687Z" fill="black"/>
<path d="M35.04 80.9H39.2V83H35.04V80.9ZM25.26 77.5H35.12V79.64H25.26V77.5ZM25.06 86.82L24.8 84.68C27.96 84.68 32.24 84.64 35.76 84.22L35.94 86.16C32.32 86.76 28.2 86.82 25.06 86.82ZM26.72 79.2H29.28V85.4H26.72V79.2ZM31.08 79.2H33.64V85.4H31.08V79.2ZM37.64 76.26H40.3V87.44H37.64V76.26ZM34.02 87.72C37.94 87.72 40.36 89.02 40.36 91.26C40.36 93.48 37.94 94.78 34.02 94.78C30.1 94.78 27.68 93.48 27.68 91.26C27.68 89.02 30.1 87.72 34.02 87.72ZM34.02 89.76C31.6 89.76 30.34 90.24 30.34 91.26C30.34 92.26 31.6 92.76 34.02 92.76C36.46 92.76 37.72 92.26 37.72 91.26C37.72 90.24 36.46 89.76 34.02 89.76ZM44.9184 77.82H56.6584V79.96H44.9184V77.82ZM43.2184 90.4H59.9584V92.56H43.2184V90.4ZM49.1384 84.04H51.7984V91.46H49.1384V84.04ZM55.6984 77.82H58.3584V79.6C58.3584 81.92 58.3584 84.52 57.6184 88.48L54.9584 88.18C55.6984 84.5 55.6984 81.82 55.6984 79.6V77.82ZM63.9969 81.9H76.2769V83.26H63.9969V81.9ZM61.7769 85.68H78.1769V87.04H61.7769V85.68ZM63.9969 77.14H65.6369V82.58H63.9969V77.14ZM63.8769 92.76H76.3769V94.12H63.8769V92.76ZM63.8769 88.84H65.5169V93.12H63.8769V88.84ZM90.2883 77.86C92.9483 77.86 94.8283 80.32 94.8283 84.16C94.8283 88.02 92.9483 90.48 90.2883 90.48C87.6283 90.48 85.7483 88.02 85.7483 84.16C85.7483 80.32 87.6283 77.86 90.2883 77.86ZM90.2883 79.36C88.5283 79.36 87.3283 81.24 87.3283 84.16C87.3283 87.1 88.5283 89.02 90.2883 89.02C92.0283 89.02 93.2483 87.1 93.2483 84.16C93.2483 81.24 92.0283 79.36 90.2883 79.36ZM98.9283 81.02H102.248V82.42H98.9283V81.02ZM98.9283 86.4H102.248V87.8H98.9283V86.4ZM97.7083 76.48H99.3883V94.56H97.7083V76.48ZM111.187 77.12H112.647V78.12C112.647 81.58 109.127 84.06 105.367 84.7L104.707 83.36C108.007 82.86 111.187 80.7 111.187 78.12V77.12ZM111.487 77.12H112.927V78.12C112.927 80.64 116.147 82.86 119.407 83.36L118.747 84.7C115.027 84.06 111.487 81.54 111.487 78.12V77.12ZM111.187 87.68H112.827V94.56H111.187V87.68ZM103.887 86.66H120.227V88.04H103.887V86.66ZM134.505 76.46H136.185V94.56H134.505V76.46ZM135.725 83.8H139.065V85.18H135.725V83.8ZM129.885 78.42H131.505C131.505 83.56 129.145 88.2 123.305 91.14L122.385 89.86C127.385 87.32 129.885 83.46 129.885 78.68V78.42ZM123.225 78.42H130.745V79.78H123.225V78.42ZM153.277 77.12H154.737V78.12C154.737 81.58 151.217 84.06 147.457 84.7L146.797 83.36C150.097 82.86 153.277 80.7 153.277 78.12V77.12ZM153.577 77.12H155.017V78.12C155.017 80.64 158.237 82.86 161.497 83.36L160.837 84.7C157.117 84.06 153.577 81.54 153.577 78.12V77.12ZM153.277 87.68H154.917V94.56H153.277V87.68ZM145.977 86.66H162.317V88.04H145.977V86.66ZM177.495 76.46H179.155V94.58H177.495V76.46ZM165.395 78H167.035V82.78H172.255V78H173.915V90.22H165.395V78ZM167.035 84.1V88.86H172.255V84.1H167.035ZM196.426 79.3H201.866V80.66H196.426V79.3ZM196.426 83.64H201.866V85H196.426V83.64ZM201.266 76.5H202.926V89.86H201.266V76.5ZM191.386 92.8H203.426V94.16H191.386V92.8ZM191.386 88.48H193.046V93.4H191.386V88.48ZM192.986 77.64C195.646 77.64 197.646 79.5 197.646 82.16C197.646 84.82 195.646 86.68 192.986 86.68C190.326 86.68 188.326 84.82 188.326 82.16C188.326 79.5 190.326 77.64 192.986 77.64ZM192.986 79.1C191.226 79.1 189.926 80.38 189.926 82.16C189.926 83.96 191.226 85.24 192.986 85.24C194.746 85.24 196.066 83.96 196.066 82.16C196.066 80.38 194.746 79.1 192.986 79.1ZM208.525 87.32H210.165V89.42H219.005V87.32H220.665V94.32H208.525V87.32ZM210.165 90.7V92.98H219.005V90.7H210.165ZM206.445 84.72H222.785V86.06H206.445V84.72ZM213.785 76.68H215.205V77.48C215.205 80.62 211.705 82.88 207.985 83.44L207.385 82.14C210.645 81.7 213.785 79.76 213.785 77.48V76.68ZM214.045 76.68H215.465V77.48C215.465 79.72 218.645 81.7 221.865 82.14L221.245 83.44C217.565 82.88 214.045 80.58 214.045 77.48V76.68ZM233.023 76.78C237.003 76.78 239.383 77.9 239.383 79.92C239.383 81.94 237.003 83.06 233.023 83.06C229.023 83.06 226.663 81.94 226.663 79.92C226.663 77.9 229.023 76.78 233.023 76.78ZM233.023 78.04C230.063 78.04 228.363 78.72 228.363 79.92C228.363 81.12 230.063 81.8 233.023 81.8C235.963 81.8 237.663 81.12 237.663 79.92C237.663 78.72 235.963 78.04 233.023 78.04ZM224.843 84.26H241.183V85.6H224.843V84.26ZM226.823 87.14H239.103V91.22H228.503V93.42H226.863V90.02H237.463V88.42H226.823V87.14ZM226.863 93.06H239.643V94.36H226.863V93.06ZM260.915 76.42H262.575V86.4H260.915V76.42ZM261.875 80.76H265.255V82.16H261.875V80.76ZM251.095 87.32H262.575V91.36H252.775V93.56H251.135V90.16H260.955V88.58H251.095V87.32ZM251.135 93.08H263.235V94.36H251.135V93.08ZM248.595 78.1H259.275V79.4H248.595V78.1ZM253.935 80.2C256.535 80.2 258.255 81.34 258.255 83.18C258.255 85 256.535 86.12 253.935 86.12C251.295 86.12 249.595 85 249.595 83.18C249.595 81.34 251.295 80.2 253.935 80.2ZM253.935 81.42C252.255 81.42 251.175 82.1 251.175 83.18C251.175 84.24 252.255 84.92 253.935 84.92C255.595 84.92 256.675 84.24 256.675 83.18C256.675 82.1 255.595 81.42 253.935 81.42ZM253.095 76.28H254.755V79H253.095V76.28ZM279.546 77.12H281.006V78.12C281.006 81.58 277.486 84.06 273.726 84.7L273.066 83.36C276.366 82.86 279.546 80.7 279.546 78.12V77.12ZM279.846 77.12H281.286V78.12C281.286 80.64 284.506 82.86 287.766 83.36L287.106 84.7C283.386 84.06 279.846 81.54 279.846 78.12V77.12ZM279.546 87.68H281.186V94.56H279.546V87.68ZM272.246 86.66H288.586V88.04H272.246V86.66ZM300.438 87.6H301.718V88.58C301.718 90.94 300.238 93.32 297.638 94.32L296.798 93.08C299.078 92.26 300.438 90.32 300.438 88.58V87.6ZM300.798 87.6H302.038V88.58C302.038 90.4 303.118 92.34 305.278 93.22L304.578 94.48C301.978 93.46 300.798 90.98 300.798 88.58V87.6ZM307.118 87.6H308.358V88.58C308.358 90.7 307.158 93.38 304.578 94.48L303.878 93.22C306.018 92.24 307.118 90.14 307.118 88.58V87.6ZM307.458 87.6H308.738V88.58C308.738 90.44 310.078 92.3 312.378 93.08L311.538 94.32C308.898 93.36 307.458 91.08 307.458 88.58V87.6ZM309.078 76.5H310.758V86.82H309.078V76.5ZM301.058 77.54C303.798 77.54 305.758 79.26 305.758 81.76C305.758 84.26 303.798 85.96 301.058 85.96C298.318 85.96 296.338 84.26 296.338 81.76C296.338 79.26 298.318 77.54 301.058 77.54ZM301.058 78.92C299.258 78.92 297.958 80.08 297.958 81.76C297.958 83.44 299.258 84.58 301.058 84.58C302.858 84.58 304.158 83.44 304.158 81.76C304.158 80.08 302.858 78.92 301.058 78.92ZM316.396 84.92H328.816V86.28H316.396V84.92ZM314.336 90.9H330.716V92.3H314.336V90.9ZM321.656 85.5H323.316V91.46H321.656V85.5ZM316.396 77.92H328.636V79.28H318.056V85.52H316.396V77.92ZM332.714 86.42H349.114V87.78H332.714V86.42ZM334.794 76.94H346.994V81.32H336.474V83.76H334.834V80.1H345.374V78.24H334.794V76.94ZM334.834 83.22H347.394V84.52H334.834V83.22ZM340.074 83.9H341.734V87.1H340.074V83.9ZM334.534 89.16H347.114V94.4H345.454V90.52H334.534V89.16ZM357.066 78.18H358.646V82.6H362.426V78.18H363.966V90.04H357.066V78.18ZM358.646 83.94V88.68H362.426V83.94H358.646ZM370.186 76.48H371.786V94.56H370.186V76.48ZM367.286 83.64H370.766V85H367.286V83.64ZM366.186 76.86H367.766V93.66H366.186V76.86ZM376.924 86.22H389.344V87.56H376.924V86.22ZM374.824 90.86H391.204V92.24H374.824V90.86ZM376.924 78.02H389.144V79.38H378.604V86.64H376.924V78.02ZM378.064 82.06H388.764V83.38H378.064V82.06ZM393.223 90.96H409.603V92.34H393.223V90.96ZM400.543 87.08H402.203V91.54H400.543V87.08ZM395.203 77.82H407.583V83.3H396.903V86.92H395.263V81.96H405.943V79.16H395.203V77.82ZM395.263 86.22H408.003V87.58H395.263V86.22ZM430.114 76.46H431.774V94.58H430.114V76.46ZM426.454 82.18H431.154V83.56H426.454V82.18ZM426.454 85.96H431.154V87.34H426.454V85.96ZM421.514 80.78H422.834V82.32C422.834 86.14 420.734 89.66 417.874 91.08L416.934 89.8C419.594 88.52 421.514 85.44 421.514 82.32V80.78ZM421.834 80.78H423.134V82.32C423.134 85.32 425.114 88.26 427.774 89.48L426.854 90.78C423.954 89.42 421.834 86.04 421.834 82.32V80.78ZM417.434 79.62H427.154V80.96H417.434V79.62ZM421.494 76.8H423.154V80.36H421.494V76.8ZM447.685 78.18H449.165V78.72C449.165 81.78 445.905 83.92 442.205 84.48L441.585 83.14C444.785 82.72 447.685 80.92 447.685 78.72V78.18ZM448.385 78.18H449.845V78.72C449.845 80.92 452.765 82.72 455.965 83.14L455.325 84.48C451.645 83.92 448.385 81.78 448.385 78.72V78.18ZM442.085 77.38H455.465V78.72H442.085V77.38ZM440.585 85.78H456.965V87.14H440.585V85.78ZM448.065 86.62H449.725V90.78H448.065V86.62ZM442.665 92.8H455.145V94.16H442.665V92.8ZM442.665 89.04H444.305V93.32H442.665V89.04ZM465.057 88.84H466.477C469.817 88.84 472.117 88.76 474.837 88.28L475.017 89.64C472.217 90.12 469.857 90.22 466.477 90.22H465.057V88.84ZM465.057 78.12H473.477V79.5H466.717V89.32H465.057V78.12ZM466.297 83.18H473.077V84.52H466.297V83.18ZM476.517 76.48H478.197V94.56H476.517V76.48ZM477.797 83.74H481.157V85.14H477.797V83.74ZM484.735 77.66H496.035V79H484.735V77.66ZM482.695 85.42H499.035V86.78H482.695V85.42ZM489.995 86.32H491.655V94.58H489.995V86.32ZM495.255 77.66H496.875V79.22C496.875 81.1 496.875 83.22 496.195 86.28L494.555 86.06C495.255 83.14 495.255 81.04 495.255 79.22V77.66ZM501.074 84.88H517.474V86.14H501.074V84.88ZM503.014 87.6H515.414V91.46H504.714V93.58H503.074V90.32H513.794V88.78H503.014V87.6ZM503.074 93.14H515.994V94.34H503.074V93.14ZM503.154 77H515.354V80.76H504.834V82.72H503.194V79.64H513.734V78.18H503.154V77ZM503.194 82.32H515.694V83.52H503.194V82.32ZM537.145 76.48H538.805V85.68H537.145V76.48ZM538.085 80.36H541.465V81.74H538.085V80.36ZM525.525 77.5H533.825V84.74H525.525V77.5ZM532.205 78.82H527.145V83.42H532.205V78.82ZM527.325 86.54H538.805V90.98H529.005V93.68H527.365V89.72H537.185V87.86H527.325V86.54ZM527.365 92.98H539.465V94.32H527.365V92.98ZM37.36 100.48H39.02V110.98H37.36V100.48ZM38.3 105.08H41.7V106.48H38.3V105.08ZM27.66 111.78H29.28V113.7H37.38V111.78H39.02V118.32H27.66V111.78ZM29.28 114.98V116.98H37.38V114.98H29.28ZM25.04 102.32H35.72V103.68H25.04V102.32ZM30.38 104.5C32.96 104.5 34.7 105.76 34.7 107.68C34.7 109.6 32.96 110.86 30.38 110.86C27.78 110.86 26.04 109.6 26.04 107.68C26.04 105.76 27.78 104.5 30.38 104.5ZM30.38 105.76C28.72 105.76 27.62 106.52 27.62 107.68C27.62 108.84 28.72 109.6 30.38 109.6C32 109.6 33.12 108.84 33.12 107.68C33.12 106.52 32 105.76 30.38 105.76ZM29.54 100.3H31.2V103.06H29.54V100.3ZM56.5384 100.48H58.1984V118.56H56.5384V100.48ZM44.5384 102.24H46.1784V113.44H44.5384V102.24ZM44.5384 112.46H46.0184C48.7584 112.46 51.6184 112.26 54.6784 111.62L54.8784 113.04C51.7384 113.68 48.8784 113.9 46.0184 113.9H44.5384V112.46ZM74.0169 100.46H75.6969V118.58H74.0169V100.46ZM75.2969 107.6H78.6569V109H75.2969V107.6ZM62.5569 112.68H63.9769C67.3169 112.68 69.6569 112.56 72.3569 112.06L72.5369 113.46C69.7569 113.98 67.3769 114.08 63.9769 114.08H62.5569V112.68ZM62.5569 102.22H70.9569V103.58H64.1969V113.3H62.5569V102.22ZM82.022 117.135C81.6338 117.135 81.3 116.998 81.0206 116.723C80.7412 116.444 80.6016 116.107 80.6016 115.714C80.6016 115.326 80.7412 114.995 81.0206 114.72C81.3 114.441 81.6338 114.301 82.022 114.301C82.4103 114.301 82.7441 114.441 83.0234 114.72C83.3028 114.995 83.4425 115.326 83.4425 115.714C83.4425 115.975 83.3762 116.214 83.2436 116.432C83.1158 116.645 82.9453 116.815 82.7322 116.943C82.5192 117.071 82.2824 117.135 82.022 117.135ZM104.038 100.46H105.698V118.58H104.038V100.46ZM96.158 101.86C98.838 101.86 100.758 104.32 100.758 108.16C100.758 112.02 98.838 114.48 96.158 114.48C93.498 114.48 91.578 112.02 91.578 108.16C91.578 104.32 93.498 101.86 96.158 101.86ZM96.158 103.36C94.398 103.36 93.158 105.24 93.158 108.16C93.158 111.1 94.398 113.02 96.158 113.02C97.938 113.02 99.158 111.1 99.158 108.16C99.158 105.24 97.938 103.36 96.158 103.36ZM119.656 100.86H121.196V117.66H119.656V100.86ZM120.556 107.84H123.896V109.2H120.556V107.84ZM109.836 112.48H110.556C111.256 112.48 112.436 112.46 113.836 112.12L113.976 113.5C112.476 113.86 111.316 113.86 110.556 113.86H109.836V112.48ZM109.836 102.74H113.696V104.1H111.376V113.26H109.836V102.74ZM114.476 112.48H115.236C116.196 112.48 117.456 112.44 118.836 112.06L118.996 113.44C117.516 113.84 116.276 113.86 115.236 113.86H114.476V112.48ZM114.476 102.74H118.456V104.1H115.996V113.2H114.476V102.74ZM123.316 100.48H124.896V118.56H123.316V100.48ZM129.915 105.9H142.195V107.26H129.915V105.9ZM127.695 109.68H144.095V111.04H127.695V109.68ZM129.915 101.14H131.555V106.58H129.915V101.14ZM129.795 116.76H142.295V118.12H129.795V116.76ZM129.795 112.84H131.435V117.12H129.795V112.84ZM151.386 111.42H167.766V112.8H151.386V111.42ZM158.746 111.82H160.386V118.58H158.746V111.82ZM153.566 108.22H165.946V109.58H153.566V108.22ZM153.566 101.32H165.746V102.66H155.206V108.62H153.566V101.32ZM154.726 104.74H165.306V106.04H154.726V104.74ZM177.105 101.12H178.565V102.12C178.565 105.58 175.045 108.06 171.285 108.7L170.625 107.36C173.925 106.86 177.105 104.7 177.105 102.12V101.12ZM177.405 101.12H178.845V102.12C178.845 104.64 182.065 106.86 185.325 107.36L184.665 108.7C180.945 108.06 177.405 105.54 177.405 102.12V101.12ZM177.105 111.68H178.745V118.56H177.105V111.68ZM169.805 110.66H186.145V112.04H169.805V110.66ZM200.423 100.46H202.103V118.56H200.423V100.46ZM201.643 107.8H204.983V109.18H201.643V107.8ZM195.803 102.42H197.423C197.423 107.56 195.063 112.2 189.223 115.14L188.303 113.86C193.303 111.32 195.803 107.46 195.803 102.68V102.42ZM189.143 102.42H196.663V103.78H189.143V102.42ZM212.915 109.68H214.275C217.615 109.68 219.735 109.56 222.195 109.08L222.355 110.44C219.835 110.92 217.675 111.04 214.275 111.04H212.915V109.68ZM212.915 101.96H221.195V103.32H214.555V110.1H212.915V101.96ZM225.095 100.48H226.755V113.68H225.095V100.48ZM220.035 105.48H225.475V106.82H220.035V105.48ZM215.195 116.92H227.235V118.28H215.195V116.92ZM215.195 112.7H216.855V117.7H215.195V112.7ZM235.093 102.46H236.473V104.3C236.473 107.62 234.433 110.4 231.393 111.5L230.533 110.18C233.253 109.22 235.093 106.88 235.093 104.3V102.46ZM235.413 102.46H236.793V104.3C236.793 106.74 238.673 108.94 241.353 109.84L240.493 111.14C237.493 110.12 235.413 107.48 235.413 104.3V102.46ZM230.973 101.98H240.873V103.32H230.973V101.98ZM243.433 100.5H245.113V113.72H243.433V100.5ZM233.493 116.8H245.653V118.16H233.493V116.8ZM233.493 112.48H235.133V117.4H233.493V112.48ZM262.084 111.88C265.924 111.88 268.384 113.14 268.384 115.22C268.384 117.28 265.924 118.52 262.084 118.52C258.224 118.52 255.784 117.28 255.784 115.22C255.784 113.14 258.224 111.88 262.084 111.88ZM262.084 113.18C259.244 113.18 257.424 113.96 257.424 115.22C257.424 116.46 259.244 117.24 262.084 117.24C264.924 117.24 266.724 116.46 266.724 115.22C266.724 113.96 264.924 113.18 262.084 113.18ZM255.924 101.38H267.564V102.74H255.924V101.38ZM253.984 108.9H270.304V110.24H253.984V108.9ZM260.684 105.42H262.324V109.28H260.684V105.42ZM266.604 101.38H268.224V102.92C268.224 104.38 268.224 105.84 267.744 107.72L266.104 107.52C266.604 105.66 266.604 104.34 266.604 102.92V101.38ZM280.543 100.78C284.523 100.78 286.903 101.9 286.903 103.92C286.903 105.94 284.523 107.06 280.543 107.06C276.543 107.06 274.183 105.94 274.183 103.92C274.183 101.9 276.543 100.78 280.543 100.78ZM280.543 102.04C277.583 102.04 275.883 102.72 275.883 103.92C275.883 105.12 277.583 105.8 280.543 105.8C283.483 105.8 285.183 105.12 285.183 103.92C285.183 102.72 283.483 102.04 280.543 102.04ZM272.363 108.26H288.703V109.6H272.363V108.26ZM274.343 111.14H286.623V115.22H276.023V117.42H274.383V114.02H284.983V112.42H274.343V111.14ZM274.383 117.06H287.163V118.36H274.383V117.06ZM296.834 112.84H298.254C301.594 112.84 303.894 112.76 306.614 112.28L306.794 113.64C303.994 114.12 301.634 114.22 298.254 114.22H296.834V112.84ZM296.834 102.12H305.254V103.5H298.494V113.32H296.834V102.12ZM298.074 107.18H304.854V108.52H298.074V107.18ZM308.294 100.48H309.974V118.56H308.294V100.48ZM309.574 107.74H312.934V109.14H309.574V107.74ZM318.933 103.06H320.253V106C320.253 109.76 317.953 113.64 315.133 115.08L314.173 113.76C316.753 112.5 318.933 109.06 318.933 106V103.06ZM319.233 103.06H320.553V106C320.553 108.86 322.593 112.08 325.213 113.32L324.273 114.64C321.413 113.22 319.233 109.58 319.233 106V103.06ZM314.813 102.32H324.553V103.72H314.813V102.32ZM326.693 100.48H328.373V118.56H326.693V100.48ZM327.973 107.78H331.333V109.18H327.973V107.78ZM345.091 100.46H346.771V118.56H345.091V100.46ZM346.311 107.8H349.651V109.18H346.311V107.8ZM340.471 102.42H342.091C342.091 107.56 339.731 112.2 333.891 115.14L332.971 113.86C337.971 111.32 340.471 107.46 340.471 102.68V102.42ZM333.811 102.42H341.331V103.78H333.811V102.42ZM369.703 100.48H371.363V118.56H369.703V100.48ZM361.563 104.78H362.903V106.32C362.903 110.18 360.723 113.68 357.823 115.08L356.882 113.8C359.563 112.56 361.563 109.48 361.563 106.32V104.78ZM361.883 104.78H363.203V106.32C363.203 109.34 365.263 112.28 367.963 113.46L367.023 114.76C364.103 113.44 361.883 110.06 361.883 106.32V104.78ZM357.383 103.62H367.343V104.96H357.383V103.62ZM361.563 100.8H363.223V104.36H361.563V100.8ZM377.161 105.9H389.441V107.26H377.161V105.9ZM374.941 109.68H391.341V111.04H374.941V109.68ZM377.161 101.14H378.801V106.58H377.161V101.14ZM377.041 116.76H389.541V118.12H377.041V116.76ZM377.041 112.84H378.681V117.12H377.041V112.84ZM411.852 100.48H413.512V112.72H411.852V100.48ZM407.972 105.58H412.192V106.94H407.972V105.58ZM406.172 101.9H407.912C407.912 106.58 404.832 109.9 399.652 111.58L398.952 110.26C403.532 108.82 406.172 106.1 406.172 102.56V101.9ZM399.812 101.9H407.352V103.26H399.812V101.9ZM406.852 111.16H408.272V111.98C408.272 115.44 405.112 117.78 401.492 118.52L400.832 117.2C404.032 116.62 406.852 114.62 406.852 111.98V111.16ZM407.092 111.16H408.512V111.98C408.512 114.58 411.292 116.58 414.512 117.16L413.812 118.48C410.212 117.76 407.092 115.42 407.092 111.98V111.16ZM430.171 100.46H431.831V118.58H430.171V100.46ZM422.291 101.86C424.971 101.86 426.891 104.32 426.891 108.16C426.891 112.02 424.971 114.48 422.291 114.48C419.631 114.48 417.711 112.02 417.711 108.16C417.711 104.32 419.631 101.86 422.291 101.86ZM422.291 103.36C420.531 103.36 419.291 105.24 419.291 108.16C419.291 111.1 420.531 113.02 422.291 113.02C424.071 113.02 425.291 111.1 425.291 108.16C425.291 105.24 424.071 103.36 422.291 103.36ZM445.542 101.86C448.202 101.86 450.082 104.32 450.082 108.16C450.082 112.02 448.202 114.48 445.542 114.48C442.882 114.48 441.002 112.02 441.002 108.16C441.002 104.32 442.882 101.86 445.542 101.86ZM445.542 103.36C443.782 103.36 442.582 105.24 442.582 108.16C442.582 111.1 443.782 113.02 445.542 113.02C447.282 113.02 448.502 111.1 448.502 108.16C448.502 105.24 447.282 103.36 445.542 103.36ZM452.962 100.48H454.642V118.56H452.962V100.48ZM454.242 107.7H457.602V109.1H454.242V107.7ZM472.281 100.48H473.941V118.56H472.281V100.48ZM460.281 102.24H461.921V113.44H460.281V102.24ZM460.281 112.46H461.761C464.501 112.46 467.361 112.26 470.421 111.62L470.621 113.04C467.481 113.68 464.621 113.9 461.761 113.9H460.281V112.46ZM489.779 100.46H491.439V118.58H489.779V100.46ZM491.039 107.66H494.399V109.06H491.039V107.66ZM478.259 112.84H479.699C483.099 112.84 485.459 112.72 488.199 112.2L488.379 113.58C485.559 114.08 483.159 114.22 479.699 114.22H478.259V112.84ZM478.219 102.16H486.399V108.64H479.899V113.4H478.259V107.28H484.759V103.52H478.219V102.16ZM499.128 115.011L499.021 115.786C498.95 116.354 498.83 116.946 498.659 117.561C498.493 118.181 498.321 118.757 498.141 119.287C497.965 119.817 497.821 120.239 497.707 120.551H496.202C496.263 120.258 496.348 119.86 496.457 119.358C496.566 118.861 496.673 118.304 496.777 117.689C496.881 117.073 496.959 116.446 497.011 115.807L497.082 115.011H499.128ZM507.518 112.84H508.938C512.278 112.84 514.578 112.76 517.298 112.28L517.478 113.64C514.678 114.12 512.318 114.22 508.938 114.22H507.518V112.84ZM507.518 102.12H515.938V103.5H509.178V113.32H507.518V102.12ZM508.758 107.18H515.538V108.52H508.758V107.18ZM518.978 100.48H520.658V118.56H518.978V100.48ZM520.258 107.74H523.618V109.14H520.258V107.74ZM529.616 103.06H530.936V106C530.936 109.76 528.636 113.64 525.816 115.08L524.856 113.76C527.436 112.5 529.616 109.06 529.616 106V103.06ZM529.916 103.06H531.236V106C531.236 108.86 533.276 112.08 535.896 113.32L534.956 114.64C532.096 113.22 529.916 109.58 529.916 106V103.06ZM525.496 102.32H535.236V103.72H525.496V102.32ZM537.376 100.48H539.056V118.56H537.376V100.48ZM538.656 107.78H542.016V109.18H538.656V107.78ZM32.24 125.72H33.68V127.1C33.68 131.04 30.02 134.1 26.4 134.92L25.66 133.54C28.84 132.94 32.24 130.18 32.24 127.1V125.72ZM32.54 125.72H33.98V127.1C33.98 130.2 37.4 132.94 40.56 133.54L39.82 134.92C36.22 134.1 32.54 131.06 32.54 127.1V125.72ZM25 138.76H41.38V140.12H25V138.76ZM50.6384 125.72H52.0784V127.1C52.0784 131.04 48.4184 134.1 44.7984 134.92L44.0584 133.54C47.2384 132.94 50.6384 130.18 50.6384 127.1V125.72ZM50.9384 125.72H52.3784V127.1C52.3784 130.2 55.7984 132.94 58.9584 133.54L58.2184 134.92C54.6184 134.1 50.9384 131.06 50.9384 127.1V125.72ZM43.3984 138.76H59.7784V140.12H43.3984V138.76ZM61.7969 138.96H78.1769V140.34H61.7969V138.96ZM69.1169 135.08H70.7769V139.54H69.1169V135.08ZM63.7769 125.82H76.1569V131.3H65.4769V134.92H63.8369V129.96H74.5169V127.16H63.7769V125.82ZM63.8369 134.22H76.5769V135.58H63.8369V134.22ZM93.5883 135.88C97.4283 135.88 99.8883 137.14 99.8883 139.22C99.8883 141.28 97.4283 142.52 93.5883 142.52C89.7283 142.52 87.2883 141.28 87.2883 139.22C87.2883 137.14 89.7283 135.88 93.5883 135.88ZM93.5883 137.18C90.7483 137.18 88.9283 137.96 88.9283 139.22C88.9283 140.46 90.7483 141.24 93.5883 141.24C96.4283 141.24 98.2283 140.46 98.2283 139.22C98.2283 137.96 96.4283 137.18 93.5883 137.18ZM87.4283 125.38H99.0683V126.74H87.4283V125.38ZM85.4883 132.9H101.808V134.24H85.4883V132.9ZM92.1883 129.42H93.8283V133.28H92.1883V129.42ZM98.1083 125.38H99.7283V126.92C99.7283 128.38 99.7283 129.84 99.2483 131.72L97.6083 131.52C98.1083 129.66 98.1083 128.34 98.1083 126.92V125.38ZM112.047 124.78C116.027 124.78 118.407 125.9 118.407 127.92C118.407 129.94 116.027 131.06 112.047 131.06C108.047 131.06 105.687 129.94 105.687 127.92C105.687 125.9 108.047 124.78 112.047 124.78ZM112.047 126.04C109.087 126.04 107.387 126.72 107.387 127.92C107.387 129.12 109.087 129.8 112.047 129.8C114.987 129.8 116.687 129.12 116.687 127.92C116.687 126.72 114.987 126.04 112.047 126.04ZM103.867 132.26H120.207V133.6H103.867V132.26ZM105.847 135.14H118.127V139.22H107.527V141.42H105.887V138.02H116.487V136.42H105.847V135.14ZM105.887 141.06H118.667V142.36H105.887V141.06ZM135.678 135.88C139.518 135.88 141.978 137.14 141.978 139.22C141.978 141.28 139.518 142.52 135.678 142.52C131.818 142.52 129.378 141.28 129.378 139.22C129.378 137.14 131.818 135.88 135.678 135.88ZM135.678 137.18C132.838 137.18 131.018 137.96 131.018 139.22C131.018 140.46 132.838 141.24 135.678 141.24C138.518 141.24 140.318 140.46 140.318 139.22C140.318 137.96 138.518 137.18 135.678 137.18ZM129.518 125.38H141.158V126.74H129.518V125.38ZM127.578 132.9H143.898V134.24H127.578V132.9ZM134.278 129.42H135.918V133.28H134.278V129.42ZM140.198 125.38H141.818V126.92C141.818 128.38 141.818 129.84 141.338 131.72L139.698 131.52C140.198 129.66 140.198 128.34 140.198 126.92V125.38ZM153.297 133.52H154.957V136.68H153.297V133.52ZM145.957 132.94H162.297V134.28H145.957V132.94ZM154.117 136.18C157.997 136.18 160.317 137.32 160.317 139.36C160.317 141.38 157.997 142.52 154.117 142.52C150.237 142.52 147.917 141.38 147.917 139.36C147.917 137.32 150.237 136.18 154.117 136.18ZM154.117 137.46C151.297 137.46 149.597 138.14 149.597 139.36C149.597 140.56 151.297 141.24 154.117 141.24C156.957 141.24 158.637 140.56 158.637 139.36C158.637 138.14 156.957 137.46 154.117 137.46ZM153.057 125.96H154.537V126.5C154.537 129.42 151.217 131.38 147.477 131.84L146.877 130.52C150.117 130.18 153.057 128.56 153.057 126.5V125.96ZM153.757 125.96H155.217V126.5C155.217 128.56 158.157 130.18 161.397 130.52L160.797 131.84C157.057 131.38 153.757 129.42 153.757 126.5V125.96ZM147.457 125.3H160.837V126.64H147.457V125.3ZM171.695 131.5H175.115V132.88H171.695V131.5ZM178.135 124.48H179.735V142.56H178.135V124.48ZM174.555 124.86H176.135V141.66H174.555V124.86ZM168.435 125.98C170.775 125.98 172.295 128.4 172.295 132.28C172.295 136.16 170.775 138.58 168.435 138.58C166.095 138.58 164.595 136.16 164.595 132.28C164.595 128.4 166.095 125.98 168.435 125.98ZM168.435 127.52C167.015 127.52 166.115 129.36 166.115 132.28C166.115 135.2 167.015 137.04 168.435 137.04C169.875 137.04 170.775 135.2 170.775 132.28C170.775 129.36 169.875 127.52 168.435 127.52ZM189.086 133.68H190.446C193.786 133.68 195.906 133.56 198.366 133.08L198.526 134.44C196.006 134.92 193.846 135.04 190.446 135.04H189.086V133.68ZM189.086 125.96H197.366V127.32H190.726V134.1H189.086V125.96ZM201.266 124.48H202.926V137.68H201.266V124.48ZM196.206 129.48H201.646V130.82H196.206V129.48ZM191.366 140.92H203.406V142.28H191.366V140.92ZM191.366 136.7H193.026V141.7H191.366V136.7ZM219.665 124.48H221.325V135.06H219.665V124.48ZM211.065 126.48H212.445V127.96C212.445 131.28 210.425 134 207.405 135.1L206.545 133.78C209.265 132.84 211.065 130.54 211.065 127.96V126.48ZM211.405 126.48H212.745V127.94C212.745 130.3 214.485 132.5 217.125 133.4L216.285 134.7C213.305 133.66 211.405 131.02 211.405 127.94V126.48ZM216.385 127.88H220.225V129.24H216.385V127.88ZM207.065 125.7H216.685V127.04H207.065V125.7ZM216.385 130.88H220.225V132.22H216.385V130.88ZM211.065 135.62H212.365V136.54C212.365 138.94 210.885 141.34 208.285 142.34L207.445 141.1C209.725 140.26 211.065 138.3 211.065 136.54V135.62ZM211.445 135.62H212.685V136.54C212.685 138.38 213.745 140.36 215.925 141.24L215.225 142.5C212.605 141.48 211.445 138.96 211.445 136.54V135.62ZM217.765 135.62H218.985V136.54C218.985 138.68 217.805 141.4 215.225 142.5L214.505 141.24C216.665 140.24 217.765 138.12 217.765 136.54V135.62ZM218.085 135.62H219.385V136.54C219.385 138.44 220.705 140.32 223.025 141.1L222.165 142.34C219.545 141.38 218.085 139.06 218.085 136.54V135.62ZM237.083 124.46H238.763V142.58H237.083V124.46ZM238.363 131.6H241.723V133H238.363V131.6ZM225.623 136.68H227.043C230.383 136.68 232.723 136.56 235.423 136.06L235.603 137.46C232.823 137.98 230.443 138.08 227.043 138.08H225.623V136.68ZM225.623 126.22H234.023V127.58H227.263V137.3H225.623V126.22ZM255.482 124.46H257.162V142.56H255.482V124.46ZM256.702 131.8H260.042V133.18H256.702V131.8ZM250.862 126.42H252.482C252.482 131.56 250.122 136.2 244.282 139.14L243.362 137.86C248.362 135.32 250.862 131.46 250.862 126.68V126.42ZM244.202 126.42H251.722V127.78H244.202V126.42ZM267.713 136.84H269.133C272.473 136.84 274.773 136.76 277.493 136.28L277.673 137.64C274.873 138.12 272.513 138.22 269.133 138.22H267.713V136.84ZM267.713 126.12H276.133V127.5H269.373V137.32H267.713V126.12ZM268.953 131.18H275.733V132.52H268.953V131.18ZM279.173 124.48H280.853V142.56H279.173V124.48ZM280.453 131.74H283.813V133.14H280.453V131.74ZM293.052 125.7H294.792C294.792 130.3 291.532 133.58 286.272 135.02L285.612 133.72C290.252 132.44 293.052 129.78 293.052 126.42V125.7ZM286.532 125.7H294.072V127.04H286.532V125.7ZM288.152 136.08H300.212V142.52H298.552V137.42H288.152V136.08ZM298.552 124.48H300.212V135.26H298.552V124.48ZM294.052 127.7H298.892V129.06H294.052V127.7ZM293.872 131.54H298.772V132.9H293.872V131.54ZM316.11 124.48H317.77V134.98H316.11V124.48ZM317.05 129.08H320.45V130.48H317.05V129.08ZM306.41 135.78H308.03V137.7H316.13V135.78H317.77V142.32H306.41V135.78ZM308.03 138.98V140.98H316.13V138.98H308.03ZM303.79 126.32H314.47V127.68H303.79V126.32ZM309.13 128.5C311.71 128.5 313.45 129.76 313.45 131.68C313.45 133.6 311.71 134.86 309.13 134.86C306.53 134.86 304.79 133.6 304.79 131.68C304.79 129.76 306.53 128.5 309.13 128.5ZM309.13 129.76C307.47 129.76 306.37 130.52 306.37 131.68C306.37 132.84 307.47 133.6 309.13 133.6C310.75 133.6 311.87 132.84 311.87 131.68C311.87 130.52 310.75 129.76 309.13 129.76ZM308.29 124.3H309.95V127.06H308.29V124.3ZM335.288 124.48H336.948V142.56H335.288V124.48ZM323.288 126.24H324.928V137.44H323.288V126.24ZM323.288 136.46H324.768C327.508 136.46 330.368 136.26 333.428 135.62L333.628 137.04C330.488 137.68 327.628 137.9 324.768 137.9H323.288V136.46ZM352.767 124.46H354.447V142.58H352.767V124.46ZM354.047 131.6H357.407V133H354.047V131.6ZM341.307 136.68H342.727C346.067 136.68 348.407 136.56 351.107 136.06L351.287 137.46C348.507 137.98 346.127 138.08 342.727 138.08H341.307V136.68ZM341.307 126.22H349.707V127.58H342.947V137.3H341.307V126.22ZM360.772 141.135C360.384 141.135 360.05 140.998 359.771 140.723C359.491 140.444 359.352 140.107 359.352 139.714C359.352 139.326 359.491 138.995 359.771 138.72C360.05 138.441 360.384 138.301 360.772 138.301C361.16 138.301 361.494 138.441 361.773 138.72C362.053 138.995 362.192 139.326 362.192 139.714C362.192 139.975 362.126 140.214 361.994 140.432C361.866 140.645 361.695 140.815 361.482 140.943C361.269 141.071 361.032 141.135 360.772 141.135Z" fill="black"/>
<g clip-path="url(#clip0_1377_153)">
<path d="M213 53C222.941 53 231 44.9411 231 35C231 25.0589 222.941 17 213 17C203.059 17 195 25.0589 195 35C195 44.9411 203.059 53 213 53Z" fill="#E1E8ED"/>
<path d="M226.802 46.5462C223.792 45.2212 222 41.0482 222 35.0002C222 28.9522 223.792 24.7792 226.802 23.4542C226.356 22.9258 225.879 22.4237 225.374 21.9502C222.406 23.6052 220 27.5782 220 35.0002C220 42.4212 222.406 46.3952 225.374 48.0502C225.876 47.5732 226.358 47.0772 226.802 46.5462ZM206 35.0002C206 27.5792 203.594 23.6052 200.626 21.9512C200.122 22.4243 199.645 22.9262 199.198 23.4542C202.208 24.7802 204 28.9522 204 35.0002C204 41.0482 202.208 45.2202 199.198 46.5462C199.643 47.0772 200.124 47.5732 200.626 48.0502C203.593 46.3952 206 42.4212 206 35.0002Z" fill="#B3BEC4"/>
<path d="M200.092 27.164C199.855 27.164 199.635 27.144 199.441 27.108C199.18 27.0592 198.95 26.9088 198.8 26.69C198.726 26.5816 198.674 26.4597 198.646 26.3312C198.619 26.2027 198.618 26.0701 198.642 25.941C198.666 25.8119 198.716 25.6888 198.787 25.5788C198.859 25.4688 198.952 25.374 199.06 25.2998C199.279 25.15 199.548 25.0932 199.809 25.142C200.239 25.219 202.5 25.148 202.957 22.866C203.009 22.606 203.162 22.3773 203.383 22.2302C203.492 22.1574 203.615 22.1069 203.744 22.0814C203.873 22.056 204.005 22.0562 204.134 22.082C204.263 22.1078 204.385 22.1587 204.494 22.2318C204.603 22.3049 204.697 22.3988 204.77 22.5081C204.843 22.6174 204.893 22.74 204.919 22.8688C204.944 22.9977 204.944 23.1302 204.918 23.259C204.335 26.171 201.779 27.164 200.092 27.164ZM201.792 31.125C201.262 31.125 200.84 30.802 200.814 30.266C200.788 29.715 201.214 29.355 201.766 29.329C201.766 29.329 204.33 29.294 205.635 27.035C205.701 26.9219 205.789 26.823 205.894 26.744C205.998 26.665 206.117 26.6075 206.244 26.5748C206.371 26.5421 206.503 26.5348 206.633 26.5533C206.763 26.5719 206.887 26.616 207 26.683C207.478 26.959 207.642 27.577 207.365 28.056C205.514 31.262 201.808 31.125 201.792 31.125ZM204 36.282C203.266 36.282 202.586 36.147 202.072 35.904C201.832 35.7905 201.647 35.5864 201.558 35.3366C201.469 35.0868 201.483 34.8118 201.596 34.572C201.71 34.3322 201.914 34.1474 202.163 34.0581C202.413 33.9689 202.688 33.9825 202.928 34.096C203.758 34.489 205.854 34.335 206.658 33.084C206.729 32.9735 206.821 32.878 206.929 32.8031C207.037 32.7282 207.158 32.6752 207.287 32.6473C207.415 32.6193 207.548 32.6169 207.677 32.6402C207.806 32.6635 207.93 32.712 208.04 32.783C208.151 32.854 208.246 32.946 208.321 33.0539C208.396 33.1618 208.449 33.2833 208.477 33.4117C208.505 33.54 208.507 33.6726 208.484 33.8018C208.461 33.9311 208.412 34.0545 208.341 34.165C207.377 35.666 205.565 36.282 204 36.282ZM205.161 41.807C203.607 41.807 202.166 41.108 201.235 40.331C201.134 40.247 201.051 40.1439 200.99 40.0276C200.929 39.9113 200.891 39.7842 200.879 39.6534C200.867 39.5226 200.881 39.3907 200.92 39.2653C200.959 39.1399 201.023 39.0234 201.107 38.9225C201.191 38.8216 201.294 38.7382 201.41 38.6771C201.526 38.616 201.653 38.5785 201.784 38.5665C201.915 38.5546 202.047 38.5686 202.172 38.6076C202.298 38.6466 202.414 38.71 202.515 38.794C202.709 38.957 204.467 40.36 206.297 39.579C206.418 39.5277 206.548 39.5008 206.679 39.4997C206.811 39.4986 206.941 39.5234 207.063 39.5726C207.184 39.6219 207.295 39.6947 207.389 39.7868C207.483 39.8789 207.557 39.9886 207.609 40.1095C207.66 40.2304 207.687 40.3603 207.688 40.4917C207.689 40.623 207.664 40.7533 207.615 40.8751C207.566 40.9969 207.493 41.1078 207.401 41.2015C207.309 41.2951 207.199 41.3697 207.078 41.421C206.471 41.6772 205.82 41.8084 205.161 41.807ZM204.75 47H204.722C202.218 47 200.043 45.43 199.188 43.892C198.919 43.41 199.094 42.848 199.576 42.58C200.059 42.311 200.668 42.51 200.936 42.992C201.42 43.863 202.932 45.126 204.777 45.177C205.329 45.193 205.764 45.565 205.749 46.116C205.734 46.658 205.29 47 204.75 47ZM222.188 47.188C222.04 47.1881 221.894 47.1553 221.76 47.092C221.626 47.0287 221.508 46.9364 221.414 46.8219C221.32 46.7073 221.253 46.5734 221.217 46.4297C221.181 46.286 221.178 46.1362 221.207 45.991C221.871 42.669 225.101 41.841 226.685 42.142C226.946 42.191 227.176 42.3415 227.326 42.5603C227.475 42.7791 227.532 43.0484 227.483 43.309C227.46 43.4384 227.411 43.5618 227.339 43.6721C227.267 43.7824 227.175 43.8774 227.066 43.9517C226.958 44.0259 226.835 44.0778 226.707 44.1045C226.578 44.1312 226.445 44.132 226.316 44.107C225.891 44.027 223.626 44.1 223.169 46.383C223.124 46.61 223.002 46.8143 222.823 46.961C222.644 47.1078 222.419 47.188 222.188 47.188ZM219.624 42.688C219.449 42.6881 219.276 42.642 219.124 42.5542C218.972 42.4664 218.846 42.3401 218.758 42.1881C218.67 42.036 218.624 41.8634 218.624 41.6879C218.625 41.5123 218.671 41.3399 218.759 41.188C220.611 37.982 222.743 37.884 224.153 37.819L224.264 37.814C224.529 37.8013 224.788 37.8943 224.985 38.0727C225.181 38.251 225.298 38.5 225.311 38.765C225.324 39.03 225.231 39.2891 225.052 39.4855C224.874 39.6818 224.625 39.7993 224.36 39.812L224.245 39.817C223.041 39.873 221.796 39.929 220.491 42.188C220.403 42.3402 220.277 42.4665 220.125 42.5543C219.972 42.642 219.8 42.6882 219.624 42.688ZM218.624 36.625C218.445 36.625 218.268 36.5767 218.114 36.4851C217.96 36.3935 217.833 36.262 217.747 36.1044C217.661 35.9468 217.619 35.769 217.626 35.5896C217.632 35.4102 217.687 35.2359 217.784 35.085C219.199 32.882 222.44 32.584 224.052 33.347C224.29 33.4612 224.474 33.6652 224.562 33.9143C224.651 34.1634 224.637 34.4373 224.524 34.6763C224.411 34.9152 224.208 35.0997 223.959 35.1894C223.711 35.2791 223.437 35.2667 223.197 35.155C222.368 34.762 220.271 34.916 219.465 36.167C219.374 36.3076 219.25 36.4232 219.103 36.5032C218.956 36.5832 218.791 36.6251 218.624 36.625ZM224.249 30.688C224.015 30.6879 223.789 30.6058 223.609 30.456C223.415 30.294 221.657 28.897 219.828 29.671C219.586 29.7618 219.319 29.7557 219.082 29.654C218.845 29.5523 218.656 29.3629 218.555 29.1253C218.454 28.8877 218.449 28.6203 218.54 28.3789C218.632 28.1376 218.813 27.9409 219.046 27.83C221.265 26.888 223.581 27.829 224.89 28.92C225.048 29.0516 225.161 29.2287 225.215 29.4271C225.269 29.6255 225.26 29.8356 225.19 30.0288C225.12 30.2221 224.992 30.389 224.823 30.507C224.655 30.6249 224.455 30.6881 224.249 30.688ZM226.063 26.75C225.885 26.7502 225.709 26.7026 225.556 26.6122C225.402 26.5219 225.275 26.392 225.188 26.236C224.704 25.364 223.192 24.113 221.347 24.062C220.794 24.047 220.36 23.556 220.374 23.003C220.391 22.461 220.835 22 221.374 22H221.402C223.907 22 226.082 23.694 226.936 25.232C227.065 25.4664 227.097 25.7423 227.024 25.9999C226.951 26.2575 226.78 26.476 226.547 26.608C226.401 26.6959 226.234 26.7448 226.063 26.75Z" fill="#DD2E44"/>
</g>
<defs>
<clipPath id="clip0_1377_153">
<rect width="36" height="36" fill="white" transform="translate(195 17)"/>
</clipPath>
</defs>
</svg>
