<svg width="570" height="170" viewBox="0 0 570 170" fill="none" xmlns="http://www.w3.org/2000/svg">
<rect x="0.5" y="0.5" width="569" height="169" rx="17.5" fill="white" stroke="#8A9A6B"/>
<rect x="0.5" y="0.5" width="569" height="169" rx="17.5" fill="white" stroke="#8A9A6B"/>
<path d="M40.7406 22.995H44.2414V41.2097H40.7406V22.995ZM43.2412 30.4177H47.479V33.2868H43.2412V30.4177ZM25.0529 25.5219H39.3982V28.2594H25.0529V25.5219ZM32.2387 29.128C35.7395 29.128 38.2138 31.0495 38.2138 33.8396C38.2138 36.6297 35.7395 38.5248 32.2387 38.5248C28.7116 38.5248 26.2373 36.6297 26.2373 33.8396C26.2373 31.0495 28.7116 29.128 32.2387 29.128ZM32.2387 31.7865C30.6857 31.7865 29.6065 32.5235 29.6065 33.8396C29.6065 35.1557 30.6857 35.8663 32.2387 35.8663C33.7917 35.8663 34.8709 35.1557 34.8709 33.8396C34.8709 32.5235 33.7917 31.7865 32.2387 31.7865ZM30.4752 22.9424H33.9759V26.8643H30.4752V22.9424ZM28.5273 44.1314H45.1101V46.9215H28.5273V44.1314ZM28.5273 39.8409H32.0281V45.3422H28.5273V39.8409ZM72.5365 22.9687H76.0636V36.0769H72.5365V22.9687ZM59.8494 37.1298H63.2976V39.3935H72.5892V37.1298H76.0636V47.0794H59.8494V37.1298ZM63.2976 42.0783V44.2893H72.5892V42.0783H63.2976ZM62.7975 23.9689C66.5878 23.9689 69.4042 26.3642 69.4042 29.7334C69.4042 33.1026 66.5878 35.4978 62.7975 35.4978C59.0071 35.4978 56.1644 33.1026 56.1644 29.7334C56.1644 26.3642 59.0071 23.9689 62.7975 23.9689ZM62.7975 26.8643C60.9286 26.8643 59.5862 27.9435 59.5862 29.7334C59.5862 31.5496 60.9286 32.6024 62.7975 32.6024C64.64 32.6024 65.9824 31.5496 65.9824 29.7334C65.9824 27.9435 64.64 26.8643 62.7975 26.8643ZM93.0667 24.6533C96.778 24.6533 99.4628 28.0225 99.4628 33.3395C99.4628 38.7091 96.778 42.0783 93.0667 42.0783C89.3553 42.0783 86.6705 38.7091 86.6705 33.3395C86.6705 28.0225 89.3553 24.6533 93.0667 24.6533ZM93.0667 27.8382C91.2505 27.8382 90.0397 29.7597 90.0397 33.3395C90.0397 36.9719 91.2505 38.9197 93.0667 38.9197C94.8829 38.9197 96.12 36.9719 96.12 33.3395C96.12 29.7597 94.8829 27.8382 93.0667 27.8382ZM104.701 28.6279H108.991V31.5233H104.701V28.6279ZM104.701 35.7874H108.991V38.6565H104.701V35.7874ZM102.121 22.9687H105.648V47.3426H102.121V22.9687ZM113.28 24.3901H128.573V27.1538H113.28V24.3901ZM110.779 34.7608H132.81V37.5773H110.779V34.7608ZM119.913 36.735H123.44V47.369H119.913V36.735ZM126.783 24.3901H130.231V26.5484C130.231 29.1806 130.231 32.1287 129.283 36.4454L125.835 36.0506C126.783 31.9707 126.783 29.0753 126.783 26.5484V24.3901ZM146.839 24.2848H149.708V26.4432C149.708 31.2864 147.602 35.5505 142.97 37.1561L141.101 34.3923C145.181 33.0236 146.839 29.7597 146.839 26.4432V24.2848ZM147.55 24.2848H150.393V26.7853C150.393 29.7071 152.025 32.5498 155.841 33.7343L154.025 36.4454C149.629 34.9714 147.55 31.1811 147.55 26.7853V24.2848ZM157.184 22.9687H160.684V37.3667H157.184V22.9687ZM159.71 28.6015H163.922V31.4969H159.71V28.6015ZM152.735 37.9194C157.789 37.9194 160.974 39.683 160.974 42.631C160.974 45.6054 157.789 47.3426 152.735 47.3426C147.655 47.3426 144.47 45.6054 144.47 42.631C144.47 39.683 147.655 37.9194 152.735 37.9194ZM152.735 40.6306C149.629 40.6306 147.945 41.2886 147.945 42.631C147.945 43.9998 149.629 44.6315 152.735 44.6315C155.841 44.6315 157.499 43.9998 157.499 42.631C157.499 41.2886 155.841 40.6306 152.735 40.6306ZM171.422 24.0742H174.317V26.4168C174.317 31.0231 172.08 35.2083 167.315 36.735L165.605 33.9712C169.711 32.6551 171.422 29.4965 171.422 26.4168V24.0742ZM172.132 24.0742H175.001V26.4168C175.001 29.4175 176.686 32.3656 180.661 33.5764L178.95 36.3138C174.291 34.8398 172.132 30.9442 172.132 26.4168V24.0742ZM169.342 38.5775H185.978V47.3426H182.45V41.3676H169.342V38.5775ZM182.45 22.9687H185.978V37.4983H182.45V22.9687Z" fill="black"/>
<path d="M25.68 88.18H27.18C30.46 88.18 32.6 88.1 35 87.66L35.26 89.8C32.78 90.26 30.56 90.36 27.18 90.36H25.68V88.18ZM25.68 77.9H34.06V80.02H28.34V89H25.68V77.9ZM37.7 76.26H40.36V94.84H37.7V76.26ZM33.16 82.64H38.82V84.8H33.16V82.64ZM45.3384 76.58H47.9584V77.8H55.1784V76.58H57.8184V82.78H45.3384V76.58ZM47.9584 79.74V80.82H55.1784V79.74H47.9584ZM43.1984 83.78H59.9384V85.86H43.1984V83.78ZM45.1184 86.92H57.9184V91.62H47.7584V93.3H45.1384V89.8H55.2984V88.86H45.1184V86.92ZM45.1384 92.68H58.3984V94.66H45.1384V92.68ZM67.6858 76.76H81.4858V78.74H67.6858V76.76ZM67.8258 81.1H81.3458V83.08H67.8258V81.1ZM70.0458 77.54H72.7058V82.38H70.0458V77.54ZM76.4658 77.54H79.1258V82.38H76.4658V77.54ZM66.2258 84.04H82.9658V86.12H66.2258V84.04ZM68.1458 87.14H80.9458V91.74H70.7858V93.46H68.1658V89.96H78.3258V89.04H68.1458V87.14ZM68.1658 92.72H81.4258V94.66H68.1658V92.72ZM85.1242 88.28H86.4442C88.6842 88.28 90.6642 88.22 92.9642 87.82L93.1842 89.96C90.8042 90.4 88.7642 90.46 86.4442 90.46H85.1242V88.28ZM85.1042 78.08H91.6442V85.16H87.7042V89.12H85.1242V83.08H89.0842V80.18H85.1042V78.08ZM98.0042 76.26H100.524V94.78H98.0042V76.26ZM92.4042 82.56H95.2842V84.74H92.4042V82.56ZM94.2442 76.6H96.7042V93.9H94.2442V76.6ZM115.723 76.24H118.403V94.82H115.723V76.24ZM108.423 77.54C111.223 77.54 113.283 80.1 113.283 84.14C113.283 88.22 111.223 90.78 108.423 90.78C105.623 90.78 103.563 88.22 103.563 84.14C103.563 80.1 105.623 77.54 108.423 77.54ZM108.423 79.96C107.043 79.96 106.103 81.42 106.103 84.14C106.103 86.9 107.043 88.38 108.423 88.38C109.803 88.38 110.723 86.9 110.723 84.14C110.723 81.42 109.803 79.96 108.423 79.96ZM122.496 85.7273C122.496 83.9659 122.73 82.3442 123.199 80.8622C123.673 79.3802 124.395 78.0071 125.365 76.7429H128.256C127.887 77.2116 127.543 77.7846 127.226 78.4616C126.909 79.134 126.632 79.8726 126.395 80.6776C126.158 81.4825 125.974 82.3158 125.841 83.1776C125.709 84.0346 125.642 84.8845 125.642 85.7273C125.642 86.8494 125.756 87.9834 125.983 89.1293C126.215 90.2704 126.528 91.331 126.921 92.3111C127.319 93.2912 127.764 94.0938 128.256 94.7188H125.365C124.395 93.4545 123.673 92.0814 123.199 90.5994C122.73 89.1174 122.496 87.4934 122.496 85.7273ZM135.225 93H130.069V78.4545H135.268C136.731 78.4545 137.99 78.7457 139.046 79.3281C140.102 79.9058 140.914 80.7367 141.482 81.821C142.055 82.9053 142.342 84.2027 142.342 85.7131C142.342 87.2282 142.055 88.5303 141.482 89.6193C140.914 90.7083 140.097 91.544 139.032 92.1264C137.971 92.7088 136.702 93 135.225 93ZM133.144 90.3651H135.097C136.006 90.3651 136.771 90.2041 137.391 89.8821C138.016 89.5554 138.485 89.0511 138.798 88.3693C139.115 87.6828 139.273 86.7973 139.273 85.7131C139.273 84.6383 139.115 83.7599 138.798 83.0781C138.485 82.3963 138.019 81.8944 137.398 81.5724C136.778 81.2505 136.013 81.0895 135.104 81.0895H133.144V90.3651ZM149.492 93.2131C148.389 93.2131 147.435 92.9787 146.63 92.5099C145.829 92.0365 145.212 91.3783 144.776 90.5355C144.34 89.688 144.123 88.7055 144.123 87.5881C144.123 86.4612 144.34 85.4763 144.776 84.6335C145.212 83.786 145.829 83.1278 146.63 82.6591C147.435 82.1856 148.389 81.9489 149.492 81.9489C150.595 81.9489 151.547 82.1856 152.347 82.6591C153.152 83.1278 153.772 83.786 154.208 84.6335C154.643 85.4763 154.861 86.4612 154.861 87.5881C154.861 88.7055 154.643 89.688 154.208 90.5355C153.772 91.3783 153.152 92.0365 152.347 92.5099C151.547 92.9787 150.595 93.2131 149.492 93.2131ZM149.506 90.8693C150.008 90.8693 150.427 90.7273 150.763 90.4432C151.099 90.1544 151.353 89.7614 151.523 89.2642C151.698 88.767 151.786 88.2012 151.786 87.5668C151.786 86.9323 151.698 86.3665 151.523 85.8693C151.353 85.3722 151.099 84.9792 150.763 84.6903C150.427 84.4015 150.008 84.2571 149.506 84.2571C148.999 84.2571 148.573 84.4015 148.228 84.6903C147.887 84.9792 147.629 85.3722 147.453 85.8693C147.283 86.3665 147.198 86.9323 147.198 87.5668C147.198 88.2012 147.283 88.767 147.453 89.2642C147.629 89.7614 147.887 90.1544 148.228 90.4432C148.573 90.7273 148.999 90.8693 149.506 90.8693ZM163.824 88.3551V82.0909H166.85V93H163.945V91.0185H163.831C163.585 91.6577 163.176 92.1714 162.603 92.5597C162.034 92.9479 161.341 93.142 160.522 93.142C159.792 93.142 159.151 92.9763 158.597 92.6449C158.043 92.3134 157.61 91.8423 157.297 91.2315C156.989 90.6207 156.833 89.8892 156.828 89.0369V82.0909H159.854V88.4972C159.859 89.1411 160.032 89.6501 160.373 90.0241C160.713 90.3982 161.17 90.5852 161.743 90.5852C162.108 90.5852 162.449 90.5024 162.766 90.3366C163.083 90.1662 163.339 89.9152 163.533 89.5838C163.732 89.2524 163.829 88.8428 163.824 88.3551ZM169.327 93V78.4545H172.352V83.9233H172.445C172.577 83.6297 172.769 83.3314 173.02 83.0284C173.276 82.7206 173.607 82.465 174.014 82.2614C174.426 82.053 174.938 81.9489 175.548 81.9489C176.344 81.9489 177.078 82.1572 177.75 82.5739C178.422 82.9858 178.96 83.6084 179.362 84.4418C179.765 85.2704 179.966 86.3097 179.966 87.5597C179.966 88.7765 179.769 89.804 179.376 90.642C178.988 91.4754 178.458 92.1075 177.786 92.5384C177.118 92.9645 176.37 93.1776 175.541 93.1776C174.954 93.1776 174.455 93.0805 174.043 92.8864C173.635 92.6922 173.302 92.4484 173.041 92.1548C172.781 91.8565 172.582 91.5559 172.445 91.2528H172.31V93H169.327ZM172.288 87.5455C172.288 88.1941 172.378 88.7599 172.558 89.2429C172.738 89.7259 172.999 90.1023 173.339 90.3722C173.68 90.6373 174.095 90.7699 174.582 90.7699C175.075 90.7699 175.491 90.6349 175.832 90.3651C176.173 90.0904 176.431 89.7116 176.607 89.2287C176.786 88.741 176.876 88.1799 176.876 87.5455C176.876 86.9157 176.789 86.3617 176.614 85.8835C176.438 85.4053 176.18 85.0312 175.839 84.7614C175.499 84.4915 175.08 84.3565 174.582 84.3565C174.09 84.3565 173.673 84.4867 173.332 84.7472C172.996 85.0076 172.738 85.3769 172.558 85.8551C172.378 86.3333 172.288 86.8968 172.288 87.5455ZM185.01 78.4545V93H181.985V78.4545H185.01ZM192.406 93.2131C191.283 93.2131 190.317 92.9858 189.508 92.5312C188.703 92.072 188.083 91.4233 187.647 90.5852C187.211 89.7424 186.994 88.7457 186.994 87.5952C186.994 86.473 187.211 85.4882 187.647 84.6406C188.083 83.7931 188.696 83.1326 189.487 82.6591C190.282 82.1856 191.215 81.9489 192.285 81.9489C193.004 81.9489 193.674 82.0649 194.295 82.2969C194.92 82.5241 195.464 82.8674 195.928 83.3267C196.397 83.786 196.762 84.3636 197.022 85.0597C197.282 85.7509 197.413 86.5606 197.413 87.4886V88.3196H188.201V86.4446H194.565C194.565 86.009 194.47 85.6231 194.281 85.2869C194.091 84.9508 193.828 84.688 193.492 84.4986C193.161 84.3045 192.775 84.2074 192.335 84.2074C191.875 84.2074 191.468 84.3139 191.113 84.527C190.763 84.7353 190.488 85.017 190.289 85.3722C190.09 85.7225 189.988 86.1132 189.984 86.544V88.3267C189.984 88.8665 190.083 89.3329 190.282 89.7259C190.486 90.1188 190.772 90.4219 191.141 90.6349C191.511 90.848 191.949 90.9545 192.455 90.9545C192.791 90.9545 193.099 90.9072 193.379 90.8125C193.658 90.7178 193.897 90.5758 194.096 90.3864C194.295 90.197 194.446 89.965 194.55 89.6903L197.349 89.875C197.207 90.5473 196.915 91.1345 196.475 91.6364C196.04 92.1335 195.476 92.5218 194.785 92.8011C194.098 93.0758 193.305 93.2131 192.406 93.2131ZM204.073 93V78.4545H209.811C210.915 78.4545 211.855 78.6652 212.631 79.0866C213.408 79.5033 213.999 80.0833 214.407 80.8267C214.819 81.5653 215.025 82.4176 215.025 83.3835C215.025 84.3494 214.816 85.2017 214.4 85.9403C213.983 86.679 213.379 87.2543 212.588 87.6662C211.802 88.0781 210.851 88.2841 209.733 88.2841H206.076V85.8196H209.236C209.828 85.8196 210.316 85.7178 210.699 85.5142C211.087 85.3059 211.376 85.0194 211.566 84.6548C211.76 84.2855 211.857 83.8617 211.857 83.3835C211.857 82.9006 211.76 82.4792 211.566 82.1193C211.376 81.7547 211.087 81.473 210.699 81.2741C210.311 81.0705 209.819 80.9688 209.222 80.9688H207.148V93H204.073ZM219.991 78.4545V93H216.965V78.4545H219.991ZM225.525 93.206C224.829 93.206 224.209 93.0852 223.664 92.8438C223.12 92.5975 222.689 92.2353 222.372 91.7571C222.059 91.2741 221.903 90.6728 221.903 89.9531C221.903 89.3471 222.014 88.8381 222.237 88.4261C222.459 88.0142 222.762 87.6828 223.146 87.4318C223.529 87.1809 223.965 86.9915 224.453 86.8636C224.945 86.7358 225.461 86.6458 226.001 86.5938C226.636 86.5275 227.147 86.4659 227.535 86.4091C227.923 86.3475 228.205 86.2576 228.38 86.1392C228.556 86.0208 228.643 85.8456 228.643 85.6136V85.571C228.643 85.1212 228.501 84.7732 228.217 84.527C227.938 84.2808 227.54 84.1577 227.024 84.1577C226.479 84.1577 226.046 84.2784 225.724 84.5199C225.402 84.7566 225.189 85.0549 225.085 85.4148L222.287 85.1875C222.429 84.5246 222.708 83.9517 223.125 83.4688C223.541 82.9811 224.079 82.607 224.737 82.3466C225.4 82.0814 226.167 81.9489 227.038 81.9489C227.644 81.9489 228.224 82.0199 228.778 82.1619C229.337 82.304 229.832 82.5241 230.262 82.8224C230.698 83.1207 231.041 83.5043 231.292 83.973C231.543 84.437 231.669 84.9934 231.669 85.642V93H228.799V91.4872H228.714C228.539 91.8281 228.305 92.1288 228.011 92.3892C227.717 92.6449 227.365 92.8461 226.953 92.9929C226.541 93.1349 226.065 93.206 225.525 93.206ZM226.392 91.1179C226.837 91.1179 227.23 91.0303 227.571 90.8551C227.912 90.6752 228.179 90.4337 228.373 90.1307C228.567 89.8277 228.664 89.4844 228.664 89.1009V87.9432C228.57 88.0047 228.44 88.0616 228.274 88.1136C228.113 88.161 227.931 88.206 227.727 88.2486C227.523 88.2865 227.32 88.322 227.116 88.3551C226.913 88.3835 226.728 88.4096 226.562 88.4332C226.207 88.4853 225.897 88.5682 225.632 88.6818C225.367 88.7955 225.161 88.9493 225.014 89.1435C224.867 89.3329 224.794 89.5696 224.794 89.8537C224.794 90.2656 224.943 90.5805 225.241 90.7983C225.544 91.0114 225.928 91.1179 226.392 91.1179ZM235.493 97.0909C235.11 97.0909 234.75 97.0601 234.414 96.9986C234.082 96.9418 233.808 96.8684 233.59 96.7784L234.272 94.5199C234.627 94.6288 234.946 94.688 235.23 94.6974C235.519 94.7069 235.768 94.6406 235.976 94.4986C236.189 94.3565 236.362 94.1151 236.495 93.7741L236.672 93.3125L232.759 82.0909H235.941L238.199 90.1023H238.313L240.593 82.0909H243.796L239.556 94.179C239.352 94.7661 239.075 95.2775 238.725 95.7131C238.379 96.1534 237.941 96.492 237.411 96.7287C236.881 96.9702 236.241 97.0909 235.493 97.0909ZM250.444 87.169C250.444 88.9351 250.207 90.5592 249.733 92.0412C249.265 93.5232 248.545 94.8963 247.574 96.1605H244.684C245.053 95.6918 245.396 95.1188 245.713 94.4418C246.031 93.7647 246.308 93.026 246.544 92.2259C246.781 91.4209 246.966 90.5876 247.098 89.7259C247.231 88.8641 247.297 88.0118 247.297 87.169C247.297 86.0469 247.181 84.9152 246.949 83.7741C246.722 82.6283 246.409 81.5677 246.012 80.5923C245.619 79.6122 245.176 78.8097 244.684 78.1847H247.574C248.545 79.4489 249.265 80.822 249.733 82.304C250.207 83.786 250.444 85.4077 250.444 87.169ZM255.52 81.9H267.8V83.26H255.52V81.9ZM253.3 85.68H269.7V87.04H253.3V85.68ZM255.52 77.14H257.16V82.58H255.52V77.14ZM255.4 92.76H267.9V94.12H255.4V92.76ZM255.4 88.84H257.04V93.12H255.4V88.84ZM284.312 77.12H285.772V78.12C285.772 81.58 282.252 84.06 278.492 84.7L277.832 83.36C281.132 82.86 284.312 80.7 284.312 78.12V77.12ZM284.612 77.12H286.052V78.12C286.052 80.64 289.272 82.86 292.532 83.36L291.872 84.7C288.152 84.06 284.612 81.54 284.612 78.12V77.12ZM284.312 87.68H285.952V94.56H284.312V87.68ZM277.012 86.66H293.352V88.04H277.012V86.66ZM308.53 76.46H310.19V94.58H308.53V76.46ZM296.43 78H298.07V82.78H303.29V78H304.95V90.22H296.43V78ZM298.07 84.1V88.86H303.29V84.1H298.07ZM314.849 84.84H316.309C320.209 84.84 322.349 84.76 324.889 84.32L325.069 85.64C322.449 86.1 320.249 86.16 316.309 86.16H314.849V84.84ZM314.849 77.58H323.449V78.92H316.489V85.52H314.849V77.58ZM315.949 81.14H322.949V82.48H315.949V81.14ZM326.949 76.5H328.629V87.26H326.949V76.5ZM316.949 88.16H328.629V94.32H316.949V88.16ZM326.989 89.5H318.569V92.98H326.989V89.5ZM345.327 76.46H346.987V94.58H345.327V76.46ZM337.447 77.86C340.127 77.86 342.047 80.32 342.047 84.16C342.047 88.02 340.127 90.48 337.447 90.48C334.787 90.48 332.867 88.02 332.867 84.16C332.867 80.32 334.787 77.86 337.447 77.86ZM337.447 79.36C335.687 79.36 334.447 81.24 334.447 84.16C334.447 87.1 335.687 89.02 337.447 89.02C339.227 89.02 340.447 87.1 340.447 84.16C340.447 81.24 339.227 79.36 337.447 79.36ZM368.258 76.5H369.918V90.06H368.258V76.5ZM369.398 82.42H372.598V83.82H369.398V82.42ZM355.938 78.68H366.618V80.02H355.938V78.68ZM361.278 81.02C363.838 81.02 365.598 82.36 365.598 84.4C365.598 86.42 363.838 87.76 361.278 87.76C358.698 87.76 356.938 86.42 356.938 84.4C356.938 82.36 358.698 81.02 361.278 81.02ZM361.278 82.32C359.638 82.32 358.518 83.14 358.518 84.4C358.518 85.64 359.638 86.46 361.278 86.46C362.898 86.46 364.018 85.64 364.018 84.4C364.018 83.14 362.898 82.32 361.278 82.32ZM360.438 76.48H362.098V79.38H360.438V76.48ZM358.658 92.8H370.738V94.16H358.658V92.8ZM358.658 88.98H360.318V93.38H358.658V88.98ZM388.11 81.58H393.31V82.94H388.11V81.58ZM392.79 76.5H394.45V89.88H392.79V76.5ZM382.83 92.8H394.89V94.16H382.83V92.8ZM382.83 88.58H384.49V93.5H382.83V88.58ZM380.47 77.68H382.11V80.88H387.01V77.68H388.63V86.8H380.47V77.68ZM382.11 82.18V85.44H387.01V82.18H382.11ZM403.848 77.78C406.668 77.78 408.688 79.52 408.688 82.04C408.688 84.58 406.668 86.32 403.848 86.32C401.028 86.32 398.988 84.58 398.988 82.04C398.988 79.52 401.028 77.78 403.848 77.78ZM403.848 79.22C401.968 79.22 400.608 80.36 400.608 82.04C400.608 83.72 401.968 84.88 403.848 84.88C405.708 84.88 407.068 83.72 407.068 82.04C407.068 80.36 405.708 79.22 403.848 79.22ZM411.048 76.46H412.708V94.58H411.048V76.46ZM398.308 90.62L398.068 89.24C401.368 89.24 405.928 89.22 409.868 88.6L410.008 89.82C405.948 90.6 401.528 90.62 398.308 90.62ZM429.78 87.88C433.62 87.88 436.08 89.14 436.08 91.22C436.08 93.28 433.62 94.52 429.78 94.52C425.92 94.52 423.48 93.28 423.48 91.22C423.48 89.14 425.92 87.88 429.78 87.88ZM429.78 89.18C426.94 89.18 425.12 89.96 425.12 91.22C425.12 92.46 426.94 93.24 429.78 93.24C432.62 93.24 434.42 92.46 434.42 91.22C434.42 89.96 432.62 89.18 429.78 89.18ZM423.62 77.38H435.26V78.74H423.62V77.38ZM421.68 84.9H438V86.24H421.68V84.9ZM428.38 81.42H430.02V85.28H428.38V81.42ZM434.3 77.38H435.92V78.92C435.92 80.38 435.92 81.84 435.44 83.72L433.8 83.52C434.3 81.66 434.3 80.34 434.3 78.92V77.38ZM447.778 77.7H449.518C449.518 82.3 446.258 85.58 440.998 87.02L440.338 85.72C444.978 84.44 447.778 81.78 447.778 78.42V77.7ZM441.258 77.7H448.798V79.04H441.258V77.7ZM442.878 88.08H454.938V94.52H453.278V89.42H442.878V88.08ZM453.278 76.48H454.938V87.26H453.278V76.48ZM448.778 79.7H453.618V81.06H448.778V79.7ZM448.598 83.54H453.498V84.9H448.598V83.54ZM465.797 83.5H469.217V84.88H465.797V83.5ZM472.237 76.48H473.837V94.56H472.237V76.48ZM468.657 76.86H470.237V93.66H468.657V76.86ZM462.537 77.98C464.877 77.98 466.397 80.4 466.397 84.28C466.397 88.16 464.877 90.58 462.537 90.58C460.197 90.58 458.697 88.16 458.697 84.28C458.697 80.4 460.197 77.98 462.537 77.98ZM462.537 79.52C461.117 79.52 460.217 81.36 460.217 84.28C460.217 87.2 461.117 89.04 462.537 89.04C463.977 89.04 464.877 87.2 464.877 84.28C464.877 81.36 463.977 79.52 462.537 79.52ZM485.895 82.6H490.935V83.96H485.895V82.6ZM481.535 78.04H482.895V81.26C482.895 85.32 480.755 89.2 477.895 90.74L476.835 89.42C479.495 88.1 481.535 84.62 481.535 81.26V78.04ZM481.855 78.04H483.195V81.26C483.195 84.56 485.235 87.84 487.855 89.08L486.875 90.42C483.955 88.94 481.855 85.22 481.855 81.26V78.04ZM490.115 76.46H491.755V94.58H490.115V76.46ZM502.806 83.2H514.886V84.56H502.806V83.2ZM500.546 86.9H516.946V88.28H500.546V86.9ZM507.866 87.66H509.506V94.5H507.866V87.66ZM502.806 77.54H514.646V78.9H504.486V83.86H502.806V77.54ZM532.878 79.4H538.098V80.76H532.878V79.4ZM532.878 83H538.138V84.34H532.878V83ZM537.458 76.48H539.118V87.18H537.458V76.48ZM525.078 77.84H533.338V85.88H525.078V77.84ZM531.698 79.18H526.698V84.56H531.698V79.18ZM533.178 87.7C536.898 87.7 539.198 88.96 539.198 91.12C539.198 93.28 536.898 94.52 533.178 94.52C529.438 94.52 527.138 93.28 527.138 91.12C527.138 88.96 529.438 87.7 533.178 87.7ZM533.178 89.02C530.458 89.02 528.798 89.8 528.798 91.12C528.798 92.44 530.458 93.22 533.178 93.22C535.898 93.22 537.558 92.44 537.558 91.12C537.558 89.8 535.898 89.02 533.178 89.02ZM30.86 101.78C33.68 101.78 35.7 103.52 35.7 106.04C35.7 108.58 33.68 110.32 30.86 110.32C28.04 110.32 26 108.58 26 106.04C26 103.52 28.04 101.78 30.86 101.78ZM30.86 103.22C28.98 103.22 27.62 104.36 27.62 106.04C27.62 107.72 28.98 108.88 30.86 108.88C32.72 108.88 34.08 107.72 34.08 106.04C34.08 104.36 32.72 103.22 30.86 103.22ZM38.06 100.46H39.72V118.58H38.06V100.46ZM25.32 114.62L25.08 113.24C28.38 113.24 32.94 113.22 36.88 112.6L37.02 113.82C32.96 114.6 28.54 114.62 25.32 114.62ZM55.9314 102.26H57.3714V103.02C57.3714 106.26 53.9314 108.64 50.2914 109.26L49.6514 107.94C52.8314 107.48 55.9314 105.4 55.9314 103.02V102.26ZM56.3514 102.26H57.7714V103.02C57.7714 105.4 60.8914 107.48 64.0514 107.94L63.4314 109.26C59.7714 108.64 56.3514 106.26 56.3514 103.02V102.26ZM55.9914 111.66H57.6314V118.56H55.9914V111.66ZM48.6914 110.78H65.0314V112.14H48.6914V110.78ZM50.2114 101.6H63.4514V102.94H50.2114V101.6ZM71.5498 103.06H72.8698V106C72.8698 109.76 70.5698 113.64 67.7498 115.08L66.7898 113.76C69.3698 112.5 71.5498 109.06 71.5498 106V103.06ZM71.8498 103.06H73.1698V106C73.1698 108.86 75.2098 112.08 77.8298 113.32L76.8898 114.64C74.0298 113.22 71.8498 109.58 71.8498 106V103.06ZM67.4298 102.32H77.1698V103.72H67.4298V102.32ZM79.3098 100.48H80.9898V118.56H79.3098V100.48ZM80.5898 107.78H83.9498V109.18H80.5898V107.78ZM85.4683 108.88H101.868V110.14H85.4683V108.88ZM87.4083 111.6H99.8083V115.46H89.1083V117.58H87.4683V114.32H98.1883V112.78H87.4083V111.6ZM87.4683 117.14H100.388V118.34H87.4683V117.14ZM87.5483 101H99.7483V104.76H89.2283V106.72H87.5883V103.64H98.1283V102.18H87.5483V101ZM87.5883 106.32H100.088V107.52H87.5883V106.32ZM113.98 101.86C116.64 101.86 118.52 104.32 118.52 108.16C118.52 112.02 116.64 114.48 113.98 114.48C111.32 114.48 109.44 112.02 109.44 108.16C109.44 104.32 111.32 101.86 113.98 101.86ZM113.98 103.36C112.22 103.36 111.02 105.24 111.02 108.16C111.02 111.1 112.22 113.02 113.98 113.02C115.72 113.02 116.94 111.1 116.94 108.16C116.94 105.24 115.72 103.36 113.98 103.36ZM121.4 100.48H123.08V118.56H121.4V100.48ZM122.68 107.7H126.04V109.1H122.68V107.7ZM127.558 108.74H143.958V110.1H127.558V108.74ZM134.898 109.32H136.518V112.08H134.898V109.32ZM134.858 112.92H136.278V113.48C136.278 116.24 133.078 118.06 129.298 118.5L128.758 117.22C132.018 116.88 134.858 115.4 134.858 113.48V112.92ZM135.138 112.92H136.558V113.48C136.558 115.46 139.378 116.9 142.658 117.22L142.118 118.5C138.358 118.06 135.138 116.3 135.138 113.48V112.92ZM135.738 100.74C139.658 100.74 142.098 101.96 142.098 104.06C142.098 106.16 139.658 107.38 135.738 107.38C131.798 107.38 129.378 106.16 129.378 104.06C129.378 101.96 131.798 100.74 135.738 100.74ZM135.738 102.02C132.838 102.02 131.078 102.76 131.078 104.06C131.078 105.34 132.838 106.1 135.738 106.1C138.618 106.1 140.398 105.34 140.398 104.06C140.398 102.76 138.618 102.02 135.738 102.02ZM150.737 102.04H152.097V105.28C152.097 109.44 149.857 113.3 146.897 114.8L145.877 113.44C148.557 112.16 150.737 108.7 150.737 105.28V102.04ZM151.017 102.04H152.377V105.28C152.377 108.58 154.537 111.9 157.217 113.14L156.217 114.46C153.277 113.02 151.017 109.3 151.017 105.28V102.04ZM159.097 100.46H160.757V118.58H159.097V100.46ZM172.375 102.36H173.975C173.975 107.58 172.135 112.42 165.615 115.62L164.715 114.32C170.435 111.52 172.375 107.48 172.375 102.54V102.36ZM165.695 102.36H173.215V103.7H165.695V102.36ZM172.135 106.84V108.12L165.075 108.78L164.795 107.32L172.135 106.84ZM177.535 100.48H179.195V118.56H177.535V100.48ZM184.973 105.9H197.253V107.26H184.973V105.9ZM182.753 109.68H199.153V111.04H182.753V109.68ZM184.973 101.14H186.613V106.58H184.973V101.14ZM184.853 116.76H197.353V118.12H184.853V116.76ZM184.853 112.84H186.493V117.12H184.853V112.84ZM219.665 100.48H221.325V112.72H219.665V100.48ZM215.785 105.58H220.005V106.94H215.785V105.58ZM213.985 101.9H215.725C215.725 106.58 212.645 109.9 207.465 111.58L206.765 110.26C211.345 108.82 213.985 106.1 213.985 102.56V101.9ZM207.625 101.9H215.165V103.26H207.625V101.9ZM214.665 111.16H216.085V111.98C216.085 115.44 212.925 117.78 209.305 118.52L208.645 117.2C211.845 116.62 214.665 114.62 214.665 111.98V111.16ZM214.905 111.16H216.325V111.98C216.325 114.58 219.105 116.58 222.325 117.16L221.625 118.48C218.025 117.76 214.905 115.42 214.905 111.98V111.16ZM238.003 100.48H239.683V110.18H238.003V100.48ZM228.023 111.08H229.663V113.28H238.043V111.08H239.683V118.32H228.023V111.08ZM229.663 114.6V116.98H238.043V114.6H229.663ZM229.983 101.34C232.723 101.34 234.683 103.04 234.683 105.5C234.683 107.98 232.723 109.68 229.983 109.68C227.243 109.68 225.263 107.98 225.263 105.5C225.263 103.04 227.243 101.34 229.983 101.34ZM229.983 102.72C228.183 102.72 226.883 103.86 226.883 105.5C226.883 107.14 228.183 108.28 229.983 108.28C231.783 108.28 233.083 107.14 233.083 105.5C233.083 103.86 231.783 102.72 229.983 102.72ZM256.402 100.48H258.062V118.56H256.402V100.48ZM244.402 102.24H246.042V113.44H244.402V102.24ZM244.402 112.46H245.882C248.622 112.46 251.482 112.26 254.542 111.62L254.742 113.04C251.602 113.68 248.742 113.9 245.882 113.9H244.402V112.46ZM273.88 100.46H275.56V118.58H273.88V100.46ZM275.16 107.6H278.52V109H275.16V107.6ZM262.42 112.68H263.84C267.18 112.68 269.52 112.56 272.22 112.06L272.4 113.46C269.62 113.98 267.24 114.08 263.84 114.08H262.42V112.68ZM262.42 102.22H270.82V103.58H264.06V113.3H262.42V102.22ZM281.885 117.135C281.497 117.135 281.163 116.998 280.884 116.723C280.605 116.444 280.465 116.107 280.465 115.714C280.465 115.326 280.605 114.995 280.884 114.72C281.163 114.441 281.497 114.301 281.885 114.301C282.274 114.301 282.607 114.441 282.887 114.72C283.166 114.995 283.306 115.326 283.306 115.714C283.306 115.975 283.239 116.214 283.107 116.432C282.979 116.645 282.809 116.815 282.596 116.943C282.382 117.071 282.146 117.135 281.885 117.135ZM298.021 102.26H299.461V103.02C299.461 106.26 296.021 108.64 292.381 109.26L291.741 107.94C294.921 107.48 298.021 105.4 298.021 103.02V102.26ZM298.441 102.26H299.861V103.02C299.861 105.4 302.981 107.48 306.141 107.94L305.521 109.26C301.861 108.64 298.441 106.26 298.441 103.02V102.26ZM298.081 111.66H299.721V118.56H298.081V111.66ZM290.781 110.78H307.121V112.14H290.781V110.78ZM292.301 101.6H305.541V102.94H292.301V101.6ZM309.18 114.96H325.56V116.34H309.18V114.96ZM316.5 111.08H318.16V115.54H316.5V111.08ZM311.16 101.82H323.54V107.3H312.86V110.92H311.22V105.96H321.9V103.16H311.16V101.82ZM311.22 110.22H323.96V111.58H311.22V110.22ZM338.789 102.455V117H336.587V104.656H336.502L333.022 106.929V104.827L336.651 102.455H338.789ZM344.264 101.2H356.704V105.92H345.984V109.04H344.304V104.64H355.044V102.54H344.264V101.2ZM344.304 108.22H357.124V109.58H344.304V108.22ZM342.304 111.44H358.704V112.82H342.304V111.44ZM349.644 111.96H351.284V118.58H349.644V111.96ZM365.283 109.6H366.943V113.92H365.283V109.6ZM366.103 101.64C368.883 101.64 370.883 103.38 370.883 105.9C370.883 108.42 368.883 110.16 366.103 110.16C363.323 110.16 361.323 108.42 361.323 105.9C361.323 103.38 363.323 101.64 366.103 101.64ZM366.103 103.06C364.263 103.06 362.943 104.22 362.943 105.9C362.943 107.58 364.263 108.74 366.103 108.74C367.943 108.74 369.263 107.58 369.263 105.9C369.263 104.22 367.943 103.06 366.103 103.06ZM372.943 100.48H374.603V118.56H372.943V100.48ZM374.123 107.92H377.463V109.32H374.123V107.92ZM360.743 114.66L360.503 113.28C363.763 113.26 368.123 113.24 371.803 112.74L371.943 113.98C368.123 114.62 363.903 114.66 360.743 114.66ZM384.813 117V115.409L389.735 110.31C390.261 109.756 390.694 109.27 391.035 108.854C391.38 108.432 391.638 108.032 391.809 107.653C391.979 107.275 392.065 106.872 392.065 106.446C392.065 105.963 391.951 105.546 391.724 105.196C391.496 104.841 391.186 104.569 390.793 104.379C390.4 104.185 389.958 104.088 389.465 104.088C388.944 104.088 388.49 104.195 388.102 104.408C387.713 104.621 387.415 104.921 387.207 105.31C386.998 105.698 386.894 106.152 386.894 106.673H384.799C384.799 105.788 385.003 105.014 385.41 104.351C385.817 103.688 386.376 103.174 387.086 102.81C387.796 102.44 388.603 102.256 389.508 102.256C390.422 102.256 391.227 102.438 391.923 102.803C392.623 103.162 393.17 103.655 393.563 104.28C393.956 104.9 394.153 105.601 394.153 106.382C394.153 106.922 394.051 107.45 393.847 107.966C393.648 108.482 393.3 109.057 392.803 109.692C392.306 110.321 391.615 111.086 390.729 111.986L387.839 115.011V115.118H394.387V117H384.813ZM398.62 101.2H411.06V105.92H400.34V109.04H398.66V104.64H409.4V102.54H398.62V101.2ZM398.66 108.22H411.48V109.58H398.66V108.22ZM396.66 111.44H413.06V112.82H396.66V111.44ZM404 111.96H405.64V118.58H404V111.96ZM422.398 107.5H425.818V108.88H422.398V107.5ZM428.838 100.48H430.438V118.56H428.838V100.48ZM425.258 100.86H426.838V117.66H425.258V100.86ZM419.138 101.98C421.478 101.98 422.998 104.4 422.998 108.28C422.998 112.16 421.478 114.58 419.138 114.58C416.798 114.58 415.298 112.16 415.298 108.28C415.298 104.4 416.798 101.98 419.138 101.98ZM419.138 103.52C417.718 103.52 416.818 105.36 416.818 108.28C416.818 111.2 417.718 113.04 419.138 113.04C420.578 113.04 421.478 111.2 421.478 108.28C421.478 105.36 420.578 103.52 419.138 103.52ZM442.497 106.6H447.537V107.96H442.497V106.6ZM438.137 102.04H439.497V105.26C439.497 109.32 437.357 113.2 434.497 114.74L433.437 113.42C436.097 112.1 438.137 108.62 438.137 105.26V102.04ZM438.457 102.04H439.797V105.26C439.797 108.56 441.837 111.84 444.457 113.08L443.477 114.42C440.557 112.94 438.457 109.22 438.457 105.26V102.04ZM446.717 100.46H448.357V118.58H446.717V100.46ZM469.908 100.48H471.548V118.56H469.908V100.48ZM470.608 107.54H473.948V108.92H470.608V107.54ZM457.488 102.16H458.908V106.8H461.108V102.16H462.488V114.18H457.488V102.16ZM458.908 108.12V112.82H461.108V108.12H458.908ZM463.448 102.16H464.848V106.8H466.988V102.16H468.388V114.18H463.448V102.16ZM464.848 108.12V112.82H466.988V108.12H464.848ZM475.566 114.9H491.946V116.3H475.566V114.9ZM477.546 101.86H489.926V107.34H479.246V110.96H477.606V106.02H488.286V103.22H477.546V101.86ZM477.606 110.26H490.346V111.62H477.606V110.26ZM507.725 100.48H509.325V118.56H507.725V100.48ZM499.885 107.86H504.445V109.2H499.885V107.86ZM503.965 100.94H505.525V117.64H503.965V100.94ZM500.105 102.76H501.705C501.705 107.5 499.805 111.76 494.925 114.66L493.945 113.48C498.205 110.92 500.105 107.32 500.105 103.06V102.76ZM494.745 102.76H500.725V104.12H494.745V102.76ZM530.776 100.46H532.436V118.58H530.776V100.46ZM522.896 101.86C525.576 101.86 527.496 104.32 527.496 108.16C527.496 112.02 525.576 114.48 522.896 114.48C520.236 114.48 518.316 112.02 518.316 108.16C518.316 104.32 520.236 101.86 522.896 101.86ZM522.896 103.36C521.136 103.36 519.896 105.24 519.896 108.16C519.896 111.1 521.136 113.02 522.896 113.02C524.676 113.02 525.896 111.1 525.896 108.16C525.896 105.24 524.676 103.36 522.896 103.36ZM26.94 125.2H39.38V129.92H28.66V133.04H26.98V128.64H37.72V126.54H26.94V125.2ZM26.98 132.22H39.8V133.58H26.98V132.22ZM24.98 135.44H41.38V136.82H24.98V135.44ZM32.32 135.96H33.96V142.58H32.32V135.96ZM48.2184 125.86C50.8384 125.86 52.7184 128.32 52.7184 132.16C52.7184 136.02 50.8384 138.48 48.2184 138.48C45.5784 138.48 43.7184 136.02 43.7184 132.16C43.7184 128.32 45.5784 125.86 48.2184 125.86ZM48.2184 127.36C46.4784 127.36 45.2984 129.24 45.2984 132.16C45.2984 135.1 46.4784 137.02 48.2184 137.02C49.9584 137.02 51.1384 135.1 51.1384 132.16C51.1384 129.24 49.9584 127.36 48.2184 127.36ZM56.6384 124.46H58.2784V142.58H56.6384V124.46ZM52.1784 131.36H57.3584V132.72H52.1784V131.36ZM66.5969 126.04H67.9769V127.42C67.9769 130.6 65.8969 133.28 62.8569 134.32L62.0169 133C64.7369 132.12 66.5969 129.88 66.5969 127.42V126.04ZM66.9169 126.04H68.2969V127.42C68.2969 129.76 70.1969 131.86 72.8569 132.7L72.0369 134C69.0369 133.02 66.9169 130.48 66.9169 127.42V126.04ZM62.4769 125.66H72.3769V127H62.4769V125.66ZM74.9369 124.48H76.6169V134.26H74.9369V124.48ZM64.9569 135.16H66.5969V137.3H74.9769V135.16H76.6169V142.32H64.9569V135.16ZM66.5969 138.64V140.96H74.9769V138.64H66.5969ZM93.3353 124.48H94.9953V142.56H93.3353V124.48ZM81.3353 126.24H82.9753V137.44H81.3353V126.24ZM81.3353 136.46H82.8153C85.5553 136.46 88.4153 136.26 91.4753 135.62L91.6753 137.04C88.5353 137.68 85.6753 137.9 82.8153 137.9H81.3353V136.46ZM110.814 124.46H112.494V142.58H110.814V124.46ZM112.094 131.6H115.454V133H112.094V131.6ZM99.3538 136.68H100.774C104.114 136.68 106.454 136.56 109.154 136.06L109.334 137.46C106.554 137.98 104.174 138.08 100.774 138.08H99.3538V136.68ZM99.3538 126.22H107.754V127.58H100.994V137.3H99.3538V126.22ZM118.819 141.135C118.431 141.135 118.097 140.998 117.817 140.723C117.538 140.444 117.398 140.107 117.398 139.714C117.398 139.326 117.538 138.995 117.817 138.72C118.097 138.441 118.431 138.301 118.819 138.301C119.207 138.301 119.541 138.441 119.82 138.72C120.1 138.995 120.239 139.326 120.239 139.714C120.239 139.975 120.173 140.214 120.04 140.432C119.913 140.645 119.742 140.815 119.529 140.943C119.316 141.071 119.079 141.135 118.819 141.135Z" fill="black"/>
<g clip-path="url(#clip0_1377_238)">
<path d="M213 53C222.941 53 231 44.9411 231 35C231 25.0589 222.941 17 213 17C203.059 17 195 25.0589 195 35C195 44.9411 203.059 53 213 53Z" fill="#E1E8ED"/>
<path d="M226.802 46.5462C223.792 45.2212 222 41.0482 222 35.0002C222 28.9522 223.792 24.7792 226.802 23.4542C226.356 22.9258 225.879 22.4237 225.374 21.9502C222.406 23.6052 220 27.5782 220 35.0002C220 42.4212 222.406 46.3952 225.374 48.0502C225.876 47.5732 226.358 47.0772 226.802 46.5462ZM206 35.0002C206 27.5792 203.594 23.6052 200.626 21.9512C200.122 22.4243 199.645 22.9262 199.198 23.4542C202.208 24.7802 204 28.9522 204 35.0002C204 41.0482 202.208 45.2202 199.198 46.5462C199.643 47.0772 200.124 47.5732 200.626 48.0502C203.593 46.3952 206 42.4212 206 35.0002Z" fill="#B3BEC4"/>
<path d="M200.092 27.164C199.855 27.164 199.635 27.144 199.441 27.108C199.18 27.0592 198.95 26.9088 198.8 26.69C198.726 26.5816 198.674 26.4597 198.646 26.3312C198.619 26.2027 198.618 26.0701 198.642 25.941C198.666 25.8119 198.716 25.6888 198.787 25.5788C198.859 25.4688 198.952 25.374 199.06 25.2998C199.279 25.15 199.548 25.0932 199.809 25.142C200.239 25.219 202.5 25.148 202.957 22.866C203.009 22.606 203.162 22.3773 203.383 22.2302C203.492 22.1574 203.615 22.1069 203.744 22.0814C203.873 22.056 204.005 22.0562 204.134 22.082C204.263 22.1078 204.385 22.1587 204.494 22.2318C204.603 22.3049 204.697 22.3988 204.77 22.5081C204.843 22.6174 204.893 22.74 204.919 22.8688C204.944 22.9977 204.944 23.1302 204.918 23.259C204.335 26.171 201.779 27.164 200.092 27.164ZM201.792 31.125C201.262 31.125 200.84 30.802 200.814 30.266C200.788 29.715 201.214 29.355 201.766 29.329C201.766 29.329 204.33 29.294 205.635 27.035C205.701 26.9219 205.789 26.823 205.894 26.744C205.998 26.665 206.117 26.6075 206.244 26.5748C206.371 26.5421 206.503 26.5348 206.633 26.5533C206.763 26.5719 206.887 26.616 207 26.683C207.478 26.959 207.642 27.577 207.365 28.056C205.514 31.262 201.808 31.125 201.792 31.125ZM204 36.282C203.266 36.282 202.586 36.147 202.072 35.904C201.832 35.7905 201.647 35.5864 201.558 35.3366C201.469 35.0868 201.483 34.8118 201.596 34.572C201.71 34.3322 201.914 34.1474 202.163 34.0581C202.413 33.9689 202.688 33.9825 202.928 34.096C203.758 34.489 205.854 34.335 206.658 33.084C206.729 32.9735 206.821 32.878 206.929 32.8031C207.037 32.7282 207.158 32.6752 207.287 32.6473C207.415 32.6193 207.548 32.6169 207.677 32.6402C207.806 32.6635 207.93 32.712 208.04 32.783C208.151 32.854 208.246 32.946 208.321 33.0539C208.396 33.1618 208.449 33.2833 208.477 33.4117C208.505 33.54 208.507 33.6726 208.484 33.8018C208.461 33.9311 208.412 34.0545 208.341 34.165C207.377 35.666 205.565 36.282 204 36.282ZM205.161 41.807C203.607 41.807 202.166 41.108 201.235 40.331C201.134 40.247 201.051 40.1439 200.99 40.0276C200.929 39.9113 200.891 39.7842 200.879 39.6534C200.867 39.5226 200.881 39.3907 200.92 39.2653C200.959 39.1399 201.023 39.0234 201.107 38.9225C201.191 38.8216 201.294 38.7382 201.41 38.6771C201.526 38.616 201.653 38.5785 201.784 38.5665C201.915 38.5546 202.047 38.5686 202.172 38.6076C202.298 38.6466 202.414 38.71 202.515 38.794C202.709 38.957 204.467 40.36 206.297 39.579C206.418 39.5277 206.548 39.5008 206.679 39.4997C206.811 39.4986 206.941 39.5234 207.063 39.5726C207.184 39.6219 207.295 39.6947 207.389 39.7868C207.483 39.8789 207.557 39.9886 207.609 40.1095C207.66 40.2304 207.687 40.3603 207.688 40.4917C207.689 40.623 207.664 40.7533 207.615 40.8751C207.566 40.9969 207.493 41.1078 207.401 41.2015C207.309 41.2951 207.199 41.3697 207.078 41.421C206.471 41.6772 205.82 41.8084 205.161 41.807ZM204.75 47H204.722C202.218 47 200.043 45.43 199.188 43.892C198.919 43.41 199.094 42.848 199.576 42.58C200.059 42.311 200.668 42.51 200.936 42.992C201.42 43.863 202.932 45.126 204.777 45.177C205.329 45.193 205.764 45.565 205.749 46.116C205.734 46.658 205.29 47 204.75 47ZM222.188 47.188C222.04 47.1881 221.894 47.1553 221.76 47.092C221.626 47.0287 221.508 46.9364 221.414 46.8219C221.32 46.7073 221.253 46.5734 221.217 46.4297C221.181 46.286 221.178 46.1362 221.207 45.991C221.871 42.669 225.101 41.841 226.685 42.142C226.946 42.191 227.176 42.3415 227.326 42.5603C227.475 42.7791 227.532 43.0484 227.483 43.309C227.46 43.4384 227.411 43.5618 227.339 43.6721C227.267 43.7824 227.175 43.8774 227.066 43.9517C226.958 44.0259 226.835 44.0778 226.707 44.1045C226.578 44.1312 226.445 44.132 226.316 44.107C225.891 44.027 223.626 44.1 223.169 46.383C223.124 46.61 223.002 46.8143 222.823 46.961C222.644 47.1078 222.419 47.188 222.188 47.188ZM219.624 42.688C219.449 42.6881 219.276 42.642 219.124 42.5542C218.972 42.4664 218.846 42.3401 218.758 42.1881C218.67 42.036 218.624 41.8634 218.624 41.6879C218.625 41.5123 218.671 41.3399 218.759 41.188C220.611 37.982 222.743 37.884 224.153 37.819L224.264 37.814C224.529 37.8013 224.788 37.8943 224.985 38.0727C225.181 38.251 225.298 38.5 225.311 38.765C225.324 39.03 225.231 39.2891 225.052 39.4855C224.874 39.6818 224.625 39.7993 224.36 39.812L224.245 39.817C223.041 39.873 221.796 39.929 220.491 42.188C220.403 42.3402 220.277 42.4665 220.125 42.5543C219.972 42.642 219.8 42.6882 219.624 42.688ZM218.624 36.625C218.445 36.625 218.268 36.5767 218.114 36.4851C217.96 36.3935 217.833 36.262 217.747 36.1044C217.661 35.9468 217.619 35.769 217.626 35.5896C217.632 35.4102 217.687 35.2359 217.784 35.085C219.199 32.882 222.44 32.584 224.052 33.347C224.29 33.4612 224.474 33.6652 224.562 33.9143C224.651 34.1634 224.637 34.4373 224.524 34.6763C224.411 34.9152 224.208 35.0997 223.959 35.1894C223.711 35.2791 223.437 35.2667 223.197 35.155C222.368 34.762 220.271 34.916 219.465 36.167C219.374 36.3076 219.25 36.4232 219.103 36.5032C218.956 36.5832 218.791 36.6251 218.624 36.625ZM224.249 30.688C224.015 30.6879 223.789 30.6058 223.609 30.456C223.415 30.294 221.657 28.897 219.828 29.671C219.586 29.7618 219.319 29.7557 219.082 29.654C218.845 29.5523 218.656 29.3629 218.555 29.1253C218.454 28.8877 218.449 28.6203 218.54 28.3789C218.632 28.1376 218.813 27.9409 219.046 27.83C221.265 26.888 223.581 27.829 224.89 28.92C225.048 29.0516 225.161 29.2287 225.215 29.4271C225.269 29.6255 225.26 29.8356 225.19 30.0288C225.12 30.2221 224.992 30.389 224.823 30.507C224.655 30.6249 224.455 30.6881 224.249 30.688ZM226.063 26.75C225.885 26.7502 225.709 26.7026 225.556 26.6122C225.402 26.5219 225.275 26.392 225.188 26.236C224.704 25.364 223.192 24.113 221.347 24.062C220.794 24.047 220.36 23.556 220.374 23.003C220.391 22.461 220.835 22 221.374 22H221.402C223.907 22 226.082 23.694 226.936 25.232C227.065 25.4664 227.097 25.7423 227.024 25.9999C226.951 26.2575 226.78 26.476 226.547 26.608C226.401 26.6959 226.234 26.7448 226.063 26.75Z" fill="#DD2E44"/>
</g>
<defs>
<clipPath id="clip0_1377_238">
<rect width="36" height="36" fill="white" transform="translate(195 17)"/>
</clipPath>
</defs>
</svg>
