<svg width="570" height="192" viewBox="0 0 570 192" fill="none" xmlns="http://www.w3.org/2000/svg">
<rect x="0.5" y="0.5" width="569" height="169" rx="17.5" fill="white" stroke="#8A9A6B"/>
<rect x="0.5" y="0.5" width="569" height="191" rx="17.5" fill="white" stroke="#8A9A6B"/>
<path d="M40.7406 22.995H44.2414V41.2097H40.7406V22.995ZM43.2412 30.4177H47.479V33.2868H43.2412V30.4177ZM25.0529 25.5219H39.3982V28.2594H25.0529V25.5219ZM32.2387 29.128C35.7395 29.128 38.2138 31.0495 38.2138 33.8396C38.2138 36.6297 35.7395 38.5248 32.2387 38.5248C28.7116 38.5248 26.2373 36.6297 26.2373 33.8396C26.2373 31.0495 28.7116 29.128 32.2387 29.128ZM32.2387 31.7865C30.6857 31.7865 29.6065 32.5235 29.6065 33.8396C29.6065 35.1557 30.6857 35.8663 32.2387 35.8663C33.7917 35.8663 34.8709 35.1557 34.8709 33.8396C34.8709 32.5235 33.7917 31.7865 32.2387 31.7865ZM30.4752 22.9424H33.9759V26.8643H30.4752V22.9424ZM28.5273 44.1314H45.1101V46.9215H28.5273V44.1314ZM28.5273 39.8409H32.0281V45.3422H28.5273V39.8409ZM72.5365 22.9687H76.0636V36.0769H72.5365V22.9687ZM59.8494 37.1298H63.2976V39.3935H72.5892V37.1298H76.0636V47.0794H59.8494V37.1298ZM63.2976 42.0783V44.2893H72.5892V42.0783H63.2976ZM62.7975 23.9689C66.5878 23.9689 69.4042 26.3642 69.4042 29.7334C69.4042 33.1026 66.5878 35.4978 62.7975 35.4978C59.0071 35.4978 56.1644 33.1026 56.1644 29.7334C56.1644 26.3642 59.0071 23.9689 62.7975 23.9689ZM62.7975 26.8643C60.9286 26.8643 59.5862 27.9435 59.5862 29.7334C59.5862 31.5496 60.9286 32.6024 62.7975 32.6024C64.64 32.6024 65.9824 31.5496 65.9824 29.7334C65.9824 27.9435 64.64 26.8643 62.7975 26.8643ZM93.0667 24.6533C96.778 24.6533 99.4628 28.0225 99.4628 33.3395C99.4628 38.7091 96.778 42.0783 93.0667 42.0783C89.3553 42.0783 86.6705 38.7091 86.6705 33.3395C86.6705 28.0225 89.3553 24.6533 93.0667 24.6533ZM93.0667 27.8382C91.2505 27.8382 90.0397 29.7597 90.0397 33.3395C90.0397 36.9719 91.2505 38.9197 93.0667 38.9197C94.8829 38.9197 96.12 36.9719 96.12 33.3395C96.12 29.7597 94.8829 27.8382 93.0667 27.8382ZM104.701 28.6279H108.991V31.5233H104.701V28.6279ZM104.701 35.7874H108.991V38.6565H104.701V35.7874ZM102.121 22.9687H105.648V47.3426H102.121V22.9687ZM113.28 24.3901H128.573V27.1538H113.28V24.3901ZM110.779 34.7608H132.81V37.5773H110.779V34.7608ZM119.913 36.735H123.44V47.369H119.913V36.735ZM126.783 24.3901H130.231V26.5484C130.231 29.1806 130.231 32.1287 129.283 36.4454L125.835 36.0506C126.783 31.9707 126.783 29.0753 126.783 26.5484V24.3901ZM146.839 24.2848H149.708V26.4432C149.708 31.2864 147.602 35.5505 142.97 37.1561L141.101 34.3923C145.181 33.0236 146.839 29.7597 146.839 26.4432V24.2848ZM147.55 24.2848H150.393V26.7853C150.393 29.7071 152.025 32.5498 155.841 33.7343L154.025 36.4454C149.629 34.9714 147.55 31.1811 147.55 26.7853V24.2848ZM157.184 22.9687H160.684V37.3667H157.184V22.9687ZM159.71 28.6015H163.922V31.4969H159.71V28.6015ZM152.735 37.9194C157.789 37.9194 160.974 39.683 160.974 42.631C160.974 45.6054 157.789 47.3426 152.735 47.3426C147.655 47.3426 144.47 45.6054 144.47 42.631C144.47 39.683 147.655 37.9194 152.735 37.9194ZM152.735 40.6306C149.629 40.6306 147.945 41.2886 147.945 42.631C147.945 43.9998 149.629 44.6315 152.735 44.6315C155.841 44.6315 157.499 43.9998 157.499 42.631C157.499 41.2886 155.841 40.6306 152.735 40.6306ZM171.422 24.0742H174.317V26.4168C174.317 31.0231 172.08 35.2083 167.315 36.735L165.605 33.9712C169.711 32.6551 171.422 29.4965 171.422 26.4168V24.0742ZM172.132 24.0742H175.001V26.4168C175.001 29.4175 176.686 32.3656 180.661 33.5764L178.95 36.3138C174.291 34.8398 172.132 30.9442 172.132 26.4168V24.0742ZM169.342 38.5775H185.978V47.3426H182.45V41.3676H169.342V38.5775ZM182.45 22.9687H185.978V37.4983H182.45V22.9687Z" fill="black"/>
<path d="M31.82 85.2H34.48V87.78H31.82V85.2ZM26.94 76.54H29.56V77.76H36.78V76.54H39.42V82.74H26.94V76.54ZM29.56 79.7V80.78H36.78V79.7H29.56ZM24.8 83.7H41.54V85.8H24.8V83.7ZM26.72 86.96H39.52V91.66H29.36V93.34H26.74V89.84H36.9V88.9H26.72V86.96ZM26.74 92.68H40V94.66H26.74V92.68ZM56.5584 76.26H59.0784V90H56.5584V76.26ZM51.3584 81.38H54.1984V83.5H51.3584V81.38ZM53.0584 76.58H55.5384V89.6H53.0584V76.58ZM43.3584 77.88H51.8384V79.98H43.3584V77.88ZM43.3184 87.34L43.0584 85.18C45.4784 85.18 49.3584 85.16 52.1184 84.8L52.2384 86.74C49.3984 87.28 45.6984 87.34 43.3184 87.34ZM44.4984 79.5H46.8984V85.76H44.4984V79.5ZM48.2584 79.5H50.6384V85.76H48.2584V79.5ZM46.7184 92.34H59.5184V94.46H46.7184V92.34ZM46.7184 88.48H49.3984V93.62H46.7184V88.48ZM79.6058 76.26H82.1458V94.78H79.6058V76.26ZM72.5658 83.02H76.8658V85.16H72.5658V83.02ZM75.7858 76.58H78.2658V93.96H75.7858V76.58ZM66.7658 88.48H68.0458C70.6658 88.48 72.4058 88.42 74.4458 88.02L74.6458 90.18C72.5858 90.6 70.7458 90.68 68.0458 90.68H66.7658V88.48ZM66.7658 78.34H73.8258V80.46H69.3858V89.4H66.7658V78.34ZM97.3242 76.24H100.004V94.82H97.3242V76.24ZM90.0242 77.54C92.8242 77.54 94.8842 80.1 94.8842 84.14C94.8842 88.22 92.8242 90.78 90.0242 90.78C87.2242 90.78 85.1642 88.22 85.1642 84.14C85.1642 80.1 87.2242 77.54 90.0242 77.54ZM90.0242 79.96C88.6442 79.96 87.7042 81.42 87.7042 84.14C87.7042 86.9 88.6442 88.38 90.0242 88.38C91.4042 88.38 92.3242 86.9 92.3242 84.14C92.3242 81.42 91.4042 79.96 90.0242 79.96ZM104.098 85.7273C104.098 83.9659 104.332 82.3442 104.801 80.8622C105.274 79.3802 105.996 78.0071 106.967 76.7429H109.858C109.488 77.2116 109.145 77.7846 108.828 78.4616C108.511 79.134 108.234 79.8726 107.997 80.6776C107.76 81.4825 107.575 82.3158 107.443 83.1776C107.31 84.0346 107.244 84.8845 107.244 85.7273C107.244 86.8494 107.358 87.9834 107.585 89.1293C107.817 90.2704 108.129 91.331 108.522 92.3111C108.92 93.2912 109.365 94.0938 109.858 94.7188H106.967C105.996 93.4545 105.274 92.0814 104.801 90.5994C104.332 89.1174 104.098 87.4934 104.098 85.7273ZM111.67 93V78.4545H117.494C118.564 78.4545 119.457 78.6132 120.172 78.9304C120.887 79.2476 121.424 79.688 121.784 80.2514C122.144 80.8101 122.324 81.4541 122.324 82.1832C122.324 82.7514 122.21 83.2509 121.983 83.6818C121.756 84.108 121.443 84.4583 121.045 84.733C120.652 85.0028 120.203 85.1946 119.696 85.3082V85.4503C120.25 85.474 120.768 85.6302 121.251 85.919C121.739 86.2079 122.134 86.6127 122.438 87.1335C122.741 87.6496 122.892 88.2652 122.892 88.9801C122.892 89.7519 122.7 90.4408 122.317 91.0469C121.938 91.6482 121.377 92.1241 120.634 92.4744C119.89 92.8248 118.974 93 117.885 93H111.67ZM114.746 90.4858H117.253C118.11 90.4858 118.735 90.3224 119.128 89.9957C119.521 89.6643 119.717 89.224 119.717 88.6747C119.717 88.2723 119.62 87.9171 119.426 87.6094C119.232 87.3016 118.955 87.0601 118.595 86.8849C118.24 86.7098 117.816 86.6222 117.324 86.6222H114.746V90.4858ZM114.746 84.5412H117.026C117.447 84.5412 117.821 84.4678 118.148 84.321C118.479 84.1695 118.74 83.9564 118.929 83.6818C119.123 83.4072 119.22 83.0781 119.22 82.6946C119.22 82.169 119.033 81.7453 118.659 81.4233C118.29 81.1013 117.764 80.9403 117.082 80.9403H114.746V84.5412ZM131.832 88.3551V82.0909H134.858V93H131.953V91.0185H131.839C131.593 91.6577 131.183 92.1714 130.61 92.5597C130.042 92.9479 129.349 93.142 128.529 93.142C127.8 93.142 127.159 92.9763 126.605 92.6449C126.051 92.3134 125.618 91.8423 125.305 91.2315C124.997 90.6207 124.841 89.8892 124.836 89.0369V82.0909H127.862V88.4972C127.867 89.1411 128.039 89.6501 128.38 90.0241C128.721 90.3982 129.178 90.5852 129.751 90.5852C130.116 90.5852 130.457 90.5024 130.774 90.3366C131.091 90.1662 131.347 89.9152 131.541 89.5838C131.74 89.2524 131.837 88.8428 131.832 88.3551ZM140.303 78.4545V93H137.278V78.4545H140.303ZM145.752 78.4545V93H142.727V78.4545H145.752ZM148.176 97.0909V82.0909H151.159V83.9233H151.294C151.427 83.6297 151.618 83.3314 151.869 83.0284C152.125 82.7206 152.456 82.465 152.864 82.2614C153.276 82.053 153.787 81.9489 154.398 81.9489C155.193 81.9489 155.927 82.1572 156.599 82.5739C157.272 82.9858 157.809 83.6084 158.212 84.4418C158.614 85.2704 158.815 86.3097 158.815 87.5597C158.815 88.7765 158.619 89.804 158.226 90.642C157.838 91.4754 157.307 92.1075 156.635 92.5384C155.967 92.9645 155.219 93.1776 154.391 93.1776C153.804 93.1776 153.304 93.0805 152.892 92.8864C152.485 92.6922 152.151 92.4484 151.891 92.1548C151.63 91.8565 151.431 91.5559 151.294 91.2528H151.202V97.0909H148.176ZM151.138 87.5455C151.138 88.1941 151.228 88.7599 151.408 89.2429C151.588 89.7259 151.848 90.1023 152.189 90.3722C152.53 90.6373 152.944 90.7699 153.432 90.7699C153.924 90.7699 154.341 90.6349 154.682 90.3651C155.023 90.0904 155.281 89.7116 155.456 89.2287C155.636 88.741 155.726 88.1799 155.726 87.5455C155.726 86.9157 155.638 86.3617 155.463 85.8835C155.288 85.4053 155.03 85.0312 154.689 84.7614C154.348 84.4915 153.929 84.3565 153.432 84.3565C152.939 84.3565 152.523 84.4867 152.182 84.7472C151.846 85.0076 151.588 85.3769 151.408 85.8551C151.228 86.3333 151.138 86.8968 151.138 87.5455ZM165.804 93.2131C164.682 93.2131 163.716 92.9858 162.906 92.5312C162.101 92.072 161.481 91.4233 161.045 90.5852C160.61 89.7424 160.392 88.7457 160.392 87.5952C160.392 86.473 160.61 85.4882 161.045 84.6406C161.481 83.7931 162.094 83.1326 162.885 82.6591C163.68 82.1856 164.613 81.9489 165.683 81.9489C166.403 81.9489 167.073 82.0649 167.693 82.2969C168.318 82.5241 168.863 82.8674 169.327 83.3267C169.795 83.786 170.16 84.3636 170.42 85.0597C170.681 85.7509 170.811 86.5606 170.811 87.4886V88.3196H161.599V86.4446H167.963C167.963 86.009 167.868 85.6231 167.679 85.2869C167.49 84.9508 167.227 84.688 166.891 84.4986C166.559 84.3045 166.173 84.2074 165.733 84.2074C165.274 84.2074 164.866 84.3139 164.511 84.527C164.161 84.7353 163.886 85.017 163.688 85.3722C163.489 85.7225 163.387 86.1132 163.382 86.544V88.3267C163.382 88.8665 163.482 89.3329 163.68 89.7259C163.884 90.1188 164.17 90.4219 164.54 90.6349C164.909 90.848 165.347 90.9545 165.854 90.9545C166.19 90.9545 166.498 90.9072 166.777 90.8125C167.056 90.7178 167.295 90.5758 167.494 90.3864C167.693 90.197 167.845 89.965 167.949 89.6903L170.747 89.875C170.605 90.5473 170.314 91.1345 169.874 91.6364C169.438 92.1335 168.875 92.5218 168.183 92.8011C167.497 93.0758 166.704 93.2131 165.804 93.2131ZM175.811 86.6932V93H172.786V82.0909H175.669V84.0156H175.797C176.038 83.3812 176.443 82.8793 177.011 82.5099C177.58 82.1359 178.268 81.9489 179.078 81.9489C179.836 81.9489 180.496 82.1146 181.06 82.446C181.623 82.7775 182.061 83.2509 182.374 83.8665C182.686 84.4773 182.842 85.2064 182.842 86.054V93H179.817V86.5938C179.821 85.9261 179.651 85.4053 179.305 85.0312C178.96 84.6525 178.484 84.4631 177.878 84.4631C177.471 84.4631 177.111 84.5507 176.798 84.7259C176.491 84.901 176.249 85.1567 176.074 85.4929C175.903 85.8243 175.816 86.2244 175.811 86.6932ZM195.069 93H189.913V78.4545H195.112C196.575 78.4545 197.834 78.7457 198.89 79.3281C199.946 79.9058 200.758 80.7367 201.326 81.821C201.899 82.9053 202.185 84.2027 202.185 85.7131C202.185 87.2282 201.899 88.5303 201.326 89.6193C200.758 90.7083 199.941 91.544 198.876 92.1264C197.815 92.7088 196.546 93 195.069 93ZM192.988 90.3651H194.941C195.85 90.3651 196.615 90.2041 197.235 89.8821C197.86 89.5554 198.329 89.0511 198.641 88.3693C198.959 87.6828 199.117 86.7973 199.117 85.7131C199.117 84.6383 198.959 83.7599 198.641 83.0781C198.329 82.3963 197.862 81.8944 197.242 81.5724C196.622 81.2505 195.857 81.0895 194.948 81.0895H192.988V90.3651ZM207.517 93.206C206.821 93.206 206.201 93.0852 205.657 92.8438C205.112 92.5975 204.681 92.2353 204.364 91.7571C204.051 91.2741 203.895 90.6728 203.895 89.9531C203.895 89.3471 204.007 88.8381 204.229 88.4261C204.452 88.0142 204.755 87.6828 205.138 87.4318C205.522 87.1809 205.957 86.9915 206.445 86.8636C206.937 86.7358 207.453 86.6458 207.993 86.5938C208.628 86.5275 209.139 86.4659 209.527 86.4091C209.916 86.3475 210.197 86.2576 210.373 86.1392C210.548 86.0208 210.635 85.8456 210.635 85.6136V85.571C210.635 85.1212 210.493 84.7732 210.209 84.527C209.93 84.2808 209.532 84.1577 209.016 84.1577C208.471 84.1577 208.038 84.2784 207.716 84.5199C207.394 84.7566 207.181 85.0549 207.077 85.4148L204.279 85.1875C204.421 84.5246 204.7 83.9517 205.117 83.4688C205.533 82.9811 206.071 82.607 206.729 82.3466C207.392 82.0814 208.159 81.9489 209.03 81.9489C209.636 81.9489 210.216 82.0199 210.77 82.1619C211.329 82.304 211.824 82.5241 212.255 82.8224C212.69 83.1207 213.033 83.5043 213.284 83.973C213.535 84.437 213.661 84.9934 213.661 85.642V93H210.792V91.4872H210.706C210.531 91.8281 210.297 92.1288 210.003 92.3892C209.71 92.6449 209.357 92.8461 208.945 92.9929C208.533 93.1349 208.057 93.206 207.517 93.206ZM208.384 91.1179C208.829 91.1179 209.222 91.0303 209.563 90.8551C209.904 90.6752 210.171 90.4337 210.365 90.1307C210.56 89.8277 210.657 89.4844 210.657 89.1009V87.9432C210.562 88.0047 210.432 88.0616 210.266 88.1136C210.105 88.161 209.923 88.206 209.719 88.2486C209.516 88.2865 209.312 88.322 209.108 88.3551C208.905 88.3835 208.72 88.4096 208.554 88.4332C208.199 88.4853 207.889 88.5682 207.624 88.6818C207.359 88.7955 207.153 88.9493 207.006 89.1435C206.859 89.3329 206.786 89.5696 206.786 89.8537C206.786 90.2656 206.935 90.5805 207.233 90.7983C207.536 91.0114 207.92 91.1179 208.384 91.1179ZM217.485 97.0909C217.102 97.0909 216.742 97.0601 216.406 96.9986C216.074 96.9418 215.8 96.8684 215.582 96.7784L216.264 94.5199C216.619 94.6288 216.939 94.688 217.223 94.6974C217.511 94.7069 217.76 94.6406 217.968 94.4986C218.181 94.3565 218.354 94.1151 218.487 93.7741L218.664 93.3125L214.751 82.0909H217.933L220.191 90.1023H220.305L222.585 82.0909H225.788L221.548 94.179C221.344 94.7661 221.067 95.2775 220.717 95.7131C220.371 96.1534 219.933 96.492 219.403 96.7287C218.873 96.9702 218.234 97.0909 217.485 97.0909ZM232.436 87.169C232.436 88.9351 232.199 90.5592 231.725 92.0412C231.257 93.5232 230.537 94.8963 229.566 96.1605H226.676C227.045 95.6918 227.388 95.1188 227.706 94.4418C228.023 93.7647 228.3 93.026 228.537 92.2259C228.773 91.4209 228.958 90.5876 229.091 89.7259C229.223 88.8641 229.289 88.0118 229.289 87.169C229.289 86.0469 229.173 84.9152 228.941 83.7741C228.714 82.6283 228.402 81.5677 228.004 80.5923C227.611 79.6122 227.168 78.8097 226.676 78.1847H229.566C230.537 79.4489 231.257 80.822 231.725 82.304C232.199 83.786 232.436 85.4077 232.436 87.169ZM247.673 76.5H249.333V89.82H247.673V76.5ZM248.833 82.02H252.013V83.42H248.833V82.02ZM238.193 92.8H250.153V94.16H238.193V92.8ZM238.193 88.78H239.853V93.3H238.193V88.78ZM236.093 85.64H237.513C240.793 85.64 243.133 85.54 245.953 85.04L246.093 86.42C243.233 86.9 240.853 87 237.513 87H236.093V85.64ZM236.053 77.66H244.193V82.84H237.713V86.12H236.093V81.58H242.553V79.02H236.053V77.66ZM268.264 80.74H272.824V82.12H268.264V80.74ZM263.524 77.58H264.864V79.8C264.864 83.3 262.904 86.22 259.884 87.44L259.024 86.12C261.704 85.12 263.524 82.56 263.524 79.8V77.58ZM263.844 77.58H265.184V79.86C265.184 82.38 266.944 84.76 269.564 85.72L268.664 87C265.784 85.88 263.844 83.08 263.844 79.86V77.58ZM272.204 76.5H273.864V90.02H272.204V76.5ZM262.244 92.8H274.304V94.16H262.244V92.8ZM262.244 88.52H263.904V93.44H262.244V88.52ZM278.142 77.22H279.782V79.82H284.882V77.22H286.502V85.12H278.142V77.22ZM279.782 81.12V83.78H284.882V81.12H279.782ZM289.762 76.48H291.422V85.8H289.762V76.48ZM290.702 80.36H294.082V81.74H290.702V80.36ZM279.942 86.68H291.422V91.06H281.622V93.78H279.982V89.82H289.802V88H279.942V86.68ZM279.982 93.04H292.082V94.36H279.982V93.04ZM301.074 87.42H317.454V88.8H301.074V87.42ZM308.434 87.82H310.074V94.58H308.434V87.82ZM303.254 84.22H315.634V85.58H303.254V84.22ZM303.254 77.32H315.434V78.66H304.894V84.62H303.254V77.32ZM304.414 80.74H314.994V82.04H304.414V80.74ZM326.792 77.12H328.252V78.12C328.252 81.58 324.732 84.06 320.972 84.7L320.312 83.36C323.612 82.86 326.792 80.7 326.792 78.12V77.12ZM327.092 77.12H328.532V78.12C328.532 80.64 331.752 82.86 335.012 83.36L334.352 84.7C330.632 84.06 327.092 81.54 327.092 78.12V77.12ZM326.792 87.68H328.432V94.56H326.792V87.68ZM319.492 86.66H335.832V88.04H319.492V86.66ZM350.111 76.46H351.791V94.56H350.111V76.46ZM351.331 83.8H354.671V85.18H351.331V83.8ZM345.491 78.42H347.111C347.111 83.56 344.751 88.2 338.911 91.14L337.991 89.86C342.991 87.32 345.491 83.46 345.491 78.68V78.42ZM338.831 78.42H346.351V79.78H338.831V78.42ZM363.642 87.08H365.202V89.34H368.362V87.08H369.902V94.32H363.642V87.08ZM365.202 90.58V93.02H368.362V90.58H365.202ZM373.402 86.98H374.682V88.48C374.682 90.94 373.442 93.42 370.942 94.48L370.102 93.22C372.282 92.3 373.402 90.32 373.402 88.48V86.98ZM373.742 86.98H375.022V88.48C375.022 90.42 376.142 92.38 378.322 93.22L377.482 94.48C374.962 93.44 373.742 91.04 373.742 88.48V86.98ZM370.662 80.72H375.522V82.1H370.662V80.72ZM366.502 77.28C369.202 77.28 371.162 78.96 371.162 81.44C371.162 83.9 369.202 85.6 366.502 85.6C363.802 85.6 361.842 83.9 361.842 81.44C361.842 78.96 363.802 77.28 366.502 77.28ZM366.502 78.66C364.722 78.66 363.442 79.8 363.442 81.44C363.442 83.06 364.722 84.22 366.502 84.22C368.282 84.22 369.562 83.06 369.562 81.44C369.562 79.8 368.282 78.66 366.502 78.66ZM374.782 76.48H376.442V86.06H374.782V76.48ZM382.18 81.9H394.46V83.26H382.18V81.9ZM379.96 85.68H396.36V87.04H379.96V85.68ZM382.18 77.14H383.82V82.58H382.18V77.14ZM382.06 92.76H394.56V94.12H382.06V92.76ZM382.06 88.84H383.7V93.12H382.06V88.84ZM416.032 76.48H417.692V85.6H416.032V76.48ZM417.232 80.22H420.372V81.6H417.232V80.22ZM404.532 77.26H406.192V84.2H404.532V77.26ZM404.532 83.32H405.952C408.532 83.32 411.232 83.14 414.172 82.54L414.372 83.92C411.332 84.54 408.632 84.72 405.952 84.72H404.532V83.32ZM406.212 86.46H417.692V90.92H407.892V93.66H406.252V89.64H416.052V87.8H406.212V86.46ZM406.252 92.98H418.352V94.32H406.252V92.98ZM435.19 76.46H436.85V94.58H435.19V76.46ZM427.31 77.86C429.99 77.86 431.91 80.32 431.91 84.16C431.91 88.02 429.99 90.48 427.31 90.48C424.65 90.48 422.73 88.02 422.73 84.16C422.73 80.32 424.65 77.86 427.31 77.86ZM427.31 79.36C425.55 79.36 424.31 81.24 424.31 84.16C424.31 87.1 425.55 89.02 427.31 89.02C429.09 89.02 430.31 87.1 430.31 84.16C430.31 81.24 429.09 79.36 427.31 79.36ZM452.709 76.46H454.369V94.58H452.709V76.46ZM453.969 83.66H457.329V85.06H453.969V83.66ZM441.189 88.84H442.629C446.029 88.84 448.389 88.72 451.129 88.2L451.309 89.58C448.489 90.08 446.089 90.22 442.629 90.22H441.189V88.84ZM441.149 78.16H449.329V84.64H442.829V89.4H441.189V83.28H447.689V79.52H441.149V78.16ZM461.067 81.9H473.347V83.26H461.067V81.9ZM458.847 85.68H475.247V87.04H458.847V85.68ZM461.067 77.14H462.707V82.58H461.067V77.14ZM460.947 92.76H473.447V94.12H460.947V92.76ZM460.947 88.84H462.587V93.12H460.947V88.84ZM488.419 77.78C491.239 77.78 493.259 79.52 493.259 82.04C493.259 84.58 491.239 86.32 488.419 86.32C485.599 86.32 483.559 84.58 483.559 82.04C483.559 79.52 485.599 77.78 488.419 77.78ZM488.419 79.22C486.539 79.22 485.179 80.36 485.179 82.04C485.179 83.72 486.539 84.88 488.419 84.88C490.279 84.88 491.639 83.72 491.639 82.04C491.639 80.36 490.279 79.22 488.419 79.22ZM495.619 76.46H497.279V94.58H495.619V76.46ZM482.879 90.62L482.639 89.24C485.939 89.24 490.499 89.22 494.439 88.6L494.579 89.82C490.519 90.6 486.099 90.62 482.879 90.62ZM501.977 78.24H510.297V90.02H501.977V78.24ZM508.677 79.58H503.597V88.68H508.677V79.58ZM514.077 76.46H515.737V94.58H514.077V76.46ZM519.355 90.96H535.735V92.34H519.355V90.96ZM526.675 87.08H528.335V91.54H526.675V87.08ZM521.335 77.82H533.715V83.3H523.035V86.92H521.395V81.96H532.075V79.16H521.335V77.82ZM521.395 86.22H534.135V87.58H521.395V86.22ZM540.944 91.0114L540.838 91.7855C540.767 92.3537 540.646 92.9455 540.475 93.5611C540.31 94.1813 540.137 94.7566 539.957 95.2869C539.782 95.8172 539.637 96.2386 539.524 96.5511H538.018C538.08 96.2576 538.165 95.8598 538.274 95.358C538.383 94.8608 538.489 94.3045 538.593 93.6889C538.698 93.0734 538.776 92.446 538.828 91.8068L538.899 91.0114H540.944ZM38.16 100.48H39.82V118.56H38.16V100.48ZM32.86 102.42H34.5C34.5 107.66 32.14 112.24 26.1 115.2L25.22 113.86C30.44 111.34 32.86 107.5 32.86 102.7V102.42ZM26.04 102.42H33.58V103.78H26.04V102.42ZM50.4784 102.18H51.9584V102.72C51.9584 105.78 48.6984 107.94 44.9984 108.5L44.3784 107.16C47.5784 106.74 50.4784 104.94 50.4784 102.72V102.18ZM51.1784 102.18H52.6384V102.72C52.6384 104.92 55.5584 106.74 58.7584 107.16L58.1184 108.5C54.4384 107.94 51.1784 105.78 51.1784 102.72V102.18ZM44.8784 101.36H58.2584V102.7H44.8784V101.36ZM45.4984 116.8H57.9184V118.16H45.4984V116.8ZM45.4984 113.06H47.1584V117.34H45.4984V113.06ZM43.3784 110.24H59.7784V111.58H43.3784V110.24ZM50.7184 107.24H52.3584V110.78H50.7184V107.24ZM67.6569 101.78C70.4769 101.78 72.4969 103.52 72.4969 106.04C72.4969 108.58 70.4769 110.32 67.6569 110.32C64.8369 110.32 62.7969 108.58 62.7969 106.04C62.7969 103.52 64.8369 101.78 67.6569 101.78ZM67.6569 103.22C65.7769 103.22 64.4169 104.36 64.4169 106.04C64.4169 107.72 65.7769 108.88 67.6569 108.88C69.5169 108.88 70.8769 107.72 70.8769 106.04C70.8769 104.36 69.5169 103.22 67.6569 103.22ZM74.8569 100.46H76.5169V118.58H74.8569V100.46ZM62.1169 114.62L61.8769 113.24C65.1769 113.24 69.7369 113.22 73.6769 112.6L73.8169 113.82C69.7569 114.6 65.3369 114.62 62.1169 114.62ZM94.7483 104.74H99.3083V106.12H94.7483V104.74ZM90.0083 101.58H91.3483V103.8C91.3483 107.3 89.3883 110.22 86.3683 111.44L85.5083 110.12C88.1883 109.12 90.0083 106.56 90.0083 103.8V101.58ZM90.3283 101.58H91.6683V103.86C91.6683 106.38 93.4283 108.76 96.0483 109.72L95.1483 111C92.2683 109.88 90.3283 107.08 90.3283 103.86V101.58ZM98.6883 100.5H100.348V114.02H98.6883V100.5ZM88.7283 116.8H100.788V118.16H88.7283V116.8ZM88.7283 112.52H90.3883V117.44H88.7283V112.52ZM104.627 101.22H106.267V103.82H111.367V101.22H112.987V109.12H104.627V101.22ZM106.267 105.12V107.78H111.367V105.12H106.267ZM116.247 100.48H117.907V109.8H116.247V100.48ZM117.187 104.36H120.567V105.74H117.187V104.36ZM106.427 110.68H117.907V115.06H108.107V117.78H106.467V113.82H116.287V112H106.427V110.68ZM106.467 117.04H118.567V118.36H106.467V117.04ZM122.265 111.42H138.645V112.8H122.265V111.42ZM129.625 111.82H131.265V118.58H129.625V111.82ZM124.445 108.22H136.825V109.58H124.445V108.22ZM124.445 101.32H136.625V102.66H126.085V108.62H124.445V101.32ZM125.605 104.74H136.185V106.04H125.605V104.74ZM147.984 101.12H149.444V102.12C149.444 105.58 145.924 108.06 142.164 108.7L141.504 107.36C144.804 106.86 147.984 104.7 147.984 102.12V101.12ZM148.284 101.12H149.724V102.12C149.724 104.64 152.944 106.86 156.204 107.36L155.544 108.7C151.824 108.06 148.284 105.54 148.284 102.12V101.12ZM147.984 111.68H149.624V118.56H147.984V111.68ZM140.684 110.66H157.024V112.04H140.684V110.66ZM171.302 100.46H172.982V118.56H171.302V100.46ZM172.522 107.8H175.862V109.18H172.522V107.8ZM166.682 102.42H168.302C168.302 107.56 165.942 112.2 160.102 115.14L159.182 113.86C164.182 111.32 166.682 107.46 166.682 102.68V102.42ZM160.022 102.42H167.542V103.78H160.022V102.42ZM195.913 100.48H197.573V113.62H195.913V100.48ZM190.593 101.84H192.333C192.333 106.54 189.033 110.02 183.733 111.68L183.053 110.32C187.713 108.9 190.593 106.08 190.593 102.54V101.84ZM184.013 101.84H191.533V103.22H184.013V101.84ZM185.853 116.8H198.033V118.18H185.853V116.8ZM185.853 112.56H187.513V117.3H185.853V112.56ZM219.585 100.46H221.245V118.58H219.585V100.46ZM211.705 101.86C214.385 101.86 216.305 104.32 216.305 108.16C216.305 112.02 214.385 114.48 211.705 114.48C209.045 114.48 207.125 112.02 207.125 108.16C207.125 104.32 209.045 101.86 211.705 101.86ZM211.705 103.36C209.945 103.36 208.705 105.24 208.705 108.16C208.705 111.1 209.945 113.02 211.705 113.02C213.485 113.02 214.705 111.1 214.705 108.16C214.705 105.24 213.485 103.36 211.705 103.36ZM237.983 100.48H239.643V111.3H237.983V100.48ZM225.983 101.68H227.623V109.14H225.983V101.68ZM225.983 108.32H227.443C230.623 108.32 233.243 108.14 236.063 107.54L236.283 108.92C233.343 109.54 230.703 109.72 227.443 109.72H225.983V108.32ZM233.643 111.44C237.383 111.44 239.723 112.76 239.723 114.98C239.723 117.22 237.383 118.52 233.643 118.52C229.903 118.52 227.583 117.22 227.583 114.98C227.583 112.76 229.903 111.44 233.643 111.44ZM233.643 112.78C230.903 112.78 229.243 113.58 229.243 114.98C229.243 116.38 230.903 117.18 233.643 117.18C236.383 117.18 238.063 116.38 238.063 114.98C238.063 113.58 236.383 112.78 233.643 112.78ZM251.422 100.78C255.402 100.78 257.782 101.9 257.782 103.92C257.782 105.94 255.402 107.06 251.422 107.06C247.422 107.06 245.062 105.94 245.062 103.92C245.062 101.9 247.422 100.78 251.422 100.78ZM251.422 102.04C248.462 102.04 246.762 102.72 246.762 103.92C246.762 105.12 248.462 105.8 251.422 105.8C254.362 105.8 256.062 105.12 256.062 103.92C256.062 102.72 254.362 102.04 251.422 102.04ZM243.242 108.26H259.582V109.6H243.242V108.26ZM245.222 111.14H257.502V115.22H246.902V117.42H245.262V114.02H255.862V112.42H245.222V111.14ZM245.262 117.06H258.042V118.36H245.262V117.06ZM267.973 109.68H269.333C272.673 109.68 274.793 109.56 277.253 109.08L277.413 110.44C274.893 110.92 272.733 111.04 269.333 111.04H267.973V109.68ZM267.973 101.96H276.253V103.32H269.613V110.1H267.973V101.96ZM280.153 100.48H281.813V113.68H280.153V100.48ZM275.093 105.48H280.533V106.82H275.093V105.48ZM270.253 116.92H282.293V118.28H270.253V116.92ZM270.253 112.7H271.913V117.7H270.253V112.7ZM290.132 103.06H291.472V106C291.472 109.82 289.172 113.66 286.292 115.08L285.332 113.76C287.952 112.52 290.132 109.12 290.132 106V103.06ZM290.452 103.06H291.792V106C291.792 109.06 293.972 112.18 296.632 113.32L295.692 114.64C292.772 113.28 290.452 109.76 290.452 106V103.06ZM285.932 102.32H296.032V103.72H285.932V102.32ZM298.472 100.48H300.132V118.56H298.472V100.48ZM305.47 102.28H317.11V103.66H305.47V102.28ZM303.75 114.66H320.09V116.04H303.75V114.66ZM310.09 108.2H311.75V115.34H310.09V108.2ZM316.49 102.28H318.13V104.08C318.13 106.32 318.13 108.8 317.47 112.46L315.81 112.24C316.49 108.78 316.49 106.24 316.49 104.08V102.28ZM329.201 102.4H340.841V103.74H329.201V102.4ZM327.441 114.54H343.781V115.92H327.441V114.54ZM339.961 102.4H341.581V104.2C341.581 106.52 341.581 109.1 340.901 113L339.241 112.84C339.961 109.14 339.961 106.44 339.961 104.2V102.4ZM351.973 102.54H366.513V103.88H351.973V102.54ZM351.133 112.2H367.513V113.56H351.133V112.2ZM358.453 113.3H360.113V118.58H358.453V113.3ZM359.293 104.92C362.973 104.92 365.153 106 365.153 107.94C365.153 109.86 362.973 110.96 359.293 110.96C355.593 110.96 353.413 109.86 353.413 107.94C353.413 106 355.593 104.92 359.293 104.92ZM359.293 106.2C356.653 106.2 355.133 106.82 355.133 107.94C355.133 109.06 356.653 109.68 359.293 109.68C361.933 109.68 363.453 109.06 363.453 107.94C363.453 106.82 361.933 106.2 359.293 106.2ZM358.453 100.38H360.113V103.44H358.453V100.38ZM376.851 107.5H380.271V108.88H376.851V107.5ZM383.291 100.48H384.891V118.56H383.291V100.48ZM379.711 100.86H381.291V117.66H379.711V100.86ZM373.591 101.98C375.931 101.98 377.451 104.4 377.451 108.28C377.451 112.16 375.931 114.58 373.591 114.58C371.251 114.58 369.751 112.16 369.751 108.28C369.751 104.4 371.251 101.98 373.591 101.98ZM373.591 103.52C372.171 103.52 371.271 105.36 371.271 108.28C371.271 111.2 372.171 113.04 373.591 113.04C375.031 113.04 375.931 111.2 375.931 108.28C375.931 105.36 375.031 103.52 373.591 103.52ZM400.543 109.16H402.183V111.92H400.543V109.16ZM395.383 100.76H397.023V102.44H405.763V100.76H407.423V106.72H395.383V100.76ZM397.023 103.72V105.44H405.763V103.72H397.023ZM393.203 108.2H409.543V109.54H393.203V108.2ZM395.183 111.3H407.463V115.32H396.863V117.56H395.223V114.12H405.823V112.56H395.183V111.3ZM395.223 117.08H408.003V118.36H395.223V117.08ZM425.321 100.48H426.901V114.04H425.321V100.48ZM419.641 105.74H422.741V107.1H419.641V105.74ZM421.981 100.84H423.561V113.58H421.981V100.84ZM411.841 102.22H420.261V103.56H411.841V102.22ZM411.721 110.96L411.541 109.56C413.961 109.56 417.861 109.52 420.681 109.16L420.741 110.4C417.861 110.9 414.101 110.96 411.721 110.96ZM413.381 103.18H414.901V109.9H413.381V103.18ZM417.181 103.18H418.701V109.9H417.181V103.18ZM415.161 116.8H427.421V118.16H415.161V116.8ZM415.161 112.46H416.821V117.52H415.161V112.46ZM430.02 108.02H446.36V109.38H430.02V108.02ZM432.18 105.22H444.42V106.56H432.18V105.22ZM432.18 101.06H444.22V102.42H433.82V106.3H432.18V101.06ZM431.98 110.94H444.26V115.2H433.66V117.48H432.02V113.96H442.62V112.24H431.98V110.94ZM432.02 117.04H444.8V118.36H432.02V117.04ZM461.538 100.46H463.198V118.58H461.538V100.46ZM453.658 101.86C456.338 101.86 458.258 104.32 458.258 108.16C458.258 112.02 456.338 114.48 453.658 114.48C450.998 114.48 449.078 112.02 449.078 108.16C449.078 104.32 450.998 101.86 453.658 101.86ZM453.658 103.36C451.898 103.36 450.658 105.24 450.658 108.16C450.658 111.1 451.898 113.02 453.658 113.02C455.438 113.02 456.658 111.1 456.658 108.16C456.658 105.24 455.438 103.36 453.658 103.36ZM485.549 107.68H488.889V109.08H485.549V107.68ZM484.329 100.46H486.009V118.56H484.329V100.46ZM472.809 102.24H474.469V113.44H472.809V102.24ZM472.809 112.58H474.249C476.929 112.58 479.669 112.4 482.649 111.78L482.849 113.16C479.769 113.8 476.989 113.98 474.249 113.98H472.809V112.58ZM497.828 110.7H499.488V115.2H497.828V110.7ZM498.668 101.66C502.488 101.66 505.228 103.52 505.228 106.4C505.228 109.28 502.488 111.14 498.668 111.14C494.848 111.14 492.088 109.28 492.088 106.4C492.088 103.52 494.848 101.66 498.668 101.66ZM498.668 102.98C495.788 102.98 493.688 104.34 493.688 106.4C493.688 108.46 495.788 109.82 498.668 109.82C501.528 109.82 503.628 108.46 503.628 106.4C503.628 104.34 501.528 102.98 498.668 102.98ZM490.508 114.88H506.888V116.26H490.508V114.88ZM511.106 105.9H523.386V107.26H511.106V105.9ZM508.886 109.68H525.286V111.04H508.886V109.68ZM511.106 101.14H512.746V106.58H511.106V101.14ZM510.986 116.76H523.486V118.12H510.986V116.76ZM510.986 112.84H512.626V117.12H510.986V112.84ZM33.26 135.82C36.94 135.82 39.2 137.06 39.2 139.18C39.2 141.3 36.94 142.54 33.26 142.54C29.58 142.54 27.32 141.3 27.32 139.18C27.32 137.06 29.58 135.82 33.26 135.82ZM33.26 137.16C30.58 137.16 28.94 137.9 28.94 139.18C28.94 140.48 30.58 141.22 33.26 141.22C35.94 141.22 37.58 140.48 37.58 139.18C37.58 137.9 35.94 137.16 33.26 137.16ZM37.36 124.48H39.02V135.34H37.36V124.48ZM38.56 129.02H41.7V130.42H38.56V129.02ZM25.74 125.62H27.38V128.32H32.48V125.62H34.1V133.96H25.74V125.62ZM27.38 129.64V132.62H32.48V129.64H27.38ZM48.0984 125.34H49.4784V127.1C49.4784 130.52 47.4384 133.46 44.3784 134.62L43.5384 133.3C46.2784 132.3 48.0984 129.8 48.0984 127.1V125.34ZM48.3984 125.34H49.7584V127.1C49.7584 129.7 51.6184 132.04 54.2984 132.98L53.4584 134.28C50.4384 133.18 48.3984 130.42 48.3984 127.1V125.34ZM46.1384 136.28H58.2184V142.56H56.5384V137.64H46.1384V136.28ZM56.5384 124.48H58.2184V135.36H56.5384V124.48ZM69.9569 124.78C73.9369 124.78 76.3169 125.9 76.3169 127.92C76.3169 129.94 73.9369 131.06 69.9569 131.06C65.9569 131.06 63.5969 129.94 63.5969 127.92C63.5969 125.9 65.9569 124.78 69.9569 124.78ZM69.9569 126.04C66.9969 126.04 65.2969 126.72 65.2969 127.92C65.2969 129.12 66.9969 129.8 69.9569 129.8C72.8969 129.8 74.5969 129.12 74.5969 127.92C74.5969 126.72 72.8969 126.04 69.9569 126.04ZM61.7769 132.26H78.1169V133.6H61.7769V132.26ZM63.7569 135.14H76.0369V139.22H65.4369V141.42H63.7969V138.02H74.3969V136.42H63.7569V135.14ZM63.7969 141.06H76.5769V142.36H63.7969V141.06ZM94.0683 129.3H99.1883V130.68H94.0683V129.3ZM86.3683 125.56H88.0083V128.46H92.9083V125.56H94.5283V134.12H86.3683V125.56ZM88.0083 129.8V132.78H92.9083V129.8H88.0083ZM98.6883 124.48H100.348V136.98H98.6883V124.48ZM93.6883 135.74H95.1083V136.26C95.1083 139.52 91.9483 141.86 88.2483 142.5L87.6283 141.18C90.8283 140.66 93.6883 138.7 93.6883 136.26V135.74ZM93.9683 135.74H95.3883V136.26C95.3883 138.76 98.2083 140.66 101.468 141.18L100.808 142.5C97.1483 141.84 93.9683 139.58 93.9683 136.26V135.74ZM108.707 125.86C111.327 125.86 113.207 128.32 113.207 132.16C113.207 136.02 111.327 138.48 108.707 138.48C106.067 138.48 104.207 136.02 104.207 132.16C104.207 128.32 106.067 125.86 108.707 125.86ZM108.707 127.36C106.967 127.36 105.787 129.24 105.787 132.16C105.787 135.1 106.967 137.02 108.707 137.02C110.447 137.02 111.627 135.1 111.627 132.16C111.627 129.24 110.447 127.36 108.707 127.36ZM117.127 124.46H118.767V142.58H117.127V124.46ZM112.667 131.36H117.847V132.72H112.667V131.36ZM135.725 131.68H139.065V133.08H135.725V131.68ZM134.505 124.46H136.185V142.56H134.505V124.46ZM122.985 126.24H124.645V137.44H122.985V126.24ZM122.985 136.58H124.425C127.105 136.58 129.845 136.4 132.825 135.78L133.025 137.16C129.945 137.8 127.165 137.98 124.425 137.98H122.985V136.58ZM154.117 128.5H159.577V129.88H154.117V128.5ZM154.117 134.22H159.577V135.6H154.117V134.22ZM150.797 125.86C153.417 125.86 155.297 128.32 155.297 132.16C155.297 136.02 153.417 138.48 150.797 138.48C148.157 138.48 146.297 136.02 146.297 132.16C146.297 128.32 148.157 125.86 150.797 125.86ZM150.797 127.36C149.057 127.36 147.857 129.24 147.857 132.16C147.857 135.1 149.057 137.02 150.797 137.02C152.537 137.02 153.737 135.1 153.737 132.16C153.737 129.24 152.537 127.36 150.797 127.36ZM159.217 124.46H160.857V142.58H159.217V124.46ZM177.575 124.46H179.235V142.58H177.575V124.46ZM174.135 131.42H177.975V132.78H174.135V131.42ZM165.035 136.86H166.415C169.615 136.86 171.875 136.76 174.535 136.28L174.695 137.66C171.975 138.14 169.675 138.26 166.415 138.26H165.035V136.86ZM164.995 126.16H173.075V132.5H166.675V137.28H165.035V131.14H171.435V127.52H164.995V126.16ZM196.686 127.4H201.906V128.76H196.686V127.4ZM196.686 131H201.946V132.34H196.686V131ZM201.266 124.48H202.926V135.18H201.266V124.48ZM188.886 125.84H197.146V133.88H188.886V125.84ZM195.506 127.18H190.506V132.56H195.506V127.18ZM196.986 135.7C200.706 135.7 203.006 136.96 203.006 139.12C203.006 141.28 200.706 142.52 196.986 142.52C193.246 142.52 190.946 141.28 190.946 139.12C190.946 136.96 193.246 135.7 196.986 135.7ZM196.986 137.02C194.266 137.02 192.606 137.8 192.606 139.12C192.606 140.44 194.266 141.22 196.986 141.22C199.706 141.22 201.366 140.44 201.366 139.12C201.366 137.8 199.706 137.02 196.986 137.02ZM212.325 125.78C215.145 125.78 217.165 127.52 217.165 130.04C217.165 132.58 215.145 134.32 212.325 134.32C209.505 134.32 207.465 132.58 207.465 130.04C207.465 127.52 209.505 125.78 212.325 125.78ZM212.325 127.22C210.445 127.22 209.085 128.36 209.085 130.04C209.085 131.72 210.445 132.88 212.325 132.88C214.185 132.88 215.545 131.72 215.545 130.04C215.545 128.36 214.185 127.22 212.325 127.22ZM219.525 124.46H221.185V142.58H219.525V124.46ZM206.785 138.62L206.545 137.24C209.845 137.24 214.405 137.22 218.345 136.6L218.485 137.82C214.425 138.6 210.005 138.62 206.785 138.62ZM232.196 125.66H243.496V127H232.196V125.66ZM230.156 133.42H246.496V134.78H230.156V133.42ZM237.456 134.32H239.116V142.58H237.456V134.32ZM242.716 125.66H244.336V127.22C244.336 129.1 244.336 131.22 243.656 134.28L242.016 134.06C242.716 131.14 242.716 129.04 242.716 127.22V125.66ZM253.675 133.58H255.335V137.6H253.675V133.58ZM261.695 124.48H263.355V138.24H261.695V124.48ZM251.015 140.8H263.795V142.16H251.015V140.8ZM251.015 136.9H252.675V141.18H251.015V136.9ZM248.675 134.2L248.455 132.84C251.795 132.84 256.275 132.8 260.115 132.3L260.235 133.52C256.335 134.14 251.955 134.2 248.675 134.2ZM258.015 135.16H262.115V136.38H258.015V135.16ZM254.335 125.22C256.975 125.22 258.775 126.46 258.775 128.36C258.775 130.28 256.975 131.52 254.335 131.52C251.675 131.52 249.875 130.28 249.875 128.36C249.875 126.46 251.675 125.22 254.335 125.22ZM254.335 126.46C252.635 126.46 251.455 127.2 251.455 128.36C251.455 129.52 252.635 130.26 254.335 130.26C256.015 130.26 257.195 129.52 257.195 128.36C257.195 127.2 256.015 126.46 254.335 126.46ZM272.226 135.42H288.606V136.8H272.226V135.42ZM279.586 135.82H281.226V142.58H279.586V135.82ZM274.406 132.22H286.786V133.58H274.406V132.22ZM274.406 125.32H286.586V126.66H276.046V132.62H274.406V125.32ZM275.566 128.74H286.146V130.04H275.566V128.74ZM297.945 125.12H299.405V126.12C299.405 129.58 295.885 132.06 292.125 132.7L291.465 131.36C294.765 130.86 297.945 128.7 297.945 126.12V125.12ZM298.245 125.12H299.685V126.12C299.685 128.64 302.905 130.86 306.165 131.36L305.505 132.7C301.785 132.06 298.245 129.54 298.245 126.12V125.12ZM297.945 135.68H299.585V142.56H297.945V135.68ZM290.645 134.66H306.985V136.04H290.645V134.66ZM321.263 124.46H322.943V142.56H321.263V124.46ZM322.483 131.8H325.823V133.18H322.483V131.8ZM316.643 126.42H318.263C318.263 131.56 315.903 136.2 310.063 139.14L309.143 137.86C314.143 135.32 316.643 131.46 316.643 126.68V126.42ZM309.983 126.42H317.503V127.78H309.983V126.42ZM341.254 129.58H346.454V130.94H341.254V129.58ZM345.934 124.5H347.594V137.88H345.934V124.5ZM335.974 140.8H348.034V142.16H335.974V140.8ZM335.974 136.58H337.634V141.5H335.974V136.58ZM333.614 125.68H335.254V128.88H340.154V125.68H341.774V134.8H333.614V125.68ZM335.254 130.18V133.44H340.154V130.18H335.254ZM363.493 124.48H365.153V133.68H363.493V124.48ZM364.693 128.52H367.833V129.9H364.693V128.52ZM358.473 125.36H360.273C360.273 129.9 357.013 132.88 351.773 134.12L351.153 132.74C355.853 131.7 358.473 129.28 358.473 126.24V125.36ZM351.933 125.36H359.453V126.72H351.933V125.36ZM353.673 134.5H365.153V138.98H355.353V141.8H353.713V137.7H363.533V135.82H353.673V134.5ZM353.713 141.06H365.813V142.38H353.713V141.06ZM374.331 125.86C376.991 125.86 378.871 128.32 378.871 132.16C378.871 136.02 376.991 138.48 374.331 138.48C371.671 138.48 369.791 136.02 369.791 132.16C369.791 128.32 371.671 125.86 374.331 125.86ZM374.331 127.36C372.571 127.36 371.371 129.24 371.371 132.16C371.371 135.1 372.571 137.02 374.331 137.02C376.071 137.02 377.291 135.1 377.291 132.16C377.291 129.24 376.071 127.36 374.331 127.36ZM381.751 124.48H383.431V142.56H381.751V124.48ZM383.031 131.7H386.391V133.1H383.031V131.7ZM406.663 131.68H410.003V133.08H406.663V131.68ZM405.443 124.46H407.123V142.56H405.443V124.46ZM393.923 126.24H395.583V137.44H393.923V126.24ZM393.923 136.58H395.363C398.043 136.58 400.783 136.4 403.763 135.78L403.963 137.16C400.883 137.8 398.103 137.98 395.363 137.98H393.923V136.58ZM416.181 133.6H417.841V137.92H416.181V133.6ZM417.001 125.64C419.781 125.64 421.781 127.38 421.781 129.9C421.781 132.42 419.781 134.16 417.001 134.16C414.221 134.16 412.221 132.42 412.221 129.9C412.221 127.38 414.221 125.64 417.001 125.64ZM417.001 127.06C415.161 127.06 413.841 128.22 413.841 129.9C413.841 131.58 415.161 132.74 417.001 132.74C418.841 132.74 420.161 131.58 420.161 129.9C420.161 128.22 418.841 127.06 417.001 127.06ZM423.841 124.48H425.501V142.56H423.841V124.48ZM425.021 131.92H428.361V133.32H425.021V131.92ZM411.641 138.66L411.401 137.28C414.661 137.26 419.021 137.24 422.701 136.74L422.841 137.98C419.021 138.62 414.801 138.66 411.641 138.66ZM443.953 127.8H448.793V129.16H443.953V127.8ZM443.793 131.56H448.673V132.92H443.793V131.56ZM448.513 124.48H450.173V135.32H448.513V124.48ZM442.853 125.84H444.633C444.633 130.5 441.413 133.76 436.213 135.32L435.533 133.98C440.153 132.64 442.853 129.98 442.853 126.56V125.84ZM436.473 125.84H443.993V127.2H436.473V125.84ZM444.293 135.52C447.953 135.52 450.273 136.82 450.273 139C450.273 141.18 447.953 142.48 444.293 142.48C440.633 142.48 438.313 141.18 438.313 139C438.313 136.82 440.633 135.52 444.293 135.52ZM444.293 136.82C441.653 136.82 439.953 137.64 439.953 139C439.953 140.36 441.653 141.16 444.293 141.16C446.953 141.16 448.653 140.36 448.653 139C448.653 137.64 446.953 136.82 444.293 136.82ZM466.871 124.48H468.531V142.56H466.871V124.48ZM461.571 126.42H463.211C463.211 131.66 460.851 136.24 454.811 139.2L453.931 137.86C459.151 135.34 461.571 131.5 461.571 126.7V126.42ZM454.751 126.42H462.291V127.78H454.751V126.42ZM472.089 132.88H488.489V134.14H472.089V132.88ZM474.029 135.6H486.429V139.46H475.729V141.58H474.089V138.32H484.809V136.78H474.029V135.6ZM474.089 141.14H487.009V142.34H474.089V141.14ZM474.169 125H486.369V128.76H475.849V130.72H474.209V127.64H484.749V126.18H474.169V125ZM474.209 130.32H486.709V131.52H474.209V130.32ZM508.921 124.46H510.581V142.58H508.921V124.46ZM501.041 125.86C503.721 125.86 505.641 128.32 505.641 132.16C505.641 136.02 503.721 138.48 501.041 138.48C498.381 138.48 496.461 136.02 496.461 132.16C496.461 128.32 498.381 125.86 501.041 125.86ZM501.041 127.36C499.281 127.36 498.041 129.24 498.041 132.16C498.041 135.1 499.281 137.02 501.041 137.02C502.821 137.02 504.041 135.1 504.041 132.16C504.041 129.24 502.821 127.36 501.041 127.36ZM519.019 125.86C521.639 125.86 523.519 128.32 523.519 132.16C523.519 136.02 521.639 138.48 519.019 138.48C516.379 138.48 514.519 136.02 514.519 132.16C514.519 128.32 516.379 125.86 519.019 125.86ZM519.019 127.36C517.279 127.36 516.099 129.24 516.099 132.16C516.099 135.1 517.279 137.02 519.019 137.02C520.759 137.02 521.939 135.1 521.939 132.16C521.939 129.24 520.759 127.36 519.019 127.36ZM527.439 124.46H529.079V142.58H527.439V124.46ZM522.979 131.36H528.159V132.72H522.979V131.36ZM37.22 148.46H38.9V166.56H37.22V148.46ZM38.44 155.8H41.78V157.18H38.44V155.8ZM32.6 150.42H34.22C34.22 155.56 31.86 160.2 26.02 163.14L25.1 161.86C30.1 159.32 32.6 155.46 32.6 150.68V150.42ZM25.94 150.42H33.46V151.78H25.94V150.42ZM45.5984 153.9H57.8784V155.26H45.5984V153.9ZM43.3784 157.68H59.7784V159.04H43.3784V157.68ZM45.5984 149.14H47.2384V154.58H45.5984V149.14ZM45.4784 164.76H57.9784V166.12H45.4784V164.76ZM45.4784 160.84H47.1184V165.12H45.4784V160.84ZM76.6698 153.46H81.2298V154.82H76.6698V153.46ZM80.2898 148.5H81.9498V161.74H80.2898V148.5ZM70.4098 164.8H82.4498V166.16H70.4098V164.8ZM70.4098 160.58H72.0698V165.5H70.4098V160.58ZM71.6898 150.74H73.0498V152.2C73.0498 155.48 71.0098 158.32 67.9898 159.44L67.1298 158.12C69.8298 157.16 71.6898 154.76 71.6898 152.2V150.74ZM72.0098 150.74H73.3498V152.18C73.3498 154.52 75.1098 156.8 77.7298 157.72L76.8898 159.02C73.9498 157.96 72.0098 155.24 72.0098 152.18V150.74ZM67.6498 149.96H77.3098V151.3H67.6498V149.96ZM86.2283 157.44H87.5283C91.0883 157.44 92.8483 157.38 95.0083 157L95.1883 158.34C92.9483 158.74 91.1483 158.8 87.5283 158.8H86.2283V157.44ZM86.1883 149.56H93.9883V154.7H87.8683V158.26H86.2283V153.4H92.3483V150.92H86.1883V149.56ZM98.6883 148.5H100.348V159.6H98.6883V148.5ZM95.1883 151.16H99.0683V152.52H95.1883V151.16ZM95.1883 154.9H99.0683V156.26H95.1883V154.9ZM88.2483 160.58H100.348V166.6H98.6883V161.94H88.2483V160.58ZM117.027 148.48H118.707V158.18H117.027V148.48ZM107.047 159.08H108.687V161.28H117.067V159.08H118.707V166.32H107.047V159.08ZM108.687 162.6V164.98H117.067V162.6H108.687ZM109.007 149.34C111.747 149.34 113.707 151.04 113.707 153.5C113.707 155.98 111.747 157.68 109.007 157.68C106.267 157.68 104.287 155.98 104.287 153.5C104.287 151.04 106.267 149.34 109.007 149.34ZM109.007 150.72C107.207 150.72 105.907 151.86 105.907 153.5C105.907 155.14 107.207 156.28 109.007 156.28C110.807 156.28 112.107 155.14 112.107 153.5C112.107 151.86 110.807 150.72 109.007 150.72ZM135.425 148.48H137.085V166.56H135.425V148.48ZM123.425 150.24H125.065V161.44H123.425V150.24ZM123.425 160.46H124.905C127.645 160.46 130.505 160.26 133.565 159.62L133.765 161.04C130.625 161.68 127.765 161.9 124.905 161.9H123.425V160.46ZM152.904 148.46H154.584V166.58H152.904V148.46ZM154.184 155.6H157.544V157H154.184V155.6ZM141.444 160.68H142.864C146.204 160.68 148.544 160.56 151.244 160.06L151.424 161.46C148.644 161.98 146.264 162.08 142.864 162.08H141.444V160.68ZM141.444 150.22H149.844V151.58H143.084V161.3H141.444V150.22ZM160.909 165.135C160.52 165.135 160.187 164.998 159.907 164.723C159.628 164.444 159.488 164.107 159.488 163.714C159.488 163.326 159.628 162.995 159.907 162.72C160.187 162.441 160.52 162.301 160.909 162.301C161.297 162.301 161.631 162.441 161.91 162.72C162.19 162.995 162.329 163.326 162.329 163.714C162.329 163.975 162.263 164.214 162.13 164.432C162.002 164.645 161.832 164.815 161.619 164.943C161.406 165.071 161.169 165.135 160.909 165.135Z" fill="black"/>
<g clip-path="url(#clip0_1377_248)">
<path d="M213 53C222.941 53 231 44.9411 231 35C231 25.0589 222.941 17 213 17C203.059 17 195 25.0589 195 35C195 44.9411 203.059 53 213 53Z" fill="#E1E8ED"/>
<path d="M226.802 46.5462C223.792 45.2212 222 41.0482 222 35.0002C222 28.9522 223.792 24.7792 226.802 23.4542C226.356 22.9258 225.879 22.4237 225.374 21.9502C222.406 23.6052 220 27.5782 220 35.0002C220 42.4212 222.406 46.3952 225.374 48.0502C225.876 47.5732 226.358 47.0772 226.802 46.5462ZM206 35.0002C206 27.5792 203.594 23.6052 200.626 21.9512C200.122 22.4243 199.645 22.9262 199.198 23.4542C202.208 24.7802 204 28.9522 204 35.0002C204 41.0482 202.208 45.2202 199.198 46.5462C199.643 47.0772 200.124 47.5732 200.626 48.0502C203.593 46.3952 206 42.4212 206 35.0002Z" fill="#B3BEC4"/>
<path d="M200.092 27.164C199.855 27.164 199.635 27.144 199.441 27.108C199.18 27.0592 198.95 26.9088 198.8 26.69C198.726 26.5816 198.674 26.4597 198.646 26.3312C198.619 26.2027 198.618 26.0701 198.642 25.941C198.666 25.8119 198.716 25.6888 198.787 25.5788C198.859 25.4688 198.952 25.374 199.06 25.2998C199.279 25.15 199.548 25.0932 199.809 25.142C200.239 25.219 202.5 25.148 202.957 22.866C203.009 22.606 203.162 22.3773 203.383 22.2302C203.492 22.1574 203.615 22.1069 203.744 22.0814C203.873 22.056 204.005 22.0562 204.134 22.082C204.263 22.1078 204.385 22.1587 204.494 22.2318C204.603 22.3049 204.697 22.3988 204.77 22.5081C204.843 22.6174 204.893 22.74 204.919 22.8688C204.944 22.9977 204.944 23.1302 204.918 23.259C204.335 26.171 201.779 27.164 200.092 27.164ZM201.792 31.125C201.262 31.125 200.84 30.802 200.814 30.266C200.788 29.715 201.214 29.355 201.766 29.329C201.766 29.329 204.33 29.294 205.635 27.035C205.701 26.9219 205.789 26.823 205.894 26.744C205.998 26.665 206.117 26.6075 206.244 26.5748C206.371 26.5421 206.503 26.5348 206.633 26.5533C206.763 26.5719 206.887 26.616 207 26.683C207.478 26.959 207.642 27.577 207.365 28.056C205.514 31.262 201.808 31.125 201.792 31.125ZM204 36.282C203.266 36.282 202.586 36.147 202.072 35.904C201.832 35.7905 201.647 35.5864 201.558 35.3366C201.469 35.0868 201.483 34.8118 201.596 34.572C201.71 34.3322 201.914 34.1474 202.163 34.0581C202.413 33.9689 202.688 33.9825 202.928 34.096C203.758 34.489 205.854 34.335 206.658 33.084C206.729 32.9735 206.821 32.878 206.929 32.8031C207.037 32.7282 207.158 32.6752 207.287 32.6473C207.415 32.6193 207.548 32.6169 207.677 32.6402C207.806 32.6635 207.93 32.712 208.04 32.783C208.151 32.854 208.246 32.946 208.321 33.0539C208.396 33.1618 208.449 33.2833 208.477 33.4117C208.505 33.54 208.507 33.6726 208.484 33.8018C208.461 33.9311 208.412 34.0545 208.341 34.165C207.377 35.666 205.565 36.282 204 36.282ZM205.161 41.807C203.607 41.807 202.166 41.108 201.235 40.331C201.134 40.247 201.051 40.1439 200.99 40.0276C200.929 39.9113 200.891 39.7842 200.879 39.6534C200.867 39.5226 200.881 39.3907 200.92 39.2653C200.959 39.1399 201.023 39.0234 201.107 38.9225C201.191 38.8216 201.294 38.7382 201.41 38.6771C201.526 38.616 201.653 38.5785 201.784 38.5665C201.915 38.5546 202.047 38.5686 202.172 38.6076C202.298 38.6466 202.414 38.71 202.515 38.794C202.709 38.957 204.467 40.36 206.297 39.579C206.418 39.5277 206.548 39.5008 206.679 39.4997C206.811 39.4986 206.941 39.5234 207.063 39.5726C207.184 39.6219 207.295 39.6947 207.389 39.7868C207.483 39.8789 207.557 39.9886 207.609 40.1095C207.66 40.2304 207.687 40.3603 207.688 40.4917C207.689 40.623 207.664 40.7533 207.615 40.8751C207.566 40.9969 207.493 41.1078 207.401 41.2015C207.309 41.2951 207.199 41.3697 207.078 41.421C206.471 41.6772 205.82 41.8084 205.161 41.807ZM204.75 47H204.722C202.218 47 200.043 45.43 199.188 43.892C198.919 43.41 199.094 42.848 199.576 42.58C200.059 42.311 200.668 42.51 200.936 42.992C201.42 43.863 202.932 45.126 204.777 45.177C205.329 45.193 205.764 45.565 205.749 46.116C205.734 46.658 205.29 47 204.75 47ZM222.188 47.188C222.04 47.1881 221.894 47.1553 221.76 47.092C221.626 47.0287 221.508 46.9364 221.414 46.8219C221.32 46.7073 221.253 46.5734 221.217 46.4297C221.181 46.286 221.178 46.1362 221.207 45.991C221.871 42.669 225.101 41.841 226.685 42.142C226.946 42.191 227.176 42.3415 227.326 42.5603C227.475 42.7791 227.532 43.0484 227.483 43.309C227.46 43.4384 227.411 43.5618 227.339 43.6721C227.267 43.7824 227.175 43.8774 227.066 43.9517C226.958 44.0259 226.835 44.0778 226.707 44.1045C226.578 44.1312 226.445 44.132 226.316 44.107C225.891 44.027 223.626 44.1 223.169 46.383C223.124 46.61 223.002 46.8143 222.823 46.961C222.644 47.1078 222.419 47.188 222.188 47.188ZM219.624 42.688C219.449 42.6881 219.276 42.642 219.124 42.5542C218.972 42.4664 218.846 42.3401 218.758 42.1881C218.67 42.036 218.624 41.8634 218.624 41.6879C218.625 41.5123 218.671 41.3399 218.759 41.188C220.611 37.982 222.743 37.884 224.153 37.819L224.264 37.814C224.529 37.8013 224.788 37.8943 224.985 38.0727C225.181 38.251 225.298 38.5 225.311 38.765C225.324 39.03 225.231 39.2891 225.052 39.4855C224.874 39.6818 224.625 39.7993 224.36 39.812L224.245 39.817C223.041 39.873 221.796 39.929 220.491 42.188C220.403 42.3402 220.277 42.4665 220.125 42.5543C219.972 42.642 219.8 42.6882 219.624 42.688ZM218.624 36.625C218.445 36.625 218.268 36.5767 218.114 36.4851C217.96 36.3935 217.833 36.262 217.747 36.1044C217.661 35.9468 217.619 35.769 217.626 35.5896C217.632 35.4102 217.687 35.2359 217.784 35.085C219.199 32.882 222.44 32.584 224.052 33.347C224.29 33.4612 224.474 33.6652 224.562 33.9143C224.651 34.1634 224.637 34.4373 224.524 34.6763C224.411 34.9152 224.208 35.0997 223.959 35.1894C223.711 35.2791 223.437 35.2667 223.197 35.155C222.368 34.762 220.271 34.916 219.465 36.167C219.374 36.3076 219.25 36.4232 219.103 36.5032C218.956 36.5832 218.791 36.6251 218.624 36.625ZM224.249 30.688C224.015 30.6879 223.789 30.6058 223.609 30.456C223.415 30.294 221.657 28.897 219.828 29.671C219.586 29.7618 219.319 29.7557 219.082 29.654C218.845 29.5523 218.656 29.3629 218.555 29.1253C218.454 28.8877 218.449 28.6203 218.54 28.3789C218.632 28.1376 218.813 27.9409 219.046 27.83C221.265 26.888 223.581 27.829 224.89 28.92C225.048 29.0516 225.161 29.2287 225.215 29.4271C225.269 29.6255 225.26 29.8356 225.19 30.0288C225.12 30.2221 224.992 30.389 224.823 30.507C224.655 30.6249 224.455 30.6881 224.249 30.688ZM226.063 26.75C225.885 26.7502 225.709 26.7026 225.556 26.6122C225.402 26.5219 225.275 26.392 225.188 26.236C224.704 25.364 223.192 24.113 221.347 24.062C220.794 24.047 220.36 23.556 220.374 23.003C220.391 22.461 220.835 22 221.374 22H221.402C223.907 22 226.082 23.694 226.936 25.232C227.065 25.4664 227.097 25.7423 227.024 25.9999C226.951 26.2575 226.78 26.476 226.547 26.608C226.401 26.6959 226.234 26.7448 226.063 26.75Z" fill="#DD2E44"/>
</g>
<defs>
<clipPath id="clip0_1377_248">
<rect width="36" height="36" fill="white" transform="translate(195 17)"/>
</clipPath>
</defs>
</svg>
