<svg width="570" height="222" viewBox="0 0 570 222" fill="none" xmlns="http://www.w3.org/2000/svg">
<rect x="0.5" y="0.5" width="569" height="169" rx="17.5" fill="white" stroke="#8A9A6B"/>
<rect x="0.5" y="0.5" width="569" height="221" rx="17.5" fill="white" stroke="#8A9A6B"/>
<path d="M40.7406 22.995H44.2414V41.2097H40.7406V22.995ZM43.2412 30.4177H47.479V33.2868H43.2412V30.4177ZM25.0529 25.5219H39.3982V28.2594H25.0529V25.5219ZM32.2387 29.128C35.7395 29.128 38.2138 31.0495 38.2138 33.8396C38.2138 36.6297 35.7395 38.5248 32.2387 38.5248C28.7116 38.5248 26.2373 36.6297 26.2373 33.8396C26.2373 31.0495 28.7116 29.128 32.2387 29.128ZM32.2387 31.7865C30.6857 31.7865 29.6065 32.5235 29.6065 33.8396C29.6065 35.1557 30.6857 35.8663 32.2387 35.8663C33.7917 35.8663 34.8709 35.1557 34.8709 33.8396C34.8709 32.5235 33.7917 31.7865 32.2387 31.7865ZM30.4752 22.9424H33.9759V26.8643H30.4752V22.9424ZM28.5273 44.1314H45.1101V46.9215H28.5273V44.1314ZM28.5273 39.8409H32.0281V45.3422H28.5273V39.8409ZM72.5365 22.9687H76.0636V36.0769H72.5365V22.9687ZM59.8494 37.1298H63.2976V39.3935H72.5892V37.1298H76.0636V47.0794H59.8494V37.1298ZM63.2976 42.0783V44.2893H72.5892V42.0783H63.2976ZM62.7975 23.9689C66.5878 23.9689 69.4042 26.3642 69.4042 29.7334C69.4042 33.1026 66.5878 35.4978 62.7975 35.4978C59.0071 35.4978 56.1644 33.1026 56.1644 29.7334C56.1644 26.3642 59.0071 23.9689 62.7975 23.9689ZM62.7975 26.8643C60.9286 26.8643 59.5862 27.9435 59.5862 29.7334C59.5862 31.5496 60.9286 32.6024 62.7975 32.6024C64.64 32.6024 65.9824 31.5496 65.9824 29.7334C65.9824 27.9435 64.64 26.8643 62.7975 26.8643ZM93.0667 24.6533C96.778 24.6533 99.4628 28.0225 99.4628 33.3395C99.4628 38.7091 96.778 42.0783 93.0667 42.0783C89.3553 42.0783 86.6705 38.7091 86.6705 33.3395C86.6705 28.0225 89.3553 24.6533 93.0667 24.6533ZM93.0667 27.8382C91.2505 27.8382 90.0397 29.7597 90.0397 33.3395C90.0397 36.9719 91.2505 38.9197 93.0667 38.9197C94.8829 38.9197 96.12 36.9719 96.12 33.3395C96.12 29.7597 94.8829 27.8382 93.0667 27.8382ZM104.701 28.6279H108.991V31.5233H104.701V28.6279ZM104.701 35.7874H108.991V38.6565H104.701V35.7874ZM102.121 22.9687H105.648V47.3426H102.121V22.9687ZM113.28 24.3901H128.573V27.1538H113.28V24.3901ZM110.779 34.7608H132.81V37.5773H110.779V34.7608ZM119.913 36.735H123.44V47.369H119.913V36.735ZM126.783 24.3901H130.231V26.5484C130.231 29.1806 130.231 32.1287 129.283 36.4454L125.835 36.0506C126.783 31.9707 126.783 29.0753 126.783 26.5484V24.3901ZM146.839 24.2848H149.708V26.4432C149.708 31.2864 147.602 35.5505 142.97 37.1561L141.101 34.3923C145.181 33.0236 146.839 29.7597 146.839 26.4432V24.2848ZM147.55 24.2848H150.393V26.7853C150.393 29.7071 152.025 32.5498 155.841 33.7343L154.025 36.4454C149.629 34.9714 147.55 31.1811 147.55 26.7853V24.2848ZM157.184 22.9687H160.684V37.3667H157.184V22.9687ZM159.71 28.6015H163.922V31.4969H159.71V28.6015ZM152.735 37.9194C157.789 37.9194 160.974 39.683 160.974 42.631C160.974 45.6054 157.789 47.3426 152.735 47.3426C147.655 47.3426 144.47 45.6054 144.47 42.631C144.47 39.683 147.655 37.9194 152.735 37.9194ZM152.735 40.6306C149.629 40.6306 147.945 41.2886 147.945 42.631C147.945 43.9998 149.629 44.6315 152.735 44.6315C155.841 44.6315 157.499 43.9998 157.499 42.631C157.499 41.2886 155.841 40.6306 152.735 40.6306ZM171.422 24.0742H174.317V26.4168C174.317 31.0231 172.08 35.2083 167.315 36.735L165.605 33.9712C169.711 32.6551 171.422 29.4965 171.422 26.4168V24.0742ZM172.132 24.0742H175.001V26.4168C175.001 29.4175 176.686 32.3656 180.661 33.5764L178.95 36.3138C174.291 34.8398 172.132 30.9442 172.132 26.4168V24.0742ZM169.342 38.5775H185.978V47.3426H182.45V41.3676H169.342V38.5775ZM182.45 22.9687H185.978V37.4983H182.45V22.9687Z" fill="black"/>
<path d="M24.82 90.54H41.58V92.72H24.82V90.54ZM31.82 86.36H34.48V91.52H31.82V86.36ZM26.1 77.78H40.2V79.9H26.1V77.78ZM26.18 85.16H40.14V87.24H26.18V85.16ZM28.62 79.54H31.28V85.4H28.62V79.54ZM35.04 79.54H37.68V85.4H35.04V79.54ZM55.9184 76.28H58.5984V86.72H55.9184V76.28ZM46.2784 87.58H58.5984V94.58H46.2784V87.58ZM55.9784 89.66H48.8784V92.48H55.9784V89.66ZM47.5384 76.94H49.7384V78.72C49.7384 82.16 48.0184 85.28 44.3984 86.42L43.1184 84.32C46.2184 83.36 47.5384 81 47.5384 78.72V76.94ZM48.0784 76.94H50.2584V78.72C50.2584 80.96 51.5584 83.12 54.5584 84.02L53.2784 86.08C49.7384 85.02 48.0784 82.12 48.0784 78.72V76.94ZM79.6058 76.26H82.1458V94.78H79.6058V76.26ZM77.3858 83.36H80.4458V85.52H77.3858V83.36ZM75.7058 76.58H78.1858V93.9H75.7058V76.58ZM66.3658 78.34H74.8258V80.46H66.3658V78.34ZM66.3258 90.58L66.0458 88.42C68.3458 88.42 72.2058 88.36 74.9658 87.98L75.1458 89.9C72.3058 90.52 68.5858 90.58 66.3258 90.58ZM67.5258 79.7H69.9058V88.98H67.5258V79.7ZM71.2858 79.7H73.6658V88.98H71.2858V79.7ZM91.5042 77.32H93.8242V78.66C93.8242 82.68 90.9642 86.24 86.1642 87.18L85.0242 84.98C89.2042 84.26 91.5042 81.32 91.5042 78.66V77.32ZM92.0442 77.32H94.3442V78.66C94.3442 81.38 96.6242 84.26 100.824 84.98L99.6842 87.18C94.8842 86.24 92.0442 82.74 92.0442 78.66V77.32ZM84.6442 90.36H101.404V92.52H84.6442V90.36ZM105.003 85.8H118.023V87.88H105.003V85.8ZM103.043 90.5H119.803V92.66H103.043V90.5ZM105.003 77.6H117.863V79.74H107.703V86.38H105.003V77.6ZM106.883 81.68H117.443V83.74H106.883V81.68ZM123.561 76.54H126.181V77.76H133.401V76.54H136.041V82.74H123.561V76.54ZM126.181 79.7V80.78H133.401V79.7H126.181ZM121.421 83.92H138.161V86H121.421V83.92ZM128.441 81.88H131.081V84.46H128.441V81.88ZM123.341 86.96H136.141V91.66H125.981V93.34H123.361V89.84H133.521V88.9H123.341V86.96ZM123.361 92.68H136.621V94.66H123.361V92.68ZM155.026 82.0909L151.212 93H147.803L143.989 82.0909H147.185L149.451 89.8963H149.565L151.823 82.0909H155.026ZM165.651 85.2017L162.881 85.3722C162.834 85.1354 162.732 84.9223 162.576 84.733C162.42 84.5388 162.214 84.3849 161.958 84.2713C161.707 84.1529 161.406 84.0938 161.056 84.0938C160.587 84.0938 160.192 84.1932 159.87 84.392C159.548 84.5862 159.387 84.8466 159.387 85.1733C159.387 85.4337 159.491 85.6539 159.7 85.8338C159.908 86.0137 160.265 86.1581 160.772 86.267L162.746 86.6648C163.807 86.8826 164.598 87.233 165.119 87.7159C165.639 88.1989 165.9 88.8333 165.9 89.6193C165.9 90.3343 165.689 90.9616 165.268 91.5014C164.851 92.0412 164.278 92.4626 163.549 92.7656C162.825 93.0639 161.989 93.2131 161.042 93.2131C159.598 93.2131 158.447 92.9124 157.59 92.3111C156.738 91.705 156.238 90.8812 156.092 89.8395L159.067 89.6832C159.157 90.1236 159.375 90.4598 159.721 90.6918C160.067 90.919 160.509 91.0327 161.049 91.0327C161.579 91.0327 162.005 90.9309 162.327 90.7273C162.654 90.5189 162.82 90.2514 162.825 89.9247C162.82 89.6501 162.704 89.4252 162.477 89.25C162.249 89.0701 161.899 88.9328 161.425 88.8381L159.536 88.4616C158.471 88.2486 157.678 87.8793 157.157 87.3537C156.641 86.8281 156.383 86.1581 156.383 85.3438C156.383 84.643 156.572 84.0393 156.951 83.5327C157.335 83.026 157.872 82.6354 158.563 82.3608C159.259 82.0862 160.074 81.9489 161.006 81.9489C162.384 81.9489 163.469 82.2401 164.259 82.8224C165.055 83.4048 165.519 84.1979 165.651 85.2017ZM169.574 93.1847C169.105 93.1847 168.702 93.0189 168.366 92.6875C168.035 92.3513 167.869 91.9489 167.869 91.4801C167.869 91.0161 168.035 90.6184 168.366 90.2869C168.702 89.9555 169.105 89.7898 169.574 89.7898C170.028 89.7898 170.426 89.9555 170.767 90.2869C171.108 90.6184 171.278 91.0161 171.278 91.4801C171.278 91.7926 171.198 92.0791 171.037 92.3395C170.88 92.5952 170.674 92.8011 170.419 92.9574C170.163 93.1089 169.881 93.1847 169.574 93.1847ZM177.3 87.24H194.06V89.4H177.3V87.24ZM184.34 88H186.98V94.8H184.34V88ZM179.38 83.8H192.32V85.9H179.38V83.8ZM179.38 77H192.12V79.08H182V84.3H179.38V77ZM181.26 80.42H191.72V82.44H181.26V80.42ZM208.418 76.28H211.098V86.72H208.418V76.28ZM198.778 87.58H211.098V94.58H198.778V87.58ZM208.478 89.66H201.378V92.48H208.478V89.66ZM200.038 76.94H202.238V78.72C202.238 82.16 200.518 85.28 196.898 86.42L195.618 84.32C198.718 83.36 200.038 81 200.038 78.72V76.94ZM200.578 76.94H202.758V78.72C202.758 80.96 204.058 83.12 207.058 84.02L205.778 86.08C202.238 85.02 200.578 82.12 200.578 78.72V76.94ZM232.106 76.26H234.646V94.78H232.106V76.26ZM229.886 83.36H232.946V85.52H229.886V83.36ZM228.206 76.58H230.686V93.9H228.206V76.58ZM218.866 78.34H227.326V80.46H218.866V78.34ZM218.826 90.58L218.546 88.42C220.846 88.42 224.706 88.36 227.466 87.98L227.646 89.9C224.806 90.52 221.086 90.58 218.826 90.58ZM220.026 79.7H222.406V88.98H220.026V79.7ZM223.786 79.7H226.166V88.98H223.786V79.7ZM244.004 77.32H246.324V78.66C246.324 82.68 243.464 86.24 238.664 87.18L237.524 84.98C241.704 84.26 244.004 81.32 244.004 78.66V77.32ZM244.544 77.32H246.844V78.66C246.844 81.38 249.124 84.26 253.324 84.98L252.184 87.18C247.384 86.24 244.544 82.74 244.544 78.66V77.32ZM237.144 90.36H253.904V92.52H237.144V90.36ZM257.503 85.8H270.523V87.88H257.503V85.8ZM255.543 90.5H272.303V92.66H255.543V90.5ZM257.503 77.6H270.363V79.74H260.203V86.38H257.503V77.6ZM259.383 81.68H269.943V83.74H259.383V81.68ZM276.061 76.54H278.681V77.76H285.901V76.54H288.541V82.74H276.061V76.54ZM278.681 79.7V80.78H285.901V79.7H278.681ZM273.921 83.92H290.661V86H273.921V83.92ZM280.941 81.88H283.581V84.46H280.941V81.88ZM275.841 86.96H288.641V91.66H278.481V93.34H275.861V89.84H286.021V88.9H275.841V86.96ZM275.861 92.68H289.121V94.66H275.861V92.68ZM25 114.94H41.38V116.32H25V114.94ZM32.3 110.26H33.96V115.56H32.3V110.26ZM26.42 102.2H39.84V103.56H26.42V102.2ZM26.46 109.48H39.82V110.82H26.46V109.48ZM29.24 103.3H30.9V109.72H29.24V103.3ZM35.4 103.3H37.04V109.72H35.4V103.3ZM56.5384 100.5H58.2184V110.76H56.5384V100.5ZM46.5384 111.8H58.2184V118.32H46.5384V111.8ZM56.5784 113.12H48.1584V116.98H56.5784V113.12ZM48.0984 101.18H49.4784V102.94C49.4784 106.3 47.3984 109.18 44.3384 110.32L43.5184 109C46.2384 108.02 48.0984 105.58 48.0984 102.94V101.18ZM48.3984 101.18H49.7584V102.94C49.7584 105.5 51.6384 107.76 54.3184 108.66L53.4984 109.96C50.4784 108.92 48.3984 106.22 48.3984 102.94V101.18ZM80.8498 100.48H82.4498V118.56H80.8498V100.48ZM77.9898 107.74H81.4498V109.12H77.9898V107.74ZM76.9298 100.88H78.4898V117.64H76.9298V100.88ZM67.2498 102.74H75.6098V104.1H67.2498V102.74ZM67.0898 114.12L66.8898 112.72C69.2698 112.72 73.1898 112.64 75.9498 112.28L76.0698 113.5C73.2098 114.04 69.4498 114.12 67.0898 114.12ZM68.7898 103.62H70.3098V113.08H68.7898V103.62ZM72.5498 103.62H74.0698V113.08H72.5498V103.62ZM92.7283 101.72H94.1683V103.1C94.1683 107.04 90.5083 110.1 86.8883 110.92L86.1483 109.54C89.3283 108.94 92.7283 106.18 92.7283 103.1V101.72ZM93.0283 101.72H94.4683V103.1C94.4683 106.2 97.8883 108.94 101.048 109.54L100.308 110.92C96.7083 110.1 93.0283 107.06 93.0283 103.1V101.72ZM85.4883 114.76H101.868V116.12H85.4883V114.76ZM105.987 110.22H118.407V111.56H105.987V110.22ZM103.887 114.86H120.267V116.24H103.887V114.86ZM105.987 102.02H118.207V103.38H107.667V110.64H105.987V102.02ZM107.127 106.06H117.827V107.38H107.127V106.06ZM124.445 100.76H126.085V102.44H134.825V100.76H136.485V106.72H124.445V100.76ZM126.085 103.72V105.44H134.825V103.72H126.085ZM122.265 108.46H138.605V109.8H122.265V108.46ZM129.605 106.12H131.245V108.88H129.605V106.12ZM124.245 111.3H136.525V115.32H125.925V117.56H124.285V114.12H134.885V112.56H124.245V111.3ZM124.285 117.08H137.065V118.36H124.285V117.08ZM140.664 109.98H157.004V111.34H140.664V109.98ZM142.784 116.8H155.204V118.16H142.784V116.8ZM142.784 112.92H144.444V117.22H142.784V112.92ZM148.844 101.08C152.704 101.08 155.204 102.44 155.204 104.7C155.204 106.94 152.704 108.3 148.844 108.3C144.964 108.3 142.484 106.94 142.484 104.7C142.484 102.44 144.964 101.08 148.844 101.08ZM148.844 102.44C146.004 102.44 144.184 103.28 144.184 104.7C144.184 106.12 146.004 106.96 148.844 106.96C151.684 106.96 153.504 106.12 153.504 104.7C153.504 103.28 151.684 102.44 148.844 102.44ZM172.475 111.88C176.315 111.88 178.775 113.14 178.775 115.22C178.775 117.28 176.315 118.52 172.475 118.52C168.615 118.52 166.175 117.28 166.175 115.22C166.175 113.14 168.615 111.88 172.475 111.88ZM172.475 113.18C169.635 113.18 167.815 113.96 167.815 115.22C167.815 116.46 169.635 117.24 172.475 117.24C175.315 117.24 177.115 116.46 177.115 115.22C177.115 113.96 175.315 113.18 172.475 113.18ZM166.315 101.38H177.955V102.74H166.315V101.38ZM164.375 108.9H180.695V110.24H164.375V108.9ZM171.075 105.42H172.715V109.28H171.075V105.42ZM176.995 101.38H178.615V102.92C178.615 104.38 178.615 105.84 178.135 107.72L176.495 107.52C176.995 105.66 176.995 104.34 176.995 102.92V101.38ZM195.893 100.46H197.553V118.58H195.893V100.46ZM188.013 101.86C190.693 101.86 192.613 104.32 192.613 108.16C192.613 112.02 190.693 114.48 188.013 114.48C185.353 114.48 183.433 112.02 183.433 108.16C183.433 104.32 185.353 101.86 188.013 101.86ZM188.013 103.36C186.253 103.36 185.013 105.24 185.013 108.16C185.013 111.1 186.253 113.02 188.013 113.02C189.793 113.02 191.013 111.1 191.013 108.16C191.013 105.24 189.793 103.36 188.013 103.36ZM211.265 102.34H212.645V103.78C212.645 107.1 210.605 109.88 207.565 110.96L206.705 109.66C209.425 108.7 211.265 106.34 211.265 103.78V102.34ZM211.585 102.34H212.965V103.78C212.965 106.22 214.845 108.42 217.525 109.32L216.665 110.62C213.665 109.6 211.585 106.94 211.585 103.78V102.34ZM219.605 100.48H221.285V111.42H219.605V100.48ZM209.205 112.38H221.285V118.56H219.605V113.74H209.205V112.38ZM207.145 101.74H217.045V103.08H207.145V101.74ZM234.123 104.74H238.683V106.12H234.123V104.74ZM229.383 101.58H230.723V103.8C230.723 107.3 228.763 110.22 225.743 111.44L224.883 110.12C227.563 109.12 229.383 106.56 229.383 103.8V101.58ZM229.703 101.58H231.043V103.86C231.043 106.38 232.803 108.76 235.423 109.72L234.523 111C231.643 109.88 229.703 107.08 229.703 103.86V101.58ZM238.063 100.5H239.723V114.02H238.063V100.5ZM228.103 116.8H240.163V118.16H228.103V116.8ZM228.103 112.52H229.763V117.44H228.103V112.52ZM251.422 101.62C255.182 101.62 257.982 103.62 257.982 106.62C257.982 109.64 255.182 111.62 251.422 111.62C247.662 111.62 244.842 109.64 244.842 106.62C244.842 103.62 247.662 101.62 251.422 101.62ZM251.422 102.98C248.562 102.98 246.442 104.44 246.442 106.62C246.442 108.78 248.562 110.26 251.422 110.26C254.282 110.26 256.402 108.78 256.402 106.62C256.402 104.44 254.282 102.98 251.422 102.98ZM243.262 114.78H259.642V116.18H243.262V114.78ZM261.66 114.96H278.04V116.34H261.66V114.96ZM268.98 111.08H270.64V115.54H268.98V111.08ZM263.64 101.82H276.02V107.3H265.34V110.92H263.7V105.96H274.38V103.16H263.64V101.82ZM263.7 110.22H276.44V111.58H263.7V110.22ZM298.092 100.48H299.732V118.56H298.092V100.48ZM298.792 107.54H302.132V108.92H298.792V107.54ZM285.672 102.16H287.092V106.8H289.292V102.16H290.672V114.18H285.672V102.16ZM287.092 108.12V112.82H289.292V108.12H287.092ZM291.632 102.16H293.032V106.8H295.172V102.16H296.572V114.18H291.632V102.16ZM293.032 108.12V112.82H295.172V108.12H293.032ZM303.75 114.9H320.13V116.3H303.75V114.9ZM305.73 101.86H318.11V107.34H307.43V110.96H305.79V106.02H316.47V103.22H305.73V101.86ZM305.79 110.26H318.53V111.62H305.79V110.26ZM335.908 100.48H337.508V118.56H335.908V100.48ZM328.068 107.86H332.628V109.2H328.068V107.86ZM332.148 100.94H333.708V117.64H332.148V100.94ZM328.288 102.76H329.888C329.888 107.5 327.988 111.76 323.108 114.66L322.128 113.48C326.388 110.92 328.288 107.32 328.288 103.06V102.76ZM322.928 102.76H328.908V104.12H322.928V102.76ZM358.2 100.48H359.86V109.6H358.2V100.48ZM359.4 104.22H362.54V105.6H359.4V104.22ZM346.7 101.26H348.36V108.2H346.7V101.26ZM346.7 107.32H348.12C350.7 107.32 353.4 107.14 356.34 106.54L356.54 107.92C353.5 108.54 350.8 108.72 348.12 108.72H346.7V107.32ZM348.38 110.46H359.86V114.92H350.06V117.66H348.42V113.64H358.22V111.8H348.38V110.46ZM348.42 116.98H360.52V118.32H348.42V116.98ZM369.038 101.86C371.698 101.86 373.578 104.32 373.578 108.16C373.578 112.02 371.698 114.48 369.038 114.48C366.378 114.48 364.498 112.02 364.498 108.16C364.498 104.32 366.378 101.86 369.038 101.86ZM369.038 103.36C367.278 103.36 366.078 105.24 366.078 108.16C366.078 111.1 367.278 113.02 369.038 113.02C370.778 113.02 371.998 111.1 371.998 108.16C371.998 105.24 370.778 103.36 369.038 103.36ZM376.458 100.48H378.138V118.56H376.458V100.48ZM377.738 107.7H381.098V109.1H377.738V107.7ZM394.857 100.46H396.537V118.56H394.857V100.46ZM396.077 107.8H399.417V109.18H396.077V107.8ZM390.237 102.42H391.857C391.857 107.56 389.497 112.2 383.657 115.14L382.737 113.86C387.737 111.32 390.237 107.46 390.237 102.68V102.42ZM383.577 102.42H391.097V103.78H383.577V102.42ZM409.335 104.8H414.915V106.16H409.335V104.8ZM409.335 109.78H414.915V111.16H409.335V109.78ZM401.755 102.24H409.975V114H401.755V102.24ZM408.335 103.58H403.375V112.66H408.335V103.58ZM414.275 100.46H415.915V118.58H414.275V100.46ZM422.624 115.011L422.517 115.786C422.446 116.354 422.326 116.946 422.155 117.561C421.989 118.181 421.817 118.757 421.637 119.287C421.462 119.817 421.317 120.239 421.203 120.551H419.698C419.759 120.258 419.845 119.86 419.953 119.358C420.062 118.861 420.169 118.304 420.273 117.689C420.377 117.073 420.455 116.446 420.507 115.807L420.578 115.011H422.624ZM430.234 109.54H446.634V110.9H430.234V109.54ZM437.574 106.8H439.214V110.16H437.574V106.8ZM437.554 100.76H438.994V101.56C438.994 104.82 435.534 107.14 431.854 107.74L431.214 106.42C434.454 105.98 437.554 103.98 437.554 101.56V100.76ZM437.814 100.76H439.234V101.56C439.234 103.98 442.354 105.98 445.574 106.42L444.954 107.74C441.294 107.12 437.814 104.82 437.814 101.56V100.76ZM432.054 112.66H444.554V118.56H442.894V114H432.054V112.66ZM450.712 108.92H463.132V110.28H450.712V108.92ZM448.652 114.9H465.032V116.3H448.652V114.9ZM455.972 109.5H457.632V115.46H455.972V109.5ZM450.712 101.92H462.952V103.28H452.372V109.52H450.712V101.92ZM474.371 107.5H477.791V108.88H474.371V107.5ZM480.811 100.48H482.411V118.56H480.811V100.48ZM477.231 100.86H478.811V117.66H477.231V100.86ZM471.111 101.98C473.451 101.98 474.971 104.4 474.971 108.28C474.971 112.16 473.451 114.58 471.111 114.58C468.771 114.58 467.271 112.16 467.271 108.28C467.271 104.4 468.771 101.98 471.111 101.98ZM471.111 103.52C469.691 103.52 468.791 105.36 468.791 108.28C468.791 111.2 469.691 113.04 471.111 113.04C472.551 113.04 473.451 111.2 473.451 108.28C473.451 105.36 472.551 103.52 471.111 103.52ZM498.062 109.52H499.722V112.68H498.062V109.52ZM490.722 108.94H507.062V110.28H490.722V108.94ZM498.882 112.18C502.762 112.18 505.082 113.32 505.082 115.36C505.082 117.38 502.762 118.52 498.882 118.52C495.002 118.52 492.682 117.38 492.682 115.36C492.682 113.32 495.002 112.18 498.882 112.18ZM498.882 113.46C496.062 113.46 494.362 114.14 494.362 115.36C494.362 116.56 496.062 117.24 498.882 117.24C501.722 117.24 503.402 116.56 503.402 115.36C503.402 114.14 501.722 113.46 498.882 113.46ZM497.822 101.96H499.302V102.5C499.302 105.42 495.982 107.38 492.242 107.84L491.642 106.52C494.882 106.18 497.822 104.56 497.822 102.5V101.96ZM498.522 101.96H499.982V102.5C499.982 104.56 502.922 106.18 506.162 106.52L505.562 107.84C501.822 107.38 498.522 105.42 498.522 102.5V101.96ZM492.222 101.3H505.602V102.64H492.222V101.3ZM518.781 105H522.801V106.38H518.781V105ZM522.341 100.48H524.001V111.06H522.341V100.48ZM512.281 111.94H524.001V118.32H512.281V111.94ZM522.381 113.26H513.901V116.98H522.381V113.26ZM513.741 102.2H515.101V103.66C515.101 106.96 513.061 109.78 510.041 110.9L509.181 109.58C511.881 108.62 513.741 106.22 513.741 103.66V102.2ZM514.061 102.2H515.401V103.64C515.401 105.98 517.161 108.24 519.781 109.16L518.941 110.48C516.001 109.42 514.061 106.68 514.061 103.64V102.2ZM509.701 101.64H519.361V102.98H509.701V101.64ZM535.699 100.78C539.679 100.78 542.059 101.9 542.059 103.92C542.059 105.94 539.679 107.06 535.699 107.06C531.699 107.06 529.339 105.94 529.339 103.92C529.339 101.9 531.699 100.78 535.699 100.78ZM535.699 102.04C532.739 102.04 531.039 102.72 531.039 103.92C531.039 105.12 532.739 105.8 535.699 105.8C538.639 105.8 540.339 105.12 540.339 103.92C540.339 102.72 538.639 102.04 535.699 102.04ZM527.519 108.26H543.859V109.6H527.519V108.26ZM529.499 111.14H541.779V115.22H531.179V117.42H529.539V114.02H540.139V112.42H529.499V111.14ZM529.539 117.06H542.319V118.36H529.539V117.06ZM32.34 133.36H33.98V136.54H32.34V133.36ZM25 132.6H41.34V133.96H25V132.6ZM27.06 129.56H39.46V130.92H27.06V129.56ZM27.06 125.14H39.3V126.5H28.72V130.42H27.06V125.14ZM27.1 135.42H28.74V137.52H37.6V135.42H39.24V142.32H27.1V135.42ZM28.74 138.84V140.98H37.6V138.84H28.74ZM56.5384 124.48H58.1984V142.56H56.5384V124.48ZM44.5384 126.24H46.1784V137.44H44.5384V126.24ZM44.5384 136.46H46.0184C48.7584 136.46 51.6184 136.26 54.6784 135.62L54.8784 137.04C51.7384 137.68 48.8784 137.9 46.0184 137.9H44.5384V136.46ZM74.0169 124.46H75.6969V142.58H74.0169V124.46ZM75.2969 131.6H78.6569V133H75.2969V131.6ZM62.5569 136.68H63.9769C67.3169 136.68 69.6569 136.56 72.3569 136.06L72.5369 137.46C69.7569 137.98 67.3769 138.08 63.9769 138.08H62.5569V136.68ZM62.5569 126.22H70.9569V127.58H64.1969V137.3H62.5569V126.22ZM82.022 141.135C81.6338 141.135 81.3 140.998 81.0206 140.723C80.7412 140.444 80.6016 140.107 80.6016 139.714C80.6016 139.326 80.7412 138.995 81.0206 138.72C81.3 138.441 81.6338 138.301 82.022 138.301C82.4103 138.301 82.7441 138.441 83.0234 138.72C83.3028 138.995 83.4425 139.326 83.4425 139.714C83.4425 139.975 83.3762 140.214 83.2436 140.432C83.1158 140.645 82.9453 140.815 82.7322 140.943C82.5192 141.071 82.2824 141.135 82.022 141.135ZM103.278 124.5H104.938V137.76H103.278V124.5ZM104.418 129.96H107.618V131.34H104.418V129.96ZM93.678 140.8H105.758V142.16H93.678V140.8ZM93.678 136.48H95.338V141.12H93.678V136.48ZM91.658 125.78H93.298V128.8H98.398V125.78H100.018V134.74H91.658V125.78ZM93.298 130.1V133.4H98.398V130.1H93.298ZM117.976 127.66H123.036V129.02H117.976V127.66ZM117.976 131.52H123.076V132.9H117.976V131.52ZM110.136 126.04H118.396V134.52H110.136V126.04ZM116.756 127.38H111.756V133.18H116.756V127.38ZM122.516 124.5H124.176V137.7H122.516V124.5ZM112.556 140.8H124.616V142.16H112.556V140.8ZM112.556 136.5H114.216V141.42H112.556V136.5ZM132.988 135.42H149.368V136.8H132.988V135.42ZM140.348 135.82H141.988V142.58H140.348V135.82ZM135.168 132.22H147.548V133.58H135.168V132.22ZM135.168 125.32H147.348V126.66H136.808V132.62H135.168V125.32ZM136.328 128.74H146.908V130.04H136.328V128.74ZM164.546 124.5H166.226V134.76H164.546V124.5ZM154.546 135.8H166.226V142.32H154.546V135.8ZM164.586 137.12H156.166V140.98H164.586V137.12ZM156.106 125.18H157.486V126.94C157.486 130.3 155.406 133.18 152.346 134.32L151.526 133C154.246 132.02 156.106 129.58 156.106 126.94V125.18ZM156.406 125.18H157.766V126.94C157.766 129.5 159.646 131.76 162.326 132.66L161.506 133.96C158.486 132.92 156.406 130.22 156.406 126.94V125.18ZM188.858 124.48H190.458V142.56H188.858V124.48ZM185.998 131.74H189.458V133.12H185.998V131.74ZM184.938 124.88H186.498V141.64H184.938V124.88ZM175.258 126.74H183.618V128.1H175.258V126.74ZM175.098 138.12L174.898 136.72C177.278 136.72 181.198 136.64 183.958 136.28L184.078 137.5C181.218 138.04 177.458 138.12 175.098 138.12ZM176.798 127.62H178.318V137.08H176.798V127.62ZM180.558 127.62H182.078V137.08H180.558V127.62ZM200.736 125.72H202.176V127.1C202.176 131.04 198.516 134.1 194.896 134.92L194.156 133.54C197.336 132.94 200.736 130.18 200.736 127.1V125.72ZM201.036 125.72H202.476V127.1C202.476 130.2 205.896 132.94 209.056 133.54L208.316 134.92C204.716 134.1 201.036 131.06 201.036 127.1V125.72ZM193.496 138.76H209.876V140.12H193.496V138.76ZM213.995 134.22H226.415V135.56H213.995V134.22ZM211.895 138.86H228.275V140.24H211.895V138.86ZM213.995 126.02H226.215V127.38H215.675V134.64H213.995V126.02ZM215.135 130.06H225.835V131.38H215.135V130.06ZM232.453 124.76H234.093V126.44H242.833V124.76H244.493V130.72H232.453V124.76ZM234.093 127.72V129.44H242.833V127.72H234.093ZM230.273 132.46H246.613V133.8H230.273V132.46ZM237.613 130.12H239.253V132.88H237.613V130.12ZM232.253 135.3H244.533V139.32H233.933V141.56H232.293V138.12H242.893V136.56H232.253V135.3ZM232.293 141.08H245.073V142.36H232.293V141.08ZM248.671 133.98H265.011V135.34H248.671V133.98ZM250.791 140.8H263.211V142.16H250.791V140.8ZM250.791 136.92H252.451V141.22H250.791V136.92ZM256.851 125.08C260.711 125.08 263.211 126.44 263.211 128.7C263.211 130.94 260.711 132.3 256.851 132.3C252.971 132.3 250.491 130.94 250.491 128.7C250.491 126.44 252.971 125.08 256.851 125.08ZM256.851 126.44C254.011 126.44 252.191 127.28 252.191 128.7C252.191 130.12 254.011 130.96 256.851 130.96C259.691 130.96 261.511 130.12 261.511 128.7C261.511 127.28 259.691 126.44 256.851 126.44ZM272.363 133.54H288.763V134.9H272.363V133.54ZM279.703 130.8H281.343V134.16H279.703V130.8ZM279.683 124.76H281.123V125.56C281.123 128.82 277.663 131.14 273.983 131.74L273.343 130.42C276.583 129.98 279.683 127.98 279.683 125.56V124.76ZM279.943 124.76H281.363V125.56C281.363 127.98 284.483 129.98 287.703 130.42L287.083 131.74C283.423 131.12 279.943 128.82 279.943 125.56V124.76ZM274.183 136.66H286.683V142.56H285.023V138H274.183V136.66ZM292.841 132.92H305.261V134.28H292.841V132.92ZM290.781 138.9H307.161V140.3H290.781V138.9ZM298.101 133.5H299.761V139.46H298.101V133.5ZM292.841 125.92H305.081V127.28H294.501V133.52H292.841V125.92ZM311.38 129.9H323.66V131.26H311.38V129.9ZM309.16 133.68H325.56V135.04H309.16V133.68ZM311.38 125.14H313.02V130.58H311.38V125.14ZM311.26 140.76H323.76V142.12H311.26V140.76ZM311.26 136.84H312.9V141.12H311.26V136.84ZM346.391 127.22H349.531V128.62H346.391V127.22ZM346.391 131.1H349.531V132.48H346.391V131.1ZM345.231 124.48H346.891V135.22H345.231V124.48ZM335.151 136.08H346.891V142.56H345.231V137.42H335.151V136.08ZM337.911 125.54C340.631 125.54 342.631 127.3 342.631 129.84C342.631 132.36 340.631 134.1 337.911 134.1C335.191 134.1 333.191 132.36 333.191 129.84C333.191 127.3 335.191 125.54 337.911 125.54ZM337.911 126.96C336.111 126.96 334.811 128.12 334.811 129.84C334.811 131.54 336.111 132.72 337.911 132.72C339.711 132.72 341.011 131.54 341.011 129.84C341.011 128.12 339.711 126.96 337.911 126.96ZM363.63 124.48H365.29V137.7H363.63V124.48ZM364.77 129.96H367.97V131.34H364.77V129.96ZM358.69 125.88H360.45C360.45 130.56 357.17 133.98 351.99 135.64L351.27 134.28C355.83 132.88 358.69 130.08 358.69 126.6V125.88ZM352.01 125.88H359.53V127.24H352.01V125.88ZM354.01 140.8H366.09V142.16H354.01V140.8ZM354.01 136.36H355.67V141.34H354.01V136.36ZM376.961 132.64H389.481V134.02H376.961V132.64ZM374.961 138.7H391.341V140.08H374.961V138.7ZM376.961 126.06H378.621V133.26H376.961V126.06ZM406.519 124.46H408.179V142.58H406.519V124.46ZM394.399 136.84H395.899C398.919 136.84 401.619 136.72 404.819 136.2L404.999 137.56C401.719 138.1 398.999 138.22 395.899 138.22H394.399V136.84ZM394.359 126.16H402.719V132.62H396.059V137.36H394.399V131.26H401.039V127.52H394.359V126.16ZM416.538 127.06H417.878V130C417.878 133.82 415.578 137.66 412.698 139.08L411.738 137.76C414.358 136.52 416.538 133.12 416.538 130V127.06ZM416.858 127.06H418.198V130C418.198 133.06 420.378 136.18 423.038 137.32L422.098 138.64C419.178 137.28 416.858 133.76 416.858 130V127.06ZM412.338 126.32H422.438V127.72H412.338V126.32ZM424.878 124.48H426.538V142.56H424.878V124.48ZM430.896 126.1H439.196V134.48H430.896V126.1ZM437.576 127.44H432.516V133.14H437.576V127.44ZM442.516 124.46H444.176V137.72H442.516V124.46ZM443.656 129.98H446.856V131.36H443.656V129.98ZM432.916 140.8H444.996V142.16H432.916V140.8ZM432.916 136.46H434.576V141.38H432.916V136.46ZM451.745 139.011L451.638 139.786C451.567 140.354 451.447 140.946 451.276 141.561C451.111 142.181 450.938 142.757 450.758 143.287C450.583 143.817 450.438 144.239 450.325 144.551H448.819C448.88 144.258 448.966 143.86 449.075 143.358C449.183 142.861 449.29 142.304 449.394 141.689C449.498 141.073 449.576 140.446 449.629 139.807L449.7 139.011H451.745ZM467.475 135.88C471.315 135.88 473.775 137.14 473.775 139.22C473.775 141.28 471.315 142.52 467.475 142.52C463.615 142.52 461.175 141.28 461.175 139.22C461.175 137.14 463.615 135.88 467.475 135.88ZM467.475 137.18C464.635 137.18 462.815 137.96 462.815 139.22C462.815 140.46 464.635 141.24 467.475 141.24C470.315 141.24 472.115 140.46 472.115 139.22C472.115 137.96 470.315 137.18 467.475 137.18ZM461.315 125.38H472.955V126.74H461.315V125.38ZM459.375 132.9H475.695V134.24H459.375V132.9ZM466.075 129.42H467.715V133.28H466.075V129.42ZM471.995 125.38H473.615V126.92C473.615 128.38 473.615 129.84 473.135 131.72L471.495 131.52C471.995 129.66 471.995 128.34 471.995 126.92V125.38ZM490.893 124.46H492.553V142.58H490.893V124.46ZM483.013 125.86C485.693 125.86 487.613 128.32 487.613 132.16C487.613 136.02 485.693 138.48 483.013 138.48C480.353 138.48 478.433 136.02 478.433 132.16C478.433 128.32 480.353 125.86 483.013 125.86ZM483.013 127.36C481.253 127.36 480.013 129.24 480.013 132.16C480.013 135.1 481.253 137.02 483.013 137.02C484.793 137.02 486.013 135.1 486.013 132.16C486.013 129.24 484.793 127.36 483.013 127.36ZM514.605 124.48H516.265V135.06H514.605V124.48ZM510.685 129.18H514.925V130.56H510.685V129.18ZM505.205 125.68H506.745C506.745 129.28 505.605 131.8 502.605 133.9L501.525 132.86C504.125 131.1 505.205 129.14 505.205 125.92V125.68ZM501.985 125.68H506.025V127.02H501.985V125.68ZM510.225 125.68H511.745C511.745 129.34 510.785 132.34 507.785 134.8L506.605 133.82C509.285 131.7 510.225 129.24 510.225 125.9V125.68ZM507.405 125.68H510.925V127.02H507.405V125.68ZM503.665 135.88H509.565V142.56H507.925V137.24H503.665V135.88ZM510.445 135.88H516.265V142.56H514.625V137.24H510.445V135.88ZM532.983 124.46H534.643V142.58H532.983V124.46ZM525.103 125.86C527.783 125.86 529.703 128.32 529.703 132.16C529.703 136.02 527.783 138.48 525.103 138.48C522.443 138.48 520.523 136.02 520.523 132.16C520.523 128.32 522.443 125.86 525.103 125.86ZM525.103 127.36C523.343 127.36 522.103 129.24 522.103 132.16C522.103 135.1 523.343 137.02 525.103 137.02C526.883 137.02 528.103 135.1 528.103 132.16C528.103 129.24 526.883 127.36 525.103 127.36ZM33.66 151.66H38.72V153.02H33.66V151.66ZM33.66 155.52H38.76V156.9H33.66V155.52ZM25.82 150.04H34.08V158.52H25.82V150.04ZM32.44 151.38H27.44V157.18H32.44V151.38ZM38.2 148.5H39.86V161.7H38.2V148.5ZM28.24 164.8H40.3V166.16H28.24V164.8ZM28.24 160.5H29.9V165.42H28.24V160.5ZM52.4184 154.6H57.4584V155.96H52.4184V154.6ZM48.0584 150.04H49.4184V153.26C49.4184 157.32 47.2784 161.2 44.4184 162.74L43.3584 161.42C46.0184 160.1 48.0584 156.62 48.0584 153.26V150.04ZM48.3784 150.04H49.7184V153.26C49.7184 156.56 51.7584 159.84 54.3784 161.08L53.3984 162.42C50.4784 160.94 48.3784 157.22 48.3784 153.26V150.04ZM56.6384 148.46H58.2784V166.58H56.6384V148.46ZM67.8498 160.84H69.2698C72.6098 160.84 74.9098 160.76 77.6298 160.28L77.8098 161.64C75.0098 162.12 72.6498 162.22 69.2698 162.22H67.8498V160.84ZM67.8498 150.12H76.2698V151.5H69.5098V161.32H67.8498V150.12ZM69.0898 155.18H75.8698V156.52H69.0898V155.18ZM79.3098 148.48H80.9898V166.56H79.3098V148.48ZM80.5898 155.74H83.9498V157.14H80.5898V155.74ZM89.9483 151.06H91.2683V154C91.2683 157.76 88.9683 161.64 86.1483 163.08L85.1883 161.76C87.7683 160.5 89.9483 157.06 89.9483 154V151.06ZM90.2483 151.06H91.5683V154C91.5683 156.86 93.6083 160.08 96.2283 161.32L95.2883 162.64C92.4283 161.22 90.2483 157.58 90.2483 154V151.06ZM85.8283 150.32H95.5683V151.72H85.8283V150.32ZM97.7083 148.48H99.3883V166.56H97.7083V148.48ZM98.9883 155.78H102.348V157.18H98.9883V155.78ZM109.747 149.78C112.567 149.78 114.587 151.52 114.587 154.04C114.587 156.58 112.567 158.32 109.747 158.32C106.927 158.32 104.887 156.58 104.887 154.04C104.887 151.52 106.927 149.78 109.747 149.78ZM109.747 151.22C107.867 151.22 106.507 152.36 106.507 154.04C106.507 155.72 107.867 156.88 109.747 156.88C111.607 156.88 112.967 155.72 112.967 154.04C112.967 152.36 111.607 151.22 109.747 151.22ZM116.947 148.46H118.607V166.58H116.947V148.46ZM104.207 162.62L103.967 161.24C107.267 161.24 111.827 161.22 115.767 160.6L115.907 161.82C111.847 162.6 107.427 162.62 104.207 162.62ZM135.838 159.82C139.518 159.82 141.778 161.06 141.778 163.18C141.778 165.3 139.518 166.54 135.838 166.54C132.158 166.54 129.898 165.3 129.898 163.18C129.898 161.06 132.158 159.82 135.838 159.82ZM135.838 161.16C133.158 161.16 131.518 161.9 131.518 163.18C131.518 164.48 133.158 165.22 135.838 165.22C138.518 165.22 140.158 164.48 140.158 163.18C140.158 161.9 138.518 161.16 135.838 161.16ZM139.938 148.48H141.598V159.34H139.938V148.48ZM141.138 153.02H144.278V154.42H141.138V153.02ZM128.318 149.62H129.958V152.32H135.058V149.62H136.678V157.96H128.318V149.62ZM129.958 153.64V156.62H135.058V153.64H129.958ZM146.717 149.84H155.017V157.62H146.717V149.84ZM153.397 151.18H148.337V156.3H153.397V151.18ZM158.337 148.48H159.997V159.16H158.337V148.48ZM159.537 152.96H162.677V154.36H159.537V152.96ZM154.237 159.78C157.917 159.78 160.177 161.04 160.177 163.16C160.177 165.3 157.917 166.54 154.237 166.54C150.557 166.54 148.297 165.3 148.297 163.16C148.297 161.04 150.557 159.78 154.237 159.78ZM154.237 161.12C151.557 161.12 149.917 161.86 149.917 163.16C149.917 164.46 151.557 165.22 154.237 165.22C156.917 165.22 158.557 164.46 158.557 163.16C158.557 161.86 156.917 161.12 154.237 161.12ZM177.495 148.46H179.155V166.58H177.495V148.46ZM169.615 149.86C172.295 149.86 174.215 152.32 174.215 156.16C174.215 160.02 172.295 162.48 169.615 162.48C166.955 162.48 165.035 160.02 165.035 156.16C165.035 152.32 166.955 149.86 169.615 149.86ZM169.615 151.36C167.855 151.36 166.615 153.24 166.615 156.16C166.615 159.1 167.855 161.02 169.615 161.02C171.395 161.02 172.615 159.1 172.615 156.16C172.615 153.24 171.395 151.36 169.615 151.36ZM182.753 156.88H199.153V158.14H182.753V156.88ZM184.693 159.6H197.093V163.46H186.393V165.58H184.753V162.32H195.473V160.78H184.693V159.6ZM184.753 165.14H197.673V166.34H184.753V165.14ZM184.833 149H197.033V152.76H186.513V154.72H184.873V151.64H195.413V150.18H184.833V149ZM184.873 154.32H197.373V155.52H184.873V154.32ZM219.625 148.48H221.285V166.56H219.625V148.48ZM206.905 150.42H217.145V151.78H206.905V150.42ZM206.625 162.1L206.425 160.68C209.785 160.68 214.225 160.64 218.065 160.18L218.165 161.4C214.265 162.02 209.925 162.08 206.625 162.1ZM208.905 151.44H210.505V161.06H208.905V151.44ZM213.525 151.44H215.145V161.06H213.525V151.44ZM224.823 151.56H233.783V152.92H224.823V151.56ZM229.303 154.12C231.563 154.12 233.203 155.82 233.203 158.26C233.203 160.68 231.563 162.38 229.303 162.38C227.063 162.38 225.423 160.68 225.423 158.26C225.423 155.82 227.063 154.12 229.303 154.12ZM229.303 155.54C227.923 155.54 226.923 156.66 226.923 158.26C226.923 159.86 227.923 160.98 229.303 160.98C230.703 160.98 231.723 159.86 231.723 158.26C231.723 156.66 230.703 155.54 229.303 155.54ZM238.563 148.48H240.163V166.56H238.563V148.48ZM235.683 156.08H239.103V157.46H235.683V156.08ZM234.703 148.88H236.263V165.68H234.703V148.88ZM228.503 149H230.143V152.4H228.503V149ZM248.555 156.02H264.895V157.38H248.555V156.02ZM250.715 153.22H262.955V154.56H250.715V153.22ZM250.715 149.06H262.755V150.42H252.355V154.3H250.715V149.06ZM250.515 158.94H262.795V163.2H252.195V165.48H250.555V161.96H261.155V160.24H250.515V158.94ZM250.555 165.04H263.335V166.36H250.555V165.04ZM271.773 149.86C274.393 149.86 276.273 152.32 276.273 156.16C276.273 160.02 274.393 162.48 271.773 162.48C269.133 162.48 267.273 160.02 267.273 156.16C267.273 152.32 269.133 149.86 271.773 149.86ZM271.773 151.36C270.033 151.36 268.853 153.24 268.853 156.16C268.853 159.1 270.033 161.02 271.773 161.02C273.513 161.02 274.693 159.1 274.693 156.16C274.693 153.24 273.513 151.36 271.773 151.36ZM280.193 148.46H281.833V166.58H280.193V148.46ZM275.733 155.36H280.913V156.72H275.733V155.36ZM297.572 148.46H299.252V166.56H297.572V148.46ZM298.792 155.8H302.132V157.18H298.792V155.8ZM292.952 150.42H294.572C294.572 155.56 292.212 160.2 286.372 163.14L285.452 161.86C290.452 159.32 292.952 155.46 292.952 150.68V150.42ZM286.292 150.42H293.812V151.78H286.292V150.42ZM305.95 153.9H318.23V155.26H305.95V153.9ZM303.73 157.68H320.13V159.04H303.73V157.68ZM305.95 149.14H307.59V154.58H305.95V149.14ZM305.83 164.76H318.33V166.12H305.83V164.76ZM305.83 160.84H307.47V165.12H305.83V160.84ZM340.641 148.48H342.301V160.72H340.641V148.48ZM336.761 153.58H340.981V154.94H336.761V153.58ZM334.961 149.9H336.701C336.701 154.58 333.621 157.9 328.441 159.58L327.741 158.26C332.321 156.82 334.961 154.1 334.961 150.56V149.9ZM328.601 149.9H336.141V151.26H328.601V149.9ZM335.641 159.16H337.061V159.98C337.061 163.44 333.901 165.78 330.281 166.52L329.621 165.2C332.821 164.62 335.641 162.62 335.641 159.98V159.16ZM335.881 159.16H337.301V159.98C337.301 162.58 340.081 164.58 343.301 165.16L342.601 166.48C339.001 165.76 335.881 163.42 335.881 159.98V159.16ZM358.96 148.46H360.62V166.58H358.96V148.46ZM351.08 149.86C353.76 149.86 355.68 152.32 355.68 156.16C355.68 160.02 353.76 162.48 351.08 162.48C348.42 162.48 346.5 160.02 346.5 156.16C346.5 152.32 348.42 149.86 351.08 149.86ZM351.08 151.36C349.32 151.36 348.08 153.24 348.08 156.16C348.08 159.1 349.32 161.02 351.08 161.02C352.86 161.02 354.08 159.1 354.08 156.16C354.08 153.24 352.86 151.36 351.08 151.36ZM369.511 158.02H385.851V159.38H369.511V158.02ZM371.331 161.1H383.751V166.56H382.091V162.46H371.331V161.1ZM371.671 155.04H383.931V156.34H371.671V155.04ZM371.671 148.96H383.851V150.26H373.311V155.64H371.671V148.96ZM372.831 151.96H383.371V153.22H372.831V151.96ZM401.07 148.5H402.75V159.38H401.07V148.5ZM396.73 159.82C400.49 159.82 402.81 161.08 402.81 163.22C402.81 165.38 400.49 166.64 396.73 166.64C392.97 166.64 390.67 165.38 390.67 163.22C390.67 161.08 392.97 159.82 396.73 159.82ZM396.73 161.14C393.99 161.14 392.33 161.9 392.33 163.22C392.33 164.54 393.99 165.32 396.73 165.32C399.49 165.32 401.15 164.54 401.15 163.22C401.15 161.9 399.49 161.14 396.73 161.14ZM392.73 150.32H394.11V151.76C394.11 155.1 392.07 157.9 389.05 159L388.19 157.7C390.91 156.74 392.73 154.36 392.73 151.76V150.32ZM393.05 150.32H394.43V151.76C394.43 154.18 396.31 156.36 398.99 157.22L398.15 158.54C395.15 157.52 393.05 154.9 393.05 151.76V150.32ZM388.61 149.9H398.51V151.24H388.61V149.9ZM419.468 148.48H421.148V158.18H419.468V148.48ZM409.488 159.08H411.128V161.28H419.508V159.08H421.148V166.32H409.488V159.08ZM411.128 162.6V164.98H419.508V162.6H411.128ZM411.448 149.34C414.188 149.34 416.148 151.04 416.148 153.5C416.148 155.98 414.188 157.68 411.448 157.68C408.708 157.68 406.728 155.98 406.728 153.5C406.728 151.04 408.708 149.34 411.448 149.34ZM411.448 150.72C409.648 150.72 408.348 151.86 408.348 153.5C408.348 155.14 409.648 156.28 411.448 156.28C413.248 156.28 414.548 155.14 414.548 153.5C414.548 151.86 413.248 150.72 411.448 150.72ZM437.867 148.48H439.527V166.56H437.867V148.48ZM425.867 150.24H427.507V161.44H425.867V150.24ZM425.867 160.46H427.347C430.087 160.46 432.947 160.26 436.007 159.62L436.207 161.04C433.067 161.68 430.207 161.9 427.347 161.9H425.867V160.46ZM455.345 148.46H457.025V166.58H455.345V148.46ZM456.625 155.6H459.985V157H456.625V155.6ZM443.885 160.68H445.305C448.645 160.68 450.985 160.56 453.685 160.06L453.865 161.46C451.085 161.98 448.705 162.08 445.305 162.08H443.885V160.68ZM443.885 150.22H452.285V151.58H445.525V161.3H443.885V150.22ZM463.35 165.135C462.962 165.135 462.628 164.998 462.349 164.723C462.069 164.444 461.93 164.107 461.93 163.714C461.93 163.326 462.069 162.995 462.349 162.72C462.628 162.441 462.962 162.301 463.35 162.301C463.738 162.301 464.072 162.441 464.352 162.72C464.631 162.995 464.771 163.326 464.771 163.714C464.771 163.975 464.704 164.214 464.572 164.432C464.444 164.645 464.273 164.815 464.06 164.943C463.847 165.071 463.611 165.135 463.35 165.135ZM472.226 159.42H488.606V160.8H472.226V159.42ZM479.586 159.82H481.226V166.58H479.586V159.82ZM474.406 156.22H486.786V157.58H474.406V156.22ZM474.406 149.32H486.586V150.66H476.046V156.62H474.406V149.32ZM475.566 152.74H486.146V154.04H475.566V152.74ZM503.785 148.5H505.465V158.76H503.785V148.5ZM493.785 159.8H505.465V166.32H493.785V159.8ZM503.825 161.12H495.405V164.98H503.825V161.12ZM495.345 149.18H496.725V150.94C496.725 154.3 494.645 157.18 491.585 158.32L490.765 157C493.485 156.02 495.345 153.58 495.345 150.94V149.18ZM495.645 149.18H497.005V150.94C497.005 153.5 498.885 155.76 501.565 156.66L500.745 157.96C497.725 156.92 495.645 154.22 495.645 150.94V149.18ZM509.023 157.98H525.363V159.34H509.023V157.98ZM511.143 164.8H523.563V166.16H511.143V164.8ZM511.143 160.92H512.803V165.22H511.143V160.92ZM517.203 149.08C521.063 149.08 523.563 150.44 523.563 152.7C523.563 154.94 521.063 156.3 517.203 156.3C513.323 156.3 510.843 154.94 510.843 152.7C510.843 150.44 513.323 149.08 517.203 149.08ZM517.203 150.44C514.363 150.44 512.543 151.28 512.543 152.7C512.543 154.12 514.363 154.96 517.203 154.96C520.043 154.96 521.863 154.12 521.863 152.7C521.863 151.28 520.043 150.44 517.203 150.44ZM24.98 182.02H41.32V183.38H24.98V182.02ZM26.8 185.1H39.22V190.56H37.56V186.46H26.8V185.1ZM27.14 179.04H39.4V180.34H27.14V179.04ZM27.14 172.96H39.32V174.26H28.78V179.64H27.14V172.96ZM28.3 175.96H38.84V177.22H28.3V175.96ZM56.5184 172.48H58.1784V190.56H56.5184V172.48ZM43.7984 175.4H54.6384V176.74H43.7984V175.4ZM49.2384 178.22C51.8384 178.22 53.7184 179.94 53.7184 182.38C53.7184 184.82 51.8384 186.54 49.2384 186.54C46.6384 186.54 44.7784 184.82 44.7784 182.38C44.7784 179.94 46.6384 178.22 49.2384 178.22ZM49.2384 179.6C47.5784 179.6 46.3584 180.74 46.3584 182.38C46.3584 184 47.5784 185.16 49.2384 185.16C50.8984 185.16 52.1184 184 52.1184 182.38C52.1184 180.74 50.8984 179.6 49.2384 179.6ZM48.3784 172.66H50.0384V176.22H48.3784V172.66ZM79.7898 172.5H81.4498V183.36H79.7898V172.5ZM80.6498 177.22H83.7898V178.62H80.6498V177.22ZM67.7298 180.56H68.5298C69.5898 180.56 70.9698 180.54 72.5498 180.18L72.7098 181.56C71.0298 181.94 69.6898 181.96 68.5298 181.96H67.7298V180.56ZM67.7298 173.92H72.2298V175.28H69.3298V181.24H67.7298V173.92ZM73.3098 180.52H74.1898C75.9698 180.52 77.2098 180.48 78.6898 180.12L78.8498 181.52C77.2898 181.88 76.0498 181.9 74.1898 181.9H73.3098V180.52ZM73.3098 173.92H78.0698V175.28H74.8898V181.22H73.3098V173.92ZM75.5698 183.66C79.2898 183.66 81.5898 184.92 81.5898 187.08C81.5898 189.28 79.2898 190.54 75.5698 190.54C71.8498 190.54 69.5498 189.28 69.5498 187.08C69.5498 184.92 71.8498 183.66 75.5698 183.66ZM75.5698 184.96C72.8698 184.96 71.2098 185.76 71.2098 187.08C71.2098 188.42 72.8698 189.22 75.5698 189.22C78.2698 189.22 79.9298 188.42 79.9298 187.08C79.9298 185.76 78.2698 184.96 75.5698 184.96ZM87.6483 172.76H89.2883V174.44H98.0283V172.76H99.6883V178.72H87.6483V172.76ZM89.2883 175.72V177.44H98.0283V175.72H89.2883ZM85.4683 180.46H101.808V181.8H85.4683V180.46ZM92.8083 178.12H94.4483V180.88H92.8083V178.12ZM87.4483 183.3H99.7283V187.32H89.1283V189.56H87.4883V186.12H98.0883V184.56H87.4483V183.3ZM87.4883 189.08H100.268V190.36H87.4883V189.08ZM113.36 183.66H115.06V190.56H113.36V183.66ZM119.58 183.66H121.28V190.56H119.58V183.66ZM109.16 182.76H125.56V184.14H109.16V182.76ZM117.32 173.2C121.1 173.2 123.64 174.72 123.64 177.14C123.64 179.54 121.1 181.08 117.32 181.08C113.56 181.08 111 179.54 111 177.14C111 174.72 113.56 173.2 117.32 173.2ZM117.32 174.54C114.56 174.54 112.68 175.56 112.68 177.14C112.68 178.72 114.56 179.74 117.32 179.74C120.08 179.74 121.94 178.72 121.94 177.14C121.94 175.56 120.08 174.54 117.32 174.54ZM129.638 180.92H142.058V182.28H129.638V180.92ZM127.578 186.9H143.958V188.3H127.578V186.9ZM134.898 181.5H136.558V187.46H134.898V181.5ZM129.638 173.92H141.878V175.28H131.298V181.52H129.638V173.92ZM153.297 179.5H156.717V180.88H153.297V179.5ZM159.737 172.48H161.337V190.56H159.737V172.48ZM156.157 172.86H157.737V189.66H156.157V172.86ZM150.037 173.98C152.377 173.98 153.897 176.4 153.897 180.28C153.897 184.16 152.377 186.58 150.037 186.58C147.697 186.58 146.197 184.16 146.197 180.28C146.197 176.4 147.697 173.98 150.037 173.98ZM150.037 175.52C148.617 175.52 147.717 177.36 147.717 180.28C147.717 183.2 148.617 185.04 150.037 185.04C151.477 185.04 152.377 183.2 152.377 180.28C152.377 177.36 151.477 175.52 150.037 175.52ZM173.968 183.66H175.608V187.92H173.968V183.66ZM180.028 183.66H181.668V187.92H180.028V183.66ZM170.468 175.14H185.148V176.5H170.468V175.14ZM169.668 187.12H186.048V188.5H169.668V187.12ZM177.808 177.68C181.468 177.68 183.728 178.92 183.728 181.08C183.728 183.2 181.468 184.44 177.808 184.44C174.148 184.44 171.908 183.2 171.908 181.08C171.908 178.92 174.148 177.68 177.808 177.68ZM177.808 178.98C175.168 178.98 173.568 179.76 173.568 181.08C173.568 182.38 175.168 183.14 177.808 183.14C180.448 183.14 182.048 182.38 182.048 181.08C182.048 179.76 180.448 178.98 177.808 178.98ZM177.008 172.76H178.648V175.96H177.008V172.76ZM188.866 174.46H197.046V175.8H188.866V174.46ZM191.686 179.62H193.326V185.74H191.686V179.62ZM196.366 174.46H197.986V175.42C197.986 176.9 197.986 179.26 197.466 182.62L195.826 182.46C196.366 179.2 196.366 176.88 196.366 175.42V174.46ZM200.266 172.48H201.906V190.56H200.266V172.48ZM201.466 180.04H204.806V181.44H201.466V180.04ZM188.066 186.62L187.866 185.22C191.146 185.22 195.506 185.16 199.166 184.7L199.246 185.92C195.506 186.52 191.266 186.6 188.066 186.62ZM211.065 174.32H212.425V175.78C212.425 179.08 210.385 181.9 207.365 183.02L206.505 181.7C209.205 180.74 211.065 178.34 211.065 175.78V174.32ZM211.385 174.32H212.725V175.78C212.725 178.1 214.485 180.36 217.105 181.28L216.265 182.6C213.325 181.52 211.385 178.8 211.385 175.78V174.32ZM216.125 177.18H220.145V178.56H216.125V177.18ZM207.025 173.72H216.685V175.06H207.025V173.72ZM209.265 184.28H221.325V190.56H219.665V185.64H209.265V184.28ZM219.665 172.48H221.325V183.3H219.665V172.48ZM238.003 172.48H239.683V182.18H238.003V172.48ZM228.023 183.08H229.663V185.28H238.043V183.08H239.683V190.32H228.023V183.08ZM229.663 186.6V188.98H238.043V186.6H229.663ZM229.983 173.34C232.723 173.34 234.683 175.04 234.683 177.5C234.683 179.98 232.723 181.68 229.983 181.68C227.243 181.68 225.263 179.98 225.263 177.5C225.263 175.04 227.243 173.34 229.983 173.34ZM229.983 174.72C228.183 174.72 226.883 175.86 226.883 177.5C226.883 179.14 228.183 180.28 229.983 180.28C231.783 180.28 233.083 179.14 233.083 177.5C233.083 175.86 231.783 174.72 229.983 174.72ZM256.402 172.48H258.062V190.56H256.402V172.48ZM244.402 174.24H246.042V185.44H244.402V174.24ZM244.402 184.46H245.882C248.622 184.46 251.482 184.26 254.542 183.62L254.742 185.04C251.602 185.68 248.742 185.9 245.882 185.9H244.402V184.46ZM273.88 172.46H275.56V190.58H273.88V172.46ZM275.16 179.6H278.52V181H275.16V179.6ZM262.42 184.68H263.84C267.18 184.68 269.52 184.56 272.22 184.06L272.4 185.46C269.62 185.98 267.24 186.08 263.84 186.08H262.42V184.68ZM262.42 174.22H270.82V175.58H264.06V185.3H262.42V174.22ZM281.885 189.135C281.497 189.135 281.163 188.998 280.884 188.723C280.605 188.444 280.465 188.107 280.465 187.714C280.465 187.326 280.605 186.995 280.884 186.72C281.163 186.441 281.497 186.301 281.885 186.301C282.274 186.301 282.607 186.441 282.887 186.72C283.166 186.995 283.306 187.326 283.306 187.714C283.306 187.975 283.239 188.214 283.107 188.432C282.979 188.645 282.809 188.815 282.596 188.943C282.382 189.071 282.146 189.135 281.885 189.135Z" fill="black"/>
<g clip-path="url(#clip0_1377_258)">
<path d="M213 53C222.941 53 231 44.9411 231 35C231 25.0589 222.941 17 213 17C203.059 17 195 25.0589 195 35C195 44.9411 203.059 53 213 53Z" fill="#E1E8ED"/>
<path d="M226.802 46.5462C223.792 45.2212 222 41.0482 222 35.0002C222 28.9522 223.792 24.7792 226.802 23.4542C226.356 22.9258 225.879 22.4237 225.374 21.9502C222.406 23.6052 220 27.5782 220 35.0002C220 42.4212 222.406 46.3952 225.374 48.0502C225.876 47.5732 226.358 47.0772 226.802 46.5462ZM206 35.0002C206 27.5792 203.594 23.6052 200.626 21.9512C200.122 22.4243 199.645 22.9262 199.198 23.4542C202.208 24.7802 204 28.9522 204 35.0002C204 41.0482 202.208 45.2202 199.198 46.5462C199.643 47.0772 200.124 47.5732 200.626 48.0502C203.593 46.3952 206 42.4212 206 35.0002Z" fill="#B3BEC4"/>
<path d="M200.092 27.164C199.855 27.164 199.635 27.144 199.441 27.108C199.18 27.0592 198.95 26.9088 198.8 26.69C198.726 26.5816 198.674 26.4597 198.646 26.3312C198.619 26.2027 198.618 26.0701 198.642 25.941C198.666 25.8119 198.716 25.6888 198.787 25.5788C198.859 25.4688 198.952 25.374 199.06 25.2998C199.279 25.15 199.548 25.0932 199.809 25.142C200.239 25.219 202.5 25.148 202.957 22.866C203.009 22.606 203.162 22.3773 203.383 22.2302C203.492 22.1574 203.615 22.1069 203.744 22.0814C203.873 22.056 204.005 22.0562 204.134 22.082C204.263 22.1078 204.385 22.1587 204.494 22.2318C204.603 22.3049 204.697 22.3988 204.77 22.5081C204.843 22.6174 204.893 22.74 204.919 22.8688C204.944 22.9977 204.944 23.1302 204.918 23.259C204.335 26.171 201.779 27.164 200.092 27.164ZM201.792 31.125C201.262 31.125 200.84 30.802 200.814 30.266C200.788 29.715 201.214 29.355 201.766 29.329C201.766 29.329 204.33 29.294 205.635 27.035C205.701 26.9219 205.789 26.823 205.894 26.744C205.998 26.665 206.117 26.6075 206.244 26.5748C206.371 26.5421 206.503 26.5348 206.633 26.5533C206.763 26.5719 206.887 26.616 207 26.683C207.478 26.959 207.642 27.577 207.365 28.056C205.514 31.262 201.808 31.125 201.792 31.125ZM204 36.282C203.266 36.282 202.586 36.147 202.072 35.904C201.832 35.7905 201.647 35.5864 201.558 35.3366C201.469 35.0868 201.483 34.8118 201.596 34.572C201.71 34.3322 201.914 34.1474 202.163 34.0581C202.413 33.9689 202.688 33.9825 202.928 34.096C203.758 34.489 205.854 34.335 206.658 33.084C206.729 32.9735 206.821 32.878 206.929 32.8031C207.037 32.7282 207.158 32.6752 207.287 32.6473C207.415 32.6193 207.548 32.6169 207.677 32.6402C207.806 32.6635 207.93 32.712 208.04 32.783C208.151 32.854 208.246 32.946 208.321 33.0539C208.396 33.1618 208.449 33.2833 208.477 33.4117C208.505 33.54 208.507 33.6726 208.484 33.8018C208.461 33.9311 208.412 34.0545 208.341 34.165C207.377 35.666 205.565 36.282 204 36.282ZM205.161 41.807C203.607 41.807 202.166 41.108 201.235 40.331C201.134 40.247 201.051 40.1439 200.99 40.0276C200.929 39.9113 200.891 39.7842 200.879 39.6534C200.867 39.5226 200.881 39.3907 200.92 39.2653C200.959 39.1399 201.023 39.0234 201.107 38.9225C201.191 38.8216 201.294 38.7382 201.41 38.6771C201.526 38.616 201.653 38.5785 201.784 38.5665C201.915 38.5546 202.047 38.5686 202.172 38.6076C202.298 38.6466 202.414 38.71 202.515 38.794C202.709 38.957 204.467 40.36 206.297 39.579C206.418 39.5277 206.548 39.5008 206.679 39.4997C206.811 39.4986 206.941 39.5234 207.063 39.5726C207.184 39.6219 207.295 39.6947 207.389 39.7868C207.483 39.8789 207.557 39.9886 207.609 40.1095C207.66 40.2304 207.687 40.3603 207.688 40.4917C207.689 40.623 207.664 40.7533 207.615 40.8751C207.566 40.9969 207.493 41.1078 207.401 41.2015C207.309 41.2951 207.199 41.3697 207.078 41.421C206.471 41.6772 205.82 41.8084 205.161 41.807ZM204.75 47H204.722C202.218 47 200.043 45.43 199.188 43.892C198.919 43.41 199.094 42.848 199.576 42.58C200.059 42.311 200.668 42.51 200.936 42.992C201.42 43.863 202.932 45.126 204.777 45.177C205.329 45.193 205.764 45.565 205.749 46.116C205.734 46.658 205.29 47 204.75 47ZM222.188 47.188C222.04 47.1881 221.894 47.1553 221.76 47.092C221.626 47.0287 221.508 46.9364 221.414 46.8219C221.32 46.7073 221.253 46.5734 221.217 46.4297C221.181 46.286 221.178 46.1362 221.207 45.991C221.871 42.669 225.101 41.841 226.685 42.142C226.946 42.191 227.176 42.3415 227.326 42.5603C227.475 42.7791 227.532 43.0484 227.483 43.309C227.46 43.4384 227.411 43.5618 227.339 43.6721C227.267 43.7824 227.175 43.8774 227.066 43.9517C226.958 44.0259 226.835 44.0778 226.707 44.1045C226.578 44.1312 226.445 44.132 226.316 44.107C225.891 44.027 223.626 44.1 223.169 46.383C223.124 46.61 223.002 46.8143 222.823 46.961C222.644 47.1078 222.419 47.188 222.188 47.188ZM219.624 42.688C219.449 42.6881 219.276 42.642 219.124 42.5542C218.972 42.4664 218.846 42.3401 218.758 42.1881C218.67 42.036 218.624 41.8634 218.624 41.6879C218.625 41.5123 218.671 41.3399 218.759 41.188C220.611 37.982 222.743 37.884 224.153 37.819L224.264 37.814C224.529 37.8013 224.788 37.8943 224.985 38.0727C225.181 38.251 225.298 38.5 225.311 38.765C225.324 39.03 225.231 39.2891 225.052 39.4855C224.874 39.6818 224.625 39.7993 224.36 39.812L224.245 39.817C223.041 39.873 221.796 39.929 220.491 42.188C220.403 42.3402 220.277 42.4665 220.125 42.5543C219.972 42.642 219.8 42.6882 219.624 42.688ZM218.624 36.625C218.445 36.625 218.268 36.5767 218.114 36.4851C217.96 36.3935 217.833 36.262 217.747 36.1044C217.661 35.9468 217.619 35.769 217.626 35.5896C217.632 35.4102 217.687 35.2359 217.784 35.085C219.199 32.882 222.44 32.584 224.052 33.347C224.29 33.4612 224.474 33.6652 224.562 33.9143C224.651 34.1634 224.637 34.4373 224.524 34.6763C224.411 34.9152 224.208 35.0997 223.959 35.1894C223.711 35.2791 223.437 35.2667 223.197 35.155C222.368 34.762 220.271 34.916 219.465 36.167C219.374 36.3076 219.25 36.4232 219.103 36.5032C218.956 36.5832 218.791 36.6251 218.624 36.625ZM224.249 30.688C224.015 30.6879 223.789 30.6058 223.609 30.456C223.415 30.294 221.657 28.897 219.828 29.671C219.586 29.7618 219.319 29.7557 219.082 29.654C218.845 29.5523 218.656 29.3629 218.555 29.1253C218.454 28.8877 218.449 28.6203 218.54 28.3789C218.632 28.1376 218.813 27.9409 219.046 27.83C221.265 26.888 223.581 27.829 224.89 28.92C225.048 29.0516 225.161 29.2287 225.215 29.4271C225.269 29.6255 225.26 29.8356 225.19 30.0288C225.12 30.2221 224.992 30.389 224.823 30.507C224.655 30.6249 224.455 30.6881 224.249 30.688ZM226.063 26.75C225.885 26.7502 225.709 26.7026 225.556 26.6122C225.402 26.5219 225.275 26.392 225.188 26.236C224.704 25.364 223.192 24.113 221.347 24.062C220.794 24.047 220.36 23.556 220.374 23.003C220.391 22.461 220.835 22 221.374 22H221.402C223.907 22 226.082 23.694 226.936 25.232C227.065 25.4664 227.097 25.7423 227.024 25.9999C226.951 26.2575 226.78 26.476 226.547 26.608C226.401 26.6959 226.234 26.7448 226.063 26.75Z" fill="#DD2E44"/>
</g>
<defs>
<clipPath id="clip0_1377_258">
<rect width="36" height="36" fill="white" transform="translate(195 17)"/>
</clipPath>
</defs>
</svg>
