<svg width="570" height="220" viewBox="0 0 570 220" fill="none" xmlns="http://www.w3.org/2000/svg">
<rect x="0.5" y="0.5" width="569" height="169" rx="17.5" fill="white" stroke="#8A9A6B"/>
<rect x="0.5" y="0.5" width="569" height="219" rx="17.5" fill="white" stroke="#8A9A6B"/>
<path d="M40.7406 22.995H44.2414V41.2097H40.7406V22.995ZM43.2412 30.4177H47.479V33.2868H43.2412V30.4177ZM25.0529 25.5219H39.3982V28.2594H25.0529V25.5219ZM32.2387 29.128C35.7395 29.128 38.2138 31.0495 38.2138 33.8396C38.2138 36.6297 35.7395 38.5248 32.2387 38.5248C28.7116 38.5248 26.2373 36.6297 26.2373 33.8396C26.2373 31.0495 28.7116 29.128 32.2387 29.128ZM32.2387 31.7865C30.6857 31.7865 29.6065 32.5235 29.6065 33.8396C29.6065 35.1557 30.6857 35.8663 32.2387 35.8663C33.7917 35.8663 34.8709 35.1557 34.8709 33.8396C34.8709 32.5235 33.7917 31.7865 32.2387 31.7865ZM30.4752 22.9424H33.9759V26.8643H30.4752V22.9424ZM28.5273 44.1314H45.1101V46.9215H28.5273V44.1314ZM28.5273 39.8409H32.0281V45.3422H28.5273V39.8409ZM72.5365 22.9687H76.0636V36.0769H72.5365V22.9687ZM59.8494 37.1298H63.2976V39.3935H72.5892V37.1298H76.0636V47.0794H59.8494V37.1298ZM63.2976 42.0783V44.2893H72.5892V42.0783H63.2976ZM62.7975 23.9689C66.5878 23.9689 69.4042 26.3642 69.4042 29.7334C69.4042 33.1026 66.5878 35.4978 62.7975 35.4978C59.0071 35.4978 56.1644 33.1026 56.1644 29.7334C56.1644 26.3642 59.0071 23.9689 62.7975 23.9689ZM62.7975 26.8643C60.9286 26.8643 59.5862 27.9435 59.5862 29.7334C59.5862 31.5496 60.9286 32.6024 62.7975 32.6024C64.64 32.6024 65.9824 31.5496 65.9824 29.7334C65.9824 27.9435 64.64 26.8643 62.7975 26.8643ZM93.0667 24.6533C96.778 24.6533 99.4628 28.0225 99.4628 33.3395C99.4628 38.7091 96.778 42.0783 93.0667 42.0783C89.3553 42.0783 86.6705 38.7091 86.6705 33.3395C86.6705 28.0225 89.3553 24.6533 93.0667 24.6533ZM93.0667 27.8382C91.2505 27.8382 90.0397 29.7597 90.0397 33.3395C90.0397 36.9719 91.2505 38.9197 93.0667 38.9197C94.8829 38.9197 96.12 36.9719 96.12 33.3395C96.12 29.7597 94.8829 27.8382 93.0667 27.8382ZM104.701 28.6279H108.991V31.5233H104.701V28.6279ZM104.701 35.7874H108.991V38.6565H104.701V35.7874ZM102.121 22.9687H105.648V47.3426H102.121V22.9687ZM113.28 24.3901H128.573V27.1538H113.28V24.3901ZM110.779 34.7608H132.81V37.5773H110.779V34.7608ZM119.913 36.735H123.44V47.369H119.913V36.735ZM126.783 24.3901H130.231V26.5484C130.231 29.1806 130.231 32.1287 129.283 36.4454L125.835 36.0506C126.783 31.9707 126.783 29.0753 126.783 26.5484V24.3901ZM146.839 24.2848H149.708V26.4432C149.708 31.2864 147.602 35.5505 142.97 37.1561L141.101 34.3923C145.181 33.0236 146.839 29.7597 146.839 26.4432V24.2848ZM147.55 24.2848H150.393V26.7853C150.393 29.7071 152.025 32.5498 155.841 33.7343L154.025 36.4454C149.629 34.9714 147.55 31.1811 147.55 26.7853V24.2848ZM157.184 22.9687H160.684V37.3667H157.184V22.9687ZM159.71 28.6015H163.922V31.4969H159.71V28.6015ZM152.735 37.9194C157.789 37.9194 160.974 39.683 160.974 42.631C160.974 45.6054 157.789 47.3426 152.735 47.3426C147.655 47.3426 144.47 45.6054 144.47 42.631C144.47 39.683 147.655 37.9194 152.735 37.9194ZM152.735 40.6306C149.629 40.6306 147.945 41.2886 147.945 42.631C147.945 43.9998 149.629 44.6315 152.735 44.6315C155.841 44.6315 157.499 43.9998 157.499 42.631C157.499 41.2886 155.841 40.6306 152.735 40.6306ZM171.422 24.0742H174.317V26.4168C174.317 31.0231 172.08 35.2083 167.315 36.735L165.605 33.9712C169.711 32.6551 171.422 29.4965 171.422 26.4168V24.0742ZM172.132 24.0742H175.001V26.4168C175.001 29.4175 176.686 32.3656 180.661 33.5764L178.95 36.3138C174.291 34.8398 172.132 30.9442 172.132 26.4168V24.0742ZM169.342 38.5775H185.978V47.3426H182.45V41.3676H169.342V38.5775ZM182.45 22.9687H185.978V37.4983H182.45V22.9687Z" fill="black"/>
<path d="M31.78 76.8H34.12V77.66C34.12 81.22 31.32 84.24 26.46 84.96L25.42 82.82C29.68 82.26 31.78 79.84 31.78 77.66V76.8ZM32.28 76.8H34.6V77.66C34.6 79.82 36.72 82.26 40.96 82.82L39.94 84.96C35.08 84.24 32.28 81.22 32.28 77.66V76.8ZM31.8 88H34.44V94.78H31.8V88ZM24.82 86.32H41.56V88.48H24.82V86.32ZM55.8984 76.24H58.5784V94.82H55.8984V76.24ZM44.1184 77.72H46.7584V82.22H50.5784V77.72H53.2184V90.5H44.1184V77.72ZM46.7584 84.28V88.36H50.5784V84.28H46.7584ZM70.7458 77.68H72.9058V80.38C72.9058 85.14 71.2658 89.44 67.5858 91.14L66.0058 88.94C69.2258 87.54 70.7458 83.98 70.7458 80.38V77.68ZM71.2658 77.68H73.4258V80.38C73.4258 83.8 74.8858 87.2 78.0458 88.56L76.4858 90.7C72.9058 89.06 71.2658 84.94 71.2658 80.38V77.68ZM78.9258 76.24H81.6058V94.82H78.9258V76.24ZM84.6442 90.46H101.404V92.64H84.6442V90.46ZM85.9242 77.86H100.024V79.98H85.9242V77.86ZM86.0042 85.52H99.9642V87.66H86.0042V85.52ZM88.4442 79.82H91.1042V85.72H88.4442V79.82ZM94.8642 79.82H97.5042V85.72H94.8642V79.82ZM105.003 85.8H118.023V87.88H105.003V85.8ZM103.043 90.5H119.803V92.66H103.043V90.5ZM105.003 77.6H117.863V79.74H107.703V86.38H105.003V77.6ZM106.883 81.68H117.443V83.74H106.883V81.68ZM122.496 85.7273C122.496 83.9659 122.73 82.3442 123.199 80.8622C123.673 79.3802 124.395 78.0071 125.365 76.7429H128.256C127.887 77.2116 127.543 77.7846 127.226 78.4616C126.909 79.134 126.632 79.8726 126.395 80.6776C126.158 81.4825 125.974 82.3158 125.841 83.1776C125.709 84.0346 125.642 84.8845 125.642 85.7273C125.642 86.8494 125.756 87.9834 125.983 89.1293C126.215 90.2704 126.528 91.331 126.921 92.3111C127.319 93.2912 127.764 94.0938 128.256 94.7188H125.365C124.395 93.4545 123.673 92.0814 123.199 90.5994C122.73 89.1174 122.496 87.4934 122.496 85.7273ZM135.225 93H130.069V78.4545H135.268C136.731 78.4545 137.99 78.7457 139.046 79.3281C140.102 79.9058 140.914 80.7367 141.482 81.821C142.055 82.9053 142.342 84.2027 142.342 85.7131C142.342 87.2282 142.055 88.5303 141.482 89.6193C140.914 90.7083 140.097 91.544 139.032 92.1264C137.971 92.7088 136.702 93 135.225 93ZM133.144 90.3651H135.097C136.006 90.3651 136.771 90.2041 137.391 89.8821C138.016 89.5554 138.485 89.0511 138.798 88.3693C139.115 87.6828 139.273 86.7973 139.273 85.7131C139.273 84.6383 139.115 83.7599 138.798 83.0781C138.485 82.3963 138.019 81.8944 137.398 81.5724C136.778 81.2505 136.013 81.0895 135.104 81.0895H133.144V90.3651ZM149.534 93.2131C148.412 93.2131 147.446 92.9858 146.637 92.5312C145.832 92.072 145.212 91.4233 144.776 90.5852C144.34 89.7424 144.123 88.7457 144.123 87.5952C144.123 86.473 144.34 85.4882 144.776 84.6406C145.212 83.7931 145.825 83.1326 146.615 82.6591C147.411 82.1856 148.344 81.9489 149.414 81.9489C150.133 81.9489 150.803 82.0649 151.424 82.2969C152.049 82.5241 152.593 82.8674 153.057 83.3267C153.526 83.786 153.891 84.3636 154.151 85.0597C154.411 85.7509 154.542 86.5606 154.542 87.4886V88.3196H145.33V86.4446H151.694C151.694 86.009 151.599 85.6231 151.409 85.2869C151.22 84.9508 150.957 84.688 150.621 84.4986C150.29 84.3045 149.904 84.2074 149.463 84.2074C149.004 84.2074 148.597 84.3139 148.242 84.527C147.891 84.7353 147.617 85.017 147.418 85.3722C147.219 85.7225 147.117 86.1132 147.113 86.544V88.3267C147.113 88.8665 147.212 89.3329 147.411 89.7259C147.614 90.1188 147.901 90.4219 148.27 90.6349C148.64 90.848 149.078 90.9545 149.584 90.9545C149.92 90.9545 150.228 90.9072 150.507 90.8125C150.787 90.7178 151.026 90.5758 151.225 90.3864C151.424 90.197 151.575 89.965 151.679 89.6903L154.478 89.875C154.336 90.5473 154.044 91.1345 153.604 91.6364C153.168 92.1335 152.605 92.5218 151.914 92.8011C151.227 93.0758 150.434 93.2131 149.534 93.2131ZM162.382 82.0909V84.3636H155.65V82.0909H162.382ZM157.191 93V81.3026C157.191 80.5118 157.345 79.8561 157.652 79.3352C157.965 78.8144 158.391 78.4238 158.931 78.1634C159.471 77.9029 160.084 77.7727 160.77 77.7727C161.234 77.7727 161.658 77.8082 162.042 77.8793C162.43 77.9503 162.719 78.0142 162.908 78.071L162.368 80.3438C162.25 80.3059 162.103 80.2704 161.928 80.2372C161.757 80.2041 161.582 80.1875 161.402 80.1875C160.957 80.1875 160.647 80.2917 160.472 80.5C160.297 80.7036 160.209 80.9901 160.209 81.3594V93H157.191ZM168.812 93.2131C167.69 93.2131 166.724 92.9858 165.914 92.5312C165.109 92.072 164.489 91.4233 164.053 90.5852C163.618 89.7424 163.4 88.7457 163.4 87.5952C163.4 86.473 163.618 85.4882 164.053 84.6406C164.489 83.7931 165.102 83.1326 165.893 82.6591C166.688 82.1856 167.621 81.9489 168.691 81.9489C169.411 81.9489 170.081 82.0649 170.701 82.2969C171.326 82.5241 171.871 82.8674 172.335 83.3267C172.803 83.786 173.168 84.3636 173.428 85.0597C173.689 85.7509 173.819 86.5606 173.819 87.4886V88.3196H164.607V86.4446H170.971C170.971 86.009 170.876 85.6231 170.687 85.2869C170.497 84.9508 170.235 84.688 169.898 84.4986C169.567 84.3045 169.181 84.2074 168.741 84.2074C168.281 84.2074 167.874 84.3139 167.519 84.527C167.169 84.7353 166.894 85.017 166.695 85.3722C166.496 85.7225 166.395 86.1132 166.39 86.544V88.3267C166.39 88.8665 166.489 89.3329 166.688 89.7259C166.892 90.1188 167.178 90.4219 167.548 90.6349C167.917 90.848 168.355 90.9545 168.862 90.9545C169.198 90.9545 169.505 90.9072 169.785 90.8125C170.064 90.7178 170.303 90.5758 170.502 90.3864C170.701 90.197 170.853 89.965 170.957 89.6903L173.755 89.875C173.613 90.5473 173.322 91.1345 172.881 91.6364C172.446 92.1335 171.882 92.5218 171.191 92.8011C170.504 93.0758 169.711 93.2131 168.812 93.2131ZM178.819 86.6932V93H175.793V82.0909H178.677V84.0156H178.805C179.046 83.3812 179.451 82.8793 180.019 82.5099C180.587 82.1359 181.276 81.9489 182.086 81.9489C182.844 81.9489 183.504 82.1146 184.067 82.446C184.631 82.7775 185.069 83.2509 185.381 83.8665C185.694 84.4773 185.85 85.2064 185.85 86.054V93H182.825V86.5938C182.829 85.9261 182.659 85.4053 182.313 85.0312C181.968 84.6525 181.492 84.4631 180.886 84.4631C180.478 84.4631 180.119 84.5507 179.806 84.7259C179.498 84.901 179.257 85.1567 179.082 85.4929C178.911 85.8243 178.824 86.2244 178.819 86.6932ZM197.311 85.2017L194.542 85.3722C194.494 85.1354 194.392 84.9223 194.236 84.733C194.08 84.5388 193.874 84.3849 193.618 84.2713C193.367 84.1529 193.067 84.0938 192.716 84.0938C192.248 84.0938 191.852 84.1932 191.53 84.392C191.208 84.5862 191.047 84.8466 191.047 85.1733C191.047 85.4337 191.151 85.6539 191.36 85.8338C191.568 86.0137 191.926 86.1581 192.432 86.267L194.407 86.6648C195.467 86.8826 196.258 87.233 196.779 87.7159C197.3 88.1989 197.56 88.8333 197.56 89.6193C197.56 90.3343 197.349 90.9616 196.928 91.5014C196.511 92.0412 195.938 92.4626 195.209 92.7656C194.485 93.0639 193.649 93.2131 192.702 93.2131C191.258 93.2131 190.107 92.9124 189.25 92.3111C188.398 91.705 187.899 90.8812 187.752 89.8395L190.728 89.6832C190.818 90.1236 191.035 90.4598 191.381 90.6918C191.727 90.919 192.169 91.0327 192.709 91.0327C193.239 91.0327 193.666 90.9309 193.988 90.7273C194.314 90.5189 194.48 90.2514 194.485 89.9247C194.48 89.6501 194.364 89.4252 194.137 89.25C193.909 89.0701 193.559 88.9328 193.086 88.8381L191.196 88.4616C190.131 88.2486 189.338 87.8793 188.817 87.3537C188.301 86.8281 188.043 86.1581 188.043 85.3438C188.043 84.643 188.232 84.0393 188.611 83.5327C188.995 83.026 189.532 82.6354 190.223 82.3608C190.919 82.0862 191.734 81.9489 192.667 81.9489C194.044 81.9489 195.129 82.2401 195.919 82.8224C196.715 83.4048 197.179 84.1979 197.311 85.2017ZM199.465 93V82.0909H202.491V93H199.465ZM200.985 80.6847C200.535 80.6847 200.149 80.5355 199.827 80.2372C199.51 79.9342 199.352 79.572 199.352 79.1506C199.352 78.7339 199.51 78.3764 199.827 78.0781C200.149 77.7751 200.535 77.6236 200.985 77.6236C201.435 77.6236 201.818 77.7751 202.136 78.0781C202.458 78.3764 202.619 78.7339 202.619 79.1506C202.619 79.572 202.458 79.9342 202.136 80.2372C201.818 80.5355 201.435 80.6847 200.985 80.6847ZM215.085 82.0909L211.271 93H207.862L204.048 82.0909H207.244L209.51 89.8963H209.623L211.882 82.0909H215.085ZM221.253 93.2131C220.131 93.2131 219.165 92.9858 218.355 92.5312C217.551 92.072 216.93 91.4233 216.495 90.5852C216.059 89.7424 215.841 88.7457 215.841 87.5952C215.841 86.473 216.059 85.4882 216.495 84.6406C216.93 83.7931 217.543 83.1326 218.334 82.6591C219.13 82.1856 220.062 81.9489 221.132 81.9489C221.852 81.9489 222.522 82.0649 223.142 82.2969C223.767 82.5241 224.312 82.8674 224.776 83.3267C225.245 83.786 225.609 84.3636 225.87 85.0597C226.13 85.7509 226.26 86.5606 226.26 87.4886V88.3196H217.049V86.4446H223.412C223.412 86.009 223.318 85.6231 223.128 85.2869C222.939 84.9508 222.676 84.688 222.34 84.4986C222.008 84.3045 221.623 84.2074 221.182 84.2074C220.723 84.2074 220.316 84.3139 219.961 84.527C219.61 84.7353 219.336 85.017 219.137 85.3722C218.938 85.7225 218.836 86.1132 218.831 86.544V88.3267C218.831 88.8665 218.931 89.3329 219.13 89.7259C219.333 90.1188 219.62 90.4219 219.989 90.6349C220.358 90.848 220.796 90.9545 221.303 90.9545C221.639 90.9545 221.947 90.9072 222.226 90.8125C222.506 90.7178 222.745 90.5758 222.944 90.3864C223.142 90.197 223.294 89.965 223.398 89.6903L226.196 89.875C226.054 90.5473 225.763 91.1345 225.323 91.6364C224.887 92.1335 224.324 92.5218 223.632 92.8011C222.946 93.0758 222.153 93.2131 221.253 93.2131ZM240.811 82.6378C240.754 82.0649 240.51 81.6198 240.08 81.3026C239.649 80.9853 239.064 80.8267 238.325 80.8267C237.823 80.8267 237.4 80.8977 237.054 81.0398C236.708 81.1771 236.443 81.3688 236.259 81.6151C236.079 81.8613 235.989 82.1406 235.989 82.4531C235.979 82.7135 236.034 82.9408 236.152 83.1349C236.275 83.3291 236.443 83.4972 236.656 83.6392C236.869 83.7765 237.116 83.8973 237.395 84.0014C237.674 84.1009 237.973 84.1861 238.29 84.2571L239.597 84.5696C240.231 84.7116 240.813 84.901 241.344 85.1378C241.874 85.3745 242.333 85.6657 242.722 86.0114C243.11 86.357 243.411 86.7642 243.624 87.233C243.841 87.7017 243.953 88.2391 243.957 88.8452C243.953 89.7353 243.725 90.5071 243.276 91.1605C242.83 91.8092 242.187 92.3134 241.344 92.6733C240.506 93.0284 239.495 93.206 238.311 93.206C237.137 93.206 236.114 93.026 235.243 92.6662C234.376 92.3063 233.699 91.7737 233.212 91.0682C232.729 90.358 232.475 89.4796 232.452 88.4332H235.428C235.461 88.9209 235.6 89.3281 235.847 89.6548C236.098 89.9768 236.431 90.2206 236.848 90.3864C237.269 90.5473 237.745 90.6278 238.276 90.6278C238.796 90.6278 239.249 90.5521 239.632 90.4006C240.02 90.2491 240.321 90.0384 240.534 89.7685C240.747 89.4986 240.854 89.1884 240.854 88.8381C240.854 88.5114 240.757 88.2367 240.562 88.0142C240.373 87.7917 240.094 87.6023 239.724 87.446C239.36 87.2898 238.912 87.1477 238.382 87.0199L236.798 86.6222C235.572 86.3239 234.604 85.8575 233.893 85.223C233.183 84.5885 232.83 83.7339 232.835 82.6591C232.83 81.7784 233.065 81.009 233.538 80.3509C234.017 79.6927 234.672 79.179 235.506 78.8097C236.339 78.4403 237.286 78.2557 238.347 78.2557C239.426 78.2557 240.368 78.4403 241.173 78.8097C241.983 79.179 242.613 79.6927 243.062 80.3509C243.512 81.009 243.744 81.7713 243.759 82.6378H240.811ZM248.995 86.6932V93H245.969V78.4545H248.909V84.0156H249.037C249.283 83.3717 249.681 82.8674 250.23 82.5028C250.78 82.1335 251.469 81.9489 252.297 81.9489C253.055 81.9489 253.715 82.1146 254.279 82.446C254.847 82.7727 255.287 83.2438 255.6 83.8594C255.917 84.4702 256.073 85.2017 256.069 86.054V93H253.043V86.5938C253.048 85.9214 252.877 85.3982 252.532 85.0241C252.191 84.6501 251.712 84.4631 251.097 84.4631C250.685 84.4631 250.32 84.5507 250.003 84.7259C249.691 84.901 249.444 85.1567 249.265 85.4929C249.089 85.8243 248.999 86.2244 248.995 86.6932ZM258.45 93V82.0909H261.475V93H258.45ZM259.969 80.6847C259.52 80.6847 259.134 80.5355 258.812 80.2372C258.495 79.9342 258.336 79.572 258.336 79.1506C258.336 78.7339 258.495 78.3764 258.812 78.0781C259.134 77.7751 259.52 77.6236 259.969 77.6236C260.419 77.6236 260.803 77.7751 261.12 78.0781C261.442 78.3764 261.603 78.7339 261.603 79.1506C261.603 79.572 261.442 79.9342 261.12 80.2372C260.803 80.5355 260.419 80.6847 259.969 80.6847ZM269.765 82.0909V84.3636H263.032V82.0909H269.765ZM264.574 93V81.3026C264.574 80.5118 264.727 79.8561 265.035 79.3352C265.348 78.8144 265.774 78.4238 266.314 78.1634C266.853 77.9029 267.467 77.7727 268.153 77.7727C268.617 77.7727 269.041 77.8082 269.424 77.8793C269.813 77.9503 270.101 78.0142 270.291 78.071L269.751 80.3438C269.633 80.3059 269.486 80.2704 269.311 80.2372C269.14 80.2041 268.965 80.1875 268.785 80.1875C268.34 80.1875 268.03 80.2917 267.855 80.5C267.68 80.7036 267.592 80.9901 267.592 81.3594V93H264.574ZM277.416 82.0909V84.3636H270.847V82.0909H277.416ZM272.338 79.4773H275.364V89.6477C275.364 89.9271 275.406 90.1449 275.491 90.3011C275.577 90.4527 275.695 90.5592 275.847 90.6207C276.003 90.6823 276.183 90.7131 276.386 90.7131C276.528 90.7131 276.67 90.7012 276.812 90.6776C276.955 90.6491 277.063 90.6278 277.139 90.6136L277.615 92.8651C277.464 92.9124 277.25 92.9669 276.976 93.0284C276.701 93.0947 276.367 93.1349 275.974 93.1491C275.245 93.1776 274.606 93.0805 274.057 92.858C273.512 92.6354 273.089 92.2898 272.786 91.821C272.482 91.3523 272.333 90.7604 272.338 90.0455V79.4773ZM284.487 87.169C284.487 88.9351 284.25 90.5592 283.776 92.0412C283.308 93.5232 282.588 94.8963 281.617 96.1605H278.727C279.096 95.6918 279.439 95.1188 279.756 94.4418C280.074 93.7647 280.351 93.026 280.587 92.2259C280.824 91.4209 281.009 90.5876 281.141 89.7259C281.274 88.8641 281.34 88.0118 281.34 87.169C281.34 86.0469 281.224 84.9152 280.992 83.7741C280.765 82.6283 280.452 81.5677 280.055 80.5923C279.662 79.6122 279.219 78.8097 278.727 78.1847H281.617C282.588 79.4489 283.308 80.822 283.776 82.304C284.25 83.786 284.487 85.4077 284.487 87.169ZM289.563 81.9H301.843V83.26H289.563V81.9ZM287.343 85.68H303.743V87.04H287.343V85.68ZM289.563 77.14H291.203V82.58H289.563V77.14ZM289.443 92.76H301.943V94.12H289.443V92.76ZM289.443 88.84H291.083V93.12H289.443V88.84ZM315.435 77.42H316.815V79.26C316.815 82.74 314.855 85.62 311.835 86.8L310.955 85.46C313.675 84.46 315.435 82.02 315.435 79.26V77.42ZM315.735 77.42H317.095V79.38C317.095 81.82 318.895 84.08 321.495 84.98L320.615 86.28C317.715 85.2 315.735 82.52 315.735 79.38V77.42ZM323.415 76.48H325.075V87.44H323.415V76.48ZM324.615 81.14H327.755V82.54H324.615V81.14ZM319.315 87.94C323.015 87.94 325.255 89.16 325.255 91.24C325.255 93.32 323.015 94.52 319.315 94.52C315.615 94.52 313.375 93.32 313.375 91.24C313.375 89.16 315.615 87.94 319.315 87.94ZM319.315 89.26C316.635 89.26 314.995 89.98 314.995 91.24C314.995 92.5 316.635 93.22 319.315 93.22C321.995 93.22 323.635 92.5 323.635 91.24C323.635 89.98 321.995 89.26 319.315 89.26ZM343.193 76.48H344.793V94.56H343.193V76.48ZM340.133 83.72H343.613V85.1H340.133V83.72ZM339.093 76.88H340.653V93.64H339.093V76.88ZM330.093 88.72H331.273C333.913 88.72 335.713 88.62 337.813 88.18L337.973 89.56C335.813 90.02 333.993 90.1 331.273 90.1H330.093V88.72ZM330.093 78.68H336.813V80.04H331.733V89.34H330.093V78.68ZM353.905 88.84H355.325C358.665 88.84 360.965 88.76 363.685 88.28L363.865 89.64C361.065 90.12 358.705 90.22 355.325 90.22H353.905V88.84ZM353.905 78.12H362.325V79.5H355.565V89.32H353.905V78.12ZM355.145 83.18H361.925V84.52H355.145V83.18ZM365.365 76.48H367.045V94.56H365.365V76.48ZM366.645 83.74H370.005V85.14H366.645V83.74ZM376.003 79.06H377.323V82C377.323 85.76 375.023 89.64 372.203 91.08L371.243 89.76C373.823 88.5 376.003 85.06 376.003 82V79.06ZM376.303 79.06H377.623V82C377.623 84.86 379.663 88.08 382.283 89.32L381.343 90.64C378.483 89.22 376.303 85.58 376.303 82V79.06ZM371.883 78.32H381.623V79.72H371.883V78.32ZM383.763 76.48H385.443V94.56H383.763V76.48ZM385.043 83.78H388.403V85.18H385.043V83.78ZM395.801 77.78C398.621 77.78 400.641 79.52 400.641 82.04C400.641 84.58 398.621 86.32 395.801 86.32C392.981 86.32 390.941 84.58 390.941 82.04C390.941 79.52 392.981 77.78 395.801 77.78ZM395.801 79.22C393.921 79.22 392.561 80.36 392.561 82.04C392.561 83.72 393.921 84.88 395.801 84.88C397.661 84.88 399.021 83.72 399.021 82.04C399.021 80.36 397.661 79.22 395.801 79.22ZM403.001 76.46H404.661V94.58H403.001V76.46ZM390.261 90.62L390.021 89.24C393.321 89.24 397.881 89.22 401.821 88.6L401.961 89.82C397.901 90.6 393.481 90.62 390.261 90.62ZM414.393 88.84H415.813C419.153 88.84 421.453 88.76 424.173 88.28L424.353 89.64C421.553 90.12 419.193 90.22 415.813 90.22H414.393V88.84ZM414.393 78.12H422.813V79.5H416.053V89.32H414.393V78.12ZM415.633 83.18H422.413V84.52H415.633V83.18ZM425.853 76.48H427.533V94.56H425.853V76.48ZM427.133 83.74H430.493V85.14H427.133V83.74ZM434.071 77.66H445.371V79H434.071V77.66ZM432.031 85.42H448.371V86.78H432.031V85.42ZM439.331 86.32H440.991V94.58H439.331V86.32ZM444.591 77.66H446.211V79.22C446.211 81.1 446.211 83.22 445.531 86.28L443.891 86.06C444.591 83.14 444.591 81.04 444.591 79.22V77.66ZM463.983 87.82C467.663 87.82 469.923 89.06 469.923 91.18C469.923 93.3 467.663 94.54 463.983 94.54C460.303 94.54 458.043 93.3 458.043 91.18C458.043 89.06 460.303 87.82 463.983 87.82ZM463.983 89.16C461.303 89.16 459.663 89.9 459.663 91.18C459.663 92.48 461.303 93.22 463.983 93.22C466.663 93.22 468.303 92.48 468.303 91.18C468.303 89.9 466.663 89.16 463.983 89.16ZM468.083 76.48H469.743V87.34H468.083V76.48ZM469.283 81.02H472.423V82.42H469.283V81.02ZM456.463 77.62H458.103V80.32H463.203V77.62H464.823V85.96H456.463V77.62ZM458.103 81.64V84.62H463.203V81.64H458.103ZM487.641 79.6H490.781V80.98H487.641V79.6ZM487.641 83.46H490.781V84.84H487.641V83.46ZM486.481 76.48H488.141V88.12H486.481V76.48ZM482.461 88.28C486.121 88.28 488.341 89.42 488.341 91.4C488.341 93.38 486.121 94.52 482.461 94.52C478.821 94.52 476.581 93.38 476.581 91.4C476.581 89.42 478.821 88.28 482.461 88.28ZM482.461 89.56C479.821 89.56 478.221 90.24 478.221 91.4C478.221 92.58 479.821 93.24 482.461 93.24C485.121 93.24 486.721 92.58 486.721 91.4C486.721 90.24 485.121 89.56 482.461 89.56ZM474.161 78.52H484.841V79.84H474.161V78.52ZM479.501 80.76C482.081 80.76 483.821 82 483.821 83.94C483.821 85.9 482.081 87.14 479.501 87.14C476.901 87.14 475.161 85.9 475.161 83.94C475.161 82 476.901 80.76 479.501 80.76ZM479.501 82.02C477.841 82.02 476.741 82.78 476.741 83.94C476.741 85.12 477.841 85.88 479.501 85.88C481.121 85.88 482.241 85.12 482.241 83.94C482.241 82.78 481.121 82.02 479.501 82.02ZM478.661 76.32H480.321V79.26H478.661V76.32ZM500.68 76.78C504.66 76.78 507.04 77.9 507.04 79.92C507.04 81.94 504.66 83.06 500.68 83.06C496.68 83.06 494.32 81.94 494.32 79.92C494.32 77.9 496.68 76.78 500.68 76.78ZM500.68 78.04C497.72 78.04 496.02 78.72 496.02 79.92C496.02 81.12 497.72 81.8 500.68 81.8C503.62 81.8 505.32 81.12 505.32 79.92C505.32 78.72 503.62 78.04 500.68 78.04ZM492.5 84.26H508.84V85.6H492.5V84.26ZM494.48 87.14H506.76V91.22H496.16V93.42H494.52V90.02H505.12V88.42H494.48V87.14ZM494.52 93.06H507.3V94.36H494.52V93.06ZM516.191 86.02H532.571V87.38H516.191V86.02ZM523.671 86.7H525.331V90.86H523.671V86.7ZM518.271 92.8H530.751V94.16H518.271V92.8ZM518.271 89.26H519.911V93.32H518.271V89.26ZM518.371 77.04H520.011V79.34H528.751V77.04H530.411V84.28H518.371V77.04ZM520.011 80.64V82.94H528.751V80.64H520.011ZM34.28 104.26H38.56V105.64H34.28V104.26ZM29.5 101.4H30.86V103.28C30.86 106.76 28.92 109.62 25.88 110.78L25.02 109.46C27.74 108.46 29.5 106.04 29.5 103.28V101.4ZM29.8 101.4H31.14V103.36C31.14 105.84 32.94 108.16 35.54 109.08L34.66 110.38C31.76 109.28 29.8 106.54 29.8 103.36V101.4ZM27.8 112.16H39.86V118.56H38.2V113.5H27.8V112.16ZM38.2 100.48H39.86V111.16H38.2V100.48ZM43.3584 103.56H52.3184V104.92H43.3584V103.56ZM47.8384 106.12C50.0984 106.12 51.7384 107.82 51.7384 110.26C51.7384 112.68 50.0984 114.38 47.8384 114.38C45.5984 114.38 43.9584 112.68 43.9584 110.26C43.9584 107.82 45.5984 106.12 47.8384 106.12ZM47.8384 107.54C46.4584 107.54 45.4584 108.66 45.4584 110.26C45.4584 111.86 46.4584 112.98 47.8384 112.98C49.2384 112.98 50.2584 111.86 50.2584 110.26C50.2584 108.66 49.2384 107.54 47.8384 107.54ZM57.0984 100.48H58.6984V118.56H57.0984V100.48ZM54.2184 108.08H57.6384V109.46H54.2184V108.08ZM53.2384 100.88H54.7984V117.68H53.2384V100.88ZM47.0384 101H48.6784V104.4H47.0384V101ZM74.3898 101.12H75.8498V102.12C75.8498 105.58 72.3298 108.06 68.5698 108.7L67.9098 107.36C71.2098 106.86 74.3898 104.7 74.3898 102.12V101.12ZM74.6898 101.12H76.1298V102.12C76.1298 104.64 79.3498 106.86 82.6098 107.36L81.9498 108.7C78.2298 108.06 74.6898 105.54 74.6898 102.12V101.12ZM74.3898 111.68H76.0298V118.56H74.3898V111.68ZM67.0898 110.66H83.4298V112.04H67.0898V110.66ZM98.6083 100.46H100.268V118.58H98.6083V100.46ZM86.5083 102H88.1483V106.78H93.3683V102H95.0283V114.22H86.5083V102ZM88.1483 108.1V112.86H93.3683V108.1H88.1483ZM115.08 101.32C117.78 101.32 119.7 102.82 119.7 105.04C119.7 107.24 117.78 108.78 115.08 108.78C112.4 108.78 110.48 107.24 110.48 105.04C110.48 102.82 112.4 101.32 115.08 101.32ZM115.08 102.7C113.32 102.7 112.06 103.66 112.06 105.04C112.06 106.44 113.32 107.38 115.08 107.38C116.84 107.38 118.1 106.44 118.1 105.04C118.1 103.66 116.84 102.7 115.08 102.7ZM114.34 110.78H116V118H114.34V110.78ZM122.34 100.48H123.98V118.58H122.34V100.48ZM109.36 111.68L109.14 110.28C112.5 110.28 117.08 110.24 121.06 109.64L121.18 110.88C117.1 111.62 112.66 111.68 109.36 111.68ZM140.718 100.48H142.378V118.56H140.718V100.48ZM132.578 104.78H133.918V106.32C133.918 110.18 131.738 113.68 128.838 115.08L127.898 113.8C130.578 112.56 132.578 109.48 132.578 106.32V104.78ZM132.898 104.78H134.218V106.32C134.218 109.34 136.278 112.28 138.978 113.46L138.038 114.76C135.118 113.44 132.898 110.06 132.898 106.32V104.78ZM128.398 103.62H138.358V104.96H128.398V103.62ZM132.578 100.8H134.238V104.36H132.578V100.8ZM145.957 108.88H162.357V110.14H145.957V108.88ZM147.897 111.6H160.297V115.46H149.597V117.58H147.957V114.32H158.677V112.78H147.897V111.6ZM147.957 117.14H160.877V118.34H147.957V117.14ZM148.037 101H160.237V104.76H149.717V106.72H148.077V103.64H158.617V102.18H148.037V101ZM148.077 106.32H160.577V107.52H148.077V106.32ZM178.288 103.8H183.508V105.14H178.288V103.8ZM178.288 107.7H183.548V109.04H178.288V107.7ZM182.868 100.5H184.528V113.88H182.868V100.5ZM172.908 116.8H184.968V118.16H172.908V116.8ZM172.908 112.58H174.568V117.5H172.908V112.58ZM170.548 101.68H172.188V104.88H177.088V101.68H178.708V110.8H170.548V101.68ZM172.188 106.18V109.44H177.088V106.18H172.188ZM192.746 111.26H194.406V114.2H192.746V111.26ZM200.346 100.48H202.006V118.56H200.346V100.48ZM201.466 108.16H204.806V109.56H201.466V108.16ZM188.086 115.12L187.846 113.74C191.086 113.74 195.506 113.7 199.246 113.16L199.386 114.4C195.486 115.1 191.246 115.12 188.086 115.12ZM188.146 102.66H198.966V104H188.146V102.66ZM193.566 105.06C196.086 105.06 197.826 106.38 197.826 108.4C197.826 110.44 196.086 111.74 193.566 111.74C191.046 111.74 189.326 110.44 189.326 108.4C189.326 106.38 191.046 105.06 193.566 105.06ZM193.566 106.34C191.946 106.34 190.886 107.16 190.886 108.4C190.886 109.64 191.946 110.46 193.566 110.46C195.186 110.46 196.266 109.64 196.266 108.4C196.266 107.16 195.186 106.34 193.566 106.34ZM192.746 100.5H194.406V103.56H192.746V100.5ZM211.225 102.04H212.585V105.28C212.585 109.44 210.345 113.3 207.385 114.8L206.365 113.44C209.045 112.16 211.225 108.7 211.225 105.28V102.04ZM211.505 102.04H212.865V105.28C212.865 108.58 215.025 111.9 217.705 113.14L216.705 114.46C213.765 113.02 211.505 109.3 211.505 105.28V102.04ZM219.585 100.46H221.245V118.58H219.585V100.46ZM232.863 102.36H234.463C234.463 107.58 232.623 112.42 226.103 115.62L225.203 114.32C230.923 111.52 232.863 107.48 232.863 102.54V102.36ZM226.183 102.36H233.703V103.7H226.183V102.36ZM232.623 106.84V108.12L225.563 108.78L225.283 107.32L232.623 106.84ZM238.023 100.48H239.683V118.56H238.023V100.48ZM245.462 105.9H257.742V107.26H245.462V105.9ZM243.242 109.68H259.642V111.04H243.242V109.68ZM245.462 101.14H247.102V106.58H245.462V101.14ZM245.342 116.76H257.842V118.12H245.342V116.76ZM245.342 112.84H246.982V117.12H245.342V112.84ZM276.533 105.46H281.093V106.82H276.533V105.46ZM280.153 100.5H281.813V113.74H280.153V100.5ZM270.273 116.8H282.313V118.16H270.273V116.8ZM270.273 112.58H271.933V117.5H270.273V112.58ZM271.553 102.74H272.913V104.2C272.913 107.48 270.873 110.32 267.853 111.44L266.993 110.12C269.693 109.16 271.553 106.76 271.553 104.2V102.74ZM271.873 102.74H273.213V104.18C273.213 106.52 274.973 108.8 277.593 109.72L276.753 111.02C273.813 109.96 271.873 107.24 271.873 104.18V102.74ZM267.513 101.96H277.173V103.3H267.513V101.96ZM298.872 103.36H302.052V104.74H298.872V103.36ZM298.872 107.14H302.052V108.52H298.872V107.14ZM286.132 109.14H287.552C290.832 109.14 293.172 109.04 295.992 108.56L296.132 109.92C293.272 110.42 290.892 110.52 287.552 110.52H286.132V109.14ZM286.092 101.54H294.232V106.56H287.752V109.82H286.132V105.28H292.592V102.9H286.092V101.54ZM297.712 100.5H299.372V111.48H297.712V100.5ZM287.632 112.42H299.372V118.56H297.712V113.78H287.632V112.42ZM316.89 100.48H318.57V110.18H316.89V100.48ZM306.91 111.08H308.55V113.28H316.93V111.08H318.57V118.32H306.91V111.08ZM308.55 114.6V116.98H316.93V114.6H308.55ZM308.87 101.34C311.61 101.34 313.57 103.04 313.57 105.5C313.57 107.98 311.61 109.68 308.87 109.68C306.13 109.68 304.15 107.98 304.15 105.5C304.15 103.04 306.13 101.34 308.87 101.34ZM308.87 102.72C307.07 102.72 305.77 103.86 305.77 105.5C305.77 107.14 307.07 108.28 308.87 108.28C310.67 108.28 311.97 107.14 311.97 105.5C311.97 103.86 310.67 102.72 308.87 102.72ZM335.288 100.48H336.948V118.56H335.288V100.48ZM323.288 102.24H324.928V113.44H323.288V102.24ZM323.288 112.46H324.768C327.508 112.46 330.368 112.26 333.428 111.62L333.628 113.04C330.488 113.68 327.628 113.9 324.768 113.9H323.288V112.46ZM352.767 100.46H354.447V118.58H352.767V100.46ZM354.047 107.6H357.407V109H354.047V107.6ZM341.307 112.68H342.727C346.067 112.68 348.407 112.56 351.107 112.06L351.287 113.46C348.507 113.98 346.127 114.08 342.727 114.08H341.307V112.68ZM341.307 102.22H349.707V103.58H342.947V113.3H341.307V102.22ZM360.772 117.135C360.384 117.135 360.05 116.998 359.771 116.723C359.491 116.444 359.352 116.107 359.352 115.714C359.352 115.326 359.491 114.995 359.771 114.72C360.05 114.441 360.384 114.301 360.772 114.301C361.16 114.301 361.494 114.441 361.773 114.72C362.053 114.995 362.192 115.326 362.192 115.714C362.192 115.975 362.126 116.214 361.994 116.432C361.866 116.645 361.695 116.815 361.482 116.943C361.269 117.071 361.032 117.135 360.772 117.135ZM371.748 101.34H383.388V102.7H371.748V101.34ZM369.668 108.08H386.048V109.44H369.668V108.08ZM382.308 101.34H383.928V102.58C383.928 104.06 383.928 105.98 383.368 108.62L381.748 108.44C382.308 105.86 382.308 104.02 382.308 102.58V101.34ZM371.408 112.14H384.048V118.62H382.388V113.48H371.408V112.14ZM400.426 100.46H402.086V113.56H400.426V100.46ZM401.586 105.84H404.766V107.22H401.586V105.84ZM388.886 109H390.286C394.006 109 396.106 108.9 398.526 108.4L398.706 109.74C396.226 110.26 394.086 110.38 390.286 110.38H388.886V109ZM388.886 102.02H396.866V103.4H390.526V109.74H388.886V102.02ZM390.826 116.8H402.906V118.16H390.826V116.8ZM390.826 112.26H392.486V117.42H390.826V112.26ZM411.065 102.32H412.425V103.78C412.425 107.08 410.385 109.9 407.365 111.02L406.505 109.7C409.205 108.74 411.065 106.34 411.065 103.78V102.32ZM411.385 102.32H412.725V103.78C412.725 106.1 414.485 108.36 417.105 109.28L416.265 110.6C413.325 109.52 411.385 106.8 411.385 103.78V102.32ZM416.125 105.18H420.145V106.56H416.125V105.18ZM407.025 101.72H416.685V103.06H407.025V101.72ZM409.265 112.28H421.325V118.56H419.665V113.64H409.265V112.28ZM419.665 100.48H421.325V111.3H419.665V100.48ZM433.023 101.62C436.783 101.62 439.583 103.62 439.583 106.62C439.583 109.64 436.783 111.62 433.023 111.62C429.263 111.62 426.443 109.64 426.443 106.62C426.443 103.62 429.263 101.62 433.023 101.62ZM433.023 102.98C430.163 102.98 428.043 104.44 428.043 106.62C428.043 108.78 430.163 110.26 433.023 110.26C435.883 110.26 438.003 108.78 438.003 106.62C438.003 104.44 435.883 102.98 433.023 102.98ZM424.863 114.78H441.243V116.18H424.863V114.78ZM443.262 114.96H459.642V116.34H443.262V114.96ZM450.582 111.08H452.242V115.54H450.582V111.08ZM445.242 101.82H457.622V107.3H446.942V110.92H445.302V105.96H455.982V103.16H445.242V101.82ZM445.302 110.22H458.042V111.58H445.302V110.22ZM479.313 100.5H480.973V114.06H479.313V100.5ZM480.453 106.42H483.653V107.82H480.453V106.42ZM466.993 102.68H477.673V104.02H466.993V102.68ZM472.333 105.02C474.893 105.02 476.653 106.36 476.653 108.4C476.653 110.42 474.893 111.76 472.333 111.76C469.753 111.76 467.993 110.42 467.993 108.4C467.993 106.36 469.753 105.02 472.333 105.02ZM472.333 106.32C470.693 106.32 469.573 107.14 469.573 108.4C469.573 109.64 470.693 110.46 472.333 110.46C473.953 110.46 475.073 109.64 475.073 108.4C475.073 107.14 473.953 106.32 472.333 106.32ZM471.493 100.48H473.153V103.38H471.493V100.48ZM469.713 116.8H481.793V118.16H469.713V116.8ZM469.713 112.98H471.373V117.38H469.713V112.98ZM489.212 101.8H490.472V102.88C490.472 104.68 489.112 106.82 486.572 107.66L485.872 106.42C487.972 105.74 489.212 104.08 489.212 102.88V101.8ZM489.652 101.8H490.852V102.78C490.852 103.88 492.052 105.5 494.032 106.16L493.492 107.42C490.912 106.6 489.652 104.44 489.652 102.78V101.8ZM496.152 101.8H497.352V102.78C497.352 104.5 496.072 106.62 493.492 107.42L492.972 106.16C494.952 105.52 496.152 103.96 496.152 102.78V101.8ZM496.552 101.8H497.792V102.88C497.792 104.26 499.012 105.8 501.132 106.42L500.412 107.66C497.892 106.86 496.552 104.86 496.552 102.88V101.8ZM486.392 101.14H493.152V102.48H486.392V101.14ZM493.852 101.14H500.612V102.48H493.852V101.14ZM485.332 109.44H501.732V110.78H485.332V109.44ZM492.672 107.6H494.332V110.48H492.672V107.6ZM487.132 112.7H499.612V118.56H497.952V114.04H487.132V112.7ZM517.303 111.82C520.983 111.82 523.243 113.06 523.243 115.18C523.243 117.3 520.983 118.54 517.303 118.54C513.623 118.54 511.363 117.3 511.363 115.18C511.363 113.06 513.623 111.82 517.303 111.82ZM517.303 113.16C514.623 113.16 512.983 113.9 512.983 115.18C512.983 116.48 514.623 117.22 517.303 117.22C519.983 117.22 521.623 116.48 521.623 115.18C521.623 113.9 519.983 113.16 517.303 113.16ZM521.403 100.48H523.063V111.34H521.403V100.48ZM522.603 105.02H525.743V106.42H522.603V105.02ZM509.783 101.62H511.423V104.32H516.523V101.62H518.143V109.96H509.783V101.62ZM511.423 105.64V108.62H516.523V105.64H511.423ZM540.961 103.6H544.101V104.98H540.961V103.6ZM540.961 107.46H544.101V108.84H540.961V107.46ZM539.801 100.48H541.461V112.12H539.801V100.48ZM535.781 112.28C539.441 112.28 541.661 113.42 541.661 115.4C541.661 117.38 539.441 118.52 535.781 118.52C532.141 118.52 529.901 117.38 529.901 115.4C529.901 113.42 532.141 112.28 535.781 112.28ZM535.781 113.56C533.141 113.56 531.541 114.24 531.541 115.4C531.541 116.58 533.141 117.24 535.781 117.24C538.441 117.24 540.041 116.58 540.041 115.4C540.041 114.24 538.441 113.56 535.781 113.56ZM527.481 102.52H538.161V103.84H527.481V102.52ZM532.821 104.76C535.401 104.76 537.141 106 537.141 107.94C537.141 109.9 535.401 111.14 532.821 111.14C530.221 111.14 528.481 109.9 528.481 107.94C528.481 106 530.221 104.76 532.821 104.76ZM532.821 106.02C531.161 106.02 530.061 106.78 530.061 107.94C530.061 109.12 531.161 109.88 532.821 109.88C534.441 109.88 535.561 109.12 535.561 107.94C535.561 106.78 534.441 106.02 532.821 106.02ZM531.981 100.32H533.641V103.26H531.981V100.32ZM33.16 125.62C36.92 125.62 39.72 127.62 39.72 130.62C39.72 133.64 36.92 135.62 33.16 135.62C29.4 135.62 26.58 133.64 26.58 130.62C26.58 127.62 29.4 125.62 33.16 125.62ZM33.16 126.98C30.3 126.98 28.18 128.44 28.18 130.62C28.18 132.78 30.3 134.26 33.16 134.26C36.02 134.26 38.14 132.78 38.14 130.62C38.14 128.44 36.02 126.98 33.16 126.98ZM25 138.78H41.38V140.18H25V138.78ZM43.3984 138.96H59.7784V140.34H43.3984V138.96ZM50.7184 135.08H52.3784V139.54H50.7184V135.08ZM45.3784 125.82H57.7584V131.3H47.0784V134.92H45.4384V129.96H56.1184V127.16H45.3784V125.82ZM45.4384 134.22H58.1784V135.58H45.4384V134.22ZM62.5369 126.1H70.8369V134.48H62.5369V126.1ZM69.2169 127.44H64.1569V133.14H69.2169V127.44ZM74.1569 124.46H75.8169V137.72H74.1569V124.46ZM75.2969 129.98H78.4969V131.36H75.2969V129.98ZM64.5569 140.8H76.6369V142.16H64.5569V140.8ZM64.5569 136.46H66.2169V141.38H64.5569V136.46ZM86.2483 136.84H87.6683C91.0083 136.84 93.3083 136.76 96.0283 136.28L96.2083 137.64C93.4083 138.12 91.0483 138.22 87.6683 138.22H86.2483V136.84ZM86.2483 126.12H94.6683V127.5H87.9083V137.32H86.2483V126.12ZM87.4883 131.18H94.2683V132.52H87.4883V131.18ZM97.7083 124.48H99.3883V142.56H97.7083V124.48ZM98.9883 131.74H102.348V133.14H98.9883V131.74ZM105.927 125.66H117.227V127H105.927V125.66ZM103.887 133.42H120.227V134.78H103.887V133.42ZM111.187 134.32H112.847V142.58H111.187V134.32ZM116.447 125.66H118.067V127.22C118.067 129.1 118.067 131.22 117.387 134.28L115.747 134.06C116.447 131.14 116.447 129.04 116.447 127.22V125.66ZM122.265 132.88H138.665V134.14H122.265V132.88ZM124.205 135.6H136.605V139.46H125.905V141.58H124.265V138.32H134.985V136.78H124.205V135.6ZM124.265 141.14H137.185V142.34H124.265V141.14ZM124.345 125H136.545V128.76H126.025V130.72H124.385V127.64H134.925V126.18H124.345V125ZM124.385 130.32H136.885V131.52H124.385V130.32ZM158.337 124.48H159.997V133.6H158.337V124.48ZM159.537 128.22H162.677V129.6H159.537V128.22ZM146.837 125.26H148.497V132.2H146.837V125.26ZM146.837 131.32H148.257C150.837 131.32 153.537 131.14 156.477 130.54L156.677 131.92C153.637 132.54 150.937 132.72 148.257 132.72H146.837V131.32ZM148.517 134.46H159.997V138.92H150.197V141.66H148.557V137.64H158.357V135.8H148.517V134.46ZM148.557 140.98H160.657V142.32H148.557V140.98ZM177.535 124.46H179.195V142.58H177.535V124.46ZM165.415 136.84H166.915C169.935 136.84 172.635 136.72 175.835 136.2L176.015 137.56C172.735 138.1 170.015 138.22 166.915 138.22H165.415V136.84ZM165.375 126.16H173.735V132.62H167.075V137.36H165.415V131.26H172.055V127.52H165.375V126.16ZM184.973 129.9H197.253V131.26H184.973V129.9ZM182.753 133.68H199.153V135.04H182.753V133.68ZM184.973 125.14H186.613V130.58H184.973V125.14ZM184.853 140.76H197.353V142.12H184.853V140.76ZM184.853 136.84H186.493V141.12H184.853V136.84ZM207.225 136.84H208.645C211.985 136.84 214.285 136.76 217.005 136.28L217.185 137.64C214.385 138.12 212.025 138.22 208.645 138.22H207.225V136.84ZM207.225 126.12H215.645V127.5H208.885V137.32H207.225V126.12ZM208.465 131.18H215.245V132.52H208.465V131.18ZM218.685 124.48H220.365V142.56H218.685V124.48ZM219.965 131.74H223.325V133.14H219.965V131.74ZM229.323 127.06H230.643V130C230.643 133.76 228.343 137.64 225.523 139.08L224.563 137.76C227.143 136.5 229.323 133.06 229.323 130V127.06ZM229.623 127.06H230.943V130C230.943 132.86 232.983 136.08 235.603 137.32L234.663 138.64C231.803 137.22 229.623 133.58 229.623 130V127.06ZM225.203 126.32H234.943V127.72H225.203V126.32ZM237.083 124.48H238.763V142.56H237.083V124.48ZM238.363 131.78H241.723V133.18H238.363V131.78ZM250.582 131.5H254.002V132.88H250.582V131.5ZM257.022 124.48H258.622V142.56H257.022V124.48ZM253.442 124.86H255.022V141.66H253.442V124.86ZM247.322 125.98C249.662 125.98 251.182 128.4 251.182 132.28C251.182 136.16 249.662 138.58 247.322 138.58C244.982 138.58 243.482 136.16 243.482 132.28C243.482 128.4 244.982 125.98 247.322 125.98ZM247.322 127.52C245.902 127.52 245.002 129.36 245.002 132.28C245.002 135.2 245.902 137.04 247.322 137.04C248.762 137.04 249.662 135.2 249.662 132.28C249.662 129.36 248.762 127.52 247.322 127.52ZM275.42 124.48H277.02V142.56H275.42V124.48ZM267.58 131.86H272.14V133.2H267.58V131.86ZM271.66 124.94H273.22V141.64H271.66V124.94ZM267.8 126.76H269.4C269.4 131.5 267.5 135.76 262.62 138.66L261.64 137.48C265.9 134.92 267.8 131.32 267.8 127.06V126.76ZM262.44 126.76H268.42V128.12H262.44V126.76ZM282.259 129.9H294.539V131.26H282.259V129.9ZM280.039 133.68H296.439V135.04H280.039V133.68ZM282.259 125.14H283.899V130.58H282.259V125.14ZM282.139 140.76H294.639V142.12H282.139V140.76ZM282.139 136.84H283.779V141.12H282.139V136.84ZM303.71 127.56H312.67V128.92H303.71V127.56ZM308.19 130.12C310.45 130.12 312.09 131.82 312.09 134.26C312.09 136.68 310.45 138.38 308.19 138.38C305.95 138.38 304.31 136.68 304.31 134.26C304.31 131.82 305.95 130.12 308.19 130.12ZM308.19 131.54C306.81 131.54 305.81 132.66 305.81 134.26C305.81 135.86 306.81 136.98 308.19 136.98C309.59 136.98 310.61 135.86 310.61 134.26C310.61 132.66 309.59 131.54 308.19 131.54ZM317.45 124.48H319.05V142.56H317.45V124.48ZM314.57 132.08H317.99V133.46H314.57V132.08ZM313.59 124.88H315.15V141.68H313.59V124.88ZM307.39 125H309.03V128.4H307.39V125ZM334.528 124.48H336.188V135.22H334.528V124.48ZM335.708 129.18H338.848V130.56H335.708V129.18ZM330.408 135.6C334.068 135.6 336.348 136.9 336.348 139.08C336.348 141.26 334.068 142.54 330.408 142.54C326.748 142.54 324.468 141.26 324.468 139.08C324.468 136.9 326.748 135.6 330.408 135.6ZM330.408 136.96C327.728 136.96 326.088 137.72 326.088 139.08C326.088 140.4 327.728 141.18 330.408 141.18C333.088 141.18 334.728 140.4 334.728 139.08C334.728 137.72 333.088 136.96 330.408 136.96ZM322.948 132.44H324.348C328.088 132.44 330.188 132.32 332.608 131.82L332.808 133.18C330.308 133.68 328.168 133.8 324.348 133.8H322.948V132.44ZM322.948 125.86H330.928V127.22H324.588V133.32H322.948V125.86ZM354.1 135.82C357.78 135.82 360.04 137.06 360.04 139.18C360.04 141.3 357.78 142.54 354.1 142.54C350.42 142.54 348.16 141.3 348.16 139.18C348.16 137.06 350.42 135.82 354.1 135.82ZM354.1 137.16C351.42 137.16 349.78 137.9 349.78 139.18C349.78 140.48 351.42 141.22 354.1 141.22C356.78 141.22 358.42 140.48 358.42 139.18C358.42 137.9 356.78 137.16 354.1 137.16ZM358.2 124.48H359.86V135.34H358.2V124.48ZM359.4 129.02H362.54V130.42H359.4V129.02ZM346.58 125.62H348.22V128.32H353.32V125.62H354.94V133.96H346.58V125.62ZM348.22 129.64V132.62H353.32V129.64H348.22ZM377.758 127.6H380.898V128.98H377.758V127.6ZM377.758 131.46H380.898V132.84H377.758V131.46ZM376.598 124.48H378.258V136.12H376.598V124.48ZM372.578 136.28C376.238 136.28 378.458 137.42 378.458 139.4C378.458 141.38 376.238 142.52 372.578 142.52C368.938 142.52 366.698 141.38 366.698 139.4C366.698 137.42 368.938 136.28 372.578 136.28ZM372.578 137.56C369.938 137.56 368.338 138.24 368.338 139.4C368.338 140.58 369.938 141.24 372.578 141.24C375.238 141.24 376.838 140.58 376.838 139.4C376.838 138.24 375.238 137.56 372.578 137.56ZM364.278 126.52H374.958V127.84H364.278V126.52ZM369.618 128.76C372.198 128.76 373.938 130 373.938 131.94C373.938 133.9 372.198 135.14 369.618 135.14C367.018 135.14 365.278 133.9 365.278 131.94C365.278 130 367.018 128.76 369.618 128.76ZM369.618 130.02C367.958 130.02 366.858 130.78 366.858 131.94C366.858 133.12 367.958 133.88 369.618 133.88C371.238 133.88 372.358 133.12 372.358 131.94C372.358 130.78 371.238 130.02 369.618 130.02ZM368.778 124.32H370.438V127.26H368.778V124.32ZM390.797 125.62C394.557 125.62 397.357 127.62 397.357 130.62C397.357 133.64 394.557 135.62 390.797 135.62C387.037 135.62 384.217 133.64 384.217 130.62C384.217 127.62 387.037 125.62 390.797 125.62ZM390.797 126.98C387.937 126.98 385.817 128.44 385.817 130.62C385.817 132.78 387.937 134.26 390.797 134.26C393.657 134.26 395.777 132.78 395.777 130.62C395.777 128.44 393.657 126.98 390.797 126.98ZM382.637 138.78H399.017V140.18H382.637V138.78ZM401.035 138.96H417.415V140.34H401.035V138.96ZM408.355 135.08H410.015V139.54H408.355V135.08ZM403.015 125.82H415.395V131.3H404.715V134.92H403.075V129.96H413.755V127.16H403.015V125.82ZM403.075 134.22H415.815V135.58H403.075V134.22ZM438.447 124.48H440.047V142.56H438.447V124.48ZM435.407 131.84H438.887V133.2H435.407V131.84ZM434.347 124.88H435.907V141.64H434.347V124.88ZM425.587 126.66H427.247V137.1H425.587V126.66ZM425.587 136.44H426.747C428.607 136.44 430.687 136.32 433.047 135.86L433.227 137.3C430.767 137.78 428.687 137.88 426.747 137.88H425.587V136.44ZM447.925 125.86C450.585 125.86 452.465 128.32 452.465 132.16C452.465 136.02 450.585 138.48 447.925 138.48C445.265 138.48 443.385 136.02 443.385 132.16C443.385 128.32 445.265 125.86 447.925 125.86ZM447.925 127.36C446.165 127.36 444.965 129.24 444.965 132.16C444.965 135.1 446.165 137.02 447.925 137.02C449.665 137.02 450.885 135.1 450.885 132.16C450.885 129.24 449.665 127.36 447.925 127.36ZM456.565 129.02H459.885V130.42H456.565V129.02ZM456.565 134.4H459.885V135.8H456.565V134.4ZM455.345 124.48H457.025V142.56H455.345V124.48ZM468.823 125.12H470.283V126.12C470.283 129.58 466.763 132.06 463.003 132.7L462.343 131.36C465.643 130.86 468.823 128.7 468.823 126.12V125.12ZM469.123 125.12H470.563V126.12C470.563 128.64 473.783 130.86 477.043 131.36L476.383 132.7C472.663 132.06 469.123 129.54 469.123 126.12V125.12ZM468.823 135.68H470.463V142.56H468.823V135.68ZM461.523 134.66H477.863V136.04H461.523V134.66ZM479.902 132.88H496.302V134.14H479.902V132.88ZM481.842 135.6H494.242V139.46H483.542V141.58H481.902V138.32H492.622V136.78H481.842V135.6ZM481.902 141.14H494.822V142.34H481.902V141.14ZM481.982 125H494.182V128.76H483.662V130.72H482.022V127.64H492.562V126.18H481.982V125ZM482.022 130.32H494.522V131.52H482.022V130.32ZM503.593 132.36H519.933V133.7H503.593V132.36ZM510.933 130.06H512.573V132.82H510.933V130.06ZM505.713 125.08H517.813V130.58H505.713V125.08ZM516.193 126.4H507.353V129.26H516.193V126.4ZM505.573 135.2H517.853V139.26H507.253V141.46H505.613V138.06H516.213V136.48H505.573V135.2ZM505.613 141.06H518.393V142.36H505.613V141.06ZM526.812 125.86C529.472 125.86 531.352 128.32 531.352 132.16C531.352 136.02 529.472 138.48 526.812 138.48C524.152 138.48 522.272 136.02 522.272 132.16C522.272 128.32 524.152 125.86 526.812 125.86ZM526.812 127.36C525.052 127.36 523.852 129.24 523.852 132.16C523.852 135.1 525.052 137.02 526.812 137.02C528.552 137.02 529.772 135.1 529.772 132.16C529.772 129.24 528.552 127.36 526.812 127.36ZM534.232 124.48H535.912V142.56H534.232V124.48ZM535.512 131.7H538.872V133.1H535.512V131.7ZM32.3 149.12H33.76V150.12C33.76 153.58 30.24 156.06 26.48 156.7L25.82 155.36C29.12 154.86 32.3 152.7 32.3 150.12V149.12ZM32.6 149.12H34.04V150.12C34.04 152.64 37.26 154.86 40.52 155.36L39.86 156.7C36.14 156.06 32.6 153.54 32.6 150.12V149.12ZM32.3 159.68H33.94V166.56H32.3V159.68ZM25 158.66H41.34V160.04H25V158.66ZM56.5184 148.46H58.1784V166.58H56.5184V148.46ZM44.4184 150H46.0584V154.78H51.2784V150H52.9384V162.22H44.4184V150ZM46.0584 156.1V160.86H51.2784V156.1H46.0584ZM74.0369 148.48H75.6969V166.56H74.0369V148.48ZM75.2969 155.9H78.6569V157.3H75.2969V155.9ZM61.6969 151.36H72.3569V152.72H61.6969V151.36ZM67.0969 154.22C69.6569 154.22 71.4969 155.94 71.4969 158.38C71.4969 160.82 69.6569 162.54 67.0969 162.54C64.5569 162.54 62.6969 160.82 62.6969 158.38C62.6969 155.94 64.5569 154.22 67.0969 154.22ZM67.0969 155.6C65.4569 155.6 64.2769 156.74 64.2769 158.38C64.2769 160 65.4569 161.16 67.0969 161.16C68.7369 161.16 69.9169 160 69.9169 158.38C69.9169 156.74 68.7369 155.6 67.0969 155.6ZM66.2369 148.7H67.8969V151.98H66.2369V148.7ZM82.3953 153.9H94.6753V155.26H82.3953V153.9ZM80.1753 157.68H96.5753V159.04H80.1753V157.68ZM82.3953 149.14H84.0353V154.58H82.3953V149.14ZM82.2753 164.76H94.7753V166.12H82.2753V164.76ZM82.2753 160.84H83.9153V165.12H82.2753V160.84ZM112.147 159.82C115.827 159.82 118.087 161.06 118.087 163.18C118.087 165.3 115.827 166.54 112.147 166.54C108.467 166.54 106.207 165.3 106.207 163.18C106.207 161.06 108.467 159.82 112.147 159.82ZM112.147 161.16C109.467 161.16 107.827 161.9 107.827 163.18C107.827 164.48 109.467 165.22 112.147 165.22C114.827 165.22 116.467 164.48 116.467 163.18C116.467 161.9 114.827 161.16 112.147 161.16ZM116.247 148.48H117.907V159.34H116.247V148.48ZM117.447 153.02H120.587V154.42H117.447V153.02ZM104.627 149.62H106.267V152.32H111.367V149.62H112.987V157.96H104.627V149.62ZM106.267 153.64V156.62H111.367V153.64H106.267ZM126.985 149.34H128.365V151.1C128.365 154.52 126.325 157.46 123.265 158.62L122.425 157.3C125.165 156.3 126.985 153.8 126.985 151.1V149.34ZM127.285 149.34H128.645V151.1C128.645 153.7 130.505 156.04 133.185 156.98L132.345 158.28C129.325 157.18 127.285 154.42 127.285 151.1V149.34ZM125.025 160.28H137.105V166.56H135.425V161.64H125.025V160.28ZM135.425 148.48H137.105V159.36H135.425V148.48ZM153.824 148.48H155.504V158.18H153.824V148.48ZM143.844 159.08H145.484V161.28H153.864V159.08H155.504V166.32H143.844V159.08ZM145.484 162.6V164.98H153.864V162.6H145.484ZM145.804 149.34C148.544 149.34 150.504 151.04 150.504 153.5C150.504 155.98 148.544 157.68 145.804 157.68C143.064 157.68 141.084 155.98 141.084 153.5C141.084 151.04 143.064 149.34 145.804 149.34ZM145.804 150.72C144.004 150.72 142.704 151.86 142.704 153.5C142.704 155.14 144.004 156.28 145.804 156.28C147.604 156.28 148.904 155.14 148.904 153.5C148.904 151.86 147.604 150.72 145.804 150.72ZM172.222 148.48H173.882V166.56H172.222V148.48ZM160.222 150.24H161.862V161.44H160.222V150.24ZM160.222 160.46H161.702C164.442 160.46 167.302 160.26 170.362 159.62L170.562 161.04C167.422 161.68 164.562 161.9 161.702 161.9H160.222V160.46ZM189.7 148.46H191.38V166.58H189.7V148.46ZM190.98 155.6H194.34V157H190.98V155.6ZM178.24 160.68H179.66C183 160.68 185.34 160.56 188.04 160.06L188.22 161.46C185.44 161.98 183.06 162.08 179.66 162.08H178.24V160.68ZM178.24 150.22H186.64V151.58H179.88V161.3H178.24V150.22ZM197.706 165.135C197.317 165.135 196.984 164.998 196.704 164.723C196.425 164.444 196.285 164.107 196.285 163.714C196.285 163.326 196.425 162.995 196.704 162.72C196.984 162.441 197.317 162.301 197.706 162.301C198.094 162.301 198.428 162.441 198.707 162.72C198.986 162.995 199.126 163.326 199.126 163.714C199.126 163.975 199.06 164.214 198.927 164.432C198.799 164.645 198.629 164.815 198.416 164.943C198.203 165.071 197.966 165.135 197.706 165.135ZM211.762 158.04H213.442V161.96H211.762V158.04ZM211.762 151.68H213.102V152.08C213.102 155.24 211.042 157.68 208.002 158.64L207.242 157.34C209.922 156.54 211.762 154.52 211.762 152.08V151.68ZM212.082 151.68H213.422V152.08C213.422 154.42 215.322 156.38 217.982 157.16L217.222 158.44C214.182 157.54 212.082 155.14 212.082 152.08V151.68ZM207.662 150.84H217.602V152.18H207.662V150.84ZM211.762 148.6H213.442V151.42H211.762V148.6ZM219.662 148.46H221.322V166.58H219.662V148.46ZM206.922 162.86L206.682 161.46C209.982 161.46 214.542 161.44 218.482 160.84L218.622 162.06C214.562 162.82 210.142 162.84 206.922 162.86ZM227.08 149.54H238.62V150.9H227.08V149.54ZM225 156.78H241.38V158.16H225V156.78ZM237.64 149.54H239.26V150.96C239.26 152.62 239.26 154.6 238.68 157.36L237.06 157.18C237.64 154.5 237.64 152.58 237.64 150.96V149.54ZM227.14 164.78H239.8V166.16H227.14V164.78ZM227.14 160.16H228.8V164.98H227.14V160.16ZM250.718 155.5H254.138V156.88H250.718V155.5ZM257.158 148.48H258.758V166.56H257.158V148.48ZM253.578 148.86H255.158V165.66H253.578V148.86ZM247.458 149.98C249.798 149.98 251.318 152.4 251.318 156.28C251.318 160.16 249.798 162.58 247.458 162.58C245.118 162.58 243.618 160.16 243.618 156.28C243.618 152.4 245.118 149.98 247.458 149.98ZM247.458 151.52C246.038 151.52 245.138 153.36 245.138 156.28C245.138 159.2 246.038 161.04 247.458 161.04C248.898 161.04 249.798 159.2 249.798 156.28C249.798 153.36 248.898 151.52 247.458 151.52ZM263.997 153.9H276.277V155.26H263.997V153.9ZM261.777 157.68H278.177V159.04H261.777V157.68ZM263.997 149.14H265.637V154.58H263.997V149.14ZM263.877 164.76H276.377V166.12H263.877V164.76ZM263.877 160.84H265.517V165.12H263.877V160.84ZM286.248 160.84H287.668C291.008 160.84 293.308 160.76 296.028 160.28L296.208 161.64C293.408 162.12 291.048 162.22 287.668 162.22H286.248V160.84ZM286.248 150.12H294.668V151.5H287.908V161.32H286.248V150.12ZM287.488 155.18H294.268V156.52H287.488V155.18ZM297.708 148.48H299.388V166.56H297.708V148.48ZM298.988 155.74H302.348V157.14H298.988V155.74ZM308.347 151.06H309.667V154C309.667 157.76 307.367 161.64 304.547 163.08L303.587 161.76C306.167 160.5 308.347 157.06 308.347 154V151.06ZM308.647 151.06H309.967V154C309.967 156.86 312.007 160.08 314.627 161.32L313.687 162.64C310.827 161.22 308.647 157.58 308.647 154V151.06ZM304.227 150.32H313.967V151.72H304.227V150.32ZM316.107 148.48H317.787V166.56H316.107V148.48ZM317.387 155.78H320.747V157.18H317.387V155.78ZM322.285 156.02H338.625V157.38H322.285V156.02ZM324.445 153.22H336.685V154.56H324.445V153.22ZM324.445 149.06H336.485V150.42H326.085V154.3H324.445V149.06ZM324.245 158.94H336.525V163.2H325.925V165.48H324.285V161.96H334.885V160.24H324.245V158.94ZM324.285 165.04H337.065V166.36H324.285V165.04ZM353.804 148.46H355.464V166.58H353.804V148.46ZM345.924 149.86C348.604 149.86 350.524 152.32 350.524 156.16C350.524 160.02 348.604 162.48 345.924 162.48C343.264 162.48 341.344 160.02 341.344 156.16C341.344 152.32 343.264 149.86 345.924 149.86ZM345.924 151.36C344.164 151.36 342.924 153.24 342.924 156.16C342.924 159.1 344.164 161.02 345.924 161.02C347.704 161.02 348.924 159.1 348.924 156.16C348.924 153.24 347.704 151.36 345.924 151.36ZM377.495 148.46H379.155V166.58H377.495V148.46ZM369.615 149.86C372.295 149.86 374.215 152.32 374.215 156.16C374.215 160.02 372.295 162.48 369.615 162.48C366.955 162.48 365.035 160.02 365.035 156.16C365.035 152.32 366.955 149.86 369.615 149.86ZM369.615 151.36C367.855 151.36 366.615 153.24 366.615 156.16C366.615 159.1 367.855 161.02 369.615 161.02C371.395 161.02 372.615 159.1 372.615 156.16C372.615 153.24 371.395 151.36 369.615 151.36ZM382.753 156.88H399.153V158.14H382.753V156.88ZM384.693 159.6H397.093V163.46H386.393V165.58H384.753V162.32H395.473V160.78H384.693V159.6ZM384.753 165.14H397.673V166.34H384.753V165.14ZM384.833 149H397.033V152.76H386.513V154.72H384.873V151.64H395.413V150.18H384.833V149ZM384.873 154.32H397.373V155.52H384.873V154.32ZM414.685 151.14H420.205V152.5H414.685V151.14ZM414.685 155.18H420.205V156.56H414.685V155.18ZM409.265 160.14H421.325V166.56H419.665V161.48H409.265V160.14ZM419.665 148.48H421.325V159.14H419.665V148.48ZM411.385 149.48C414.045 149.48 416.045 151.28 416.045 153.84C416.045 156.4 414.045 158.18 411.385 158.18C408.705 158.18 406.725 156.4 406.725 153.84C406.725 151.28 408.705 149.48 411.385 149.48ZM411.385 150.9C409.625 150.9 408.325 152.12 408.325 153.84C408.325 155.56 409.625 156.76 411.385 156.76C413.145 156.76 414.465 155.56 414.465 153.84C414.465 152.12 413.145 150.9 411.385 150.9ZM437.983 148.46H439.643V166.58H437.983V148.46ZM430.103 149.86C432.783 149.86 434.703 152.32 434.703 156.16C434.703 160.02 432.783 162.48 430.103 162.48C427.443 162.48 425.523 160.02 425.523 156.16C425.523 152.32 427.443 149.86 430.103 149.86ZM430.103 151.36C428.343 151.36 427.103 153.24 427.103 156.16C427.103 159.1 428.343 161.02 430.103 161.02C431.883 161.02 433.103 159.1 433.103 156.16C433.103 153.24 431.883 151.36 430.103 151.36ZM447.282 154.6H448.922V158.02H447.282V154.6ZM453.922 154.6H455.562V158.02H453.922V154.6ZM443.242 157.42H459.582V158.76H443.242V157.42ZM451.402 160.12C455.282 160.12 457.602 161.26 457.602 163.32C457.602 165.38 455.282 166.54 451.402 166.54C447.522 166.54 445.202 165.38 445.202 163.32C445.202 161.26 447.522 160.12 451.402 160.12ZM451.402 161.4C448.582 161.4 446.882 162.1 446.882 163.32C446.882 164.56 448.582 165.24 451.402 165.24C454.242 165.24 455.922 164.56 455.922 163.32C455.922 162.1 454.242 161.4 451.402 161.4ZM451.422 148.8C455.342 148.8 457.782 150.06 457.782 152.18C457.782 154.28 455.342 155.52 451.422 155.52C447.482 155.52 445.062 154.28 445.062 152.18C445.062 150.06 447.482 148.8 451.422 148.8ZM451.422 150.1C448.542 150.1 446.762 150.86 446.762 152.18C446.762 153.48 448.542 154.24 451.422 154.24C454.302 154.24 456.082 153.48 456.082 152.18C456.082 150.86 454.302 150.1 451.422 150.1ZM461.62 151.56H470.58V152.92H461.62V151.56ZM466.1 154.12C468.36 154.12 470 155.82 470 158.26C470 160.68 468.36 162.38 466.1 162.38C463.86 162.38 462.22 160.68 462.22 158.26C462.22 155.82 463.86 154.12 466.1 154.12ZM466.1 155.54C464.72 155.54 463.72 156.66 463.72 158.26C463.72 159.86 464.72 160.98 466.1 160.98C467.5 160.98 468.52 159.86 468.52 158.26C468.52 156.66 467.5 155.54 466.1 155.54ZM475.36 148.48H476.96V166.56H475.36V148.48ZM472.48 156.08H475.9V157.46H472.48V156.08ZM471.5 148.88H473.06V165.68H471.5V148.88ZM465.3 149H466.94V152.4H465.3V149ZM497.712 148.5H499.372V161.76H497.712V148.5ZM498.852 153.96H502.052V155.34H498.852V153.96ZM488.112 164.8H500.192V166.16H488.112V164.8ZM488.112 160.48H489.772V165.12H488.112V160.48ZM486.092 149.78H487.732V152.8H492.832V149.78H494.452V158.74H486.092V149.78ZM487.732 154.1V157.4H492.832V154.1H487.732ZM517.49 148.48H519.09V166.56H517.49V148.48ZM514.43 155.72H517.91V157.1H514.43V155.72ZM513.39 148.88H514.95V165.64H513.39V148.88ZM504.39 160.72H505.57C508.21 160.72 510.01 160.62 512.11 160.18L512.27 161.56C510.11 162.02 508.29 162.1 505.57 162.1H504.39V160.72ZM504.39 150.68H511.11V152.04H506.03V161.34H504.39V150.68ZM535.701 159.82C539.381 159.82 541.641 161.06 541.641 163.18C541.641 165.3 539.381 166.54 535.701 166.54C532.021 166.54 529.761 165.3 529.761 163.18C529.761 161.06 532.021 159.82 535.701 159.82ZM535.701 161.16C533.021 161.16 531.381 161.9 531.381 163.18C531.381 164.48 533.021 165.22 535.701 165.22C538.381 165.22 540.021 164.48 540.021 163.18C540.021 161.9 538.381 161.16 535.701 161.16ZM539.801 148.48H541.461V159.34H539.801V148.48ZM541.001 153.02H544.141V154.42H541.001V153.02ZM528.181 149.62H529.821V152.32H534.921V149.62H536.541V157.96H528.181V149.62ZM529.821 153.64V156.62H534.921V153.64H529.821ZM38.52 175.6H41.66V176.98H38.52V175.6ZM38.52 179.46H41.66V180.84H38.52V179.46ZM37.36 172.48H39.02V184.12H37.36V172.48ZM33.34 184.28C37 184.28 39.22 185.42 39.22 187.4C39.22 189.38 37 190.52 33.34 190.52C29.7 190.52 27.46 189.38 27.46 187.4C27.46 185.42 29.7 184.28 33.34 184.28ZM33.34 185.56C30.7 185.56 29.1 186.24 29.1 187.4C29.1 188.58 30.7 189.24 33.34 189.24C36 189.24 37.6 188.58 37.6 187.4C37.6 186.24 36 185.56 33.34 185.56ZM25.04 174.52H35.72V175.84H25.04V174.52ZM30.38 176.76C32.96 176.76 34.7 178 34.7 179.94C34.7 181.9 32.96 183.14 30.38 183.14C27.78 183.14 26.04 181.9 26.04 179.94C26.04 178 27.78 176.76 30.38 176.76ZM30.38 178.02C28.72 178.02 27.62 178.78 27.62 179.94C27.62 181.12 28.72 181.88 30.38 181.88C32 181.88 33.12 181.12 33.12 179.94C33.12 178.78 32 178.02 30.38 178.02ZM29.54 172.32H31.2V175.26H29.54V172.32ZM51.5584 173.62C55.3184 173.62 58.1184 175.62 58.1184 178.62C58.1184 181.64 55.3184 183.62 51.5584 183.62C47.7984 183.62 44.9784 181.64 44.9784 178.62C44.9784 175.62 47.7984 173.62 51.5584 173.62ZM51.5584 174.98C48.6984 174.98 46.5784 176.44 46.5784 178.62C46.5784 180.78 48.6984 182.26 51.5584 182.26C54.4184 182.26 56.5384 180.78 56.5384 178.62C56.5384 176.44 54.4184 174.98 51.5584 174.98ZM43.3984 186.78H59.7784V188.18H43.3984V186.78ZM61.7969 186.96H78.1769V188.34H61.7969V186.96ZM69.1169 183.08H70.7769V187.54H69.1169V183.08ZM63.7769 173.82H76.1569V179.3H65.4769V182.92H63.8369V177.96H74.5169V175.16H63.7769V173.82ZM63.8369 182.22H76.5769V183.58H63.8369V182.22ZM86.2483 184.84H87.6683C91.0083 184.84 93.3083 184.76 96.0283 184.28L96.2083 185.64C93.4083 186.12 91.0483 186.22 87.6683 186.22H86.2483V184.84ZM86.2483 174.12H94.6683V175.5H87.9083V185.32H86.2483V174.12ZM87.4883 179.18H94.2683V180.52H87.4883V179.18ZM97.7083 172.48H99.3883V190.56H97.7083V172.48ZM98.9883 179.74H102.348V181.14H98.9883V179.74ZM105.927 173.66H117.227V175H105.927V173.66ZM103.887 181.42H120.227V182.78H103.887V181.42ZM111.187 182.32H112.847V190.58H111.187V182.32ZM116.447 173.66H118.067V175.22C118.067 177.1 118.067 179.22 117.387 182.28L115.747 182.06C116.447 179.14 116.447 177.04 116.447 175.22V173.66ZM122.265 180.88H138.665V182.14H122.265V180.88ZM124.205 183.6H136.605V187.46H125.905V189.58H124.265V186.32H134.985V184.78H124.205V183.6ZM124.265 189.14H137.185V190.34H124.265V189.14ZM124.345 173H136.545V176.76H126.025V178.72H124.385V175.64H134.925V174.18H124.345V173ZM124.385 178.32H136.885V179.52H124.385V178.32ZM159.117 172.48H160.777V190.56H159.117V172.48ZM150.977 176.78H152.317V178.32C152.317 182.18 150.137 185.68 147.237 187.08L146.297 185.8C148.977 184.56 150.977 181.48 150.977 178.32V176.78ZM151.297 176.78H152.617V178.32C152.617 181.34 154.677 184.28 157.377 185.46L156.437 186.76C153.517 185.44 151.297 182.06 151.297 178.32V176.78ZM146.797 175.62H156.757V176.96H146.797V175.62ZM150.977 172.8H152.637V176.36H150.977V172.8ZM177.575 172.46H179.235V190.58H177.575V172.46ZM174.015 176.6H178.015V177.96H174.015V176.6ZM165.035 184.98H166.375C169.175 184.98 171.475 184.9 174.235 184.46L174.395 185.84C171.555 186.28 169.235 186.38 166.375 186.38H165.035V184.98ZM164.995 174.1H172.895V180.58H166.675V185.3H165.035V179.22H171.255V175.48H164.995V174.1ZM173.895 181.54H177.895V182.9H173.895V181.54ZM184.973 177.9H197.253V179.26H184.973V177.9ZM182.753 181.68H199.153V183.04H182.753V181.68ZM184.973 173.14H186.613V178.58H184.973V173.14ZM184.853 188.76H197.353V190.12H184.853V188.76ZM184.853 184.84H186.493V189.12H184.853V184.84ZM211.225 174.04H212.585V177.28C212.585 181.44 210.345 185.3 207.385 186.8L206.365 185.44C209.045 184.16 211.225 180.7 211.225 177.28V174.04ZM211.505 174.04H212.865V177.28C212.865 180.58 215.025 183.9 217.705 185.14L216.705 186.46C213.765 185.02 211.505 181.3 211.505 177.28V174.04ZM219.585 172.46H221.245V190.58H219.585V172.46ZM226.923 180.92H239.343V182.28H226.923V180.92ZM224.863 186.9H241.243V188.3H224.863V186.9ZM232.183 181.5H233.843V187.46H232.183V181.5ZM226.923 173.92H239.163V175.28H228.583V181.52H226.923V173.92ZM245.322 180.92H257.742V182.28H245.322V180.92ZM243.262 186.9H259.642V188.3H243.262V186.9ZM250.582 181.5H252.242V187.46H250.582V181.5ZM245.322 173.92H257.562V175.28H246.982V181.52H245.322V173.92ZM266.933 181.08H283.273V182.42H266.933V181.08ZM275.093 183.98C278.953 183.98 281.293 185.18 281.293 187.26C281.293 189.34 278.953 190.52 275.093 190.52C271.233 190.52 268.893 189.34 268.893 187.26C268.893 185.18 271.233 183.98 275.093 183.98ZM275.093 185.3C272.273 185.3 270.573 186 270.573 187.26C270.573 188.5 272.273 189.22 275.093 189.22C277.933 189.22 279.613 188.5 279.613 187.26C279.613 186 277.933 185.3 275.093 185.3ZM274.033 174.12H275.513V174.66C275.513 177.56 272.193 179.54 268.453 179.98L267.853 178.68C271.093 178.32 274.033 176.7 274.033 174.66V174.12ZM274.733 174.12H276.193V174.66C276.193 176.7 279.133 178.32 282.373 178.68L281.773 179.98C278.033 179.54 274.733 177.56 274.733 174.66V174.12ZM268.433 173.4H281.813V174.74H268.433V173.4ZM297.572 172.46H299.252V190.56H297.572V172.46ZM298.792 179.8H302.132V181.18H298.792V179.8ZM292.952 174.42H294.572C294.572 179.56 292.212 184.2 286.372 187.14L285.452 185.86C290.452 183.32 292.952 179.46 292.952 174.68V174.42ZM286.292 174.42H293.812V175.78H286.292V174.42ZM315.99 172.48H317.65V190.56H315.99V172.48ZM317.25 179.9H320.61V181.3H317.25V179.9ZM303.65 175.36H314.31V176.72H303.65V175.36ZM309.05 178.22C311.61 178.22 313.45 179.94 313.45 182.38C313.45 184.82 311.61 186.54 309.05 186.54C306.51 186.54 304.65 184.82 304.65 182.38C304.65 179.94 306.51 178.22 309.05 178.22ZM309.05 179.6C307.41 179.6 306.23 180.74 306.23 182.38C306.23 184 307.41 185.16 309.05 185.16C310.69 185.16 311.87 184 311.87 182.38C311.87 180.74 310.69 179.6 309.05 179.6ZM308.19 172.7H309.85V175.98H308.19V172.7ZM323.868 174.28H335.508V175.66H323.868V174.28ZM322.148 186.66H338.488V188.04H322.148V186.66ZM328.488 180.2H330.148V187.34H328.488V180.2ZM334.888 174.28H336.528V176.08C336.528 178.32 336.528 180.8 335.868 184.46L334.208 184.24C334.888 180.78 334.888 178.24 334.888 176.08V174.28ZM350.34 183.6H351.62V184.58C351.62 186.94 350.14 189.32 347.54 190.32L346.7 189.08C348.98 188.26 350.34 186.32 350.34 184.58V183.6ZM350.7 183.6H351.94V184.58C351.94 186.4 353.02 188.34 355.18 189.22L354.48 190.48C351.88 189.46 350.7 186.98 350.7 184.58V183.6ZM357.02 183.6H358.26V184.58C358.26 186.7 357.06 189.38 354.48 190.48L353.78 189.22C355.92 188.24 357.02 186.14 357.02 184.58V183.6ZM357.36 183.6H358.64V184.58C358.64 186.44 359.98 188.3 362.28 189.08L361.44 190.32C358.8 189.36 357.36 187.08 357.36 184.58V183.6ZM358.98 172.5H360.66V182.82H358.98V172.5ZM350.96 173.54C353.7 173.54 355.66 175.26 355.66 177.76C355.66 180.26 353.7 181.96 350.96 181.96C348.22 181.96 346.24 180.26 346.24 177.76C346.24 175.26 348.22 173.54 350.96 173.54ZM350.96 174.92C349.16 174.92 347.86 176.08 347.86 177.76C347.86 179.44 349.16 180.58 350.96 180.58C352.76 180.58 354.06 179.44 354.06 177.76C354.06 176.08 352.76 174.92 350.96 174.92ZM366.298 183.32H367.938V185.42H376.778V183.32H378.438V190.32H366.298V183.32ZM367.938 186.7V188.98H376.778V186.7H367.938ZM364.218 180.72H380.558V182.06H364.218V180.72ZM371.558 172.68H372.978V173.48C372.978 176.62 369.478 178.88 365.758 179.44L365.158 178.14C368.418 177.7 371.558 175.76 371.558 173.48V172.68ZM371.818 172.68H373.238V173.48C373.238 175.72 376.418 177.7 379.638 178.14L379.018 179.44C375.338 178.88 371.818 176.58 371.818 173.48V172.68ZM395.777 172.48H397.437V190.56H395.777V172.48ZM383.777 174.24H385.417V185.44H383.777V174.24ZM383.777 184.46H385.257C387.997 184.46 390.857 184.26 393.917 183.62L394.117 185.04C390.977 185.68 388.117 185.9 385.257 185.9H383.777V184.46ZM413.255 172.46H414.935V190.58H413.255V172.46ZM414.535 179.6H417.895V181H414.535V179.6ZM401.795 184.68H403.215C406.555 184.68 408.895 184.56 411.595 184.06L411.775 185.46C408.995 185.98 406.615 186.08 403.215 186.08H401.795V184.68ZM401.795 174.22H410.195V175.58H403.435V185.3H401.795V174.22ZM421.26 189.135C420.872 189.135 420.538 188.998 420.259 188.723C419.98 188.444 419.84 188.107 419.84 187.714C419.84 187.326 419.98 186.995 420.259 186.72C420.538 186.441 420.872 186.301 421.26 186.301C421.649 186.301 421.982 186.441 422.262 186.72C422.541 186.995 422.681 187.326 422.681 187.714C422.681 187.975 422.614 188.214 422.482 188.432C422.354 188.645 422.184 188.815 421.971 188.943C421.757 189.071 421.521 189.135 421.26 189.135Z" fill="black"/>
<g clip-path="url(#clip0_1377_268)">
<path d="M213 53C222.941 53 231 44.9411 231 35C231 25.0589 222.941 17 213 17C203.059 17 195 25.0589 195 35C195 44.9411 203.059 53 213 53Z" fill="#E1E8ED"/>
<path d="M226.802 46.5462C223.792 45.2212 222 41.0482 222 35.0002C222 28.9522 223.792 24.7792 226.802 23.4542C226.356 22.9258 225.879 22.4237 225.374 21.9502C222.406 23.6052 220 27.5782 220 35.0002C220 42.4212 222.406 46.3952 225.374 48.0502C225.876 47.5732 226.358 47.0772 226.802 46.5462ZM206 35.0002C206 27.5792 203.594 23.6052 200.626 21.9512C200.122 22.4243 199.645 22.9262 199.198 23.4542C202.208 24.7802 204 28.9522 204 35.0002C204 41.0482 202.208 45.2202 199.198 46.5462C199.643 47.0772 200.124 47.5732 200.626 48.0502C203.593 46.3952 206 42.4212 206 35.0002Z" fill="#B3BEC4"/>
<path d="M200.092 27.164C199.855 27.164 199.635 27.144 199.441 27.108C199.18 27.0592 198.95 26.9088 198.8 26.69C198.726 26.5816 198.674 26.4597 198.646 26.3312C198.619 26.2027 198.618 26.0701 198.642 25.941C198.666 25.8119 198.716 25.6888 198.787 25.5788C198.859 25.4688 198.952 25.374 199.06 25.2998C199.279 25.15 199.548 25.0932 199.809 25.142C200.239 25.219 202.5 25.148 202.957 22.866C203.009 22.606 203.162 22.3773 203.383 22.2302C203.492 22.1574 203.615 22.1069 203.744 22.0814C203.873 22.056 204.005 22.0562 204.134 22.082C204.263 22.1078 204.385 22.1587 204.494 22.2318C204.603 22.3049 204.697 22.3988 204.77 22.5081C204.843 22.6174 204.893 22.74 204.919 22.8688C204.944 22.9977 204.944 23.1302 204.918 23.259C204.335 26.171 201.779 27.164 200.092 27.164ZM201.792 31.125C201.262 31.125 200.84 30.802 200.814 30.266C200.788 29.715 201.214 29.355 201.766 29.329C201.766 29.329 204.33 29.294 205.635 27.035C205.701 26.9219 205.789 26.823 205.894 26.744C205.998 26.665 206.117 26.6075 206.244 26.5748C206.371 26.5421 206.503 26.5348 206.633 26.5533C206.763 26.5719 206.887 26.616 207 26.683C207.478 26.959 207.642 27.577 207.365 28.056C205.514 31.262 201.808 31.125 201.792 31.125ZM204 36.282C203.266 36.282 202.586 36.147 202.072 35.904C201.832 35.7905 201.647 35.5864 201.558 35.3366C201.469 35.0868 201.483 34.8118 201.596 34.572C201.71 34.3322 201.914 34.1474 202.163 34.0581C202.413 33.9689 202.688 33.9825 202.928 34.096C203.758 34.489 205.854 34.335 206.658 33.084C206.729 32.9735 206.821 32.878 206.929 32.8031C207.037 32.7282 207.158 32.6752 207.287 32.6473C207.415 32.6193 207.548 32.6169 207.677 32.6402C207.806 32.6635 207.93 32.712 208.04 32.783C208.151 32.854 208.246 32.946 208.321 33.0539C208.396 33.1618 208.449 33.2833 208.477 33.4117C208.505 33.54 208.507 33.6726 208.484 33.8018C208.461 33.9311 208.412 34.0545 208.341 34.165C207.377 35.666 205.565 36.282 204 36.282ZM205.161 41.807C203.607 41.807 202.166 41.108 201.235 40.331C201.134 40.247 201.051 40.1439 200.99 40.0276C200.929 39.9113 200.891 39.7842 200.879 39.6534C200.867 39.5226 200.881 39.3907 200.92 39.2653C200.959 39.1399 201.023 39.0234 201.107 38.9225C201.191 38.8216 201.294 38.7382 201.41 38.6771C201.526 38.616 201.653 38.5785 201.784 38.5665C201.915 38.5546 202.047 38.5686 202.172 38.6076C202.298 38.6466 202.414 38.71 202.515 38.794C202.709 38.957 204.467 40.36 206.297 39.579C206.418 39.5277 206.548 39.5008 206.679 39.4997C206.811 39.4986 206.941 39.5234 207.063 39.5726C207.184 39.6219 207.295 39.6947 207.389 39.7868C207.483 39.8789 207.557 39.9886 207.609 40.1095C207.66 40.2304 207.687 40.3603 207.688 40.4917C207.689 40.623 207.664 40.7533 207.615 40.8751C207.566 40.9969 207.493 41.1078 207.401 41.2015C207.309 41.2951 207.199 41.3697 207.078 41.421C206.471 41.6772 205.82 41.8084 205.161 41.807ZM204.75 47H204.722C202.218 47 200.043 45.43 199.188 43.892C198.919 43.41 199.094 42.848 199.576 42.58C200.059 42.311 200.668 42.51 200.936 42.992C201.42 43.863 202.932 45.126 204.777 45.177C205.329 45.193 205.764 45.565 205.749 46.116C205.734 46.658 205.29 47 204.75 47ZM222.188 47.188C222.04 47.1881 221.894 47.1553 221.76 47.092C221.626 47.0287 221.508 46.9364 221.414 46.8219C221.32 46.7073 221.253 46.5734 221.217 46.4297C221.181 46.286 221.178 46.1362 221.207 45.991C221.871 42.669 225.101 41.841 226.685 42.142C226.946 42.191 227.176 42.3415 227.326 42.5603C227.475 42.7791 227.532 43.0484 227.483 43.309C227.46 43.4384 227.411 43.5618 227.339 43.6721C227.267 43.7824 227.175 43.8774 227.066 43.9517C226.958 44.0259 226.835 44.0778 226.707 44.1045C226.578 44.1312 226.445 44.132 226.316 44.107C225.891 44.027 223.626 44.1 223.169 46.383C223.124 46.61 223.002 46.8143 222.823 46.961C222.644 47.1078 222.419 47.188 222.188 47.188ZM219.624 42.688C219.449 42.6881 219.276 42.642 219.124 42.5542C218.972 42.4664 218.846 42.3401 218.758 42.1881C218.67 42.036 218.624 41.8634 218.624 41.6879C218.625 41.5123 218.671 41.3399 218.759 41.188C220.611 37.982 222.743 37.884 224.153 37.819L224.264 37.814C224.529 37.8013 224.788 37.8943 224.985 38.0727C225.181 38.251 225.298 38.5 225.311 38.765C225.324 39.03 225.231 39.2891 225.052 39.4855C224.874 39.6818 224.625 39.7993 224.36 39.812L224.245 39.817C223.041 39.873 221.796 39.929 220.491 42.188C220.403 42.3402 220.277 42.4665 220.125 42.5543C219.972 42.642 219.8 42.6882 219.624 42.688ZM218.624 36.625C218.445 36.625 218.268 36.5767 218.114 36.4851C217.96 36.3935 217.833 36.262 217.747 36.1044C217.661 35.9468 217.619 35.769 217.626 35.5896C217.632 35.4102 217.687 35.2359 217.784 35.085C219.199 32.882 222.44 32.584 224.052 33.347C224.29 33.4612 224.474 33.6652 224.562 33.9143C224.651 34.1634 224.637 34.4373 224.524 34.6763C224.411 34.9152 224.208 35.0997 223.959 35.1894C223.711 35.2791 223.437 35.2667 223.197 35.155C222.368 34.762 220.271 34.916 219.465 36.167C219.374 36.3076 219.25 36.4232 219.103 36.5032C218.956 36.5832 218.791 36.6251 218.624 36.625ZM224.249 30.688C224.015 30.6879 223.789 30.6058 223.609 30.456C223.415 30.294 221.657 28.897 219.828 29.671C219.586 29.7618 219.319 29.7557 219.082 29.654C218.845 29.5523 218.656 29.3629 218.555 29.1253C218.454 28.8877 218.449 28.6203 218.54 28.3789C218.632 28.1376 218.813 27.9409 219.046 27.83C221.265 26.888 223.581 27.829 224.89 28.92C225.048 29.0516 225.161 29.2287 225.215 29.4271C225.269 29.6255 225.26 29.8356 225.19 30.0288C225.12 30.2221 224.992 30.389 224.823 30.507C224.655 30.6249 224.455 30.6881 224.249 30.688ZM226.063 26.75C225.885 26.7502 225.709 26.7026 225.556 26.6122C225.402 26.5219 225.275 26.392 225.188 26.236C224.704 25.364 223.192 24.113 221.347 24.062C220.794 24.047 220.36 23.556 220.374 23.003C220.391 22.461 220.835 22 221.374 22H221.402C223.907 22 226.082 23.694 226.936 25.232C227.065 25.4664 227.097 25.7423 227.024 25.9999C226.951 26.2575 226.78 26.476 226.547 26.608C226.401 26.6959 226.234 26.7448 226.063 26.75Z" fill="#DD2E44"/>
</g>
<defs>
<clipPath id="clip0_1377_268">
<rect width="36" height="36" fill="white" transform="translate(195 17)"/>
</clipPath>
</defs>
</svg>
