<svg width="570" height="270" viewBox="0 0 570 270" fill="none" xmlns="http://www.w3.org/2000/svg">
<rect x="0.5" y="0.5" width="569" height="169" rx="17.5" fill="white" stroke="#8A9A6B"/>
<rect x="0.5" y="0.5" width="569" height="269" rx="17.5" fill="white" stroke="#8A9A6B"/>
<path d="M40.7406 22.995H44.2414V41.2097H40.7406V22.995ZM43.2412 30.4177H47.479V33.2868H43.2412V30.4177ZM25.0529 25.5219H39.3982V28.2594H25.0529V25.5219ZM32.2387 29.128C35.7395 29.128 38.2138 31.0495 38.2138 33.8396C38.2138 36.6297 35.7395 38.5248 32.2387 38.5248C28.7116 38.5248 26.2373 36.6297 26.2373 33.8396C26.2373 31.0495 28.7116 29.128 32.2387 29.128ZM32.2387 31.7865C30.6857 31.7865 29.6065 32.5235 29.6065 33.8396C29.6065 35.1557 30.6857 35.8663 32.2387 35.8663C33.7917 35.8663 34.8709 35.1557 34.8709 33.8396C34.8709 32.5235 33.7917 31.7865 32.2387 31.7865ZM30.4752 22.9424H33.9759V26.8643H30.4752V22.9424ZM28.5273 44.1314H45.1101V46.9215H28.5273V44.1314ZM28.5273 39.8409H32.0281V45.3422H28.5273V39.8409ZM72.5365 22.9687H76.0636V36.0769H72.5365V22.9687ZM59.8494 37.1298H63.2976V39.3935H72.5892V37.1298H76.0636V47.0794H59.8494V37.1298ZM63.2976 42.0783V44.2893H72.5892V42.0783H63.2976ZM62.7975 23.9689C66.5878 23.9689 69.4042 26.3642 69.4042 29.7334C69.4042 33.1026 66.5878 35.4978 62.7975 35.4978C59.0071 35.4978 56.1644 33.1026 56.1644 29.7334C56.1644 26.3642 59.0071 23.9689 62.7975 23.9689ZM62.7975 26.8643C60.9286 26.8643 59.5862 27.9435 59.5862 29.7334C59.5862 31.5496 60.9286 32.6024 62.7975 32.6024C64.64 32.6024 65.9824 31.5496 65.9824 29.7334C65.9824 27.9435 64.64 26.8643 62.7975 26.8643ZM93.0667 24.6533C96.778 24.6533 99.4628 28.0225 99.4628 33.3395C99.4628 38.7091 96.778 42.0783 93.0667 42.0783C89.3553 42.0783 86.6705 38.7091 86.6705 33.3395C86.6705 28.0225 89.3553 24.6533 93.0667 24.6533ZM93.0667 27.8382C91.2505 27.8382 90.0397 29.7597 90.0397 33.3395C90.0397 36.9719 91.2505 38.9197 93.0667 38.9197C94.8829 38.9197 96.12 36.9719 96.12 33.3395C96.12 29.7597 94.8829 27.8382 93.0667 27.8382ZM104.701 28.6279H108.991V31.5233H104.701V28.6279ZM104.701 35.7874H108.991V38.6565H104.701V35.7874ZM102.121 22.9687H105.648V47.3426H102.121V22.9687ZM113.28 24.3901H128.573V27.1538H113.28V24.3901ZM110.779 34.7608H132.81V37.5773H110.779V34.7608ZM119.913 36.735H123.44V47.369H119.913V36.735ZM126.783 24.3901H130.231V26.5484C130.231 29.1806 130.231 32.1287 129.283 36.4454L125.835 36.0506C126.783 31.9707 126.783 29.0753 126.783 26.5484V24.3901ZM146.839 24.2848H149.708V26.4432C149.708 31.2864 147.602 35.5505 142.97 37.1561L141.101 34.3923C145.181 33.0236 146.839 29.7597 146.839 26.4432V24.2848ZM147.55 24.2848H150.393V26.7853C150.393 29.7071 152.025 32.5498 155.841 33.7343L154.025 36.4454C149.629 34.9714 147.55 31.1811 147.55 26.7853V24.2848ZM157.184 22.9687H160.684V37.3667H157.184V22.9687ZM159.71 28.6015H163.922V31.4969H159.71V28.6015ZM152.735 37.9194C157.789 37.9194 160.974 39.683 160.974 42.631C160.974 45.6054 157.789 47.3426 152.735 47.3426C147.655 47.3426 144.47 45.6054 144.47 42.631C144.47 39.683 147.655 37.9194 152.735 37.9194ZM152.735 40.6306C149.629 40.6306 147.945 41.2886 147.945 42.631C147.945 43.9998 149.629 44.6315 152.735 44.6315C155.841 44.6315 157.499 43.9998 157.499 42.631C157.499 41.2886 155.841 40.6306 152.735 40.6306ZM171.422 24.0742H174.317V26.4168C174.317 31.0231 172.08 35.2083 167.315 36.735L165.605 33.9712C169.711 32.6551 171.422 29.4965 171.422 26.4168V24.0742ZM172.132 24.0742H175.001V26.4168C175.001 29.4175 176.686 32.3656 180.661 33.5764L178.95 36.3138C174.291 34.8398 172.132 30.9442 172.132 26.4168V24.0742ZM169.342 38.5775H185.978V47.3426H182.45V41.3676H169.342V38.5775ZM182.45 22.9687H185.978V37.4983H182.45V22.9687Z" fill="black"/>
<path d="M37.52 76.28H40.2V89.58H37.52V76.28ZM27.86 92.34H40.66V94.46H27.86V92.34ZM27.86 88.24H30.52V93.2H27.86V88.24ZM30.12 77.44C32.96 77.44 35.14 79.4 35.14 82.14C35.14 84.86 32.96 86.84 30.12 86.84C27.28 86.84 25.08 84.86 25.08 82.14C25.08 79.4 27.28 77.44 30.12 77.44ZM30.12 79.74C28.74 79.74 27.68 80.62 27.68 82.14C27.68 83.64 28.74 84.52 30.12 84.52C31.48 84.52 32.54 83.64 32.54 82.14C32.54 80.62 31.48 79.74 30.12 79.74ZM55.9584 76.26H58.6384V85.74H55.9584V76.26ZM46.0984 86.48H58.6384V91.48H48.7584V93.72H46.1384V89.58H55.9984V88.52H46.0984V86.48ZM46.1384 92.6H59.1384V94.66H46.1384V92.6ZM43.9984 77.38H53.9784V79.42H43.9984V77.38ZM43.7784 85.42L43.5184 83.32C46.7584 83.32 51.0784 83.26 54.6584 82.82L54.7984 84.72C51.1384 85.32 46.9784 85.4 43.7784 85.42ZM45.4584 78.3H47.9984V84.36H45.4584V78.3ZM49.9384 78.3H52.5184V84.36H49.9384V78.3ZM63.5569 84.8H76.5769V86.92H63.5569V84.8ZM61.6169 90.38H78.3769V92.56H61.6169V90.38ZM63.5569 77.78H76.4369V79.94H66.1969V85.68H63.5569V77.78ZM86.0842 76.76H99.8842V78.74H86.0842V76.76ZM86.2242 81.1H99.7442V83.08H86.2242V81.1ZM88.4442 77.54H91.1042V82.38H88.4442V77.54ZM94.8642 77.54H97.5242V82.38H94.8642V77.54ZM84.6242 84.04H101.364V86.12H84.6242V84.04ZM86.5442 87.14H99.3442V91.74H89.1842V93.46H86.5642V89.96H96.7242V89.04H86.5442V87.14ZM86.5642 92.72H99.8242V94.66H86.5642V92.72ZM114.903 76.24H117.543V94.82H114.903V76.24ZM116.943 83.24H120.223V85.44H116.943V83.24ZM103.783 88.34H105.343C108.483 88.34 110.923 88.24 113.643 87.76L113.903 89.9C111.103 90.4 108.563 90.52 105.343 90.52H103.783V88.34ZM103.763 77.82H112.283V85H106.423V89.16H103.783V82.88H109.643V79.94H103.763V77.82ZM134.121 76.24H136.801V94.82H134.121V76.24ZM126.821 77.54C129.621 77.54 131.681 80.1 131.681 84.14C131.681 88.22 129.621 90.78 126.821 90.78C124.021 90.78 121.961 88.22 121.961 84.14C121.961 80.1 124.021 77.54 126.821 77.54ZM126.821 79.96C125.441 79.96 124.501 81.42 124.501 84.14C124.501 86.9 125.441 88.38 126.821 88.38C128.201 88.38 129.121 86.9 129.121 84.14C129.121 81.42 128.201 79.96 126.821 79.96ZM146.428 77.28H158.028V79.42H146.428V77.28ZM144.468 85.24H161.208V87.38H144.468V85.24ZM148.208 86.78H150.868V94.8H148.208V86.78ZM156.448 77.28H159.068V78.48C159.068 80.12 159.068 82.46 158.448 85.84L155.808 85.66C156.448 82.4 156.448 80.08 156.448 78.48V77.28ZM154.608 86.78H157.268V94.8H154.608V86.78ZM167.367 79.68H169.547V80.34C169.547 83.6 167.847 86.5 164.247 87.5L163.007 85.44C166.047 84.56 167.367 82.44 167.367 80.34V79.68ZM167.867 79.68H170.027V80.34C170.027 82.3 171.387 84.32 174.407 85.12L173.187 87.18C169.587 86.22 167.867 83.46 167.867 80.34V79.68ZM163.627 78.18H173.747V80.26H163.627V78.18ZM167.367 76.2H170.027V79.08H167.367V76.2ZM175.567 76.26H178.247V87.62H175.567V76.26ZM165.607 88.4H178.247V94.78H175.567V90.52H165.607V88.4ZM32.24 102.26H33.68V103.02C33.68 106.26 30.24 108.64 26.6 109.26L25.96 107.94C29.14 107.48 32.24 105.4 32.24 103.02V102.26ZM32.66 102.26H34.08V103.02C34.08 105.4 37.2 107.48 40.36 107.94L39.74 109.26C36.08 108.64 32.66 106.26 32.66 103.02V102.26ZM32.3 111.66H33.94V118.56H32.3V111.66ZM25 110.78H41.34V112.14H25V110.78ZM26.52 101.6H39.76V102.94H26.52V101.6ZM47.8584 103.06H49.1784V106C49.1784 109.76 46.8784 113.64 44.0584 115.08L43.0984 113.76C45.6784 112.5 47.8584 109.06 47.8584 106V103.06ZM48.1584 103.06H49.4784V106C49.4784 108.86 51.5184 112.08 54.1384 113.32L53.1984 114.64C50.3384 113.22 48.1584 109.58 48.1584 106V103.06ZM43.7384 102.32H53.4784V103.72H43.7384V102.32ZM55.6184 100.48H57.2984V118.56H55.6184V100.48ZM56.8984 107.78H60.2584V109.18H56.8984V107.78ZM74.0169 100.46H75.6969V118.56H74.0169V100.46ZM75.2369 107.8H78.5769V109.18H75.2369V107.8ZM69.3969 102.42H71.0169C71.0169 107.56 68.6569 112.2 62.8169 115.14L61.8969 113.86C66.8969 111.32 69.3969 107.46 69.3969 102.68V102.42ZM62.7369 102.42H70.2569V103.78H62.7369V102.42ZM91.4059 102.455V117H89.2042V104.656H89.119L85.6388 106.929V104.827L89.2681 102.455H91.4059ZM96.8814 101.2H109.321V105.92H98.6014V109.04H96.9214V104.64H107.661V102.54H96.8814V101.2ZM96.9214 108.22H109.741V109.58H96.9214V108.22ZM94.9214 111.44H111.321V112.82H94.9214V111.44ZM102.261 111.96H103.901V118.58H102.261V111.96ZM116.53 115.011L116.424 115.786C116.353 116.354 116.232 116.946 116.061 117.561C115.896 118.181 115.723 118.757 115.543 119.287C115.368 119.817 115.223 120.239 115.11 120.551H113.604C113.666 120.258 113.751 119.86 113.86 119.358C113.969 118.861 114.075 118.304 114.179 117.689C114.283 117.073 114.362 116.446 114.414 115.807L114.485 115.011H116.53ZM124.559 117V115.409L129.481 110.31C130.007 109.756 130.44 109.27 130.781 108.854C131.127 108.432 131.385 108.032 131.555 107.653C131.725 107.275 131.811 106.872 131.811 106.446C131.811 105.963 131.697 105.546 131.47 105.196C131.243 104.841 130.932 104.569 130.539 104.379C130.146 104.185 129.704 104.088 129.211 104.088C128.69 104.088 128.236 104.195 127.848 104.408C127.459 104.621 127.161 104.921 126.953 105.31C126.744 105.698 126.64 106.152 126.64 106.673H124.545C124.545 105.788 124.749 105.014 125.156 104.351C125.563 103.688 126.122 103.174 126.832 102.81C127.542 102.44 128.35 102.256 129.254 102.256C130.168 102.256 130.973 102.438 131.669 102.803C132.369 103.162 132.916 103.655 133.309 104.28C133.702 104.9 133.899 105.601 133.899 106.382C133.899 106.922 133.797 107.45 133.593 107.966C133.395 108.482 133.047 109.057 132.549 109.692C132.052 110.321 131.361 111.086 130.475 111.986L127.585 115.011V115.118H134.133V117H124.559ZM138.366 101.2H150.806V105.92H140.086V109.04H138.406V104.64H149.146V102.54H138.366V101.2ZM138.406 108.22H151.226V109.58H138.406V108.22ZM136.406 111.44H152.806V112.82H136.406V111.44ZM143.746 111.96H145.386V118.58H143.746V111.96ZM162.144 107.5H165.564V108.88H162.144V107.5ZM168.584 100.48H170.184V118.56H168.584V100.48ZM165.004 100.86H166.584V117.66H165.004V100.86ZM158.884 101.98C161.224 101.98 162.744 104.4 162.744 108.28C162.744 112.16 161.224 114.58 158.884 114.58C156.544 114.58 155.044 112.16 155.044 108.28C155.044 104.4 156.544 101.98 158.884 101.98ZM158.884 103.52C157.464 103.52 156.564 105.36 156.564 108.28C156.564 111.2 157.464 113.04 158.884 113.04C160.324 113.04 161.224 111.2 161.224 108.28C161.224 105.36 160.324 103.52 158.884 103.52ZM183.016 111.6H184.296V112.58C184.296 114.94 182.816 117.32 180.216 118.32L179.376 117.08C181.656 116.26 183.016 114.32 183.016 112.58V111.6ZM183.376 111.6H184.616V112.58C184.616 114.4 185.696 116.34 187.856 117.22L187.156 118.48C184.556 117.46 183.376 114.98 183.376 112.58V111.6ZM189.696 111.6H190.936V112.58C190.936 114.7 189.736 117.38 187.156 118.48L186.456 117.22C188.596 116.24 189.696 114.14 189.696 112.58V111.6ZM190.036 111.6H191.316V112.58C191.316 114.44 192.656 116.3 194.956 117.08L194.116 118.32C191.476 117.36 190.036 115.08 190.036 112.58V111.6ZM191.656 100.5H193.336V110.82H191.656V100.5ZM183.636 101.54C186.376 101.54 188.336 103.26 188.336 105.76C188.336 108.26 186.376 109.96 183.636 109.96C180.896 109.96 178.916 108.26 178.916 105.76C178.916 103.26 180.896 101.54 183.636 101.54ZM183.636 102.92C181.836 102.92 180.536 104.08 180.536 105.76C180.536 107.44 181.836 108.58 183.636 108.58C185.436 108.58 186.736 107.44 186.736 105.76C186.736 104.08 185.436 102.92 183.636 102.92ZM210.114 100.48H211.774V118.56H210.114V100.48ZM205.894 107.72H210.854V109.1H205.894V107.72ZM204.314 102.42H205.954C205.954 107.58 203.814 112.14 197.814 115.14L196.894 113.84C202.154 111.26 204.314 107.42 204.314 102.7V102.42ZM197.674 102.42H205.194V103.78H197.674V102.42ZM228.753 107.68H232.093V109.08H228.753V107.68ZM227.533 100.46H229.213V118.56H227.533V100.46ZM216.013 102.24H217.673V113.44H216.013V102.24ZM216.013 112.58H217.453C220.133 112.58 222.873 112.4 225.853 111.78L226.053 113.16C222.973 113.8 220.192 113.98 217.453 113.98H216.013V112.58ZM244.922 102.455V117H242.72V104.656H242.635L239.154 106.929V104.827L242.784 102.455H244.922ZM250.397 101.2H262.837V105.92H252.117V109.04H250.437V104.64H261.177V102.54H250.397V101.2ZM250.437 108.22H263.257V109.58H250.437V108.22ZM248.437 111.44H264.837V112.82H248.437V111.44ZM255.777 111.96H257.417V118.58H255.777V111.96ZM270.046 115.011L269.939 115.786C269.868 116.354 269.748 116.946 269.577 117.561C269.411 118.181 269.239 118.757 269.059 119.287C268.883 119.817 268.739 120.239 268.625 120.551H267.12C267.181 120.258 267.266 119.86 267.375 119.358C267.484 118.861 267.591 118.304 267.695 117.689C267.799 117.073 267.877 116.446 267.929 115.807L268 115.011H270.046ZM278.075 117V115.409L282.997 110.31C283.522 109.756 283.956 109.27 284.297 108.854C284.642 108.432 284.9 108.032 285.071 107.653C285.241 107.275 285.326 106.872 285.326 106.446C285.326 105.963 285.213 105.546 284.985 105.196C284.758 104.841 284.448 104.569 284.055 104.379C283.662 104.185 283.219 104.088 282.727 104.088C282.206 104.088 281.752 104.195 281.363 104.408C280.975 104.621 280.677 104.921 280.468 105.31C280.26 105.698 280.156 106.152 280.156 106.673H278.061C278.061 105.788 278.264 105.014 278.672 104.351C279.079 103.688 279.637 103.174 280.348 102.81C281.058 102.44 281.865 102.256 282.77 102.256C283.683 102.256 284.488 102.438 285.184 102.803C285.885 103.162 286.432 103.655 286.825 104.28C287.218 104.9 287.414 105.601 287.414 106.382C287.414 106.922 287.313 107.45 287.109 107.966C286.91 108.482 286.562 109.057 286.065 109.692C285.568 110.321 284.877 111.086 283.991 111.986L281.1 115.011V115.118H287.649V117H278.075ZM291.881 101.2H304.321V105.92H293.601V109.04H291.921V104.64H302.661V102.54H291.881V101.2ZM291.921 108.22H304.741V109.58H291.921V108.22ZM289.921 111.44H306.321V112.82H289.921V111.44ZM297.261 111.96H298.901V118.58H297.261V111.96ZM311.53 115.011L311.424 115.786C311.353 116.354 311.232 116.946 311.061 117.561C310.896 118.181 310.723 118.757 310.543 119.287C310.368 119.817 310.223 120.239 310.11 120.551H308.604C308.666 120.258 308.751 119.86 308.86 119.358C308.969 118.861 309.075 118.304 309.179 117.689C309.283 117.073 309.362 116.446 309.414 115.807L309.485 115.011H311.53ZM324.623 117.199C323.648 117.199 322.777 117.031 322.01 116.695C321.247 116.358 320.644 115.892 320.199 115.295C319.758 114.694 319.521 113.998 319.488 113.207H321.718C321.747 113.638 321.891 114.012 322.152 114.33C322.417 114.642 322.762 114.884 323.189 115.054C323.615 115.224 324.088 115.31 324.609 115.31C325.182 115.31 325.689 115.21 326.129 115.011C326.574 114.812 326.922 114.536 327.173 114.18C327.424 113.821 327.549 113.406 327.549 112.938C327.549 112.45 327.424 112.021 327.173 111.652C326.927 111.278 326.565 110.984 326.086 110.771C325.613 110.558 325.04 110.452 324.368 110.452H323.139V108.662H324.368C324.907 108.662 325.381 108.565 325.788 108.371C326.2 108.177 326.522 107.907 326.754 107.561C326.986 107.211 327.102 106.801 327.102 106.332C327.102 105.883 327 105.492 326.797 105.161C326.598 104.824 326.314 104.562 325.944 104.372C325.58 104.183 325.149 104.088 324.652 104.088C324.178 104.088 323.735 104.176 323.324 104.351C322.916 104.521 322.585 104.768 322.329 105.089C322.074 105.407 321.936 105.788 321.917 106.233H319.794C319.817 105.447 320.049 104.756 320.49 104.159C320.935 103.562 321.522 103.096 322.251 102.76C322.98 102.424 323.79 102.256 324.68 102.256C325.613 102.256 326.418 102.438 327.095 102.803C327.777 103.162 328.302 103.643 328.672 104.244C329.046 104.846 329.23 105.504 329.225 106.219C329.23 107.033 329.003 107.724 328.544 108.293C328.089 108.861 327.483 109.242 326.725 109.436V109.55C327.691 109.696 328.44 110.08 328.97 110.7C329.505 111.321 329.77 112.09 329.765 113.009C329.77 113.809 329.547 114.526 329.098 115.161C328.653 115.795 328.044 116.295 327.272 116.659C326.501 117.019 325.618 117.199 324.623 117.199ZM333.991 101.2H346.431V105.92H335.711V109.04H334.031V104.64H344.771V102.54H333.991V101.2ZM334.031 108.22H346.851V109.58H334.031V108.22ZM332.031 111.44H348.431V112.82H332.031V111.44ZM339.371 111.96H341.011V118.58H339.371V111.96ZM357.769 107.5H361.189V108.88H357.769V107.5ZM364.209 100.48H365.809V118.56H364.209V100.48ZM360.629 100.86H362.209V117.66H360.629V100.86ZM354.509 101.98C356.849 101.98 358.369 104.4 358.369 108.28C358.369 112.16 356.849 114.58 354.509 114.58C352.169 114.58 350.669 112.16 350.669 108.28C350.669 104.4 352.169 101.98 354.509 101.98ZM354.509 103.52C353.089 103.52 352.189 105.36 352.189 108.28C352.189 111.2 353.089 113.04 354.509 113.04C355.949 113.04 356.849 111.2 356.849 108.28C356.849 105.36 355.949 103.52 354.509 103.52ZM378.641 111.6H379.921V112.58C379.921 114.94 378.441 117.32 375.841 118.32L375.001 117.08C377.281 116.26 378.641 114.32 378.641 112.58V111.6ZM379.001 111.6H380.241V112.58C380.241 114.4 381.321 116.34 383.481 117.22L382.781 118.48C380.181 117.46 379.001 114.98 379.001 112.58V111.6ZM385.321 111.6H386.561V112.58C386.561 114.7 385.361 117.38 382.781 118.48L382.081 117.22C384.221 116.24 385.321 114.14 385.321 112.58V111.6ZM385.661 111.6H386.941V112.58C386.941 114.44 388.281 116.3 390.581 117.08L389.741 118.32C387.101 117.36 385.661 115.08 385.661 112.58V111.6ZM387.281 100.5H388.961V110.82H387.281V100.5ZM379.261 101.54C382.001 101.54 383.961 103.26 383.961 105.76C383.961 108.26 382.001 109.96 379.261 109.96C376.521 109.96 374.541 108.26 374.541 105.76C374.541 103.26 376.521 101.54 379.261 101.54ZM379.261 102.92C377.461 102.92 376.161 104.08 376.161 105.76C376.161 107.44 377.461 108.58 379.261 108.58C381.061 108.58 382.361 107.44 382.361 105.76C382.361 104.08 381.061 102.92 379.261 102.92ZM394.739 105.9H407.019V107.26H394.739V105.9ZM392.519 109.68H408.919V111.04H392.519V109.68ZM394.739 101.14H396.379V106.58H394.739V101.14ZM394.619 116.76H407.119V118.12H394.619V116.76ZM394.619 112.84H396.259V117.12H394.619V112.84ZM420.61 101.42H421.99V103.26C421.99 106.74 420.03 109.62 417.01 110.8L416.13 109.46C418.85 108.46 420.61 106.02 420.61 103.26V101.42ZM420.91 101.42H422.27V103.38C422.27 105.82 424.07 108.08 426.67 108.98L425.79 110.28C422.89 109.2 420.91 106.52 420.91 103.38V101.42ZM428.59 100.48H430.25V111.44H428.59V100.48ZM429.79 105.14H432.93V106.54H429.79V105.14ZM424.49 111.94C428.19 111.94 430.43 113.16 430.43 115.24C430.43 117.32 428.19 118.52 424.49 118.52C420.79 118.52 418.55 117.32 418.55 115.24C418.55 113.16 420.79 111.94 424.49 111.94ZM424.49 113.26C421.81 113.26 420.17 113.98 420.17 115.24C420.17 116.5 421.81 117.22 424.49 117.22C427.17 117.22 428.81 116.5 428.81 115.24C428.81 113.98 427.17 113.26 424.49 113.26ZM446.969 100.5H448.629V112.74H446.969V100.5ZM447.929 105.92H451.269V107.32H447.929V105.92ZM442.829 112.98C446.589 112.98 448.769 113.96 448.769 115.76C448.769 117.56 446.589 118.54 442.829 118.54C439.089 118.54 436.909 117.56 436.909 115.76C436.909 113.96 439.089 112.98 442.829 112.98ZM442.829 114.22C440.089 114.22 438.569 114.76 438.569 115.76C438.569 116.76 440.089 117.3 442.829 117.3C445.549 117.3 447.089 116.76 447.089 115.76C447.089 114.76 445.549 114.22 442.829 114.22ZM439.349 108.7H441.009V111.18H439.349V108.7ZM434.729 111.94L434.509 110.62C437.749 110.62 442.189 110.58 445.889 110.04L446.029 111.2C442.189 111.9 437.889 111.94 434.729 111.94ZM434.969 102.04H445.349V103.28H434.969V102.04ZM440.169 104.04C442.729 104.04 444.369 105 444.369 106.6C444.369 108.2 442.729 109.16 440.169 109.16C437.609 109.16 435.949 108.2 435.949 106.6C435.949 105 437.609 104.04 440.169 104.04ZM440.169 105.16C438.549 105.16 437.509 105.72 437.509 106.6C437.509 107.5 438.549 108.04 440.169 108.04C441.789 108.04 442.809 107.5 442.809 106.6C442.809 105.72 441.789 105.16 440.169 105.16ZM439.349 100.34H441.009V102.5H439.349V100.34ZM460.347 107.5H463.767V108.88H460.347V107.5ZM466.787 100.48H468.387V118.56H466.787V100.48ZM463.207 100.86H464.787V117.66H463.207V100.86ZM457.087 101.98C459.427 101.98 460.947 104.4 460.947 108.28C460.947 112.16 459.427 114.58 457.087 114.58C454.747 114.58 453.247 112.16 453.247 108.28C453.247 104.4 454.747 101.98 457.087 101.98ZM457.087 103.52C455.667 103.52 454.767 105.36 454.767 108.28C454.767 111.2 455.667 113.04 457.087 113.04C458.527 113.04 459.427 111.2 459.427 108.28C459.427 105.36 458.527 103.52 457.087 103.52ZM480.446 106.6H485.486V107.96H480.446V106.6ZM476.086 102.04H477.446V105.26C477.446 109.32 475.306 113.2 472.446 114.74L471.386 113.42C474.046 112.1 476.086 108.62 476.086 105.26V102.04ZM476.406 102.04H477.746V105.26C477.746 108.56 479.786 111.84 482.406 113.08L481.426 114.42C478.506 112.94 476.406 109.22 476.406 105.26V102.04ZM484.666 100.46H486.306V118.58H484.666V100.46ZM495.877 112.84H497.297C500.637 112.84 502.937 112.76 505.657 112.28L505.837 113.64C503.037 114.12 500.677 114.22 497.297 114.22H495.877V112.84ZM495.877 102.12H504.297V103.5H497.537V113.32H495.877V102.12ZM497.117 107.18H503.897V108.52H497.117V107.18ZM507.337 100.48H509.017V118.56H507.337V100.48ZM508.617 107.74H511.977V109.14H508.617V107.74ZM517.976 103.06H519.296V106C519.296 109.76 516.996 113.64 514.176 115.08L513.216 113.76C515.796 112.5 517.976 109.06 517.976 106V103.06ZM518.276 103.06H519.596V106C519.596 108.86 521.636 112.08 524.256 113.32L523.316 114.64C520.456 113.22 518.276 109.58 518.276 106V103.06ZM513.856 102.32H523.596V103.72H513.856V102.32ZM525.736 100.48H527.416V118.56H525.736V100.48ZM527.016 107.78H530.376V109.18H527.016V107.78ZM37.22 124.46H38.9V142.56H37.22V124.46ZM38.44 131.8H41.78V133.18H38.44V131.8ZM32.6 126.42H34.22C34.22 131.56 31.86 136.2 26.02 139.14L25.1 137.86C30.1 135.32 32.6 131.46 32.6 126.68V126.42ZM25.94 126.42H33.46V127.78H25.94V126.42ZM61.8314 124.5H63.5114V137.86H61.8314V124.5ZM51.8914 140.8H64.0514V142.16H51.8914V140.8ZM51.8914 136.6H53.5314V141.52H51.8914V136.6ZM53.5914 127.94H54.9514V128.7C54.9514 131.94 52.8914 134.62 49.8714 135.66L49.0514 134.36C51.7314 133.48 53.5914 131.2 53.5914 128.7V127.94ZM53.8714 127.94H55.2314V128.7C55.2314 131.06 57.1114 133.2 59.8114 134.04L59.0114 135.34C55.9514 134.36 53.8714 131.8 53.8714 128.7V127.94ZM49.4714 126.9H59.3114V128.24H49.4714V126.9ZM53.5914 124.56H55.2314V127.54H53.5914V124.56ZM73.1428 136.84H74.5628C77.9028 136.84 80.2028 136.76 82.9228 136.28L83.1028 137.64C80.3028 138.12 77.9428 138.22 74.5628 138.22H73.1428V136.84ZM73.1428 126.12H81.5628V127.5H74.8028V137.32H73.1428V126.12ZM74.3828 131.18H81.1628V132.52H74.3828V131.18ZM84.6028 124.48H86.2828V142.56H84.6028V124.48ZM85.8828 131.74H89.2428V133.14H85.8828V131.74ZM92.8213 125.66H104.121V127H92.8213V125.66ZM90.7813 133.42H107.121V134.78H90.7813V133.42ZM98.0813 134.32H99.7413V142.58H98.0813V134.32ZM103.341 125.66H104.961V127.22C104.961 129.1 104.961 131.22 104.281 134.28L102.641 134.06C103.341 131.14 103.341 129.04 103.341 127.22V125.66ZM121.4 124.46H123.08V142.56H121.4V124.46ZM122.62 131.8H125.96V133.18H122.62V131.8ZM116.78 126.42H118.4C118.4 131.56 116.04 136.2 110.2 139.14L109.28 137.86C114.28 135.32 116.78 131.46 116.78 126.68V126.42ZM110.12 126.42H117.64V127.78H110.12V126.42ZM146.591 124.48H148.191V142.56H146.591V124.48ZM143.551 131.84H147.031V133.2H143.551V131.84ZM142.491 124.88H144.051V141.64H142.491V124.88ZM133.731 126.66H135.391V137.1H133.731V126.66ZM133.731 136.44H134.891C136.751 136.44 138.831 136.32 141.191 135.86L141.371 137.3C138.911 137.78 136.831 137.88 134.891 137.88H133.731V136.44ZM156.07 125.86C158.73 125.86 160.61 128.32 160.61 132.16C160.61 136.02 158.73 138.48 156.07 138.48C153.41 138.48 151.53 136.02 151.53 132.16C151.53 128.32 153.41 125.86 156.07 125.86ZM156.07 127.36C154.31 127.36 153.11 129.24 153.11 132.16C153.11 135.1 154.31 137.02 156.07 137.02C157.81 137.02 159.03 135.1 159.03 132.16C159.03 129.24 157.81 127.36 156.07 127.36ZM164.71 129.02H168.03V130.42H164.71V129.02ZM164.71 134.4H168.03V135.8H164.71V134.4ZM163.49 124.48H165.17V142.56H163.49V124.48ZM176.988 131.5H180.408V132.88H176.988V131.5ZM183.428 124.48H185.028V142.56H183.428V124.48ZM179.848 124.86H181.428V141.66H179.848V124.86ZM173.728 125.98C176.068 125.98 177.588 128.4 177.588 132.28C177.588 136.16 176.068 138.58 173.728 138.58C171.388 138.58 169.888 136.16 169.888 132.28C169.888 128.4 171.388 125.98 173.728 125.98ZM173.728 127.52C172.308 127.52 171.408 129.36 171.408 132.28C171.408 135.2 172.308 137.04 173.728 137.04C175.168 137.04 176.068 135.2 176.068 132.28C176.068 129.36 175.168 127.52 173.728 127.52ZM206.759 124.48H208.419V134.86H206.759V124.48ZM203.459 129.06H208.039V130.42H203.459V129.06ZM193.819 132.74H194.619C195.679 132.74 197.019 132.72 198.579 132.36L198.759 133.74C197.079 134.08 195.739 134.1 194.619 134.1H193.819V132.74ZM193.819 125.78H198.399V127.14H195.459V133.36H193.819V125.78ZM199.379 132.7H200.279C202.199 132.7 203.499 132.66 205.039 132.3L205.199 133.66C203.579 134.02 202.259 134.06 200.279 134.06H199.379V132.7ZM199.379 125.78H204.359V127.14H200.999V133.3H199.379V125.78ZM197.919 135.66H199.199V136.56C199.199 138.94 197.719 141.36 195.119 142.34L194.299 141.12C196.559 140.28 197.919 138.32 197.919 136.56V135.66ZM198.279 135.66H199.519V136.56C199.519 138.4 200.579 140.36 202.759 141.26L202.039 142.5C199.439 141.48 198.279 138.98 198.279 136.56V135.66ZM204.579 135.66H205.819V136.56C205.819 138.68 204.639 141.4 202.039 142.5L201.339 141.26C203.499 140.26 204.579 138.12 204.579 136.56V135.66ZM204.919 135.66H206.199V136.56C206.199 138.44 207.519 140.34 209.839 141.12L208.999 142.34C206.379 141.4 204.919 139.08 204.919 136.56V135.66ZM219.918 124.78C223.898 124.78 226.278 125.9 226.278 127.92C226.278 129.94 223.898 131.06 219.918 131.06C215.918 131.06 213.558 129.94 213.558 127.92C213.558 125.9 215.918 124.78 219.918 124.78ZM219.918 126.04C216.958 126.04 215.258 126.72 215.258 127.92C215.258 129.12 216.958 129.8 219.918 129.8C222.858 129.8 224.558 129.12 224.558 127.92C224.558 126.72 222.858 126.04 219.918 126.04ZM211.738 132.26H228.078V133.6H211.738V132.26ZM213.718 135.14H225.998V139.22H215.398V141.42H213.758V138.02H224.358V136.42H213.718V135.14ZM213.758 141.06H226.538V142.36H213.758V141.06ZM245.789 124.86H247.329V141.66H245.789V124.86ZM246.689 131.84H250.029V133.2H246.689V131.84ZM235.969 136.48H236.689C237.389 136.48 238.569 136.46 239.969 136.12L240.109 137.5C238.609 137.86 237.449 137.86 236.689 137.86H235.969V136.48ZM235.969 126.74H239.829V128.1H237.509V137.26H235.969V126.74ZM240.609 136.48H241.369C242.329 136.48 243.589 136.44 244.969 136.06L245.129 137.44C243.649 137.84 242.409 137.86 241.369 137.86H240.609V136.48ZM240.609 126.74H244.589V128.1H242.129V137.2H240.609V126.74ZM249.449 124.48H251.029V142.56H249.449V124.48ZM266.481 134.28H268.101V137H266.481V134.28ZM259.121 133.4H275.461V134.74H259.121V133.4ZM266.481 124.42H268.121V126.86H266.481V124.42ZM266.401 127.06H267.861V127.36C267.861 130.32 264.541 132.04 260.581 132.44L260.081 131.16C263.581 130.86 266.401 129.42 266.401 127.36V127.06ZM266.741 127.06H268.201V127.36C268.201 129.42 271.021 130.86 274.521 131.16L274.021 132.44C270.061 132.04 266.741 130.32 266.741 127.36V127.06ZM260.801 126.24H273.801V127.56H260.801V126.24ZM267.281 136.54C271.181 136.54 273.481 137.6 273.481 139.54C273.481 141.48 271.181 142.52 267.281 142.52C263.381 142.52 261.081 141.48 261.081 139.54C261.081 137.6 263.381 136.54 267.281 136.54ZM267.281 137.8C264.421 137.8 262.761 138.4 262.761 139.54C262.761 140.64 264.421 141.26 267.281 141.26C270.141 141.26 271.801 140.64 271.801 139.54C271.801 138.4 270.141 137.8 267.281 137.8ZM277.519 134.02H293.899V135.38H277.519V134.02ZM284.999 134.7H286.659V138.86H284.999V134.7ZM279.599 140.8H292.079V142.16H279.599V140.8ZM279.599 137.26H281.239V141.32H279.599V137.26ZM279.699 125.04H281.339V127.34H290.079V125.04H291.739V132.28H279.699V125.04ZM281.339 128.64V130.94H290.079V128.64H281.339ZM309.058 124.48H310.718V142.56H309.058V124.48ZM296.338 127.4H307.178V128.74H296.338V127.4ZM301.778 130.22C304.378 130.22 306.258 131.94 306.258 134.38C306.258 136.82 304.378 138.54 301.778 138.54C299.178 138.54 297.318 136.82 297.318 134.38C297.318 131.94 299.178 130.22 301.778 130.22ZM301.778 131.6C300.118 131.6 298.898 132.74 298.898 134.38C298.898 136 300.118 137.16 301.778 137.16C303.438 137.16 304.658 136 304.658 134.38C304.658 132.74 303.438 131.6 301.778 131.6ZM300.918 124.66H302.578V128.22H300.918V124.66ZM324.049 126.16H325.409V127.62C325.409 130.86 323.389 133.54 320.329 134.6L319.509 133.28C322.229 132.36 324.049 130.14 324.049 127.62V126.16ZM324.349 126.16H325.709V127.6C325.709 129.92 327.449 132.04 330.109 132.9L329.329 134.2C326.309 133.22 324.349 130.64 324.349 127.6V126.16ZM320.009 125.66H329.689V127.02H320.009V125.66ZM331.989 124.48H333.649V134.4H331.989V124.48ZM333.189 128.64H336.329V130.04H333.189V128.64ZM322.249 135.26H323.889V137.42H332.009V135.26H333.649V142.32H322.249V135.26ZM323.889 138.74V140.98H332.009V138.74H323.889ZM346.187 124.78C350.167 124.78 352.547 125.9 352.547 127.92C352.547 129.94 350.167 131.06 346.187 131.06C342.187 131.06 339.827 129.94 339.827 127.92C339.827 125.9 342.187 124.78 346.187 124.78ZM346.187 126.04C343.227 126.04 341.527 126.72 341.527 127.92C341.527 129.12 343.227 129.8 346.187 129.8C349.127 129.8 350.827 129.12 350.827 127.92C350.827 126.72 349.127 126.04 346.187 126.04ZM338.007 132.26H354.347V133.6H338.007V132.26ZM339.987 135.14H352.267V139.22H341.667V141.42H340.027V138.02H350.627V136.42H339.987V135.14ZM340.027 141.06H352.807V142.36H340.027V141.06ZM369.019 125.12H370.479V126.12C370.479 129.58 366.959 132.06 363.199 132.7L362.539 131.36C365.839 130.86 369.019 128.7 369.019 126.12V125.12ZM369.319 125.12H370.759V126.12C370.759 128.64 373.979 130.86 377.239 131.36L376.579 132.7C372.859 132.06 369.319 129.54 369.319 126.12V125.12ZM369.019 135.68H370.659V142.56H369.019V135.68ZM361.719 134.66H378.059V136.04H361.719V134.66ZM389.91 135.6H391.19V136.58C391.19 138.94 389.71 141.32 387.11 142.32L386.27 141.08C388.55 140.26 389.91 138.32 389.91 136.58V135.6ZM390.27 135.6H391.51V136.58C391.51 138.4 392.59 140.34 394.75 141.22L394.05 142.48C391.45 141.46 390.27 138.98 390.27 136.58V135.6ZM396.59 135.6H397.83V136.58C397.83 138.7 396.63 141.38 394.05 142.48L393.35 141.22C395.49 140.24 396.59 138.14 396.59 136.58V135.6ZM396.93 135.6H398.21V136.58C398.21 138.44 399.55 140.3 401.85 141.08L401.01 142.32C398.37 141.36 396.93 139.08 396.93 136.58V135.6ZM398.55 124.5H400.23V134.82H398.55V124.5ZM390.53 125.54C393.27 125.54 395.23 127.26 395.23 129.76C395.23 132.26 393.27 133.96 390.53 133.96C387.79 133.96 385.81 132.26 385.81 129.76C385.81 127.26 387.79 125.54 390.53 125.54ZM390.53 126.92C388.73 126.92 387.43 128.08 387.43 129.76C387.43 131.44 388.73 132.58 390.53 132.58C392.33 132.58 393.63 131.44 393.63 129.76C393.63 128.08 392.33 126.92 390.53 126.92ZM416.029 124.46H417.709V142.58H416.029V124.46ZM417.309 131.6H420.669V133H417.309V131.6ZM404.569 136.68H405.989C409.329 136.68 411.669 136.56 414.369 136.06L414.549 137.46C411.769 137.98 409.389 138.08 405.989 138.08H404.569V136.68ZM404.569 126.22H412.969V127.58H406.209V137.3H404.569V126.22ZM423.927 126.28H435.567V127.66H423.927V126.28ZM422.207 138.66H438.547V140.04H422.207V138.66ZM428.547 132.2H430.207V139.34H428.547V132.2ZM434.947 126.28H436.587V128.08C436.587 130.32 436.587 132.8 435.927 136.46L434.267 136.24C434.947 132.78 434.947 130.24 434.947 128.08V126.28ZM446.438 126.16H456.098V127.52H446.438V126.16ZM446.138 135.12L445.938 133.72C449.098 133.7 453.398 133.66 456.938 133.22L457.058 134.46C453.458 135.02 449.218 135.12 446.138 135.12ZM448.218 127.18H449.818V134H448.218V127.18ZM452.698 127.18H454.298V134H452.698V127.18ZM458.258 124.5H459.918V137.82H458.258V124.5ZM459.398 129.98H462.598V131.38H459.398V129.98ZM448.658 140.8H460.738V142.16H448.658V140.8ZM448.658 136.54H450.318V141.16H448.658V136.54ZM476.657 124.46H478.317V137.56H476.657V124.46ZM477.817 129.84H480.997V131.22H477.817V129.84ZM465.117 133H466.517C470.237 133 472.337 132.9 474.757 132.4L474.937 133.74C472.457 134.26 470.317 134.38 466.517 134.38H465.117V133ZM465.117 126.02H473.097V127.4H466.757V133.74H465.117V126.02ZM467.057 140.8H479.137V142.16H467.057V140.8ZM467.057 136.26H468.717V141.42H467.057V136.26ZM484.115 132.26H493.375V133.62H484.115V132.26ZM487.815 133.34H489.495V137.5H487.815V133.34ZM484.115 126.18H493.275V127.54H485.775V132.74H484.115V126.18ZM495.755 124.46H497.415V142.58H495.755V124.46ZM483.015 138.66L482.775 137.28C486.315 137.26 490.755 137.22 494.575 136.76L494.715 138C490.755 138.6 486.435 138.68 483.015 138.66ZM509.754 127.66H514.814V129.02H509.754V127.66ZM509.754 131.52H514.854V132.9H509.754V131.52ZM501.914 126.04H510.174V134.52H501.914V126.04ZM508.534 127.38H503.534V133.18H508.534V127.38ZM514.294 124.5H515.954V137.7H514.294V124.5ZM504.334 140.8H516.394V142.16H504.334V140.8ZM504.334 136.5H505.994V141.42H504.334V136.5ZM537.925 124.5H539.605V134.76H537.925V124.5ZM527.925 135.8H539.605V142.32H527.925V135.8ZM537.965 137.12H529.545V140.98H537.965V137.12ZM529.485 125.18H530.865V126.94C530.865 130.3 528.785 133.18 525.725 134.32L524.905 133C527.625 132.02 529.485 129.58 529.485 126.94V125.18ZM529.785 125.18H531.145V126.94C531.145 129.5 533.025 131.76 535.705 132.66L534.885 133.96C531.865 132.92 529.785 130.22 529.785 126.94V125.18ZM25.54 150.16H35.2V151.52H25.54V150.16ZM25.24 159.12L25.04 157.72C28.2 157.7 32.5 157.66 36.04 157.22L36.16 158.46C32.56 159.02 28.32 159.12 25.24 159.12ZM27.32 151.18H28.92V158H27.32V151.18ZM31.8 151.18H33.4V158H31.8V151.18ZM37.36 148.5H39.02V161.82H37.36V148.5ZM38.5 153.98H41.7V155.38H38.5V153.98ZM27.76 164.8H39.84V166.16H27.76V164.8ZM27.76 160.54H29.42V165.16H27.76V160.54ZM56.5184 148.46H58.1784V166.58H56.5184V148.46ZM48.6384 149.86C51.3184 149.86 53.2384 152.32 53.2384 156.16C53.2384 160.02 51.3184 162.48 48.6384 162.48C45.9784 162.48 44.0584 160.02 44.0584 156.16C44.0584 152.32 45.9784 149.86 48.6384 149.86ZM48.6384 151.36C46.8784 151.36 45.6384 153.24 45.6384 156.16C45.6384 159.1 46.8784 161.02 48.6384 161.02C50.4184 161.02 51.6384 159.1 51.6384 156.16C51.6384 153.24 50.4184 151.36 48.6384 151.36ZM80.2298 148.5H81.9098V161.7H80.2298V148.5ZM70.2898 164.8H82.4498V166.16H70.2898V164.8ZM70.2898 160.34H71.9298V165.26H70.2898V160.34ZM72.2098 149.74C74.9098 149.74 76.9098 151.58 76.9098 154.2C76.9098 156.8 74.9098 158.66 72.2098 158.66C69.5098 158.66 67.4898 156.8 67.4898 154.2C67.4898 151.58 69.5098 149.74 72.2098 149.74ZM72.2098 151.18C70.4498 151.18 69.1098 152.42 69.1098 154.2C69.1098 155.96 70.4498 157.2 72.2098 157.2C73.9698 157.2 75.3098 155.96 75.3098 154.2C75.3098 152.42 73.9698 151.18 72.2098 151.18ZM98.6483 148.48H100.328V157.84H98.6483V148.48ZM88.5283 158.72H100.328V163.08H90.2083V165.8H88.5883V161.84H98.6683V160.04H88.5283V158.72ZM88.5883 165.04H100.988V166.36H88.5883V165.04ZM86.2883 149.7H95.9883V151.02H86.2883V149.7ZM85.9683 157.24L85.7883 155.86C89.0083 155.86 93.3283 155.78 96.8483 155.34L96.9483 156.56C93.3483 157.1 89.1483 157.22 85.9683 157.24ZM88.0683 150.3H89.6683V156.46H88.0683V150.3ZM92.5883 150.3H94.2083V156.46H92.5883V150.3ZM105.947 157.14H118.367V158.5H105.947V157.14ZM103.887 162.74H120.267V164.12H103.887V162.74ZM105.947 150.14H118.187V151.52H107.607V157.74H105.947V150.14ZM129.078 149.02H142.358V150.32H129.078V149.02ZM129.158 153.76H142.278V155.04H129.158V153.76ZM131.818 149.52H133.478V154.6H131.818V149.52ZM137.978 149.52H139.618V154.6H137.978V149.52ZM127.558 156.54H143.898V157.88H127.558V156.54ZM129.538 159.46H141.818V163.42H131.218V165.6H129.578V162.24H140.178V160.7H129.538V159.46ZM129.578 165.1H142.358V166.36H129.578V165.1ZM158.217 148.46H159.877V166.58H158.217V148.46ZM159.477 155.66H162.837V157.06H159.477V155.66ZM146.697 160.84H148.137C151.537 160.84 153.897 160.72 156.637 160.2L156.817 161.58C153.997 162.08 151.597 162.22 148.137 162.22H146.697V160.84ZM146.657 150.16H154.837V156.64H148.337V161.4H146.697V155.28H153.197V151.52H146.657V150.16ZM177.495 148.46H179.155V166.58H177.495V148.46ZM169.615 149.86C172.295 149.86 174.215 152.32 174.215 156.16C174.215 160.02 172.295 162.48 169.615 162.48C166.955 162.48 165.035 160.02 165.035 156.16C165.035 152.32 166.955 149.86 169.615 149.86ZM169.615 151.36C167.855 151.36 166.615 153.24 166.615 156.16C166.615 159.1 167.855 161.02 169.615 161.02C171.395 161.02 172.615 159.1 172.615 156.16C172.615 153.24 171.395 151.36 169.615 151.36ZM182.753 156.88H199.153V158.14H182.753V156.88ZM184.693 159.6H197.093V163.46H186.393V165.58H184.753V162.32H195.473V160.78H184.693V159.6ZM184.753 165.14H197.673V166.34H184.753V165.14ZM184.833 149H197.033V152.76H186.513V154.72H184.873V151.64H195.413V150.18H184.833V149ZM184.873 154.32H197.373V155.52H184.873V154.32ZM215.725 152.74H220.285V154.12H215.725V152.74ZM210.985 149.58H212.325V151.8C212.325 155.3 210.365 158.22 207.345 159.44L206.485 158.12C209.165 157.12 210.985 154.56 210.985 151.8V149.58ZM211.305 149.58H212.645V151.86C212.645 154.38 214.405 156.76 217.025 157.72L216.125 159C213.245 157.88 211.305 155.08 211.305 151.86V149.58ZM219.665 148.5H221.325V162.02H219.665V148.5ZM209.705 164.8H221.765V166.16H209.705V164.8ZM209.705 160.52H211.365V165.44H209.705V160.52ZM233.863 153.5H238.823V154.84H233.863V153.5ZM238.063 148.5H239.723V161.8H238.063V148.5ZM228.183 164.8H240.223V166.16H228.183V164.8ZM228.183 160.46H229.843V165.38H228.183V160.46ZM229.783 149.64C232.443 149.64 234.443 151.5 234.443 154.12C234.443 156.74 232.443 158.6 229.783 158.6C227.123 158.6 225.123 156.74 225.123 154.12C225.123 151.5 227.123 149.64 229.783 149.64ZM229.783 151.1C228.023 151.1 226.723 152.34 226.723 154.12C226.723 155.9 228.023 157.14 229.783 157.14C231.523 157.14 232.843 155.9 232.843 154.12C232.843 152.34 231.523 151.1 229.783 151.1ZM255.502 148.48H257.162V166.56H255.502V148.48ZM256.762 155.9H260.122V157.3H256.762V155.9ZM243.162 151.36H253.822V152.72H243.162V151.36ZM248.562 154.22C251.122 154.22 252.962 155.94 252.962 158.38C252.962 160.82 251.122 162.54 248.562 162.54C246.022 162.54 244.162 160.82 244.162 158.38C244.162 155.94 246.022 154.22 248.562 154.22ZM248.562 155.6C246.922 155.6 245.742 156.74 245.742 158.38C245.742 160 246.922 161.16 248.562 161.16C250.202 161.16 251.382 160 251.382 158.38C251.382 156.74 250.202 155.6 248.562 155.6ZM247.702 148.7H249.362V151.98H247.702V148.7ZM269.8 152.5H275.26V153.88H269.8V152.5ZM269.8 158.22H275.26V159.6H269.8V158.22ZM266.48 149.86C269.1 149.86 270.98 152.32 270.98 156.16C270.98 160.02 269.1 162.48 266.48 162.48C263.84 162.48 261.98 160.02 261.98 156.16C261.98 152.32 263.84 149.86 266.48 149.86ZM266.48 151.36C264.74 151.36 263.54 153.24 263.54 156.16C263.54 159.1 264.74 161.02 266.48 161.02C268.22 161.02 269.42 159.1 269.42 156.16C269.42 153.24 268.22 151.36 266.48 151.36ZM274.9 148.46H276.54V166.58H274.9V148.46ZM289.812 151.06H291.132V154C291.132 157.76 288.832 161.64 286.012 163.08L285.052 161.76C287.632 160.5 289.812 157.06 289.812 154V151.06ZM290.112 151.06H291.432V154C291.432 156.86 293.472 160.08 296.092 161.32L295.152 162.64C292.292 161.22 290.112 157.58 290.112 154V151.06ZM285.692 150.32H295.432V151.72H285.692V150.32ZM297.572 148.48H299.252V166.56H297.572V148.48ZM298.852 155.78H302.212V157.18H298.852V155.78ZM303.75 157.38H320.09V158.74H303.75V157.38ZM311.09 154.48H312.73V157.94H311.09V154.48ZM305.81 153.96H318.19V155.32H305.81V153.96ZM305.81 149.3H318.05V150.64H307.45V154.76H305.81V149.3ZM311.89 160.04C315.75 160.04 318.09 161.22 318.09 163.28C318.09 165.38 315.75 166.54 311.89 166.54C308.03 166.54 305.69 165.38 305.69 163.28C305.69 161.22 308.03 160.04 311.89 160.04ZM311.89 161.32C309.07 161.32 307.37 162.04 307.37 163.28C307.37 164.54 309.07 165.24 311.89 165.24C314.73 165.24 316.41 164.54 316.41 163.28C316.41 162.04 314.73 161.32 311.89 161.32ZM326.748 150.32H328.108V151.78C328.108 155.08 326.068 157.9 323.048 159.02L322.188 157.7C324.888 156.74 326.748 154.34 326.748 151.78V150.32ZM327.068 150.32H328.408V151.78C328.408 154.1 330.168 156.36 332.788 157.28L331.948 158.6C329.008 157.52 327.068 154.8 327.068 151.78V150.32ZM331.808 153.18H335.828V154.56H331.808V153.18ZM322.708 149.72H332.368V151.06H322.708V149.72ZM324.948 160.28H337.008V166.56H335.348V161.64H324.948V160.28ZM335.348 148.48H337.008V159.3H335.348V148.48ZM348.707 149.62C352.467 149.62 355.267 151.62 355.267 154.62C355.267 157.64 352.467 159.62 348.707 159.62C344.947 159.62 342.127 157.64 342.127 154.62C342.127 151.62 344.947 149.62 348.707 149.62ZM348.707 150.98C345.847 150.98 343.727 152.44 343.727 154.62C343.727 156.78 345.847 158.26 348.707 158.26C351.567 158.26 353.687 156.78 353.687 154.62C353.687 152.44 351.567 150.98 348.707 150.98ZM340.547 162.78H356.927V164.18H340.547V162.78ZM358.945 162.96H375.325V164.34H358.945V162.96ZM366.265 159.08H367.925V163.54H366.265V159.08ZM360.925 149.82H373.305V155.3H362.625V158.92H360.985V153.96H371.665V151.16H360.925V149.82ZM360.985 158.22H373.725V159.58H360.985V158.22ZM383.397 160.84H384.817C388.157 160.84 390.457 160.76 393.177 160.28L393.357 161.64C390.557 162.12 388.197 162.22 384.817 162.22H383.397V160.84ZM383.397 150.12H391.817V151.5H385.057V161.32H383.397V150.12ZM384.637 155.18H391.417V156.52H384.637V155.18ZM394.857 148.48H396.537V166.56H394.857V148.48ZM396.137 155.74H399.497V157.14H396.137V155.74ZM405.495 151.06H406.815V154C406.815 157.76 404.515 161.64 401.695 163.08L400.735 161.76C403.315 160.5 405.495 157.06 405.495 154V151.06ZM405.795 151.06H407.115V154C407.115 156.86 409.155 160.08 411.775 161.32L410.835 162.64C407.975 161.22 405.795 157.58 405.795 154V151.06ZM401.375 150.32H411.115V151.72H401.375V150.32ZM413.255 148.48H414.935V166.56H413.255V148.48ZM414.535 155.78H417.895V157.18H414.535V155.78ZM431.654 148.46H433.334V166.56H431.654V148.46ZM432.874 155.8H436.214V157.18H432.874V155.8ZM427.034 150.42H428.654C428.654 155.56 426.294 160.2 420.454 163.14L419.534 161.86C424.534 159.32 427.034 155.46 427.034 150.68V150.42ZM420.374 150.42H427.894V151.78H420.374V150.42ZM447.925 149.86C450.585 149.86 452.465 152.32 452.465 156.16C452.465 160.02 450.585 162.48 447.925 162.48C445.265 162.48 443.385 160.02 443.385 156.16C443.385 152.32 445.265 149.86 447.925 149.86ZM447.925 151.36C446.165 151.36 444.965 153.24 444.965 156.16C444.965 159.1 446.165 161.02 447.925 161.02C449.665 161.02 450.885 159.1 450.885 156.16C450.885 153.24 449.665 151.36 447.925 151.36ZM455.345 148.48H457.025V166.56H455.345V148.48ZM456.625 155.7H459.985V157.1H456.625V155.7ZM461.503 156.74H477.903V158.1H461.503V156.74ZM468.843 157.32H470.463V160.08H468.843V157.32ZM468.803 160.92H470.223V161.48C470.223 164.24 467.023 166.06 463.243 166.5L462.703 165.22C465.963 164.88 468.803 163.4 468.803 161.48V160.92ZM469.083 160.92H470.503V161.48C470.503 163.46 473.323 164.9 476.603 165.22L476.063 166.5C472.303 166.06 469.083 164.3 469.083 161.48V160.92ZM469.683 148.74C473.603 148.74 476.043 149.96 476.043 152.06C476.043 154.16 473.603 155.38 469.683 155.38C465.743 155.38 463.323 154.16 463.323 152.06C463.323 149.96 465.743 148.74 469.683 148.74ZM469.683 150.02C466.783 150.02 465.023 150.76 465.023 152.06C465.023 153.34 466.783 154.1 469.683 154.1C472.563 154.1 474.343 153.34 474.343 152.06C474.343 150.76 472.563 150.02 469.683 150.02ZM498.435 148.46H500.075V166.58H498.435V148.46ZM494.535 155.72H498.915V157.1H494.535V155.72ZM489.815 152.78H491.135V154.32C491.135 158.14 489.035 161.66 486.175 163.08L485.235 161.8C487.895 160.52 489.815 157.44 489.815 154.32V152.78ZM490.135 152.78H491.435V154.32C491.435 157.3 493.415 160.24 496.075 161.46L495.155 162.74C492.255 161.4 490.135 158.02 490.135 154.32V152.78ZM485.735 151.62H495.455V152.96H485.735V151.62ZM489.795 148.8H491.455V152.36H489.795V148.8ZM516.773 148.46H518.433V166.58H516.773V148.46ZM504.653 160.84H506.153C509.173 160.84 511.873 160.72 515.073 160.2L515.253 161.56C511.973 162.1 509.253 162.22 506.153 162.22H504.653V160.84ZM504.613 150.16H512.973V156.62H506.313V161.36H504.653V155.26H511.293V151.52H504.613V150.16ZM523.432 156.26H532.692V157.62H523.432V156.26ZM527.132 157.34H528.812V161.5H527.132V157.34ZM523.432 150.18H532.592V151.54H525.092V156.74H523.432V150.18ZM535.072 148.46H536.732V166.58H535.072V148.46ZM522.332 162.66L522.092 161.28C525.632 161.26 530.072 161.22 533.892 160.76L534.032 162C530.072 162.6 525.752 162.68 522.332 162.66ZM27.2 177.9H39.48V179.26H27.2V177.9ZM24.98 181.68H41.38V183.04H24.98V181.68ZM27.2 173.14H28.84V178.58H27.2V173.14ZM27.08 188.76H39.58V190.12H27.08V188.76ZM27.08 184.84H28.72V189.12H27.08V184.84ZM50.7514 173.64H62.0514V175H50.7514V173.64ZM48.6914 181.52H65.0314V182.88H48.6914V181.52ZM52.8914 182.36H54.5514V190.56H52.8914V182.36ZM61.1514 173.64H62.7914V174.98C62.7914 176.68 62.7914 178.86 62.1714 181.96L60.5314 181.8C61.1514 178.8 61.1514 176.64 61.1514 174.98V173.64ZM59.0714 182.36H60.7314V190.56H59.0714V182.36ZM71.9898 175.68H73.3498V176.44C73.3498 179.64 71.2898 182.28 68.2498 183.3L67.4298 182C70.1298 181.12 71.9898 178.92 71.9898 176.44V175.68ZM72.2698 175.68H73.6298V176.44C73.6298 178.76 75.5298 180.84 78.2098 181.66L77.4298 182.96C74.3698 182 72.2698 179.5 72.2698 176.44V175.68ZM67.8698 174.66H77.7098V176H67.8698V174.66ZM71.9898 172.4H73.6298V175.36H71.9898V172.4ZM80.2298 172.48H81.9098V183.62H80.2298V172.48ZM69.8298 184.54H81.9098V190.56H80.2298V185.88H69.8298V184.54ZM98.6283 172.48H100.308V182.18H98.6283V172.48ZM88.6483 183.08H90.2883V185.28H98.6683V183.08H100.308V190.32H88.6483V183.08ZM90.2883 186.6V188.98H98.6683V186.6H90.2883ZM90.6083 173.34C93.3483 173.34 95.3083 175.04 95.3083 177.5C95.3083 179.98 93.3483 181.68 90.6083 181.68C87.8683 181.68 85.8883 179.98 85.8883 177.5C85.8883 175.04 87.8683 173.34 90.6083 173.34ZM90.6083 174.72C88.8083 174.72 87.5083 175.86 87.5083 177.5C87.5083 179.14 88.8083 180.28 90.6083 180.28C92.4083 180.28 93.7083 179.14 93.7083 177.5C93.7083 175.86 92.4083 174.72 90.6083 174.72ZM117.027 172.48H118.687V190.56H117.027V172.48ZM105.027 174.24H106.667V185.44H105.027V174.24ZM105.027 184.46H106.507C109.247 184.46 112.107 184.26 115.167 183.62L115.367 185.04C112.227 185.68 109.367 185.9 106.507 185.9H105.027V184.46ZM134.505 172.46H136.185V190.58H134.505V172.46ZM135.785 179.6H139.145V181H135.785V179.6ZM123.045 184.68H124.465C127.805 184.68 130.145 184.56 132.845 184.06L133.025 185.46C130.245 185.98 127.865 186.08 124.465 186.08H123.045V184.68ZM123.045 174.22H131.445V175.58H124.685V185.3H123.045V174.22ZM142.51 189.135C142.122 189.135 141.788 188.998 141.509 188.723C141.23 188.444 141.09 188.107 141.09 187.714C141.09 187.326 141.23 186.995 141.509 186.72C141.788 186.441 142.122 186.301 142.51 186.301C142.899 186.301 143.232 186.441 143.512 186.72C143.791 186.995 143.931 187.326 143.931 187.714C143.931 187.975 143.864 188.214 143.732 188.432C143.604 188.645 143.434 188.815 143.221 188.943C143.007 189.071 142.771 189.135 142.51 189.135ZM164.526 172.46H166.186V190.58H164.526V172.46ZM156.646 173.86C159.326 173.86 161.246 176.32 161.246 180.16C161.246 184.02 159.326 186.48 156.646 186.48C153.986 186.48 152.066 184.02 152.066 180.16C152.066 176.32 153.986 173.86 156.646 173.86ZM156.646 175.36C154.886 175.36 153.646 177.24 153.646 180.16C153.646 183.1 154.886 185.02 156.646 185.02C158.426 185.02 159.646 183.1 159.646 180.16C159.646 177.24 158.426 175.36 156.646 175.36ZM177.158 173.64H188.458V175H177.158V173.64ZM175.098 181.52H191.438V182.88H175.098V181.52ZM179.298 182.36H180.958V190.56H179.298V182.36ZM187.558 173.64H189.198V174.98C189.198 176.68 189.198 178.86 188.578 181.96L186.938 181.8C187.558 178.8 187.558 176.64 187.558 174.98V173.64ZM185.478 182.36H187.138V190.56H185.478V182.36ZM198.396 175.68H199.756V176.44C199.756 179.64 197.696 182.28 194.656 183.3L193.836 182C196.536 181.12 198.396 178.92 198.396 176.44V175.68ZM198.676 175.68H200.036V176.44C200.036 178.76 201.936 180.84 204.616 181.66L203.836 182.96C200.776 182 198.676 179.5 198.676 176.44V175.68ZM194.276 174.66H204.116V176H194.276V174.66ZM198.396 172.4H200.036V175.36H198.396V172.4ZM206.636 172.48H208.316V183.62H206.636V172.48ZM196.236 184.54H208.316V190.56H206.636V185.88H196.236V184.54ZM211.875 181.98H228.215V183.34H211.875V181.98ZM213.995 188.8H226.415V190.16H213.995V188.8ZM213.995 184.92H215.655V189.22H213.995V184.92ZM220.055 173.08C223.915 173.08 226.415 174.44 226.415 176.7C226.415 178.94 223.915 180.3 220.055 180.3C216.175 180.3 213.695 178.94 213.695 176.7C213.695 174.44 216.175 173.08 220.055 173.08ZM220.055 174.44C217.215 174.44 215.395 175.28 215.395 176.7C215.395 178.12 217.215 178.96 220.055 178.96C222.895 178.96 224.715 178.12 224.715 176.7C224.715 175.28 222.895 174.44 220.055 174.44ZM242.886 173.12H244.346V174.12C244.346 177.58 240.826 180.06 237.066 180.7L236.406 179.36C239.706 178.86 242.886 176.7 242.886 174.12V173.12ZM243.186 173.12H244.626V174.12C244.626 176.64 247.846 178.86 251.106 179.36L250.446 180.7C246.726 180.06 243.186 177.54 243.186 174.12V173.12ZM242.886 183.68H244.526V190.56H242.886V183.68ZM235.586 182.66H251.926V184.04H235.586V182.66ZM267.104 172.46H268.764V190.58H267.104V172.46ZM255.004 174H256.644V178.78H261.864V174H263.524V186.22H255.004V174ZM256.644 180.1V184.86H261.864V180.1H256.644ZM279.683 173.12H281.143V174.12C281.143 177.58 277.623 180.06 273.863 180.7L273.203 179.36C276.503 178.86 279.683 176.7 279.683 174.12V173.12ZM279.983 173.12H281.423V174.12C281.423 176.64 284.643 178.86 287.903 179.36L287.243 180.7C283.523 180.06 279.983 177.54 279.983 174.12V173.12ZM279.683 183.68H281.323V190.56H279.683V183.68ZM272.383 182.66H288.723V184.04H272.383V182.66ZM303.001 172.46H304.681V190.56H303.001V172.46ZM304.221 179.8H307.561V181.18H304.221V179.8ZM298.381 174.42H300.001C300.001 179.56 297.641 184.2 291.801 187.14L290.881 185.86C295.881 183.32 298.381 179.46 298.381 174.68V174.42ZM291.721 174.42H299.241V175.78H291.721V174.42ZM319.533 173.14C322.233 173.14 324.213 174.78 324.213 177.16C324.213 179.52 322.233 181.16 319.533 181.16C316.853 181.16 314.873 179.52 314.873 177.16C314.873 174.78 316.853 173.14 319.533 173.14ZM319.533 174.5C317.793 174.5 316.473 175.6 316.473 177.16C316.473 178.72 317.793 179.8 319.533 179.8C321.293 179.8 322.593 178.72 322.593 177.16C322.593 175.6 321.293 174.5 319.533 174.5ZM327.613 172.48H329.293V181.74H327.613V172.48ZM317.593 182.62H329.293V187.02H319.253V189.74H317.633V185.78H327.653V183.96H317.593V182.62ZM317.633 189H329.893V190.32H317.633V189ZM332.851 183.18H349.251V184.54H332.851V183.18ZM340.171 183.82H341.811V190.56H340.171V183.82ZM334.911 173.2H336.571V175.68H345.511V173.2H347.151V181.02H334.911V173.2ZM336.571 177.02V179.68H345.511V177.02H336.571ZM364.47 172.46H366.13V190.58H364.47V172.46ZM361.03 179.42H364.87V180.78H361.03V179.42ZM351.93 184.86H353.31C356.51 184.86 358.77 184.76 361.43 184.28L361.59 185.66C358.87 186.14 356.57 186.26 353.31 186.26H351.93V184.86ZM351.89 174.16H359.97V180.5H353.57V185.28H351.93V179.14H358.33V175.52H351.89V174.16ZM383.061 183.88C386.901 183.88 389.361 185.14 389.361 187.22C389.361 189.28 386.901 190.52 383.061 190.52C379.201 190.52 376.761 189.28 376.761 187.22C376.761 185.14 379.201 183.88 383.061 183.88ZM383.061 185.18C380.221 185.18 378.401 185.96 378.401 187.22C378.401 188.46 380.221 189.24 383.061 189.24C385.901 189.24 387.701 188.46 387.701 187.22C387.701 185.96 385.901 185.18 383.061 185.18ZM376.901 173.38H388.541V174.74H376.901V173.38ZM374.961 180.9H391.281V182.24H374.961V180.9ZM381.661 177.42H383.301V181.28H381.661V177.42ZM387.581 173.38H389.201V174.92C389.201 176.38 389.201 177.84 388.721 179.72L387.081 179.52C387.581 177.66 387.581 176.34 387.581 174.92V173.38ZM401.519 172.78C405.499 172.78 407.879 173.9 407.879 175.92C407.879 177.94 405.499 179.06 401.519 179.06C397.519 179.06 395.159 177.94 395.159 175.92C395.159 173.9 397.519 172.78 401.519 172.78ZM401.519 174.04C398.559 174.04 396.859 174.72 396.859 175.92C396.859 177.12 398.559 177.8 401.519 177.8C404.459 177.8 406.159 177.12 406.159 175.92C406.159 174.72 404.459 174.04 401.519 174.04ZM393.339 180.26H409.679V181.6H393.339V180.26ZM395.319 183.14H407.599V187.22H396.999V189.42H395.359V186.02H405.959V184.42H395.319V183.14ZM395.359 189.06H408.139V190.36H395.359V189.06ZM417.511 179.74H418.311C419.371 179.74 420.711 179.7 422.271 179.36L422.451 180.68C420.771 181.04 419.431 181.06 418.311 181.06H417.511V179.74ZM417.511 173.54H422.031V174.86H419.151V180.58H417.511V173.54ZM423.071 179.74H423.971C425.891 179.74 427.191 179.7 428.731 179.34L428.891 180.66C427.271 181.02 425.951 181.06 423.971 181.06H423.071V179.74ZM423.071 173.54H428.051V174.86H424.691V180.58H423.071V173.54ZM419.991 182.72H432.111V187.04H421.711V189.66H420.031V185.8H430.451V184.04H419.991V182.72ZM420.031 189H432.751V190.32H420.031V189ZM430.451 172.48H432.111V181.8H430.451V172.48ZM427.131 176.44H431.651V177.72H427.131V176.44ZM440.269 173.86C442.889 173.86 444.769 176.32 444.769 180.16C444.769 184.02 442.889 186.48 440.269 186.48C437.629 186.48 435.769 184.02 435.769 180.16C435.769 176.32 437.629 173.86 440.269 173.86ZM440.269 175.36C438.529 175.36 437.349 177.24 437.349 180.16C437.349 183.1 438.529 185.02 440.269 185.02C442.009 185.02 443.189 183.1 443.189 180.16C443.189 177.24 442.009 175.36 440.269 175.36ZM448.689 172.46H450.329V190.58H448.689V172.46ZM444.229 179.36H449.409V180.72H444.229V179.36ZM462.408 181.32H468.928V182.68H462.408V181.32ZM453.828 186.72H470.228V188.1H453.828V186.72ZM462.408 174.38H468.748V175.72H464.068V181.76H462.408V174.38ZM455.288 174.4H461.428V175.76H456.948V181.7H455.288V174.4ZM455.288 181.32H456.288C458.048 181.32 459.688 181.26 461.568 180.82L461.728 182.2C459.768 182.62 458.128 182.68 456.288 182.68H455.288V181.32ZM485.446 172.46H487.106V190.58H485.446V172.46ZM481.886 176.6H485.886V177.96H481.886V176.6ZM472.906 184.98H474.246C477.046 184.98 479.346 184.9 482.106 184.46L482.266 185.84C479.426 186.28 477.106 186.38 474.246 186.38H472.906V184.98ZM472.866 174.1H480.766V180.58H474.546V185.3H472.906V179.22H479.126V175.48H472.866V174.1ZM481.766 181.54H485.766V182.9H481.766V181.54ZM496.698 184.84H498.118C501.458 184.84 503.758 184.76 506.478 184.28L506.658 185.64C503.858 186.12 501.498 186.22 498.118 186.22H496.698V184.84ZM496.698 174.12H505.118V175.5H498.358V185.32H496.698V174.12ZM497.938 179.18H504.718V180.52H497.938V179.18ZM508.158 172.48H509.838V190.56H508.158V172.48ZM509.438 179.74H512.798V181.14H509.438V179.74ZM518.796 175.06H520.116V178C520.116 181.76 517.816 185.64 514.996 187.08L514.036 185.76C516.616 184.5 518.796 181.06 518.796 178V175.06ZM519.096 175.06H520.416V178C520.416 180.86 522.456 184.08 525.076 185.32L524.136 186.64C521.276 185.22 519.096 181.58 519.096 178V175.06ZM514.676 174.32H524.416V175.72H514.676V174.32ZM526.556 172.48H528.236V190.56H526.556V172.48ZM527.836 179.78H531.196V181.18H527.836V179.78ZM29.56 205.6H31.22V209.92H29.56V205.6ZM30.38 197.64C33.16 197.64 35.16 199.38 35.16 201.9C35.16 204.42 33.16 206.16 30.38 206.16C27.6 206.16 25.6 204.42 25.6 201.9C25.6 199.38 27.6 197.64 30.38 197.64ZM30.38 199.06C28.54 199.06 27.22 200.22 27.22 201.9C27.22 203.58 28.54 204.74 30.38 204.74C32.22 204.74 33.54 203.58 33.54 201.9C33.54 200.22 32.22 199.06 30.38 199.06ZM37.22 196.48H38.88V214.56H37.22V196.48ZM38.4 203.92H41.74V205.32H38.4V203.92ZM25.02 210.66L24.78 209.28C28.04 209.26 32.4 209.24 36.08 208.74L36.22 209.98C32.4 210.62 28.18 210.66 25.02 210.66ZM55.9314 198.26H57.3714V199.02C57.3714 202.26 53.9314 204.64 50.2914 205.26L49.6514 203.94C52.8314 203.48 55.9314 201.4 55.9314 199.02V198.26ZM56.3514 198.26H57.7714V199.02C57.7714 201.4 60.8914 203.48 64.0514 203.94L63.4314 205.26C59.7714 204.64 56.3514 202.26 56.3514 199.02V198.26ZM55.9914 207.66H57.6314V214.56H55.9914V207.66ZM48.6914 206.78H65.0314V208.14H48.6914V206.78ZM50.2114 197.6H63.4514V198.94H50.2114V197.6ZM71.5498 199.06H72.8698V202C72.8698 205.76 70.5698 209.64 67.7498 211.08L66.7898 209.76C69.3698 208.5 71.5498 205.06 71.5498 202V199.06ZM71.8498 199.06H73.1698V202C73.1698 204.86 75.2098 208.08 77.8298 209.32L76.8898 210.64C74.0298 209.22 71.8498 205.58 71.8498 202V199.06ZM67.4298 198.32H77.1698V199.72H67.4298V198.32ZM79.3098 196.48H80.9898V214.56H79.3098V196.48ZM80.5898 203.78H83.9498V205.18H80.5898V203.78ZM85.4883 204.02H101.828V205.38H85.4883V204.02ZM87.6483 201.22H99.8883V202.56H87.6483V201.22ZM87.6483 197.06H99.6883V198.42H89.2883V202.3H87.6483V197.06ZM87.4483 206.94H99.7283V211.2H89.1283V213.48H87.4883V209.96H98.0883V208.24H87.4483V206.94ZM87.4883 213.04H100.268V214.36H87.4883V213.04ZM112.047 196.78C116.027 196.78 118.407 197.9 118.407 199.92C118.407 201.94 116.027 203.06 112.047 203.06C108.047 203.06 105.687 201.94 105.687 199.92C105.687 197.9 108.047 196.78 112.047 196.78ZM112.047 198.04C109.087 198.04 107.387 198.72 107.387 199.92C107.387 201.12 109.087 201.8 112.047 201.8C114.987 201.8 116.687 201.12 116.687 199.92C116.687 198.72 114.987 198.04 112.047 198.04ZM103.867 204.26H120.207V205.6H103.867V204.26ZM105.847 207.14H118.127V211.22H107.527V213.42H105.887V210.02H116.487V208.42H105.847V207.14ZM105.887 213.06H118.667V214.36H105.887V213.06ZM139.938 196.48H141.598V207.36H139.938V196.48ZM141.138 201.28H144.278V202.66H141.138V201.28ZM130.238 208.38H141.598V214.32H130.238V208.38ZM139.978 209.72H131.858V212.98H139.978V209.72ZM127.618 198.38H138.298V199.74H127.618V198.38ZM132.958 200.62C135.538 200.62 137.278 201.9 137.278 203.86C137.278 205.82 135.538 207.06 132.958 207.06C130.358 207.06 128.618 205.82 128.618 203.86C128.618 201.9 130.358 200.62 132.958 200.62ZM132.958 201.9C131.298 201.9 130.198 202.66 130.198 203.86C130.198 205.04 131.298 205.8 132.958 205.8C134.578 205.8 135.698 205.04 135.698 203.86C135.698 202.66 134.578 201.9 132.958 201.9ZM132.118 196.32H133.778V199.08H132.118V196.32ZM148.997 198.64H150.397C150.397 202.52 149.877 206.78 147.297 210.3L145.997 209.54C148.477 206.32 148.997 202.54 148.997 198.76V198.64ZM146.377 198.64H149.817V200.02H146.377V198.64ZM152.977 198.64H154.397C154.397 202.46 154.157 207.54 151.317 211.46L149.997 210.7C152.757 207.1 152.977 202.4 152.977 198.78V198.64ZM150.997 198.64H153.857V200.02H150.997V198.64ZM159.797 196.48H161.397V214.56H159.797V196.48ZM153.557 203.58H156.797V204.94H153.557V203.58ZM156.457 196.94H158.017V213.64H156.457V196.94ZM174.468 197.86C177.128 197.86 179.008 200.32 179.008 204.16C179.008 208.02 177.128 210.48 174.468 210.48C171.808 210.48 169.928 208.02 169.928 204.16C169.928 200.32 171.808 197.86 174.468 197.86ZM174.468 199.36C172.708 199.36 171.508 201.24 171.508 204.16C171.508 207.1 172.708 209.02 174.468 209.02C176.208 209.02 177.428 207.1 177.428 204.16C177.428 201.24 176.208 199.36 174.468 199.36ZM181.888 196.48H183.568V214.56H181.888V196.48ZM183.168 203.7H186.528V205.1H183.168V203.7ZM188.046 204.74H204.446V206.1H188.046V204.74ZM195.386 205.32H197.006V208.08H195.386V205.32ZM195.346 208.92H196.766V209.48C196.766 212.24 193.566 214.06 189.786 214.5L189.246 213.22C192.506 212.88 195.346 211.4 195.346 209.48V208.92ZM195.626 208.92H197.046V209.48C197.046 211.46 199.866 212.9 203.146 213.22L202.606 214.5C198.846 214.06 195.626 212.3 195.626 209.48V208.92ZM196.226 196.74C200.146 196.74 202.586 197.96 202.586 200.06C202.586 202.16 200.146 203.38 196.226 203.38C192.286 203.38 189.866 202.16 189.866 200.06C189.866 197.96 192.286 196.74 196.226 196.74ZM196.226 198.02C193.326 198.02 191.566 198.76 191.566 200.06C191.566 201.34 193.326 202.1 196.226 202.1C199.106 202.1 200.886 201.34 200.886 200.06C200.886 198.76 199.106 198.02 196.226 198.02ZM211.225 198.04H212.585V201.28C212.585 205.44 210.345 209.3 207.385 210.8L206.365 209.44C209.045 208.16 211.225 204.7 211.225 201.28V198.04ZM211.505 198.04H212.865V201.28C212.865 204.58 215.025 207.9 217.705 209.14L216.705 210.46C213.765 209.02 211.505 205.3 211.505 201.28V198.04ZM219.585 196.46H221.245V214.58H219.585V196.46ZM232.863 198.36H234.463C234.463 203.58 232.623 208.42 226.103 211.62L225.203 210.32C230.923 207.52 232.863 203.48 232.863 198.54V198.36ZM226.183 198.36H233.703V199.7H226.183V198.36ZM232.623 202.84V204.12L225.563 204.78L225.283 203.32L232.623 202.84ZM238.023 196.48H239.683V214.56H238.023V196.48ZM256.462 196.46H258.122V214.58H256.462V196.46ZM252.902 200.6H256.902V201.96H252.902V200.6ZM243.922 208.98H245.262C248.062 208.98 250.362 208.9 253.122 208.46L253.282 209.84C250.442 210.28 248.122 210.38 245.262 210.38H243.922V208.98ZM243.882 198.1H251.782V204.58H245.562V209.3H243.922V203.22H250.142V199.48H243.882V198.1ZM252.782 205.54H256.782V206.9H252.782V205.54ZM263.86 201.9H276.14V203.26H263.86V201.9ZM261.64 205.68H278.04V207.04H261.64V205.68ZM263.86 197.14H265.5V202.58H263.86V197.14ZM263.74 212.76H276.24V214.12H263.74V212.76ZM263.74 208.84H265.38V213.12H263.74V208.84ZM290.112 198.04H291.472V201.28C291.472 205.44 289.232 209.3 286.272 210.8L285.252 209.44C287.932 208.16 290.112 204.7 290.112 201.28V198.04ZM290.392 198.04H291.752V201.28C291.752 204.58 293.912 207.9 296.592 209.14L295.592 210.46C292.652 209.02 290.392 205.3 290.392 201.28V198.04ZM298.472 196.46H300.132V214.58H298.472V196.46ZM305.81 204.92H318.23V206.28H305.81V204.92ZM303.75 210.9H320.13V212.3H303.75V210.9ZM311.07 205.5H312.73V211.46H311.07V205.5ZM305.81 197.92H318.05V199.28H307.47V205.52H305.81V197.92ZM322.128 204.88H338.528V206.14H322.128V204.88ZM324.068 207.6H336.468V211.46H325.768V213.58H324.128V210.32H334.848V208.78H324.068V207.6ZM324.128 213.14H337.048V214.34H324.128V213.14ZM324.208 197H336.408V200.76H325.888V202.72H324.248V199.64H334.788V198.18H324.208V197ZM324.248 202.32H336.748V203.52H324.248V202.32ZM346.58 197.82H354.88V205.84H346.58V197.82ZM353.26 199.16H348.2V204.5H353.26V199.16ZM358.2 196.48H359.86V207.2H358.2V196.48ZM359.4 201.16H362.54V202.56H359.4V201.16ZM348.12 208.16H359.86V214.58H358.2V209.5H348.12V208.16ZM377.398 196.48H379.058V214.56H377.398V196.48ZM372.098 198.42H373.738C373.738 203.66 371.378 208.24 365.338 211.2L364.458 209.86C369.678 207.34 372.098 203.5 372.098 198.7V198.42ZM365.278 198.42H372.818V199.78H365.278V198.42ZM393.83 197.32C396.53 197.32 398.45 198.82 398.45 201.04C398.45 203.24 396.53 204.78 393.83 204.78C391.15 204.78 389.23 203.24 389.23 201.04C389.23 198.82 391.15 197.32 393.83 197.32ZM393.83 198.7C392.07 198.7 390.81 199.66 390.81 201.04C390.81 202.44 392.07 203.38 393.83 203.38C395.59 203.38 396.85 202.44 396.85 201.04C396.85 199.66 395.59 198.7 393.83 198.7ZM393.09 206.78H394.75V214H393.09V206.78ZM401.09 196.48H402.73V214.58H401.09V196.48ZM388.11 207.68L387.89 206.28C391.25 206.28 395.83 206.24 399.81 205.64L399.93 206.88C395.85 207.62 391.41 207.68 388.11 207.68ZM406.288 199.56H415.248V200.92H406.288V199.56ZM410.768 202.12C413.028 202.12 414.668 203.82 414.668 206.26C414.668 208.68 413.028 210.38 410.768 210.38C408.528 210.38 406.888 208.68 406.888 206.26C406.888 203.82 408.528 202.12 410.768 202.12ZM410.768 203.54C409.388 203.54 408.388 204.66 408.388 206.26C408.388 207.86 409.388 208.98 410.768 208.98C412.168 208.98 413.188 207.86 413.188 206.26C413.188 204.66 412.168 203.54 410.768 203.54ZM420.028 196.48H421.628V214.56H420.028V196.48ZM417.148 204.08H420.568V205.46H417.148V204.08ZM416.168 196.88H417.728V213.68H416.168V196.88ZM409.968 197H411.608V200.4H409.968V197ZM430.76 198.1H439.06V206.48H430.76V198.1ZM437.44 199.44H432.38V205.14H437.44V199.44ZM442.38 196.46H444.04V209.72H442.38V196.46ZM443.52 201.98H446.72V203.36H443.52V201.98ZM432.78 212.8H444.86V214.16H432.78V212.8ZM432.78 208.46H434.44V213.38H432.78V208.46ZM448.418 204.02H464.758V205.38H448.418V204.02ZM450.578 201.22H462.818V202.56H450.578V201.22ZM450.578 197.06H462.618V198.42H452.218V202.3H450.578V197.06ZM450.378 206.94H462.658V211.2H452.058V213.48H450.418V209.96H461.018V208.24H450.378V206.94ZM450.418 213.04H463.198V214.36H450.418V213.04ZM471.636 197.86C474.256 197.86 476.136 200.32 476.136 204.16C476.136 208.02 474.256 210.48 471.636 210.48C468.996 210.48 467.136 208.02 467.136 204.16C467.136 200.32 468.996 197.86 471.636 197.86ZM471.636 199.36C469.896 199.36 468.716 201.24 468.716 204.16C468.716 207.1 469.896 209.02 471.636 209.02C473.376 209.02 474.556 207.1 474.556 204.16C474.556 201.24 473.376 199.36 471.636 199.36ZM480.056 196.46H481.696V214.58H480.056V196.46ZM475.596 203.36H480.776V204.72H475.596V203.36ZM498.415 196.48H500.075V207.06H498.415V196.48ZM489.815 198.48H491.195V199.96C491.195 203.28 489.175 206 486.155 207.1L485.295 205.78C488.015 204.84 489.815 202.54 489.815 199.96V198.48ZM490.155 198.48H491.495V199.94C491.495 202.3 493.235 204.5 495.875 205.4L495.035 206.7C492.055 205.66 490.155 203.02 490.155 199.94V198.48ZM495.135 199.88H498.975V201.24H495.135V199.88ZM485.815 197.7H495.435V199.04H485.815V197.7ZM495.135 202.88H498.975V204.22H495.135V202.88ZM489.815 207.62H491.115V208.54C491.115 210.94 489.635 213.34 487.035 214.34L486.195 213.1C488.475 212.26 489.815 210.3 489.815 208.54V207.62ZM490.195 207.62H491.435V208.54C491.435 210.38 492.495 212.36 494.675 213.24L493.975 214.5C491.355 213.48 490.195 210.96 490.195 208.54V207.62ZM496.515 207.62H497.735V208.54C497.735 210.68 496.555 213.4 493.975 214.5L493.255 213.24C495.415 212.24 496.515 210.12 496.515 208.54V207.62ZM496.835 207.62H498.135V208.54C498.135 210.44 499.455 212.32 501.775 213.1L500.915 214.34C498.295 213.38 496.835 211.06 496.835 208.54V207.62ZM505.673 207.32H507.313V209.42H516.153V207.32H517.813V214.32H505.673V207.32ZM507.313 210.7V212.98H516.153V210.7H507.313ZM503.593 204.72H519.933V206.06H503.593V204.72ZM510.933 196.68H512.353V197.48C512.353 200.62 508.853 202.88 505.133 203.44L504.533 202.14C507.793 201.7 510.933 199.76 510.933 197.48V196.68ZM511.193 196.68H512.613V197.48C512.613 199.72 515.793 201.7 519.013 202.14L518.393 203.44C514.713 202.88 511.193 200.58 511.193 197.48V196.68ZM535.152 196.48H536.812V214.56H535.152V196.48ZM523.152 198.24H524.792V209.44H523.152V198.24ZM523.152 208.46H524.632C527.372 208.46 530.232 208.26 533.292 207.62L533.492 209.04C530.352 209.68 527.492 209.9 524.632 209.9H523.152V208.46ZM37.22 220.46H38.9V238.58H37.22V220.46ZM38.5 227.6H41.86V229H38.5V227.6ZM25.76 232.68H27.18C30.52 232.68 32.86 232.56 35.56 232.06L35.74 233.46C32.96 233.98 30.58 234.08 27.18 234.08H25.76V232.68ZM25.76 222.22H34.16V223.58H27.4V233.3H25.76V222.22ZM45.2251 237.135C44.8369 237.135 44.5031 236.998 44.2237 236.723C43.9444 236.444 43.8047 236.107 43.8047 235.714C43.8047 235.326 43.9444 234.995 44.2237 234.72C44.5031 234.441 44.8369 234.301 45.2251 234.301C45.6134 234.301 45.9472 234.441 46.2266 234.72C46.5059 234.995 46.6456 235.326 46.6456 235.714C46.6456 235.975 46.5793 236.214 46.4467 236.432C46.3189 236.645 46.1484 236.815 45.9354 236.943C45.7223 237.071 45.4856 237.135 45.2251 237.135Z" fill="black"/>
<g clip-path="url(#clip0_1377_278)">
<path d="M213 53C222.941 53 231 44.9411 231 35C231 25.0589 222.941 17 213 17C203.059 17 195 25.0589 195 35C195 44.9411 203.059 53 213 53Z" fill="#E1E8ED"/>
<path d="M226.802 46.5462C223.792 45.2212 222 41.0482 222 35.0002C222 28.9522 223.792 24.7792 226.802 23.4542C226.356 22.9258 225.879 22.4237 225.374 21.9502C222.406 23.6052 220 27.5782 220 35.0002C220 42.4212 222.406 46.3952 225.374 48.0502C225.876 47.5732 226.358 47.0772 226.802 46.5462ZM206 35.0002C206 27.5792 203.594 23.6052 200.626 21.9512C200.122 22.4243 199.645 22.9262 199.198 23.4542C202.208 24.7802 204 28.9522 204 35.0002C204 41.0482 202.208 45.2202 199.198 46.5462C199.643 47.0772 200.124 47.5732 200.626 48.0502C203.593 46.3952 206 42.4212 206 35.0002Z" fill="#B3BEC4"/>
<path d="M200.092 27.164C199.855 27.164 199.635 27.144 199.441 27.108C199.18 27.0592 198.95 26.9088 198.8 26.69C198.726 26.5816 198.674 26.4597 198.646 26.3312C198.619 26.2027 198.618 26.0701 198.642 25.941C198.666 25.8119 198.716 25.6888 198.787 25.5788C198.859 25.4688 198.952 25.374 199.06 25.2998C199.279 25.15 199.548 25.0932 199.809 25.142C200.239 25.219 202.5 25.148 202.957 22.866C203.009 22.606 203.162 22.3773 203.383 22.2302C203.492 22.1574 203.615 22.1069 203.744 22.0814C203.873 22.056 204.005 22.0562 204.134 22.082C204.263 22.1078 204.385 22.1587 204.494 22.2318C204.603 22.3049 204.697 22.3988 204.77 22.5081C204.843 22.6174 204.893 22.74 204.919 22.8688C204.944 22.9977 204.944 23.1302 204.918 23.259C204.335 26.171 201.779 27.164 200.092 27.164ZM201.792 31.125C201.262 31.125 200.84 30.802 200.814 30.266C200.788 29.715 201.214 29.355 201.766 29.329C201.766 29.329 204.33 29.294 205.635 27.035C205.701 26.9219 205.789 26.823 205.894 26.744C205.998 26.665 206.117 26.6075 206.244 26.5748C206.371 26.5421 206.503 26.5348 206.633 26.5533C206.763 26.5719 206.887 26.616 207 26.683C207.478 26.959 207.642 27.577 207.365 28.056C205.514 31.262 201.808 31.125 201.792 31.125ZM204 36.282C203.266 36.282 202.586 36.147 202.072 35.904C201.832 35.7905 201.647 35.5864 201.558 35.3366C201.469 35.0868 201.483 34.8118 201.596 34.572C201.71 34.3322 201.914 34.1474 202.163 34.0581C202.413 33.9689 202.688 33.9825 202.928 34.096C203.758 34.489 205.854 34.335 206.658 33.084C206.729 32.9735 206.821 32.878 206.929 32.8031C207.037 32.7282 207.158 32.6752 207.287 32.6473C207.415 32.6193 207.548 32.6169 207.677 32.6402C207.806 32.6635 207.93 32.712 208.04 32.783C208.151 32.854 208.246 32.946 208.321 33.0539C208.396 33.1618 208.449 33.2833 208.477 33.4117C208.505 33.54 208.507 33.6726 208.484 33.8018C208.461 33.9311 208.412 34.0545 208.341 34.165C207.377 35.666 205.565 36.282 204 36.282ZM205.161 41.807C203.607 41.807 202.166 41.108 201.235 40.331C201.134 40.247 201.051 40.1439 200.99 40.0276C200.929 39.9113 200.891 39.7842 200.879 39.6534C200.867 39.5226 200.881 39.3907 200.92 39.2653C200.959 39.1399 201.023 39.0234 201.107 38.9225C201.191 38.8216 201.294 38.7382 201.41 38.6771C201.526 38.616 201.653 38.5785 201.784 38.5665C201.915 38.5546 202.047 38.5686 202.172 38.6076C202.298 38.6466 202.414 38.71 202.515 38.794C202.709 38.957 204.467 40.36 206.297 39.579C206.418 39.5277 206.548 39.5008 206.679 39.4997C206.811 39.4986 206.941 39.5234 207.063 39.5726C207.184 39.6219 207.295 39.6947 207.389 39.7868C207.483 39.8789 207.557 39.9886 207.609 40.1095C207.66 40.2304 207.687 40.3603 207.688 40.4917C207.689 40.623 207.664 40.7533 207.615 40.8751C207.566 40.9969 207.493 41.1078 207.401 41.2015C207.309 41.2951 207.199 41.3697 207.078 41.421C206.471 41.6772 205.82 41.8084 205.161 41.807ZM204.75 47H204.722C202.218 47 200.043 45.43 199.188 43.892C198.919 43.41 199.094 42.848 199.576 42.58C200.059 42.311 200.668 42.51 200.936 42.992C201.42 43.863 202.932 45.126 204.777 45.177C205.329 45.193 205.764 45.565 205.749 46.116C205.734 46.658 205.29 47 204.75 47ZM222.188 47.188C222.04 47.1881 221.894 47.1553 221.76 47.092C221.626 47.0287 221.508 46.9364 221.414 46.8219C221.32 46.7073 221.253 46.5734 221.217 46.4297C221.181 46.286 221.178 46.1362 221.207 45.991C221.871 42.669 225.101 41.841 226.685 42.142C226.946 42.191 227.176 42.3415 227.326 42.5603C227.475 42.7791 227.532 43.0484 227.483 43.309C227.46 43.4384 227.411 43.5618 227.339 43.6721C227.267 43.7824 227.175 43.8774 227.066 43.9517C226.958 44.0259 226.835 44.0778 226.707 44.1045C226.578 44.1312 226.445 44.132 226.316 44.107C225.891 44.027 223.626 44.1 223.169 46.383C223.124 46.61 223.002 46.8143 222.823 46.961C222.644 47.1078 222.419 47.188 222.188 47.188ZM219.624 42.688C219.449 42.6881 219.276 42.642 219.124 42.5542C218.972 42.4664 218.846 42.3401 218.758 42.1881C218.67 42.036 218.624 41.8634 218.624 41.6879C218.625 41.5123 218.671 41.3399 218.759 41.188C220.611 37.982 222.743 37.884 224.153 37.819L224.264 37.814C224.529 37.8013 224.788 37.8943 224.985 38.0727C225.181 38.251 225.298 38.5 225.311 38.765C225.324 39.03 225.231 39.2891 225.052 39.4855C224.874 39.6818 224.625 39.7993 224.36 39.812L224.245 39.817C223.041 39.873 221.796 39.929 220.491 42.188C220.403 42.3402 220.277 42.4665 220.125 42.5543C219.972 42.642 219.8 42.6882 219.624 42.688ZM218.624 36.625C218.445 36.625 218.268 36.5767 218.114 36.4851C217.96 36.3935 217.833 36.262 217.747 36.1044C217.661 35.9468 217.619 35.769 217.626 35.5896C217.632 35.4102 217.687 35.2359 217.784 35.085C219.199 32.882 222.44 32.584 224.052 33.347C224.29 33.4612 224.474 33.6652 224.562 33.9143C224.651 34.1634 224.637 34.4373 224.524 34.6763C224.411 34.9152 224.208 35.0997 223.959 35.1894C223.711 35.2791 223.437 35.2667 223.197 35.155C222.368 34.762 220.271 34.916 219.465 36.167C219.374 36.3076 219.25 36.4232 219.103 36.5032C218.956 36.5832 218.791 36.6251 218.624 36.625ZM224.249 30.688C224.015 30.6879 223.789 30.6058 223.609 30.456C223.415 30.294 221.657 28.897 219.828 29.671C219.586 29.7618 219.319 29.7557 219.082 29.654C218.845 29.5523 218.656 29.3629 218.555 29.1253C218.454 28.8877 218.449 28.6203 218.54 28.3789C218.632 28.1376 218.813 27.9409 219.046 27.83C221.265 26.888 223.581 27.829 224.89 28.92C225.048 29.0516 225.161 29.2287 225.215 29.4271C225.269 29.6255 225.26 29.8356 225.19 30.0288C225.12 30.2221 224.992 30.389 224.823 30.507C224.655 30.6249 224.455 30.6881 224.249 30.688ZM226.063 26.75C225.885 26.7502 225.709 26.7026 225.556 26.6122C225.402 26.5219 225.275 26.392 225.188 26.236C224.704 25.364 223.192 24.113 221.347 24.062C220.794 24.047 220.36 23.556 220.374 23.003C220.391 22.461 220.835 22 221.374 22H221.402C223.907 22 226.082 23.694 226.936 25.232C227.065 25.4664 227.097 25.7423 227.024 25.9999C226.951 26.2575 226.78 26.476 226.547 26.608C226.401 26.6959 226.234 26.7448 226.063 26.75Z" fill="#DD2E44"/>
</g>
<defs>
<clipPath id="clip0_1377_278">
<rect width="36" height="36" fill="white" transform="translate(195 17)"/>
</clipPath>
</defs>
</svg>
