<svg width="570" height="165" viewBox="0 0 570 165" fill="none" xmlns="http://www.w3.org/2000/svg">
<rect x="0.5" y="0.5" width="569" height="151" rx="17.5" fill="white" stroke="#8A9A6B"/>
<path d="M40.7406 22.995H44.2414V41.2097H40.7406V22.995ZM43.2412 30.4177H47.479V33.2868H43.2412V30.4177ZM25.0529 25.5219H39.3982V28.2594H25.0529V25.5219ZM32.2387 29.128C35.7395 29.128 38.2138 31.0495 38.2138 33.8396C38.2138 36.6297 35.7395 38.5248 32.2387 38.5248C28.7116 38.5248 26.2373 36.6297 26.2373 33.8396C26.2373 31.0495 28.7116 29.128 32.2387 29.128ZM32.2387 31.7865C30.6857 31.7865 29.6065 32.5235 29.6065 33.8396C29.6065 35.1557 30.6857 35.8663 32.2387 35.8663C33.7917 35.8663 34.8709 35.1557 34.8709 33.8396C34.8709 32.5235 33.7917 31.7865 32.2387 31.7865ZM30.4752 22.9424H33.9759V26.8643H30.4752V22.9424ZM28.5273 44.1314H45.1101V46.9215H28.5273V44.1314ZM28.5273 39.8409H32.0281V45.3422H28.5273V39.8409ZM72.5365 22.9687H76.0636V36.0769H72.5365V22.9687ZM59.8494 37.1298H63.2976V39.3935H72.5892V37.1298H76.0636V47.0794H59.8494V37.1298ZM63.2976 42.0783V44.2893H72.5892V42.0783H63.2976ZM62.7975 23.9689C66.5878 23.9689 69.4042 26.3642 69.4042 29.7334C69.4042 33.1026 66.5878 35.4978 62.7975 35.4978C59.0071 35.4978 56.1644 33.1026 56.1644 29.7334C56.1644 26.3642 59.0071 23.9689 62.7975 23.9689ZM62.7975 26.8643C60.9286 26.8643 59.5862 27.9435 59.5862 29.7334C59.5862 31.5496 60.9286 32.6024 62.7975 32.6024C64.64 32.6024 65.9824 31.5496 65.9824 29.7334C65.9824 27.9435 64.64 26.8643 62.7975 26.8643ZM93.0667 24.6533C96.778 24.6533 99.4628 28.0225 99.4628 33.3395C99.4628 38.7091 96.778 42.0783 93.0667 42.0783C89.3553 42.0783 86.6705 38.7091 86.6705 33.3395C86.6705 28.0225 89.3553 24.6533 93.0667 24.6533ZM93.0667 27.8382C91.2505 27.8382 90.0397 29.7597 90.0397 33.3395C90.0397 36.9719 91.2505 38.9197 93.0667 38.9197C94.8829 38.9197 96.12 36.9719 96.12 33.3395C96.12 29.7597 94.8829 27.8382 93.0667 27.8382ZM104.701 28.6279H108.991V31.5233H104.701V28.6279ZM104.701 35.7874H108.991V38.6565H104.701V35.7874ZM102.121 22.9687H105.648V47.3426H102.121V22.9687ZM113.28 24.3901H128.573V27.1538H113.28V24.3901ZM110.779 34.7608H132.81V37.5773H110.779V34.7608ZM119.913 36.735H123.44V47.369H119.913V36.735ZM126.783 24.3901H130.231V26.5484C130.231 29.1806 130.231 32.1287 129.283 36.4454L125.835 36.0506C126.783 31.9707 126.783 29.0753 126.783 26.5484V24.3901ZM146.839 24.2848H149.708V26.4432C149.708 31.2864 147.602 35.5505 142.97 37.1561L141.101 34.3923C145.181 33.0236 146.839 29.7597 146.839 26.4432V24.2848ZM147.55 24.2848H150.393V26.7853C150.393 29.7071 152.025 32.5498 155.841 33.7343L154.025 36.4454C149.629 34.9714 147.55 31.1811 147.55 26.7853V24.2848ZM157.184 22.9687H160.684V37.3667H157.184V22.9687ZM159.71 28.6015H163.922V31.4969H159.71V28.6015ZM152.735 37.9194C157.789 37.9194 160.974 39.683 160.974 42.631C160.974 45.6054 157.789 47.3426 152.735 47.3426C147.655 47.3426 144.47 45.6054 144.47 42.631C144.47 39.683 147.655 37.9194 152.735 37.9194ZM152.735 40.6306C149.629 40.6306 147.945 41.2886 147.945 42.631C147.945 43.9998 149.629 44.6315 152.735 44.6315C155.841 44.6315 157.499 43.9998 157.499 42.631C157.499 41.2886 155.841 40.6306 152.735 40.6306ZM171.422 24.0742H174.317V26.4168C174.317 31.0231 172.08 35.2083 167.315 36.735L165.605 33.9712C169.711 32.6551 171.422 29.4965 171.422 26.4168V24.0742ZM172.132 24.0742H175.001V26.4168C175.001 29.4175 176.686 32.3656 180.661 33.5764L178.95 36.3138C174.291 34.8398 172.132 30.9442 172.132 26.4168V24.0742ZM169.342 38.5775H185.978V47.3426H182.45V41.3676H169.342V38.5775ZM182.45 22.9687H185.978V37.4983H182.45V22.9687Z" fill="black"/>
<path d="M28.96 77.22H31.14V78.76C31.14 82.44 29.52 85.66 25.96 86.9L24.56 84.8C27.66 83.76 28.96 81.28 28.96 78.76V77.22ZM29.5 77.22H31.64V78.7C31.64 81.02 32.88 83.34 35.8 84.3L34.42 86.38C31.06 85.2 29.5 82.18 29.5 78.7V77.22ZM36.72 76.26H39.38V86.96H36.72V76.26ZM38.64 80.44H41.84V82.62H38.64V80.44ZM27.34 87.7H39.38V94.58H27.34V87.7ZM36.78 89.78H29.96V92.48H36.78V89.78ZM50.2384 85.56H52.8984V88.82H50.2384V85.56ZM43.1984 84.68H59.9384V86.78H43.1984V84.68ZM51.5384 88.1C55.5384 88.1 57.9584 89.3 57.9584 91.44C57.9584 93.58 55.5384 94.78 51.5384 94.78C47.5184 94.78 45.0984 93.58 45.0984 91.44C45.0984 89.3 47.5184 88.1 51.5384 88.1ZM51.5384 90.1C49.0584 90.1 47.7984 90.52 47.7984 91.44C47.7984 92.34 49.0584 92.78 51.5384 92.78C54.0184 92.78 55.2784 92.34 55.2784 91.44C55.2784 90.52 54.0184 90.1 51.5384 90.1ZM49.7384 78H52.0984V78.46C52.0984 81.24 49.5984 83.52 44.8184 83.96L43.8984 81.88C47.9584 81.54 49.7384 79.9 49.7384 78.46V78ZM51.0384 78H53.3984V78.46C53.3984 79.92 55.1584 81.54 59.2384 81.88L58.3184 83.96C53.5584 83.52 51.0384 81.26 51.0384 78.46V78ZM44.7184 77.02H58.4384V79.12H44.7184V77.02ZM65.6969 76.9H67.8569V78.08C67.8569 81.6 66.2169 84.64 62.6369 85.76L61.3569 83.64C64.4169 82.72 65.6969 80.46 65.6969 78.08V76.9ZM66.2369 76.9H68.3769V78.02C68.3769 80.28 69.6169 82.38 72.5769 83.24L71.2369 85.3C67.7969 84.24 66.2369 81.4 66.2369 78.02V76.9ZM73.5169 76.26H76.1769V85.76H73.5169V76.26ZM75.0969 79.86H78.6169V82.04H75.0969V79.86ZM63.9369 86.48H76.1769V91.48H66.6169V93.74H63.9769V89.56H73.5569V88.52H63.9369V86.48ZM63.9769 92.6H76.7169V94.66H63.9769V92.6ZM80.1753 85.98H96.5153V87.34H80.1753V85.98ZM82.2953 92.8H94.7153V94.16H82.2953V92.8ZM82.2953 88.92H83.9553V93.22H82.2953V88.92ZM88.3553 77.08C92.2153 77.08 94.7153 78.44 94.7153 80.7C94.7153 82.94 92.2153 84.3 88.3553 84.3C84.4753 84.3 81.9953 82.94 81.9953 80.7C81.9953 78.44 84.4753 77.08 88.3553 77.08ZM88.3553 78.44C85.5153 78.44 83.6953 79.28 83.6953 80.7C83.6953 82.12 85.5153 82.96 88.3553 82.96C91.1953 82.96 93.0153 82.12 93.0153 80.7C93.0153 79.28 91.1953 78.44 88.3553 78.44ZM111.187 77.12H112.647V78.12C112.647 81.58 109.127 84.06 105.367 84.7L104.707 83.36C108.007 82.86 111.187 80.7 111.187 78.12V77.12ZM111.487 77.12H112.927V78.12C112.927 80.64 116.147 82.86 119.407 83.36L118.747 84.7C115.027 84.06 111.487 81.54 111.487 78.12V77.12ZM111.187 87.68H112.827V94.56H111.187V87.68ZM103.887 86.66H120.227V88.04H103.887V86.66ZM135.405 76.46H137.065V94.58H135.405V76.46ZM123.305 78H124.945V82.78H130.165V78H131.825V90.22H123.305V78ZM124.945 84.1V88.86H130.165V84.1H124.945ZM152.904 76.46H154.584V94.56H152.904V76.46ZM154.124 83.8H157.464V85.18H154.124V83.8ZM148.284 78.42H149.904C149.904 83.56 147.544 88.2 141.704 91.14L140.784 89.86C145.784 87.32 148.284 83.46 148.284 78.68V78.42ZM141.624 78.42H149.144V79.78H141.624V78.42ZM165.135 88.84H166.555C169.895 88.84 172.195 88.76 174.915 88.28L175.095 89.64C172.295 90.12 169.935 90.22 166.555 90.22H165.135V88.84ZM165.135 78.12H173.555V79.5H166.795V89.32H165.135V78.12ZM166.375 83.18H173.155V84.52H166.375V83.18ZM176.595 76.48H178.275V94.56H176.595V76.48ZM177.875 83.74H181.235V85.14H177.875V83.74ZM187.233 79.06H188.553V82C188.553 85.76 186.253 89.64 183.433 91.08L182.473 89.76C185.053 88.5 187.233 85.06 187.233 82V79.06ZM187.533 79.06H188.853V82C188.853 84.86 190.893 88.08 193.513 89.32L192.573 90.64C189.713 89.22 187.533 85.58 187.533 82V79.06ZM183.113 78.32H192.853V79.72H183.113V78.32ZM194.993 76.48H196.673V94.56H194.993V76.48ZM196.273 83.78H199.633V85.18H196.273V83.78ZM205.732 85.6H207.392V89.92H205.732V85.6ZM206.552 77.64C209.332 77.64 211.332 79.38 211.332 81.9C211.332 84.42 209.332 86.16 206.552 86.16C203.772 86.16 201.772 84.42 201.772 81.9C201.772 79.38 203.772 77.64 206.552 77.64ZM206.552 79.06C204.712 79.06 203.392 80.22 203.392 81.9C203.392 83.58 204.712 84.74 206.552 84.74C208.392 84.74 209.712 83.58 209.712 81.9C209.712 80.22 208.392 79.06 206.552 79.06ZM213.392 76.48H215.052V94.56H213.392V76.48ZM214.572 83.92H217.912V85.32H214.572V83.92ZM201.192 90.66L200.952 89.28C204.212 89.26 208.572 89.24 212.252 88.74L212.392 89.98C208.572 90.62 204.352 90.66 201.192 90.66ZM232.103 78.26H233.543V79.02C233.543 82.26 230.103 84.64 226.463 85.26L225.823 83.94C229.003 83.48 232.103 81.4 232.103 79.02V78.26ZM232.523 78.26H233.943V79.02C233.943 81.4 237.063 83.48 240.223 83.94L239.603 85.26C235.943 84.64 232.523 82.26 232.523 79.02V78.26ZM232.163 87.66H233.803V94.56H232.163V87.66ZM224.863 86.78H241.203V88.14H224.863V86.78ZM226.383 77.6H239.623V78.94H226.383V77.6ZM247.722 79.06H249.042V82C249.042 85.76 246.742 89.64 243.922 91.08L242.962 89.76C245.542 88.5 247.722 85.06 247.722 82V79.06ZM248.022 79.06H249.342V82C249.342 84.86 251.382 88.08 254.002 89.32L253.062 90.64C250.202 89.22 248.022 85.58 248.022 82V79.06ZM243.602 78.32H253.342V79.72H243.602V78.32ZM255.482 76.48H257.162V94.56H255.482V76.48ZM256.762 83.78H260.122V85.18H256.762V83.78ZM261.64 84.88H278.04V86.14H261.64V84.88ZM263.58 87.6H275.98V91.46H265.28V93.58H263.64V90.32H274.36V88.78H263.58V87.6ZM263.64 93.14H276.56V94.34H263.64V93.14ZM263.72 77H275.92V80.76H265.4V82.72H263.76V79.64H274.3V78.18H263.72V77ZM263.76 82.32H276.26V83.52H263.76V82.32ZM297.712 76.5H299.372V90.06H297.712V76.5ZM298.852 82.42H302.052V83.82H298.852V82.42ZM285.392 78.68H296.072V80.02H285.392V78.68ZM290.732 81.02C293.292 81.02 295.052 82.36 295.052 84.4C295.052 86.42 293.292 87.76 290.732 87.76C288.152 87.76 286.392 86.42 286.392 84.4C286.392 82.36 288.152 81.02 290.732 81.02ZM290.732 82.32C289.092 82.32 287.972 83.14 287.972 84.4C287.972 85.64 289.092 86.46 290.732 86.46C292.352 86.46 293.472 85.64 293.472 84.4C293.472 83.14 292.352 82.32 290.732 82.32ZM289.892 76.48H291.552V79.38H289.892V76.48ZM288.112 92.8H300.192V94.16H288.112V92.8ZM288.112 88.98H289.772V93.38H288.112V88.98ZM317.563 81.58H322.763V82.94H317.563V81.58ZM322.243 76.5H323.903V89.88H322.243V76.5ZM312.283 92.8H324.343V94.16H312.283V92.8ZM312.283 88.58H313.943V93.5H312.283V88.58ZM309.923 77.68H311.563V80.88H316.463V77.68H318.083V86.8H309.923V77.68ZM311.563 82.18V85.44H316.463V82.18H311.563ZM334.761 83.5H338.181V84.88H334.761V83.5ZM341.201 76.48H342.801V94.56H341.201V76.48ZM337.621 76.86H339.201V93.66H337.621V76.86ZM331.501 77.98C333.841 77.98 335.361 80.4 335.361 84.28C335.361 88.16 333.841 90.58 331.501 90.58C329.161 90.58 327.661 88.16 327.661 84.28C327.661 80.4 329.161 77.98 331.501 77.98ZM331.501 79.52C330.081 79.52 329.181 81.36 329.181 84.28C329.181 87.2 330.081 89.04 331.501 89.04C332.941 89.04 333.841 87.2 333.841 84.28C333.841 81.36 332.941 79.52 331.501 79.52ZM355.933 77.86C358.593 77.86 360.473 80.32 360.473 84.16C360.473 88.02 358.593 90.48 355.933 90.48C353.273 90.48 351.393 88.02 351.393 84.16C351.393 80.32 353.273 77.86 355.933 77.86ZM355.933 79.36C354.173 79.36 352.973 81.24 352.973 84.16C352.973 87.1 354.173 89.02 355.933 89.02C357.673 89.02 358.893 87.1 358.893 84.16C358.893 81.24 357.673 79.36 355.933 79.36ZM363.353 76.48H365.033V94.56H363.353V76.48ZM364.633 83.7H367.993V85.1H364.633V83.7ZM369.511 84.74H385.911V86.1H369.511V84.74ZM376.851 85.32H378.471V88.08H376.851V85.32ZM376.811 88.92H378.231V89.48C378.231 92.24 375.031 94.06 371.251 94.5L370.711 93.22C373.971 92.88 376.811 91.4 376.811 89.48V88.92ZM377.091 88.92H378.511V89.48C378.511 91.46 381.331 92.9 384.611 93.22L384.071 94.5C380.311 94.06 377.091 92.3 377.091 89.48V88.92ZM377.691 76.74C381.611 76.74 384.051 77.96 384.051 80.06C384.051 82.16 381.611 83.38 377.691 83.38C373.751 83.38 371.331 82.16 371.331 80.06C371.331 77.96 373.751 76.74 377.691 76.74ZM377.691 78.02C374.791 78.02 373.031 78.76 373.031 80.06C373.031 81.34 374.791 82.1 377.691 82.1C380.571 82.1 382.351 81.34 382.351 80.06C382.351 78.76 380.571 78.02 377.691 78.02ZM392.69 78.04H394.05V81.28C394.05 85.44 391.81 89.3 388.85 90.8L387.83 89.44C390.51 88.16 392.69 84.7 392.69 81.28V78.04ZM392.97 78.04H394.33V81.28C394.33 84.58 396.49 87.9 399.17 89.14L398.17 90.46C395.23 89.02 392.97 85.3 392.97 81.28V78.04ZM401.05 76.46H402.71V94.58H401.05V76.46ZM414.328 78.36H415.928C415.928 83.58 414.088 88.42 407.568 91.62L406.668 90.32C412.388 87.52 414.328 83.48 414.328 78.54V78.36ZM407.648 78.36H415.168V79.7H407.648V78.36ZM414.088 82.84V84.12L407.028 84.78L406.748 83.32L414.088 82.84ZM419.488 76.48H421.148V94.56H419.488V76.48ZM426.927 81.9H439.207V83.26H426.927V81.9ZM424.707 85.68H441.107V87.04H424.707V85.68ZM426.927 77.14H428.567V82.58H426.927V77.14ZM426.807 92.76H439.307V94.12H426.807V92.76ZM426.807 88.84H428.447V93.12H426.807V88.84ZM450.478 85.14H462.898V86.5H450.478V85.14ZM448.418 90.74H464.798V92.12H448.418V90.74ZM450.478 78.14H462.718V79.52H452.138V85.74H450.478V78.14ZM466.796 85.72H483.176V87.08H466.796V85.72ZM474.276 86.56H475.936V90.72H474.276V86.56ZM468.896 77.32H481.056V83.68H468.896V77.32ZM479.416 78.66H470.516V82.34H479.416V78.66ZM468.876 92.8H481.356V94.16H468.876V92.8ZM468.876 88.98H470.516V93.28H468.876V88.98ZM503.668 76.48H505.328V94.56H503.668V76.48ZM498.368 78.42H500.008C500.008 83.66 497.648 88.24 491.608 91.2L490.728 89.86C495.948 87.34 498.368 83.5 498.368 78.7V78.42ZM491.548 78.42H499.088V79.78H491.548V78.42ZM508.886 86.42H525.286V87.78H508.886V86.42ZM510.966 76.94H523.166V81.32H512.646V83.76H511.006V80.1H521.546V78.24H510.966V76.94ZM511.006 83.22H523.566V84.52H511.006V83.22ZM516.246 83.9H517.906V87.1H516.246V83.9ZM510.706 89.16H523.286V94.4H521.626V90.52H510.706V89.16ZM535.465 77.62C539.225 77.62 542.025 79.62 542.025 82.62C542.025 85.64 539.225 87.62 535.465 87.62C531.705 87.62 528.885 85.64 528.885 82.62C528.885 79.62 531.705 77.62 535.465 77.62ZM535.465 78.98C532.605 78.98 530.485 80.44 530.485 82.62C530.485 84.78 532.605 86.26 535.465 86.26C538.325 86.26 540.445 84.78 540.445 82.62C540.445 80.44 538.325 78.98 535.465 78.98ZM527.305 90.78H543.685V92.18H527.305V90.78ZM25 114.96H41.38V116.34H25V114.96ZM32.32 111.08H33.98V115.54H32.32V111.08ZM26.98 101.82H39.36V107.3H28.68V110.92H27.04V105.96H37.72V103.16H26.98V101.82ZM27.04 110.22H39.78V111.58H27.04V110.22ZM46.5888 115.011L46.4822 115.786C46.4112 116.354 46.2905 116.946 46.12 117.561C45.9543 118.181 45.7815 118.757 45.6016 119.287C45.4264 119.817 45.282 120.239 45.1683 120.551H43.6626C43.7242 120.258 43.8094 119.86 43.9183 119.358C44.0272 118.861 44.1338 118.304 44.2379 117.689C44.3421 117.073 44.4202 116.446 44.4723 115.807L44.5433 115.011H46.5888ZM54.8168 117V102.455H57.0114V109.401H57.1889L63.2898 102.455H66.0526L60.1861 109.003L66.0739 117H63.4318L58.7301 110.501L57.0114 112.476V117H54.8168ZM68.098 117V102.455H73.4247C74.4569 102.455 75.3116 102.625 75.9886 102.966C76.6657 103.302 77.1723 103.759 77.5085 104.337C77.8447 104.91 78.0128 105.556 78.0128 106.276C78.0128 106.882 77.9015 107.393 77.679 107.81C77.4564 108.222 77.1581 108.553 76.7841 108.804C76.4148 109.05 76.0076 109.23 75.5625 109.344V109.486C76.0455 109.509 76.5166 109.666 76.9759 109.955C77.4399 110.239 77.8234 110.643 78.1264 111.169C78.4295 111.695 78.581 112.334 78.581 113.087C78.581 113.83 78.4058 114.498 78.0554 115.089C77.7098 115.677 77.1747 116.143 76.4503 116.489C75.7259 116.83 74.8002 117 73.6733 117H68.098ZM70.2926 115.118H73.4602C74.5114 115.118 75.2642 114.914 75.7188 114.507C76.1733 114.1 76.4006 113.591 76.4006 112.98C76.4006 112.521 76.2846 112.099 76.0526 111.716C75.8205 111.332 75.4891 111.027 75.0582 110.8C74.6321 110.572 74.1255 110.459 73.5384 110.459H70.2926V115.118ZM70.2926 108.747H73.233C73.7254 108.747 74.1681 108.652 74.5611 108.463C74.9588 108.274 75.2737 108.009 75.5057 107.668C75.7424 107.322 75.8608 106.915 75.8608 106.446C75.8608 105.845 75.6501 105.34 75.2287 104.933C74.8073 104.526 74.161 104.322 73.2898 104.322H70.2926V108.747ZM93.8189 109.727C93.8189 111.28 93.5348 112.616 92.9666 113.733C92.3984 114.846 91.6196 115.703 90.63 116.304C89.6451 116.901 88.5253 117.199 87.2706 117.199C86.0111 117.199 84.8866 116.901 83.897 116.304C82.9122 115.703 82.1357 114.843 81.5675 113.726C80.9993 112.608 80.7152 111.276 80.7152 109.727C80.7152 108.174 80.9993 106.841 81.5675 105.729C82.1357 104.611 82.9122 103.754 83.897 103.158C84.8866 102.556 86.0111 102.256 87.2706 102.256C88.5253 102.256 89.6451 102.556 90.63 103.158C91.6196 103.754 92.3984 104.611 92.9666 105.729C93.5348 106.841 93.8189 108.174 93.8189 109.727ZM91.6456 109.727C91.6456 108.544 91.4538 107.547 91.0703 106.737C90.6915 105.923 90.1707 105.307 89.5078 104.891C88.8497 104.469 88.1039 104.259 87.2706 104.259C86.4325 104.259 85.6844 104.469 85.0263 104.891C84.3681 105.307 83.8473 105.923 83.4638 106.737C83.085 107.547 82.8956 108.544 82.8956 109.727C82.8956 110.911 83.085 111.91 83.4638 112.724C83.8473 113.534 84.3681 114.15 85.0263 114.571C85.6844 114.988 86.4325 115.196 87.2706 115.196C88.1039 115.196 88.8497 114.988 89.5078 114.571C90.1707 114.15 90.6915 113.534 91.0703 112.724C91.4538 111.91 91.6456 110.911 91.6456 109.727ZM103.277 107.5H106.697V108.88H103.277V107.5ZM109.717 100.48H111.317V118.56H109.717V100.48ZM106.137 100.86H107.717V117.66H106.137V100.86ZM100.017 101.98C102.357 101.98 103.877 104.4 103.877 108.28C103.877 112.16 102.357 114.58 100.017 114.58C97.677 114.58 96.177 112.16 96.177 108.28C96.177 104.4 97.677 101.98 100.017 101.98ZM100.017 103.52C98.597 103.52 97.697 105.36 97.697 108.28C97.697 111.2 98.597 113.04 100.017 113.04C101.457 113.04 102.357 111.2 102.357 108.28C102.357 105.36 101.457 103.52 100.017 103.52ZM123.375 106.6H128.415V107.96H123.375V106.6ZM119.015 102.04H120.375V105.26C120.375 109.32 118.235 113.2 115.375 114.74L114.315 113.42C116.975 112.1 119.015 108.62 119.015 105.26V102.04ZM119.335 102.04H120.675V105.26C120.675 108.56 122.715 111.84 125.335 113.08L124.355 114.42C121.435 112.94 119.335 109.22 119.335 105.26V102.04ZM127.595 100.46H129.235V118.58H127.595V100.46ZM134.954 105.9H147.234V107.26H134.954V105.9ZM132.734 109.68H149.134V111.04H132.734V109.68ZM134.954 101.14H136.594V106.58H134.954V101.14ZM134.834 116.76H147.334V118.12H134.834V116.76ZM134.834 112.84H136.474V117.12H134.834V112.84ZM156.425 110.06H172.765V111.4H156.425V110.06ZM163.765 107.72H165.405V110.62H163.765V107.72ZM158.585 106.98H170.845V108.28H158.585V106.98ZM158.585 101H170.765V102.3H160.225V107.68H158.585V101ZM159.745 103.96H170.285V105.24H159.745V103.96ZM164.585 112.74C168.525 112.74 170.785 113.74 170.785 115.64C170.785 117.52 168.525 118.52 164.585 118.52C160.645 118.52 158.385 117.52 158.385 115.64C158.385 113.74 160.645 112.74 164.585 112.74ZM164.585 114C161.685 114 160.065 114.58 160.065 115.64C160.065 116.72 161.685 117.28 164.585 117.28C167.485 117.28 169.105 116.72 169.105 115.64C169.105 114.58 167.485 114 164.585 114ZM179.284 101.58H180.644V103.8C180.644 107.34 178.684 110.16 175.644 111.34L174.764 110.02C177.524 109.04 179.284 106.6 179.284 103.8V101.58ZM179.564 101.58H180.924V103.86C180.924 106.32 182.724 108.64 185.364 109.58L184.544 110.88C181.564 109.8 179.564 107.04 179.564 103.86V101.58ZM187.204 100.46H188.864V113.82H187.204V100.46ZM188.344 106.02H191.544V107.4H188.344V106.02ZM177.644 116.8H189.664V118.16H177.644V116.8ZM177.644 112.56H179.304V117.46H177.644V112.56ZM204.453 102.455V117H202.251V104.656H202.166L198.686 106.929V104.827L202.315 102.455H204.453ZM213.451 117.241C212.329 117.237 211.37 116.941 210.575 116.354C209.779 115.767 209.171 114.912 208.75 113.79C208.328 112.668 208.118 111.316 208.118 109.734C208.118 108.158 208.328 106.811 208.75 105.693C209.176 104.576 209.787 103.723 210.582 103.136C211.382 102.549 212.339 102.256 213.451 102.256C214.564 102.256 215.518 102.552 216.314 103.143C217.109 103.731 217.717 104.583 218.139 105.7C218.565 106.813 218.778 108.158 218.778 109.734C218.778 111.321 218.567 112.675 218.146 113.797C217.725 114.914 217.116 115.769 216.321 116.361C215.525 116.948 214.569 117.241 213.451 117.241ZM213.451 115.345C214.436 115.345 215.206 114.865 215.76 113.903C216.318 112.942 216.598 111.553 216.598 109.734C216.598 108.527 216.47 107.507 216.214 106.673C215.963 105.835 215.601 105.201 215.127 104.77C214.659 104.334 214.1 104.116 213.451 104.116C212.471 104.116 211.702 104.599 211.143 105.565C210.584 106.531 210.303 107.921 210.298 109.734C210.298 110.946 210.423 111.972 210.674 112.81C210.93 113.643 211.292 114.275 211.761 114.706C212.23 115.132 212.793 115.345 213.451 115.345ZM226.038 111.32H227.718V114.3H226.038V111.32ZM233.958 100.48H235.618V118.56H233.958V100.48ZM221.218 115.12L220.998 113.74C224.418 113.72 228.918 113.68 232.818 113.18L232.938 114.4C228.918 115.08 224.558 115.12 221.218 115.12ZM221.378 102.68H232.358V104.02H221.378V102.68ZM226.858 105.06C229.458 105.06 231.218 106.38 231.218 108.4C231.218 110.44 229.458 111.74 226.858 111.74C224.278 111.74 222.518 110.44 222.518 108.4C222.518 106.38 224.278 105.06 226.858 105.06ZM226.858 106.34C225.238 106.34 224.098 107.16 224.098 108.4C224.098 109.64 225.238 110.46 226.858 110.46C228.498 110.46 229.638 109.64 229.638 108.4C229.638 107.16 228.498 106.34 226.858 106.34ZM226.038 100.48H227.698V103.42H226.038V100.48ZM241.357 108.92H253.777V110.28H241.357V108.92ZM239.297 114.9H255.677V116.3H239.297V114.9ZM246.617 109.5H248.277V115.46H246.617V109.5ZM241.357 101.92H253.597V103.28H243.017V109.52H241.357V101.92ZM275.348 100.46H277.008V113.78H275.348V100.46ZM276.488 105.96H279.688V107.34H276.488V105.96ZM265.748 116.8H277.828V118.16H265.748V116.8ZM265.748 112.42H267.408V117.34H265.748V112.42ZM268.028 101.74C270.728 101.74 272.748 103.6 272.748 106.2C272.748 108.82 270.728 110.66 268.028 110.66C265.328 110.66 263.308 108.82 263.308 106.2C263.308 103.6 265.328 101.74 268.028 101.74ZM268.028 103.2C266.268 103.2 264.928 104.44 264.928 106.2C264.928 107.98 266.268 109.2 268.028 109.2C269.788 109.2 271.128 107.98 271.128 106.2C271.128 104.44 269.788 103.2 268.028 103.2ZM288.1 108.26H297.36V109.62H288.1V108.26ZM291.8 109.34H293.48V113.5H291.8V109.34ZM288.1 102.18H297.26V103.54H289.76V108.74H288.1V102.18ZM299.74 100.46H301.4V118.58H299.74V100.46ZM287 114.66L286.76 113.28C290.3 113.26 294.74 113.22 298.56 112.76L298.7 114C294.74 114.6 290.42 114.68 287 114.66ZM307.278 105.9H319.558V107.26H307.278V105.9ZM305.058 109.68H321.458V111.04H305.058V109.68ZM307.278 101.14H308.918V106.58H307.278V101.14ZM307.158 116.76H319.658V118.12H307.158V116.76ZM307.158 112.84H308.798V117.12H307.158V112.84ZM341.83 100.48H343.49V118.56H341.83V100.48ZM329.09 115.02L328.87 113.62C332.29 113.6 336.79 113.6 340.69 113.08L340.81 114.32C336.77 114.98 332.43 115.04 329.09 115.02ZM329.25 102.9H340.23V104.26H329.25V102.9ZM334.73 105.24C337.29 105.24 339.07 106.6 339.07 108.64C339.07 110.68 337.29 112.04 334.73 112.04C332.19 112.04 330.43 110.68 330.43 108.64C330.43 106.6 332.19 105.24 334.73 105.24ZM334.73 106.56C333.11 106.56 331.99 107.38 331.99 108.64C331.99 109.9 333.11 110.76 334.73 110.76C336.37 110.76 337.49 109.9 337.49 108.64C337.49 107.38 336.37 106.56 334.73 106.56ZM333.91 100.66H335.57V103.76H333.91V100.66ZM352.068 109.98H353.748V117.52H352.068V109.98ZM360.468 100.48H362.108V118.56H360.468V100.48ZM347.268 110.5L347.048 109.1C350.708 109.08 355.188 109.02 359.168 108.6L359.308 109.84C355.248 110.4 350.848 110.48 347.268 110.5ZM348.628 101.86H356.108V103.24H348.628V101.86ZM355.468 101.86H357.108V102.6C357.108 103.86 357.108 106.12 356.508 109.34L354.868 109.2C355.468 106.02 355.468 103.84 355.468 102.6V101.86ZM377.926 100.5H379.586V114.06H377.926V100.5ZM379.066 106.42H382.266V107.82H379.066V106.42ZM365.606 102.68H376.286V104.02H365.606V102.68ZM370.946 105.02C373.506 105.02 375.266 106.36 375.266 108.4C375.266 110.42 373.506 111.76 370.946 111.76C368.366 111.76 366.606 110.42 366.606 108.4C366.606 106.36 368.366 105.02 370.946 105.02ZM370.946 106.32C369.306 106.32 368.186 107.14 368.186 108.4C368.186 109.64 369.306 110.46 370.946 110.46C372.566 110.46 373.686 109.64 373.686 108.4C373.686 107.14 372.566 106.32 370.946 106.32ZM370.106 100.48H371.766V103.38H370.106V100.48ZM368.326 116.8H380.406V118.16H368.326V116.8ZM368.326 112.98H369.986V117.38H368.326V112.98ZM393.698 102.42H395.058V103.88C395.058 107.2 393.058 109.98 390.018 111.08L389.178 109.76C391.898 108.8 393.698 106.46 393.698 103.88V102.42ZM393.998 102.42H395.358V103.86C395.358 106.22 397.078 108.34 399.738 109.22L398.938 110.52C395.918 109.52 393.998 106.94 393.998 103.86V102.42ZM389.678 101.82H399.338V103.18H389.678V101.82ZM401.618 100.48H403.278V111.38H401.618V100.48ZM402.818 105.06H405.958V106.46H402.818V105.06ZM397.518 111.86C401.198 111.86 403.458 113.08 403.458 115.18C403.458 117.3 401.198 118.52 397.518 118.52C393.838 118.52 391.578 117.3 391.578 115.18C391.578 113.08 393.838 111.86 397.518 111.86ZM397.518 113.2C394.838 113.2 393.198 113.92 393.198 115.18C393.198 116.46 394.838 117.22 397.518 117.22C400.198 117.22 401.838 116.46 401.838 115.18C401.838 113.92 400.198 113.2 397.518 113.2ZM416.316 103.66H421.376V105.02H416.316V103.66ZM416.316 107.52H421.416V108.9H416.316V107.52ZM408.476 102.04H416.736V110.52H408.476V102.04ZM415.096 103.38H410.096V109.18H415.096V103.38ZM420.856 100.5H422.516V113.7H420.856V100.5ZM410.896 116.8H422.956V118.16H410.896V116.8ZM410.896 112.5H412.556V117.42H410.896V112.5ZM439.195 100.48H440.875V110.18H439.195V100.48ZM429.215 111.08H430.855V113.28H439.235V111.08H440.875V118.32H429.215V111.08ZM430.855 114.6V116.98H439.235V114.6H430.855ZM431.175 101.34C433.915 101.34 435.875 103.04 435.875 105.5C435.875 107.98 433.915 109.68 431.175 109.68C428.435 109.68 426.455 107.98 426.455 105.5C426.455 103.04 428.435 101.34 431.175 101.34ZM431.175 102.72C429.375 102.72 428.075 103.86 428.075 105.5C428.075 107.14 429.375 108.28 431.175 108.28C432.975 108.28 434.275 107.14 434.275 105.5C434.275 103.86 432.975 102.72 431.175 102.72ZM457.593 100.48H459.253V118.56H457.593V100.48ZM445.593 102.24H447.233V113.44H445.593V102.24ZM445.593 112.46H447.073C449.813 112.46 452.673 112.26 455.733 111.62L455.933 113.04C452.793 113.68 449.933 113.9 447.073 113.9H445.593V112.46ZM475.072 100.46H476.752V118.58H475.072V100.46ZM476.352 107.6H479.712V109H476.352V107.6ZM463.612 112.68H465.032C468.372 112.68 470.712 112.56 473.412 112.06L473.592 113.46C470.812 113.98 468.432 114.08 465.032 114.08H463.612V112.68ZM463.612 102.22H472.012V103.58H465.252V113.3H463.612V102.22ZM483.077 117.135C482.688 117.135 482.355 116.998 482.075 116.723C481.796 116.444 481.656 116.107 481.656 115.714C481.656 115.326 481.796 114.995 482.075 114.72C482.355 114.441 482.688 114.301 483.077 114.301C483.465 114.301 483.799 114.441 484.078 114.72C484.357 114.995 484.497 115.326 484.497 115.714C484.497 115.975 484.431 116.214 484.298 116.432C484.17 116.645 484 116.815 483.787 116.943C483.574 117.071 483.337 117.135 483.077 117.135Z" fill="black"/>
<g clip-path="url(#clip0_1377_289)">
<path d="M213 53C222.941 53 231 44.9411 231 35C231 25.0589 222.941 17 213 17C203.059 17 195 25.0589 195 35C195 44.9411 203.059 53 213 53Z" fill="#E1E8ED"/>
<path d="M226.802 46.5462C223.792 45.2212 222 41.0482 222 35.0002C222 28.9522 223.792 24.7792 226.802 23.4542C226.356 22.9258 225.879 22.4237 225.374 21.9502C222.406 23.6052 220 27.5782 220 35.0002C220 42.4212 222.406 46.3952 225.374 48.0502C225.876 47.5732 226.358 47.0772 226.802 46.5462ZM206 35.0002C206 27.5792 203.594 23.6052 200.626 21.9512C200.122 22.4243 199.645 22.9262 199.198 23.4542C202.208 24.7802 204 28.9522 204 35.0002C204 41.0482 202.208 45.2202 199.198 46.5462C199.643 47.0772 200.124 47.5732 200.626 48.0502C203.593 46.3952 206 42.4212 206 35.0002Z" fill="#B3BEC4"/>
<path d="M200.092 27.164C199.855 27.164 199.635 27.144 199.441 27.108C199.18 27.0592 198.95 26.9088 198.8 26.69C198.726 26.5816 198.674 26.4597 198.646 26.3312C198.619 26.2027 198.618 26.0701 198.642 25.941C198.666 25.8119 198.716 25.6888 198.787 25.5788C198.859 25.4688 198.952 25.374 199.06 25.2998C199.279 25.15 199.548 25.0932 199.809 25.142C200.239 25.219 202.5 25.148 202.957 22.866C203.009 22.606 203.162 22.3773 203.383 22.2302C203.492 22.1574 203.615 22.1069 203.744 22.0814C203.873 22.056 204.005 22.0562 204.134 22.082C204.263 22.1078 204.385 22.1587 204.494 22.2318C204.603 22.3049 204.697 22.3988 204.77 22.5081C204.843 22.6174 204.893 22.74 204.919 22.8688C204.944 22.9977 204.944 23.1302 204.918 23.259C204.335 26.171 201.779 27.164 200.092 27.164ZM201.792 31.125C201.262 31.125 200.84 30.802 200.814 30.266C200.788 29.715 201.214 29.355 201.766 29.329C201.766 29.329 204.33 29.294 205.635 27.035C205.701 26.9219 205.789 26.823 205.894 26.744C205.998 26.665 206.117 26.6075 206.244 26.5748C206.371 26.5421 206.503 26.5348 206.633 26.5533C206.763 26.5719 206.887 26.616 207 26.683C207.478 26.959 207.642 27.577 207.365 28.056C205.514 31.262 201.808 31.125 201.792 31.125ZM204 36.282C203.266 36.282 202.586 36.147 202.072 35.904C201.832 35.7905 201.647 35.5864 201.558 35.3366C201.469 35.0868 201.483 34.8118 201.596 34.572C201.71 34.3322 201.914 34.1474 202.163 34.0581C202.413 33.9689 202.688 33.9825 202.928 34.096C203.758 34.489 205.854 34.335 206.658 33.084C206.729 32.9735 206.821 32.878 206.929 32.8031C207.037 32.7282 207.158 32.6752 207.287 32.6473C207.415 32.6193 207.548 32.6169 207.677 32.6402C207.806 32.6635 207.93 32.712 208.04 32.783C208.151 32.854 208.246 32.946 208.321 33.0539C208.396 33.1618 208.449 33.2833 208.477 33.4117C208.505 33.54 208.507 33.6726 208.484 33.8018C208.461 33.9311 208.412 34.0545 208.341 34.165C207.377 35.666 205.565 36.282 204 36.282ZM205.161 41.807C203.607 41.807 202.166 41.108 201.235 40.331C201.134 40.247 201.051 40.1439 200.99 40.0276C200.929 39.9113 200.891 39.7842 200.879 39.6534C200.867 39.5226 200.881 39.3907 200.92 39.2653C200.959 39.1399 201.023 39.0234 201.107 38.9225C201.191 38.8216 201.294 38.7382 201.41 38.6771C201.526 38.616 201.653 38.5785 201.784 38.5665C201.915 38.5546 202.047 38.5686 202.172 38.6076C202.298 38.6466 202.414 38.71 202.515 38.794C202.709 38.957 204.467 40.36 206.297 39.579C206.418 39.5277 206.548 39.5008 206.679 39.4997C206.811 39.4986 206.941 39.5234 207.063 39.5726C207.184 39.6219 207.295 39.6947 207.389 39.7868C207.483 39.8789 207.557 39.9886 207.609 40.1095C207.66 40.2304 207.687 40.3603 207.688 40.4917C207.689 40.623 207.664 40.7533 207.615 40.8751C207.566 40.9969 207.493 41.1078 207.401 41.2015C207.309 41.2951 207.199 41.3697 207.078 41.421C206.471 41.6772 205.82 41.8084 205.161 41.807ZM204.75 47H204.722C202.218 47 200.043 45.43 199.188 43.892C198.919 43.41 199.094 42.848 199.576 42.58C200.059 42.311 200.668 42.51 200.936 42.992C201.42 43.863 202.932 45.126 204.777 45.177C205.329 45.193 205.764 45.565 205.749 46.116C205.734 46.658 205.29 47 204.75 47ZM222.188 47.188C222.04 47.1881 221.894 47.1553 221.76 47.092C221.626 47.0287 221.508 46.9364 221.414 46.8219C221.32 46.7073 221.253 46.5734 221.217 46.4297C221.181 46.286 221.178 46.1362 221.207 45.991C221.871 42.669 225.101 41.841 226.685 42.142C226.946 42.191 227.176 42.3415 227.326 42.5603C227.475 42.7791 227.532 43.0484 227.483 43.309C227.46 43.4384 227.411 43.5618 227.339 43.6721C227.267 43.7824 227.175 43.8774 227.066 43.9517C226.958 44.0259 226.835 44.0778 226.707 44.1045C226.578 44.1312 226.445 44.132 226.316 44.107C225.891 44.027 223.626 44.1 223.169 46.383C223.124 46.61 223.002 46.8143 222.823 46.961C222.644 47.1078 222.419 47.188 222.188 47.188ZM219.624 42.688C219.449 42.6881 219.276 42.642 219.124 42.5542C218.972 42.4664 218.846 42.3401 218.758 42.1881C218.67 42.036 218.624 41.8634 218.624 41.6879C218.625 41.5123 218.671 41.3399 218.759 41.188C220.611 37.982 222.743 37.884 224.153 37.819L224.264 37.814C224.529 37.8013 224.788 37.8943 224.985 38.0727C225.181 38.251 225.298 38.5 225.311 38.765C225.324 39.03 225.231 39.2891 225.052 39.4855C224.874 39.6818 224.625 39.7993 224.36 39.812L224.245 39.817C223.041 39.873 221.796 39.929 220.491 42.188C220.403 42.3402 220.277 42.4665 220.125 42.5543C219.972 42.642 219.8 42.6882 219.624 42.688ZM218.624 36.625C218.445 36.625 218.268 36.5767 218.114 36.4851C217.96 36.3935 217.833 36.262 217.747 36.1044C217.661 35.9468 217.619 35.769 217.626 35.5896C217.632 35.4102 217.687 35.2359 217.784 35.085C219.199 32.882 222.44 32.584 224.052 33.347C224.29 33.4612 224.474 33.6652 224.562 33.9143C224.651 34.1634 224.637 34.4373 224.524 34.6763C224.411 34.9152 224.208 35.0997 223.959 35.1894C223.711 35.2791 223.437 35.2667 223.197 35.155C222.368 34.762 220.271 34.916 219.465 36.167C219.374 36.3076 219.25 36.4232 219.103 36.5032C218.956 36.5832 218.791 36.6251 218.624 36.625ZM224.249 30.688C224.015 30.6879 223.789 30.6058 223.609 30.456C223.415 30.294 221.657 28.897 219.828 29.671C219.586 29.7618 219.319 29.7557 219.082 29.654C218.845 29.5523 218.656 29.3629 218.555 29.1253C218.454 28.8877 218.449 28.6203 218.54 28.3789C218.632 28.1376 218.813 27.9409 219.046 27.83C221.265 26.888 223.581 27.829 224.89 28.92C225.048 29.0516 225.161 29.2287 225.215 29.4271C225.269 29.6255 225.26 29.8356 225.19 30.0288C225.12 30.2221 224.992 30.389 224.823 30.507C224.655 30.6249 224.455 30.6881 224.249 30.688ZM226.063 26.75C225.885 26.7502 225.709 26.7026 225.556 26.6122C225.402 26.5219 225.275 26.392 225.188 26.236C224.704 25.364 223.192 24.113 221.347 24.062C220.794 24.047 220.36 23.556 220.374 23.003C220.391 22.461 220.835 22 221.374 22H221.402C223.907 22 226.082 23.694 226.936 25.232C227.065 25.4664 227.097 25.7423 227.024 25.9999C226.951 26.2575 226.78 26.476 226.547 26.608C226.401 26.6959 226.234 26.7448 226.063 26.75Z" fill="#DD2E44"/>
</g>
<defs>
<clipPath id="clip0_1377_289">
<rect width="36" height="36" fill="white" transform="translate(195 17)"/>
</clipPath>
</defs>
</svg>
