<svg width="570" height="165" viewBox="0 0 570 165" fill="none" xmlns="http://www.w3.org/2000/svg">
<rect x="0.5" y="0.5" width="569" height="151" rx="17.5" fill="white" stroke="#8A9A6B"/>
<path d="M40.7406 22.995H44.2414V41.2097H40.7406V22.995ZM43.2412 30.4177H47.479V33.2868H43.2412V30.4177ZM25.0529 25.5219H39.3982V28.2594H25.0529V25.5219ZM32.2387 29.128C35.7395 29.128 38.2138 31.0495 38.2138 33.8396C38.2138 36.6297 35.7395 38.5248 32.2387 38.5248C28.7116 38.5248 26.2373 36.6297 26.2373 33.8396C26.2373 31.0495 28.7116 29.128 32.2387 29.128ZM32.2387 31.7865C30.6857 31.7865 29.6065 32.5235 29.6065 33.8396C29.6065 35.1557 30.6857 35.8663 32.2387 35.8663C33.7917 35.8663 34.8709 35.1557 34.8709 33.8396C34.8709 32.5235 33.7917 31.7865 32.2387 31.7865ZM30.4752 22.9424H33.9759V26.8643H30.4752V22.9424ZM28.5273 44.1314H45.1101V46.9215H28.5273V44.1314ZM28.5273 39.8409H32.0281V45.3422H28.5273V39.8409ZM72.5365 22.9687H76.0636V36.0769H72.5365V22.9687ZM59.8494 37.1298H63.2976V39.3935H72.5892V37.1298H76.0636V47.0794H59.8494V37.1298ZM63.2976 42.0783V44.2893H72.5892V42.0783H63.2976ZM62.7975 23.9689C66.5878 23.9689 69.4042 26.3642 69.4042 29.7334C69.4042 33.1026 66.5878 35.4978 62.7975 35.4978C59.0071 35.4978 56.1644 33.1026 56.1644 29.7334C56.1644 26.3642 59.0071 23.9689 62.7975 23.9689ZM62.7975 26.8643C60.9286 26.8643 59.5862 27.9435 59.5862 29.7334C59.5862 31.5496 60.9286 32.6024 62.7975 32.6024C64.64 32.6024 65.9824 31.5496 65.9824 29.7334C65.9824 27.9435 64.64 26.8643 62.7975 26.8643ZM93.0667 24.6533C96.778 24.6533 99.4628 28.0225 99.4628 33.3395C99.4628 38.7091 96.778 42.0783 93.0667 42.0783C89.3553 42.0783 86.6705 38.7091 86.6705 33.3395C86.6705 28.0225 89.3553 24.6533 93.0667 24.6533ZM93.0667 27.8382C91.2505 27.8382 90.0397 29.7597 90.0397 33.3395C90.0397 36.9719 91.2505 38.9197 93.0667 38.9197C94.8829 38.9197 96.12 36.9719 96.12 33.3395C96.12 29.7597 94.8829 27.8382 93.0667 27.8382ZM104.701 28.6279H108.991V31.5233H104.701V28.6279ZM104.701 35.7874H108.991V38.6565H104.701V35.7874ZM102.121 22.9687H105.648V47.3426H102.121V22.9687ZM113.28 24.3901H128.573V27.1538H113.28V24.3901ZM110.779 34.7608H132.81V37.5773H110.779V34.7608ZM119.913 36.735H123.44V47.369H119.913V36.735ZM126.783 24.3901H130.231V26.5484C130.231 29.1806 130.231 32.1287 129.283 36.4454L125.835 36.0506C126.783 31.9707 126.783 29.0753 126.783 26.5484V24.3901ZM146.839 24.2848H149.708V26.4432C149.708 31.2864 147.602 35.5505 142.97 37.1561L141.101 34.3923C145.181 33.0236 146.839 29.7597 146.839 26.4432V24.2848ZM147.55 24.2848H150.393V26.7853C150.393 29.7071 152.025 32.5498 155.841 33.7343L154.025 36.4454C149.629 34.9714 147.55 31.1811 147.55 26.7853V24.2848ZM157.184 22.9687H160.684V37.3667H157.184V22.9687ZM159.71 28.6015H163.922V31.4969H159.71V28.6015ZM152.735 37.9194C157.789 37.9194 160.974 39.683 160.974 42.631C160.974 45.6054 157.789 47.3426 152.735 47.3426C147.655 47.3426 144.47 45.6054 144.47 42.631C144.47 39.683 147.655 37.9194 152.735 37.9194ZM152.735 40.6306C149.629 40.6306 147.945 41.2886 147.945 42.631C147.945 43.9998 149.629 44.6315 152.735 44.6315C155.841 44.6315 157.499 43.9998 157.499 42.631C157.499 41.2886 155.841 40.6306 152.735 40.6306ZM171.422 24.0742H174.317V26.4168C174.317 31.0231 172.08 35.2083 167.315 36.735L165.605 33.9712C169.711 32.6551 171.422 29.4965 171.422 26.4168V24.0742ZM172.132 24.0742H175.001V26.4168C175.001 29.4175 176.686 32.3656 180.661 33.5764L178.95 36.3138C174.291 34.8398 172.132 30.9442 172.132 26.4168V24.0742ZM169.342 38.5775H185.978V47.3426H182.45V41.3676H169.342V38.5775ZM182.45 22.9687H185.978V37.4983H182.45V22.9687Z" fill="black"/>
<path d="M26.68 84.22H39.8V86.34H26.68V84.22ZM24.82 90.56H41.58V92.7H24.82V90.56ZM31.86 85.48H34.52V91.16H31.86V85.48ZM26.68 77.66H29.36V85.14H26.68V77.66ZM55.8984 76.26H58.5784V94.78H55.8984V76.26ZM43.5984 79.04H54.5584V81.14H43.5984V79.04ZM49.0984 82.16C51.8384 82.16 53.8584 84 53.8584 86.58C53.8584 89.16 51.8384 91 49.0984 91C46.3584 91 44.3584 89.16 44.3584 86.58C44.3584 84 46.3584 82.16 49.0984 82.16ZM49.0984 84.32C47.8184 84.32 46.8984 85.16 46.8984 86.58C46.8984 88 47.8184 88.84 49.0984 88.84C50.3784 88.84 51.2984 88 51.2984 86.58C51.2984 85.16 50.3784 84.32 49.0984 84.32ZM47.7384 76.52H50.4184V80.34H47.7384V76.52ZM63.5769 85.8H76.5969V87.88H63.5769V85.8ZM61.6169 90.5H78.3769V92.66H61.6169V90.5ZM63.5769 77.6H76.4369V79.74H66.2769V86.38H63.5769V77.6ZM65.4569 81.68H76.0169V83.74H65.4569V81.68ZM81.8753 84.22H94.9953V86.34H81.8753V84.22ZM80.0153 90.56H96.7753V92.7H80.0153V90.56ZM87.0553 85.48H89.7153V91.16H87.0553V85.48ZM81.8753 77.66H84.5553V85.14H81.8753V77.66ZM99.0938 85.4H100.614C104.074 85.4 106.234 85.34 108.694 84.94L108.894 87.06C106.374 87.46 104.134 87.52 100.614 87.52H99.0938V85.4ZM99.0738 77.48H107.434V83.42H101.734V86.78H99.0938V81.42H104.814V79.6H99.0738V77.48ZM111.234 76.28H113.894V89.9H111.234V76.28ZM101.574 92.34H114.354V94.46H101.574V92.34ZM101.574 88.82H104.234V93.02H101.574V88.82ZM108.334 80.7H111.754V82.94H108.334V80.7ZM116.972 85.98H133.312V87.34H116.972V85.98ZM119.092 92.8H131.512V94.16H119.092V92.8ZM119.092 88.92H120.752V93.22H119.092V88.92ZM125.152 77.08C129.012 77.08 131.512 78.44 131.512 80.7C131.512 82.94 129.012 84.3 125.152 84.3C121.272 84.3 118.792 82.94 118.792 80.7C118.792 78.44 121.272 77.08 125.152 77.08ZM125.152 78.44C122.312 78.44 120.492 79.28 120.492 80.7C120.492 82.12 122.312 82.96 125.152 82.96C127.992 82.96 129.812 82.12 129.812 80.7C129.812 79.28 127.992 78.44 125.152 78.44ZM140.996 87.42H157.376V88.8H140.996V87.42ZM148.356 87.82H149.996V94.58H148.356V87.82ZM143.176 84.22H155.556V85.58H143.176V84.22ZM143.176 77.32H155.356V78.66H144.816V84.62H143.176V77.32ZM144.336 80.74H154.916V82.04H144.336V80.74ZM166.714 77.12H168.174V78.12C168.174 81.58 164.654 84.06 160.894 84.7L160.234 83.36C163.534 82.86 166.714 80.7 166.714 78.12V77.12ZM167.014 77.12H168.454V78.12C168.454 80.64 171.674 82.86 174.934 83.36L174.274 84.7C170.554 84.06 167.014 81.54 167.014 78.12V77.12ZM166.714 87.68H168.354V94.56H166.714V87.68ZM159.414 86.66H175.754V88.04H159.414V86.66ZM190.033 76.46H191.713V94.56H190.033V76.46ZM191.253 83.8H194.593V85.18H191.253V83.8ZM185.413 78.42H187.033C187.033 83.56 184.673 88.2 178.833 91.14L177.913 89.86C182.913 87.32 185.413 83.46 185.413 78.68V78.42ZM178.753 78.42H186.273V79.78H178.753V78.42ZM206.216 77.42H207.596V79.26C207.596 82.74 205.636 85.62 202.616 86.8L201.736 85.46C204.456 84.46 206.216 82.02 206.216 79.26V77.42ZM206.516 77.42H207.876V79.38C207.876 81.82 209.676 84.08 212.276 84.98L211.396 86.28C208.496 85.2 206.516 82.52 206.516 79.38V77.42ZM214.196 76.48H215.856V87.44H214.196V76.48ZM215.396 81.14H218.536V82.54H215.396V81.14ZM210.096 87.94C213.796 87.94 216.036 89.16 216.036 91.24C216.036 93.32 213.796 94.52 210.096 94.52C206.396 94.52 204.156 93.32 204.156 91.24C204.156 89.16 206.396 87.94 210.096 87.94ZM210.096 89.26C207.416 89.26 205.776 89.98 205.776 91.24C205.776 92.5 207.416 93.22 210.096 93.22C212.776 93.22 214.416 92.5 214.416 91.24C214.416 89.98 212.776 89.26 210.096 89.26ZM233.974 76.48H235.574V94.56H233.974V76.48ZM230.914 83.72H234.394V85.1H230.914V83.72ZM229.874 76.88H231.434V93.64H229.874V76.88ZM220.874 88.72H222.054C224.694 88.72 226.494 88.62 228.594 88.18L228.754 89.56C226.594 90.02 224.774 90.1 222.054 90.1H220.874V88.72ZM220.874 78.68H227.594V80.04H222.514V89.34H220.874V78.68ZM239.673 84.84H241.133C245.033 84.84 247.173 84.76 249.713 84.32L249.893 85.64C247.273 86.1 245.073 86.16 241.133 86.16H239.673V84.84ZM239.673 77.58H248.273V78.92H241.313V85.52H239.673V77.58ZM240.773 81.14H247.773V82.48H240.773V81.14ZM251.773 76.5H253.453V87.26H251.773V76.5ZM241.773 88.16H253.453V94.32H241.773V88.16ZM251.813 89.5H243.393V92.98H251.813V89.5ZM264.351 83.5H267.771V84.88H264.351V83.5ZM270.791 76.48H272.391V94.56H270.791V76.48ZM267.211 76.86H268.791V93.66H267.211V76.86ZM261.091 77.98C263.431 77.98 264.951 80.4 264.951 84.28C264.951 88.16 263.431 90.58 261.091 90.58C258.751 90.58 257.251 88.16 257.251 84.28C257.251 80.4 258.751 77.98 261.091 77.98ZM261.091 79.52C259.671 79.52 258.771 81.36 258.771 84.28C258.771 87.2 259.671 89.04 261.091 89.04C262.531 89.04 263.431 87.2 263.431 84.28C263.431 81.36 262.531 79.52 261.091 79.52ZM289.19 76.48H290.79V94.56H289.19V76.48ZM281.35 83.86H285.91V85.2H281.35V83.86ZM285.43 76.94H286.99V93.64H285.43V76.94ZM281.57 78.76H283.17C283.17 83.5 281.27 87.76 276.39 90.66L275.41 89.48C279.67 86.92 281.57 83.32 281.57 79.06V78.76ZM276.21 78.76H282.19V80.12H276.21V78.76ZM311.813 76.46H313.473V89.78H311.813V76.46ZM312.953 81.96H316.153V83.34H312.953V81.96ZM302.213 92.8H314.293V94.16H302.213V92.8ZM302.213 88.42H303.873V93.34H302.213V88.42ZM304.493 77.74C307.193 77.74 309.213 79.6 309.213 82.2C309.213 84.82 307.193 86.66 304.493 86.66C301.793 86.66 299.773 84.82 299.773 82.2C299.773 79.6 301.793 77.74 304.493 77.74ZM304.493 79.2C302.733 79.2 301.393 80.44 301.393 82.2C301.393 83.98 302.733 85.2 304.493 85.2C306.253 85.2 307.593 83.98 307.593 82.2C307.593 80.44 306.253 79.2 304.493 79.2ZM318.612 88.84H320.032C323.372 88.84 325.672 88.76 328.392 88.28L328.572 89.64C325.772 90.12 323.412 90.22 320.032 90.22H318.612V88.84ZM318.612 78.12H327.032V79.5H320.272V89.32H318.612V78.12ZM319.852 83.18H326.632V84.52H319.852V83.18ZM330.072 76.48H331.752V94.56H330.072V76.48ZM331.352 83.74H334.712V85.14H331.352V83.74ZM336.23 84.88H352.63V86.14H336.23V84.88ZM338.17 87.6H350.57V91.46H339.87V93.58H338.23V90.32H348.95V88.78H338.17V87.6ZM338.23 93.14H351.15V94.34H338.23V93.14ZM338.31 77H350.51V80.76H339.99V82.72H338.35V79.64H348.89V78.18H338.31V77ZM338.35 82.32H350.85V83.52H338.35V82.32ZM372.513 76.48H374.173V94.56H372.513V76.48ZM373.773 83.9H377.133V85.3H373.773V83.9ZM360.173 79.36H370.833V80.72H360.173V79.36ZM365.573 82.22C368.133 82.22 369.973 83.94 369.973 86.38C369.973 88.82 368.133 90.54 365.573 90.54C363.033 90.54 361.173 88.82 361.173 86.38C361.173 83.94 363.033 82.22 365.573 82.22ZM365.573 83.6C363.933 83.6 362.753 84.74 362.753 86.38C362.753 88 363.933 89.16 365.573 89.16C367.213 89.16 368.393 88 368.393 86.38C368.393 84.74 367.213 83.6 365.573 83.6ZM364.713 76.7H366.373V79.98H364.713V76.7ZM392.112 83.68H395.452V85.08H392.112V83.68ZM390.892 76.46H392.572V94.56H390.892V76.46ZM379.372 78.24H381.032V89.44H379.372V78.24ZM379.372 88.58H380.812C383.492 88.58 386.232 88.4 389.212 87.78L389.412 89.16C386.332 89.8 383.552 89.98 380.812 89.98H379.372V88.58ZM399.13 84.92H411.55V86.28H399.13V84.92ZM397.07 90.9H413.45V92.3H397.07V90.9ZM404.39 85.5H406.05V91.46H404.39V85.5ZM399.13 77.92H411.37V79.28H400.79V85.52H399.13V77.92ZM434.814 76.48H436.414V94.56H434.814V76.48ZM431.774 83.84H435.254V85.2H431.774V83.84ZM430.714 76.88H432.274V93.64H430.714V76.88ZM421.954 78.66H423.614V89.1H421.954V78.66ZM421.954 88.44H423.114C424.974 88.44 427.054 88.32 429.414 87.86L429.594 89.3C427.134 89.78 425.054 89.88 423.114 89.88H421.954V88.44ZM446.732 78.26H448.172V79.02C448.172 82.26 444.732 84.64 441.092 85.26L440.452 83.94C443.632 83.48 446.732 81.4 446.732 79.02V78.26ZM447.152 78.26H448.572V79.02C448.572 81.4 451.692 83.48 454.852 83.94L454.232 85.26C450.572 84.64 447.152 82.26 447.152 79.02V78.26ZM446.792 87.66H448.432V94.56H446.792V87.66ZM439.492 86.78H455.832V88.14H439.492V86.78ZM441.012 77.6H454.252V78.94H441.012V77.6ZM462.671 79.06H464.011V82C464.011 85.82 461.711 89.66 458.831 91.08L457.871 89.76C460.491 88.52 462.671 85.12 462.671 82V79.06ZM462.991 79.06H464.331V82C464.331 85.06 466.511 88.18 469.171 89.32L468.231 90.64C465.311 89.28 462.991 85.76 462.991 82V79.06ZM458.471 78.32H468.571V79.72H458.471V78.32ZM471.011 76.48H472.671V94.56H471.011V76.48ZM486.894 77.5C489.594 77.5 491.574 79.22 491.574 81.68C491.574 84.14 489.594 85.86 486.894 85.86C484.214 85.86 482.234 84.14 482.234 81.68C482.234 79.22 484.214 77.5 486.894 77.5ZM486.894 78.86C485.174 78.86 483.854 80.04 483.854 81.68C483.854 83.32 485.174 84.5 486.894 84.5C488.654 84.5 489.974 83.32 489.974 81.68C489.974 80.04 488.654 78.86 486.894 78.86ZM494.274 76.48H495.934V85.48H494.274V76.48ZM495.214 80.54H498.614V81.9H495.214V80.54ZM483.794 92.72H484.654C485.734 92.72 487.474 92.62 489.014 92.1L489.294 93.44C487.554 94 485.894 94.08 484.654 94.08H483.794V92.72ZM483.794 87.44H485.414V93.2H483.794V87.44ZM488.634 87.56H497.714V88.8H488.634V87.56ZM493.194 89.44C495.154 89.44 496.534 90.42 496.534 91.98C496.534 93.56 495.154 94.54 493.194 94.54C491.214 94.54 489.834 93.56 489.834 91.98C489.834 90.42 491.214 89.44 493.194 89.44ZM493.194 90.62C492.074 90.62 491.314 91.16 491.314 91.98C491.314 92.82 492.074 93.36 493.194 93.36C494.274 93.36 495.054 92.82 495.054 91.98C495.054 91.16 494.274 90.62 493.194 90.62ZM492.374 85.94H493.994V88.52H492.374V85.94ZM502.033 78.28H513.673V79.66H502.033V78.28ZM500.313 90.66H516.653V92.04H500.313V90.66ZM506.653 84.2H508.313V91.34H506.653V84.2ZM513.053 78.28H514.693V80.08C514.693 82.32 514.693 84.8 514.033 88.46L512.373 88.24C513.053 84.78 513.053 82.24 513.053 80.08V78.28ZM532.976 79.8H537.816V81.16H532.976V79.8ZM532.816 83.56H537.696V84.92H532.816V83.56ZM537.536 76.48H539.196V87.32H537.536V76.48ZM531.876 77.84H533.656C533.656 82.5 530.436 85.76 525.236 87.32L524.556 85.98C529.176 84.64 531.876 81.98 531.876 78.56V77.84ZM525.496 77.84H533.016V79.2H525.496V77.84ZM533.316 87.52C536.976 87.52 539.296 88.82 539.296 91C539.296 93.18 536.976 94.48 533.316 94.48C529.656 94.48 527.336 93.18 527.336 91C527.336 88.82 529.656 87.52 533.316 87.52ZM533.316 88.82C530.676 88.82 528.976 89.64 528.976 91C528.976 92.36 530.676 93.16 533.316 93.16C535.976 93.16 537.676 92.36 537.676 91C537.676 89.64 535.976 88.82 533.316 88.82ZM38.16 100.48H39.82V118.56H38.16V100.48ZM32.86 102.42H34.5C34.5 107.66 32.14 112.24 26.1 115.2L25.22 113.86C30.44 111.34 32.86 107.5 32.86 102.7V102.42ZM26.04 102.42H33.58V103.78H26.04V102.42ZM43.3784 108.88H59.7784V110.14H43.3784V108.88ZM45.3184 111.6H57.7184V115.46H47.0184V117.58H45.3784V114.32H56.0984V112.78H45.3184V111.6ZM45.3784 117.14H58.2984V118.34H45.3784V117.14ZM45.4584 101H57.6584V104.76H47.1384V106.72H45.4984V103.64H56.0384V102.18H45.4584V101ZM45.4984 106.32H57.9984V107.52H45.4984V106.32ZM67.4019 107.44H83.8019V108.78H67.4019V107.44ZM68.9219 101.18H73.7219V102.52H68.9219V101.18ZM73.1619 101.18H74.7819V101.7C74.7819 102.7 74.7819 104.92 73.9419 107.94L72.3219 107.74C73.1619 104.74 73.1619 102.74 73.1619 101.7V101.18ZM76.0019 101.18H80.8819V102.52H76.0019V101.18ZM80.1419 101.18H81.7619V101.96C81.7619 103.14 81.7619 105.2 81.0419 108.02L79.4219 107.78C80.1419 105.02 80.1419 103.12 80.1419 101.96V101.18ZM69.4619 110.68H81.8019V111.96H71.1219V117.38H69.4619V110.68ZM69.4619 117.04H81.9219V118.32H69.4619V117.04ZM70.4219 113.84H81.3419V115.08H70.4219V113.84ZM99.5403 100.48H101.14V118.56H99.5403V100.48ZM96.5003 107.84H99.9803V109.2H96.5003V107.84ZM95.4403 100.88H97.0003V117.64H95.4403V100.88ZM86.6803 102.66H88.3403V113.1H86.6803V102.66ZM86.6803 112.44H87.8403C89.7003 112.44 91.7803 112.32 94.1403 111.86L94.3203 113.3C91.8603 113.78 89.7803 113.88 87.8403 113.88H86.6803V112.44ZM106.419 105.9H118.699V107.26H106.419V105.9ZM104.199 109.68H120.599V111.04H104.199V109.68ZM106.419 101.14H108.059V106.58H106.419V101.14ZM106.299 116.76H118.799V118.12H106.299V116.76ZM106.299 112.84H107.939V117.12H106.299V112.84ZM141.402 100.48H143.062V118.56H141.402V100.48ZM136.102 102.42H137.742C137.742 107.66 135.382 112.24 129.342 115.2L128.462 113.86C133.682 111.34 136.102 107.5 136.102 102.7V102.42ZM129.282 102.42H136.822V103.78H129.282V102.42ZM146.621 110.42H163.021V111.78H146.621V110.42ZM148.701 100.94H160.901V105.32H150.381V107.76H148.741V104.1H159.281V102.24H148.701V100.94ZM148.741 107.22H161.301V108.52H148.741V107.22ZM153.981 107.9H155.641V111.1H153.981V107.9ZM148.441 113.16H161.021V118.4H159.361V114.52H148.441V113.16ZM173.199 101.62C176.959 101.62 179.759 103.62 179.759 106.62C179.759 109.64 176.959 111.62 173.199 111.62C169.439 111.62 166.619 109.64 166.619 106.62C166.619 103.62 169.439 101.62 173.199 101.62ZM173.199 102.98C170.339 102.98 168.219 104.44 168.219 106.62C168.219 108.78 170.339 110.26 173.199 110.26C176.059 110.26 178.179 108.78 178.179 106.62C178.179 104.44 176.059 102.98 173.199 102.98ZM165.039 114.78H181.419V116.18H165.039V114.78ZM183.438 114.96H199.818V116.34H183.438V114.96ZM190.758 111.08H192.418V115.54H190.758V111.08ZM185.418 101.82H197.798V107.3H187.118V110.92H185.478V105.96H196.158V103.16H185.418V101.82ZM185.478 110.22H198.218V111.58H185.478V110.22ZM204.87 115.011L204.756 115.778C204.676 116.318 204.553 116.896 204.387 117.511C204.226 118.127 204.058 118.707 203.883 119.251C203.708 119.796 203.563 120.229 203.45 120.551H202.171C202.233 120.248 202.313 119.848 202.413 119.351C202.512 118.854 202.612 118.297 202.711 117.682C202.815 117.071 202.9 116.446 202.967 115.807L203.052 115.011H204.87ZM213.828 117V102.455H215.589V109.67H215.76L222.294 102.455H224.595L218.487 109.017L224.595 117H222.464L217.407 110.239L215.589 112.284V117H213.828ZM226.875 117V102.455H231.96C232.973 102.455 233.809 102.63 234.467 102.98C235.125 103.326 235.615 103.792 235.937 104.379C236.259 104.962 236.42 105.608 236.42 106.318C236.42 106.943 236.309 107.459 236.086 107.866C235.868 108.274 235.58 108.596 235.22 108.832C234.865 109.069 234.479 109.244 234.062 109.358V109.5C234.507 109.528 234.955 109.685 235.404 109.969C235.854 110.253 236.231 110.66 236.534 111.19C236.837 111.721 236.988 112.369 236.988 113.136C236.988 113.866 236.823 114.521 236.491 115.104C236.16 115.686 235.636 116.148 234.922 116.489C234.207 116.83 233.276 117 232.13 117H226.875ZM228.636 115.438H232.13C233.281 115.438 234.098 115.215 234.581 114.77C235.068 114.32 235.312 113.776 235.312 113.136C235.312 112.644 235.187 112.189 234.936 111.773C234.685 111.351 234.327 111.015 233.863 110.764C233.399 110.509 232.85 110.381 232.216 110.381H228.636V115.438ZM228.636 108.847H231.903C232.433 108.847 232.912 108.742 233.338 108.534C233.769 108.326 234.109 108.032 234.36 107.653C234.616 107.275 234.744 106.83 234.744 106.318C234.744 105.679 234.521 105.137 234.076 104.692C233.631 104.242 232.926 104.017 231.96 104.017H228.636V108.847ZM252.155 109.727C252.155 111.261 251.878 112.587 251.324 113.705C250.77 114.822 250.01 115.684 249.044 116.29C248.078 116.896 246.975 117.199 245.735 117.199C244.494 117.199 243.391 116.896 242.425 116.29C241.459 115.684 240.699 114.822 240.145 113.705C239.591 112.587 239.314 111.261 239.314 109.727C239.314 108.193 239.591 106.867 240.145 105.75C240.699 104.633 241.459 103.771 242.425 103.165C243.391 102.559 244.494 102.256 245.735 102.256C246.975 102.256 248.078 102.559 249.044 103.165C250.01 103.771 250.77 104.633 251.324 105.75C251.878 106.867 252.155 108.193 252.155 109.727ZM250.451 109.727C250.451 108.468 250.24 107.405 249.819 106.538C249.402 105.672 248.836 105.016 248.121 104.571C247.411 104.126 246.615 103.903 245.735 103.903C244.854 103.903 244.056 104.126 243.341 104.571C242.631 105.016 242.065 105.672 241.644 106.538C241.227 107.405 241.019 108.468 241.019 109.727C241.019 110.987 241.227 112.05 241.644 112.916C242.065 113.783 242.631 114.438 243.341 114.884C244.056 115.329 244.854 115.551 245.735 115.551C246.615 115.551 247.411 115.329 248.121 114.884C248.836 114.438 249.402 113.783 249.819 112.916C250.24 112.05 250.451 110.987 250.451 109.727ZM261.675 107.5H265.095V108.88H261.675V107.5ZM268.115 100.48H269.715V118.56H268.115V100.48ZM264.535 100.86H266.115V117.66H264.535V100.86ZM258.415 101.98C260.755 101.98 262.275 104.4 262.275 108.28C262.275 112.16 260.755 114.58 258.415 114.58C256.075 114.58 254.575 112.16 254.575 108.28C254.575 104.4 256.075 101.98 258.415 101.98ZM258.415 103.52C256.995 103.52 256.095 105.36 256.095 108.28C256.095 111.2 256.995 113.04 258.415 113.04C259.855 113.04 260.755 111.2 260.755 108.28C260.755 105.36 259.855 103.52 258.415 103.52ZM281.774 106.6H286.814V107.96H281.774V106.6ZM277.414 102.04H278.774V105.26C278.774 109.32 276.634 113.2 273.774 114.74L272.714 113.42C275.374 112.1 277.414 108.62 277.414 105.26V102.04ZM277.734 102.04H279.074V105.26C279.074 108.56 281.114 111.84 283.734 113.08L282.754 114.42C279.834 112.94 277.734 109.22 277.734 105.26V102.04ZM285.994 100.46H287.634V118.58H285.994V100.46ZM302.397 102.455V117H300.635V104.301H300.55L296.999 106.659V104.869L300.635 102.455H302.397ZM306.239 114.017V112.568L312.631 102.455H313.682V104.699H312.972L308.142 112.341V112.455H316.75V114.017H306.239ZM313.086 117V113.577V112.902V102.455H314.762V117H313.086ZM327.426 105.58H332.626V106.94H327.426V105.58ZM332.106 100.5H333.766V113.88H332.106V100.5ZM322.146 116.8H334.206V118.16H322.146V116.8ZM322.146 112.58H323.806V117.5H322.146V112.58ZM319.786 101.68H321.426V104.88H326.326V101.68H327.946V110.8H319.786V101.68ZM321.426 106.18V109.44H326.326V106.18H321.426ZM343.73 107.56H345.13C348.77 107.56 350.91 107.44 353.39 106.94L353.59 108.28C351.03 108.8 348.83 108.92 345.13 108.92H343.73V107.56ZM343.73 101.52H351.71V102.86H345.37V108.36H343.73V101.52ZM355.29 100.48H356.95V109.58H355.29V100.48ZM356.49 104.28H359.63V105.66H356.49V104.28ZM345.47 110.5H356.95V114.96H347.15V117.76H345.51V113.68H355.33V111.82H345.47V110.5ZM345.51 116.98H357.61V118.32H345.51V116.98ZM365.868 101.5H367.248V103.36C367.248 106.86 365.268 109.72 362.168 110.88L361.308 109.52C364.068 108.54 365.868 106.12 365.868 103.36V101.5ZM366.168 101.5H367.528V103.3C367.528 105.86 369.288 108.12 371.928 109.04L371.028 110.34C368.108 109.24 366.168 106.58 366.168 103.3V101.5ZM374.528 100.48H376.188V111.18H374.528V100.48ZM370.248 111.7C373.968 111.7 376.268 112.96 376.268 115.12C376.268 117.28 373.968 118.52 370.248 118.52C366.508 118.52 364.208 117.28 364.208 115.12C364.208 112.96 366.508 111.7 370.248 111.7ZM370.248 113.02C367.528 113.02 365.868 113.8 365.868 115.12C365.868 116.44 367.528 117.22 370.248 117.22C372.968 117.22 374.628 116.44 374.628 115.12C374.628 113.8 372.968 113.02 370.248 113.02ZM370.608 104.3H374.888V105.68H370.608V104.3ZM383.727 106.86H385.287V110.56H383.727V106.86ZM379.807 111.02L379.627 109.66C382.007 109.66 385.947 109.62 388.787 109.22L388.867 110.4C385.967 110.96 382.187 111 379.807 111.02ZM393.347 100.48H394.947V111.62H393.347V100.48ZM390.747 105.54H393.867V106.9H390.747V105.54ZM389.647 100.82H391.207V111.52H389.647V100.82ZM380.707 106.08H388.247V107.44H380.707V106.08ZM380.707 101.62H388.147V102.96H382.327V106.68H380.707V101.62ZM384.327 112.38H385.607V112.88C385.607 115.26 384.107 117.5 381.467 118.38L380.687 117.14C382.967 116.42 384.327 114.64 384.327 112.88V112.38ZM384.707 112.38H385.927V112.88C385.927 114.54 387.007 116.46 389.127 117.3L388.467 118.52C385.867 117.54 384.707 115.12 384.707 112.88V112.38ZM390.987 112.38H392.207V112.88C392.207 115.08 391.027 117.54 388.467 118.52L387.767 117.3C389.907 116.42 390.987 114.5 390.987 112.88V112.38ZM391.327 112.38H392.587V112.88C392.587 114.68 393.947 116.46 396.247 117.14L395.467 118.38C392.807 117.5 391.327 115.3 391.327 112.88V112.38ZM400.185 111.32H401.825V113.42H410.665V111.32H412.325V118.32H400.185V111.32ZM401.825 114.7V116.98H410.665V114.7H401.825ZM398.105 108.72H414.445V110.06H398.105V108.72ZM405.445 100.68H406.865V101.48C406.865 104.62 403.365 106.88 399.645 107.44L399.045 106.14C402.305 105.7 405.445 103.76 405.445 101.48V100.68ZM405.705 100.68H407.125V101.48C407.125 103.72 410.305 105.7 413.525 106.14L412.905 107.44C409.225 106.88 405.705 104.58 405.705 101.48V100.68ZM429.663 100.48H431.323V118.56H429.663V100.48ZM417.663 102.24H419.303V113.44H417.663V102.24ZM417.663 112.46H419.143C421.883 112.46 424.743 112.26 427.803 111.62L428.003 113.04C424.863 113.68 422.003 113.9 419.143 113.9H417.663V112.46ZM447.142 100.46H448.822V118.58H447.142V100.46ZM448.422 107.6H451.782V109H448.422V107.6ZM435.682 112.68H437.102C440.442 112.68 442.782 112.56 445.482 112.06L445.662 113.46C442.882 113.98 440.502 114.08 437.102 114.08H435.682V112.68ZM435.682 102.22H444.082V103.58H437.322V113.3H435.682V102.22ZM455.076 117.114C454.726 117.114 454.425 116.988 454.174 116.737C453.923 116.486 453.798 116.186 453.798 115.835C453.798 115.485 453.923 115.184 454.174 114.933C454.425 114.682 454.726 114.557 455.076 114.557C455.426 114.557 455.727 114.682 455.978 114.933C456.229 115.184 456.354 115.485 456.354 115.835C456.354 116.067 456.295 116.28 456.177 116.474C456.063 116.669 455.909 116.825 455.715 116.943C455.526 117.057 455.313 117.114 455.076 117.114Z" fill="black"/>
<g clip-path="url(#clip0_1377_309)">
<path d="M213 53C222.941 53 231 44.9411 231 35C231 25.0589 222.941 17 213 17C203.059 17 195 25.0589 195 35C195 44.9411 203.059 53 213 53Z" fill="#E1E8ED"/>
<path d="M226.802 46.5462C223.792 45.2212 222 41.0482 222 35.0002C222 28.9522 223.792 24.7792 226.802 23.4542C226.356 22.9258 225.879 22.4237 225.374 21.9502C222.406 23.6052 220 27.5782 220 35.0002C220 42.4212 222.406 46.3952 225.374 48.0502C225.876 47.5732 226.358 47.0772 226.802 46.5462ZM206 35.0002C206 27.5792 203.594 23.6052 200.626 21.9512C200.122 22.4243 199.645 22.9262 199.198 23.4542C202.208 24.7802 204 28.9522 204 35.0002C204 41.0482 202.208 45.2202 199.198 46.5462C199.643 47.0772 200.124 47.5732 200.626 48.0502C203.593 46.3952 206 42.4212 206 35.0002Z" fill="#B3BEC4"/>
<path d="M200.092 27.164C199.855 27.164 199.635 27.144 199.441 27.108C199.18 27.0592 198.95 26.9088 198.8 26.69C198.726 26.5816 198.674 26.4597 198.646 26.3312C198.619 26.2027 198.618 26.0701 198.642 25.941C198.666 25.8119 198.716 25.6888 198.787 25.5788C198.859 25.4688 198.952 25.374 199.06 25.2998C199.279 25.15 199.548 25.0932 199.809 25.142C200.239 25.219 202.5 25.148 202.957 22.866C203.009 22.606 203.162 22.3773 203.383 22.2302C203.492 22.1574 203.615 22.1069 203.744 22.0814C203.873 22.056 204.005 22.0562 204.134 22.082C204.263 22.1078 204.385 22.1587 204.494 22.2318C204.603 22.3049 204.697 22.3988 204.77 22.5081C204.843 22.6174 204.893 22.74 204.919 22.8688C204.944 22.9977 204.944 23.1302 204.918 23.259C204.335 26.171 201.779 27.164 200.092 27.164ZM201.792 31.125C201.262 31.125 200.84 30.802 200.814 30.266C200.788 29.715 201.214 29.355 201.766 29.329C201.766 29.329 204.33 29.294 205.635 27.035C205.701 26.9219 205.789 26.823 205.894 26.744C205.998 26.665 206.117 26.6075 206.244 26.5748C206.371 26.5421 206.503 26.5348 206.633 26.5533C206.763 26.5719 206.887 26.616 207 26.683C207.478 26.959 207.642 27.577 207.365 28.056C205.514 31.262 201.808 31.125 201.792 31.125ZM204 36.282C203.266 36.282 202.586 36.147 202.072 35.904C201.832 35.7905 201.647 35.5864 201.558 35.3366C201.469 35.0868 201.483 34.8118 201.596 34.572C201.71 34.3322 201.914 34.1474 202.163 34.0581C202.413 33.9689 202.688 33.9825 202.928 34.096C203.758 34.489 205.854 34.335 206.658 33.084C206.729 32.9735 206.821 32.878 206.929 32.8031C207.037 32.7282 207.158 32.6752 207.287 32.6473C207.415 32.6193 207.548 32.6169 207.677 32.6402C207.806 32.6635 207.93 32.712 208.04 32.783C208.151 32.854 208.246 32.946 208.321 33.0539C208.396 33.1618 208.449 33.2833 208.477 33.4117C208.505 33.54 208.507 33.6726 208.484 33.8018C208.461 33.9311 208.412 34.0545 208.341 34.165C207.377 35.666 205.565 36.282 204 36.282ZM205.161 41.807C203.607 41.807 202.166 41.108 201.235 40.331C201.134 40.247 201.051 40.1439 200.99 40.0276C200.929 39.9113 200.891 39.7842 200.879 39.6534C200.867 39.5226 200.881 39.3907 200.92 39.2653C200.959 39.1399 201.023 39.0234 201.107 38.9225C201.191 38.8216 201.294 38.7382 201.41 38.6771C201.526 38.616 201.653 38.5785 201.784 38.5665C201.915 38.5546 202.047 38.5686 202.172 38.6076C202.298 38.6466 202.414 38.71 202.515 38.794C202.709 38.957 204.467 40.36 206.297 39.579C206.418 39.5277 206.548 39.5008 206.679 39.4997C206.811 39.4986 206.941 39.5234 207.063 39.5726C207.184 39.6219 207.295 39.6947 207.389 39.7868C207.483 39.8789 207.557 39.9886 207.609 40.1095C207.66 40.2304 207.687 40.3603 207.688 40.4917C207.689 40.623 207.664 40.7533 207.615 40.8751C207.566 40.9969 207.493 41.1078 207.401 41.2015C207.309 41.2951 207.199 41.3697 207.078 41.421C206.471 41.6772 205.82 41.8084 205.161 41.807ZM204.75 47H204.722C202.218 47 200.043 45.43 199.188 43.892C198.919 43.41 199.094 42.848 199.576 42.58C200.059 42.311 200.668 42.51 200.936 42.992C201.42 43.863 202.932 45.126 204.777 45.177C205.329 45.193 205.764 45.565 205.749 46.116C205.734 46.658 205.29 47 204.75 47ZM222.188 47.188C222.04 47.1881 221.894 47.1553 221.76 47.092C221.626 47.0287 221.508 46.9364 221.414 46.8219C221.32 46.7073 221.253 46.5734 221.217 46.4297C221.181 46.286 221.178 46.1362 221.207 45.991C221.871 42.669 225.101 41.841 226.685 42.142C226.946 42.191 227.176 42.3415 227.326 42.5603C227.475 42.7791 227.532 43.0484 227.483 43.309C227.46 43.4384 227.411 43.5618 227.339 43.6721C227.267 43.7824 227.175 43.8774 227.066 43.9517C226.958 44.0259 226.835 44.0778 226.707 44.1045C226.578 44.1312 226.445 44.132 226.316 44.107C225.891 44.027 223.626 44.1 223.169 46.383C223.124 46.61 223.002 46.8143 222.823 46.961C222.644 47.1078 222.419 47.188 222.188 47.188ZM219.624 42.688C219.449 42.6881 219.276 42.642 219.124 42.5542C218.972 42.4664 218.846 42.3401 218.758 42.1881C218.67 42.036 218.624 41.8634 218.624 41.6879C218.625 41.5123 218.671 41.3399 218.759 41.188C220.611 37.982 222.743 37.884 224.153 37.819L224.264 37.814C224.529 37.8013 224.788 37.8943 224.985 38.0727C225.181 38.251 225.298 38.5 225.311 38.765C225.324 39.03 225.231 39.2891 225.052 39.4855C224.874 39.6818 224.625 39.7993 224.36 39.812L224.245 39.817C223.041 39.873 221.796 39.929 220.491 42.188C220.403 42.3402 220.277 42.4665 220.125 42.5543C219.972 42.642 219.8 42.6882 219.624 42.688ZM218.624 36.625C218.445 36.625 218.268 36.5767 218.114 36.4851C217.96 36.3935 217.833 36.262 217.747 36.1044C217.661 35.9468 217.619 35.769 217.626 35.5896C217.632 35.4102 217.687 35.2359 217.784 35.085C219.199 32.882 222.44 32.584 224.052 33.347C224.29 33.4612 224.474 33.6652 224.562 33.9143C224.651 34.1634 224.637 34.4373 224.524 34.6763C224.411 34.9152 224.208 35.0997 223.959 35.1894C223.711 35.2791 223.437 35.2667 223.197 35.155C222.368 34.762 220.271 34.916 219.465 36.167C219.374 36.3076 219.25 36.4232 219.103 36.5032C218.956 36.5832 218.791 36.6251 218.624 36.625ZM224.249 30.688C224.015 30.6879 223.789 30.6058 223.609 30.456C223.415 30.294 221.657 28.897 219.828 29.671C219.586 29.7618 219.319 29.7557 219.082 29.654C218.845 29.5523 218.656 29.3629 218.555 29.1253C218.454 28.8877 218.449 28.6203 218.54 28.3789C218.632 28.1376 218.813 27.9409 219.046 27.83C221.265 26.888 223.581 27.829 224.89 28.92C225.048 29.0516 225.161 29.2287 225.215 29.4271C225.269 29.6255 225.26 29.8356 225.19 30.0288C225.12 30.2221 224.992 30.389 224.823 30.507C224.655 30.6249 224.455 30.6881 224.249 30.688ZM226.063 26.75C225.885 26.7502 225.709 26.7026 225.556 26.6122C225.402 26.5219 225.275 26.392 225.188 26.236C224.704 25.364 223.192 24.113 221.347 24.062C220.794 24.047 220.36 23.556 220.374 23.003C220.391 22.461 220.835 22 221.374 22H221.402C223.907 22 226.082 23.694 226.936 25.232C227.065 25.4664 227.097 25.7423 227.024 25.9999C226.951 26.2575 226.78 26.476 226.547 26.608C226.401 26.6959 226.234 26.7448 226.063 26.75Z" fill="#DD2E44"/>
</g>
<defs>
<clipPath id="clip0_1377_309">
<rect width="36" height="36" fill="white" transform="translate(195 17)"/>
</clipPath>
</defs>
</svg>
