<svg width="570" height="165" viewBox="0 0 570 165" fill="none" xmlns="http://www.w3.org/2000/svg">
<rect x="0.5" y="0.5" width="569" height="151" rx="17.5" fill="white" stroke="#8A9A6B"/>
<path d="M40.7406 22.995H44.2414V41.2097H40.7406V22.995ZM43.2412 30.4177H47.479V33.2868H43.2412V30.4177ZM25.0529 25.5219H39.3982V28.2594H25.0529V25.5219ZM32.2387 29.128C35.7395 29.128 38.2138 31.0495 38.2138 33.8396C38.2138 36.6297 35.7395 38.5248 32.2387 38.5248C28.7116 38.5248 26.2373 36.6297 26.2373 33.8396C26.2373 31.0495 28.7116 29.128 32.2387 29.128ZM32.2387 31.7865C30.6857 31.7865 29.6065 32.5235 29.6065 33.8396C29.6065 35.1557 30.6857 35.8663 32.2387 35.8663C33.7917 35.8663 34.8709 35.1557 34.8709 33.8396C34.8709 32.5235 33.7917 31.7865 32.2387 31.7865ZM30.4752 22.9424H33.9759V26.8643H30.4752V22.9424ZM28.5273 44.1314H45.1101V46.9215H28.5273V44.1314ZM28.5273 39.8409H32.0281V45.3422H28.5273V39.8409ZM72.5365 22.9687H76.0636V36.0769H72.5365V22.9687ZM59.8494 37.1298H63.2976V39.3935H72.5892V37.1298H76.0636V47.0794H59.8494V37.1298ZM63.2976 42.0783V44.2893H72.5892V42.0783H63.2976ZM62.7975 23.9689C66.5878 23.9689 69.4042 26.3642 69.4042 29.7334C69.4042 33.1026 66.5878 35.4978 62.7975 35.4978C59.0071 35.4978 56.1644 33.1026 56.1644 29.7334C56.1644 26.3642 59.0071 23.9689 62.7975 23.9689ZM62.7975 26.8643C60.9286 26.8643 59.5862 27.9435 59.5862 29.7334C59.5862 31.5496 60.9286 32.6024 62.7975 32.6024C64.64 32.6024 65.9824 31.5496 65.9824 29.7334C65.9824 27.9435 64.64 26.8643 62.7975 26.8643ZM93.0667 24.6533C96.778 24.6533 99.4628 28.0225 99.4628 33.3395C99.4628 38.7091 96.778 42.0783 93.0667 42.0783C89.3553 42.0783 86.6705 38.7091 86.6705 33.3395C86.6705 28.0225 89.3553 24.6533 93.0667 24.6533ZM93.0667 27.8382C91.2505 27.8382 90.0397 29.7597 90.0397 33.3395C90.0397 36.9719 91.2505 38.9197 93.0667 38.9197C94.8829 38.9197 96.12 36.9719 96.12 33.3395C96.12 29.7597 94.8829 27.8382 93.0667 27.8382ZM104.701 28.6279H108.991V31.5233H104.701V28.6279ZM104.701 35.7874H108.991V38.6565H104.701V35.7874ZM102.121 22.9687H105.648V47.3426H102.121V22.9687ZM113.28 24.3901H128.573V27.1538H113.28V24.3901ZM110.779 34.7608H132.81V37.5773H110.779V34.7608ZM119.913 36.735H123.44V47.369H119.913V36.735ZM126.783 24.3901H130.231V26.5484C130.231 29.1806 130.231 32.1287 129.283 36.4454L125.835 36.0506C126.783 31.9707 126.783 29.0753 126.783 26.5484V24.3901ZM146.839 24.2848H149.708V26.4432C149.708 31.2864 147.602 35.5505 142.97 37.1561L141.101 34.3923C145.181 33.0236 146.839 29.7597 146.839 26.4432V24.2848ZM147.55 24.2848H150.393V26.7853C150.393 29.7071 152.025 32.5498 155.841 33.7343L154.025 36.4454C149.629 34.9714 147.55 31.1811 147.55 26.7853V24.2848ZM157.184 22.9687H160.684V37.3667H157.184V22.9687ZM159.71 28.6015H163.922V31.4969H159.71V28.6015ZM152.735 37.9194C157.789 37.9194 160.974 39.683 160.974 42.631C160.974 45.6054 157.789 47.3426 152.735 47.3426C147.655 47.3426 144.47 45.6054 144.47 42.631C144.47 39.683 147.655 37.9194 152.735 37.9194ZM152.735 40.6306C149.629 40.6306 147.945 41.2886 147.945 42.631C147.945 43.9998 149.629 44.6315 152.735 44.6315C155.841 44.6315 157.499 43.9998 157.499 42.631C157.499 41.2886 155.841 40.6306 152.735 40.6306ZM171.422 24.0742H174.317V26.4168C174.317 31.0231 172.08 35.2083 167.315 36.735L165.605 33.9712C169.711 32.6551 171.422 29.4965 171.422 26.4168V24.0742ZM172.132 24.0742H175.001V26.4168C175.001 29.4175 176.686 32.3656 180.661 33.5764L178.95 36.3138C174.291 34.8398 172.132 30.9442 172.132 26.4168V24.0742ZM169.342 38.5775H185.978V47.3426H182.45V41.3676H169.342V38.5775ZM182.45 22.9687H185.978V37.4983H182.45V22.9687Z" fill="black"/>
<path d="M28.96 77.68H31.12V80.38C31.12 84.96 29.52 89.26 26.02 90.98L24.42 88.84C27.54 87.38 28.96 83.82 28.96 80.38V77.68ZM29.5 77.68H31.62V80.38C31.62 83.7 32.94 87.08 35.9 88.52L34.3 90.64C30.96 88.94 29.5 84.82 29.5 80.38V77.68ZM36.64 76.26H39.32V94.78H36.64V76.26ZM38.72 83.38H42V85.6H38.72V83.38ZM55.8984 76.24H58.5784V94.82H55.8984V76.24ZM48.5984 77.54C51.3984 77.54 53.4584 80.1 53.4584 84.14C53.4584 88.22 51.3984 90.78 48.5984 90.78C45.7984 90.78 43.7384 88.22 43.7384 84.14C43.7384 80.1 45.7984 77.54 48.5984 77.54ZM48.5984 79.96C47.2184 79.96 46.2784 81.42 46.2784 84.14C46.2784 86.9 47.2184 88.38 48.5984 88.38C49.9784 88.38 50.8984 86.9 50.8984 84.14C50.8984 81.42 49.9784 79.96 48.5984 79.96ZM63.6569 76.9H75.3969V78.98H63.6569V76.9ZM73.7969 76.9H76.4169V78.54C76.4169 80.16 76.4169 81.9 75.9369 84.08L73.3169 83.84C73.7969 81.7 73.7969 80.14 73.7969 78.54V76.9ZM74.5969 80.02V81.84L63.4369 82.28L63.1369 80.26L74.5969 80.02ZM61.6369 83.4H78.3169V85.48H61.6369V83.4ZM63.4369 86.56H76.5169V91.46H66.0969V93.46H63.4569V89.58H73.8769V88.56H63.4369V86.56ZM63.4569 92.56H77.1369V94.58H63.4569V92.56ZM92.7153 76.28H95.3953V87.5H92.7153V76.28ZM80.9553 84.62H82.5753C86.1753 84.62 88.5153 84.54 91.1953 84.1L91.4953 86.22C88.7353 86.7 86.2753 86.76 82.5753 86.76H80.9553V84.62ZM80.9353 77.36H89.4553V83H83.5753V85.82H80.9553V81.02H86.8353V79.48H80.9353V77.36ZM89.1553 87.84C93.0753 87.84 95.5153 89.1 95.5153 91.32C95.5153 93.52 93.0753 94.8 89.1553 94.8C85.2353 94.8 82.8353 93.52 82.8353 91.32C82.8353 89.1 85.2353 87.84 89.1553 87.84ZM89.1553 89.9C86.7353 89.9 85.4753 90.34 85.4753 91.32C85.4753 92.28 86.7353 92.74 89.1553 92.74C91.5953 92.74 92.8553 92.28 92.8553 91.32C92.8553 90.34 91.5953 89.9 89.1553 89.9ZM115.723 76.26H118.403V94.78H115.723V76.26ZM103.423 79.04H114.383V81.14H103.423V79.04ZM108.923 82.16C111.663 82.16 113.683 84 113.683 86.58C113.683 89.16 111.663 91 108.923 91C106.183 91 104.183 89.16 104.183 86.58C104.183 84 106.183 82.16 108.923 82.16ZM108.923 84.32C107.643 84.32 106.723 85.16 106.723 86.58C106.723 88 107.643 88.84 108.923 88.84C110.203 88.84 111.123 88 111.123 86.58C111.123 85.16 110.203 84.32 108.923 84.32ZM107.563 76.52H110.243V80.34H107.563V76.52ZM123.401 85.8H136.421V87.88H123.401V85.8ZM121.441 90.5H138.201V92.66H121.441V90.5ZM123.401 77.6H136.261V79.74H126.101V86.38H123.401V77.6ZM125.281 81.68H135.841V83.74H125.281V81.68ZM142.22 81.9H154.5V83.26H142.22V81.9ZM140 85.68H156.4V87.04H140V85.68ZM142.22 77.14H143.86V82.58H142.22V77.14ZM142.1 92.76H154.6V94.12H142.1V92.76ZM142.1 88.84H143.74V93.12H142.1V88.84ZM176.403 76.5H178.063V90.06H176.403V76.5ZM177.543 82.42H180.743V83.82H177.543V82.42ZM164.083 78.68H174.763V80.02H164.083V78.68ZM169.423 81.02C171.983 81.02 173.743 82.36 173.743 84.4C173.743 86.42 171.983 87.76 169.423 87.76C166.843 87.76 165.083 86.42 165.083 84.4C165.083 82.36 166.843 81.02 169.423 81.02ZM169.423 82.32C167.783 82.32 166.663 83.14 166.663 84.4C166.663 85.64 167.783 86.46 169.423 86.46C171.043 86.46 172.163 85.64 172.163 84.4C172.163 83.14 171.043 82.32 169.423 82.32ZM168.583 76.48H170.243V79.38H168.583V76.48ZM166.803 92.8H178.883V94.16H166.803V92.8ZM166.803 88.98H168.463V93.38H166.803V88.98ZM196.706 79.8H201.546V81.16H196.706V79.8ZM196.546 83.56H201.426V84.92H196.546V83.56ZM201.266 76.48H202.926V87.32H201.266V76.48ZM195.606 77.84H197.386C197.386 82.5 194.166 85.76 188.966 87.32L188.286 85.98C192.906 84.64 195.606 81.98 195.606 78.56V77.84ZM189.226 77.84H196.746V79.2H189.226V77.84ZM197.046 87.52C200.706 87.52 203.026 88.82 203.026 91C203.026 93.18 200.706 94.48 197.046 94.48C193.386 94.48 191.066 93.18 191.066 91C191.066 88.82 193.386 87.52 197.046 87.52ZM197.046 88.82C194.406 88.82 192.706 89.64 192.706 91C192.706 92.36 194.406 93.16 197.046 93.16C199.706 93.16 201.406 92.36 201.406 91C201.406 89.64 199.706 88.82 197.046 88.82ZM219.625 76.48H221.285V94.56H219.625V76.48ZM214.325 78.42H215.965C215.965 83.66 213.605 88.24 207.565 91.2L206.685 89.86C211.905 87.34 214.325 83.5 214.325 78.7V78.42ZM207.505 78.42H215.045V79.78H207.505V78.42ZM232.183 83.5H235.603V84.88H232.183V83.5ZM238.623 76.48H240.223V94.56H238.623V76.48ZM235.043 76.86H236.623V93.66H235.043V76.86ZM228.923 77.98C231.263 77.98 232.783 80.4 232.783 84.28C232.783 88.16 231.263 90.58 228.923 90.58C226.583 90.58 225.083 88.16 225.083 84.28C225.083 80.4 226.583 77.98 228.923 77.98ZM228.923 79.52C227.503 79.52 226.603 81.36 226.603 84.28C226.603 87.2 227.503 89.04 228.923 89.04C230.363 89.04 231.263 87.2 231.263 84.28C231.263 81.36 230.363 79.52 228.923 79.52ZM252.282 82.6H257.322V83.96H252.282V82.6ZM247.922 78.04H249.282V81.26C249.282 85.32 247.142 89.2 244.282 90.74L243.222 89.42C245.882 88.1 247.922 84.62 247.922 81.26V78.04ZM248.242 78.04H249.582V81.26C249.582 84.56 251.622 87.84 254.242 89.08L253.262 90.42C250.342 88.94 248.242 85.22 248.242 81.26V78.04ZM256.502 76.46H258.142V94.58H256.502V76.46ZM279.645 76.46H281.305V89.56H279.645V76.46ZM280.805 81.84H283.985V83.22H280.805V81.84ZM268.105 85H269.505C273.225 85 275.325 84.9 277.745 84.4L277.925 85.74C275.445 86.26 273.305 86.38 269.505 86.38H268.105V85ZM268.105 78.02H276.085V79.4H269.745V85.74H268.105V78.02ZM270.045 92.8H282.125V94.16H270.045V92.8ZM270.045 88.26H271.705V93.42H270.045V88.26ZM286.444 88.84H287.864C291.204 88.84 293.504 88.76 296.224 88.28L296.404 89.64C293.604 90.12 291.244 90.22 287.864 90.22H286.444V88.84ZM286.444 78.12H294.864V79.5H288.104V89.32H286.444V78.12ZM287.684 83.18H294.464V84.52H287.684V83.18ZM297.904 76.48H299.584V94.56H297.904V76.48ZM299.184 83.74H302.544V85.14H299.184V83.74ZM307.116 91.0114L307.002 91.7784C306.922 92.3182 306.799 92.8958 306.633 93.5114C306.472 94.1269 306.304 94.7069 306.129 95.2514C305.954 95.7959 305.809 96.2292 305.696 96.5511H304.417C304.479 96.2481 304.559 95.848 304.659 95.3509C304.758 94.8537 304.858 94.2973 304.957 93.6818C305.061 93.071 305.146 92.446 305.213 91.8068L305.298 91.0114H307.116ZM315.818 93V91.7216L320.619 86.4659C321.183 85.8504 321.647 85.3153 322.011 84.8608C322.376 84.4015 322.646 83.9706 322.821 83.5682C323.001 83.161 323.091 82.7348 323.091 82.2898C323.091 81.7784 322.968 81.3357 322.722 80.9616C322.48 80.5876 322.149 80.2988 321.727 80.0952C321.306 79.8916 320.832 79.7898 320.307 79.7898C319.748 79.7898 319.26 79.9058 318.844 80.1378C318.432 80.3651 318.112 80.6847 317.885 81.0966C317.662 81.5085 317.551 81.9915 317.551 82.5455H315.875C315.875 81.6932 316.071 80.9451 316.464 80.3011C316.857 79.6572 317.393 79.1553 318.07 78.7955C318.751 78.4356 319.516 78.2557 320.364 78.2557C321.216 78.2557 321.971 78.4356 322.629 78.7955C323.287 79.1553 323.804 79.6406 324.178 80.2514C324.552 80.8622 324.739 81.5417 324.739 82.2898C324.739 82.8248 324.642 83.348 324.447 83.8594C324.258 84.366 323.927 84.9318 323.453 85.5568C322.984 86.1771 322.333 86.9347 321.5 87.8295L318.233 91.3239V91.4375H324.994V93H315.818ZM329.362 77.2H341.802V81.92H331.082V85.04H329.402V80.64H340.142V78.54H329.362V77.2ZM329.402 84.22H342.222V85.58H329.402V84.22ZM327.402 87.44H343.802V88.82H327.402V87.44ZM334.742 87.96H336.382V94.58H334.742V87.96ZM346.58 88.84H348C351.34 88.84 353.64 88.76 356.36 88.28L356.54 89.64C353.74 90.12 351.38 90.22 348 90.22H346.58V88.84ZM346.58 78.12H355V79.5H348.24V89.32H346.58V78.12ZM347.82 83.18H354.6V84.52H347.82V83.18ZM358.04 76.48H359.72V94.56H358.04V76.48ZM359.32 83.74H362.68V85.14H359.32V83.74ZM367.253 91.0114L367.139 91.7784C367.059 92.3182 366.936 92.8958 366.77 93.5114C366.609 94.1269 366.441 94.7069 366.266 95.2514C366.09 95.7959 365.946 96.2292 365.832 96.5511H364.554C364.616 96.2481 364.696 95.848 364.795 95.3509C364.895 94.8537 364.994 94.2973 365.094 93.6818C365.198 93.071 365.283 92.446 365.349 91.8068L365.435 91.0114H367.253ZM380.87 93.1989C379.932 93.1989 379.096 93.0379 378.363 92.7159C377.633 92.3939 377.053 91.9465 376.623 91.3736C376.196 90.7959 375.964 90.1259 375.926 89.3636H377.716C377.754 89.8324 377.915 90.2372 378.199 90.5781C378.483 90.9143 378.855 91.1747 379.314 91.3594C379.774 91.544 380.283 91.6364 380.841 91.6364C381.466 91.6364 382.02 91.5275 382.503 91.3097C382.986 91.0919 383.365 90.7888 383.64 90.4006C383.914 90.0123 384.051 89.5625 384.051 89.0511C384.051 88.5161 383.919 88.045 383.654 87.6378C383.389 87.2259 383 86.9039 382.489 86.6719C381.978 86.4399 381.353 86.3239 380.614 86.3239H379.449V84.7614H380.614C381.192 84.7614 381.698 84.6572 382.134 84.4489C382.574 84.2405 382.917 83.947 383.164 83.5682C383.415 83.1894 383.54 82.7443 383.54 82.233C383.54 81.7405 383.431 81.312 383.213 80.9474C382.996 80.5829 382.688 80.2988 382.29 80.0952C381.897 79.8916 381.433 79.7898 380.898 79.7898C380.396 79.7898 379.923 79.8821 379.478 80.0668C379.037 80.2467 378.677 80.5095 378.398 80.8551C378.119 81.196 377.967 81.608 377.944 82.0909H376.239C376.267 81.3286 376.497 80.661 376.928 80.0881C377.359 79.5104 377.922 79.0606 378.618 78.7386C379.319 78.4167 380.088 78.2557 380.926 78.2557C381.826 78.2557 382.598 78.438 383.242 78.8026C383.886 79.1624 384.381 79.6383 384.726 80.2301C385.072 80.822 385.245 81.4612 385.245 82.1477C385.245 82.9669 385.029 83.6652 384.598 84.2429C384.172 84.8205 383.592 85.2206 382.858 85.4432V85.5568C383.777 85.7083 384.494 86.099 385.01 86.7287C385.526 87.3537 385.784 88.1278 385.784 89.0511C385.784 89.8419 385.569 90.5521 385.138 91.1818C384.712 91.8068 384.13 92.2992 383.391 92.6591C382.652 93.0189 381.812 93.1989 380.87 93.1989ZM390.124 77.2H402.564V81.92H391.844V85.04H390.164V80.64H400.904V78.54H390.124V77.2ZM390.164 84.22H402.984V85.58H390.164V84.22ZM388.164 87.44H404.564V88.82H388.164V87.44ZM395.504 87.96H397.144V94.58H395.504V87.96ZM407.342 88.84H408.762C412.102 88.84 414.402 88.76 417.122 88.28L417.302 89.64C414.502 90.12 412.142 90.22 408.762 90.22H407.342V88.84ZM407.342 78.12H415.762V79.5H409.002V89.32H407.342V78.12ZM408.582 83.18H415.362V84.52H408.582V83.18ZM418.802 76.48H420.482V94.56H418.802V76.48ZM420.082 83.74H423.442V85.14H420.082V83.74ZM428.015 91.0114L427.901 91.7784C427.82 92.3182 427.697 92.8958 427.532 93.5114C427.371 94.1269 427.203 94.7069 427.027 95.2514C426.852 95.7959 426.708 96.2292 426.594 96.5511H425.316C425.377 96.2481 425.458 95.848 425.557 95.3509C425.657 94.8537 425.756 94.2973 425.855 93.6818C425.96 93.071 426.045 92.446 426.111 91.8068L426.196 91.0114H428.015ZM438.191 89.16H450.531V94.32H438.191V89.16ZM448.911 90.44H439.831V93.06H448.911V90.44ZM437.051 77.96H451.591V79.26H437.051V77.96ZM444.371 79.98C448.091 79.98 450.211 80.86 450.211 82.54C450.211 84.22 448.091 85.1 444.371 85.1C440.631 85.1 438.531 84.22 438.531 82.54C438.531 80.86 440.631 79.98 444.371 79.98ZM444.371 81.14C441.751 81.14 440.291 81.64 440.291 82.54C440.291 83.44 441.751 83.94 444.371 83.94C446.971 83.94 448.431 83.44 448.431 82.54C448.431 81.64 446.971 81.14 444.371 81.14ZM443.551 76.22H445.191V78.8H443.551V76.22ZM436.191 86.48H452.531V87.78H436.191V86.48ZM443.551 84.7H445.191V87.2H443.551V84.7ZM455.349 85.94H456.709C460.249 85.94 462.329 85.86 464.789 85.42L464.929 86.78C462.389 87.22 460.289 87.3 456.709 87.3H455.349V85.94ZM455.309 77.74H463.309V83.04H456.989V86.78H455.349V81.74H461.689V79.08H455.309V77.74ZM467.809 76.5H469.469V89.76H467.809V76.5ZM457.809 92.8H470.029V94.16H457.809V92.8ZM457.809 88.78H459.469V93.22H457.809V88.78ZM464.429 81.18H468.229V82.62H464.429V81.18ZM481.168 76.78C485.148 76.78 487.528 77.9 487.528 79.92C487.528 81.94 485.148 83.06 481.168 83.06C477.168 83.06 474.808 81.94 474.808 79.92C474.808 77.9 477.168 76.78 481.168 76.78ZM481.168 78.04C478.208 78.04 476.508 78.72 476.508 79.92C476.508 81.12 478.208 81.8 481.168 81.8C484.108 81.8 485.808 81.12 485.808 79.92C485.808 78.72 484.108 78.04 481.168 78.04ZM472.988 84.26H489.328V85.6H472.988V84.26ZM474.968 87.14H487.248V91.22H476.648V93.42H475.008V90.02H485.608V88.42H474.968V87.14ZM475.008 93.06H487.788V94.36H475.008V93.06ZM497.031 90.88H513.411V92.26H497.031V90.88ZM504.351 86.2H506.011V91.26H504.351V86.2ZM498.931 77.98H511.411V86.5H498.931V77.98ZM509.811 79.32H500.551V85.16H509.811V79.32ZM517.67 83.2H529.75V84.56H517.67V83.2ZM515.41 86.9H531.81V88.28H515.41V86.9ZM522.73 87.66H524.37V94.5H522.73V87.66ZM517.67 77.54H529.51V78.9H519.35V83.86H517.67V77.54ZM38.14 100.48H39.8V118.56H38.14V100.48ZM30 104.78H31.34V106.32C31.34 110.18 29.16 113.68 26.26 115.08L25.32 113.8C28 112.56 30 109.48 30 106.32V104.78ZM30.32 104.78H31.64V106.32C31.64 109.34 33.7 112.28 36.4 113.46L35.46 114.76C32.54 113.44 30.32 110.06 30.32 106.32V104.78ZM25.82 103.62H35.78V104.96H25.82V103.62ZM30 100.8H31.66V104.36H30V100.8ZM45.5984 105.9H57.8784V107.26H45.5984V105.9ZM43.3784 109.68H59.7784V111.04H43.3784V109.68ZM45.5984 101.14H47.2384V106.58H45.5984V101.14ZM45.4784 116.76H57.9784V118.12H45.4784V116.76ZM45.4784 112.84H47.1184V117.12H45.4784V112.84ZM80.5819 100.48H82.2419V118.56H80.5819V100.48ZM75.2819 102.42H76.9219C76.9219 107.66 74.5619 112.24 68.5219 115.2L67.6419 113.86C72.8619 111.34 75.2819 107.5 75.2819 102.7V102.42ZM68.4619 102.42H76.0019V103.78H68.4619V102.42ZM85.8003 110.42H102.2V111.78H85.8003V110.42ZM87.8803 100.94H100.08V105.32H89.5603V107.76H87.9203V104.1H98.4603V102.24H87.8803V100.94ZM87.9203 107.22H100.48V108.52H87.9203V107.22ZM93.1603 107.9H94.8203V111.1H93.1603V107.9ZM87.6203 113.16H100.2V118.4H98.5403V114.52H87.6203V113.16ZM112.379 101.62C116.139 101.62 118.939 103.62 118.939 106.62C118.939 109.64 116.139 111.62 112.379 111.62C108.619 111.62 105.799 109.64 105.799 106.62C105.799 103.62 108.619 101.62 112.379 101.62ZM112.379 102.98C109.519 102.98 107.399 104.44 107.399 106.62C107.399 108.78 109.519 110.26 112.379 110.26C115.239 110.26 117.359 108.78 117.359 106.62C117.359 104.44 115.239 102.98 112.379 102.98ZM104.219 114.78H120.599V116.18H104.219V114.78ZM122.617 114.96H138.997V116.34H122.617V114.96ZM129.937 111.08H131.597V115.54H129.937V111.08ZM124.597 101.82H136.977V107.3H126.297V110.92H124.657V105.96H135.337V103.16H124.597V101.82ZM124.657 110.22H137.397V111.58H124.657V110.22ZM144.05 115.011L143.936 115.778C143.856 116.318 143.732 116.896 143.567 117.511C143.406 118.127 143.238 118.707 143.062 119.251C142.887 119.796 142.743 120.229 142.629 120.551H141.351C141.412 120.248 141.493 119.848 141.592 119.351C141.692 118.854 141.791 118.297 141.891 117.682C141.995 117.071 142.08 116.446 142.146 115.807L142.232 115.011H144.05ZM153.007 117V102.455H154.769V109.67H154.939L161.473 102.455H163.775L157.667 109.017L163.775 117H161.644L156.587 110.239L154.769 112.284V117H153.007ZM166.054 117V102.455H171.14C172.153 102.455 172.989 102.63 173.647 102.98C174.305 103.326 174.795 103.792 175.117 104.379C175.439 104.962 175.6 105.608 175.6 106.318C175.6 106.943 175.489 107.459 175.266 107.866C175.048 108.274 174.759 108.596 174.4 108.832C174.044 109.069 173.658 109.244 173.242 109.358V109.5C173.687 109.528 174.134 109.685 174.584 109.969C175.034 110.253 175.41 110.66 175.713 111.19C176.016 111.721 176.168 112.369 176.168 113.136C176.168 113.866 176.002 114.521 175.671 115.104C175.339 115.686 174.816 116.148 174.101 116.489C173.386 116.83 172.456 117 171.31 117H166.054ZM167.816 115.438H171.31C172.461 115.438 173.277 115.215 173.76 114.77C174.248 114.32 174.492 113.776 174.492 113.136C174.492 112.644 174.366 112.189 174.115 111.773C173.864 111.351 173.507 111.015 173.043 110.764C172.579 110.509 172.03 110.381 171.395 110.381H167.816V115.438ZM167.816 108.847H171.083C171.613 108.847 172.091 108.742 172.517 108.534C172.948 108.326 173.289 108.032 173.54 107.653C173.796 107.275 173.924 106.83 173.924 106.318C173.924 105.679 173.701 105.137 173.256 104.692C172.811 104.242 172.105 104.017 171.14 104.017H167.816V108.847ZM191.335 109.727C191.335 111.261 191.058 112.587 190.504 113.705C189.95 114.822 189.19 115.684 188.224 116.29C187.258 116.896 186.155 117.199 184.914 117.199C183.674 117.199 182.571 116.896 181.605 116.29C180.639 115.684 179.879 114.822 179.325 113.705C178.771 112.587 178.494 111.261 178.494 109.727C178.494 108.193 178.771 106.867 179.325 105.75C179.879 104.633 180.639 103.771 181.605 103.165C182.571 102.559 183.674 102.256 184.914 102.256C186.155 102.256 187.258 102.559 188.224 103.165C189.19 103.771 189.95 104.633 190.504 105.75C191.058 106.867 191.335 108.193 191.335 109.727ZM189.63 109.727C189.63 108.468 189.42 107.405 188.998 106.538C188.582 105.672 188.016 105.016 187.301 104.571C186.591 104.126 185.795 103.903 184.914 103.903C184.034 103.903 183.236 104.126 182.521 104.571C181.811 105.016 181.245 105.672 180.824 106.538C180.407 107.405 180.199 108.468 180.199 109.727C180.199 110.987 180.407 112.05 180.824 112.916C181.245 113.783 181.811 114.438 182.521 114.884C183.236 115.329 184.034 115.551 184.914 115.551C185.795 115.551 186.591 115.329 187.301 114.884C188.016 114.438 188.582 113.783 188.998 112.916C189.42 112.05 189.63 110.987 189.63 109.727ZM200.855 107.5H204.275V108.88H200.855V107.5ZM207.295 100.48H208.895V118.56H207.295V100.48ZM203.715 100.86H205.295V117.66H203.715V100.86ZM197.595 101.98C199.935 101.98 201.455 104.4 201.455 108.28C201.455 112.16 199.935 114.58 197.595 114.58C195.255 114.58 193.755 112.16 193.755 108.28C193.755 104.4 195.255 101.98 197.595 101.98ZM197.595 103.52C196.175 103.52 195.275 105.36 195.275 108.28C195.275 111.2 196.175 113.04 197.595 113.04C199.035 113.04 199.935 111.2 199.935 108.28C199.935 105.36 199.035 103.52 197.595 103.52ZM220.954 106.6H225.994V107.96H220.954V106.6ZM216.594 102.04H217.954V105.26C217.954 109.32 215.814 113.2 212.954 114.74L211.894 113.42C214.554 112.1 216.594 108.62 216.594 105.26V102.04ZM216.914 102.04H218.254V105.26C218.254 108.56 220.294 111.84 222.914 113.08L221.934 114.42C219.014 112.94 216.914 109.22 216.914 105.26V102.04ZM225.174 100.46H226.814V118.58H225.174V100.46ZM232.532 105.9H244.812V107.26H232.532V105.9ZM230.312 109.68H246.712V111.04H230.312V109.68ZM232.532 101.14H234.172V106.58H232.532V101.14ZM232.412 116.76H244.912V118.12H232.412V116.76ZM232.412 112.84H234.052V117.12H232.412V112.84ZM259.776 117.199C258.838 117.199 258.003 117.038 257.269 116.716C256.54 116.394 255.96 115.946 255.529 115.374C255.103 114.796 254.871 114.126 254.833 113.364H256.623C256.66 113.832 256.821 114.237 257.105 114.578C257.39 114.914 257.761 115.175 258.221 115.359C258.68 115.544 259.189 115.636 259.748 115.636C260.373 115.636 260.926 115.527 261.409 115.31C261.892 115.092 262.271 114.789 262.546 114.401C262.82 114.012 262.958 113.562 262.958 113.051C262.958 112.516 262.825 112.045 262.56 111.638C262.295 111.226 261.907 110.904 261.395 110.672C260.884 110.44 260.259 110.324 259.52 110.324H258.355V108.761H259.52C260.098 108.761 260.605 108.657 261.04 108.449C261.48 108.241 261.824 107.947 262.07 107.568C262.321 107.189 262.446 106.744 262.446 106.233C262.446 105.741 262.337 105.312 262.12 104.947C261.902 104.583 261.594 104.299 261.196 104.095C260.803 103.892 260.339 103.79 259.804 103.79C259.302 103.79 258.829 103.882 258.384 104.067C257.944 104.247 257.584 104.509 257.304 104.855C257.025 105.196 256.873 105.608 256.85 106.091H255.145C255.174 105.329 255.403 104.661 255.834 104.088C256.265 103.51 256.828 103.061 257.525 102.739C258.225 102.417 258.995 102.256 259.833 102.256C260.732 102.256 261.504 102.438 262.148 102.803C262.792 103.162 263.287 103.638 263.632 104.23C263.978 104.822 264.151 105.461 264.151 106.148C264.151 106.967 263.935 107.665 263.505 108.243C263.078 108.821 262.498 109.221 261.765 109.443V109.557C262.683 109.708 263.4 110.099 263.917 110.729C264.433 111.354 264.691 112.128 264.691 113.051C264.691 113.842 264.475 114.552 264.044 115.182C263.618 115.807 263.036 116.299 262.297 116.659C261.559 117.019 260.718 117.199 259.776 117.199ZM272.34 117.199C271.27 117.199 270.358 116.908 269.605 116.325C268.853 115.738 268.277 114.888 267.88 113.776C267.482 112.658 267.283 111.309 267.283 109.727C267.283 108.155 267.482 106.813 267.88 105.7C268.282 104.583 268.86 103.731 269.613 103.143C270.37 102.552 271.279 102.256 272.34 102.256C273.4 102.256 274.307 102.552 275.06 103.143C275.818 103.731 276.395 104.583 276.793 105.7C277.195 106.813 277.397 108.155 277.397 109.727C277.397 111.309 277.198 112.658 276.8 113.776C276.402 114.888 275.827 115.738 275.074 116.325C274.321 116.908 273.41 117.199 272.34 117.199ZM272.34 115.636C273.4 115.636 274.224 115.125 274.811 114.102C275.399 113.08 275.692 111.621 275.692 109.727C275.692 108.468 275.557 107.395 275.287 106.51C275.022 105.625 274.639 104.95 274.137 104.486C273.64 104.022 273.041 103.79 272.34 103.79C271.289 103.79 270.467 104.308 269.875 105.345C269.283 106.377 268.988 107.838 268.988 109.727C268.988 110.987 269.12 112.057 269.385 112.938C269.65 113.818 270.032 114.488 270.529 114.947C271.031 115.407 271.634 115.636 272.34 115.636ZM284.73 111.32H286.41V114.3H284.73V111.32ZM292.65 100.48H294.31V118.56H292.65V100.48ZM279.91 115.12L279.69 113.74C283.11 113.72 287.61 113.68 291.51 113.18L291.63 114.4C287.61 115.08 283.25 115.12 279.91 115.12ZM280.07 102.68H291.05V104.02H280.07V102.68ZM285.55 105.06C288.15 105.06 289.91 106.38 289.91 108.4C289.91 110.44 288.15 111.74 285.55 111.74C282.97 111.74 281.21 110.44 281.21 108.4C281.21 106.38 282.97 105.06 285.55 105.06ZM285.55 106.34C283.93 106.34 282.79 107.16 282.79 108.4C282.79 109.64 283.93 110.46 285.55 110.46C287.19 110.46 288.33 109.64 288.33 108.4C288.33 107.16 287.19 106.34 285.55 106.34ZM284.73 100.48H286.39V103.42H284.73V100.48ZM316.733 100.46H318.393V118.58H316.733V100.46ZM308.853 101.86C311.533 101.86 313.453 104.32 313.453 108.16C313.453 112.02 311.533 114.48 308.853 114.48C306.193 114.48 304.273 112.02 304.273 108.16C304.273 104.32 306.193 101.86 308.853 101.86ZM308.853 103.36C307.093 103.36 305.853 105.24 305.853 108.16C305.853 111.1 307.093 113.02 308.853 113.02C310.633 113.02 311.853 111.1 311.853 108.16C311.853 105.24 310.633 103.36 308.853 103.36ZM326.392 101.42H327.772V103.26C327.772 106.74 325.812 109.62 322.792 110.8L321.912 109.46C324.632 108.46 326.392 106.02 326.392 103.26V101.42ZM326.692 101.42H328.052V103.38C328.052 105.82 329.852 108.08 332.452 108.98L331.572 110.28C328.672 109.2 326.692 106.52 326.692 103.38V101.42ZM334.372 100.48H336.032V111.44H334.372V100.48ZM335.572 105.14H338.712V106.54H335.572V105.14ZM330.272 111.94C333.972 111.94 336.212 113.16 336.212 115.24C336.212 117.32 333.972 118.52 330.272 118.52C326.572 118.52 324.332 117.32 324.332 115.24C324.332 113.16 326.572 111.94 330.272 111.94ZM330.272 113.26C327.592 113.26 325.952 113.98 325.952 115.24C325.952 116.5 327.592 117.22 330.272 117.22C332.952 117.22 334.592 116.5 334.592 115.24C334.592 113.98 332.952 113.26 330.272 113.26ZM359.195 100.48H360.855V118.56H359.195V100.48ZM353.895 102.42H355.535C355.535 107.66 353.175 112.24 347.135 115.2L346.255 113.86C351.475 111.34 353.895 107.5 353.895 102.7V102.42ZM347.075 102.42H354.615V103.78H347.075V102.42ZM364.414 110.42H380.814V111.78H364.414V110.42ZM366.494 100.94H378.694V105.32H368.174V107.76H366.534V104.1H377.074V102.24H366.494V100.94ZM366.534 107.22H379.094V108.52H366.534V107.22ZM371.774 107.9H373.434V111.1H371.774V107.9ZM366.234 113.16H378.814V118.4H377.154V114.52H366.234V113.16ZM384.252 108.26H393.512V109.62H384.252V108.26ZM387.952 109.34H389.632V113.5H387.952V109.34ZM384.252 102.18H393.412V103.54H385.912V108.74H384.252V102.18ZM395.892 100.46H397.552V118.58H395.892V100.46ZM383.152 114.66L382.912 113.28C386.452 113.26 390.892 113.22 394.712 112.76L394.852 114C390.892 114.6 386.572 114.68 383.152 114.66ZM405.83 111.5H407.13V112.54C407.13 114.94 405.65 117.34 403.05 118.34L402.21 117.1C404.49 116.26 405.83 114.3 405.83 112.54V111.5ZM406.21 111.5H407.45V112.54C407.45 114.38 408.51 116.36 410.69 117.24L409.99 118.5C407.37 117.48 406.21 114.96 406.21 112.54V111.5ZM412.53 111.5H413.75V112.54C413.75 114.68 412.57 117.4 409.99 118.5L409.27 117.24C411.43 116.24 412.53 114.12 412.53 112.54V111.5ZM412.85 111.5H414.15V112.54C414.15 114.44 415.47 116.32 417.79 117.1L416.93 118.34C414.31 117.38 412.85 115.06 412.85 112.54V111.5ZM410.11 105H414.89V106.38H410.11V105ZM406.15 101.5C408.81 101.5 410.79 103.24 410.79 105.74C410.79 108.22 408.81 109.96 406.15 109.96C403.49 109.96 401.53 108.22 401.53 105.74C401.53 103.24 403.49 101.5 406.15 101.5ZM406.15 102.88C404.39 102.88 403.11 104.08 403.11 105.74C403.11 107.4 404.39 108.58 406.15 108.58C407.89 108.58 409.19 107.4 409.19 105.74C409.19 104.08 407.89 102.88 406.15 102.88ZM414.43 100.48H416.09V110.78H414.43V100.48ZM421.689 111.32H423.329V113.42H432.169V111.32H433.829V118.32H421.689V111.32ZM423.329 114.7V116.98H432.169V114.7H423.329ZM419.609 108.72H435.949V110.06H419.609V108.72ZM426.949 100.68H428.369V101.48C428.369 104.62 424.869 106.88 421.149 107.44L420.549 106.14C423.809 105.7 426.949 103.76 426.949 101.48V100.68ZM427.209 100.68H428.629V101.48C428.629 103.72 431.809 105.7 435.029 106.14L434.409 107.44C430.729 106.88 427.209 104.58 427.209 101.48V100.68ZM451.167 100.48H452.827V118.56H451.167V100.48ZM439.167 102.24H440.807V113.44H439.167V102.24ZM439.167 112.46H440.647C443.387 112.46 446.247 112.26 449.307 111.62L449.507 113.04C446.367 113.68 443.507 113.9 440.647 113.9H439.167V112.46ZM468.646 100.46H470.326V118.58H468.646V100.46ZM469.926 107.6H473.286V109H469.926V107.6ZM457.186 112.68H458.606C461.946 112.68 464.286 112.56 466.986 112.06L467.166 113.46C464.386 113.98 462.006 114.08 458.606 114.08H457.186V112.68ZM457.186 102.22H465.586V103.58H458.826V113.3H457.186V102.22ZM476.58 117.114C476.23 117.114 475.929 116.988 475.678 116.737C475.427 116.486 475.301 116.186 475.301 115.835C475.301 115.485 475.427 115.184 475.678 114.933C475.929 114.682 476.23 114.557 476.58 114.557C476.93 114.557 477.231 114.682 477.482 114.933C477.733 115.184 477.858 115.485 477.858 115.835C477.858 116.067 477.799 116.28 477.681 116.474C477.567 116.669 477.413 116.825 477.219 116.943C477.03 117.057 476.817 117.114 476.58 117.114Z" fill="black"/>
<g clip-path="url(#clip0_1377_318)">
<path d="M213 53C222.941 53 231 44.9411 231 35C231 25.0589 222.941 17 213 17C203.059 17 195 25.0589 195 35C195 44.9411 203.059 53 213 53Z" fill="#E1E8ED"/>
<path d="M226.802 46.5462C223.792 45.2212 222 41.0482 222 35.0002C222 28.9522 223.792 24.7792 226.802 23.4542C226.356 22.9258 225.879 22.4237 225.374 21.9502C222.406 23.6052 220 27.5782 220 35.0002C220 42.4212 222.406 46.3952 225.374 48.0502C225.876 47.5732 226.358 47.0772 226.802 46.5462ZM206 35.0002C206 27.5792 203.594 23.6052 200.626 21.9512C200.122 22.4243 199.645 22.9262 199.198 23.4542C202.208 24.7802 204 28.9522 204 35.0002C204 41.0482 202.208 45.2202 199.198 46.5462C199.643 47.0772 200.124 47.5732 200.626 48.0502C203.593 46.3952 206 42.4212 206 35.0002Z" fill="#B3BEC4"/>
<path d="M200.092 27.164C199.855 27.164 199.635 27.144 199.441 27.108C199.18 27.0592 198.95 26.9088 198.8 26.69C198.726 26.5816 198.674 26.4597 198.646 26.3312C198.619 26.2027 198.618 26.0701 198.642 25.941C198.666 25.8119 198.716 25.6888 198.787 25.5788C198.859 25.4688 198.952 25.374 199.06 25.2998C199.279 25.15 199.548 25.0932 199.809 25.142C200.239 25.219 202.5 25.148 202.957 22.866C203.009 22.606 203.162 22.3773 203.383 22.2302C203.492 22.1574 203.615 22.1069 203.744 22.0814C203.873 22.056 204.005 22.0562 204.134 22.082C204.263 22.1078 204.385 22.1587 204.494 22.2318C204.603 22.3049 204.697 22.3988 204.77 22.5081C204.843 22.6174 204.893 22.74 204.919 22.8688C204.944 22.9977 204.944 23.1302 204.918 23.259C204.335 26.171 201.779 27.164 200.092 27.164ZM201.792 31.125C201.262 31.125 200.84 30.802 200.814 30.266C200.788 29.715 201.214 29.355 201.766 29.329C201.766 29.329 204.33 29.294 205.635 27.035C205.701 26.9219 205.789 26.823 205.894 26.744C205.998 26.665 206.117 26.6075 206.244 26.5748C206.371 26.5421 206.503 26.5348 206.633 26.5533C206.763 26.5719 206.887 26.616 207 26.683C207.478 26.959 207.642 27.577 207.365 28.056C205.514 31.262 201.808 31.125 201.792 31.125ZM204 36.282C203.266 36.282 202.586 36.147 202.072 35.904C201.832 35.7905 201.647 35.5864 201.558 35.3366C201.469 35.0868 201.483 34.8118 201.596 34.572C201.71 34.3322 201.914 34.1474 202.163 34.0581C202.413 33.9689 202.688 33.9825 202.928 34.096C203.758 34.489 205.854 34.335 206.658 33.084C206.729 32.9735 206.821 32.878 206.929 32.8031C207.037 32.7282 207.158 32.6752 207.287 32.6473C207.415 32.6193 207.548 32.6169 207.677 32.6402C207.806 32.6635 207.93 32.712 208.04 32.783C208.151 32.854 208.246 32.946 208.321 33.0539C208.396 33.1618 208.449 33.2833 208.477 33.4117C208.505 33.54 208.507 33.6726 208.484 33.8018C208.461 33.9311 208.412 34.0545 208.341 34.165C207.377 35.666 205.565 36.282 204 36.282ZM205.161 41.807C203.607 41.807 202.166 41.108 201.235 40.331C201.134 40.247 201.051 40.1439 200.99 40.0276C200.929 39.9113 200.891 39.7842 200.879 39.6534C200.867 39.5226 200.881 39.3907 200.92 39.2653C200.959 39.1399 201.023 39.0234 201.107 38.9225C201.191 38.8216 201.294 38.7382 201.41 38.6771C201.526 38.616 201.653 38.5785 201.784 38.5665C201.915 38.5546 202.047 38.5686 202.172 38.6076C202.298 38.6466 202.414 38.71 202.515 38.794C202.709 38.957 204.467 40.36 206.297 39.579C206.418 39.5277 206.548 39.5008 206.679 39.4997C206.811 39.4986 206.941 39.5234 207.063 39.5726C207.184 39.6219 207.295 39.6947 207.389 39.7868C207.483 39.8789 207.557 39.9886 207.609 40.1095C207.66 40.2304 207.687 40.3603 207.688 40.4917C207.689 40.623 207.664 40.7533 207.615 40.8751C207.566 40.9969 207.493 41.1078 207.401 41.2015C207.309 41.2951 207.199 41.3697 207.078 41.421C206.471 41.6772 205.82 41.8084 205.161 41.807ZM204.75 47H204.722C202.218 47 200.043 45.43 199.188 43.892C198.919 43.41 199.094 42.848 199.576 42.58C200.059 42.311 200.668 42.51 200.936 42.992C201.42 43.863 202.932 45.126 204.777 45.177C205.329 45.193 205.764 45.565 205.749 46.116C205.734 46.658 205.29 47 204.75 47ZM222.188 47.188C222.04 47.1881 221.894 47.1553 221.76 47.092C221.626 47.0287 221.508 46.9364 221.414 46.8219C221.32 46.7073 221.253 46.5734 221.217 46.4297C221.181 46.286 221.178 46.1362 221.207 45.991C221.871 42.669 225.101 41.841 226.685 42.142C226.946 42.191 227.176 42.3415 227.326 42.5603C227.475 42.7791 227.532 43.0484 227.483 43.309C227.46 43.4384 227.411 43.5618 227.339 43.6721C227.267 43.7824 227.175 43.8774 227.066 43.9517C226.958 44.0259 226.835 44.0778 226.707 44.1045C226.578 44.1312 226.445 44.132 226.316 44.107C225.891 44.027 223.626 44.1 223.169 46.383C223.124 46.61 223.002 46.8143 222.823 46.961C222.644 47.1078 222.419 47.188 222.188 47.188ZM219.624 42.688C219.449 42.6881 219.276 42.642 219.124 42.5542C218.972 42.4664 218.846 42.3401 218.758 42.1881C218.67 42.036 218.624 41.8634 218.624 41.6879C218.625 41.5123 218.671 41.3399 218.759 41.188C220.611 37.982 222.743 37.884 224.153 37.819L224.264 37.814C224.529 37.8013 224.788 37.8943 224.985 38.0727C225.181 38.251 225.298 38.5 225.311 38.765C225.324 39.03 225.231 39.2891 225.052 39.4855C224.874 39.6818 224.625 39.7993 224.36 39.812L224.245 39.817C223.041 39.873 221.796 39.929 220.491 42.188C220.403 42.3402 220.277 42.4665 220.125 42.5543C219.972 42.642 219.8 42.6882 219.624 42.688ZM218.624 36.625C218.445 36.625 218.268 36.5767 218.114 36.4851C217.96 36.3935 217.833 36.262 217.747 36.1044C217.661 35.9468 217.619 35.769 217.626 35.5896C217.632 35.4102 217.687 35.2359 217.784 35.085C219.199 32.882 222.44 32.584 224.052 33.347C224.29 33.4612 224.474 33.6652 224.562 33.9143C224.651 34.1634 224.637 34.4373 224.524 34.6763C224.411 34.9152 224.208 35.0997 223.959 35.1894C223.711 35.2791 223.437 35.2667 223.197 35.155C222.368 34.762 220.271 34.916 219.465 36.167C219.374 36.3076 219.25 36.4232 219.103 36.5032C218.956 36.5832 218.791 36.6251 218.624 36.625ZM224.249 30.688C224.015 30.6879 223.789 30.6058 223.609 30.456C223.415 30.294 221.657 28.897 219.828 29.671C219.586 29.7618 219.319 29.7557 219.082 29.654C218.845 29.5523 218.656 29.3629 218.555 29.1253C218.454 28.8877 218.449 28.6203 218.54 28.3789C218.632 28.1376 218.813 27.9409 219.046 27.83C221.265 26.888 223.581 27.829 224.89 28.92C225.048 29.0516 225.161 29.2287 225.215 29.4271C225.269 29.6255 225.26 29.8356 225.19 30.0288C225.12 30.2221 224.992 30.389 224.823 30.507C224.655 30.6249 224.455 30.6881 224.249 30.688ZM226.063 26.75C225.885 26.7502 225.709 26.7026 225.556 26.6122C225.402 26.5219 225.275 26.392 225.188 26.236C224.704 25.364 223.192 24.113 221.347 24.062C220.794 24.047 220.36 23.556 220.374 23.003C220.391 22.461 220.835 22 221.374 22H221.402C223.907 22 226.082 23.694 226.936 25.232C227.065 25.4664 227.097 25.7423 227.024 25.9999C226.951 26.2575 226.78 26.476 226.547 26.608C226.401 26.6959 226.234 26.7448 226.063 26.75Z" fill="#DD2E44"/>
</g>
<defs>
<clipPath id="clip0_1377_318">
<rect width="36" height="36" fill="white" transform="translate(195 17)"/>
</clipPath>
</defs>
</svg>
