<svg width="570" height="192" viewBox="0 0 570 192" fill="none" xmlns="http://www.w3.org/2000/svg">
<rect x="0.5" y="0.5" width="569" height="191" rx="17.5" fill="white" stroke="#8A9A6B"/>
<path d="M40.7406 22.995H44.2414V41.2097H40.7406V22.995ZM43.2412 30.4177H47.479V33.2868H43.2412V30.4177ZM25.0529 25.5219H39.3982V28.2594H25.0529V25.5219ZM32.2387 29.128C35.7395 29.128 38.2138 31.0495 38.2138 33.8396C38.2138 36.6297 35.7395 38.5248 32.2387 38.5248C28.7116 38.5248 26.2373 36.6297 26.2373 33.8396C26.2373 31.0495 28.7116 29.128 32.2387 29.128ZM32.2387 31.7865C30.6857 31.7865 29.6065 32.5235 29.6065 33.8396C29.6065 35.1557 30.6857 35.8663 32.2387 35.8663C33.7917 35.8663 34.8709 35.1557 34.8709 33.8396C34.8709 32.5235 33.7917 31.7865 32.2387 31.7865ZM30.4752 22.9424H33.9759V26.8643H30.4752V22.9424ZM28.5273 44.1314H45.1101V46.9215H28.5273V44.1314ZM28.5273 39.8409H32.0281V45.3422H28.5273V39.8409ZM72.5365 22.9687H76.0636V36.0769H72.5365V22.9687ZM59.8494 37.1298H63.2976V39.3935H72.5892V37.1298H76.0636V47.0794H59.8494V37.1298ZM63.2976 42.0783V44.2893H72.5892V42.0783H63.2976ZM62.7975 23.9689C66.5878 23.9689 69.4042 26.3642 69.4042 29.7334C69.4042 33.1026 66.5878 35.4978 62.7975 35.4978C59.0071 35.4978 56.1644 33.1026 56.1644 29.7334C56.1644 26.3642 59.0071 23.9689 62.7975 23.9689ZM62.7975 26.8643C60.9286 26.8643 59.5862 27.9435 59.5862 29.7334C59.5862 31.5496 60.9286 32.6024 62.7975 32.6024C64.64 32.6024 65.9824 31.5496 65.9824 29.7334C65.9824 27.9435 64.64 26.8643 62.7975 26.8643ZM93.0667 24.6533C96.778 24.6533 99.4628 28.0225 99.4628 33.3395C99.4628 38.7091 96.778 42.0783 93.0667 42.0783C89.3553 42.0783 86.6705 38.7091 86.6705 33.3395C86.6705 28.0225 89.3553 24.6533 93.0667 24.6533ZM93.0667 27.8382C91.2505 27.8382 90.0397 29.7597 90.0397 33.3395C90.0397 36.9719 91.2505 38.9197 93.0667 38.9197C94.8829 38.9197 96.12 36.9719 96.12 33.3395C96.12 29.7597 94.8829 27.8382 93.0667 27.8382ZM104.701 28.6279H108.991V31.5233H104.701V28.6279ZM104.701 35.7874H108.991V38.6565H104.701V35.7874ZM102.121 22.9687H105.648V47.3426H102.121V22.9687ZM113.28 24.3901H128.573V27.1538H113.28V24.3901ZM110.779 34.7608H132.81V37.5773H110.779V34.7608ZM119.913 36.735H123.44V47.369H119.913V36.735ZM126.783 24.3901H130.231V26.5484C130.231 29.1806 130.231 32.1287 129.283 36.4454L125.835 36.0506C126.783 31.9707 126.783 29.0753 126.783 26.5484V24.3901ZM146.839 24.2848H149.708V26.4432C149.708 31.2864 147.602 35.5505 142.97 37.1561L141.101 34.3923C145.181 33.0236 146.839 29.7597 146.839 26.4432V24.2848ZM147.55 24.2848H150.393V26.7853C150.393 29.7071 152.025 32.5498 155.841 33.7343L154.025 36.4454C149.629 34.9714 147.55 31.1811 147.55 26.7853V24.2848ZM157.184 22.9687H160.684V37.3667H157.184V22.9687ZM159.71 28.6015H163.922V31.4969H159.71V28.6015ZM152.735 37.9194C157.789 37.9194 160.974 39.683 160.974 42.631C160.974 45.6054 157.789 47.3426 152.735 47.3426C147.655 47.3426 144.47 45.6054 144.47 42.631C144.47 39.683 147.655 37.9194 152.735 37.9194ZM152.735 40.6306C149.629 40.6306 147.945 41.2886 147.945 42.631C147.945 43.9998 149.629 44.6315 152.735 44.6315C155.841 44.6315 157.499 43.9998 157.499 42.631C157.499 41.2886 155.841 40.6306 152.735 40.6306ZM171.422 24.0742H174.317V26.4168C174.317 31.0231 172.08 35.2083 167.315 36.735L165.605 33.9712C169.711 32.6551 171.422 29.4965 171.422 26.4168V24.0742ZM172.132 24.0742H175.001V26.4168C175.001 29.4175 176.686 32.3656 180.661 33.5764L178.95 36.3138C174.291 34.8398 172.132 30.9442 172.132 26.4168V24.0742ZM169.342 38.5775H185.978V47.3426H182.45V41.3676H169.342V38.5775ZM182.45 22.9687H185.978V37.4983H182.45V22.9687Z" fill="black"/>
<path d="M25.34 77.78H34.16V86.72H25.34V77.78ZM31.54 79.88H27.96V84.62H31.54V79.88ZM36.72 76.26H39.38V89.76H36.72V76.26ZM38.62 81.6H41.84V83.78H38.62V81.6ZM27.44 92.34H40.04V94.46H27.44V92.34ZM27.44 88.44H30.1V93.4H27.44V88.44ZM45.1184 76.84H58.0384V82.36H47.8584V85.18H45.1584V80.38H55.3384V78.96H45.1184V76.84ZM45.1584 83.88H58.4984V85.98H45.1584V83.88ZM43.1984 87.34H59.9784V89.48H43.1984V87.34ZM50.2184 88.12H52.8784V94.82H50.2184V88.12ZM63.5369 89.16H76.3369V94.58H63.5369V89.16ZM73.7369 91.14H66.1569V92.62H73.7369V91.14ZM62.3969 77.56H77.4769V79.56H62.3969V77.56ZM69.9769 80.02C73.9569 80.02 76.1769 80.92 76.1769 82.66C76.1769 84.4 73.9569 85.3 69.9769 85.3C65.9969 85.3 63.7769 84.4 63.7769 82.66C63.7769 80.92 65.9969 80.02 69.9769 80.02ZM69.9769 81.8C67.6769 81.8 66.6169 82.04 66.6169 82.66C66.6169 83.26 67.6769 83.52 69.9769 83.52C72.2769 83.52 73.3169 83.26 73.3169 82.66C73.3169 82.04 72.2769 81.8 69.9769 81.8ZM68.6369 76.12H71.2969V78.98H68.6369V76.12ZM61.5969 86.18H78.3369V88.22H61.5969V86.18ZM68.6369 84.66H71.2969V87.26H68.6369V84.66ZM80.6953 85.4H82.2153C85.6753 85.4 87.8353 85.34 90.2953 84.94L90.4953 87.06C87.9753 87.46 85.7353 87.52 82.2153 87.52H80.6953V85.4ZM80.6753 77.48H89.0353V83.42H83.3353V86.78H80.6953V81.42H86.4153V79.6H80.6753V77.48ZM92.8353 76.28H95.4953V89.9H92.8353V76.28ZM83.1753 92.34H95.9553V94.46H83.1753V92.34ZM83.1753 88.82H85.8353V93.02H83.1753V88.82ZM89.9353 80.7H93.3553V82.94H89.9353V80.7ZM98.5738 85.98H114.914V87.34H98.5738V85.98ZM100.694 92.8H113.114V94.16H100.694V92.8ZM100.694 88.92H102.354V93.22H100.694V88.92ZM106.754 77.08C110.614 77.08 113.114 78.44 113.114 80.7C113.114 82.94 110.614 84.3 106.754 84.3C102.874 84.3 100.394 82.94 100.394 80.7C100.394 78.44 102.874 77.08 106.754 77.08ZM106.754 78.44C103.914 78.44 102.094 79.28 102.094 80.7C102.094 82.12 103.914 82.96 106.754 82.96C109.594 82.96 111.414 82.12 111.414 80.7C111.414 79.28 109.594 78.44 106.754 78.44ZM122.617 90.88H138.997V92.26H122.617V90.88ZM129.937 86.2H131.597V91.26H129.937V86.2ZM124.517 77.98H136.997V86.5H124.517V77.98ZM135.397 79.32H126.137V85.16H135.397V79.32ZM141.016 85.6H157.356V86.96H141.016V85.6ZM143.076 82.26H155.476V83.64H143.076V82.26ZM143.076 77.26H155.316V78.6H144.736V82.72H143.076V77.26ZM143.096 92.78H155.636V94.16H143.096V92.78ZM143.096 88.86H144.756V93.14H143.096V88.86ZM165.679 78.26H167.259V82.66H171.059V78.26H172.599V90.02H165.679V78.26ZM167.259 84V88.66H171.059V84H167.259ZM178.799 76.48H180.399V94.56H178.799V76.48ZM172.319 83.34H175.799V84.72H172.319V83.34ZM175.219 76.86H176.799V93.66H175.219V76.86ZM196.558 76.46H198.218V94.58H196.558V76.46ZM188.678 77.86C191.358 77.86 193.278 80.32 193.278 84.16C193.278 88.02 191.358 90.48 188.678 90.48C186.018 90.48 184.098 88.02 184.098 84.16C184.098 80.32 186.018 77.86 188.678 77.86ZM188.678 79.36C186.918 79.36 185.678 81.24 185.678 84.16C185.678 87.1 186.918 89.02 188.678 89.02C190.458 89.02 191.678 87.1 191.678 84.16C191.678 81.24 190.458 79.36 188.678 79.36ZM209.076 77.72H210.516V79.1C210.516 83.04 206.856 86.1 203.236 86.92L202.496 85.54C205.676 84.94 209.076 82.18 209.076 79.1V77.72ZM209.376 77.72H210.816V79.1C210.816 82.2 214.236 84.94 217.396 85.54L216.656 86.92C213.056 86.1 209.376 83.06 209.376 79.1V77.72ZM201.836 90.76H218.216V92.12H201.836V90.76ZM227.554 83.5H230.974V84.88H227.554V83.5ZM233.994 76.48H235.594V94.56H233.994V76.48ZM230.414 76.86H231.994V93.66H230.414V76.86ZM224.294 77.98C226.634 77.98 228.154 80.4 228.154 84.28C228.154 88.16 226.634 90.58 224.294 90.58C221.954 90.58 220.454 88.16 220.454 84.28C220.454 80.4 221.954 77.98 224.294 77.98ZM224.294 79.52C222.874 79.52 221.974 81.36 221.974 84.28C221.974 87.2 222.874 89.04 224.294 89.04C225.734 89.04 226.634 87.2 226.634 84.28C226.634 81.36 225.734 79.52 224.294 79.52ZM251.498 78.26H252.938V79.02C252.938 82.26 249.498 84.64 245.858 85.26L245.218 83.94C248.398 83.48 251.498 81.4 251.498 79.02V78.26ZM251.918 78.26H253.338V79.02C253.338 81.4 256.458 83.48 259.618 83.94L258.998 85.26C255.338 84.64 251.918 82.26 251.918 79.02V78.26ZM251.558 87.66H253.198V94.56H251.558V87.66ZM244.258 86.78H260.598V88.14H244.258V86.78ZM245.778 77.6H259.018V78.94H245.778V77.6ZM267.116 79.06H268.436V82C268.436 85.76 266.136 89.64 263.316 91.08L262.356 89.76C264.936 88.5 267.116 85.06 267.116 82V79.06ZM267.416 79.06H268.736V82C268.736 84.86 270.776 88.08 273.396 89.32L272.456 90.64C269.596 89.22 267.416 85.58 267.416 82V79.06ZM262.996 78.32H272.736V79.72H262.996V78.32ZM274.876 76.48H276.556V94.56H274.876V76.48ZM276.156 83.78H279.516V85.18H276.156V83.78ZM293.275 76.46H294.955V94.56H293.275V76.46ZM294.495 83.8H297.835V85.18H294.495V83.8ZM288.655 78.42H290.275C290.275 83.56 287.915 88.2 282.075 91.14L281.155 89.86C286.155 87.32 288.655 83.46 288.655 78.68V78.42ZM281.995 78.42H289.515V79.78H281.995V78.42ZM309.578 87.6H310.858V88.58C310.858 90.94 309.378 93.32 306.778 94.32L305.938 93.08C308.218 92.26 309.578 90.32 309.578 88.58V87.6ZM309.938 87.6H311.178V88.58C311.178 90.4 312.258 92.34 314.418 93.22L313.718 94.48C311.118 93.46 309.938 90.98 309.938 88.58V87.6ZM316.258 87.6H317.498V88.58C317.498 90.7 316.298 93.38 313.718 94.48L313.018 93.22C315.158 92.24 316.258 90.14 316.258 88.58V87.6ZM316.598 87.6H317.878V88.58C317.878 90.44 319.218 92.3 321.518 93.08L320.678 94.32C318.038 93.36 316.598 91.08 316.598 88.58V87.6ZM318.218 76.5H319.898V86.82H318.218V76.5ZM310.198 77.54C312.938 77.54 314.898 79.26 314.898 81.76C314.898 84.26 312.938 85.96 310.198 85.96C307.458 85.96 305.478 84.26 305.478 81.76C305.478 79.26 307.458 77.54 310.198 77.54ZM310.198 78.92C308.398 78.92 307.098 80.08 307.098 81.76C307.098 83.44 308.398 84.58 310.198 84.58C311.998 84.58 313.298 83.44 313.298 81.76C313.298 80.08 311.998 78.92 310.198 78.92ZM331.637 76.78C335.617 76.78 337.997 77.9 337.997 79.92C337.997 81.94 335.617 83.06 331.637 83.06C327.637 83.06 325.277 81.94 325.277 79.92C325.277 77.9 327.637 76.78 331.637 76.78ZM331.637 78.04C328.677 78.04 326.977 78.72 326.977 79.92C326.977 81.12 328.677 81.8 331.637 81.8C334.577 81.8 336.277 81.12 336.277 79.92C336.277 78.72 334.577 78.04 331.637 78.04ZM323.457 84.26H339.797V85.6H323.457V84.26ZM325.437 87.14H337.717V91.22H327.117V93.42H325.477V90.02H336.077V88.42H325.437V87.14ZM325.477 93.06H338.257V94.36H325.477V93.06ZM357.84 76.86H359.38V93.66H357.84V76.86ZM358.74 83.84H362.08V85.2H358.74V83.84ZM348.02 88.48H348.74C349.44 88.48 350.62 88.46 352.02 88.12L352.16 89.5C350.66 89.86 349.5 89.86 348.74 89.86H348.02V88.48ZM348.02 78.74H351.88V80.1H349.56V89.26H348.02V78.74ZM352.66 88.48H353.42C354.38 88.48 355.64 88.44 357.02 88.06L357.18 89.44C355.7 89.84 354.46 89.86 353.42 89.86H352.66V88.48ZM352.66 78.74H356.64V80.1H354.18V89.2H352.66V78.74ZM361.5 76.48H363.08V94.56H361.5V76.48ZM372.283 88.84H373.703C377.043 88.84 379.343 88.76 382.063 88.28L382.243 89.64C379.443 90.12 377.083 90.22 373.703 90.22H372.283V88.84ZM372.283 78.12H380.703V79.5H373.943V89.32H372.283V78.12ZM373.523 83.18H380.303V84.52H373.523V83.18ZM383.743 76.48H385.423V94.56H383.743V76.48ZM385.023 83.74H388.383V85.14H385.023V83.74ZM394.382 79.06H395.702V82C395.702 85.76 393.402 89.64 390.582 91.08L389.622 89.76C392.202 88.5 394.382 85.06 394.382 82V79.06ZM394.682 79.06H396.002V82C396.002 84.86 398.042 88.08 400.662 89.32L399.722 90.64C396.862 89.22 394.682 85.58 394.682 82V79.06ZM390.262 78.32H400.002V79.72H390.262V78.32ZM402.142 76.48H403.822V94.56H402.142V76.48ZM403.422 83.78H406.782V85.18H403.422V83.78ZM420.54 76.46H422.22V94.56H420.54V76.46ZM421.76 83.8H425.1V85.18H421.76V83.8ZM415.92 78.42H417.54C417.54 83.56 415.18 88.2 409.34 91.14L408.42 89.86C413.42 87.32 415.92 83.46 415.92 78.68V78.42ZM409.26 78.42H416.78V79.78H409.26V78.42ZM434.324 89.16H446.664V94.32H434.324V89.16ZM445.044 90.44H435.964V93.06H445.044V90.44ZM433.184 77.96H447.724V79.26H433.184V77.96ZM440.504 79.98C444.224 79.98 446.344 80.86 446.344 82.54C446.344 84.22 444.224 85.1 440.504 85.1C436.764 85.1 434.664 84.22 434.664 82.54C434.664 80.86 436.764 79.98 440.504 79.98ZM440.504 81.14C437.884 81.14 436.424 81.64 436.424 82.54C436.424 83.44 437.884 83.94 440.504 83.94C443.104 83.94 444.564 83.44 444.564 82.54C444.564 81.64 443.104 81.14 440.504 81.14ZM439.684 76.22H441.324V78.8H439.684V76.22ZM432.324 86.48H448.664V87.78H432.324V86.48ZM439.684 84.7H441.324V87.2H439.684V84.7ZM451.482 85.94H452.842C456.382 85.94 458.462 85.86 460.922 85.42L461.062 86.78C458.522 87.22 456.422 87.3 452.842 87.3H451.482V85.94ZM451.442 77.74H459.442V83.04H453.122V86.78H451.482V81.74H457.822V79.08H451.442V77.74ZM463.942 76.5H465.602V89.76H463.942V76.5ZM453.942 92.8H466.162V94.16H453.942V92.8ZM453.942 88.78H455.602V93.22H453.942V88.78ZM460.562 81.18H464.362V82.62H460.562V81.18ZM477.301 76.78C481.281 76.78 483.661 77.9 483.661 79.92C483.661 81.94 481.281 83.06 477.301 83.06C473.301 83.06 470.941 81.94 470.941 79.92C470.941 77.9 473.301 76.78 477.301 76.78ZM477.301 78.04C474.341 78.04 472.641 78.72 472.641 79.92C472.641 81.12 474.341 81.8 477.301 81.8C480.241 81.8 481.941 81.12 481.941 79.92C481.941 78.72 480.241 78.04 477.301 78.04ZM469.121 84.26H485.461V85.6H469.121V84.26ZM471.101 87.14H483.381V91.22H472.781V93.42H471.141V90.02H481.741V88.42H471.101V87.14ZM471.141 93.06H483.921V94.36H471.141V93.06ZM506.304 76.48H507.964V94.56H506.304V76.48ZM498.164 80.78H499.504V82.32C499.504 86.18 497.324 89.68 494.424 91.08L493.484 89.8C496.164 88.56 498.164 85.48 498.164 82.32V80.78ZM498.484 80.78H499.804V82.32C499.804 85.34 501.864 88.28 504.564 89.46L503.624 90.76C500.704 89.44 498.484 86.06 498.484 82.32V80.78ZM493.984 79.62H503.944V80.96H493.984V79.62ZM498.164 76.8H499.824V80.36H498.164V76.8ZM513.763 81.9H526.043V83.26H513.763V81.9ZM511.543 85.68H527.943V87.04H511.543V85.68ZM513.763 77.14H515.403V82.58H513.763V77.14ZM513.643 92.76H526.143V94.12H513.643V92.76ZM513.643 88.84H515.283V93.12H513.643V88.84ZM38.2 100.48H39.86V112.72H38.2V100.48ZM34.32 105.58H38.54V106.94H34.32V105.58ZM32.52 101.9H34.26C34.26 106.58 31.18 109.9 26 111.58L25.3 110.26C29.88 108.82 32.52 106.1 32.52 102.56V101.9ZM26.16 101.9H33.7V103.26H26.16V101.9ZM33.2 111.16H34.62V111.98C34.62 115.44 31.46 117.78 27.84 118.52L27.18 117.2C30.38 116.62 33.2 114.62 33.2 111.98V111.16ZM33.44 111.16H34.86V111.98C34.86 114.58 37.64 116.58 40.86 117.16L40.16 118.48C36.56 117.76 33.44 115.42 33.44 111.98V111.16ZM51.5584 100.78C55.5384 100.78 57.9184 101.9 57.9184 103.92C57.9184 105.94 55.5384 107.06 51.5584 107.06C47.5584 107.06 45.1984 105.94 45.1984 103.92C45.1984 101.9 47.5584 100.78 51.5584 100.78ZM51.5584 102.04C48.5984 102.04 46.8984 102.72 46.8984 103.92C46.8984 105.12 48.5984 105.8 51.5584 105.8C54.4984 105.8 56.1984 105.12 56.1984 103.92C56.1984 102.72 54.4984 102.04 51.5584 102.04ZM43.3784 108.26H59.7184V109.6H43.3784V108.26ZM45.3584 111.14H57.6384V115.22H47.0384V117.42H45.3984V114.02H55.9984V112.42H45.3584V111.14ZM45.3984 117.06H58.1784V118.36H45.3984V117.06ZM73.2819 101.78C76.1019 101.78 78.1219 103.52 78.1219 106.04C78.1219 108.58 76.1019 110.32 73.2819 110.32C70.4619 110.32 68.4219 108.58 68.4219 106.04C68.4219 103.52 70.4619 101.78 73.2819 101.78ZM73.2819 103.22C71.4019 103.22 70.0419 104.36 70.0419 106.04C70.0419 107.72 71.4019 108.88 73.2819 108.88C75.1419 108.88 76.5019 107.72 76.5019 106.04C76.5019 104.36 75.1419 103.22 73.2819 103.22ZM80.4819 100.46H82.1419V118.58H80.4819V100.46ZM67.7419 114.62L67.5019 113.24C70.8019 113.24 75.3619 113.22 79.3019 112.6L79.4419 113.82C75.3819 114.6 70.9619 114.62 67.7419 114.62ZM86.8403 102.24H95.1603V114.02H86.8403V102.24ZM93.5403 103.58H88.4603V112.68H93.5403V103.58ZM98.9403 100.46H100.6V118.58H98.9403V100.46ZM116.579 100.48H118.239V110.98H116.579V100.48ZM117.519 105.08H120.919V106.48H117.519V105.08ZM106.879 111.78H108.499V113.7H116.599V111.78H118.239V118.32H106.879V111.78ZM108.499 114.98V116.98H116.599V114.98H108.499ZM104.259 102.32H114.939V103.68H104.259V102.32ZM109.599 104.5C112.179 104.5 113.919 105.76 113.919 107.68C113.919 109.6 112.179 110.86 109.599 110.86C106.999 110.86 105.259 109.6 105.259 107.68C105.259 105.76 106.999 104.5 109.599 104.5ZM109.599 105.76C107.939 105.76 106.839 106.52 106.839 107.68C106.839 108.84 107.939 109.6 109.599 109.6C111.219 109.6 112.339 108.84 112.339 107.68C112.339 106.52 111.219 105.76 109.599 105.76ZM108.759 100.3H110.419V103.06H108.759V100.3ZM135.757 100.48H137.417V118.56H135.757V100.48ZM123.757 102.24H125.397V113.44H123.757V102.24ZM123.757 112.46H125.237C127.977 112.46 130.837 112.26 133.897 111.62L134.097 113.04C130.957 113.68 128.097 113.9 125.237 113.9H123.757V112.46ZM153.236 100.46H154.916V118.58H153.236V100.46ZM154.516 107.6H157.876V109H154.516V107.6ZM141.776 112.68H143.196C146.536 112.68 148.876 112.56 151.576 112.06L151.756 113.46C148.976 113.98 146.596 114.08 143.196 114.08H141.776V112.68ZM141.776 102.22H150.176V103.58H143.416V113.3H141.776V102.22ZM161.17 117.114C160.819 117.114 160.519 116.988 160.268 116.737C160.017 116.486 159.891 116.186 159.891 115.835C159.891 115.485 160.017 115.184 160.268 114.933C160.519 114.682 160.819 114.557 161.17 114.557C161.52 114.557 161.821 114.682 162.072 114.933C162.323 115.184 162.448 115.485 162.448 115.835C162.448 116.067 162.389 116.28 162.271 116.474C162.157 116.669 162.003 116.825 161.809 116.943C161.62 117.057 161.406 117.114 161.17 117.114ZM183.667 100.46H185.327V118.58H183.667V100.46ZM175.787 101.86C178.467 101.86 180.387 104.32 180.387 108.16C180.387 112.02 178.467 114.48 175.787 114.48C173.127 114.48 171.207 112.02 171.207 108.16C171.207 104.32 173.127 101.86 175.787 101.86ZM175.787 103.36C174.027 103.36 172.787 105.24 172.787 108.16C172.787 111.1 174.027 113.02 175.787 113.02C177.567 113.02 178.787 111.1 178.787 108.16C178.787 105.24 177.567 103.36 175.787 103.36ZM199.285 100.86H200.825V117.66H199.285V100.86ZM200.185 107.84H203.525V109.2H200.185V107.84ZM189.465 112.48H190.185C190.885 112.48 192.065 112.46 193.465 112.12L193.605 113.5C192.105 113.86 190.945 113.86 190.185 113.86H189.465V112.48ZM189.465 102.74H193.325V104.1H191.005V113.26H189.465V102.74ZM194.105 112.48H194.865C195.825 112.48 197.085 112.44 198.465 112.06L198.625 113.44C197.145 113.84 195.905 113.86 194.865 113.86H194.105V112.48ZM194.105 102.74H198.085V104.1H195.625V113.2H194.105V102.74ZM202.945 100.48H204.525V118.56H202.945V100.48ZM212.949 109.84H229.289V111.18H212.949V109.84ZM220.309 107.62H221.949V110.46H220.309V107.62ZM220.309 100.42H221.949V102.94H220.309V100.42ZM220.229 103.1H221.689V103.4C221.689 106.36 218.369 108.08 214.409 108.48L213.909 107.2C217.409 106.9 220.229 105.46 220.229 103.4V103.1ZM220.569 103.1H222.029V103.4C222.029 105.46 224.849 106.9 228.349 107.2L227.849 108.48C223.889 108.08 220.569 106.36 220.569 103.4V103.1ZM214.629 102.24H227.629V103.56H214.629V102.24ZM221.109 112.54C225.009 112.54 227.309 113.6 227.309 115.54C227.309 117.48 225.009 118.52 221.109 118.52C217.209 118.52 214.909 117.48 214.909 115.54C214.909 113.6 217.209 112.54 221.109 112.54ZM221.109 113.8C218.249 113.8 216.589 114.4 216.589 115.54C216.589 116.64 218.249 117.26 221.109 117.26C223.969 117.26 225.629 116.64 225.629 115.54C225.629 114.4 223.969 113.8 221.109 113.8ZM237.157 114.017V112.568L243.549 102.455H244.6V104.699H243.89L239.06 112.341V112.455H247.668V114.017H237.157ZM244.004 117V113.577V112.902V102.455H245.68V117H244.004ZM259.464 105H263.484V106.38H259.464V105ZM263.024 100.48H264.684V111.06H263.024V100.48ZM252.964 111.94H264.684V118.32H252.964V111.94ZM263.064 113.26H254.584V116.98H263.064V113.26ZM254.424 102.2H255.784V103.66C255.784 106.96 253.744 109.78 250.724 110.9L249.864 109.58C252.564 108.62 254.424 106.22 254.424 103.66V102.2ZM254.744 102.2H256.084V103.64C256.084 105.98 257.844 108.24 260.464 109.16L259.624 110.48C256.684 109.42 254.744 106.68 254.744 103.64V102.2ZM250.384 101.64H260.044V102.98H250.384V101.64ZM276.383 100.78C280.363 100.78 282.743 101.9 282.743 103.92C282.743 105.94 280.363 107.06 276.383 107.06C272.383 107.06 270.023 105.94 270.023 103.92C270.023 101.9 272.383 100.78 276.383 100.78ZM276.383 102.04C273.423 102.04 271.723 102.72 271.723 103.92C271.723 105.12 273.423 105.8 276.383 105.8C279.323 105.8 281.023 105.12 281.023 103.92C281.023 102.72 279.323 102.04 276.383 102.04ZM268.203 108.26H284.543V109.6H268.203V108.26ZM270.183 111.14H282.463V115.22H271.863V117.42H270.223V114.02H280.823V112.42H270.183V111.14ZM270.223 117.06H283.003V118.36H270.223V117.06ZM295.426 111.88H307.226V113.22H297.066V117.66H295.426V111.88ZM295.426 116.98H307.506V118.32H295.426V116.98ZM305.446 100.48H307.106V110.86H305.446V100.48ZM301.126 105.02H305.906V106.4H301.126V105.02ZM297.166 101.44C299.826 101.44 301.826 103.22 301.826 105.74C301.826 108.26 299.826 110.04 297.166 110.04C294.486 110.04 292.506 108.26 292.506 105.74C292.506 103.22 294.486 101.44 297.166 101.44ZM297.166 102.86C295.406 102.86 294.106 104.04 294.106 105.74C294.106 107.44 295.406 108.64 297.166 108.64C298.926 108.64 300.226 107.44 300.226 105.74C300.226 104.04 298.926 102.86 297.166 102.86ZM318.805 100.78C322.785 100.78 325.165 101.9 325.165 103.92C325.165 105.94 322.785 107.06 318.805 107.06C314.805 107.06 312.445 105.94 312.445 103.92C312.445 101.9 314.805 100.78 318.805 100.78ZM318.805 102.04C315.845 102.04 314.145 102.72 314.145 103.92C314.145 105.12 315.845 105.8 318.805 105.8C321.745 105.8 323.445 105.12 323.445 103.92C323.445 102.72 321.745 102.04 318.805 102.04ZM310.625 108.26H326.965V109.6H310.625V108.26ZM312.605 111.14H324.885V115.22H314.285V117.42H312.645V114.02H323.245V112.42H312.605V111.14ZM312.645 117.06H325.425V118.36H312.645V117.06ZM341.968 101.12H343.428V102.12C343.428 105.58 339.908 108.06 336.148 108.7L335.488 107.36C338.788 106.86 341.968 104.7 341.968 102.12V101.12ZM342.268 101.12H343.708V102.12C343.708 104.64 346.928 106.86 350.188 107.36L349.528 108.7C345.808 108.06 342.268 105.54 342.268 102.12V101.12ZM341.968 111.68H343.608V118.56H341.968V111.68ZM334.668 110.66H351.008V112.04H334.668V110.66ZM363.191 111.6H364.471V112.58C364.471 114.94 362.991 117.32 360.391 118.32L359.551 117.08C361.831 116.26 363.191 114.32 363.191 112.58V111.6ZM363.551 111.6H364.791V112.58C364.791 114.4 365.871 116.34 368.031 117.22L367.331 118.48C364.731 117.46 363.551 114.98 363.551 112.58V111.6ZM369.871 111.6H371.111V112.58C371.111 114.7 369.911 117.38 367.331 118.48L366.631 117.22C368.771 116.24 369.871 114.14 369.871 112.58V111.6ZM370.211 111.6H371.491V112.58C371.491 114.44 372.831 116.3 375.131 117.08L374.291 118.32C371.651 117.36 370.211 115.08 370.211 112.58V111.6ZM371.831 100.5H373.511V110.82H371.831V100.5ZM363.811 101.54C366.551 101.54 368.511 103.26 368.511 105.76C368.511 108.26 366.551 109.96 363.811 109.96C361.071 109.96 359.091 108.26 359.091 105.76C359.091 103.26 361.071 101.54 363.811 101.54ZM363.811 102.92C362.011 102.92 360.711 104.08 360.711 105.76C360.711 107.44 362.011 108.58 363.811 108.58C365.611 108.58 366.911 107.44 366.911 105.76C366.911 104.08 365.611 102.92 363.811 102.92ZM385.25 101.62C389.01 101.62 391.81 103.62 391.81 106.62C391.81 109.64 389.01 111.62 385.25 111.62C381.49 111.62 378.67 109.64 378.67 106.62C378.67 103.62 381.49 101.62 385.25 101.62ZM385.25 102.98C382.39 102.98 380.27 104.44 380.27 106.62C380.27 108.78 382.39 110.26 385.25 110.26C388.11 110.26 390.23 108.78 390.23 106.62C390.23 104.44 388.11 102.98 385.25 102.98ZM377.09 114.78H393.47V116.18H377.09V114.78ZM403.788 104.8H409.368V106.16H403.788V104.8ZM403.788 109.78H409.368V111.16H403.788V109.78ZM396.208 102.24H404.428V114H396.208V102.24ZM402.788 103.58H397.828V112.66H402.788V103.58ZM408.728 100.46H410.368V118.58H408.728V100.46ZM416.921 115.011L416.807 115.778C416.727 116.318 416.604 116.896 416.438 117.511C416.277 118.127 416.109 118.707 415.934 119.251C415.758 119.796 415.614 120.229 415.5 120.551H414.222C414.283 120.248 414.364 119.848 414.463 119.351C414.563 118.854 414.662 118.297 414.762 117.682C414.866 117.071 414.951 116.446 415.017 115.807L415.103 115.011H416.921ZM425.879 117V102.455H427.64V109.67H427.81L434.344 102.455H436.646L430.538 109.017L436.646 117H434.515L429.458 110.239L427.64 112.284V117H425.879ZM438.925 117V102.455H444.011C445.024 102.455 445.86 102.63 446.518 102.98C447.176 103.326 447.666 103.792 447.988 104.379C448.31 104.962 448.471 105.608 448.471 106.318C448.471 106.943 448.36 107.459 448.137 107.866C447.919 108.274 447.63 108.596 447.271 108.832C446.915 109.069 446.53 109.244 446.113 109.358V109.5C446.558 109.528 447.005 109.685 447.455 109.969C447.905 110.253 448.281 110.66 448.585 111.19C448.888 111.721 449.039 112.369 449.039 113.136C449.039 113.866 448.873 114.521 448.542 115.104C448.21 115.686 447.687 116.148 446.972 116.489C446.257 116.83 445.327 117 444.181 117H438.925ZM440.687 115.438H444.181C445.332 115.438 446.148 115.215 446.631 114.77C447.119 114.32 447.363 113.776 447.363 113.136C447.363 112.644 447.237 112.189 446.987 111.773C446.736 111.351 446.378 111.015 445.914 110.764C445.45 110.509 444.901 110.381 444.266 110.381H440.687V115.438ZM440.687 108.847H443.954C444.484 108.847 444.962 108.742 445.388 108.534C445.819 108.326 446.16 108.032 446.411 107.653C446.667 107.275 446.795 106.83 446.795 106.318C446.795 105.679 446.572 105.137 446.127 104.692C445.682 104.242 444.977 104.017 444.011 104.017H440.687V108.847ZM464.206 109.727C464.206 111.261 463.929 112.587 463.375 113.705C462.821 114.822 462.061 115.684 461.095 116.29C460.129 116.896 459.026 117.199 457.786 117.199C456.545 117.199 455.442 116.896 454.476 116.29C453.51 115.684 452.75 114.822 452.196 113.705C451.642 112.587 451.365 111.261 451.365 109.727C451.365 108.193 451.642 106.867 452.196 105.75C452.75 104.633 453.51 103.771 454.476 103.165C455.442 102.559 456.545 102.256 457.786 102.256C459.026 102.256 460.129 102.559 461.095 103.165C462.061 103.771 462.821 104.633 463.375 105.75C463.929 106.867 464.206 108.193 464.206 109.727ZM462.501 109.727C462.501 108.468 462.291 107.405 461.869 106.538C461.453 105.672 460.887 105.016 460.172 104.571C459.462 104.126 458.666 103.903 457.786 103.903C456.905 103.903 456.107 104.126 455.392 104.571C454.682 105.016 454.116 105.672 453.695 106.538C453.278 107.405 453.07 108.468 453.07 109.727C453.07 110.987 453.278 112.05 453.695 112.916C454.116 113.783 454.682 114.438 455.392 114.884C456.107 115.329 456.905 115.551 457.786 115.551C458.666 115.551 459.462 115.329 460.172 114.884C460.887 114.438 461.453 113.783 461.869 112.916C462.291 112.05 462.501 110.987 462.501 109.727ZM473.726 107.5H477.146V108.88H473.726V107.5ZM480.166 100.48H481.766V118.56H480.166V100.48ZM476.586 100.86H478.166V117.66H476.586V100.86ZM470.466 101.98C472.806 101.98 474.326 104.4 474.326 108.28C474.326 112.16 472.806 114.58 470.466 114.58C468.126 114.58 466.626 112.16 466.626 108.28C466.626 104.4 468.126 101.98 470.466 101.98ZM470.466 103.52C469.046 103.52 468.146 105.36 468.146 108.28C468.146 111.2 469.046 113.04 470.466 113.04C471.906 113.04 472.806 111.2 472.806 108.28C472.806 105.36 471.906 103.52 470.466 103.52ZM493.825 106.6H498.865V107.96H493.825V106.6ZM489.465 102.04H490.825V105.26C490.825 109.32 488.685 113.2 485.825 114.74L484.765 113.42C487.425 112.1 489.465 108.62 489.465 105.26V102.04ZM489.785 102.04H491.125V105.26C491.125 108.56 493.165 111.84 495.785 113.08L494.805 114.42C491.885 112.94 489.785 109.22 489.785 105.26V102.04ZM498.045 100.46H499.685V118.58H498.045V100.46ZM513.268 101.4H514.628V103.18C514.628 106.68 512.668 109.52 509.628 110.68L508.748 109.36C511.488 108.36 513.268 105.94 513.268 103.18V101.4ZM513.568 101.4H514.908V103.16C514.908 105.62 516.708 107.94 519.308 108.86L518.448 110.18C515.528 109.08 513.568 106.34 513.568 103.16V101.4ZM521.188 100.48H522.848V111.06H521.188V100.48ZM522.388 104.96H525.528V106.36H522.388V104.96ZM511.488 111.9H522.848V118.32H511.488V111.9ZM521.228 113.22H513.108V116.98H521.228V113.22ZM531.767 101.5H533.147V103.36C533.147 106.86 531.167 109.72 528.067 110.88L527.207 109.52C529.967 108.54 531.767 106.12 531.767 103.36V101.5ZM532.067 101.5H533.427V103.3C533.427 105.86 535.187 108.12 537.827 109.04L536.927 110.34C534.007 109.24 532.067 106.58 532.067 103.3V101.5ZM540.427 100.48H542.087V111.18H540.427V100.48ZM536.147 111.7C539.867 111.7 542.167 112.96 542.167 115.12C542.167 117.28 539.867 118.52 536.147 118.52C532.407 118.52 530.107 117.28 530.107 115.12C530.107 112.96 532.407 111.7 536.147 111.7ZM536.147 113.02C533.427 113.02 531.767 113.8 531.767 115.12C531.767 116.44 533.427 117.22 536.147 117.22C538.867 117.22 540.527 116.44 540.527 115.12C540.527 113.8 538.867 113.02 536.147 113.02ZM536.507 104.3H540.787V105.68H536.507V104.3ZM38.12 124.46H39.78V142.58H38.12V124.46ZM30.24 125.86C32.92 125.86 34.84 128.32 34.84 132.16C34.84 136.02 32.92 138.48 30.24 138.48C27.58 138.48 25.66 136.02 25.66 132.16C25.66 128.32 27.58 125.86 30.24 125.86ZM30.24 127.36C28.48 127.36 27.24 129.24 27.24 132.16C27.24 135.1 28.48 137.02 30.24 137.02C32.02 137.02 33.24 135.1 33.24 132.16C33.24 129.24 32.02 127.36 30.24 127.36ZM50.7184 124.78H52.1384V125.58C52.1384 128.78 48.6584 131.08 44.9584 131.68L44.3384 130.36C47.5784 129.92 50.7184 127.92 50.7184 125.58V124.78ZM50.9784 124.78H52.3984V125.58C52.3984 127.88 55.5784 129.92 58.7784 130.36L58.1584 131.68C54.4784 131.08 50.9784 128.72 50.9784 125.58V124.78ZM43.3784 133.1H59.7184V134.46H43.3784V133.1ZM51.5384 136.12C55.4184 136.12 57.7384 137.28 57.7384 139.32C57.7384 141.4 55.4184 142.54 51.5384 142.54C47.6584 142.54 45.3384 141.4 45.3384 139.32C45.3384 137.28 47.6584 136.12 51.5384 136.12ZM51.5384 137.4C48.7184 137.4 47.0184 138.12 47.0184 139.32C47.0184 140.56 48.7184 141.26 51.5384 141.26C54.3784 141.26 56.0584 140.56 56.0584 139.32C56.0584 138.12 54.3784 137.4 51.5384 137.4ZM70.0169 126.8H75.5369V128.14H70.0169V126.8ZM70.0169 130.88H75.5369V132.22H70.0169V130.88ZM66.7169 125.3C69.3969 125.3 71.3769 127.04 71.3769 129.5C71.3769 131.98 69.3969 133.72 66.7169 133.72C64.0369 133.72 62.0569 131.98 62.0569 129.5C62.0569 127.04 64.0369 125.3 66.7169 125.3ZM66.7169 126.68C64.9569 126.68 63.6569 127.86 63.6569 129.5C63.6569 131.16 64.9569 132.32 66.7169 132.32C68.4769 132.32 69.7969 131.16 69.7969 129.5C69.7969 127.86 68.4769 126.68 66.7169 126.68ZM74.9969 124.48H76.6569V134.18H74.9969V124.48ZM65.0769 135.08H66.7369V137.36H75.0169V135.08H76.6569V142.32H65.0769V135.08ZM66.7369 138.68V140.98H75.0169V138.68H66.7369ZM93.3153 124.46H94.9753V142.58H93.3153V124.46ZM85.4353 125.86C88.1153 125.86 90.0353 128.32 90.0353 132.16C90.0353 136.02 88.1153 138.48 85.4353 138.48C82.7753 138.48 80.8553 136.02 80.8553 132.16C80.8553 128.32 82.7753 125.86 85.4353 125.86ZM85.4353 127.36C83.6753 127.36 82.4353 129.24 82.4353 132.16C82.4353 135.1 83.6753 137.02 85.4353 137.02C87.2153 137.02 88.4353 135.1 88.4353 132.16C88.4353 129.24 87.2153 127.36 85.4353 127.36ZM104.199 134.06H120.539V135.4H104.199V134.06ZM111.539 131.72H113.179V134.62H111.539V131.72ZM106.359 130.98H118.619V132.28H106.359V130.98ZM106.359 125H118.539V126.3H107.999V131.68H106.359V125ZM107.519 127.96H118.059V129.24H107.519V127.96ZM112.359 136.74C116.299 136.74 118.559 137.74 118.559 139.64C118.559 141.52 116.299 142.52 112.359 142.52C108.419 142.52 106.159 141.52 106.159 139.64C106.159 137.74 108.419 136.74 112.359 136.74ZM112.359 138C109.459 138 107.839 138.58 107.839 139.64C107.839 140.72 109.459 141.28 112.359 141.28C115.259 141.28 116.879 140.72 116.879 139.64C116.879 138.58 115.259 138 112.359 138ZM127.057 125.58H128.417V127.8C128.417 131.34 126.457 134.16 123.417 135.34L122.537 134.02C125.297 133.04 127.057 130.6 127.057 127.8V125.58ZM127.337 125.58H128.697V127.86C128.697 130.32 130.497 132.64 133.137 133.58L132.317 134.88C129.337 133.8 127.337 131.04 127.337 127.86V125.58ZM134.977 124.46H136.637V137.82H134.977V124.46ZM136.117 130.02H139.317V131.4H136.117V130.02ZM125.417 140.8H137.437V142.16H125.417V140.8ZM125.417 136.56H127.077V141.46H125.417V136.56ZM152.26 126.455V141H150.499V128.301H150.413L146.862 130.659V128.869L150.499 126.455H152.26ZM156.898 141L163.403 128.131V128.017H155.903V126.455H165.222V128.102L158.744 141H156.898ZM181.083 124.48H182.683V142.56H181.083V124.48ZM178.163 131.74H181.623V133.1H178.163V131.74ZM173.483 126.8H175.083C175.083 131.46 173.483 135.78 168.323 138.68L167.343 137.5C171.883 134.96 173.483 131.3 173.483 127.12V126.8ZM168.043 126.8H174.043V128.18H168.043V126.8ZM177.063 124.96H178.643V141.68H177.063V124.96ZM191.622 125.78C194.442 125.78 196.462 127.52 196.462 130.04C196.462 132.58 194.442 134.32 191.622 134.32C188.802 134.32 186.762 132.58 186.762 130.04C186.762 127.52 188.802 125.78 191.622 125.78ZM191.622 127.22C189.742 127.22 188.382 128.36 188.382 130.04C188.382 131.72 189.742 132.88 191.622 132.88C193.482 132.88 194.842 131.72 194.842 130.04C194.842 128.36 193.482 127.22 191.622 127.22ZM198.822 124.46H200.482V142.58H198.822V124.46ZM186.082 138.62L185.842 137.24C189.142 137.24 193.702 137.22 197.642 136.6L197.782 137.82C193.722 138.6 189.302 138.62 186.082 138.62ZM210.525 126.1H218.825V134.48H210.525V126.1ZM217.205 127.44H212.145V133.14H217.205V127.44ZM222.145 124.46H223.805V137.72H222.145V124.46ZM223.285 129.98H226.485V131.36H223.285V129.98ZM212.545 140.8H224.625V142.16H212.545V140.8ZM212.545 136.46H214.205V141.38H212.545V136.46ZM230.124 125.2H242.564V129.92H231.844V133.04H230.164V128.64H240.904V126.54H230.124V125.2ZM230.164 132.22H242.984V133.58H230.164V132.22ZM228.164 135.44H244.564V136.82H228.164V135.44ZM235.504 135.96H237.144V142.58H235.504V135.96ZM248.562 137.16H260.902V142.32H248.562V137.16ZM259.282 138.44H250.202V141.06H259.282V138.44ZM247.422 125.96H261.962V127.26H247.422V125.96ZM254.742 127.98C258.462 127.98 260.582 128.86 260.582 130.54C260.582 132.22 258.462 133.1 254.742 133.1C251.002 133.1 248.902 132.22 248.902 130.54C248.902 128.86 251.002 127.98 254.742 127.98ZM254.742 129.14C252.122 129.14 250.662 129.64 250.662 130.54C250.662 131.44 252.122 131.94 254.742 131.94C257.342 131.94 258.802 131.44 258.802 130.54C258.802 129.64 257.342 129.14 254.742 129.14ZM253.922 124.22H255.562V126.8H253.922V124.22ZM246.562 134.48H262.902V135.78H246.562V134.48ZM253.922 132.7H255.562V135.2H253.922V132.7ZM265.72 133.94H267.08C270.62 133.94 272.7 133.86 275.16 133.42L275.3 134.78C272.76 135.22 270.66 135.3 267.08 135.3H265.72V133.94ZM265.68 125.74H273.68V131.04H267.36V134.78H265.72V129.74H272.06V127.08H265.68V125.74ZM278.18 124.5H279.84V137.76H278.18V124.5ZM268.18 140.8H280.4V142.16H268.18V140.8ZM268.18 136.78H269.84V141.22H268.18V136.78ZM274.8 129.18H278.6V130.62H274.8V129.18ZM291.539 124.78C295.519 124.78 297.899 125.9 297.899 127.92C297.899 129.94 295.519 131.06 291.539 131.06C287.539 131.06 285.179 129.94 285.179 127.92C285.179 125.9 287.539 124.78 291.539 124.78ZM291.539 126.04C288.579 126.04 286.879 126.72 286.879 127.92C286.879 129.12 288.579 129.8 291.539 129.8C294.479 129.8 296.179 129.12 296.179 127.92C296.179 126.72 294.479 126.04 291.539 126.04ZM283.359 132.26H299.699V133.6H283.359V132.26ZM285.339 135.14H297.619V139.22H287.019V141.42H285.379V138.02H295.979V136.42H285.339V135.14ZM285.379 141.06H298.159V142.36H285.379V141.06ZM320.562 124.48H322.222V142.56H320.562V124.48ZM315.262 126.42H316.902C316.902 131.66 314.542 136.24 308.502 139.2L307.622 137.86C312.842 135.34 315.262 131.5 315.262 126.7V126.42ZM308.442 126.42H315.982V127.78H308.442V126.42ZM325.781 134.42H342.181V135.78H325.781V134.42ZM327.861 124.94H340.061V129.32H329.541V131.76H327.901V128.1H338.441V126.24H327.861V124.94ZM327.901 131.22H340.461V132.52H327.901V131.22ZM333.141 131.9H334.801V135.1H333.141V131.9ZM327.601 137.16H340.181V142.4H338.521V138.52H327.601V137.16ZM356.439 124.48H358.099V142.56H356.439V124.48ZM357.699 131.9H361.059V133.3H357.699V131.9ZM344.099 127.36H354.759V128.72H344.099V127.36ZM349.499 130.22C352.059 130.22 353.899 131.94 353.899 134.38C353.899 136.82 352.059 138.54 349.499 138.54C346.959 138.54 345.099 136.82 345.099 134.38C345.099 131.94 346.959 130.22 349.499 130.22ZM349.499 131.6C347.859 131.6 346.679 132.74 346.679 134.38C346.679 136 347.859 137.16 349.499 137.16C351.139 137.16 352.319 136 352.319 134.38C352.319 132.74 351.139 131.6 349.499 131.6ZM348.639 124.7H350.299V127.98H348.639V124.7ZM370.898 128.8H376.478V130.16H370.898V128.8ZM370.898 133.78H376.478V135.16H370.898V133.78ZM363.318 126.24H371.538V138H363.318V126.24ZM369.898 127.58H364.938V136.66H369.898V127.58ZM375.838 124.46H377.478V142.58H375.838V124.46ZM394.841 127.14H400.361V128.5H394.841V127.14ZM394.841 131.18H400.361V132.56H394.841V131.18ZM389.421 136.14H401.481V142.56H399.821V137.48H389.421V136.14ZM399.821 124.48H401.481V135.14H399.821V124.48ZM391.541 125.48C394.201 125.48 396.201 127.28 396.201 129.84C396.201 132.4 394.201 134.18 391.541 134.18C388.861 134.18 386.881 132.4 386.881 129.84C386.881 127.28 388.861 125.48 391.541 125.48ZM391.541 126.9C389.781 126.9 388.481 128.12 388.481 129.84C388.481 131.56 389.781 132.76 391.541 132.76C393.301 132.76 394.621 131.56 394.621 129.84C394.621 128.12 393.301 126.9 391.541 126.9ZM418.76 124.48H420.36V142.56H418.76V124.48ZM415.7 131.72H419.18V133.1H415.7V131.72ZM414.66 124.88H416.22V141.64H414.66V124.88ZM405.66 136.72H406.84C409.48 136.72 411.28 136.62 413.38 136.18L413.54 137.56C411.38 138.02 409.56 138.1 406.84 138.1H405.66V136.72ZM405.66 126.68H412.38V128.04H407.3V137.34H405.66V126.68ZM434.203 134.04H435.883V137.96H434.203V134.04ZM434.203 127.68H435.543V128.08C435.543 131.24 433.483 133.68 430.443 134.64L429.683 133.34C432.363 132.54 434.203 130.52 434.203 128.08V127.68ZM434.523 127.68H435.863V128.08C435.863 130.42 437.763 132.38 440.423 133.16L439.663 134.44C436.623 133.54 434.523 131.14 434.523 128.08V127.68ZM430.103 126.84H440.043V128.18H430.103V126.84ZM434.203 124.6H435.883V127.42H434.203V124.6ZM442.103 124.46H443.763V142.58H442.103V124.46ZM429.363 138.86L429.123 137.46C432.423 137.46 436.983 137.44 440.923 136.84L441.063 138.06C437.003 138.82 432.583 138.84 429.363 138.86ZM459.661 124.46H461.341V142.58H459.661V124.46ZM460.941 131.6H464.301V133H460.941V131.6ZM448.201 136.68H449.621C452.961 136.68 455.301 136.56 458.001 136.06L458.181 137.46C455.401 137.98 453.021 138.08 449.621 138.08H448.201V136.68ZM448.201 126.22H456.601V127.58H449.841V137.3H448.201V126.22ZM484.625 124.48H486.285V142.56H484.625V124.48ZM479.325 126.42H480.965C480.965 131.66 478.605 136.24 472.565 139.2L471.685 137.86C476.905 135.34 479.325 131.5 479.325 126.7V126.42ZM472.505 126.42H480.045V127.78H472.505V126.42ZM489.843 134.42H506.243V135.78H489.843V134.42ZM491.923 124.94H504.123V129.32H493.603V131.76H491.963V128.1H502.503V126.24H491.923V124.94ZM491.963 131.22H504.523V132.52H491.963V131.22ZM497.203 131.9H498.863V135.1H497.203V131.9ZM491.663 137.16H504.243V142.4H502.583V138.52H491.663V137.16ZM516.422 124.78C520.402 124.78 522.782 125.9 522.782 127.92C522.782 129.94 520.402 131.06 516.422 131.06C512.422 131.06 510.062 129.94 510.062 127.92C510.062 125.9 512.422 124.78 516.422 124.78ZM516.422 126.04C513.462 126.04 511.762 126.72 511.762 127.92C511.762 129.12 513.462 129.8 516.422 129.8C519.362 129.8 521.062 129.12 521.062 127.92C521.062 126.72 519.362 126.04 516.422 126.04ZM508.242 132.26H524.582V133.6H508.242V132.26ZM510.222 135.14H522.502V139.22H511.902V141.42H510.262V138.02H520.862V136.42H510.222V135.14ZM510.262 141.06H523.042V142.36H510.262V141.06ZM25 162.88H41.38V164.26H25V162.88ZM32.32 158.56H33.98V163.28H32.32V158.56ZM26.92 149.76H28.56V152.98H37.78V149.76H39.42V159H26.92V149.76ZM28.56 154.32V157.64H37.78V154.32H28.56ZM47.5784 159.66H49.2784V166.56H47.5784V159.66ZM53.7984 159.66H55.4984V166.56H53.7984V159.66ZM43.3784 158.76H59.7784V160.14H43.3784V158.76ZM51.5384 149.2C55.3184 149.2 57.8584 150.72 57.8584 153.14C57.8584 155.54 55.3184 157.08 51.5384 157.08C47.7784 157.08 45.2184 155.54 45.2184 153.14C45.2184 150.72 47.7784 149.2 51.5384 149.2ZM51.5384 150.54C48.7784 150.54 46.8984 151.56 46.8984 153.14C46.8984 154.72 48.7784 155.74 51.5384 155.74C54.2984 155.74 56.1584 154.72 56.1584 153.14C56.1584 151.56 54.2984 150.54 51.5384 150.54ZM74.0369 148.48H75.6969V166.56H74.0369V148.48ZM75.2969 155.9H78.6569V157.3H75.2969V155.9ZM61.6969 151.36H72.3569V152.72H61.6969V151.36ZM67.0969 154.22C69.6569 154.22 71.4969 155.94 71.4969 158.38C71.4969 160.82 69.6569 162.54 67.0969 162.54C64.5569 162.54 62.6969 160.82 62.6969 158.38C62.6969 155.94 64.5569 154.22 67.0969 154.22ZM67.0969 155.6C65.4569 155.6 64.2769 156.74 64.2769 158.38C64.2769 160 65.4569 161.16 67.0969 161.16C68.7369 161.16 69.9169 160 69.9169 158.38C69.9169 156.74 68.7369 155.6 67.0969 155.6ZM66.2369 148.7H67.8969V151.98H66.2369V148.7ZM81.9153 150.28H93.5553V151.66H81.9153V150.28ZM80.1953 162.66H96.5353V164.04H80.1953V162.66ZM86.5353 156.2H88.1953V163.34H86.5353V156.2ZM92.9353 150.28H94.5753V152.08C94.5753 154.32 94.5753 156.8 93.9153 160.46L92.2553 160.24C92.9353 156.78 92.9353 154.24 92.9353 152.08V150.28ZM108.719 159.6H109.999V160.58C109.999 162.94 108.519 165.32 105.919 166.32L105.079 165.08C107.359 164.26 108.719 162.32 108.719 160.58V159.6ZM109.079 159.6H110.319V160.58C110.319 162.4 111.399 164.34 113.559 165.22L112.859 166.48C110.259 165.46 109.079 162.98 109.079 160.58V159.6ZM115.399 159.6H116.639V160.58C116.639 162.7 115.439 165.38 112.859 166.48L112.159 165.22C114.299 164.24 115.399 162.14 115.399 160.58V159.6ZM115.739 159.6H117.019V160.58C117.019 162.44 118.359 164.3 120.659 165.08L119.819 166.32C117.179 165.36 115.739 163.08 115.739 160.58V159.6ZM117.359 148.5H119.039V158.82H117.359V148.5ZM109.339 149.54C112.079 149.54 114.039 151.26 114.039 153.76C114.039 156.26 112.079 157.96 109.339 157.96C106.599 157.96 104.619 156.26 104.619 153.76C104.619 151.26 106.599 149.54 109.339 149.54ZM109.339 150.92C107.539 150.92 106.239 152.08 106.239 153.76C106.239 155.44 107.539 156.58 109.339 156.58C111.139 156.58 112.439 155.44 112.439 153.76C112.439 152.08 111.139 150.92 109.339 150.92ZM124.677 159.32H126.317V161.42H135.157V159.32H136.817V166.32H124.677V159.32ZM126.317 162.7V164.98H135.157V162.7H126.317ZM122.597 156.72H138.937V158.06H122.597V156.72ZM129.937 148.68H131.357V149.48C131.357 152.62 127.857 154.88 124.137 155.44L123.537 154.14C126.797 153.7 129.937 151.76 129.937 149.48V148.68ZM130.197 148.68H131.617V149.48C131.617 151.72 134.797 153.7 138.017 154.14L137.397 155.44C133.717 154.88 130.197 152.58 130.197 149.48V148.68ZM154.156 148.48H155.816V166.56H154.156V148.48ZM142.156 150.24H143.796V161.44H142.156V150.24ZM142.156 160.46H143.636C146.376 160.46 149.236 160.26 152.296 159.62L152.496 161.04C149.356 161.68 146.496 161.9 143.636 161.9H142.156V160.46ZM171.634 148.46H173.314V166.58H171.634V148.46ZM172.914 155.6H176.274V157H172.914V155.6ZM160.174 160.68H161.594C164.934 160.68 167.274 160.56 169.974 160.06L170.154 161.46C167.374 161.98 164.994 162.08 161.594 162.08H160.174V160.68ZM160.174 150.22H168.574V151.58H161.814V161.3H160.174V150.22ZM179.568 165.114C179.218 165.114 178.917 164.988 178.666 164.737C178.415 164.486 178.29 164.186 178.29 163.835C178.29 163.485 178.415 163.184 178.666 162.933C178.917 162.682 179.218 162.557 179.568 162.557C179.919 162.557 180.219 162.682 180.47 162.933C180.721 163.184 180.847 163.485 180.847 163.835C180.847 164.067 180.787 164.28 180.669 164.474C180.555 164.669 180.402 164.825 180.207 164.943C180.018 165.057 179.805 165.114 179.568 165.114Z" fill="black"/>
<g clip-path="url(#clip0_1377_327)">
<path d="M213 53C222.941 53 231 44.9411 231 35C231 25.0589 222.941 17 213 17C203.059 17 195 25.0589 195 35C195 44.9411 203.059 53 213 53Z" fill="#E1E8ED"/>
<path d="M226.802 46.5462C223.792 45.2212 222 41.0482 222 35.0002C222 28.9522 223.792 24.7792 226.802 23.4542C226.356 22.9258 225.879 22.4237 225.374 21.9502C222.406 23.6052 220 27.5782 220 35.0002C220 42.4212 222.406 46.3952 225.374 48.0502C225.876 47.5732 226.358 47.0772 226.802 46.5462ZM206 35.0002C206 27.5792 203.594 23.6052 200.626 21.9512C200.122 22.4243 199.645 22.9262 199.198 23.4542C202.208 24.7802 204 28.9522 204 35.0002C204 41.0482 202.208 45.2202 199.198 46.5462C199.643 47.0772 200.124 47.5732 200.626 48.0502C203.593 46.3952 206 42.4212 206 35.0002Z" fill="#B3BEC4"/>
<path d="M200.092 27.164C199.855 27.164 199.635 27.144 199.441 27.108C199.18 27.0592 198.95 26.9088 198.8 26.69C198.726 26.5816 198.674 26.4597 198.646 26.3312C198.619 26.2027 198.618 26.0701 198.642 25.941C198.666 25.8119 198.716 25.6888 198.787 25.5788C198.859 25.4688 198.952 25.374 199.06 25.2998C199.279 25.15 199.548 25.0932 199.809 25.142C200.239 25.219 202.5 25.148 202.957 22.866C203.009 22.606 203.162 22.3773 203.383 22.2302C203.492 22.1574 203.615 22.1069 203.744 22.0814C203.873 22.056 204.005 22.0562 204.134 22.082C204.263 22.1078 204.385 22.1587 204.494 22.2318C204.603 22.3049 204.697 22.3988 204.77 22.5081C204.843 22.6174 204.893 22.74 204.919 22.8688C204.944 22.9977 204.944 23.1302 204.918 23.259C204.335 26.171 201.779 27.164 200.092 27.164ZM201.792 31.125C201.262 31.125 200.84 30.802 200.814 30.266C200.788 29.715 201.214 29.355 201.766 29.329C201.766 29.329 204.33 29.294 205.635 27.035C205.701 26.9219 205.789 26.823 205.894 26.744C205.998 26.665 206.117 26.6075 206.244 26.5748C206.371 26.5421 206.503 26.5348 206.633 26.5533C206.763 26.5719 206.887 26.616 207 26.683C207.478 26.959 207.642 27.577 207.365 28.056C205.514 31.262 201.808 31.125 201.792 31.125ZM204 36.282C203.266 36.282 202.586 36.147 202.072 35.904C201.832 35.7905 201.647 35.5864 201.558 35.3366C201.469 35.0868 201.483 34.8118 201.596 34.572C201.71 34.3322 201.914 34.1474 202.163 34.0581C202.413 33.9689 202.688 33.9825 202.928 34.096C203.758 34.489 205.854 34.335 206.658 33.084C206.729 32.9735 206.821 32.878 206.929 32.8031C207.037 32.7282 207.158 32.6752 207.287 32.6473C207.415 32.6193 207.548 32.6169 207.677 32.6402C207.806 32.6635 207.93 32.712 208.04 32.783C208.151 32.854 208.246 32.946 208.321 33.0539C208.396 33.1618 208.449 33.2833 208.477 33.4117C208.505 33.54 208.507 33.6726 208.484 33.8018C208.461 33.9311 208.412 34.0545 208.341 34.165C207.377 35.666 205.565 36.282 204 36.282ZM205.161 41.807C203.607 41.807 202.166 41.108 201.235 40.331C201.134 40.247 201.051 40.1439 200.99 40.0276C200.929 39.9113 200.891 39.7842 200.879 39.6534C200.867 39.5226 200.881 39.3907 200.92 39.2653C200.959 39.1399 201.023 39.0234 201.107 38.9225C201.191 38.8216 201.294 38.7382 201.41 38.6771C201.526 38.616 201.653 38.5785 201.784 38.5665C201.915 38.5546 202.047 38.5686 202.172 38.6076C202.298 38.6466 202.414 38.71 202.515 38.794C202.709 38.957 204.467 40.36 206.297 39.579C206.418 39.5277 206.548 39.5008 206.679 39.4997C206.811 39.4986 206.941 39.5234 207.063 39.5726C207.184 39.6219 207.295 39.6947 207.389 39.7868C207.483 39.8789 207.557 39.9886 207.609 40.1095C207.66 40.2304 207.687 40.3603 207.688 40.4917C207.689 40.623 207.664 40.7533 207.615 40.8751C207.566 40.9969 207.493 41.1078 207.401 41.2015C207.309 41.2951 207.199 41.3697 207.078 41.421C206.471 41.6772 205.82 41.8084 205.161 41.807ZM204.75 47H204.722C202.218 47 200.043 45.43 199.188 43.892C198.919 43.41 199.094 42.848 199.576 42.58C200.059 42.311 200.668 42.51 200.936 42.992C201.42 43.863 202.932 45.126 204.777 45.177C205.329 45.193 205.764 45.565 205.749 46.116C205.734 46.658 205.29 47 204.75 47ZM222.188 47.188C222.04 47.1881 221.894 47.1553 221.76 47.092C221.626 47.0287 221.508 46.9364 221.414 46.8219C221.32 46.7073 221.253 46.5734 221.217 46.4297C221.181 46.286 221.178 46.1362 221.207 45.991C221.871 42.669 225.101 41.841 226.685 42.142C226.946 42.191 227.176 42.3415 227.326 42.5603C227.475 42.7791 227.532 43.0484 227.483 43.309C227.46 43.4384 227.411 43.5618 227.339 43.6721C227.267 43.7824 227.175 43.8774 227.066 43.9517C226.958 44.0259 226.835 44.0778 226.707 44.1045C226.578 44.1312 226.445 44.132 226.316 44.107C225.891 44.027 223.626 44.1 223.169 46.383C223.124 46.61 223.002 46.8143 222.823 46.961C222.644 47.1078 222.419 47.188 222.188 47.188ZM219.624 42.688C219.449 42.6881 219.276 42.642 219.124 42.5542C218.972 42.4664 218.846 42.3401 218.758 42.1881C218.67 42.036 218.624 41.8634 218.624 41.6879C218.625 41.5123 218.671 41.3399 218.759 41.188C220.611 37.982 222.743 37.884 224.153 37.819L224.264 37.814C224.529 37.8013 224.788 37.8943 224.985 38.0727C225.181 38.251 225.298 38.5 225.311 38.765C225.324 39.03 225.231 39.2891 225.052 39.4855C224.874 39.6818 224.625 39.7993 224.36 39.812L224.245 39.817C223.041 39.873 221.796 39.929 220.491 42.188C220.403 42.3402 220.277 42.4665 220.125 42.5543C219.972 42.642 219.8 42.6882 219.624 42.688ZM218.624 36.625C218.445 36.625 218.268 36.5767 218.114 36.4851C217.96 36.3935 217.833 36.262 217.747 36.1044C217.661 35.9468 217.619 35.769 217.626 35.5896C217.632 35.4102 217.687 35.2359 217.784 35.085C219.199 32.882 222.44 32.584 224.052 33.347C224.29 33.4612 224.474 33.6652 224.562 33.9143C224.651 34.1634 224.637 34.4373 224.524 34.6763C224.411 34.9152 224.208 35.0997 223.959 35.1894C223.711 35.2791 223.437 35.2667 223.197 35.155C222.368 34.762 220.271 34.916 219.465 36.167C219.374 36.3076 219.25 36.4232 219.103 36.5032C218.956 36.5832 218.791 36.6251 218.624 36.625ZM224.249 30.688C224.015 30.6879 223.789 30.6058 223.609 30.456C223.415 30.294 221.657 28.897 219.828 29.671C219.586 29.7618 219.319 29.7557 219.082 29.654C218.845 29.5523 218.656 29.3629 218.555 29.1253C218.454 28.8877 218.449 28.6203 218.54 28.3789C218.632 28.1376 218.813 27.9409 219.046 27.83C221.265 26.888 223.581 27.829 224.89 28.92C225.048 29.0516 225.161 29.2287 225.215 29.4271C225.269 29.6255 225.26 29.8356 225.19 30.0288C225.12 30.2221 224.992 30.389 224.823 30.507C224.655 30.6249 224.455 30.6881 224.249 30.688ZM226.063 26.75C225.885 26.7502 225.709 26.7026 225.556 26.6122C225.402 26.5219 225.275 26.392 225.188 26.236C224.704 25.364 223.192 24.113 221.347 24.062C220.794 24.047 220.36 23.556 220.374 23.003C220.391 22.461 220.835 22 221.374 22H221.402C223.907 22 226.082 23.694 226.936 25.232C227.065 25.4664 227.097 25.7423 227.024 25.9999C226.951 26.2575 226.78 26.476 226.547 26.608C226.401 26.6959 226.234 26.7448 226.063 26.75Z" fill="#DD2E44"/>
</g>
<defs>
<clipPath id="clip0_1377_327">
<rect width="36" height="36" fill="white" transform="translate(195 17)"/>
</clipPath>
</defs>
</svg>
