<svg width="570" height="165" viewBox="0 0 570 165" fill="none" xmlns="http://www.w3.org/2000/svg">
<rect x="0.5" y="0.5" width="569" height="151" rx="17.5" fill="white" stroke="#8A9A6B"/>
<path d="M40.7406 22.995H44.2414V41.2097H40.7406V22.995ZM43.2412 30.4177H47.479V33.2868H43.2412V30.4177ZM25.0529 25.5219H39.3982V28.2594H25.0529V25.5219ZM32.2387 29.128C35.7395 29.128 38.2138 31.0495 38.2138 33.8396C38.2138 36.6297 35.7395 38.5248 32.2387 38.5248C28.7116 38.5248 26.2373 36.6297 26.2373 33.8396C26.2373 31.0495 28.7116 29.128 32.2387 29.128ZM32.2387 31.7865C30.6857 31.7865 29.6065 32.5235 29.6065 33.8396C29.6065 35.1557 30.6857 35.8663 32.2387 35.8663C33.7917 35.8663 34.8709 35.1557 34.8709 33.8396C34.8709 32.5235 33.7917 31.7865 32.2387 31.7865ZM30.4752 22.9424H33.9759V26.8643H30.4752V22.9424ZM28.5273 44.1314H45.1101V46.9215H28.5273V44.1314ZM28.5273 39.8409H32.0281V45.3422H28.5273V39.8409ZM72.5365 22.9687H76.0636V36.0769H72.5365V22.9687ZM59.8494 37.1298H63.2976V39.3935H72.5892V37.1298H76.0636V47.0794H59.8494V37.1298ZM63.2976 42.0783V44.2893H72.5892V42.0783H63.2976ZM62.7975 23.9689C66.5878 23.9689 69.4042 26.3642 69.4042 29.7334C69.4042 33.1026 66.5878 35.4978 62.7975 35.4978C59.0071 35.4978 56.1644 33.1026 56.1644 29.7334C56.1644 26.3642 59.0071 23.9689 62.7975 23.9689ZM62.7975 26.8643C60.9286 26.8643 59.5862 27.9435 59.5862 29.7334C59.5862 31.5496 60.9286 32.6024 62.7975 32.6024C64.64 32.6024 65.9824 31.5496 65.9824 29.7334C65.9824 27.9435 64.64 26.8643 62.7975 26.8643ZM93.0667 24.6533C96.778 24.6533 99.4628 28.0225 99.4628 33.3395C99.4628 38.7091 96.778 42.0783 93.0667 42.0783C89.3553 42.0783 86.6705 38.7091 86.6705 33.3395C86.6705 28.0225 89.3553 24.6533 93.0667 24.6533ZM93.0667 27.8382C91.2505 27.8382 90.0397 29.7597 90.0397 33.3395C90.0397 36.9719 91.2505 38.9197 93.0667 38.9197C94.8829 38.9197 96.12 36.9719 96.12 33.3395C96.12 29.7597 94.8829 27.8382 93.0667 27.8382ZM104.701 28.6279H108.991V31.5233H104.701V28.6279ZM104.701 35.7874H108.991V38.6565H104.701V35.7874ZM102.121 22.9687H105.648V47.3426H102.121V22.9687ZM113.28 24.3901H128.573V27.1538H113.28V24.3901ZM110.779 34.7608H132.81V37.5773H110.779V34.7608ZM119.913 36.735H123.44V47.369H119.913V36.735ZM126.783 24.3901H130.231V26.5484C130.231 29.1806 130.231 32.1287 129.283 36.4454L125.835 36.0506C126.783 31.9707 126.783 29.0753 126.783 26.5484V24.3901ZM146.839 24.2848H149.708V26.4432C149.708 31.2864 147.602 35.5505 142.97 37.1561L141.101 34.3923C145.181 33.0236 146.839 29.7597 146.839 26.4432V24.2848ZM147.55 24.2848H150.393V26.7853C150.393 29.7071 152.025 32.5498 155.841 33.7343L154.025 36.4454C149.629 34.9714 147.55 31.1811 147.55 26.7853V24.2848ZM157.184 22.9687H160.684V37.3667H157.184V22.9687ZM159.71 28.6015H163.922V31.4969H159.71V28.6015ZM152.735 37.9194C157.789 37.9194 160.974 39.683 160.974 42.631C160.974 45.6054 157.789 47.3426 152.735 47.3426C147.655 47.3426 144.47 45.6054 144.47 42.631C144.47 39.683 147.655 37.9194 152.735 37.9194ZM152.735 40.6306C149.629 40.6306 147.945 41.2886 147.945 42.631C147.945 43.9998 149.629 44.6315 152.735 44.6315C155.841 44.6315 157.499 43.9998 157.499 42.631C157.499 41.2886 155.841 40.6306 152.735 40.6306ZM171.422 24.0742H174.317V26.4168C174.317 31.0231 172.08 35.2083 167.315 36.735L165.605 33.9712C169.711 32.6551 171.422 29.4965 171.422 26.4168V24.0742ZM172.132 24.0742H175.001V26.4168C175.001 29.4175 176.686 32.3656 180.661 33.5764L178.95 36.3138C174.291 34.8398 172.132 30.9442 172.132 26.4168V24.0742ZM169.342 38.5775H185.978V47.3426H182.45V41.3676H169.342V38.5775ZM182.45 22.9687H185.978V37.4983H182.45V22.9687Z" fill="black"/>
<path d="M28.96 77.22H31.14V78.76C31.14 82.44 29.52 85.66 25.96 86.9L24.56 84.8C27.66 83.76 28.96 81.28 28.96 78.76V77.22ZM29.5 77.22H31.64V78.7C31.64 81.02 32.88 83.34 35.8 84.3L34.42 86.38C31.06 85.2 29.5 82.18 29.5 78.7V77.22ZM36.72 76.26H39.38V86.96H36.72V76.26ZM38.64 80.44H41.84V82.62H38.64V80.44ZM27.34 87.7H39.38V94.58H27.34V87.7ZM36.78 89.78H29.96V92.48H36.78V89.78ZM47.6984 78.32H49.8984V79.88C49.8984 83.38 48.1984 86.54 44.6384 87.7L43.2784 85.62C46.3584 84.62 47.6984 82.22 47.6984 79.88V78.32ZM48.2384 78.32H50.4184V79.88C50.4184 82.08 51.7384 84.34 54.7584 85.3L53.3984 87.36C49.9184 86.26 48.2384 83.24 48.2384 79.88V78.32ZM43.9784 77.58H54.0584V79.68H43.9784V77.58ZM55.9184 76.28H58.5984V89.64H55.9184V76.28ZM46.2584 92.34H59.0584V94.46H46.2584V92.34ZM46.2584 88.44H48.9184V93.4H46.2584V88.44ZM61.7769 85.98H78.1169V87.34H61.7769V85.98ZM63.8969 92.8H76.3169V94.16H63.8969V92.8ZM63.8969 88.92H65.5569V93.22H63.8969V88.92ZM69.9569 77.08C73.8169 77.08 76.3169 78.44 76.3169 80.7C76.3169 82.94 73.8169 84.3 69.9569 84.3C66.0769 84.3 63.5969 82.94 63.5969 80.7C63.5969 78.44 66.0769 77.08 69.9569 77.08ZM69.9569 78.44C67.1169 78.44 65.2969 79.28 65.2969 80.7C65.2969 82.12 67.1169 82.96 69.9569 82.96C72.7969 82.96 74.6169 82.12 74.6169 80.7C74.6169 79.28 72.7969 78.44 69.9569 78.44ZM86.5803 88.84H88.0003C91.3403 88.84 93.6403 88.76 96.3603 88.28L96.5403 89.64C93.7403 90.12 91.3803 90.22 88.0003 90.22H86.5803V88.84ZM86.5803 78.12H95.0003V79.5H88.2403V89.32H86.5803V78.12ZM87.8203 83.18H94.6003V84.52H87.8203V83.18ZM98.0403 76.48H99.7203V94.56H98.0403V76.48ZM99.3203 83.74H102.68V85.14H99.3203V83.74ZM108.679 79.06H109.999V82C109.999 85.76 107.699 89.64 104.879 91.08L103.919 89.76C106.499 88.5 108.679 85.06 108.679 82V79.06ZM108.979 79.06H110.299V82C110.299 84.86 112.339 88.08 114.959 89.32L114.019 90.64C111.159 89.22 108.979 85.58 108.979 82V79.06ZM104.559 78.32H114.299V79.72H104.559V78.32ZM116.439 76.48H118.119V94.56H116.439V76.48ZM117.719 83.78H121.079V85.18H117.719V83.78ZM134.837 76.46H136.517V94.56H134.837V76.46ZM136.057 83.8H139.397V85.18H136.057V83.8ZM130.217 78.42H131.837C131.837 83.56 129.477 88.2 123.637 91.14L122.717 89.86C127.717 87.32 130.217 83.46 130.217 78.68V78.42ZM123.557 78.42H131.077V79.78H123.557V78.42ZM154.741 87.88C158.581 87.88 161.041 89.14 161.041 91.22C161.041 93.28 158.581 94.52 154.741 94.52C150.881 94.52 148.441 93.28 148.441 91.22C148.441 89.14 150.881 87.88 154.741 87.88ZM154.741 89.18C151.901 89.18 150.081 89.96 150.081 91.22C150.081 92.46 151.901 93.24 154.741 93.24C157.581 93.24 159.381 92.46 159.381 91.22C159.381 89.96 157.581 89.18 154.741 89.18ZM148.581 77.38H160.221V78.74H148.581V77.38ZM146.641 84.9H162.961V86.24H146.641V84.9ZM153.341 81.42H154.981V85.28H153.341V81.42ZM159.261 77.38H160.881V78.92C160.881 80.38 160.881 81.84 160.401 83.72L158.761 83.52C159.261 81.66 159.261 80.34 159.261 78.92V77.38ZM173.199 76.78C177.179 76.78 179.559 77.9 179.559 79.92C179.559 81.94 177.179 83.06 173.199 83.06C169.199 83.06 166.839 81.94 166.839 79.92C166.839 77.9 169.199 76.78 173.199 76.78ZM173.199 78.04C170.239 78.04 168.539 78.72 168.539 79.92C168.539 81.12 170.239 81.8 173.199 81.8C176.139 81.8 177.839 81.12 177.839 79.92C177.839 78.72 176.139 78.04 173.199 78.04ZM165.019 84.26H181.359V85.6H165.019V84.26ZM166.999 87.14H179.279V91.22H168.679V93.42H167.039V90.02H177.639V88.42H166.999V87.14ZM167.039 93.06H179.819V94.36H167.039V93.06ZM189.803 77.7H198.103V85.46H189.803V77.7ZM196.483 79.04H191.423V84.12H196.483V79.04ZM201.423 76.48H203.083V86.78H201.423V76.48ZM202.623 80.82H205.763V82.2H202.623V80.82ZM196.603 88.48H198.023V88.96C198.023 91.8 195.043 93.9 191.483 94.5L190.843 93.22C193.963 92.74 196.603 90.98 196.603 88.96V88.48ZM196.923 88.48H198.342V88.96C198.342 90.94 201.023 92.74 204.083 93.24L203.463 94.52C199.923 93.92 196.923 91.74 196.923 88.96V88.48ZM191.543 87.86H203.403V89.18H191.543V87.86ZM220.581 76.48H222.241V94.56H220.581V76.48ZM207.861 79.4H218.701V80.74H207.861V79.4ZM213.301 82.22C215.901 82.22 217.781 83.94 217.781 86.38C217.781 88.82 215.901 90.54 213.301 90.54C210.701 90.54 208.841 88.82 208.841 86.38C208.841 83.94 210.701 82.22 213.301 82.22ZM213.301 83.6C211.641 83.6 210.421 84.74 210.421 86.38C210.421 88 211.641 89.16 213.301 89.16C214.961 89.16 216.181 88 216.181 86.38C216.181 84.74 214.961 83.6 213.301 83.6ZM212.441 76.66H214.101V80.22H212.441V76.66ZM230.639 79.06H231.979V82C231.979 85.82 229.679 89.66 226.799 91.08L225.839 89.76C228.459 88.52 230.639 85.12 230.639 82V79.06ZM230.959 79.06H232.299V82C232.299 85.06 234.479 88.18 237.139 89.32L236.199 90.64C233.279 89.28 230.959 85.76 230.959 82V79.06ZM226.439 78.32H236.539V79.72H226.439V78.32ZM238.979 76.48H240.639V94.56H238.979V76.48ZM251.963 77.22H264.123V83.32H251.963V77.22ZM262.483 78.56H253.583V81.98H262.483V78.56ZM249.863 85.44H266.203V86.78H249.863V85.44ZM257.223 82.9H258.863V86.02H257.223V82.9ZM257.203 87.92H258.623V88.48C258.623 91.72 255.463 93.84 251.763 94.46L251.123 93.16C254.423 92.68 257.203 90.88 257.203 88.48V87.92ZM257.463 87.92H258.883V88.48C258.883 90.88 261.643 92.68 264.943 93.16L264.303 94.46C260.603 93.84 257.463 91.72 257.463 88.48V87.92ZM280.641 76.42H282.301V86.4H280.641V76.42ZM281.601 80.76H284.981V82.16H281.601V80.76ZM270.821 87.32H282.301V91.36H272.501V93.56H270.861V90.16H280.681V88.58H270.821V87.32ZM270.861 93.08H282.961V94.36H270.861V93.08ZM268.321 78.1H279.001V79.4H268.321V78.1ZM273.661 80.2C276.261 80.2 277.981 81.34 277.981 83.18C277.981 85 276.261 86.12 273.661 86.12C271.021 86.12 269.321 85 269.321 83.18C269.321 81.34 271.021 80.2 273.661 80.2ZM273.661 81.42C271.981 81.42 270.901 82.1 270.901 83.18C270.901 84.24 271.981 84.92 273.661 84.92C275.321 84.92 276.401 84.24 276.401 83.18C276.401 82.1 275.321 81.42 273.661 81.42ZM272.821 76.28H274.481V79H272.821V76.28ZM302.645 76.86H304.185V93.66H302.645V76.86ZM303.545 83.84H306.885V85.2H303.545V83.84ZM292.825 88.48H293.545C294.245 88.48 295.425 88.46 296.825 88.12L296.965 89.5C295.465 89.86 294.305 89.86 293.545 89.86H292.825V88.48ZM292.825 78.74H296.685V80.1H294.365V89.26H292.825V78.74ZM297.465 88.48H298.225C299.185 88.48 300.445 88.44 301.825 88.06L301.985 89.44C300.505 89.84 299.265 89.86 298.225 89.86H297.465V88.48ZM297.465 78.74H301.445V80.1H298.985V89.2H297.465V78.74ZM306.305 76.48H307.885V94.56H306.305V76.48ZM316.308 87.42H332.688V88.8H316.308V87.42ZM323.668 87.82H325.308V94.58H323.668V87.82ZM318.488 84.22H330.868V85.58H318.488V84.22ZM318.488 77.32H330.668V78.66H320.128V84.62H318.488V77.32ZM319.648 80.74H330.228V82.04H319.648V80.74ZM342.027 77.12H343.487V78.12C343.487 81.58 339.967 84.06 336.207 84.7L335.547 83.36C338.847 82.86 342.027 80.7 342.027 78.12V77.12ZM342.327 77.12H343.767V78.12C343.767 80.64 346.987 82.86 350.247 83.36L349.587 84.7C345.867 84.06 342.327 81.54 342.327 78.12V77.12ZM342.027 87.68H343.667V94.56H342.027V87.68ZM334.727 86.66H351.067V88.04H334.727V86.66ZM365.345 76.46H367.025V94.56H365.345V76.46ZM366.565 83.8H369.905V85.18H366.565V83.8ZM360.725 78.42H362.345C362.345 83.56 359.985 88.2 354.145 91.14L353.225 89.86C358.225 87.32 360.725 83.46 360.725 78.68V78.42ZM354.065 78.42H361.585V79.78H354.065V78.42ZM380.328 87.88H392.128V89.22H381.968V93.66H380.328V87.88ZM380.328 92.98H392.408V94.32H380.328V92.98ZM390.348 76.48H392.008V86.86H390.348V76.48ZM386.028 81.02H390.808V82.4H386.028V81.02ZM382.068 77.44C384.728 77.44 386.728 79.22 386.728 81.74C386.728 84.26 384.728 86.04 382.068 86.04C379.388 86.04 377.408 84.26 377.408 81.74C377.408 79.22 379.388 77.44 382.068 77.44ZM382.068 78.86C380.308 78.86 379.008 80.04 379.008 81.74C379.008 83.44 380.308 84.64 382.068 84.64C383.828 84.64 385.128 83.44 385.128 81.74C385.128 80.04 383.828 78.86 382.068 78.86ZM397.747 81.9H410.027V83.26H397.747V81.9ZM395.527 85.68H411.927V87.04H395.527V85.68ZM397.747 77.14H399.387V82.58H397.747V77.14ZM397.627 92.76H410.127V94.12H397.627V92.76ZM397.627 88.84H399.267V93.12H397.627V88.84ZM424.37 77.86C427.03 77.86 428.91 80.32 428.91 84.16C428.91 88.02 427.03 90.48 424.37 90.48C421.71 90.48 419.83 88.02 419.83 84.16C419.83 80.32 421.71 77.86 424.37 77.86ZM424.37 79.36C422.61 79.36 421.41 81.24 421.41 84.16C421.41 87.1 422.61 89.02 424.37 89.02C426.11 89.02 427.33 87.1 427.33 84.16C427.33 81.24 426.11 79.36 424.37 79.36ZM431.79 76.48H433.47V94.56H431.79V76.48ZM433.07 83.7H436.43V85.1H433.07V83.7ZM437.949 84.74H454.349V86.1H437.949V84.74ZM445.289 85.32H446.909V88.08H445.289V85.32ZM445.249 88.92H446.669V89.48C446.669 92.24 443.469 94.06 439.689 94.5L439.149 93.22C442.409 92.88 445.249 91.4 445.249 89.48V88.92ZM445.529 88.92H446.949V89.48C446.949 91.46 449.769 92.9 453.049 93.22L452.509 94.5C448.749 94.06 445.529 92.3 445.529 89.48V88.92ZM446.129 76.74C450.049 76.74 452.489 77.96 452.489 80.06C452.489 82.16 450.049 83.38 446.129 83.38C442.189 83.38 439.769 82.16 439.769 80.06C439.769 77.96 442.189 76.74 446.129 76.74ZM446.129 78.02C443.229 78.02 441.469 78.76 441.469 80.06C441.469 81.34 443.229 82.1 446.129 82.1C449.009 82.1 450.789 81.34 450.789 80.06C450.789 78.76 449.009 78.02 446.129 78.02ZM464.527 77.62C468.287 77.62 471.087 79.62 471.087 82.62C471.087 85.64 468.287 87.62 464.527 87.62C460.767 87.62 457.947 85.64 457.947 82.62C457.947 79.62 460.767 77.62 464.527 77.62ZM464.527 78.98C461.667 78.98 459.547 80.44 459.547 82.62C459.547 84.78 461.667 86.26 464.527 86.26C467.387 86.26 469.507 84.78 469.507 82.62C469.507 80.44 467.387 78.98 464.527 78.98ZM456.367 90.78H472.747V92.18H456.367V90.78ZM474.766 90.96H491.146V92.34H474.766V90.96ZM482.086 87.08H483.746V91.54H482.086V87.08ZM476.746 77.82H489.126V83.3H478.446V86.92H476.806V81.96H487.486V79.16H476.746V77.82ZM476.806 86.22H489.546V87.58H476.806V86.22ZM496.198 91.0114L496.085 91.7784C496.004 92.3182 495.881 92.8958 495.715 93.5114C495.554 94.1269 495.386 94.7069 495.211 95.2514C495.036 95.7959 494.891 96.2292 494.778 96.5511H493.499C493.561 96.2481 493.641 95.848 493.741 95.3509C493.84 94.8537 493.94 94.2973 494.039 93.6818C494.143 93.071 494.228 92.446 494.295 91.8068L494.38 91.0114H496.198ZM511.715 82.8H513.355V86.18H511.715V82.8ZM511.695 76.76H513.135V77.56C513.135 80.82 509.675 83.14 505.995 83.74L505.355 82.42C508.595 81.98 511.695 79.98 511.695 77.56V76.76ZM511.955 76.76H513.375V77.56C513.375 79.98 516.495 81.98 519.715 82.42L519.095 83.74C515.435 83.12 511.955 80.82 511.955 77.56V76.76ZM504.375 85.46H520.715V86.78H504.375V85.46ZM512.535 88.28C516.415 88.28 518.735 89.4 518.735 91.4C518.735 93.42 516.415 94.52 512.535 94.52C508.655 94.52 506.335 93.42 506.335 91.4C506.335 89.4 508.655 88.28 512.535 88.28ZM512.535 89.56C509.695 89.56 508.015 90.22 508.015 91.4C508.015 92.58 509.695 93.24 512.535 93.24C515.395 93.24 517.055 92.58 517.055 91.4C517.055 90.22 515.395 89.56 512.535 89.56ZM527.593 78.46H528.973V80.3C528.973 83.62 526.933 86.4 523.893 87.5L523.033 86.18C525.753 85.22 527.593 82.88 527.593 80.3V78.46ZM527.913 78.46H529.293V80.3C529.293 82.74 531.173 84.94 533.853 85.84L532.993 87.14C529.993 86.12 527.913 83.48 527.913 80.3V78.46ZM523.473 77.98H533.373V79.32H523.473V77.98ZM535.933 76.5H537.613V89.72H535.933V76.5ZM525.993 92.8H538.153V94.16H525.993V92.8ZM525.993 88.48H527.633V93.4H525.993V88.48ZM24.98 110.84H41.38V112.2H24.98V110.84ZM32.3 111.68H33.94V118.56H32.3V111.68ZM33.14 101.2C36.92 101.2 39.46 102.74 39.46 105.16C39.46 107.58 36.92 109.12 33.14 109.12C29.38 109.12 26.82 107.58 26.82 105.16C26.82 102.74 29.38 101.2 33.14 101.2ZM33.14 102.54C30.38 102.54 28.5 103.56 28.5 105.16C28.5 106.76 30.38 107.78 33.14 107.78C35.9 107.78 37.76 106.76 37.76 105.16C37.76 103.56 35.9 102.54 33.14 102.54ZM55.6184 100.46H57.2984V118.56H55.6184V100.46ZM56.8384 107.8H60.1784V109.18H56.8384V107.8ZM50.9984 102.42H52.6184C52.6184 107.56 50.2584 112.2 44.4184 115.14L43.4984 113.86C48.4984 111.32 50.9984 107.46 50.9984 102.68V102.42ZM44.3384 102.42H51.8584V103.78H44.3384V102.42ZM68.1832 117V102.455H69.9446V109.67H70.1151L76.6491 102.455H78.9503L72.8423 109.017L78.9503 117H76.8196L71.7628 110.239L69.9446 112.284V117H68.1832ZM81.2301 117V102.455H86.3153C87.3286 102.455 88.1643 102.63 88.8224 102.98C89.4806 103.326 89.9706 103.792 90.2926 104.379C90.6146 104.962 90.7756 105.608 90.7756 106.318C90.7756 106.943 90.6643 107.459 90.4418 107.866C90.224 108.274 89.9351 108.596 89.5753 108.832C89.2202 109.069 88.8343 109.244 88.4176 109.358V109.5C88.8627 109.528 89.3101 109.685 89.7599 109.969C90.2098 110.253 90.5862 110.66 90.8892 111.19C91.1922 111.721 91.3438 112.369 91.3438 113.136C91.3438 113.866 91.178 114.521 90.8466 115.104C90.5152 115.686 89.992 116.148 89.277 116.489C88.562 116.83 87.6316 117 86.4858 117H81.2301ZM82.9915 115.438H86.4858C87.6364 115.438 88.4531 115.215 88.9361 114.77C89.4238 114.32 89.6676 113.776 89.6676 113.136C89.6676 112.644 89.5421 112.189 89.2912 111.773C89.0402 111.351 88.6828 111.015 88.2188 110.764C87.7547 110.509 87.2055 110.381 86.571 110.381H82.9915V115.438ZM82.9915 108.847H86.2585C86.7888 108.847 87.267 108.742 87.6932 108.534C88.1241 108.326 88.465 108.032 88.7159 107.653C88.9716 107.275 89.0994 106.83 89.0994 106.318C89.0994 105.679 88.8769 105.137 88.4318 104.692C87.9867 104.242 87.2813 104.017 86.3153 104.017H82.9915V108.847ZM106.511 109.727C106.511 111.261 106.234 112.587 105.68 113.705C105.126 114.822 104.366 115.684 103.4 116.29C102.434 116.896 101.331 117.199 100.09 117.199C98.8497 117.199 97.7464 116.896 96.7805 116.29C95.8146 115.684 95.0547 114.822 94.5007 113.705C93.9467 112.587 93.6697 111.261 93.6697 109.727C93.6697 108.193 93.9467 106.867 94.5007 105.75C95.0547 104.633 95.8146 103.771 96.7805 103.165C97.7464 102.559 98.8497 102.256 100.09 102.256C101.331 102.256 102.434 102.559 103.4 103.165C104.366 103.771 105.126 104.633 105.68 105.75C106.234 106.867 106.511 108.193 106.511 109.727ZM104.806 109.727C104.806 108.468 104.595 107.405 104.174 106.538C103.757 105.672 103.192 105.016 102.477 104.571C101.766 104.126 100.971 103.903 100.09 103.903C99.2095 103.903 98.4117 104.126 97.6967 104.571C96.9865 105.016 96.4207 105.672 95.9993 106.538C95.5826 107.405 95.3743 108.468 95.3743 109.727C95.3743 110.987 95.5826 112.05 95.9993 112.916C96.4207 113.783 96.9865 114.438 97.6967 114.884C98.4117 115.329 99.2095 115.551 100.09 115.551C100.971 115.551 101.766 115.329 102.477 114.884C103.192 114.438 103.757 113.783 104.174 112.916C104.595 112.05 104.806 110.987 104.806 109.727ZM114.316 110.06H130.656V111.4H114.316V110.06ZM121.656 107.72H123.296V110.62H121.656V107.72ZM116.476 106.98H128.736V108.28H116.476V106.98ZM116.476 101H128.656V102.3H118.116V107.68H116.476V101ZM117.636 103.96H128.176V105.24H117.636V103.96ZM122.476 112.74C126.416 112.74 128.676 113.74 128.676 115.64C128.676 117.52 126.416 118.52 122.476 118.52C118.536 118.52 116.276 117.52 116.276 115.64C116.276 113.74 118.536 112.74 122.476 112.74ZM122.476 114C119.576 114 117.956 114.58 117.956 115.64C117.956 116.72 119.576 117.28 122.476 117.28C125.376 117.28 126.996 116.72 126.996 115.64C126.996 114.58 125.376 114 122.476 114ZM137.174 101.58H138.534V103.8C138.534 107.34 136.574 110.16 133.534 111.34L132.654 110.02C135.414 109.04 137.174 106.6 137.174 103.8V101.58ZM137.454 101.58H138.814V103.86C138.814 106.32 140.614 108.64 143.254 109.58L142.434 110.88C139.454 109.8 137.454 107.04 137.454 103.86V101.58ZM145.094 100.46H146.754V113.82H145.094V100.46ZM146.234 106.02H149.434V107.4H146.234V106.02ZM135.534 116.8H147.554V118.16H135.534V116.8ZM135.534 112.56H137.194V117.46H135.534V112.56ZM157.263 117V115.722L162.065 110.466C162.628 109.85 163.092 109.315 163.457 108.861C163.821 108.402 164.091 107.971 164.266 107.568C164.446 107.161 164.536 106.735 164.536 106.29C164.536 105.778 164.413 105.336 164.167 104.962C163.925 104.588 163.594 104.299 163.173 104.095C162.751 103.892 162.278 103.79 161.752 103.79C161.193 103.79 160.706 103.906 160.289 104.138C159.877 104.365 159.558 104.685 159.33 105.097C159.108 105.509 158.996 105.991 158.996 106.545H157.32C157.32 105.693 157.517 104.945 157.91 104.301C158.303 103.657 158.838 103.155 159.515 102.795C160.197 102.436 160.961 102.256 161.809 102.256C162.661 102.256 163.416 102.436 164.075 102.795C164.733 103.155 165.249 103.641 165.623 104.251C165.997 104.862 166.184 105.542 166.184 106.29C166.184 106.825 166.087 107.348 165.893 107.859C165.703 108.366 165.372 108.932 164.898 109.557C164.43 110.177 163.779 110.935 162.945 111.83L159.678 115.324V115.438H166.44V117H157.263ZM171.901 115.011L171.788 115.778C171.707 116.318 171.584 116.896 171.418 117.511C171.257 118.127 171.089 118.707 170.914 119.251C170.739 119.796 170.594 120.229 170.481 120.551H169.202C169.264 120.248 169.344 119.848 169.444 119.351C169.543 118.854 169.643 118.297 169.742 117.682C169.846 117.071 169.932 116.446 169.998 115.807L170.083 115.011H171.901ZM179.215 117.199C178.145 117.199 177.233 116.908 176.48 116.325C175.728 115.738 175.152 114.888 174.755 113.776C174.357 112.658 174.158 111.309 174.158 109.727C174.158 108.155 174.357 106.813 174.755 105.7C175.157 104.583 175.735 103.731 176.488 103.143C177.245 102.552 178.154 102.256 179.215 102.256C180.275 102.256 181.182 102.552 181.935 103.143C182.693 103.731 183.27 104.583 183.668 105.7C184.07 106.813 184.272 108.155 184.272 109.727C184.272 111.309 184.073 112.658 183.675 113.776C183.277 114.888 182.702 115.738 181.949 116.325C181.196 116.908 180.285 117.199 179.215 117.199ZM179.215 115.636C180.275 115.636 181.099 115.125 181.686 114.102C182.274 113.08 182.567 111.621 182.567 109.727C182.567 108.468 182.432 107.395 182.162 106.51C181.897 105.625 181.514 104.95 181.012 104.486C180.515 104.022 179.916 103.79 179.215 103.79C178.164 103.79 177.342 104.308 176.75 105.345C176.158 106.377 175.863 107.838 175.863 109.727C175.863 110.987 175.995 112.057 176.26 112.938C176.525 113.818 176.907 114.488 177.404 114.947C177.906 115.407 178.509 115.636 179.215 115.636ZM186.63 114.017V112.568L193.022 102.455H194.073V104.699H193.363L188.533 112.341V112.455H197.141V114.017H186.63ZM193.476 117V113.577V112.902V102.455H195.152V117H193.476ZM204.462 117.199C203.486 117.199 202.625 117.026 201.876 116.68C201.133 116.33 200.553 115.849 200.136 115.239C199.72 114.623 199.514 113.922 199.518 113.136C199.514 112.521 199.634 111.953 199.881 111.432C200.127 110.906 200.463 110.468 200.889 110.118C201.32 109.763 201.801 109.538 202.331 109.443V109.358C201.635 109.178 201.081 108.787 200.669 108.186C200.257 107.58 200.054 106.891 200.058 106.119C200.054 105.381 200.241 104.72 200.619 104.138C200.998 103.555 201.519 103.096 202.182 102.76C202.849 102.424 203.609 102.256 204.462 102.256C205.304 102.256 206.057 102.424 206.72 102.76C207.383 103.096 207.904 103.555 208.283 104.138C208.666 104.72 208.86 105.381 208.865 106.119C208.86 106.891 208.65 107.58 208.233 108.186C207.821 108.787 207.274 109.178 206.592 109.358V109.443C207.118 109.538 207.591 109.763 208.013 110.118C208.434 110.468 208.77 110.906 209.021 111.432C209.272 111.953 209.4 112.521 209.405 113.136C209.4 113.922 209.187 114.623 208.766 115.239C208.349 115.849 207.769 116.33 207.026 116.68C206.287 117.026 205.432 117.199 204.462 117.199ZM204.462 115.636C205.12 115.636 205.688 115.53 206.166 115.317C206.644 115.104 207.014 114.803 207.274 114.415C207.535 114.027 207.667 113.572 207.672 113.051C207.667 112.502 207.525 112.017 207.246 111.595C206.966 111.174 206.585 110.842 206.102 110.601C205.624 110.359 205.077 110.239 204.462 110.239C203.841 110.239 203.287 110.359 202.8 110.601C202.317 110.842 201.936 111.174 201.656 111.595C201.382 112.017 201.247 112.502 201.251 113.051C201.247 113.572 201.372 114.027 201.628 114.415C201.888 114.803 202.26 115.104 202.743 115.317C203.226 115.53 203.799 115.636 204.462 115.636ZM204.462 108.733C204.982 108.733 205.444 108.629 205.847 108.42C206.254 108.212 206.573 107.921 206.805 107.547C207.037 107.173 207.156 106.735 207.161 106.233C207.156 105.741 207.04 105.312 206.812 104.947C206.585 104.578 206.27 104.294 205.868 104.095C205.465 103.892 204.997 103.79 204.462 103.79C203.917 103.79 203.441 103.892 203.034 104.095C202.627 104.294 202.312 104.578 202.089 104.947C201.867 105.312 201.758 105.741 201.763 106.233C201.758 106.735 201.869 107.173 202.097 107.547C202.329 107.921 202.648 108.212 203.055 108.42C203.463 108.629 203.931 108.733 204.462 108.733ZM225.341 100.48H226.941V118.56H225.341V100.48ZM222.421 107.74H225.881V109.1H222.421V107.74ZM217.741 102.8H219.341C219.341 107.46 217.741 111.78 212.581 114.68L211.601 113.5C216.141 110.96 217.741 107.3 217.741 103.12V102.8ZM212.301 102.8H218.301V104.18H212.301V102.8ZM221.321 100.96H222.901V117.68H221.321V100.96ZM235.88 101.78C238.7 101.78 240.72 103.52 240.72 106.04C240.72 108.58 238.7 110.32 235.88 110.32C233.06 110.32 231.02 108.58 231.02 106.04C231.02 103.52 233.06 101.78 235.88 101.78ZM235.88 103.22C234 103.22 232.64 104.36 232.64 106.04C232.64 107.72 234 108.88 235.88 108.88C237.74 108.88 239.1 107.72 239.1 106.04C239.1 104.36 237.74 103.22 235.88 103.22ZM243.08 100.46H244.74V118.58H243.08V100.46ZM230.34 114.62L230.1 113.24C233.4 113.24 237.96 113.22 241.9 112.6L242.04 113.82C237.98 114.6 233.56 114.62 230.34 114.62ZM258.483 101.4H259.843V103.18C259.843 106.68 257.883 109.52 254.843 110.68L253.963 109.36C256.703 108.36 258.483 105.94 258.483 103.18V101.4ZM258.783 101.4H260.123V103.16C260.123 105.62 261.923 107.94 264.523 108.86L263.663 110.18C260.743 109.08 258.783 106.34 258.783 103.16V101.4ZM266.403 100.48H268.063V111.06H266.403V100.48ZM267.603 104.96H270.743V106.36H267.603V104.96ZM256.703 111.9H268.063V118.32H256.703V111.9ZM266.443 113.22H258.323V116.98H266.443V113.22ZM277.241 102.46H278.621V104.3C278.621 107.62 276.581 110.4 273.541 111.5L272.681 110.18C275.401 109.22 277.241 106.88 277.241 104.3V102.46ZM277.561 102.46H278.941V104.3C278.941 106.74 280.821 108.94 283.501 109.84L282.641 111.14C279.641 110.12 277.561 107.48 277.561 104.3V102.46ZM273.121 101.98H283.021V103.32H273.121V101.98ZM285.581 100.5H287.261V113.72H285.581V100.5ZM275.641 116.8H287.801V118.16H275.641V116.8ZM275.641 112.48H277.281V117.4H275.641V112.48ZM299 101.62C302.76 101.62 305.56 103.62 305.56 106.62C305.56 109.64 302.76 111.62 299 111.62C295.24 111.62 292.42 109.64 292.42 106.62C292.42 103.62 295.24 101.62 299 101.62ZM299 102.98C296.14 102.98 294.02 104.44 294.02 106.62C294.02 108.78 296.14 110.26 299 110.26C301.86 110.26 303.98 108.78 303.98 106.62C303.98 104.44 301.86 102.98 299 102.98ZM290.84 114.78H307.22V116.18H290.84V114.78ZM309.238 114.96H325.618V116.34H309.238V114.96ZM316.558 111.08H318.218V115.54H316.558V111.08ZM311.218 101.82H323.598V107.3H312.918V110.92H311.278V105.96H321.958V103.16H311.218V101.82ZM311.278 110.22H324.018V111.58H311.278V110.22ZM338.881 102.455V117H337.12V104.301H337.034L333.483 106.659V104.869L337.12 102.455H338.881ZM348.459 101.32C351.159 101.32 353.079 102.82 353.079 105.04C353.079 107.24 351.159 108.78 348.459 108.78C345.779 108.78 343.859 107.24 343.859 105.04C343.859 102.82 345.779 101.32 348.459 101.32ZM348.459 102.7C346.699 102.7 345.439 103.66 345.439 105.04C345.439 106.44 346.699 107.38 348.459 107.38C350.219 107.38 351.479 106.44 351.479 105.04C351.479 103.66 350.219 102.7 348.459 102.7ZM347.719 110.78H349.379V118H347.719V110.78ZM355.719 100.48H357.359V118.58H355.719V100.48ZM342.739 111.68L342.519 110.28C345.879 110.28 350.459 110.24 354.439 109.64L354.559 110.88C350.479 111.62 346.039 111.68 342.739 111.68ZM360.937 108.88H377.337V110.14H360.937V108.88ZM362.877 111.6H375.277V115.46H364.577V117.58H362.937V114.32H373.657V112.78H362.877V111.6ZM362.937 117.14H375.857V118.34H362.937V117.14ZM363.017 101H375.217V104.76H364.697V106.72H363.057V103.64H373.597V102.18H363.017V101ZM363.057 106.32H375.557V107.52H363.057V106.32ZM398.14 100.48H399.8V118.56H398.14V100.48ZM392.84 102.42H394.48C394.48 107.66 392.12 112.24 386.08 115.2L385.2 113.86C390.42 111.34 392.84 107.5 392.84 102.7V102.42ZM386.02 102.42H393.56V103.78H386.02V102.42ZM403.359 110.42H419.759V111.78H403.359V110.42ZM405.439 100.94H417.639V105.32H407.119V107.76H405.479V104.1H416.019V102.24H405.439V100.94ZM405.479 107.22H418.039V108.52H405.479V107.22ZM410.719 107.9H412.379V111.1H410.719V107.9ZM405.179 113.16H417.759V118.4H416.099V114.52H405.179V113.16ZM435.417 100.5H436.997V111.68H435.417V100.5ZM432.477 105.44H435.897V106.8H432.477V105.44ZM431.577 100.76H433.157V111.42H431.577V100.76ZM421.677 102.54H430.837V103.86H421.677V102.54ZM426.277 104.76C428.537 104.76 430.117 105.98 430.117 107.86C430.117 109.74 428.537 110.96 426.277 110.96C423.997 110.96 422.417 109.74 422.417 107.86C422.417 105.98 423.997 104.76 426.277 104.76ZM426.277 106.02C424.857 106.02 423.897 106.74 423.897 107.86C423.897 108.98 424.857 109.72 426.277 109.72C427.677 109.72 428.637 108.98 428.637 107.86C428.637 106.74 427.677 106.02 426.277 106.02ZM425.457 100.56H427.077V103.32H425.457V100.56ZM426.537 112.22H427.817V112.84C427.817 115.12 426.317 117.4 423.697 118.34L422.917 117.1C425.177 116.34 426.537 114.48 426.537 112.84V112.22ZM426.917 112.22H428.137V112.84C428.137 114.58 429.197 116.42 431.357 117.24L430.657 118.5C428.077 117.54 426.917 115.14 426.917 112.84V112.22ZM433.177 112.22H434.397V112.84C434.397 114.88 433.217 117.46 430.657 118.5L429.977 117.24C432.077 116.32 433.177 114.34 433.177 112.84V112.22ZM433.517 112.22H434.797V112.84C434.797 114.6 436.157 116.38 438.437 117.1L437.637 118.34C434.997 117.44 433.517 115.24 433.517 112.84V112.22ZM442.236 111.32H443.876V113.42H452.716V111.32H454.376V118.32H442.236V111.32ZM443.876 114.7V116.98H452.716V114.7H443.876ZM440.156 108.72H456.496V110.06H440.156V108.72ZM447.496 100.68H448.916V101.48C448.916 104.62 445.416 106.88 441.696 107.44L441.096 106.14C444.356 105.7 447.496 103.76 447.496 101.48V100.68ZM447.756 100.68H449.176V101.48C449.176 103.72 452.356 105.7 455.576 106.14L454.956 107.44C451.276 106.88 447.756 104.58 447.756 101.48V100.68ZM471.714 100.48H473.374V118.56H471.714V100.48ZM459.714 102.24H461.354V113.44H459.714V102.24ZM459.714 112.46H461.194C463.934 112.46 466.794 112.26 469.854 111.62L470.054 113.04C466.914 113.68 464.054 113.9 461.194 113.9H459.714V112.46ZM489.193 100.46H490.873V118.58H489.193V100.46ZM490.473 107.6H493.833V109H490.473V107.6ZM477.733 112.68H479.153C482.493 112.68 484.833 112.56 487.533 112.06L487.713 113.46C484.933 113.98 482.553 114.08 479.153 114.08H477.733V112.68ZM477.733 102.22H486.133V103.58H479.373V113.3H477.733V102.22ZM497.127 117.114C496.776 117.114 496.476 116.988 496.225 116.737C495.974 116.486 495.848 116.186 495.848 115.835C495.848 115.485 495.974 115.184 496.225 114.933C496.476 114.682 496.776 114.557 497.127 114.557C497.477 114.557 497.778 114.682 498.029 114.933C498.28 115.184 498.405 115.485 498.405 115.835C498.405 116.067 498.346 116.28 498.228 116.474C498.114 116.669 497.96 116.825 497.766 116.943C497.577 117.057 497.364 117.114 497.127 117.114Z" fill="black"/>
<g clip-path="url(#clip0_1377_336)">
<path d="M213 53C222.941 53 231 44.9411 231 35C231 25.0589 222.941 17 213 17C203.059 17 195 25.0589 195 35C195 44.9411 203.059 53 213 53Z" fill="#E1E8ED"/>
<path d="M226.802 46.5462C223.792 45.2212 222 41.0482 222 35.0002C222 28.9522 223.792 24.7792 226.802 23.4542C226.356 22.9258 225.879 22.4237 225.374 21.9502C222.406 23.6052 220 27.5782 220 35.0002C220 42.4212 222.406 46.3952 225.374 48.0502C225.876 47.5732 226.358 47.0772 226.802 46.5462ZM206 35.0002C206 27.5792 203.594 23.6052 200.626 21.9512C200.122 22.4243 199.645 22.9262 199.198 23.4542C202.208 24.7802 204 28.9522 204 35.0002C204 41.0482 202.208 45.2202 199.198 46.5462C199.643 47.0772 200.124 47.5732 200.626 48.0502C203.593 46.3952 206 42.4212 206 35.0002Z" fill="#B3BEC4"/>
<path d="M200.092 27.164C199.855 27.164 199.635 27.144 199.441 27.108C199.18 27.0592 198.95 26.9088 198.8 26.69C198.726 26.5816 198.674 26.4597 198.646 26.3312C198.619 26.2027 198.618 26.0701 198.642 25.941C198.666 25.8119 198.716 25.6888 198.787 25.5788C198.859 25.4688 198.952 25.374 199.06 25.2998C199.279 25.15 199.548 25.0932 199.809 25.142C200.239 25.219 202.5 25.148 202.957 22.866C203.009 22.606 203.162 22.3773 203.383 22.2302C203.492 22.1574 203.615 22.1069 203.744 22.0814C203.873 22.056 204.005 22.0562 204.134 22.082C204.263 22.1078 204.385 22.1587 204.494 22.2318C204.603 22.3049 204.697 22.3988 204.77 22.5081C204.843 22.6174 204.893 22.74 204.919 22.8688C204.944 22.9977 204.944 23.1302 204.918 23.259C204.335 26.171 201.779 27.164 200.092 27.164ZM201.792 31.125C201.262 31.125 200.84 30.802 200.814 30.266C200.788 29.715 201.214 29.355 201.766 29.329C201.766 29.329 204.33 29.294 205.635 27.035C205.701 26.9219 205.789 26.823 205.894 26.744C205.998 26.665 206.117 26.6075 206.244 26.5748C206.371 26.5421 206.503 26.5348 206.633 26.5533C206.763 26.5719 206.887 26.616 207 26.683C207.478 26.959 207.642 27.577 207.365 28.056C205.514 31.262 201.808 31.125 201.792 31.125ZM204 36.282C203.266 36.282 202.586 36.147 202.072 35.904C201.832 35.7905 201.647 35.5864 201.558 35.3366C201.469 35.0868 201.483 34.8118 201.596 34.572C201.71 34.3322 201.914 34.1474 202.163 34.0581C202.413 33.9689 202.688 33.9825 202.928 34.096C203.758 34.489 205.854 34.335 206.658 33.084C206.729 32.9735 206.821 32.878 206.929 32.8031C207.037 32.7282 207.158 32.6752 207.287 32.6473C207.415 32.6193 207.548 32.6169 207.677 32.6402C207.806 32.6635 207.93 32.712 208.04 32.783C208.151 32.854 208.246 32.946 208.321 33.0539C208.396 33.1618 208.449 33.2833 208.477 33.4117C208.505 33.54 208.507 33.6726 208.484 33.8018C208.461 33.9311 208.412 34.0545 208.341 34.165C207.377 35.666 205.565 36.282 204 36.282ZM205.161 41.807C203.607 41.807 202.166 41.108 201.235 40.331C201.134 40.247 201.051 40.1439 200.99 40.0276C200.929 39.9113 200.891 39.7842 200.879 39.6534C200.867 39.5226 200.881 39.3907 200.92 39.2653C200.959 39.1399 201.023 39.0234 201.107 38.9225C201.191 38.8216 201.294 38.7382 201.41 38.6771C201.526 38.616 201.653 38.5785 201.784 38.5665C201.915 38.5546 202.047 38.5686 202.172 38.6076C202.298 38.6466 202.414 38.71 202.515 38.794C202.709 38.957 204.467 40.36 206.297 39.579C206.418 39.5277 206.548 39.5008 206.679 39.4997C206.811 39.4986 206.941 39.5234 207.063 39.5726C207.184 39.6219 207.295 39.6947 207.389 39.7868C207.483 39.8789 207.557 39.9886 207.609 40.1095C207.66 40.2304 207.687 40.3603 207.688 40.4917C207.689 40.623 207.664 40.7533 207.615 40.8751C207.566 40.9969 207.493 41.1078 207.401 41.2015C207.309 41.2951 207.199 41.3697 207.078 41.421C206.471 41.6772 205.82 41.8084 205.161 41.807ZM204.75 47H204.722C202.218 47 200.043 45.43 199.188 43.892C198.919 43.41 199.094 42.848 199.576 42.58C200.059 42.311 200.668 42.51 200.936 42.992C201.42 43.863 202.932 45.126 204.777 45.177C205.329 45.193 205.764 45.565 205.749 46.116C205.734 46.658 205.29 47 204.75 47ZM222.188 47.188C222.04 47.1881 221.894 47.1553 221.76 47.092C221.626 47.0287 221.508 46.9364 221.414 46.8219C221.32 46.7073 221.253 46.5734 221.217 46.4297C221.181 46.286 221.178 46.1362 221.207 45.991C221.871 42.669 225.101 41.841 226.685 42.142C226.946 42.191 227.176 42.3415 227.326 42.5603C227.475 42.7791 227.532 43.0484 227.483 43.309C227.46 43.4384 227.411 43.5618 227.339 43.6721C227.267 43.7824 227.175 43.8774 227.066 43.9517C226.958 44.0259 226.835 44.0778 226.707 44.1045C226.578 44.1312 226.445 44.132 226.316 44.107C225.891 44.027 223.626 44.1 223.169 46.383C223.124 46.61 223.002 46.8143 222.823 46.961C222.644 47.1078 222.419 47.188 222.188 47.188ZM219.624 42.688C219.449 42.6881 219.276 42.642 219.124 42.5542C218.972 42.4664 218.846 42.3401 218.758 42.1881C218.67 42.036 218.624 41.8634 218.624 41.6879C218.625 41.5123 218.671 41.3399 218.759 41.188C220.611 37.982 222.743 37.884 224.153 37.819L224.264 37.814C224.529 37.8013 224.788 37.8943 224.985 38.0727C225.181 38.251 225.298 38.5 225.311 38.765C225.324 39.03 225.231 39.2891 225.052 39.4855C224.874 39.6818 224.625 39.7993 224.36 39.812L224.245 39.817C223.041 39.873 221.796 39.929 220.491 42.188C220.403 42.3402 220.277 42.4665 220.125 42.5543C219.972 42.642 219.8 42.6882 219.624 42.688ZM218.624 36.625C218.445 36.625 218.268 36.5767 218.114 36.4851C217.96 36.3935 217.833 36.262 217.747 36.1044C217.661 35.9468 217.619 35.769 217.626 35.5896C217.632 35.4102 217.687 35.2359 217.784 35.085C219.199 32.882 222.44 32.584 224.052 33.347C224.29 33.4612 224.474 33.6652 224.562 33.9143C224.651 34.1634 224.637 34.4373 224.524 34.6763C224.411 34.9152 224.208 35.0997 223.959 35.1894C223.711 35.2791 223.437 35.2667 223.197 35.155C222.368 34.762 220.271 34.916 219.465 36.167C219.374 36.3076 219.25 36.4232 219.103 36.5032C218.956 36.5832 218.791 36.6251 218.624 36.625ZM224.249 30.688C224.015 30.6879 223.789 30.6058 223.609 30.456C223.415 30.294 221.657 28.897 219.828 29.671C219.586 29.7618 219.319 29.7557 219.082 29.654C218.845 29.5523 218.656 29.3629 218.555 29.1253C218.454 28.8877 218.449 28.6203 218.54 28.3789C218.632 28.1376 218.813 27.9409 219.046 27.83C221.265 26.888 223.581 27.829 224.89 28.92C225.048 29.0516 225.161 29.2287 225.215 29.4271C225.269 29.6255 225.26 29.8356 225.19 30.0288C225.12 30.2221 224.992 30.389 224.823 30.507C224.655 30.6249 224.455 30.6881 224.249 30.688ZM226.063 26.75C225.885 26.7502 225.709 26.7026 225.556 26.6122C225.402 26.5219 225.275 26.392 225.188 26.236C224.704 25.364 223.192 24.113 221.347 24.062C220.794 24.047 220.36 23.556 220.374 23.003C220.391 22.461 220.835 22 221.374 22H221.402C223.907 22 226.082 23.694 226.936 25.232C227.065 25.4664 227.097 25.7423 227.024 25.9999C226.951 26.2575 226.78 26.476 226.547 26.608C226.401 26.6959 226.234 26.7448 226.063 26.75Z" fill="#DD2E44"/>
</g>
<defs>
<clipPath id="clip0_1377_336">
<rect width="36" height="36" fill="white" transform="translate(195 17)"/>
</clipPath>
</defs>
</svg>
