<svg width="570" height="170" viewBox="0 0 570 170" fill="none" xmlns="http://www.w3.org/2000/svg">
<rect x="0.5" y="0.5" width="569" height="169" rx="17.5" fill="white" stroke="#8A9A6B"/>
<path d="M40.7406 22.995H44.2414V41.2097H40.7406V22.995ZM43.2412 30.4177H47.479V33.2868H43.2412V30.4177ZM25.0529 25.5219H39.3982V28.2594H25.0529V25.5219ZM32.2387 29.128C35.7395 29.128 38.2138 31.0495 38.2138 33.8396C38.2138 36.6297 35.7395 38.5248 32.2387 38.5248C28.7116 38.5248 26.2373 36.6297 26.2373 33.8396C26.2373 31.0495 28.7116 29.128 32.2387 29.128ZM32.2387 31.7865C30.6857 31.7865 29.6065 32.5235 29.6065 33.8396C29.6065 35.1557 30.6857 35.8663 32.2387 35.8663C33.7917 35.8663 34.8709 35.1557 34.8709 33.8396C34.8709 32.5235 33.7917 31.7865 32.2387 31.7865ZM30.4752 22.9424H33.9759V26.8643H30.4752V22.9424ZM28.5273 44.1314H45.1101V46.9215H28.5273V44.1314ZM28.5273 39.8409H32.0281V45.3422H28.5273V39.8409ZM72.5365 22.9687H76.0636V36.0769H72.5365V22.9687ZM59.8494 37.1298H63.2976V39.3935H72.5892V37.1298H76.0636V47.0794H59.8494V37.1298ZM63.2976 42.0783V44.2893H72.5892V42.0783H63.2976ZM62.7975 23.9689C66.5878 23.9689 69.4042 26.3642 69.4042 29.7334C69.4042 33.1026 66.5878 35.4978 62.7975 35.4978C59.0071 35.4978 56.1644 33.1026 56.1644 29.7334C56.1644 26.3642 59.0071 23.9689 62.7975 23.9689ZM62.7975 26.8643C60.9286 26.8643 59.5862 27.9435 59.5862 29.7334C59.5862 31.5496 60.9286 32.6024 62.7975 32.6024C64.64 32.6024 65.9824 31.5496 65.9824 29.7334C65.9824 27.9435 64.64 26.8643 62.7975 26.8643ZM93.0667 24.6533C96.778 24.6533 99.4628 28.0225 99.4628 33.3395C99.4628 38.7091 96.778 42.0783 93.0667 42.0783C89.3553 42.0783 86.6705 38.7091 86.6705 33.3395C86.6705 28.0225 89.3553 24.6533 93.0667 24.6533ZM93.0667 27.8382C91.2505 27.8382 90.0397 29.7597 90.0397 33.3395C90.0397 36.9719 91.2505 38.9197 93.0667 38.9197C94.8829 38.9197 96.12 36.9719 96.12 33.3395C96.12 29.7597 94.8829 27.8382 93.0667 27.8382ZM104.701 28.6279H108.991V31.5233H104.701V28.6279ZM104.701 35.7874H108.991V38.6565H104.701V35.7874ZM102.121 22.9687H105.648V47.3426H102.121V22.9687ZM113.28 24.3901H128.573V27.1538H113.28V24.3901ZM110.779 34.7608H132.81V37.5773H110.779V34.7608ZM119.913 36.735H123.44V47.369H119.913V36.735ZM126.783 24.3901H130.231V26.5484C130.231 29.1806 130.231 32.1287 129.283 36.4454L125.835 36.0506C126.783 31.9707 126.783 29.0753 126.783 26.5484V24.3901ZM146.839 24.2848H149.708V26.4432C149.708 31.2864 147.602 35.5505 142.97 37.1561L141.101 34.3923C145.181 33.0236 146.839 29.7597 146.839 26.4432V24.2848ZM147.55 24.2848H150.393V26.7853C150.393 29.7071 152.025 32.5498 155.841 33.7343L154.025 36.4454C149.629 34.9714 147.55 31.1811 147.55 26.7853V24.2848ZM157.184 22.9687H160.684V37.3667H157.184V22.9687ZM159.71 28.6015H163.922V31.4969H159.71V28.6015ZM152.735 37.9194C157.789 37.9194 160.974 39.683 160.974 42.631C160.974 45.6054 157.789 47.3426 152.735 47.3426C147.655 47.3426 144.47 45.6054 144.47 42.631C144.47 39.683 147.655 37.9194 152.735 37.9194ZM152.735 40.6306C149.629 40.6306 147.945 41.2886 147.945 42.631C147.945 43.9998 149.629 44.6315 152.735 44.6315C155.841 44.6315 157.499 43.9998 157.499 42.631C157.499 41.2886 155.841 40.6306 152.735 40.6306ZM171.422 24.0742H174.317V26.4168C174.317 31.0231 172.08 35.2083 167.315 36.735L165.605 33.9712C169.711 32.6551 171.422 29.4965 171.422 26.4168V24.0742ZM172.132 24.0742H175.001V26.4168C175.001 29.4175 176.686 32.3656 180.661 33.5764L178.95 36.3138C174.291 34.8398 172.132 30.9442 172.132 26.4168V24.0742ZM169.342 38.5775H185.978V47.3426H182.45V41.3676H169.342V38.5775ZM182.45 22.9687H185.978V37.4983H182.45V22.9687Z" fill="black"/>
<path d="M26.76 84.52H39.78V86.64H26.76V84.52ZM24.82 90.52H41.58V92.7H24.82V90.52ZM31.84 85.48H34.5V91.22H31.84V85.48ZM26.76 77.52H39.64V79.66H29.42V85.44H26.76V77.52ZM45.1184 76.84H58.0384V82.36H47.8584V85.18H45.1584V80.38H55.3384V78.96H45.1184V76.84ZM45.1584 83.88H58.4984V85.98H45.1584V83.88ZM43.1984 87.34H59.9784V89.48H43.1984V87.34ZM50.2184 88.12H52.8784V94.82H50.2184V88.12ZM63.9969 81.9H76.2769V83.26H63.9969V81.9ZM61.7769 85.68H78.1769V87.04H61.7769V85.68ZM63.9969 77.14H65.6369V82.58H63.9969V77.14ZM63.8769 92.76H76.3769V94.12H63.8769V92.76ZM63.8769 88.84H65.5169V93.12H63.8769V88.84ZM92.7283 78.26H94.1683V79.02C94.1683 82.26 90.7283 84.64 87.0883 85.26L86.4483 83.94C89.6283 83.48 92.7283 81.4 92.7283 79.02V78.26ZM93.1483 78.26H94.5683V79.02C94.5683 81.4 97.6883 83.48 100.848 83.94L100.228 85.26C96.5683 84.64 93.1483 82.26 93.1483 79.02V78.26ZM92.7883 87.66H94.4283V94.56H92.7883V87.66ZM85.4883 86.78H101.828V88.14H85.4883V86.78ZM87.0083 77.6H100.248V78.94H87.0083V77.6ZM108.347 79.06H109.667V82C109.667 85.76 107.367 89.64 104.547 91.08L103.587 89.76C106.167 88.5 108.347 85.06 108.347 82V79.06ZM108.647 79.06H109.967V82C109.967 84.86 112.007 88.08 114.627 89.32L113.687 90.64C110.827 89.22 108.647 85.58 108.647 82V79.06ZM104.227 78.32H113.967V79.72H104.227V78.32ZM116.107 76.48H117.787V94.56H116.107V76.48ZM117.387 83.78H120.747V85.18H117.387V83.78ZM134.505 76.46H136.185V94.56H134.505V76.46ZM135.725 83.8H139.065V85.18H135.725V83.8ZM129.885 78.42H131.505C131.505 83.56 129.145 88.2 123.305 91.14L122.385 89.86C127.385 87.32 129.885 83.46 129.885 78.68V78.42ZM123.225 78.42H130.745V79.78H123.225V78.42ZM153.277 77.12H154.737V78.12C154.737 81.58 151.217 84.06 147.457 84.7L146.797 83.36C150.097 82.86 153.277 80.7 153.277 78.12V77.12ZM153.577 77.12H155.017V78.12C155.017 80.64 158.237 82.86 161.497 83.36L160.837 84.7C157.117 84.06 153.577 81.54 153.577 78.12V77.12ZM153.277 87.68H154.917V94.56H153.277V87.68ZM145.977 86.66H162.317V88.04H145.977V86.66ZM177.495 76.46H179.155V94.58H177.495V76.46ZM165.395 78H167.035V82.78H172.255V78H173.915V90.22H165.395V78ZM167.035 84.1V88.86H172.255V84.1H167.035ZM189.106 84.84H190.566C194.466 84.84 196.606 84.76 199.146 84.32L199.326 85.64C196.706 86.1 194.506 86.16 190.566 86.16H189.106V84.84ZM189.106 77.58H197.706V78.92H190.746V85.52H189.106V77.58ZM190.206 81.14H197.206V82.48H190.206V81.14ZM201.206 76.5H202.886V87.26H201.206V76.5ZM191.206 88.16H202.886V94.32H191.206V88.16ZM201.246 89.5H192.826V92.98H201.246V89.5ZM212.325 77.78C215.145 77.78 217.165 79.52 217.165 82.04C217.165 84.58 215.145 86.32 212.325 86.32C209.505 86.32 207.465 84.58 207.465 82.04C207.465 79.52 209.505 77.78 212.325 77.78ZM212.325 79.22C210.445 79.22 209.085 80.36 209.085 82.04C209.085 83.72 210.445 84.88 212.325 84.88C214.185 84.88 215.545 83.72 215.545 82.04C215.545 80.36 214.185 79.22 212.325 79.22ZM219.525 76.46H221.185V94.58H219.525V76.46ZM206.785 90.62L206.545 89.24C209.845 89.24 214.405 89.22 218.345 88.6L218.485 89.82C214.425 90.6 210.005 90.62 206.785 90.62ZM230.136 79.36H240.796V80.74H230.136V79.36ZM235.476 82.22C237.916 82.22 239.716 83.94 239.716 86.38C239.716 88.8 237.916 90.54 235.476 90.54C233.056 90.54 231.236 88.8 231.236 86.38C231.236 83.94 233.056 82.22 235.476 82.22ZM235.476 83.62C233.936 83.62 232.776 84.76 232.776 86.38C232.776 87.98 233.936 89.12 235.476 89.12C237.036 89.12 238.196 87.98 238.196 86.38C238.196 84.76 237.036 83.62 235.476 83.62ZM234.656 76.7H236.316V80.02H234.656V76.7ZM243.396 76.48H245.036V94.56H243.396V76.48ZM240.436 84.04H244.616V85.42H240.436V84.04ZM258.195 81H262.215V82.38H258.195V81ZM261.755 76.48H263.415V87.06H261.755V76.48ZM251.695 87.94H263.415V94.32H251.695V87.94ZM261.795 89.26H253.315V92.98H261.795V89.26ZM253.155 78.2H254.515V79.66C254.515 82.96 252.475 85.78 249.455 86.9L248.595 85.58C251.295 84.62 253.155 82.22 253.155 79.66V78.2ZM253.475 78.2H254.815V79.64C254.815 81.98 256.575 84.24 259.195 85.16L258.355 86.48C255.415 85.42 253.475 82.68 253.475 79.64V78.2ZM249.115 77.64H258.775V78.98H249.115V77.64ZM275.113 76.78C279.093 76.78 281.473 77.9 281.473 79.92C281.473 81.94 279.093 83.06 275.113 83.06C271.113 83.06 268.753 81.94 268.753 79.92C268.753 77.9 271.113 76.78 275.113 76.78ZM275.113 78.04C272.153 78.04 270.453 78.72 270.453 79.92C270.453 81.12 272.153 81.8 275.113 81.8C278.053 81.8 279.753 81.12 279.753 79.92C279.753 78.72 278.053 78.04 275.113 78.04ZM266.933 84.26H283.273V85.6H266.933V84.26ZM268.913 87.14H281.193V91.22H270.593V93.42H268.953V90.02H279.553V88.42H268.913V87.14ZM268.953 93.06H281.733V94.36H268.953V93.06ZM303.765 76.46H305.425V94.58H303.765V76.46ZM295.885 77.86C298.565 77.86 300.485 80.32 300.485 84.16C300.485 88.02 298.565 90.48 295.885 90.48C293.225 90.48 291.305 88.02 291.305 84.16C291.305 80.32 293.225 77.86 295.885 77.86ZM295.885 79.36C294.125 79.36 292.885 81.24 292.885 84.16C292.885 87.1 294.125 89.02 295.885 89.02C297.665 89.02 298.885 87.1 298.885 84.16C298.885 81.24 297.665 79.36 295.885 79.36ZM313.063 82.6H314.703V86.02H313.063V82.6ZM319.703 82.6H321.343V86.02H319.703V82.6ZM309.023 85.42H325.363V86.76H309.023V85.42ZM317.183 88.12C321.063 88.12 323.383 89.26 323.383 91.32C323.383 93.38 321.063 94.54 317.183 94.54C313.303 94.54 310.983 93.38 310.983 91.32C310.983 89.26 313.303 88.12 317.183 88.12ZM317.183 89.4C314.363 89.4 312.663 90.1 312.663 91.32C312.663 92.56 314.363 93.24 317.183 93.24C320.023 93.24 321.703 92.56 321.703 91.32C321.703 90.1 320.023 89.4 317.183 89.4ZM317.203 76.8C321.123 76.8 323.563 78.06 323.563 80.18C323.563 82.28 321.123 83.52 317.203 83.52C313.263 83.52 310.843 82.28 310.843 80.18C310.843 78.06 313.263 76.8 317.203 76.8ZM317.203 78.1C314.323 78.1 312.543 78.86 312.543 80.18C312.543 81.48 314.323 82.24 317.203 82.24C320.083 82.24 321.863 81.48 321.863 80.18C321.863 78.86 320.083 78.1 317.203 78.1ZM327.401 79.56H336.361V80.92H327.401V79.56ZM331.881 82.12C334.141 82.12 335.781 83.82 335.781 86.26C335.781 88.68 334.141 90.38 331.881 90.38C329.641 90.38 328.001 88.68 328.001 86.26C328.001 83.82 329.641 82.12 331.881 82.12ZM331.881 83.54C330.501 83.54 329.501 84.66 329.501 86.26C329.501 87.86 330.501 88.98 331.881 88.98C333.281 88.98 334.301 87.86 334.301 86.26C334.301 84.66 333.281 83.54 331.881 83.54ZM341.141 76.48H342.741V94.56H341.141V76.48ZM338.261 84.08H341.681V85.46H338.261V84.08ZM337.281 76.88H338.841V93.68H337.281V76.88ZM331.081 77H332.721V80.4H331.081V77ZM363.353 76.46H365.033V94.58H363.353V76.46ZM364.633 83.6H367.993V85H364.633V83.6ZM351.893 88.68H353.313C356.653 88.68 358.993 88.56 361.693 88.06L361.873 89.46C359.093 89.98 356.713 90.08 353.313 90.08H351.893V88.68ZM351.893 78.22H360.293V79.58H353.533V89.3H351.893V78.22ZM377.691 76.88C381.591 76.88 384.051 78.16 384.051 80.3C384.051 82.44 381.591 83.7 377.691 83.7C373.771 83.7 371.331 82.44 371.331 80.3C371.331 78.16 373.771 76.88 377.691 76.88ZM377.691 78.2C374.811 78.2 373.031 78.96 373.031 80.3C373.031 81.62 374.811 82.4 377.691 82.4C380.551 82.4 382.351 81.62 382.351 80.3C382.351 78.96 380.551 78.2 377.691 78.2ZM371.511 88.36H383.851V94.32H371.511V88.36ZM382.231 89.7H373.151V92.98H382.231V89.7ZM369.511 85.26H385.851V86.6H369.511V85.26ZM393.863 78.26H395.443V82.66H399.243V78.26H400.783V90.02H393.863V78.26ZM395.443 84V88.66H399.243V84H395.443ZM406.983 76.48H408.583V94.56H406.983V76.48ZM400.503 83.34H403.983V84.72H400.503V83.34ZM403.403 76.86H404.983V93.66H403.403V76.86ZM424.741 76.46H426.401V94.58H424.741V76.46ZM416.861 77.86C419.541 77.86 421.461 80.32 421.461 84.16C421.461 88.02 419.541 90.48 416.861 90.48C414.201 90.48 412.281 88.02 412.281 84.16C412.281 80.32 414.201 77.86 416.861 77.86ZM416.861 79.36C415.101 79.36 413.861 81.24 413.861 84.16C413.861 87.1 415.101 89.02 416.861 89.02C418.641 89.02 419.861 87.1 419.861 84.16C419.861 81.24 418.641 79.36 416.861 79.36ZM437.26 77.72H438.7V79.1C438.7 83.04 435.04 86.1 431.42 86.92L430.68 85.54C433.86 84.94 437.26 82.18 437.26 79.1V77.72ZM437.56 77.72H439V79.1C439 82.2 442.42 84.94 445.58 85.54L444.84 86.92C441.24 86.1 437.56 83.06 437.56 79.1V77.72ZM430.02 90.76H446.4V92.12H430.02V90.76ZM448.418 90.96H464.798V92.34H448.418V90.96ZM455.738 87.08H457.398V91.54H455.738V87.08ZM450.398 77.82H462.778V83.3H452.098V86.92H450.458V81.96H461.138V79.16H450.398V77.82ZM450.458 86.22H463.198V87.58H450.458V86.22ZM484.329 76.46H486.009V94.56H484.329V76.46ZM485.549 83.8H488.889V85.18H485.549V83.8ZM479.709 78.42H481.329C481.329 83.56 478.969 88.2 473.129 91.14L472.209 89.86C477.209 87.32 479.709 83.46 479.709 78.68V78.42ZM473.049 78.42H480.569V79.78H473.049V78.42ZM492.708 81.9H504.988V83.26H492.708V81.9ZM490.488 85.68H506.888V87.04H490.488V85.68ZM492.708 77.14H494.348V82.58H492.708V77.14ZM492.588 92.76H505.088V94.12H492.588V92.76ZM492.588 88.84H494.228V93.12H492.588V88.84ZM527.399 76.48H529.059V88.72H527.399V76.48ZM523.519 81.58H527.739V82.94H523.519V81.58ZM521.719 77.9H523.459C523.459 82.58 520.379 85.9 515.199 87.58L514.499 86.26C519.079 84.82 521.719 82.1 521.719 78.56V77.9ZM515.359 77.9H522.899V79.26H515.359V77.9ZM522.399 87.16H523.819V87.98C523.819 91.44 520.659 93.78 517.039 94.52L516.379 93.2C519.579 92.62 522.399 90.62 522.399 87.98V87.16ZM522.639 87.16H524.059V87.98C524.059 90.58 526.839 92.58 530.059 93.16L529.359 94.48C525.759 93.76 522.639 91.42 522.639 87.98V87.16ZM33.16 100.78C37.14 100.78 39.52 101.9 39.52 103.92C39.52 105.94 37.14 107.06 33.16 107.06C29.16 107.06 26.8 105.94 26.8 103.92C26.8 101.9 29.16 100.78 33.16 100.78ZM33.16 102.04C30.2 102.04 28.5 102.72 28.5 103.92C28.5 105.12 30.2 105.8 33.16 105.8C36.1 105.8 37.8 105.12 37.8 103.92C37.8 102.72 36.1 102.04 33.16 102.04ZM24.98 108.26H41.32V109.6H24.98V108.26ZM26.96 111.14H39.24V115.22H28.64V117.42H27V114.02H37.6V112.42H26.96V111.14ZM27 117.06H39.78V118.36H27V117.06ZM61.0514 100.48H62.7114V109.68H61.0514V100.48ZM61.9914 104.36H65.3714V105.74H61.9914V104.36ZM49.4314 101.5H57.7314V108.74H49.4314V101.5ZM56.1114 102.82H51.0514V107.42H56.1114V102.82ZM51.2314 110.54H62.7114V114.98H52.9114V117.68H51.2714V113.72H61.0914V111.86H51.2314V110.54ZM51.2714 116.98H63.3714V118.32H51.2714V116.98ZM79.4498 100.48H81.1098V110.98H79.4498V100.48ZM80.3898 105.08H83.7898V106.48H80.3898V105.08ZM69.7498 111.78H71.3698V113.7H79.4698V111.78H81.1098V118.32H69.7498V111.78ZM71.3698 114.98V116.98H79.4698V114.98H71.3698ZM67.1298 102.32H77.8098V103.68H67.1298V102.32ZM72.4698 104.5C75.0498 104.5 76.7898 105.76 76.7898 107.68C76.7898 109.6 75.0498 110.86 72.4698 110.86C69.8698 110.86 68.1298 109.6 68.1298 107.68C68.1298 105.76 69.8698 104.5 72.4698 104.5ZM72.4698 105.76C70.8098 105.76 69.7098 106.52 69.7098 107.68C69.7098 108.84 70.8098 109.6 72.4698 109.6C74.0898 109.6 75.2098 108.84 75.2098 107.68C75.2098 106.52 74.0898 105.76 72.4698 105.76ZM71.6298 100.3H73.2898V103.06H71.6298V100.3ZM98.6283 100.48H100.288V118.56H98.6283V100.48ZM86.6283 102.24H88.2683V113.44H86.6283V102.24ZM86.6283 112.46H88.1083C90.8483 112.46 93.7083 112.26 96.7683 111.62L96.9683 113.04C93.8283 113.68 90.9683 113.9 88.1083 113.9H86.6283V112.46ZM116.107 100.46H117.787V118.58H116.107V100.46ZM117.387 107.6H120.747V109H117.387V107.6ZM104.647 112.68H106.067C109.407 112.68 111.747 112.56 114.447 112.06L114.627 113.46C111.847 113.98 109.467 114.08 106.067 114.08H104.647V112.68ZM104.647 102.22H113.047V103.58H106.287V113.3H104.647V102.22ZM124.112 117.135C123.724 117.135 123.39 116.998 123.11 116.723C122.831 116.444 122.691 116.107 122.691 115.714C122.691 115.326 122.831 114.995 123.11 114.72C123.39 114.441 123.724 114.301 124.112 114.301C124.5 114.301 124.834 114.441 125.113 114.72C125.393 114.995 125.532 115.326 125.532 115.714C125.532 115.975 125.466 116.214 125.333 116.432C125.206 116.645 125.035 116.815 124.822 116.943C124.609 117.071 124.372 117.135 124.112 117.135ZM133.606 117V102.455H135.8V109.401H135.978L142.079 102.455H144.842L138.975 109.003L144.863 117H142.221L137.519 110.501L135.8 112.476V117H133.606ZM146.887 117V102.455H152.214C153.246 102.455 154.101 102.625 154.778 102.966C155.455 103.302 155.961 103.759 156.298 104.337C156.634 104.91 156.802 105.556 156.802 106.276C156.802 106.882 156.691 107.393 156.468 107.81C156.246 108.222 155.947 108.553 155.573 108.804C155.204 109.05 154.797 109.23 154.352 109.344V109.486C154.835 109.509 155.306 109.666 155.765 109.955C156.229 110.239 156.612 110.643 156.915 111.169C157.219 111.695 157.37 112.334 157.37 113.087C157.37 113.83 157.195 114.498 156.844 115.089C156.499 115.677 155.964 116.143 155.239 116.489C154.515 116.83 153.589 117 152.462 117H146.887ZM149.082 115.118H152.249C153.3 115.118 154.053 114.914 154.508 114.507C154.962 114.1 155.19 113.591 155.19 112.98C155.19 112.521 155.074 112.099 154.842 111.716C154.61 111.332 154.278 111.027 153.847 110.8C153.421 110.572 152.915 110.459 152.327 110.459H149.082V115.118ZM149.082 108.747H152.022C152.514 108.747 152.957 108.652 153.35 108.463C153.748 108.274 154.063 108.009 154.295 107.668C154.531 107.322 154.65 106.915 154.65 106.446C154.65 105.845 154.439 105.34 154.018 104.933C153.596 104.526 152.95 104.322 152.079 104.322H149.082V108.747ZM172.608 109.727C172.608 111.28 172.324 112.616 171.756 113.733C171.188 114.846 170.409 115.703 169.419 116.304C168.434 116.901 167.314 117.199 166.06 117.199C164.8 117.199 163.676 116.901 162.686 116.304C161.701 115.703 160.925 114.843 160.357 113.726C159.788 112.608 159.504 111.276 159.504 109.727C159.504 108.174 159.788 106.841 160.357 105.729C160.925 104.611 161.701 103.754 162.686 103.158C163.676 102.556 164.8 102.256 166.06 102.256C167.314 102.256 168.434 102.556 169.419 103.158C170.409 103.754 171.188 104.611 171.756 105.729C172.324 106.841 172.608 108.174 172.608 109.727ZM170.435 109.727C170.435 108.544 170.243 107.547 169.859 106.737C169.481 105.923 168.96 105.307 168.297 104.891C167.639 104.469 166.893 104.259 166.06 104.259C165.222 104.259 164.473 104.469 163.815 104.891C163.157 105.307 162.636 105.923 162.253 106.737C161.874 107.547 161.685 108.544 161.685 109.727C161.685 110.911 161.874 111.91 162.253 112.724C162.636 113.534 163.157 114.15 163.815 114.571C164.473 114.988 165.222 115.196 166.06 115.196C166.893 115.196 167.639 114.988 168.297 114.571C168.96 114.15 169.481 113.534 169.859 112.724C170.243 111.91 170.435 110.911 170.435 109.727ZM180.606 101.78C183.426 101.78 185.446 103.52 185.446 106.04C185.446 108.58 183.426 110.32 180.606 110.32C177.786 110.32 175.746 108.58 175.746 106.04C175.746 103.52 177.786 101.78 180.606 101.78ZM180.606 103.22C178.726 103.22 177.366 104.36 177.366 106.04C177.366 107.72 178.726 108.88 180.606 108.88C182.466 108.88 183.826 107.72 183.826 106.04C183.826 104.36 182.466 103.22 180.606 103.22ZM187.806 100.46H189.466V118.58H187.806V100.46ZM175.066 114.62L174.826 113.24C178.126 113.24 182.686 113.22 186.626 112.6L186.766 113.82C182.706 114.6 178.286 114.62 175.066 114.62ZM198.418 110.06H214.758V111.4H198.418V110.06ZM205.758 107.72H207.398V110.62H205.758V107.72ZM200.578 106.98H212.838V108.28H200.578V106.98ZM200.578 101H212.758V102.3H202.218V107.68H200.578V101ZM201.738 103.96H212.278V105.24H201.738V103.96ZM206.578 112.74C210.518 112.74 212.778 113.74 212.778 115.64C212.778 117.52 210.518 118.52 206.578 118.52C202.638 118.52 200.377 117.52 200.377 115.64C200.377 113.74 202.638 112.74 206.578 112.74ZM206.578 114C203.678 114 202.058 114.58 202.058 115.64C202.058 116.72 203.678 117.28 206.578 117.28C209.478 117.28 211.098 116.72 211.098 115.64C211.098 114.58 209.478 114 206.578 114ZM221.276 101.58H222.636V103.8C222.636 107.34 220.676 110.16 217.636 111.34L216.756 110.02C219.516 109.04 221.276 106.6 221.276 103.8V101.58ZM221.556 101.58H222.916V103.86C222.916 106.32 224.716 108.64 227.356 109.58L226.536 110.88C223.556 109.8 221.556 107.04 221.556 103.86V101.58ZM229.196 100.46H230.856V113.82H229.196V100.46ZM230.336 106.02H233.536V107.4H230.336V106.02ZM219.636 116.8H231.656V118.16H219.636V116.8ZM219.636 112.56H221.296V117.46H219.636V112.56ZM242.587 108.92H255.007V110.28H242.587V108.92ZM240.527 114.9H256.907V116.3H240.527V114.9ZM247.847 109.5H249.507V115.46H247.847V109.5ZM242.587 101.92H254.827V103.28H244.247V109.52H242.587V101.92ZM260.866 101.2H273.306V105.92H262.586V109.04H260.906V104.64H271.646V102.54H260.866V101.2ZM260.906 108.22H273.726V109.58H260.906V108.22ZM258.906 111.44H275.306V112.82H258.906V111.44ZM266.246 111.96H267.886V118.58H266.246V111.96ZM288.535 102.455V117H286.333V104.656H286.248L282.768 106.929V104.827L286.397 102.455H288.535ZM297.97 101.32C300.67 101.32 302.59 102.82 302.59 105.04C302.59 107.24 300.67 108.78 297.97 108.78C295.29 108.78 293.37 107.24 293.37 105.04C293.37 102.82 295.29 101.32 297.97 101.32ZM297.97 102.7C296.21 102.7 294.95 103.66 294.95 105.04C294.95 106.44 296.21 107.38 297.97 107.38C299.73 107.38 300.99 106.44 300.99 105.04C300.99 103.66 299.73 102.7 297.97 102.7ZM297.23 110.78H298.89V118H297.23V110.78ZM305.23 100.48H306.87V118.58H305.23V100.48ZM292.25 111.68L292.03 110.28C295.39 110.28 299.97 110.24 303.95 109.64L304.07 110.88C299.99 111.62 295.55 111.68 292.25 111.68ZM312.669 105.9H324.949V107.26H312.669V105.9ZM310.449 109.68H326.849V111.04H310.449V109.68ZM312.669 101.14H314.309V106.58H312.669V101.14ZM312.549 116.76H325.049V118.12H312.549V116.76ZM312.549 112.84H314.189V117.12H312.549V112.84ZM343.74 105.46H348.3V106.82H343.74V105.46ZM347.36 100.5H349.02V113.74H347.36V100.5ZM337.48 116.8H349.52V118.16H337.48V116.8ZM337.48 112.58H339.14V117.5H337.48V112.58ZM338.76 102.74H340.12V104.2C340.12 107.48 338.08 110.32 335.06 111.44L334.2 110.12C336.9 109.16 338.76 106.76 338.76 104.2V102.74ZM339.08 102.74H340.42V104.18C340.42 106.52 342.18 108.8 344.8 109.72L343.96 111.02C341.02 109.96 339.08 107.24 339.08 104.18V102.74ZM334.72 101.96H344.38V103.3H334.72V101.96ZM359.639 102.18H361.119V102.72C361.119 105.78 357.859 107.92 354.159 108.48L353.539 107.14C356.739 106.72 359.639 104.92 359.639 102.72V102.18ZM360.339 102.18H361.799V102.72C361.799 104.92 364.719 106.72 367.919 107.14L367.279 108.48C363.599 107.92 360.339 105.78 360.339 102.72V102.18ZM354.039 101.38H367.419V102.72H354.039V101.38ZM352.539 109.78H368.919V111.14H352.539V109.78ZM360.019 110.62H361.679V114.78H360.019V110.62ZM354.619 116.8H367.099V118.16H354.619V116.8ZM354.619 113.04H356.259V117.32H354.619V113.04ZM371.757 103.12H386.437V104.48H371.757V103.12ZM370.957 115.08H387.337V116.46H370.957V115.08ZM378.297 112.22H379.937V115.62H378.297V112.22ZM379.097 105.7C382.757 105.7 385.017 106.96 385.017 109.14C385.017 111.32 382.757 112.58 379.097 112.58C375.457 112.58 373.197 111.32 373.197 109.14C373.197 106.96 375.457 105.7 379.097 105.7ZM379.097 107C376.477 107 374.857 107.8 374.857 109.14C374.857 110.48 376.477 111.26 379.097 111.26C381.737 111.26 383.337 110.48 383.337 109.14C383.337 107.8 381.737 107 379.097 107ZM378.297 100.78H379.937V103.96H378.297V100.78ZM389.355 114.96H405.735V116.34H389.355V114.96ZM396.675 111.08H398.335V115.54H396.675V111.08ZM391.335 101.82H403.715V107.3H393.035V110.92H391.395V105.96H402.075V103.16H391.335V101.82ZM391.395 110.22H404.135V111.58H391.395V110.22ZM418.964 102.455V117H416.763V104.656H416.678L413.197 106.929V104.827L416.827 102.455H418.964ZM427.736 102.256C428.384 102.26 429.024 102.379 429.653 102.611C430.283 102.843 430.851 103.222 431.358 103.747C431.869 104.273 432.277 104.983 432.58 105.878C432.887 106.768 433.044 107.876 433.048 109.202C433.048 110.475 432.92 111.609 432.665 112.604C432.409 113.593 432.042 114.429 431.564 115.111C431.09 115.793 430.515 116.311 429.838 116.666C429.161 117.021 428.399 117.199 427.551 117.199C426.685 117.199 425.915 117.028 425.243 116.688C424.571 116.347 424.024 115.875 423.602 115.274C423.181 114.668 422.918 113.972 422.814 113.186H424.98C425.122 113.811 425.411 114.318 425.847 114.706C426.287 115.089 426.855 115.281 427.551 115.281C428.616 115.281 429.447 114.817 430.044 113.889C430.641 112.956 430.941 111.654 430.946 109.983H430.832C430.586 110.39 430.278 110.741 429.909 111.034C429.545 111.328 429.135 111.555 428.68 111.716C428.226 111.877 427.741 111.957 427.224 111.957C426.386 111.957 425.624 111.751 424.938 111.339C424.251 110.928 423.704 110.362 423.297 109.642C422.89 108.922 422.686 108.101 422.686 107.178C422.686 106.259 422.894 105.426 423.311 104.678C423.732 103.929 424.32 103.338 425.072 102.902C425.83 102.462 426.718 102.246 427.736 102.256ZM427.743 104.102C427.189 104.102 426.689 104.24 426.244 104.514C425.804 104.784 425.456 105.151 425.2 105.615C424.945 106.074 424.817 106.586 424.817 107.149C424.817 107.713 424.94 108.224 425.186 108.683C425.437 109.138 425.778 109.5 426.209 109.77C426.644 110.035 427.142 110.168 427.7 110.168C428.117 110.168 428.505 110.087 428.865 109.926C429.225 109.765 429.54 109.543 429.81 109.259C430.08 108.97 430.29 108.643 430.442 108.278C430.593 107.914 430.669 107.53 430.669 107.128C430.669 106.593 430.541 106.096 430.286 105.636C430.035 105.177 429.689 104.808 429.249 104.528C428.808 104.244 428.306 104.102 427.743 104.102ZM440.451 102.256C441.099 102.26 441.739 102.379 442.368 102.611C442.998 102.843 443.566 103.222 444.073 103.747C444.584 104.273 444.991 104.983 445.294 105.878C445.602 106.768 445.758 107.876 445.763 109.202C445.763 110.475 445.635 111.609 445.38 112.604C445.124 113.593 444.757 114.429 444.279 115.111C443.805 115.793 443.23 116.311 442.553 116.666C441.876 117.021 441.114 117.199 440.266 117.199C439.4 117.199 438.63 117.028 437.958 116.688C437.285 116.347 436.739 115.875 436.317 115.274C435.896 114.668 435.633 113.972 435.529 113.186H437.695C437.837 113.811 438.126 114.318 438.561 114.706C439.002 115.089 439.57 115.281 440.266 115.281C441.331 115.281 442.162 114.817 442.759 113.889C443.355 112.956 443.656 111.654 443.661 109.983H443.547C443.301 110.39 442.993 110.741 442.624 111.034C442.259 111.328 441.85 111.555 441.395 111.716C440.941 111.877 440.455 111.957 439.939 111.957C439.101 111.957 438.339 111.751 437.652 111.339C436.966 110.928 436.419 110.362 436.012 109.642C435.605 108.922 435.401 108.101 435.401 107.178C435.401 106.259 435.609 105.426 436.026 104.678C436.447 103.929 437.034 103.338 437.787 102.902C438.545 102.462 439.433 102.246 440.451 102.256ZM440.458 104.102C439.904 104.102 439.404 104.24 438.959 104.514C438.519 104.784 438.171 105.151 437.915 105.615C437.659 106.074 437.532 106.586 437.532 107.149C437.532 107.713 437.655 108.224 437.901 108.683C438.152 109.138 438.493 109.5 438.924 109.77C439.359 110.035 439.856 110.168 440.415 110.168C440.832 110.168 441.22 110.087 441.58 109.926C441.94 109.765 442.255 109.543 442.525 109.259C442.794 108.97 443.005 108.643 443.157 108.278C443.308 107.914 443.384 107.53 443.384 107.128C443.384 106.593 443.256 106.096 443 105.636C442.749 105.177 442.404 104.808 441.963 104.528C441.523 104.244 441.021 104.102 440.458 104.102ZM453.847 102.455V117H451.646V104.656H451.56L448.08 106.929V104.827L451.71 102.455H453.847ZM457.988 111.332C457.969 110.513 458.09 109.841 458.35 109.315C458.615 108.79 458.97 108.402 459.415 108.151C459.861 107.895 460.351 107.767 460.886 107.767C461.359 107.767 461.797 107.869 462.2 108.072C462.602 108.271 463.061 108.598 463.577 109.053C463.899 109.332 464.162 109.536 464.366 109.663C464.569 109.786 464.797 109.848 465.048 109.848C465.431 109.848 465.737 109.706 465.964 109.422C466.196 109.133 466.307 108.707 466.298 108.143H468.094C468.113 108.967 467.99 109.642 467.725 110.168C467.465 110.693 467.11 111.081 466.66 111.332C466.215 111.583 465.727 111.709 465.197 111.709C464.719 111.709 464.278 111.607 463.876 111.403C463.473 111.195 463.016 110.868 462.505 110.423C462.174 110.134 461.908 109.931 461.71 109.812C461.511 109.689 461.286 109.628 461.035 109.628C460.67 109.628 460.367 109.76 460.126 110.026C459.889 110.286 459.775 110.722 459.785 111.332H457.988ZM470.516 117V115.409L475.438 110.31C475.964 109.756 476.397 109.27 476.738 108.854C477.084 108.432 477.342 108.032 477.512 107.653C477.683 107.275 477.768 106.872 477.768 106.446C477.768 105.963 477.654 105.546 477.427 105.196C477.2 104.841 476.889 104.569 476.496 104.379C476.103 104.185 475.661 104.088 475.168 104.088C474.647 104.088 474.193 104.195 473.805 104.408C473.416 104.621 473.118 104.921 472.91 105.31C472.701 105.698 472.597 106.152 472.597 106.673H470.502C470.502 105.788 470.706 105.014 471.113 104.351C471.52 103.688 472.079 103.174 472.789 102.81C473.499 102.44 474.307 102.256 475.211 102.256C476.125 102.256 476.93 102.438 477.626 102.803C478.326 103.162 478.873 103.655 479.266 104.28C479.659 104.9 479.856 105.601 479.856 106.382C479.856 106.922 479.754 107.45 479.55 107.966C479.352 108.482 479.004 109.057 478.506 109.692C478.009 110.321 477.318 111.086 476.433 111.986L473.542 115.011V115.118H480.09V117H470.516ZM487.846 117.241C486.724 117.237 485.765 116.941 484.969 116.354C484.174 115.767 483.566 114.912 483.144 113.79C482.723 112.668 482.512 111.316 482.512 109.734C482.512 108.158 482.723 106.811 483.144 105.693C483.57 104.576 484.181 103.723 484.977 103.136C485.777 102.549 486.733 102.256 487.846 102.256C488.959 102.256 489.913 102.552 490.708 103.143C491.504 103.731 492.112 104.583 492.533 105.7C492.96 106.813 493.173 108.158 493.173 109.734C493.173 111.321 492.962 112.675 492.54 113.797C492.119 114.914 491.511 115.769 490.715 116.361C489.92 116.948 488.963 117.241 487.846 117.241ZM487.846 115.345C488.831 115.345 489.6 114.865 490.154 113.903C490.713 112.942 490.992 111.553 490.992 109.734C490.992 108.527 490.864 107.507 490.609 106.673C490.358 105.835 489.996 105.201 489.522 104.77C489.053 104.334 488.495 104.116 487.846 104.116C486.866 104.116 486.096 104.599 485.538 105.565C484.979 106.531 484.697 107.921 484.692 109.734C484.692 110.946 484.818 111.972 485.069 112.81C485.325 113.643 485.687 114.275 486.156 114.706C486.624 115.132 487.188 115.345 487.846 115.345ZM500.756 117.241C499.634 117.237 498.675 116.941 497.88 116.354C497.084 115.767 496.476 114.912 496.054 113.79C495.633 112.668 495.422 111.316 495.422 109.734C495.422 108.158 495.633 106.811 496.054 105.693C496.48 104.576 497.091 103.723 497.887 103.136C498.687 102.549 499.643 102.256 500.756 102.256C501.869 102.256 502.823 102.552 503.618 103.143C504.414 103.731 505.022 104.583 505.444 105.7C505.87 106.813 506.083 108.158 506.083 109.734C506.083 111.321 505.872 112.675 505.451 113.797C505.029 114.914 504.421 115.769 503.625 116.361C502.83 116.948 501.873 117.241 500.756 117.241ZM500.756 115.345C501.741 115.345 502.51 114.865 503.064 113.903C503.623 112.942 503.902 111.553 503.902 109.734C503.902 108.527 503.775 107.507 503.519 106.673C503.268 105.835 502.906 105.201 502.432 104.77C501.963 104.334 501.405 104.116 500.756 104.116C499.776 104.116 499.007 104.599 498.448 105.565C497.889 106.531 497.607 107.921 497.603 109.734C497.603 110.946 497.728 111.972 497.979 112.81C498.235 113.643 498.597 114.275 499.066 114.706C499.534 115.132 500.098 115.345 500.756 115.345ZM513.439 102.256C514.088 102.26 514.727 102.379 515.357 102.611C515.986 102.843 516.554 103.222 517.061 103.747C517.572 104.273 517.98 104.983 518.283 105.878C518.59 106.768 518.747 107.876 518.751 109.202C518.751 110.475 518.624 111.609 518.368 112.604C518.112 113.593 517.745 114.429 517.267 115.111C516.794 115.793 516.218 116.311 515.541 116.666C514.864 117.021 514.102 117.199 513.254 117.199C512.388 117.199 511.618 117.028 510.946 116.688C510.274 116.347 509.727 115.875 509.305 115.274C508.884 114.668 508.621 113.972 508.517 113.186H510.683C510.825 113.811 511.114 114.318 511.55 114.706C511.99 115.089 512.558 115.281 513.254 115.281C514.32 115.281 515.151 114.817 515.747 113.889C516.344 112.956 516.644 111.654 516.649 109.983H516.536C516.289 110.39 515.982 110.741 515.612 111.034C515.248 111.328 514.838 111.555 514.384 111.716C513.929 111.877 513.444 111.957 512.928 111.957C512.089 111.957 511.327 111.751 510.641 111.339C509.954 110.928 509.407 110.362 509 109.642C508.593 108.922 508.389 108.101 508.389 107.178C508.389 106.259 508.598 105.426 509.014 104.678C509.436 103.929 510.023 103.338 510.776 102.902C511.533 102.462 512.421 102.246 513.439 102.256ZM513.446 104.102C512.892 104.102 512.393 104.24 511.947 104.514C511.507 104.784 511.159 105.151 510.903 105.615C510.648 106.074 510.52 106.586 510.52 107.149C510.52 107.713 510.643 108.224 510.889 108.683C511.14 109.138 511.481 109.5 511.912 109.77C512.348 110.035 512.845 110.168 513.403 110.168C513.82 110.168 514.208 110.087 514.568 109.926C514.928 109.765 515.243 109.543 515.513 109.259C515.783 108.97 515.993 108.643 516.145 108.278C516.296 107.914 516.372 107.53 516.372 107.128C516.372 106.593 516.244 106.096 515.989 105.636C515.738 105.177 515.392 104.808 514.952 104.528C514.511 104.244 514.009 104.102 513.446 104.102ZM534.118 100.48H535.778V113.88H534.118V100.48ZM529.018 102.84H534.738V104.18H529.018V102.84ZM524.218 116.8H536.258V118.16H524.218V116.8ZM524.218 112.72H525.878V117.42H524.218V112.72ZM521.958 101.8H523.618V110.32H521.958V101.8ZM521.958 109.8H523.318C525.898 109.8 528.318 109.66 531.138 109.16L531.298 110.54C528.398 111.06 525.978 111.18 523.318 111.18H521.958V109.8ZM529.018 106.28H534.738V107.64H529.018V106.28ZM25 133.38H41.34V134.74H25V133.38ZM32.34 130.48H33.98V133.94H32.34V130.48ZM27.06 129.96H39.44V131.32H27.06V129.96ZM27.06 125.3H39.3V126.64H28.7V130.76H27.06V125.3ZM33.14 136.04C37 136.04 39.34 137.22 39.34 139.28C39.34 141.38 37 142.54 33.14 142.54C29.28 142.54 26.94 141.38 26.94 139.28C26.94 137.22 29.28 136.04 33.14 136.04ZM33.14 137.32C30.32 137.32 28.62 138.04 28.62 139.28C28.62 140.54 30.32 141.24 33.14 141.24C35.98 141.24 37.66 140.54 37.66 139.28C37.66 138.04 35.98 137.32 33.14 137.32ZM55.7584 124.46H57.4184V137.78H55.7584V124.46ZM56.8984 129.96H60.0984V131.34H56.8984V129.96ZM46.1584 140.8H58.2384V142.16H46.1584V140.8ZM46.1584 136.42H47.8184V141.34H46.1584V136.42ZM48.4384 125.74C51.1384 125.74 53.1584 127.6 53.1584 130.2C53.1584 132.82 51.1384 134.66 48.4384 134.66C45.7384 134.66 43.7184 132.82 43.7184 130.2C43.7184 127.6 45.7384 125.74 48.4384 125.74ZM48.4384 127.2C46.6784 127.2 45.3384 128.44 45.3384 130.2C45.3384 131.98 46.6784 133.2 48.4384 133.2C50.1984 133.2 51.5384 131.98 51.5384 130.2C51.5384 128.44 50.1984 127.2 48.4384 127.2ZM67.0698 133.84H83.4098V135.18H67.0698V133.84ZM74.4298 131.62H76.0698V134.46H74.4298V131.62ZM74.4298 124.42H76.0698V126.94H74.4298V124.42ZM74.3498 127.1H75.8098V127.4C75.8098 130.36 72.4898 132.08 68.5298 132.48L68.0298 131.2C71.5298 130.9 74.3498 129.46 74.3498 127.4V127.1ZM74.6898 127.1H76.1498V127.4C76.1498 129.46 78.9698 130.9 82.4698 131.2L81.9698 132.48C78.0098 132.08 74.6898 130.36 74.6898 127.4V127.1ZM68.7498 126.24H81.7498V127.56H68.7498V126.24ZM75.2298 136.54C79.1298 136.54 81.4298 137.6 81.4298 139.54C81.4298 141.48 79.1298 142.52 75.2298 142.52C71.3298 142.52 69.0298 141.48 69.0298 139.54C69.0298 137.6 71.3298 136.54 75.2298 136.54ZM75.2298 137.8C72.3698 137.8 70.7098 138.4 70.7098 139.54C70.7098 140.64 72.3698 141.26 75.2298 141.26C78.0898 141.26 79.7498 140.64 79.7498 139.54C79.7498 138.4 78.0898 137.8 75.2298 137.8ZM95.9815 141.199C95.0914 141.199 94.2912 141.028 93.581 140.688C92.8755 140.342 92.312 139.868 91.8906 139.267C91.4692 138.666 91.2443 137.979 91.2159 137.207H93.3466C93.3987 137.832 93.6757 138.346 94.1776 138.749C94.6795 139.151 95.2808 139.352 95.9815 139.352C96.5402 139.352 97.035 139.224 97.4659 138.969C97.9015 138.708 98.2424 138.351 98.4886 137.896C98.7396 137.442 98.8651 136.923 98.8651 136.341C98.8651 135.749 98.7372 135.221 98.4815 134.757C98.2259 134.293 97.8731 133.929 97.4233 133.663C96.9782 133.398 96.4669 133.263 95.8892 133.259C95.4489 133.259 95.0062 133.334 94.5611 133.486C94.116 133.637 93.7562 133.836 93.4815 134.082L91.4716 133.784L92.2884 126.455H100.286V128.337H94.1136L93.652 132.406H93.7372C94.0213 132.132 94.3977 131.902 94.8665 131.717C95.34 131.533 95.8466 131.44 96.3864 131.44C97.2718 131.44 98.0601 131.651 98.7514 132.072C99.4474 132.494 99.9943 133.069 100.392 133.798C100.795 134.523 100.993 135.356 100.989 136.298C100.993 137.241 100.78 138.081 100.349 138.82C99.9233 139.558 99.3314 140.141 98.5739 140.567C97.821 140.988 96.9569 141.199 95.9815 141.199ZM103.277 138.159V136.384L109.563 126.455H110.962V129.068H110.074L105.578 136.185V136.298H114.194V138.159H103.277ZM110.174 141V137.619L110.188 136.81V126.455H112.269V141H110.174ZM121.505 126.256C122.154 126.26 122.793 126.379 123.423 126.611C124.053 126.843 124.621 127.222 125.127 127.747C125.639 128.273 126.046 128.983 126.349 129.878C126.657 130.768 126.813 131.876 126.818 133.202C126.818 134.475 126.69 135.609 126.434 136.604C126.179 137.593 125.812 138.429 125.333 139.111C124.86 139.793 124.285 140.311 123.608 140.666C122.931 141.021 122.168 141.199 121.321 141.199C120.454 141.199 119.685 141.028 119.012 140.688C118.34 140.347 117.793 139.875 117.372 139.274C116.95 138.668 116.688 137.972 116.583 137.186H118.75C118.892 137.811 119.181 138.318 119.616 138.706C120.056 139.089 120.625 139.281 121.321 139.281C122.386 139.281 123.217 138.817 123.814 137.889C124.41 136.956 124.711 135.654 124.716 133.983H124.602C124.356 134.39 124.048 134.741 123.679 135.034C123.314 135.328 122.904 135.555 122.45 135.716C121.995 135.877 121.51 135.957 120.994 135.957C120.156 135.957 119.394 135.751 118.707 135.339C118.02 134.928 117.474 134.362 117.066 133.642C116.659 132.922 116.456 132.101 116.456 131.178C116.456 130.259 116.664 129.426 117.081 128.678C117.502 127.929 118.089 127.338 118.842 126.902C119.6 126.462 120.487 126.246 121.505 126.256ZM121.512 128.102C120.958 128.102 120.459 128.24 120.014 128.514C119.574 128.784 119.225 129.151 118.97 129.615C118.714 130.074 118.586 130.586 118.586 131.149C118.586 131.713 118.709 132.224 118.956 132.683C119.207 133.138 119.547 133.5 119.978 133.77C120.414 134.035 120.911 134.168 121.47 134.168C121.886 134.168 122.275 134.087 122.635 133.926C122.994 133.765 123.309 133.543 123.579 133.259C123.849 132.97 124.06 132.643 124.211 132.278C124.363 131.914 124.439 131.53 124.439 131.128C124.439 130.593 124.311 130.096 124.055 129.636C123.804 129.177 123.458 128.808 123.018 128.528C122.578 128.244 122.076 128.102 121.512 128.102ZM137.504 129.58H142.704V130.94H137.504V129.58ZM142.184 124.5H143.844V137.88H142.184V124.5ZM132.224 140.8H144.284V142.16H132.224V140.8ZM132.224 136.58H133.884V141.5H132.224V136.58ZM129.864 125.68H131.504V128.88H136.404V125.68H138.024V134.8H129.864V125.68ZM131.504 130.18V133.44H136.404V130.18H131.504ZM153.243 125.78C156.063 125.78 158.083 127.52 158.083 130.04C158.083 132.58 156.063 134.32 153.243 134.32C150.423 134.32 148.383 132.58 148.383 130.04C148.383 127.52 150.423 125.78 153.243 125.78ZM153.243 127.22C151.363 127.22 150.003 128.36 150.003 130.04C150.003 131.72 151.363 132.88 153.243 132.88C155.103 132.88 156.463 131.72 156.463 130.04C156.463 128.36 155.103 127.22 153.243 127.22ZM160.443 124.46H162.103V142.58H160.443V124.46ZM147.703 138.62L147.463 137.24C150.763 137.24 155.323 137.22 159.263 136.6L159.403 137.82C155.343 138.6 150.923 138.62 147.703 138.62ZM173.134 132.92H185.554V134.28H173.134V132.92ZM171.074 138.9H187.454V140.3H171.074V138.9ZM178.394 133.5H180.054V139.46H178.394V133.5ZM173.134 125.92H185.374V127.28H174.794V133.52H173.134V125.92ZM191.413 125.2H203.853V129.92H193.133V133.04H191.453V128.64H202.193V126.54H191.413V125.2ZM191.453 132.22H204.273V133.58H191.453V132.22ZM189.453 135.44H205.853V136.82H189.453V135.44ZM196.793 135.96H198.433V142.58H196.793V135.96ZM207.851 132.88H224.251V134.14H207.851V132.88ZM209.791 135.6H222.191V139.46H211.491V141.58H209.851V138.32H220.571V136.78H209.791V135.6ZM209.851 141.14H222.771V142.34H209.851V141.14ZM209.931 125H222.131V128.76H211.611V130.72H209.971V127.64H220.511V126.18H209.931V125ZM209.971 130.32H222.471V131.52H209.971V130.32ZM243.803 124.48H245.463V142.56H243.803V124.48ZM245.063 131.9H248.423V133.3H245.063V131.9ZM231.463 127.36H242.123V128.72H231.463V127.36ZM236.863 130.22C239.423 130.22 241.263 131.94 241.263 134.38C241.263 136.82 239.423 138.54 236.863 138.54C234.323 138.54 232.463 136.82 232.463 134.38C232.463 131.94 234.323 130.22 236.863 130.22ZM236.863 131.6C235.223 131.6 234.043 132.74 234.043 134.38C234.043 136 235.223 137.16 236.863 137.16C238.503 137.16 239.683 136 239.683 134.38C239.683 132.74 238.503 131.6 236.863 131.6ZM236.003 124.7H237.663V127.98H236.003V124.7ZM258.201 127H263.841V128.34H258.201V127ZM258.201 131.04H263.841V132.42H258.201V131.04ZM254.561 135.36H255.861V136.56C255.861 138.96 254.381 141.36 251.781 142.36L250.941 141.12C253.221 140.28 254.561 138.32 254.561 136.56V135.36ZM254.941 135.36H256.181V136.56C256.181 138.4 257.241 140.38 259.421 141.26L258.721 142.52C256.101 141.5 254.941 138.98 254.941 136.56V135.36ZM261.261 135.36H262.481V136.56C262.481 138.7 261.301 141.42 258.721 142.52L258.001 141.26C260.161 140.26 261.261 138.14 261.261 136.56V135.36ZM261.581 135.36H262.881V136.56C262.881 138.46 264.201 140.34 266.521 141.12L265.661 142.36C263.041 141.4 261.581 139.08 261.581 136.56V135.36ZM254.881 125.46C257.541 125.46 259.521 127.22 259.521 129.72C259.521 132.24 257.541 134 254.881 134C252.221 134 250.261 132.24 250.261 129.72C250.261 127.22 252.221 125.46 254.881 125.46ZM254.881 126.86C253.121 126.86 251.821 128.04 251.821 129.72C251.821 131.4 253.121 132.6 254.881 132.6C256.641 132.6 257.921 131.4 257.921 129.72C257.921 128.04 256.641 126.86 254.881 126.86ZM263.161 124.48H264.821V134.78H263.161V124.48ZM270.419 135.32H272.059V137.42H280.899V135.32H282.559V142.32H270.419V135.32ZM272.059 138.7V140.98H280.899V138.7H272.059ZM268.339 132.72H284.679V134.06H268.339V132.72ZM275.679 124.68H277.099V125.48C277.099 128.62 273.599 130.88 269.879 131.44L269.279 130.14C272.539 129.7 275.679 127.76 275.679 125.48V124.68ZM275.939 124.68H277.359V125.48C277.359 127.72 280.539 129.7 283.759 130.14L283.139 131.44C279.459 130.88 275.939 128.58 275.939 125.48V124.68ZM299.898 124.48H301.558V142.56H299.898V124.48ZM287.898 126.24H289.538V137.44H287.898V126.24ZM287.898 136.46H289.378C292.118 136.46 294.978 136.26 298.038 135.62L298.238 137.04C295.098 137.68 292.238 137.9 289.378 137.9H287.898V136.46ZM317.376 124.46H319.056V142.58H317.376V124.46ZM318.656 131.6H322.016V133H318.656V131.6ZM305.916 136.68H307.336C310.676 136.68 313.016 136.56 315.716 136.06L315.896 137.46C313.116 137.98 310.736 138.08 307.336 138.08H305.916V136.68ZM305.916 126.22H314.316V127.58H307.556V137.3H305.916V126.22ZM325.381 141.135C324.993 141.135 324.659 140.998 324.38 140.723C324.101 140.444 323.961 140.107 323.961 139.714C323.961 139.326 324.101 138.995 324.38 138.72C324.659 138.441 324.993 138.301 325.381 138.301C325.77 138.301 326.103 138.441 326.383 138.72C326.662 138.995 326.802 139.326 326.802 139.714C326.802 139.975 326.736 140.214 326.603 140.432C326.475 140.645 326.305 140.815 326.092 140.943C325.879 141.071 325.642 141.135 325.381 141.135Z" fill="black"/>
<g clip-path="url(#clip0_1377_162)">
<path d="M213 53C222.941 53 231 44.9411 231 35C231 25.0589 222.941 17 213 17C203.059 17 195 25.0589 195 35C195 44.9411 203.059 53 213 53Z" fill="#E1E8ED"/>
<path d="M226.802 46.5462C223.792 45.2212 222 41.0482 222 35.0002C222 28.9522 223.792 24.7792 226.802 23.4542C226.356 22.9258 225.879 22.4237 225.374 21.9502C222.406 23.6052 220 27.5782 220 35.0002C220 42.4212 222.406 46.3952 225.374 48.0502C225.876 47.5732 226.358 47.0772 226.802 46.5462ZM206 35.0002C206 27.5792 203.594 23.6052 200.626 21.9512C200.122 22.4243 199.645 22.9262 199.198 23.4542C202.208 24.7802 204 28.9522 204 35.0002C204 41.0482 202.208 45.2202 199.198 46.5462C199.643 47.0772 200.124 47.5732 200.626 48.0502C203.593 46.3952 206 42.4212 206 35.0002Z" fill="#B3BEC4"/>
<path d="M200.092 27.164C199.855 27.164 199.635 27.144 199.441 27.108C199.18 27.0592 198.95 26.9088 198.8 26.69C198.726 26.5816 198.674 26.4597 198.646 26.3312C198.619 26.2027 198.618 26.0701 198.642 25.941C198.666 25.8119 198.716 25.6888 198.787 25.5788C198.859 25.4688 198.952 25.374 199.06 25.2998C199.279 25.15 199.548 25.0932 199.809 25.142C200.239 25.219 202.5 25.148 202.957 22.866C203.009 22.606 203.162 22.3773 203.383 22.2302C203.492 22.1574 203.615 22.1069 203.744 22.0814C203.873 22.056 204.005 22.0562 204.134 22.082C204.263 22.1078 204.385 22.1587 204.494 22.2318C204.603 22.3049 204.697 22.3988 204.77 22.5081C204.843 22.6174 204.893 22.74 204.919 22.8688C204.944 22.9977 204.944 23.1302 204.918 23.259C204.335 26.171 201.779 27.164 200.092 27.164ZM201.792 31.125C201.262 31.125 200.84 30.802 200.814 30.266C200.788 29.715 201.214 29.355 201.766 29.329C201.766 29.329 204.33 29.294 205.635 27.035C205.701 26.9219 205.789 26.823 205.894 26.744C205.998 26.665 206.117 26.6075 206.244 26.5748C206.371 26.5421 206.503 26.5348 206.633 26.5533C206.763 26.5719 206.887 26.616 207 26.683C207.478 26.959 207.642 27.577 207.365 28.056C205.514 31.262 201.808 31.125 201.792 31.125ZM204 36.282C203.266 36.282 202.586 36.147 202.072 35.904C201.832 35.7905 201.647 35.5864 201.558 35.3366C201.469 35.0868 201.483 34.8118 201.596 34.572C201.71 34.3322 201.914 34.1474 202.163 34.0581C202.413 33.9689 202.688 33.9825 202.928 34.096C203.758 34.489 205.854 34.335 206.658 33.084C206.729 32.9735 206.821 32.878 206.929 32.8031C207.037 32.7282 207.158 32.6752 207.287 32.6473C207.415 32.6193 207.548 32.6169 207.677 32.6402C207.806 32.6635 207.93 32.712 208.04 32.783C208.151 32.854 208.246 32.946 208.321 33.0539C208.396 33.1618 208.449 33.2833 208.477 33.4117C208.505 33.54 208.507 33.6726 208.484 33.8018C208.461 33.9311 208.412 34.0545 208.341 34.165C207.377 35.666 205.565 36.282 204 36.282ZM205.161 41.807C203.607 41.807 202.166 41.108 201.235 40.331C201.134 40.247 201.051 40.1439 200.99 40.0276C200.929 39.9113 200.891 39.7842 200.879 39.6534C200.867 39.5226 200.881 39.3907 200.92 39.2653C200.959 39.1399 201.023 39.0234 201.107 38.9225C201.191 38.8216 201.294 38.7382 201.41 38.6771C201.526 38.616 201.653 38.5785 201.784 38.5665C201.915 38.5546 202.047 38.5686 202.172 38.6076C202.298 38.6466 202.414 38.71 202.515 38.794C202.709 38.957 204.467 40.36 206.297 39.579C206.418 39.5277 206.548 39.5008 206.679 39.4997C206.811 39.4986 206.941 39.5234 207.063 39.5726C207.184 39.6219 207.295 39.6947 207.389 39.7868C207.483 39.8789 207.557 39.9886 207.609 40.1095C207.66 40.2304 207.687 40.3603 207.688 40.4917C207.689 40.623 207.664 40.7533 207.615 40.8751C207.566 40.9969 207.493 41.1078 207.401 41.2015C207.309 41.2951 207.199 41.3697 207.078 41.421C206.471 41.6772 205.82 41.8084 205.161 41.807ZM204.75 47H204.722C202.218 47 200.043 45.43 199.188 43.892C198.919 43.41 199.094 42.848 199.576 42.58C200.059 42.311 200.668 42.51 200.936 42.992C201.42 43.863 202.932 45.126 204.777 45.177C205.329 45.193 205.764 45.565 205.749 46.116C205.734 46.658 205.29 47 204.75 47ZM222.188 47.188C222.04 47.1881 221.894 47.1553 221.76 47.092C221.626 47.0287 221.508 46.9364 221.414 46.8219C221.32 46.7073 221.253 46.5734 221.217 46.4297C221.181 46.286 221.178 46.1362 221.207 45.991C221.871 42.669 225.101 41.841 226.685 42.142C226.946 42.191 227.176 42.3415 227.326 42.5603C227.475 42.7791 227.532 43.0484 227.483 43.309C227.46 43.4384 227.411 43.5618 227.339 43.6721C227.267 43.7824 227.175 43.8774 227.066 43.9517C226.958 44.0259 226.835 44.0778 226.707 44.1045C226.578 44.1312 226.445 44.132 226.316 44.107C225.891 44.027 223.626 44.1 223.169 46.383C223.124 46.61 223.002 46.8143 222.823 46.961C222.644 47.1078 222.419 47.188 222.188 47.188ZM219.624 42.688C219.449 42.6881 219.276 42.642 219.124 42.5542C218.972 42.4664 218.846 42.3401 218.758 42.1881C218.67 42.036 218.624 41.8634 218.624 41.6879C218.625 41.5123 218.671 41.3399 218.759 41.188C220.611 37.982 222.743 37.884 224.153 37.819L224.264 37.814C224.529 37.8013 224.788 37.8943 224.985 38.0727C225.181 38.251 225.298 38.5 225.311 38.765C225.324 39.03 225.231 39.2891 225.052 39.4855C224.874 39.6818 224.625 39.7993 224.36 39.812L224.245 39.817C223.041 39.873 221.796 39.929 220.491 42.188C220.403 42.3402 220.277 42.4665 220.125 42.5543C219.972 42.642 219.8 42.6882 219.624 42.688ZM218.624 36.625C218.445 36.625 218.268 36.5767 218.114 36.4851C217.96 36.3935 217.833 36.262 217.747 36.1044C217.661 35.9468 217.619 35.769 217.626 35.5896C217.632 35.4102 217.687 35.2359 217.784 35.085C219.199 32.882 222.44 32.584 224.052 33.347C224.29 33.4612 224.474 33.6652 224.562 33.9143C224.651 34.1634 224.637 34.4373 224.524 34.6763C224.411 34.9152 224.208 35.0997 223.959 35.1894C223.711 35.2791 223.437 35.2667 223.197 35.155C222.368 34.762 220.271 34.916 219.465 36.167C219.374 36.3076 219.25 36.4232 219.103 36.5032C218.956 36.5832 218.791 36.6251 218.624 36.625ZM224.249 30.688C224.015 30.6879 223.789 30.6058 223.609 30.456C223.415 30.294 221.657 28.897 219.828 29.671C219.586 29.7618 219.319 29.7557 219.082 29.654C218.845 29.5523 218.656 29.3629 218.555 29.1253C218.454 28.8877 218.449 28.6203 218.54 28.3789C218.632 28.1376 218.813 27.9409 219.046 27.83C221.265 26.888 223.581 27.829 224.89 28.92C225.048 29.0516 225.161 29.2287 225.215 29.4271C225.269 29.6255 225.26 29.8356 225.19 30.0288C225.12 30.2221 224.992 30.389 224.823 30.507C224.655 30.6249 224.455 30.6881 224.249 30.688ZM226.063 26.75C225.885 26.7502 225.709 26.7026 225.556 26.6122C225.402 26.5219 225.275 26.392 225.188 26.236C224.704 25.364 223.192 24.113 221.347 24.062C220.794 24.047 220.36 23.556 220.374 23.003C220.391 22.461 220.835 22 221.374 22H221.402C223.907 22 226.082 23.694 226.936 25.232C227.065 25.4664 227.097 25.7423 227.024 25.9999C226.951 26.2575 226.78 26.476 226.547 26.608C226.401 26.6959 226.234 26.7448 226.063 26.75Z" fill="#DD2E44"/>
</g>
<defs>
<clipPath id="clip0_1377_162">
<rect width="36" height="36" fill="white" transform="translate(195 17)"/>
</clipPath>
</defs>
</svg>
