<svg width="570" height="170" viewBox="0 0 570 170" fill="none" xmlns="http://www.w3.org/2000/svg">
<rect x="0.5" y="0.5" width="569" height="169" rx="17.5" fill="white" stroke="#8A9A6B"/>
<path d="M40.7406 22.995H44.2414V41.2097H40.7406V22.995ZM43.2412 30.4177H47.479V33.2868H43.2412V30.4177ZM25.0529 25.5219H39.3982V28.2594H25.0529V25.5219ZM32.2387 29.128C35.7395 29.128 38.2138 31.0495 38.2138 33.8396C38.2138 36.6297 35.7395 38.5248 32.2387 38.5248C28.7116 38.5248 26.2373 36.6297 26.2373 33.8396C26.2373 31.0495 28.7116 29.128 32.2387 29.128ZM32.2387 31.7865C30.6857 31.7865 29.6065 32.5235 29.6065 33.8396C29.6065 35.1557 30.6857 35.8663 32.2387 35.8663C33.7917 35.8663 34.8709 35.1557 34.8709 33.8396C34.8709 32.5235 33.7917 31.7865 32.2387 31.7865ZM30.4752 22.9424H33.9759V26.8643H30.4752V22.9424ZM28.5273 44.1314H45.1101V46.9215H28.5273V44.1314ZM28.5273 39.8409H32.0281V45.3422H28.5273V39.8409ZM72.5365 22.9687H76.0636V36.0769H72.5365V22.9687ZM59.8494 37.1298H63.2976V39.3935H72.5892V37.1298H76.0636V47.0794H59.8494V37.1298ZM63.2976 42.0783V44.2893H72.5892V42.0783H63.2976ZM62.7975 23.9689C66.5878 23.9689 69.4042 26.3642 69.4042 29.7334C69.4042 33.1026 66.5878 35.4978 62.7975 35.4978C59.0071 35.4978 56.1644 33.1026 56.1644 29.7334C56.1644 26.3642 59.0071 23.9689 62.7975 23.9689ZM62.7975 26.8643C60.9286 26.8643 59.5862 27.9435 59.5862 29.7334C59.5862 31.5496 60.9286 32.6024 62.7975 32.6024C64.64 32.6024 65.9824 31.5496 65.9824 29.7334C65.9824 27.9435 64.64 26.8643 62.7975 26.8643ZM93.0667 24.6533C96.778 24.6533 99.4628 28.0225 99.4628 33.3395C99.4628 38.7091 96.778 42.0783 93.0667 42.0783C89.3553 42.0783 86.6705 38.7091 86.6705 33.3395C86.6705 28.0225 89.3553 24.6533 93.0667 24.6533ZM93.0667 27.8382C91.2505 27.8382 90.0397 29.7597 90.0397 33.3395C90.0397 36.9719 91.2505 38.9197 93.0667 38.9197C94.8829 38.9197 96.12 36.9719 96.12 33.3395C96.12 29.7597 94.8829 27.8382 93.0667 27.8382ZM104.701 28.6279H108.991V31.5233H104.701V28.6279ZM104.701 35.7874H108.991V38.6565H104.701V35.7874ZM102.121 22.9687H105.648V47.3426H102.121V22.9687ZM113.28 24.3901H128.573V27.1538H113.28V24.3901ZM110.779 34.7608H132.81V37.5773H110.779V34.7608ZM119.913 36.735H123.44V47.369H119.913V36.735ZM126.783 24.3901H130.231V26.5484C130.231 29.1806 130.231 32.1287 129.283 36.4454L125.835 36.0506C126.783 31.9707 126.783 29.0753 126.783 26.5484V24.3901ZM146.839 24.2848H149.708V26.4432C149.708 31.2864 147.602 35.5505 142.97 37.1561L141.101 34.3923C145.181 33.0236 146.839 29.7597 146.839 26.4432V24.2848ZM147.55 24.2848H150.393V26.7853C150.393 29.7071 152.025 32.5498 155.841 33.7343L154.025 36.4454C149.629 34.9714 147.55 31.1811 147.55 26.7853V24.2848ZM157.184 22.9687H160.684V37.3667H157.184V22.9687ZM159.71 28.6015H163.922V31.4969H159.71V28.6015ZM152.735 37.9194C157.789 37.9194 160.974 39.683 160.974 42.631C160.974 45.6054 157.789 47.3426 152.735 47.3426C147.655 47.3426 144.47 45.6054 144.47 42.631C144.47 39.683 147.655 37.9194 152.735 37.9194ZM152.735 40.6306C149.629 40.6306 147.945 41.2886 147.945 42.631C147.945 43.9998 149.629 44.6315 152.735 44.6315C155.841 44.6315 157.499 43.9998 157.499 42.631C157.499 41.2886 155.841 40.6306 152.735 40.6306ZM171.422 24.0742H174.317V26.4168C174.317 31.0231 172.08 35.2083 167.315 36.735L165.605 33.9712C169.711 32.6551 171.422 29.4965 171.422 26.4168V24.0742ZM172.132 24.0742H175.001V26.4168C175.001 29.4175 176.686 32.3656 180.661 33.5764L178.95 36.3138C174.291 34.8398 172.132 30.9442 172.132 26.4168V24.0742ZM169.342 38.5775H185.978V47.3426H182.45V41.3676H169.342V38.5775ZM182.45 22.9687H185.978V37.4983H182.45V22.9687Z" fill="black"/>
<path d="M38.6307 85.7273C38.6307 87.3134 38.33 88.6629 37.7287 89.7756C37.1321 90.8883 36.3177 91.7382 35.2855 92.3253C34.258 92.9077 33.1027 93.1989 31.8196 93.1989C30.527 93.1989 29.367 92.9053 28.3395 92.3182C27.312 91.7311 26.5 90.8812 25.9034 89.7685C25.3068 88.6558 25.0085 87.3087 25.0085 85.7273C25.0085 84.1411 25.3068 82.7917 25.9034 81.679C26.5 80.5663 27.312 79.7187 28.3395 79.1364C29.367 78.5492 30.527 78.2557 31.8196 78.2557C33.1027 78.2557 34.258 78.5492 35.2855 79.1364C36.3177 79.7187 37.1321 80.5663 37.7287 81.679C38.33 82.7917 38.6307 84.1411 38.6307 85.7273ZM35.5128 85.7273C35.5128 84.6998 35.3589 83.8333 35.0511 83.1278C34.7481 82.4223 34.3196 81.8873 33.7656 81.5227C33.2116 81.1581 32.563 80.9759 31.8196 80.9759C31.0762 80.9759 30.4276 81.1581 29.8736 81.5227C29.3196 81.8873 28.8887 82.4223 28.581 83.1278C28.2779 83.8333 28.1264 84.6998 28.1264 85.7273C28.1264 86.7547 28.2779 87.6212 28.581 88.3267C28.8887 89.0322 29.3196 89.5672 29.8736 89.9318C30.4276 90.2964 31.0762 90.4787 31.8196 90.4787C32.563 90.4787 33.2116 90.2964 33.7656 89.9318C34.3196 89.5672 34.7481 89.0322 35.0511 88.3267C35.3589 87.6212 35.5128 86.7547 35.5128 85.7273ZM40.9087 93V78.4545H46.6474C47.7506 78.4545 48.6905 78.6652 49.467 79.0866C50.2435 79.5033 50.8353 80.0833 51.2425 80.8267C51.6545 81.5653 51.8604 82.4176 51.8604 83.3835C51.8604 84.3494 51.6521 85.2017 51.2354 85.9403C50.8188 86.679 50.2151 87.2543 49.4244 87.6662C48.6384 88.0781 47.6867 88.2841 46.5692 88.2841H42.9116V85.8196H46.0721C46.6639 85.8196 47.1516 85.7178 47.5352 85.5142C47.9234 85.3059 48.2122 85.0194 48.4016 84.6548C48.5958 84.2855 48.6928 83.8617 48.6928 83.3835C48.6928 82.9006 48.5958 82.4792 48.4016 82.1193C48.2122 81.7547 47.9234 81.473 47.5352 81.2741C47.1469 81.0705 46.6545 80.9688 46.0579 80.9688H43.984V93H40.9087ZM61.7486 82.6378C61.6918 82.0649 61.4479 81.6198 61.017 81.3026C60.5862 80.9853 60.0014 80.8267 59.2628 80.8267C58.7609 80.8267 58.3371 80.8977 57.9915 81.0398C57.6458 81.1771 57.3807 81.3688 57.196 81.6151C57.0161 81.8613 56.9261 82.1406 56.9261 82.4531C56.9167 82.7135 56.9711 82.9408 57.0895 83.1349C57.2126 83.3291 57.3807 83.4972 57.5938 83.6392C57.8068 83.7765 58.053 83.8973 58.3324 84.0014C58.6117 84.1009 58.91 84.1861 59.2273 84.2571L60.5341 84.5696C61.1686 84.7116 61.7509 84.901 62.2812 85.1378C62.8116 85.3745 63.2708 85.6657 63.6591 86.0114C64.0473 86.357 64.348 86.7642 64.5611 87.233C64.7789 87.7017 64.8902 88.2391 64.8949 88.8452C64.8902 89.7353 64.6629 90.5071 64.2131 91.1605C63.768 91.8092 63.1241 92.3134 62.2812 92.6733C61.4432 93.0284 60.4323 93.206 59.2486 93.206C58.0743 93.206 57.0516 93.026 56.1804 92.6662C55.3139 92.3063 54.6368 91.7737 54.1491 91.0682C53.6662 90.358 53.4129 89.4796 53.3892 88.4332H56.3651C56.3982 88.9209 56.5379 89.3281 56.7841 89.6548C57.035 89.9768 57.3688 90.2206 57.7855 90.3864C58.2069 90.5473 58.6828 90.6278 59.2131 90.6278C59.7339 90.6278 60.1861 90.5521 60.5696 90.4006C60.9579 90.2491 61.2585 90.0384 61.4716 89.7685C61.6847 89.4986 61.7912 89.1884 61.7912 88.8381C61.7912 88.5114 61.6941 88.2367 61.5 88.0142C61.3106 87.7917 61.0313 87.6023 60.6619 87.446C60.2973 87.2898 59.8499 87.1477 59.3196 87.0199L57.7358 86.6222C56.5095 86.3239 55.5412 85.8575 54.831 85.223C54.1207 84.5885 53.768 83.7339 53.7727 82.6591C53.768 81.7784 54.0024 81.009 54.4759 80.3509C54.9541 79.6927 55.6098 79.179 56.4432 78.8097C57.2765 78.4403 58.2235 78.2557 59.2841 78.2557C60.3636 78.2557 61.3059 78.4403 62.1108 78.8097C62.9205 79.179 63.5502 79.6927 64 80.3509C64.4498 81.009 64.6818 81.7713 64.696 82.6378H61.7486ZM72.2031 85.7273C72.2031 83.9659 72.4375 82.3442 72.9062 80.8622C73.3797 79.3802 74.1018 78.0071 75.0724 76.7429H77.9631C77.5938 77.2116 77.2505 77.7846 76.9332 78.4616C76.616 79.134 76.339 79.8726 76.1023 80.6776C75.8655 81.4825 75.6809 82.3158 75.5483 83.1776C75.4157 84.0346 75.3494 84.8845 75.3494 85.7273C75.3494 86.8494 75.4631 87.9834 75.6903 89.1293C75.9223 90.2704 76.2348 91.331 76.6278 92.3111C77.0256 93.2912 77.4706 94.0938 77.9631 94.7188H75.0724C74.1018 93.4545 73.3797 92.0814 72.9062 90.5994C72.4375 89.1174 72.2031 87.4934 72.2031 85.7273ZM93.1424 85.7273C93.1424 87.3134 92.8417 88.6629 92.2404 89.7756C91.6438 90.8883 90.8294 91.7382 89.7972 92.3253C88.7698 92.9077 87.6145 93.1989 86.3313 93.1989C85.0387 93.1989 83.8787 92.9053 82.8512 92.3182C81.8237 91.7311 81.0117 90.8812 80.4151 89.7685C79.8185 88.6558 79.5202 87.3087 79.5202 85.7273C79.5202 84.1411 79.8185 82.7917 80.4151 81.679C81.0117 80.5663 81.8237 79.7187 82.8512 79.1364C83.8787 78.5492 85.0387 78.2557 86.3313 78.2557C87.6145 78.2557 88.7698 78.5492 89.7972 79.1364C90.8294 79.7187 91.6438 80.5663 92.2404 81.679C92.8417 82.7917 93.1424 84.1411 93.1424 85.7273ZM90.0245 85.7273C90.0245 84.6998 89.8706 83.8333 89.5629 83.1278C89.2598 82.4223 88.8313 81.8873 88.2773 81.5227C87.7234 81.1581 87.0747 80.9759 86.3313 80.9759C85.5879 80.9759 84.9393 81.1581 84.3853 81.5227C83.8313 81.8873 83.4004 82.4223 83.0927 83.1278C82.7897 83.8333 82.6381 84.6998 82.6381 85.7273C82.6381 86.7547 82.7897 87.6212 83.0927 88.3267C83.4004 89.0322 83.8313 89.5672 84.3853 89.9318C84.9393 90.2964 85.5879 90.4787 86.3313 90.4787C87.0747 90.4787 87.7234 90.2964 88.2773 89.9318C88.8313 89.5672 89.2598 89.0322 89.5629 88.3267C89.8706 87.6212 90.0245 86.7547 90.0245 85.7273ZM98.3892 86.6932V93H95.3636V82.0909H98.2472V84.0156H98.375C98.6165 83.3812 99.0213 82.8793 99.5895 82.5099C100.158 82.1359 100.847 81.9489 101.656 81.9489C102.414 81.9489 103.074 82.1146 103.638 82.446C104.201 82.7775 104.639 83.2509 104.952 83.8665C105.264 84.4773 105.42 85.2064 105.42 86.054V93H102.395V86.5938C102.4 85.9261 102.229 85.4053 101.884 85.0312C101.538 84.6525 101.062 84.4631 100.456 84.4631C100.049 84.4631 99.6889 84.5507 99.3764 84.7259C99.0687 84.901 98.8272 85.1567 98.652 85.4929C98.4815 85.8243 98.3939 86.2244 98.3892 86.6932ZM114.602 85.8267V88.2273H107.968V85.8267H114.602ZM117.237 93V78.4545H120.262V83.9233H120.355C120.487 83.6297 120.679 83.3314 120.93 83.0284C121.186 82.7206 121.517 82.465 121.924 82.2614C122.336 82.053 122.848 81.9489 123.458 81.9489C124.254 81.9489 124.988 82.1572 125.66 82.5739C126.333 82.9858 126.87 83.6084 127.272 84.4418C127.675 85.2704 127.876 86.3097 127.876 87.5597C127.876 88.7765 127.68 89.804 127.287 90.642C126.898 91.4754 126.368 92.1075 125.696 92.5384C125.028 92.9645 124.28 93.1776 123.451 93.1776C122.864 93.1776 122.365 93.0805 121.953 92.8864C121.546 92.6922 121.212 92.4484 120.951 92.1548C120.691 91.8565 120.492 91.5559 120.355 91.2528H120.22V93H117.237ZM120.199 87.5455C120.199 88.1941 120.288 88.7599 120.468 89.2429C120.648 89.7259 120.909 90.1023 121.25 90.3722C121.591 90.6373 122.005 90.7699 122.493 90.7699C122.985 90.7699 123.402 90.6349 123.743 90.3651C124.083 90.0904 124.342 89.7116 124.517 89.2287C124.697 88.741 124.787 88.1799 124.787 87.5455C124.787 86.9157 124.699 86.3617 124.524 85.8835C124.349 85.4053 124.091 85.0312 123.75 84.7614C123.409 84.4915 122.99 84.3565 122.493 84.3565C122 84.3565 121.583 84.4867 121.243 84.7472C120.906 85.0076 120.648 85.3769 120.468 85.8551C120.288 86.3333 120.199 86.8968 120.199 87.5455ZM133.006 93.206C132.31 93.206 131.689 93.0852 131.145 92.8438C130.6 92.5975 130.17 92.2353 129.852 91.7571C129.54 91.2741 129.384 90.6728 129.384 89.9531C129.384 89.3471 129.495 88.8381 129.717 88.4261C129.94 88.0142 130.243 87.6828 130.626 87.4318C131.01 87.1809 131.446 86.9915 131.933 86.8636C132.426 86.7358 132.942 86.6458 133.482 86.5938C134.116 86.5275 134.627 86.4659 135.016 86.4091C135.404 86.3475 135.686 86.2576 135.861 86.1392C136.036 86.0208 136.124 85.8456 136.124 85.6136V85.571C136.124 85.1212 135.982 84.7732 135.697 84.527C135.418 84.2808 135.02 84.1577 134.504 84.1577C133.96 84.1577 133.527 84.2784 133.205 84.5199C132.883 84.7566 132.67 85.0549 132.565 85.4148L129.767 85.1875C129.909 84.5246 130.188 83.9517 130.605 83.4688C131.022 82.9811 131.559 82.607 132.217 82.3466C132.88 82.0814 133.647 81.9489 134.518 81.9489C135.125 81.9489 135.705 82.0199 136.259 82.1619C136.817 82.304 137.312 82.5241 137.743 82.8224C138.179 83.1207 138.522 83.5043 138.773 83.973C139.024 84.437 139.149 84.9934 139.149 85.642V93H136.28V91.4872H136.195C136.019 91.8281 135.785 92.1288 135.491 92.3892C135.198 92.6449 134.845 92.8461 134.433 92.9929C134.021 93.1349 133.545 93.206 133.006 93.206ZM133.872 91.1179C134.317 91.1179 134.71 91.0303 135.051 90.8551C135.392 90.6752 135.66 90.4337 135.854 90.1307C136.048 89.8277 136.145 89.4844 136.145 89.1009V87.9432C136.05 88.0047 135.92 88.0616 135.754 88.1136C135.593 88.161 135.411 88.206 135.207 88.2486C135.004 88.2865 134.8 88.322 134.597 88.3551C134.393 88.3835 134.208 88.4096 134.043 88.4332C133.688 88.4853 133.377 88.5682 133.112 88.6818C132.847 88.7955 132.641 88.9493 132.494 89.1435C132.348 89.3329 132.274 89.5696 132.274 89.8537C132.274 90.2656 132.423 90.5805 132.722 90.7983C133.025 91.0114 133.408 91.1179 133.872 91.1179ZM150.573 85.2017L147.803 85.3722C147.756 85.1354 147.654 84.9223 147.498 84.733C147.342 84.5388 147.136 84.3849 146.88 84.2713C146.629 84.1529 146.328 84.0938 145.978 84.0938C145.509 84.0938 145.114 84.1932 144.792 84.392C144.47 84.5862 144.309 84.8466 144.309 85.1733C144.309 85.4337 144.413 85.6539 144.621 85.8338C144.83 86.0137 145.187 86.1581 145.694 86.267L147.668 86.6648C148.729 86.8826 149.52 87.233 150.04 87.7159C150.561 88.1989 150.822 88.8333 150.822 89.6193C150.822 90.3343 150.611 90.9616 150.19 91.5014C149.773 92.0412 149.2 92.4626 148.471 92.7656C147.746 93.0639 146.911 93.2131 145.964 93.2131C144.52 93.2131 143.369 92.9124 142.512 92.3111C141.66 91.705 141.16 90.8812 141.013 89.8395L143.989 89.6832C144.079 90.1236 144.297 90.4598 144.643 90.6918C144.988 90.919 145.431 91.0327 145.971 91.0327C146.501 91.0327 146.927 90.9309 147.249 90.7273C147.576 90.5189 147.742 90.2514 147.746 89.9247C147.742 89.6501 147.626 89.4252 147.398 89.25C147.171 89.0701 146.821 88.9328 146.347 88.8381L144.458 88.4616C143.393 88.2486 142.6 87.8793 142.079 87.3537C141.563 86.8281 141.305 86.1581 141.305 85.3438C141.305 84.643 141.494 84.0393 141.873 83.5327C142.256 83.026 142.794 82.6354 143.485 82.3608C144.181 82.0862 144.996 81.9489 145.928 81.9489C147.306 81.9489 148.39 82.2401 149.181 82.8224C149.977 83.4048 150.441 84.1979 150.573 85.2017ZM157.699 93.2131C156.576 93.2131 155.61 92.9858 154.801 92.5312C153.996 92.072 153.376 91.4233 152.94 90.5852C152.504 89.7424 152.287 88.7457 152.287 87.5952C152.287 86.473 152.504 85.4882 152.94 84.6406C153.376 83.7931 153.989 83.1326 154.779 82.6591C155.575 82.1856 156.508 81.9489 157.578 81.9489C158.297 81.9489 158.967 82.0649 159.588 82.2969C160.213 82.5241 160.757 82.8674 161.221 83.3267C161.69 83.786 162.055 84.3636 162.315 85.0597C162.575 85.7509 162.706 86.5606 162.706 87.4886V88.3196H153.494V86.4446H159.858C159.858 86.009 159.763 85.6231 159.574 85.2869C159.384 84.9508 159.121 84.688 158.785 84.4986C158.454 84.3045 158.068 84.2074 157.627 84.2074C157.168 84.2074 156.761 84.3139 156.406 84.527C156.056 84.7353 155.781 85.017 155.582 85.3722C155.383 85.7225 155.281 86.1132 155.277 86.544V88.3267C155.277 88.8665 155.376 89.3329 155.575 89.7259C155.779 90.1188 156.065 90.4219 156.434 90.6349C156.804 90.848 157.242 90.9545 157.748 90.9545C158.084 90.9545 158.392 90.9072 158.672 90.8125C158.951 90.7178 159.19 90.5758 159.389 90.3864C159.588 90.197 159.739 89.965 159.843 89.6903L162.642 89.875C162.5 90.5473 162.208 91.1345 161.768 91.6364C161.333 92.1335 160.769 92.5218 160.078 92.8011C159.391 93.0758 158.598 93.2131 157.699 93.2131ZM169.366 93V78.4545H175.104C176.208 78.4545 177.147 78.6652 177.924 79.0866C178.701 79.5033 179.292 80.0833 179.7 80.8267C180.112 81.5653 180.317 82.4176 180.317 83.3835C180.317 84.3494 180.109 85.2017 179.692 85.9403C179.276 86.679 178.672 87.2543 177.881 87.6662C177.095 88.0781 176.144 88.2841 175.026 88.2841H171.369V85.8196H174.529C175.121 85.8196 175.609 85.7178 175.992 85.5142C176.38 85.3059 176.669 85.0194 176.859 84.6548C177.053 84.2855 177.15 83.8617 177.15 83.3835C177.15 82.9006 177.053 82.4792 176.859 82.1193C176.669 81.7547 176.38 81.473 175.992 81.2741C175.604 81.0705 175.112 80.9688 174.515 80.9688H172.441V93H169.366ZM185.284 78.4545V93H182.258V78.4545H185.284ZM194.703 88.3551V82.0909H197.729V93H194.824V91.0185H194.71C194.464 91.6577 194.054 92.1714 193.482 92.5597C192.913 92.9479 192.22 93.142 191.401 93.142C190.671 93.142 190.03 92.9763 189.476 92.6449C188.922 92.3134 188.489 91.8423 188.176 91.2315C187.868 90.6207 187.712 89.8892 187.707 89.0369V82.0909H190.733V88.4972C190.738 89.1411 190.911 89.6501 191.251 90.0241C191.592 90.3982 192.049 90.5852 192.622 90.5852C192.987 90.5852 193.328 90.5024 193.645 90.3366C193.962 90.1662 194.218 89.9152 194.412 89.5838C194.611 89.2524 194.708 88.8428 194.703 88.3551ZM209.225 85.2017L206.456 85.3722C206.408 85.1354 206.306 84.9223 206.15 84.733C205.994 84.5388 205.788 84.3849 205.532 84.2713C205.281 84.1529 204.981 84.0938 204.63 84.0938C204.162 84.0938 203.766 84.1932 203.444 84.392C203.122 84.5862 202.961 84.8466 202.961 85.1733C202.961 85.4337 203.065 85.6539 203.274 85.8338C203.482 86.0137 203.84 86.1581 204.346 86.267L206.321 86.6648C207.381 86.8826 208.172 87.233 208.693 87.7159C209.214 88.1989 209.474 88.8333 209.474 89.6193C209.474 90.3343 209.263 90.9616 208.842 91.5014C208.425 92.0412 207.852 92.4626 207.123 92.7656C206.399 93.0639 205.563 93.2131 204.616 93.2131C203.172 93.2131 202.021 92.9124 201.164 92.3111C200.312 91.705 199.813 90.8812 199.666 89.8395L202.642 89.6832C202.732 90.1236 202.949 90.4598 203.295 90.6918C203.641 90.919 204.083 91.0327 204.623 91.0327C205.154 91.0327 205.58 90.9309 205.902 90.7273C206.228 90.5189 206.394 90.2514 206.399 89.9247C206.394 89.6501 206.278 89.4252 206.051 89.25C205.824 89.0701 205.473 88.9328 205 88.8381L203.11 88.4616C202.045 88.2486 201.252 87.8793 200.731 87.3537C200.215 86.8281 199.957 86.1581 199.957 85.3438C199.957 84.643 200.146 84.0393 200.525 83.5327C200.909 83.026 201.446 82.6354 202.137 82.3608C202.833 82.0862 203.648 81.9489 204.581 81.9489C205.958 81.9489 207.043 82.2401 207.833 82.8224C208.629 83.4048 209.093 84.1979 209.225 85.2017ZM223.956 82.6378C223.899 82.0649 223.655 81.6198 223.224 81.3026C222.793 80.9853 222.208 80.8267 221.47 80.8267C220.968 80.8267 220.544 80.8977 220.199 81.0398C219.853 81.1771 219.588 81.3688 219.403 81.6151C219.223 81.8613 219.133 82.1406 219.133 82.4531C219.124 82.7135 219.178 82.9408 219.297 83.1349C219.42 83.3291 219.588 83.4972 219.801 83.6392C220.014 83.7765 220.26 83.8973 220.539 84.0014C220.819 84.1009 221.117 84.1861 221.434 84.2571L222.741 84.5696C223.376 84.7116 223.958 84.901 224.488 85.1378C225.019 85.3745 225.478 85.6657 225.866 86.0114C226.254 86.357 226.555 86.7642 226.768 87.233C226.986 87.7017 227.097 88.2391 227.102 88.8452C227.097 89.7353 226.87 90.5071 226.42 91.1605C225.975 91.8092 225.331 92.3134 224.488 92.6733C223.65 93.0284 222.639 93.206 221.456 93.206C220.281 93.206 219.259 93.026 218.387 92.6662C217.521 92.3063 216.844 91.7737 216.356 91.0682C215.873 90.358 215.62 89.4796 215.596 88.4332H218.572C218.605 88.9209 218.745 89.3281 218.991 89.6548C219.242 89.9768 219.576 90.2206 219.993 90.3864C220.414 90.5473 220.89 90.6278 221.42 90.6278C221.941 90.6278 222.393 90.5521 222.777 90.4006C223.165 90.2491 223.466 90.0384 223.679 89.7685C223.892 89.4986 223.998 89.1884 223.998 88.8381C223.998 88.5114 223.901 88.2367 223.707 88.0142C223.518 87.7917 223.238 87.6023 222.869 87.446C222.504 87.2898 222.057 87.1477 221.527 87.0199L219.943 86.6222C218.717 86.3239 217.748 85.8575 217.038 85.223C216.328 84.5885 215.975 83.7339 215.98 82.6591C215.975 81.7784 216.209 81.009 216.683 80.3509C217.161 79.6927 217.817 79.179 218.65 78.8097C219.484 78.4403 220.431 78.2557 221.491 78.2557C222.571 78.2557 223.513 78.4403 224.318 78.8097C225.127 79.179 225.757 79.6927 226.207 80.3509C226.657 81.009 226.889 81.7713 226.903 82.6378H223.956ZM232.139 78.4545V93H229.114V78.4545H232.139ZM241.559 88.3551V82.0909H244.584V93H241.679V91.0185H241.566C241.319 91.6577 240.91 92.1714 240.337 92.5597C239.769 92.9479 239.075 93.142 238.256 93.142C237.527 93.142 236.885 92.9763 236.331 92.6449C235.777 92.3134 235.344 91.8423 235.032 91.2315C234.724 90.6207 234.568 89.8892 234.563 89.0369V82.0909H237.588V88.4972C237.593 89.1411 237.766 89.6501 238.107 90.0241C238.448 90.3982 238.905 90.5852 239.478 90.5852C239.842 90.5852 240.183 90.5024 240.5 90.3366C240.818 90.1662 241.073 89.9152 241.267 89.5838C241.466 89.2524 241.563 88.8428 241.559 88.3551ZM251.919 97.3182C250.939 97.3182 250.098 97.1832 249.398 96.9134C248.702 96.6482 248.148 96.286 247.736 95.8267C247.324 95.3674 247.056 94.8513 246.933 94.2784L249.732 93.902C249.817 94.1198 249.952 94.3234 250.136 94.5128C250.321 94.7022 250.565 94.8537 250.868 94.9673C251.176 95.0857 251.55 95.1449 251.99 95.1449C252.648 95.1449 253.19 94.9839 253.616 94.6619C254.047 94.3447 254.263 93.812 254.263 93.0639V91.0682H254.135C254.002 91.3712 253.804 91.6577 253.538 91.9276C253.273 92.1974 252.932 92.4176 252.516 92.5881C252.099 92.7585 251.602 92.8438 251.024 92.8438C250.205 92.8438 249.459 92.6544 248.787 92.2756C248.119 91.892 247.587 91.3073 247.189 90.5213C246.796 89.7306 246.599 88.7315 246.599 87.5241C246.599 86.2884 246.801 85.2562 247.203 84.4276C247.606 83.599 248.141 82.9787 248.808 82.5668C249.481 82.1548 250.217 81.9489 251.017 81.9489C251.628 81.9489 252.139 82.053 252.551 82.2614C252.963 82.465 253.295 82.7206 253.545 83.0284C253.801 83.3314 253.998 83.6297 254.135 83.9233H254.249V82.0909H257.253V93.1065C257.253 94.0346 257.026 94.8111 256.571 95.4361C256.116 96.0611 255.487 96.5298 254.682 96.8423C253.882 97.1596 252.961 97.3182 251.919 97.3182ZM251.983 90.571C252.471 90.571 252.883 90.4503 253.219 90.2088C253.56 89.9626 253.82 89.6122 254 89.1577C254.185 88.6984 254.277 88.1491 254.277 87.5099C254.277 86.8707 254.187 86.3168 254.007 85.848C253.827 85.3745 253.567 85.0076 253.226 84.7472C252.885 84.4867 252.471 84.3565 251.983 84.3565C251.486 84.3565 251.067 84.4915 250.726 84.7614C250.385 85.0265 250.127 85.3958 249.952 85.8693C249.777 86.3428 249.689 86.8897 249.689 87.5099C249.689 88.1397 249.777 88.6842 249.952 89.1435C250.132 89.598 250.39 89.9508 250.726 90.2017C251.067 90.4479 251.486 90.571 251.983 90.571ZM264.575 97.3182C263.595 97.3182 262.755 97.1832 262.054 96.9134C261.358 96.6482 260.804 96.286 260.392 95.8267C259.98 95.3674 259.713 94.8513 259.589 94.2784L262.388 93.902C262.473 94.1198 262.608 94.3234 262.793 94.5128C262.977 94.7022 263.221 94.8537 263.524 94.9673C263.832 95.0857 264.206 95.1449 264.646 95.1449C265.304 95.1449 265.847 94.9839 266.273 94.6619C266.704 94.3447 266.919 93.812 266.919 93.0639V91.0682H266.791C266.659 91.3712 266.46 91.6577 266.195 91.9276C265.929 92.1974 265.589 92.4176 265.172 92.5881C264.755 92.7585 264.258 92.8438 263.68 92.8438C262.861 92.8438 262.116 92.6544 261.443 92.2756C260.776 91.892 260.243 91.3073 259.845 90.5213C259.452 89.7306 259.256 88.7315 259.256 87.5241C259.256 86.2884 259.457 85.2562 259.859 84.4276C260.262 83.599 260.797 82.9787 261.464 82.5668C262.137 82.1548 262.873 81.9489 263.673 81.9489C264.284 81.9489 264.795 82.053 265.207 82.2614C265.619 82.465 265.951 82.7206 266.202 83.0284C266.457 83.3314 266.654 83.6297 266.791 83.9233H266.905V82.0909H269.909V93.1065C269.909 94.0346 269.682 94.8111 269.227 95.4361C268.773 96.0611 268.143 96.5298 267.338 96.8423C266.538 97.1596 265.617 97.3182 264.575 97.3182ZM264.639 90.571C265.127 90.571 265.539 90.4503 265.875 90.2088C266.216 89.9626 266.476 89.6122 266.656 89.1577C266.841 88.6984 266.933 88.1491 266.933 87.5099C266.933 86.8707 266.843 86.3168 266.663 85.848C266.483 85.3745 266.223 85.0076 265.882 84.7472C265.541 84.4867 265.127 84.3565 264.639 84.3565C264.142 84.3565 263.723 84.4915 263.382 84.7614C263.041 85.0265 262.783 85.3958 262.608 85.8693C262.433 86.3428 262.345 86.8897 262.345 87.5099C262.345 88.1397 262.433 88.6842 262.608 89.1435C262.788 89.598 263.046 89.9508 263.382 90.2017C263.723 90.4479 264.142 90.571 264.639 90.571ZM272.317 93V82.0909H275.342V93H272.317ZM273.837 80.6847C273.387 80.6847 273.001 80.5355 272.679 80.2372C272.362 79.9342 272.203 79.572 272.203 79.1506C272.203 78.7339 272.362 78.3764 272.679 78.0781C273.001 77.7751 273.387 77.6236 273.837 77.6236C274.286 77.6236 274.67 77.7751 274.987 78.0781C275.309 78.3764 275.47 78.7339 275.47 79.1506C275.47 79.572 275.309 79.9342 274.987 80.2372C274.67 80.5355 274.286 80.6847 273.837 80.6847ZM280.792 86.6932V93H277.766V82.0909H280.65V84.0156H280.777C281.019 83.3812 281.424 82.8793 281.992 82.5099C282.56 82.1359 283.249 81.9489 284.059 81.9489C284.816 81.9489 285.477 82.1146 286.04 82.446C286.604 82.7775 287.042 83.2509 287.354 83.8665C287.667 84.4773 287.823 85.2064 287.823 86.054V93H284.797V86.5938C284.802 85.9261 284.632 85.4053 284.286 85.0312C283.94 84.6525 283.464 84.4631 282.858 84.4631C282.451 84.4631 282.091 84.5507 281.779 84.7259C281.471 84.901 281.23 85.1567 281.054 85.4929C280.884 85.8243 280.796 86.2244 280.792 86.6932ZM295.122 97.3182C294.142 97.3182 293.302 97.1832 292.601 96.9134C291.905 96.6482 291.351 96.286 290.939 95.8267C290.527 95.3674 290.259 94.8513 290.136 94.2784L292.935 93.902C293.02 94.1198 293.155 94.3234 293.339 94.5128C293.524 94.7022 293.768 94.8537 294.071 94.9673C294.379 95.0857 294.753 95.1449 295.193 95.1449C295.851 95.1449 296.393 94.9839 296.82 94.6619C297.25 94.3447 297.466 93.812 297.466 93.0639V91.0682H297.338C297.205 91.3712 297.007 91.6577 296.741 91.9276C296.476 92.1974 296.135 92.4176 295.719 92.5881C295.302 92.7585 294.805 92.8438 294.227 92.8438C293.408 92.8438 292.662 92.6544 291.99 92.2756C291.322 91.892 290.79 91.3073 290.392 90.5213C289.999 89.7306 289.803 88.7315 289.803 87.5241C289.803 86.2884 290.004 85.2562 290.406 84.4276C290.809 83.599 291.344 82.9787 292.011 82.5668C292.684 82.1548 293.42 81.9489 294.22 81.9489C294.831 81.9489 295.342 82.053 295.754 82.2614C296.166 82.465 296.498 82.7206 296.749 83.0284C297.004 83.3314 297.201 83.6297 297.338 83.9233H297.452V82.0909H300.456V93.1065C300.456 94.0346 300.229 94.8111 299.774 95.4361C299.32 96.0611 298.69 96.5298 297.885 96.8423C297.085 97.1596 296.164 97.3182 295.122 97.3182ZM295.186 90.571C295.674 90.571 296.086 90.4503 296.422 90.2088C296.763 89.9626 297.023 89.6122 297.203 89.1577C297.388 88.6984 297.48 88.1491 297.48 87.5099C297.48 86.8707 297.39 86.3168 297.21 85.848C297.03 85.3745 296.77 85.0076 296.429 84.7472C296.088 84.4867 295.674 84.3565 295.186 84.3565C294.689 84.3565 294.27 84.4915 293.929 84.7614C293.588 85.0265 293.33 85.3958 293.155 85.8693C292.98 86.3428 292.892 86.8897 292.892 87.5099C292.892 88.1397 292.98 88.6842 293.155 89.1435C293.335 89.598 293.593 89.9508 293.929 90.2017C294.27 90.4479 294.689 90.571 295.186 90.571ZM307.963 87.169C307.963 88.9351 307.726 90.5592 307.253 92.0412C306.784 93.5232 306.064 94.8963 305.094 96.1605H302.203C302.572 95.6918 302.916 95.1188 303.233 94.4418C303.55 93.7647 303.827 93.026 304.064 92.2259C304.301 91.4209 304.485 90.5876 304.618 89.7259C304.75 88.8641 304.817 88.0118 304.817 87.169C304.817 86.0469 304.701 84.9152 304.469 83.7741C304.241 82.6283 303.929 81.5677 303.531 80.5923C303.138 79.6122 302.696 78.8097 302.203 78.1847H305.094C306.064 79.4489 306.784 80.822 307.253 82.304C307.726 83.786 307.963 85.4077 307.963 87.169ZM313.04 81.9H325.32V83.26H313.04V81.9ZM310.82 85.68H327.22V87.04H310.82V85.68ZM313.04 77.14H314.68V82.58H313.04V77.14ZM312.92 92.76H325.42V94.12H312.92V92.76ZM312.92 88.84H314.56V93.12H312.92V88.84ZM342.183 85.48H343.843V88.22H342.183V85.48ZM334.863 84.5H351.183V85.78H334.863V84.5ZM342.203 76.36H343.843V78.56H342.203V76.36ZM342.123 78.72H343.583V79C343.583 81.84 340.203 83.36 336.203 83.7L335.723 82.42C339.283 82.2 342.123 80.94 342.123 79V78.72ZM342.463 78.72H343.923V79C343.923 80.94 346.763 82.2 350.303 82.42L349.823 83.7C345.823 83.36 342.463 81.84 342.463 79V78.72ZM336.523 78.06H349.523V79.32H336.523V78.06ZM336.823 87.42H349.103V91.4H338.503V93.58H336.863V90.22H347.463V88.68H336.823V87.42ZM336.863 93.1H349.643V94.36H336.863V93.1ZM355.202 77.2H367.642V81.92H356.922V85.04H355.242V80.64H365.982V78.54H355.202V77.2ZM355.242 84.22H368.062V85.58H355.242V84.22ZM353.242 87.44H369.642V88.82H353.242V87.44ZM360.582 87.96H362.222V94.58H360.582V87.96ZM376.06 84.6H377.72V87.94H376.06V84.6ZM381.82 84.6H383.46V87.94H381.82V84.6ZM379.82 76.7C383.8 76.7 386.18 77.8 386.18 79.82C386.18 81.84 383.8 82.96 379.82 82.96C375.82 82.96 373.46 81.84 373.46 79.82C373.46 77.8 375.82 76.7 379.82 76.7ZM379.82 77.96C376.86 77.96 375.16 78.64 375.16 79.82C375.16 81.02 376.86 81.7 379.82 81.7C382.76 81.7 384.46 81.02 384.46 79.82C384.46 78.64 382.76 77.96 379.82 77.96ZM371.64 84.04H387.98V85.38H371.64V84.04ZM373.62 87.14H385.9V91.22H375.3V93.42H373.66V90.02H384.26V88.42H373.62V87.14ZM373.66 93.06H386.44V94.36H373.66V93.06ZM390.859 78.46H399.039V79.8H390.859V78.46ZM393.679 83.62H395.319V89.74H393.679V83.62ZM398.359 78.46H399.979V79.42C399.979 80.9 399.979 83.26 399.459 86.62L397.819 86.46C398.359 83.2 398.359 80.88 398.359 79.42V78.46ZM402.259 76.48H403.899V94.56H402.259V76.48ZM403.459 84.04H406.799V85.44H403.459V84.04ZM390.059 90.62L389.859 89.22C393.139 89.22 397.499 89.16 401.159 88.7L401.239 89.92C397.499 90.52 393.259 90.6 390.059 90.62ZM418.522 78.42H419.882V79.88C419.882 83.2 417.882 85.98 414.842 87.08L414.002 85.76C416.722 84.8 418.522 82.46 418.522 79.88V78.42ZM418.822 78.42H420.182V79.86C420.182 82.22 421.902 84.34 424.562 85.22L423.762 86.52C420.742 85.52 418.822 82.94 418.822 79.86V78.42ZM414.502 77.82H424.162V79.18H414.502V77.82ZM426.442 76.48H428.102V87.38H426.442V76.48ZM427.642 81.06H430.782V82.46H427.642V81.06ZM422.342 87.86C426.022 87.86 428.282 89.08 428.282 91.18C428.282 93.3 426.022 94.52 422.342 94.52C418.662 94.52 416.402 93.3 416.402 91.18C416.402 89.08 418.662 87.86 422.342 87.86ZM422.342 89.2C419.662 89.2 418.022 89.92 418.022 91.18C418.022 92.46 419.662 93.22 422.342 93.22C425.022 93.22 426.662 92.46 426.662 91.18C426.662 89.92 425.022 89.2 422.342 89.2ZM433.24 88.84H434.66C438 88.84 440.3 88.76 443.02 88.28L443.2 89.64C440.4 90.12 438.04 90.22 434.66 90.22H433.24V88.84ZM433.24 78.12H441.66V79.5H434.9V89.32H433.24V78.12ZM434.48 83.18H441.26V84.52H434.48V83.18ZM444.7 76.48H446.38V94.56H444.7V76.48ZM445.98 83.74H449.34V85.14H445.98V83.74ZM455.279 84.6H456.939V87.94H455.279V84.6ZM461.039 84.6H462.679V87.94H461.039V84.6ZM459.039 76.7C463.019 76.7 465.399 77.8 465.399 79.82C465.399 81.84 463.019 82.96 459.039 82.96C455.039 82.96 452.679 81.84 452.679 79.82C452.679 77.8 455.039 76.7 459.039 76.7ZM459.039 77.96C456.079 77.96 454.379 78.64 454.379 79.82C454.379 81.02 456.079 81.7 459.039 81.7C461.979 81.7 463.679 81.02 463.679 79.82C463.679 78.64 461.979 77.96 459.039 77.96ZM450.859 84.04H467.199V85.38H450.859V84.04ZM452.839 87.14H465.119V91.22H454.519V93.42H452.879V90.02H463.479V88.42H452.839V87.14ZM452.879 93.06H465.659V94.36H452.879V93.06ZM477.437 76.78C481.417 76.78 483.797 77.9 483.797 79.92C483.797 81.94 481.417 83.06 477.437 83.06C473.437 83.06 471.077 81.94 471.077 79.92C471.077 77.9 473.437 76.78 477.437 76.78ZM477.437 78.04C474.477 78.04 472.777 78.72 472.777 79.92C472.777 81.12 474.477 81.8 477.437 81.8C480.377 81.8 482.077 81.12 482.077 79.92C482.077 78.72 480.377 78.04 477.437 78.04ZM469.257 84.26H485.597V85.6H469.257V84.26ZM471.237 87.14H483.517V91.22H472.917V93.42H471.277V90.02H481.877V88.42H471.237V87.14ZM471.277 93.06H484.057V94.36H471.277V93.06ZM494.201 88.72H495.581C498.941 88.72 501.101 88.64 503.621 88.16L503.801 89.52C501.201 90 499.021 90.12 495.581 90.12H494.201V88.72ZM494.201 78.2H502.421V79.56H495.841V89.24H494.201V78.2ZM506.541 76.48H508.201V94.6H506.541V76.48ZM501.361 83.02H507.221V84.4H501.361V83.02ZM524.059 76.5H525.719V90.06H524.059V76.5ZM525.199 82.42H528.399V83.82H525.199V82.42ZM511.739 78.68H522.419V80.02H511.739V78.68ZM517.079 81.02C519.639 81.02 521.399 82.36 521.399 84.4C521.399 86.42 519.639 87.76 517.079 87.76C514.499 87.76 512.739 86.42 512.739 84.4C512.739 82.36 514.499 81.02 517.079 81.02ZM517.079 82.32C515.439 82.32 514.319 83.14 514.319 84.4C514.319 85.64 515.439 86.46 517.079 86.46C518.699 86.46 519.819 85.64 519.819 84.4C519.819 83.14 518.699 82.32 517.079 82.32ZM516.239 76.48H517.899V79.38H516.239V76.48ZM514.459 92.8H526.539V94.16H514.459V92.8ZM514.459 88.98H516.119V93.38H514.459V88.98ZM38.16 100.48H39.82V118.56H38.16V100.48ZM32.86 102.42H34.5C34.5 107.66 32.14 112.24 26.1 115.2L25.22 113.86C30.44 111.34 32.86 107.5 32.86 102.7V102.42ZM26.04 102.42H33.58V103.78H26.04V102.42ZM43.3784 110.42H59.7784V111.78H43.3784V110.42ZM45.4584 100.94H57.6584V105.32H47.1384V107.76H45.4984V104.1H56.0384V102.24H45.4584V100.94ZM45.4984 107.22H58.0584V108.52H45.4984V107.22ZM50.7384 107.9H52.3984V111.1H50.7384V107.9ZM45.1984 113.16H57.7784V118.4H56.1184V114.52H45.1984V113.16ZM69.9569 101.62C73.7169 101.62 76.5169 103.62 76.5169 106.62C76.5169 109.64 73.7169 111.62 69.9569 111.62C66.1969 111.62 63.3769 109.64 63.3769 106.62C63.3769 103.62 66.1969 101.62 69.9569 101.62ZM69.9569 102.98C67.0969 102.98 64.9769 104.44 64.9769 106.62C64.9769 108.78 67.0969 110.26 69.9569 110.26C72.8169 110.26 74.9369 108.78 74.9369 106.62C74.9369 104.44 72.8169 102.98 69.9569 102.98ZM61.7969 114.78H78.1769V116.18H61.7969V114.78ZM80.1953 114.96H96.5753V116.34H80.1953V114.96ZM87.5153 111.08H89.1753V115.54H87.5153V111.08ZM82.1753 101.82H94.5553V107.3H83.8753V110.92H82.2353V105.96H92.9153V103.16H82.1753V101.82ZM82.2353 110.22H94.9753V111.58H82.2353V110.22ZM101.628 115.011L101.514 115.778C101.434 116.318 101.311 116.896 101.145 117.511C100.984 118.127 100.816 118.707 100.641 119.251C100.465 119.796 100.321 120.229 100.207 120.551H98.929C98.9905 120.248 99.071 119.848 99.1705 119.351C99.2699 118.854 99.3693 118.297 99.4688 117.682C99.5729 117.071 99.6581 116.446 99.7244 115.807L99.8097 115.011H101.628ZM110.584 112.84H112.004C115.344 112.84 117.644 112.76 120.364 112.28L120.544 113.64C117.744 114.12 115.384 114.22 112.004 114.22H110.584V112.84ZM110.584 102.12H119.004V103.5H112.244V113.32H110.584V102.12ZM111.824 107.18H118.604V108.52H111.824V107.18ZM122.044 100.48H123.724V118.56H122.044V100.48ZM123.324 107.74H126.684V109.14H123.324V107.74ZM132.683 103.06H134.003V106C134.003 109.76 131.703 113.64 128.883 115.08L127.923 113.76C130.503 112.5 132.683 109.06 132.683 106V103.06ZM132.983 103.06H134.303V106C134.303 108.86 136.343 112.08 138.963 113.32L138.023 114.64C135.163 113.22 132.983 109.58 132.983 106V103.06ZM128.563 102.32H138.303V103.72H128.563V102.32ZM140.443 100.48H142.123V118.56H140.443V100.48ZM141.723 107.78H145.083V109.18H141.723V107.78ZM152.481 101.78C155.301 101.78 157.321 103.52 157.321 106.04C157.321 108.58 155.301 110.32 152.481 110.32C149.661 110.32 147.621 108.58 147.621 106.04C147.621 103.52 149.661 101.78 152.481 101.78ZM152.481 103.22C150.601 103.22 149.241 104.36 149.241 106.04C149.241 107.72 150.601 108.88 152.481 108.88C154.341 108.88 155.701 107.72 155.701 106.04C155.701 104.36 154.341 103.22 152.481 103.22ZM159.681 100.46H161.341V118.58H159.681V100.46ZM146.941 114.62L146.701 113.24C150.001 113.24 154.561 113.22 158.501 112.6L158.641 113.82C154.581 114.6 150.161 114.62 146.941 114.62ZM180.225 105.46H184.785V106.82H180.225V105.46ZM183.845 100.5H185.505V113.74H183.845V100.5ZM173.965 116.8H186.005V118.16H173.965V116.8ZM173.965 112.58H175.625V117.5H173.965V112.58ZM175.245 102.74H176.605V104.2C176.605 107.48 174.565 110.32 171.545 111.44L170.685 110.12C173.385 109.16 175.245 106.76 175.245 104.2V102.74ZM175.565 102.74H176.905V104.18C176.905 106.52 178.665 108.8 181.285 109.72L180.445 111.02C177.505 109.96 175.565 107.24 175.565 104.18V102.74ZM171.205 101.96H180.865V103.3H171.205V101.96ZM201.403 100.5H203.063V113.76H201.403V100.5ZM202.543 105.96H205.743V107.34H202.543V105.96ZM191.803 116.8H203.883V118.16H191.803V116.8ZM191.803 112.48H193.463V117.12H191.803V112.48ZM189.783 101.78H191.423V104.8H196.523V101.78H198.143V110.74H189.783V101.78ZM191.423 106.1V109.4H196.523V106.1H191.423ZM212.041 102.32H213.401V103.78C213.401 107.08 211.361 109.9 208.341 111.02L207.481 109.7C210.181 108.74 212.041 106.34 212.041 103.78V102.32ZM212.361 102.32H213.701V103.78C213.701 106.1 215.461 108.36 218.081 109.28L217.241 110.6C214.301 109.52 212.361 106.8 212.361 103.78V102.32ZM217.101 105.18H221.121V106.56H217.101V105.18ZM208.001 101.72H217.661V103.06H208.001V101.72ZM210.241 112.28H222.301V118.56H220.641V113.64H210.241V112.28ZM220.641 100.48H222.301V111.3H220.641V100.48ZM238.98 100.5H240.66V113.7H238.98V100.5ZM229.04 116.8H241.2V118.16H229.04V116.8ZM229.04 112.34H230.68V117.26H229.04V112.34ZM230.96 101.74C233.66 101.74 235.66 103.58 235.66 106.2C235.66 108.8 233.66 110.66 230.96 110.66C228.26 110.66 226.24 108.8 226.24 106.2C226.24 103.58 228.26 101.74 230.96 101.74ZM230.96 103.18C229.2 103.18 227.86 104.42 227.86 106.2C227.86 107.96 229.2 109.2 230.96 109.2C232.72 109.2 234.06 107.96 234.06 106.2C234.06 104.42 232.72 103.18 230.96 103.18ZM257.963 111.88C261.803 111.88 264.263 113.14 264.263 115.22C264.263 117.28 261.803 118.52 257.963 118.52C254.103 118.52 251.663 117.28 251.663 115.22C251.663 113.14 254.103 111.88 257.963 111.88ZM257.963 113.18C255.123 113.18 253.303 113.96 253.303 115.22C253.303 116.46 255.123 117.24 257.963 117.24C260.803 117.24 262.603 116.46 262.603 115.22C262.603 113.96 260.803 113.18 257.963 113.18ZM251.803 101.38H263.443V102.74H251.803V101.38ZM249.863 108.9H266.183V110.24H249.863V108.9ZM256.563 105.42H258.203V109.28H256.563V105.42ZM262.483 101.38H264.103V102.92C264.103 104.38 264.103 105.84 263.623 107.72L261.983 107.52C262.483 105.66 262.483 104.34 262.483 102.92V101.38ZM275.962 101.7H277.702C277.702 106.3 274.442 109.58 269.182 111.02L268.522 109.72C273.162 108.44 275.962 105.78 275.962 102.42V101.7ZM269.442 101.7H276.982V103.04H269.442V101.7ZM271.062 112.08H283.122V118.52H281.462V113.42H271.062V112.08ZM281.462 100.48H283.122V111.26H281.462V100.48ZM276.962 103.7H281.802V105.06H276.962V103.7ZM276.782 107.54H281.682V108.9H276.782V107.54ZM294.505 105.5H306.765V106.86H294.505V105.5ZM294.505 100.84H296.145V106.1H294.505V100.84ZM292.285 108.96H308.625V110.3H292.285V108.96ZM300.425 111.92C304.285 111.92 306.625 113.1 306.625 115.22C306.625 117.3 304.285 118.5 300.425 118.5C296.565 118.5 294.225 117.3 294.225 115.22C294.225 113.1 296.565 111.92 300.425 111.92ZM300.425 113.22C297.605 113.22 295.905 113.94 295.905 115.22C295.905 116.46 297.605 117.18 300.425 117.18C303.265 117.18 304.945 116.46 304.945 115.22C304.945 113.94 303.265 113.22 300.425 113.22ZM311.424 109.44H312.724C316.284 109.44 318.044 109.38 320.204 109L320.384 110.34C318.144 110.74 316.344 110.8 312.724 110.8H311.424V109.44ZM311.384 101.56H319.184V106.7H313.064V110.26H311.424V105.4H317.544V102.92H311.384V101.56ZM323.884 100.5H325.544V111.6H323.884V100.5ZM320.384 103.16H324.264V104.52H320.384V103.16ZM320.384 106.9H324.264V108.26H320.384V106.9ZM313.444 112.58H325.544V118.6H323.884V113.94H313.444V112.58ZM337.242 100.78C341.222 100.78 343.602 101.9 343.602 103.92C343.602 105.94 341.222 107.06 337.242 107.06C333.242 107.06 330.882 105.94 330.882 103.92C330.882 101.9 333.242 100.78 337.242 100.78ZM337.242 102.04C334.282 102.04 332.582 102.72 332.582 103.92C332.582 105.12 334.282 105.8 337.242 105.8C340.182 105.8 341.882 105.12 341.882 103.92C341.882 102.72 340.182 102.04 337.242 102.04ZM329.062 108.26H345.402V109.6H329.062V108.26ZM331.042 111.14H343.322V115.22H332.722V117.42H331.082V114.02H341.682V112.42H331.042V111.14ZM331.082 117.06H343.862V118.36H331.082V117.06ZM363.345 103.7H367.225V105.06H363.345V103.7ZM363.345 106.94H367.225V108.3H363.345V106.94ZM353.625 101.84H363.145V103.2H353.625V101.84ZM353.325 110.56L353.145 109.16C356.105 109.16 360.325 109.12 363.705 108.72L363.805 109.96C360.325 110.52 356.265 110.56 353.325 110.56ZM355.425 102.9H357.025V109.62H355.425V102.9ZM359.745 102.9H361.345V109.62H359.745V102.9ZM366.305 100.48H367.965V111.64H366.305V100.48ZM362.025 112C365.765 112 368.045 113.18 368.045 115.26C368.045 117.34 365.765 118.52 362.025 118.52C358.265 118.52 355.985 117.34 355.985 115.26C355.985 113.18 358.265 112 362.025 112ZM362.025 113.3C359.285 113.3 357.645 114.02 357.645 115.26C357.645 116.5 359.285 117.24 362.025 117.24C364.765 117.24 366.405 116.5 366.405 115.26C366.405 114.02 364.765 113.3 362.025 113.3ZM383.724 100.46H385.404V118.56H383.724V100.46ZM384.944 107.8H388.284V109.18H384.944V107.8ZM379.104 102.42H380.724C380.724 107.56 378.364 112.2 372.524 115.14L371.604 113.86C376.604 111.32 379.104 107.46 379.104 102.68V102.42ZM372.444 102.42H379.964V103.78H372.444V102.42ZM402.142 100.48H403.802V118.56H402.142V100.48ZM403.402 107.9H406.762V109.3H403.402V107.9ZM389.802 103.36H400.462V104.72H389.802V103.36ZM395.202 106.22C397.762 106.22 399.602 107.94 399.602 110.38C399.602 112.82 397.762 114.54 395.202 114.54C392.662 114.54 390.802 112.82 390.802 110.38C390.802 107.94 392.662 106.22 395.202 106.22ZM395.202 107.6C393.562 107.6 392.382 108.74 392.382 110.38C392.382 112 393.562 113.16 395.202 113.16C396.842 113.16 398.022 112 398.022 110.38C398.022 108.74 396.842 107.6 395.202 107.6ZM394.342 100.7H396.002V103.98H394.342V100.7ZM410.501 105.9H422.781V107.26H410.501V105.9ZM408.281 109.68H424.681V111.04H408.281V109.68ZM410.501 101.14H412.141V106.58H410.501V101.14ZM410.381 116.76H422.881V118.12H410.381V116.76ZM410.381 112.84H412.021V117.12H410.381V112.84ZM446.064 100.48H447.664V118.56H446.064V100.48ZM438.564 107.38H443.104V108.74H438.564V107.38ZM442.424 100.9H444.004V117.64H442.424V100.9ZM432.984 112.82H434.144C436.964 112.82 438.664 112.74 440.664 112.32L440.824 113.7C438.764 114.14 437.024 114.22 434.144 114.22H432.984V112.82ZM432.984 102.68H439.784V104.04H434.624V113.36H432.984V102.68ZM460.768 102.04H462.128V105.28C462.128 109.28 459.968 113.18 457.108 114.7L456.088 113.38C458.708 112.06 460.768 108.58 460.768 105.28V102.04ZM461.068 102.04H462.408V105.28C462.408 108.46 464.428 111.76 466.988 113.04L465.968 114.36C463.168 112.86 461.068 109.16 461.068 105.28V102.04ZM468.568 100.48H470.248V118.56H468.568V100.48ZM469.848 107.8H473.208V109.2H469.848V107.8ZM478.766 106.6H480.406V110.02H478.766V106.6ZM485.406 106.6H487.046V110.02H485.406V106.6ZM474.726 109.42H491.066V110.76H474.726V109.42ZM482.886 112.12C486.766 112.12 489.086 113.26 489.086 115.32C489.086 117.38 486.766 118.54 482.886 118.54C479.006 118.54 476.686 117.38 476.686 115.32C476.686 113.26 479.006 112.12 482.886 112.12ZM482.886 113.4C480.066 113.4 478.366 114.1 478.366 115.32C478.366 116.56 480.066 117.24 482.886 117.24C485.726 117.24 487.406 116.56 487.406 115.32C487.406 114.1 485.726 113.4 482.886 113.4ZM482.906 100.8C486.826 100.8 489.266 102.06 489.266 104.18C489.266 106.28 486.826 107.52 482.906 107.52C478.966 107.52 476.546 106.28 476.546 104.18C476.546 102.06 478.966 100.8 482.906 100.8ZM482.906 102.1C480.026 102.1 478.246 102.86 478.246 104.18C478.246 105.48 480.026 106.24 482.906 106.24C485.786 106.24 487.566 105.48 487.566 104.18C487.566 102.86 485.786 102.1 482.906 102.1ZM498.285 106.6H499.965V109.6H498.285V106.6ZM506.305 100.48H507.965V110.9H506.305V100.48ZM493.445 110.46L493.205 109.12C496.505 109.12 501.005 109.08 504.825 108.52L504.945 109.7C501.005 110.4 496.665 110.46 493.445 110.46ZM494.825 105.76H503.505V107.1H494.825V105.76ZM494.825 101.38H503.345V102.74H496.485V106.28H494.825V101.38ZM496.105 111.7H497.765V113.6H506.325V111.7H507.965V118.32H496.105V111.7ZM497.765 114.9V116.98H506.325V114.9H497.765ZM524.683 100.48H526.343V118.56H524.683V100.48ZM512.683 102.24H514.323V113.44H512.683V102.24ZM512.683 112.46H514.163C516.903 112.46 519.763 112.26 522.823 111.62L523.023 113.04C519.883 113.68 517.023 113.9 514.163 113.9H512.683V112.46ZM37.22 124.46H38.9V142.58H37.22V124.46ZM38.5 131.6H41.86V133H38.5V131.6ZM25.76 136.68H27.18C30.52 136.68 32.86 136.56 35.56 136.06L35.74 137.46C32.96 137.98 30.58 138.08 27.18 138.08H25.76V136.68ZM25.76 126.22H34.16V127.58H27.4V137.3H25.76V126.22ZM45.1541 141.114C44.8037 141.114 44.5031 140.988 44.2521 140.737C44.0012 140.486 43.8757 140.186 43.8757 139.835C43.8757 139.485 44.0012 139.184 44.2521 138.933C44.5031 138.682 44.8037 138.557 45.1541 138.557C45.5045 138.557 45.8052 138.682 46.0561 138.933C46.3071 139.184 46.4325 139.485 46.4325 139.835C46.4325 140.067 46.3733 140.28 46.255 140.474C46.1413 140.669 45.9875 140.825 45.7933 140.943C45.6039 141.057 45.3909 141.114 45.1541 141.114Z" fill="black"/>
<g clip-path="url(#clip0_1377_345)">
<path d="M213 53C222.941 53 231 44.9411 231 35C231 25.0589 222.941 17 213 17C203.059 17 195 25.0589 195 35C195 44.9411 203.059 53 213 53Z" fill="#E1E8ED"/>
<path d="M226.802 46.5462C223.792 45.2212 222 41.0482 222 35.0002C222 28.9522 223.792 24.7792 226.802 23.4542C226.356 22.9258 225.879 22.4237 225.374 21.9502C222.406 23.6052 220 27.5782 220 35.0002C220 42.4212 222.406 46.3952 225.374 48.0502C225.876 47.5732 226.358 47.0772 226.802 46.5462ZM206 35.0002C206 27.5792 203.594 23.6052 200.626 21.9512C200.122 22.4243 199.645 22.9262 199.198 23.4542C202.208 24.7802 204 28.9522 204 35.0002C204 41.0482 202.208 45.2202 199.198 46.5462C199.643 47.0772 200.124 47.5732 200.626 48.0502C203.593 46.3952 206 42.4212 206 35.0002Z" fill="#B3BEC4"/>
<path d="M200.092 27.164C199.855 27.164 199.635 27.144 199.441 27.108C199.18 27.0592 198.95 26.9088 198.8 26.69C198.726 26.5816 198.674 26.4597 198.646 26.3312C198.619 26.2027 198.618 26.0701 198.642 25.941C198.666 25.8119 198.716 25.6888 198.787 25.5788C198.859 25.4688 198.952 25.374 199.06 25.2998C199.279 25.15 199.548 25.0932 199.809 25.142C200.239 25.219 202.5 25.148 202.957 22.866C203.009 22.606 203.162 22.3773 203.383 22.2302C203.492 22.1574 203.615 22.1069 203.744 22.0814C203.873 22.056 204.005 22.0562 204.134 22.082C204.263 22.1078 204.385 22.1587 204.494 22.2318C204.603 22.3049 204.697 22.3988 204.77 22.5081C204.843 22.6174 204.893 22.74 204.919 22.8688C204.944 22.9977 204.944 23.1302 204.918 23.259C204.335 26.171 201.779 27.164 200.092 27.164ZM201.792 31.125C201.262 31.125 200.84 30.802 200.814 30.266C200.788 29.715 201.214 29.355 201.766 29.329C201.766 29.329 204.33 29.294 205.635 27.035C205.701 26.9219 205.789 26.823 205.894 26.744C205.998 26.665 206.117 26.6075 206.244 26.5748C206.371 26.5421 206.503 26.5348 206.633 26.5533C206.763 26.5719 206.887 26.616 207 26.683C207.478 26.959 207.642 27.577 207.365 28.056C205.514 31.262 201.808 31.125 201.792 31.125ZM204 36.282C203.266 36.282 202.586 36.147 202.072 35.904C201.832 35.7905 201.647 35.5864 201.558 35.3366C201.469 35.0868 201.483 34.8118 201.596 34.572C201.71 34.3322 201.914 34.1474 202.163 34.0581C202.413 33.9689 202.688 33.9825 202.928 34.096C203.758 34.489 205.854 34.335 206.658 33.084C206.729 32.9735 206.821 32.878 206.929 32.8031C207.037 32.7282 207.158 32.6752 207.287 32.6473C207.415 32.6193 207.548 32.6169 207.677 32.6402C207.806 32.6635 207.93 32.712 208.04 32.783C208.151 32.854 208.246 32.946 208.321 33.0539C208.396 33.1618 208.449 33.2833 208.477 33.4117C208.505 33.54 208.507 33.6726 208.484 33.8018C208.461 33.9311 208.412 34.0545 208.341 34.165C207.377 35.666 205.565 36.282 204 36.282ZM205.161 41.807C203.607 41.807 202.166 41.108 201.235 40.331C201.134 40.247 201.051 40.1439 200.99 40.0276C200.929 39.9113 200.891 39.7842 200.879 39.6534C200.867 39.5226 200.881 39.3907 200.92 39.2653C200.959 39.1399 201.023 39.0234 201.107 38.9225C201.191 38.8216 201.294 38.7382 201.41 38.6771C201.526 38.616 201.653 38.5785 201.784 38.5665C201.915 38.5546 202.047 38.5686 202.172 38.6076C202.298 38.6466 202.414 38.71 202.515 38.794C202.709 38.957 204.467 40.36 206.297 39.579C206.418 39.5277 206.548 39.5008 206.679 39.4997C206.811 39.4986 206.941 39.5234 207.063 39.5726C207.184 39.6219 207.295 39.6947 207.389 39.7868C207.483 39.8789 207.557 39.9886 207.609 40.1095C207.66 40.2304 207.687 40.3603 207.688 40.4917C207.689 40.623 207.664 40.7533 207.615 40.8751C207.566 40.9969 207.493 41.1078 207.401 41.2015C207.309 41.2951 207.199 41.3697 207.078 41.421C206.471 41.6772 205.82 41.8084 205.161 41.807ZM204.75 47H204.722C202.218 47 200.043 45.43 199.188 43.892C198.919 43.41 199.094 42.848 199.576 42.58C200.059 42.311 200.668 42.51 200.936 42.992C201.42 43.863 202.932 45.126 204.777 45.177C205.329 45.193 205.764 45.565 205.749 46.116C205.734 46.658 205.29 47 204.75 47ZM222.188 47.188C222.04 47.1881 221.894 47.1553 221.76 47.092C221.626 47.0287 221.508 46.9364 221.414 46.8219C221.32 46.7073 221.253 46.5734 221.217 46.4297C221.181 46.286 221.178 46.1362 221.207 45.991C221.871 42.669 225.101 41.841 226.685 42.142C226.946 42.191 227.176 42.3415 227.326 42.5603C227.475 42.7791 227.532 43.0484 227.483 43.309C227.46 43.4384 227.411 43.5618 227.339 43.6721C227.267 43.7824 227.175 43.8774 227.066 43.9517C226.958 44.0259 226.835 44.0778 226.707 44.1045C226.578 44.1312 226.445 44.132 226.316 44.107C225.891 44.027 223.626 44.1 223.169 46.383C223.124 46.61 223.002 46.8143 222.823 46.961C222.644 47.1078 222.419 47.188 222.188 47.188ZM219.624 42.688C219.449 42.6881 219.276 42.642 219.124 42.5542C218.972 42.4664 218.846 42.3401 218.758 42.1881C218.67 42.036 218.624 41.8634 218.624 41.6879C218.625 41.5123 218.671 41.3399 218.759 41.188C220.611 37.982 222.743 37.884 224.153 37.819L224.264 37.814C224.529 37.8013 224.788 37.8943 224.985 38.0727C225.181 38.251 225.298 38.5 225.311 38.765C225.324 39.03 225.231 39.2891 225.052 39.4855C224.874 39.6818 224.625 39.7993 224.36 39.812L224.245 39.817C223.041 39.873 221.796 39.929 220.491 42.188C220.403 42.3402 220.277 42.4665 220.125 42.5543C219.972 42.642 219.8 42.6882 219.624 42.688ZM218.624 36.625C218.445 36.625 218.268 36.5767 218.114 36.4851C217.96 36.3935 217.833 36.262 217.747 36.1044C217.661 35.9468 217.619 35.769 217.626 35.5896C217.632 35.4102 217.687 35.2359 217.784 35.085C219.199 32.882 222.44 32.584 224.052 33.347C224.29 33.4612 224.474 33.6652 224.562 33.9143C224.651 34.1634 224.637 34.4373 224.524 34.6763C224.411 34.9152 224.208 35.0997 223.959 35.1894C223.711 35.2791 223.437 35.2667 223.197 35.155C222.368 34.762 220.271 34.916 219.465 36.167C219.374 36.3076 219.25 36.4232 219.103 36.5032C218.956 36.5832 218.791 36.6251 218.624 36.625ZM224.249 30.688C224.015 30.6879 223.789 30.6058 223.609 30.456C223.415 30.294 221.657 28.897 219.828 29.671C219.586 29.7618 219.319 29.7557 219.082 29.654C218.845 29.5523 218.656 29.3629 218.555 29.1253C218.454 28.8877 218.449 28.6203 218.54 28.3789C218.632 28.1376 218.813 27.9409 219.046 27.83C221.265 26.888 223.581 27.829 224.89 28.92C225.048 29.0516 225.161 29.2287 225.215 29.4271C225.269 29.6255 225.26 29.8356 225.19 30.0288C225.12 30.2221 224.992 30.389 224.823 30.507C224.655 30.6249 224.455 30.6881 224.249 30.688ZM226.063 26.75C225.885 26.7502 225.709 26.7026 225.556 26.6122C225.402 26.5219 225.275 26.392 225.188 26.236C224.704 25.364 223.192 24.113 221.347 24.062C220.794 24.047 220.36 23.556 220.374 23.003C220.391 22.461 220.835 22 221.374 22H221.402C223.907 22 226.082 23.694 226.936 25.232C227.065 25.4664 227.097 25.7423 227.024 25.9999C226.951 26.2575 226.78 26.476 226.547 26.608C226.401 26.6959 226.234 26.7448 226.063 26.75Z" fill="#DD2E44"/>
</g>
<defs>
<clipPath id="clip0_1377_345">
<rect width="36" height="36" fill="white" transform="translate(195 17)"/>
</clipPath>
</defs>
</svg>
