<svg width="570" height="165" viewBox="0 0 570 165" fill="none" xmlns="http://www.w3.org/2000/svg">
<rect x="0.5" y="0.5" width="569" height="147" rx="17.5" fill="white" stroke="#8A9A6B"/>
<path d="M40.7406 22.995H44.2414V41.2097H40.7406V22.995ZM43.2412 30.4177H47.479V33.2868H43.2412V30.4177ZM25.0529 25.5219H39.3982V28.2594H25.0529V25.5219ZM32.2387 29.128C35.7395 29.128 38.2138 31.0495 38.2138 33.8396C38.2138 36.6297 35.7395 38.5248 32.2387 38.5248C28.7116 38.5248 26.2373 36.6297 26.2373 33.8396C26.2373 31.0495 28.7116 29.128 32.2387 29.128ZM32.2387 31.7865C30.6857 31.7865 29.6065 32.5235 29.6065 33.8396C29.6065 35.1557 30.6857 35.8663 32.2387 35.8663C33.7917 35.8663 34.8709 35.1557 34.8709 33.8396C34.8709 32.5235 33.7917 31.7865 32.2387 31.7865ZM30.4752 22.9424H33.9759V26.8643H30.4752V22.9424ZM28.5273 44.1314H45.1101V46.9215H28.5273V44.1314ZM28.5273 39.8409H32.0281V45.3422H28.5273V39.8409ZM72.5365 22.9687H76.0636V36.0769H72.5365V22.9687ZM59.8494 37.1298H63.2976V39.3935H72.5892V37.1298H76.0636V47.0794H59.8494V37.1298ZM63.2976 42.0783V44.2893H72.5892V42.0783H63.2976ZM62.7975 23.9689C66.5878 23.9689 69.4042 26.3642 69.4042 29.7334C69.4042 33.1026 66.5878 35.4978 62.7975 35.4978C59.0071 35.4978 56.1644 33.1026 56.1644 29.7334C56.1644 26.3642 59.0071 23.9689 62.7975 23.9689ZM62.7975 26.8643C60.9286 26.8643 59.5862 27.9435 59.5862 29.7334C59.5862 31.5496 60.9286 32.6024 62.7975 32.6024C64.64 32.6024 65.9824 31.5496 65.9824 29.7334C65.9824 27.9435 64.64 26.8643 62.7975 26.8643ZM93.0667 24.6533C96.778 24.6533 99.4628 28.0225 99.4628 33.3395C99.4628 38.7091 96.778 42.0783 93.0667 42.0783C89.3553 42.0783 86.6705 38.7091 86.6705 33.3395C86.6705 28.0225 89.3553 24.6533 93.0667 24.6533ZM93.0667 27.8382C91.2505 27.8382 90.0397 29.7597 90.0397 33.3395C90.0397 36.9719 91.2505 38.9197 93.0667 38.9197C94.8829 38.9197 96.12 36.9719 96.12 33.3395C96.12 29.7597 94.8829 27.8382 93.0667 27.8382ZM104.701 28.6279H108.991V31.5233H104.701V28.6279ZM104.701 35.7874H108.991V38.6565H104.701V35.7874ZM102.121 22.9687H105.648V47.3426H102.121V22.9687ZM113.28 24.3901H128.573V27.1538H113.28V24.3901ZM110.779 34.7608H132.81V37.5773H110.779V34.7608ZM119.913 36.735H123.44V47.369H119.913V36.735ZM126.783 24.3901H130.231V26.5484C130.231 29.1806 130.231 32.1287 129.283 36.4454L125.835 36.0506C126.783 31.9707 126.783 29.0753 126.783 26.5484V24.3901ZM146.839 24.2848H149.708V26.4432C149.708 31.2864 147.602 35.5505 142.97 37.1561L141.101 34.3923C145.181 33.0236 146.839 29.7597 146.839 26.4432V24.2848ZM147.55 24.2848H150.393V26.7853C150.393 29.7071 152.025 32.5498 155.841 33.7343L154.025 36.4454C149.629 34.9714 147.55 31.1811 147.55 26.7853V24.2848ZM157.184 22.9687H160.684V37.3667H157.184V22.9687ZM159.71 28.6015H163.922V31.4969H159.71V28.6015ZM152.735 37.9194C157.789 37.9194 160.974 39.683 160.974 42.631C160.974 45.6054 157.789 47.3426 152.735 47.3426C147.655 47.3426 144.47 45.6054 144.47 42.631C144.47 39.683 147.655 37.9194 152.735 37.9194ZM152.735 40.6306C149.629 40.6306 147.945 41.2886 147.945 42.631C147.945 43.9998 149.629 44.6315 152.735 44.6315C155.841 44.6315 157.499 43.9998 157.499 42.631C157.499 41.2886 155.841 40.6306 152.735 40.6306ZM171.422 24.0742H174.317V26.4168C174.317 31.0231 172.08 35.2083 167.315 36.735L165.605 33.9712C169.711 32.6551 171.422 29.4965 171.422 26.4168V24.0742ZM172.132 24.0742H175.001V26.4168C175.001 29.4175 176.686 32.3656 180.661 33.5764L178.95 36.3138C174.291 34.8398 172.132 30.9442 172.132 26.4168V24.0742ZM169.342 38.5775H185.978V47.3426H182.45V41.3676H169.342V38.5775ZM182.45 22.9687H185.978V37.4983H182.45V22.9687Z" fill="black"/>
<path d="M28.5384 93L24.3764 78.4545H27.7358L30.1435 88.5611H30.2642L32.9205 78.4545H35.7969L38.446 88.5824H38.5739L40.9815 78.4545H44.3409L40.179 93H37.1818L34.4119 83.4901H34.2983L31.5355 93H28.5384ZM47.0291 93H43.7337L48.755 78.4545H52.718L57.7322 93H54.4368L50.7933 81.7784H50.6797L47.0291 93ZM46.8232 87.2827H54.6072V89.6832H46.8232V87.2827ZM59.483 93V78.4545H65.2216C66.3201 78.4545 67.2576 78.651 68.0341 79.044C68.8153 79.4323 69.4096 79.9839 69.8168 80.6989C70.2287 81.4091 70.4347 82.2448 70.4347 83.206C70.4347 84.1719 70.2263 85.0028 69.8097 85.6989C69.393 86.3902 68.7893 86.9205 67.9986 87.2898C67.2126 87.6591 66.2609 87.8438 65.1435 87.8438H61.3011V85.3722H64.6463C65.2334 85.3722 65.7211 85.2917 66.1094 85.1307C66.4976 84.9697 66.7865 84.7282 66.9759 84.4062C67.17 84.0843 67.267 83.6842 67.267 83.206C67.267 82.723 67.17 82.3158 66.9759 81.9844C66.7865 81.6529 66.4953 81.402 66.1023 81.2315C65.714 81.0563 65.224 80.9688 64.6321 80.9688H62.5582V93H59.483ZM67.3381 86.3807L70.9531 93H67.5582L64.0213 86.3807H67.3381ZM77.8477 85.7273C77.8477 83.9659 78.082 82.3442 78.5508 80.8622C79.0243 79.3802 79.7463 78.0071 80.717 76.7429H83.6076C83.2383 77.2116 82.895 77.7846 82.5778 78.4616C82.2605 79.134 81.9835 79.8726 81.7468 80.6776C81.5101 81.4825 81.3254 82.3158 81.1928 83.1776C81.0603 84.0346 80.994 84.8845 80.994 85.7273C80.994 86.8494 81.1076 87.9834 81.3349 89.1293C81.5669 90.2704 81.8794 91.331 82.2724 92.3111C82.6701 93.2912 83.1152 94.0938 83.6076 94.7188H80.717C79.7463 93.4545 79.0243 92.0814 78.5508 90.5994C78.082 89.1174 77.8477 87.4934 77.8477 85.7273ZM88.6946 93L84.5327 78.4545H87.892L90.2997 88.5611H90.4205L93.0767 78.4545H95.9531L98.6023 88.5824H98.7301L101.138 78.4545H104.497L100.335 93H97.3381L94.5682 83.4901H94.4545L91.6918 93H88.6946ZM106.086 93V82.0909H109.112V93H106.086ZM107.606 80.6847C107.156 80.6847 106.77 80.5355 106.449 80.2372C106.131 79.9342 105.973 79.572 105.973 79.1506C105.973 78.7339 106.131 78.3764 106.449 78.0781C106.77 77.7751 107.156 77.6236 107.606 77.6236C108.056 77.6236 108.44 77.7751 108.757 78.0781C109.079 78.3764 109.24 78.7339 109.24 79.1506C109.24 79.572 109.079 79.9342 108.757 80.2372C108.44 80.5355 108.056 80.6847 107.606 80.6847ZM114.561 86.6932V93H111.536V82.0909H114.419V84.0156H114.547C114.788 83.3812 115.193 82.8793 115.761 82.5099C116.33 82.1359 117.018 81.9489 117.828 81.9489C118.586 81.9489 119.246 82.1146 119.81 82.446C120.373 82.7775 120.811 83.2509 121.124 83.8665C121.436 84.4773 121.592 85.2064 121.592 86.054V93H118.567V86.5938C118.571 85.9261 118.401 85.4053 118.055 85.0312C117.71 84.6525 117.234 84.4631 116.628 84.4631C116.221 84.4631 115.861 84.5507 115.548 84.7259C115.241 84.901 114.999 85.1567 114.824 85.4929C114.653 85.8243 114.566 86.2244 114.561 86.6932ZM133.054 85.2017L130.284 85.3722C130.236 85.1354 130.135 84.9223 129.978 84.733C129.822 84.5388 129.616 84.3849 129.36 84.2713C129.109 84.1529 128.809 84.0938 128.458 84.0938C127.99 84.0938 127.594 84.1932 127.272 84.392C126.95 84.5862 126.789 84.8466 126.789 85.1733C126.789 85.4337 126.894 85.6539 127.102 85.8338C127.31 86.0137 127.668 86.1581 128.174 86.267L130.149 86.6648C131.209 86.8826 132 87.233 132.521 87.7159C133.042 88.1989 133.302 88.8333 133.302 89.6193C133.302 90.3343 133.092 90.9616 132.67 91.5014C132.253 92.0412 131.681 92.4626 130.951 92.7656C130.227 93.0639 129.391 93.2131 128.444 93.2131C127 93.2131 125.85 92.9124 124.993 92.3111C124.14 91.705 123.641 90.8812 123.494 89.8395L126.47 89.6832C126.56 90.1236 126.778 90.4598 127.123 90.6918C127.469 90.919 127.912 91.0327 128.451 91.0327C128.982 91.0327 129.408 90.9309 129.73 90.7273C130.056 90.5189 130.222 90.2514 130.227 89.9247C130.222 89.6501 130.106 89.4252 129.879 89.25C129.652 89.0701 129.301 88.9328 128.828 88.8381L126.939 88.4616C125.873 88.2486 125.08 87.8793 124.559 87.3537C124.043 86.8281 123.785 86.1581 123.785 85.3438C123.785 84.643 123.975 84.0393 124.353 83.5327C124.737 83.026 125.274 82.6354 125.966 82.3608C126.662 82.0862 127.476 81.9489 128.409 81.9489C129.787 81.9489 130.871 82.2401 131.662 82.8224C132.457 83.4048 132.921 84.1979 133.054 85.2017ZM142.4 93H139.105L144.126 78.4545H148.089L153.103 93H149.808L146.164 81.7784H146.051L142.4 93ZM142.194 87.2827H149.978V89.6832H142.194V87.2827ZM154.854 93V78.4545H157.88V83.9233H157.972C158.105 83.6297 158.296 83.3314 158.547 83.0284C158.803 82.7206 159.134 82.465 159.542 82.2614C159.953 82.053 160.465 81.9489 161.076 81.9489C161.871 81.9489 162.605 82.1572 163.277 82.5739C163.95 82.9858 164.487 83.6084 164.89 84.4418C165.292 85.2704 165.493 86.3097 165.493 87.5597C165.493 88.7765 165.297 89.804 164.904 90.642C164.516 91.4754 163.985 92.1075 163.313 92.5384C162.645 92.9645 161.897 93.1776 161.069 93.1776C160.481 93.1776 159.982 93.0805 159.57 92.8864C159.163 92.6922 158.829 92.4484 158.569 92.1548C158.308 91.8565 158.109 91.5559 157.972 91.2528H157.837V93H154.854ZM157.816 87.5455C157.816 88.1941 157.906 88.7599 158.086 89.2429C158.266 89.7259 158.526 90.1023 158.867 90.3722C159.208 90.6373 159.622 90.7699 160.11 90.7699C160.602 90.7699 161.019 90.6349 161.36 90.3651C161.701 90.0904 161.959 89.7116 162.134 89.2287C162.314 88.741 162.404 88.1799 162.404 87.5455C162.404 86.9157 162.316 86.3617 162.141 85.8835C161.966 85.4053 161.708 85.0312 161.367 84.7614C161.026 84.4915 160.607 84.3565 160.11 84.3565C159.617 84.3565 159.201 84.4867 158.86 84.7472C158.524 85.0076 158.266 85.3769 158.086 85.8551C157.906 86.3333 157.816 86.8968 157.816 87.5455ZM172.441 93.2131C171.338 93.2131 170.384 92.9787 169.579 92.5099C168.779 92.0365 168.161 91.3783 167.725 90.5355C167.29 89.688 167.072 88.7055 167.072 87.5881C167.072 86.4612 167.29 85.4763 167.725 84.6335C168.161 83.786 168.779 83.1278 169.579 82.6591C170.384 82.1856 171.338 81.9489 172.441 81.9489C173.544 81.9489 174.496 82.1856 175.296 82.6591C176.101 83.1278 176.721 83.786 177.157 84.6335C177.593 85.4763 177.81 86.4612 177.81 87.5881C177.81 88.7055 177.593 89.688 177.157 90.5355C176.721 91.3783 176.101 92.0365 175.296 92.5099C174.496 92.9787 173.544 93.2131 172.441 93.2131ZM172.455 90.8693C172.957 90.8693 173.376 90.7273 173.712 90.4432C174.049 90.1544 174.302 89.7614 174.472 89.2642C174.647 88.767 174.735 88.2012 174.735 87.5668C174.735 86.9323 174.647 86.3665 174.472 85.8693C174.302 85.3722 174.049 84.9792 173.712 84.6903C173.376 84.4015 172.957 84.2571 172.455 84.2571C171.949 84.2571 171.522 84.4015 171.177 84.6903C170.836 84.9792 170.578 85.3722 170.403 85.8693C170.232 86.3665 170.147 86.9323 170.147 87.5668C170.147 88.2012 170.232 88.767 170.403 89.2642C170.578 89.7614 170.836 90.1544 171.177 90.4432C171.522 90.7273 171.949 90.8693 172.455 90.8693ZM189.597 82.0909L185.783 93H182.374L178.56 82.0909H181.756L184.021 89.8963H184.135L186.393 82.0909H189.597ZM195.765 93.2131C194.643 93.2131 193.677 92.9858 192.867 92.5312C192.062 92.072 191.442 91.4233 191.006 90.5852C190.571 89.7424 190.353 88.7457 190.353 87.5952C190.353 86.473 190.571 85.4882 191.006 84.6406C191.442 83.7931 192.055 83.1326 192.846 82.6591C193.641 82.1856 194.574 81.9489 195.644 81.9489C196.364 81.9489 197.034 82.0649 197.654 82.2969C198.279 82.5241 198.824 82.8674 199.288 83.3267C199.756 83.786 200.121 84.3636 200.381 85.0597C200.642 85.7509 200.772 86.5606 200.772 87.4886V88.3196H191.56V86.4446H197.924C197.924 86.009 197.829 85.6231 197.64 85.2869C197.451 84.9508 197.188 84.688 196.852 84.4986C196.52 84.3045 196.134 84.2074 195.694 84.2074C195.235 84.2074 194.827 84.3139 194.472 84.527C194.122 84.7353 193.847 85.017 193.648 85.3722C193.45 85.7225 193.348 86.1132 193.343 86.544V88.3267C193.343 88.8665 193.442 89.3329 193.641 89.7259C193.845 90.1188 194.131 90.4219 194.501 90.6349C194.87 90.848 195.308 90.9545 195.815 90.9545C196.151 90.9545 196.459 90.9072 196.738 90.8125C197.017 90.7178 197.256 90.5758 197.455 90.3864C197.654 90.197 197.806 89.965 197.91 89.6903L200.708 89.875C200.566 90.5473 200.275 91.1345 199.835 91.6364C199.399 92.1335 198.835 92.5218 198.144 92.8011C197.458 93.0758 196.665 93.2131 195.765 93.2131ZM207.432 93V78.4545H213.171C214.269 78.4545 215.207 78.651 215.983 79.044C216.765 79.4323 217.359 79.9839 217.766 80.6989C218.178 81.4091 218.384 82.2448 218.384 83.206C218.384 84.1719 218.176 85.0028 217.759 85.6989C217.342 86.3902 216.739 86.9205 215.948 87.2898C215.162 87.6591 214.21 87.8438 213.093 87.8438H209.25V85.3722H212.596C213.183 85.3722 213.67 85.2917 214.059 85.1307C214.447 84.9697 214.736 84.7282 214.925 84.4062C215.119 84.0843 215.216 83.6842 215.216 83.206C215.216 82.723 215.119 82.3158 214.925 81.9844C214.736 81.6529 214.444 81.402 214.051 81.2315C213.663 81.0563 213.173 80.9688 212.581 80.9688H210.507V93H207.432ZM215.287 86.3807L218.902 93H215.507L211.971 86.3807H215.287ZM225.296 93.2131C224.174 93.2131 223.208 92.9858 222.398 92.5312C221.594 92.072 220.973 91.4233 220.538 90.5852C220.102 89.7424 219.884 88.7457 219.884 87.5952C219.884 86.473 220.102 85.4882 220.538 84.6406C220.973 83.7931 221.586 83.1326 222.377 82.6591C223.173 82.1856 224.105 81.9489 225.175 81.9489C225.895 81.9489 226.565 82.0649 227.185 82.2969C227.81 82.5241 228.355 82.8674 228.819 83.3267C229.288 83.786 229.652 84.3636 229.913 85.0597C230.173 85.7509 230.303 86.5606 230.303 87.4886V88.3196H221.092V86.4446H227.455C227.455 86.009 227.361 85.6231 227.171 85.2869C226.982 84.9508 226.719 84.688 226.383 84.4986C226.051 84.3045 225.665 84.2074 225.225 84.2074C224.766 84.2074 224.359 84.3139 224.004 84.527C223.653 84.7353 223.379 85.017 223.18 85.3722C222.981 85.7225 222.879 86.1132 222.874 86.544V88.3267C222.874 88.8665 222.974 89.3329 223.173 89.7259C223.376 90.1188 223.663 90.4219 224.032 90.6349C224.401 90.848 224.839 90.9545 225.346 90.9545C225.682 90.9545 225.99 90.9072 226.269 90.8125C226.549 90.7178 226.788 90.5758 226.987 90.3864C227.185 90.197 227.337 89.965 227.441 89.6903L230.239 89.875C230.097 90.5473 229.806 91.1345 229.366 91.6364C228.93 92.1335 228.367 92.5218 227.675 92.8011C226.989 93.0758 226.196 93.2131 225.296 93.2131ZM232.278 97.0909V82.0909H235.261V83.9233H235.396C235.528 83.6297 235.72 83.3314 235.971 83.0284C236.227 82.7206 236.558 82.465 236.965 82.2614C237.377 82.053 237.888 81.9489 238.499 81.9489C239.295 81.9489 240.029 82.1572 240.701 82.5739C241.373 82.9858 241.911 83.6084 242.313 84.4418C242.716 85.2704 242.917 86.3097 242.917 87.5597C242.917 88.7765 242.72 89.804 242.327 90.642C241.939 91.4754 241.409 92.1075 240.737 92.5384C240.069 92.9645 239.321 93.1776 238.492 93.1776C237.905 93.1776 237.406 93.0805 236.994 92.8864C236.586 92.6922 236.253 92.4484 235.992 92.1548C235.732 91.8565 235.533 91.5559 235.396 91.2528H235.303V97.0909H232.278ZM235.239 87.5455C235.239 88.1941 235.329 88.7599 235.509 89.2429C235.689 89.7259 235.95 90.1023 236.29 90.3722C236.631 90.6373 237.046 90.7699 237.533 90.7699C238.026 90.7699 238.442 90.6349 238.783 90.3651C239.124 90.0904 239.382 89.7116 239.558 89.2287C239.737 88.741 239.827 88.1799 239.827 87.5455C239.827 86.9157 239.74 86.3617 239.565 85.8835C239.389 85.4053 239.131 85.0312 238.79 84.7614C238.45 84.4915 238.031 84.3565 237.533 84.3565C237.041 84.3565 236.624 84.4867 236.283 84.7472C235.947 85.0076 235.689 85.3769 235.509 85.8551C235.329 86.3333 235.239 86.8968 235.239 87.5455ZM247.96 78.4545V93H244.934V78.4545H247.96ZM253.494 93.206C252.798 93.206 252.178 93.0852 251.633 92.8438C251.089 92.5975 250.658 92.2353 250.341 91.7571C250.028 91.2741 249.872 90.6728 249.872 89.9531C249.872 89.3471 249.983 88.8381 250.206 88.4261C250.428 88.0142 250.731 87.6828 251.115 87.4318C251.498 87.1809 251.934 86.9915 252.422 86.8636C252.914 86.7358 253.43 86.6458 253.97 86.5938C254.604 86.5275 255.116 86.4659 255.504 86.4091C255.892 86.3475 256.174 86.2576 256.349 86.1392C256.524 86.0208 256.612 85.8456 256.612 85.6136V85.571C256.612 85.1212 256.47 84.7732 256.186 84.527C255.906 84.2808 255.509 84.1577 254.993 84.1577C254.448 84.1577 254.015 84.2784 253.693 84.5199C253.371 84.7566 253.158 85.0549 253.054 85.4148L250.255 85.1875C250.397 84.5246 250.677 83.9517 251.093 83.4688C251.51 82.9811 252.047 82.607 252.706 82.3466C253.368 82.0814 254.136 81.9489 255.007 81.9489C255.613 81.9489 256.193 82.0199 256.747 82.1619C257.306 82.304 257.8 82.5241 258.231 82.8224C258.667 83.1207 259.01 83.5043 259.261 83.973C259.512 84.437 259.637 84.9934 259.637 85.642V93H256.768V91.4872H256.683C256.508 91.8281 256.273 92.1288 255.98 92.3892C255.686 92.6449 255.333 92.8461 254.922 92.9929C254.51 93.1349 254.034 93.206 253.494 93.206ZM254.36 91.1179C254.806 91.1179 255.199 91.0303 255.539 90.8551C255.88 90.6752 256.148 90.4337 256.342 90.1307C256.536 89.8277 256.633 89.4844 256.633 89.1009V87.9432C256.538 88.0047 256.408 88.0616 256.243 88.1136C256.082 88.161 255.899 88.206 255.696 88.2486C255.492 88.2865 255.288 88.322 255.085 88.3551C254.881 88.3835 254.697 88.4096 254.531 88.4332C254.176 88.4853 253.866 88.5682 253.6 88.6818C253.335 88.7955 253.129 88.9493 252.983 89.1435C252.836 89.3329 252.762 89.5696 252.762 89.8537C252.762 90.2656 252.912 90.5805 253.21 90.7983C253.513 91.0114 253.896 91.1179 254.36 91.1179ZM266.914 93.2131C265.796 93.2131 264.835 92.9763 264.03 92.5028C263.23 92.0246 262.614 91.3617 262.184 90.5142C261.757 89.6667 261.544 88.6913 261.544 87.5881C261.544 86.4706 261.76 85.4905 262.191 84.6477C262.626 83.8002 263.244 83.1397 264.044 82.6662C264.845 82.188 265.796 81.9489 266.9 81.9489C267.851 81.9489 268.685 82.1217 269.4 82.4673C270.114 82.813 270.68 83.2983 271.097 83.9233C271.514 84.5483 271.743 85.2822 271.786 86.125H268.931C268.85 85.5805 268.637 85.1425 268.292 84.8111C267.951 84.4749 267.503 84.3068 266.949 84.3068C266.48 84.3068 266.071 84.4347 265.721 84.6903C265.375 84.9413 265.105 85.3082 264.911 85.7912C264.717 86.2741 264.62 86.8589 264.62 87.5455C264.62 88.2415 264.714 88.8333 264.904 89.321C265.098 89.8087 265.37 90.1804 265.721 90.4361C266.071 90.6918 266.48 90.8196 266.949 90.8196C267.295 90.8196 267.605 90.7486 267.88 90.6065C268.159 90.4645 268.389 90.2585 268.569 89.9886C268.753 89.714 268.874 89.3849 268.931 89.0014H271.786C271.739 89.8348 271.511 90.5687 271.104 91.2031C270.702 91.8329 270.145 92.3253 269.435 92.6804C268.725 93.0355 267.884 93.2131 266.914 93.2131ZM278.695 93.2131C277.572 93.2131 276.607 92.9858 275.797 92.5312C274.992 92.072 274.372 91.4233 273.936 90.5852C273.5 89.7424 273.283 88.7457 273.283 87.5952C273.283 86.473 273.5 85.4882 273.936 84.6406C274.372 83.7931 274.985 83.1326 275.776 82.6591C276.571 82.1856 277.504 81.9489 278.574 81.9489C279.294 81.9489 279.964 82.0649 280.584 82.2969C281.209 82.5241 281.753 82.8674 282.217 83.3267C282.686 83.786 283.051 84.3636 283.311 85.0597C283.571 85.7509 283.702 86.5606 283.702 87.4886V88.3196H274.49V86.4446H280.854C280.854 86.009 280.759 85.6231 280.57 85.2869C280.38 84.9508 280.117 84.688 279.781 84.4986C279.45 84.3045 279.064 84.2074 278.624 84.2074C278.164 84.2074 277.757 84.3139 277.402 84.527C277.052 84.7353 276.777 85.017 276.578 85.3722C276.379 85.7225 276.277 86.1132 276.273 86.544V88.3267C276.273 88.8665 276.372 89.3329 276.571 89.7259C276.775 90.1188 277.061 90.4219 277.43 90.6349C277.8 90.848 278.238 90.9545 278.744 90.9545C279.08 90.9545 279.388 90.9072 279.668 90.8125C279.947 90.7178 280.186 90.5758 280.385 90.3864C280.584 90.197 280.735 89.965 280.839 89.6903L283.638 89.875C283.496 90.5473 283.205 91.1345 282.764 91.6364C282.329 92.1335 281.765 92.5218 281.074 92.8011C280.387 93.0758 279.594 93.2131 278.695 93.2131ZM285.676 93V82.0909H288.56V84.0156H288.688C288.915 83.3764 289.294 82.8722 289.824 82.5028C290.354 82.1335 290.989 81.9489 291.727 81.9489C292.475 81.9489 293.112 82.1359 293.638 82.5099C294.163 82.8793 294.514 83.3812 294.689 84.0156H294.803C295.025 83.3906 295.428 82.8911 296.01 82.517C296.597 82.1383 297.291 81.9489 298.091 81.9489C299.109 81.9489 299.935 82.2732 300.57 82.9219C301.209 83.5658 301.528 84.4796 301.528 85.6634V93H298.51V86.2599C298.51 85.6539 298.349 85.1993 298.027 84.8963C297.705 84.5933 297.303 84.4418 296.82 84.4418C296.27 84.4418 295.842 84.617 295.534 84.9673C295.226 85.313 295.072 85.7699 295.072 86.3381V93H292.139V86.196C292.139 85.661 291.985 85.2348 291.678 84.9176C291.375 84.6004 290.974 84.4418 290.477 84.4418C290.141 84.4418 289.838 84.527 289.568 84.6974C289.303 84.8632 289.092 85.0975 288.936 85.4006C288.78 85.6989 288.702 86.0492 288.702 86.4517V93H285.676ZM308.89 93.2131C307.768 93.2131 306.802 92.9858 305.992 92.5312C305.187 92.072 304.567 91.4233 304.131 90.5852C303.696 89.7424 303.478 88.7457 303.478 87.5952C303.478 86.473 303.696 85.4882 304.131 84.6406C304.567 83.7931 305.18 83.1326 305.971 82.6591C306.766 82.1856 307.699 81.9489 308.769 81.9489C309.489 81.9489 310.159 82.0649 310.779 82.2969C311.404 82.5241 311.949 82.8674 312.413 83.3267C312.881 83.786 313.246 84.3636 313.506 85.0597C313.767 85.7509 313.897 86.5606 313.897 87.4886V88.3196H304.685V86.4446H311.049C311.049 86.009 310.954 85.6231 310.765 85.2869C310.576 84.9508 310.313 84.688 309.977 84.4986C309.645 84.3045 309.259 84.2074 308.819 84.2074C308.36 84.2074 307.952 84.3139 307.597 84.527C307.247 84.7353 306.972 85.017 306.773 85.3722C306.575 85.7225 306.473 86.1132 306.468 86.544V88.3267C306.468 88.8665 306.567 89.3329 306.766 89.7259C306.97 90.1188 307.256 90.4219 307.626 90.6349C307.995 90.848 308.433 90.9545 308.94 90.9545C309.276 90.9545 309.584 90.9072 309.863 90.8125C310.142 90.7178 310.381 90.5758 310.58 90.3864C310.779 90.197 310.931 89.965 311.035 89.6903L313.833 89.875C313.691 90.5473 313.4 91.1345 312.96 91.6364C312.524 92.1335 311.96 92.5218 311.269 92.8011C310.583 93.0758 309.79 93.2131 308.89 93.2131ZM318.897 86.6932V93H315.871V82.0909H318.755V84.0156H318.883C319.124 83.3812 319.529 82.8793 320.097 82.5099C320.665 82.1359 321.354 81.9489 322.164 81.9489C322.922 81.9489 323.582 82.1146 324.146 82.446C324.709 82.7775 325.147 83.2509 325.46 83.8665C325.772 84.4773 325.928 85.2064 325.928 86.054V93H322.903V86.5938C322.907 85.9261 322.737 85.4053 322.391 85.0312C322.046 84.6525 321.57 84.4631 320.964 84.4631C320.557 84.4631 320.197 84.5507 319.884 84.7259C319.576 84.901 319.335 85.1567 319.16 85.4929C318.989 85.8243 318.902 86.2244 318.897 86.6932ZM334.115 82.0909V84.3636H327.546V82.0909H334.115ZM329.037 79.4773H332.063V89.6477C332.063 89.9271 332.105 90.1449 332.191 90.3011C332.276 90.4527 332.394 90.5592 332.546 90.6207C332.702 90.6823 332.882 90.7131 333.086 90.7131C333.228 90.7131 333.37 90.7012 333.512 90.6776C333.654 90.6491 333.763 90.6278 333.838 90.6136L334.314 92.8651C334.163 92.9124 333.95 92.9669 333.675 93.0284C333.4 93.0947 333.067 93.1349 332.674 93.1491C331.944 93.1776 331.305 93.0805 330.756 92.858C330.212 92.6354 329.788 92.2898 329.485 91.821C329.182 91.3523 329.033 90.7604 329.037 90.0455V79.4773ZM341.186 87.169C341.186 88.9351 340.949 90.5592 340.475 92.0412C340.007 93.5232 339.287 94.8963 338.316 96.1605H335.426C335.795 95.6918 336.138 95.1188 336.456 94.4418C336.773 93.7647 337.05 93.026 337.287 92.2259C337.523 91.4209 337.708 90.5876 337.841 89.7259C337.973 88.8641 338.039 88.0118 338.039 87.169C338.039 86.0469 337.923 84.9152 337.691 83.7741C337.464 82.6283 337.152 81.5677 336.754 80.5923C336.361 79.6122 335.918 78.8097 335.426 78.1847H338.316C339.287 79.4489 340.007 80.822 340.475 82.304C340.949 83.786 341.186 85.4077 341.186 87.169ZM346.263 81.9H358.543V83.26H346.263V81.9ZM344.043 85.68H360.443V87.04H344.043V85.68ZM346.263 77.14H347.903V82.58H346.263V77.14ZM346.143 92.76H358.643V94.12H346.143V92.76ZM346.143 88.84H347.783V93.12H346.143V88.84ZM381.826 76.48H383.426V94.56H381.826V76.48ZM378.766 83.72H382.246V85.1H378.766V83.72ZM377.726 76.88H379.286V93.64H377.726V76.88ZM368.726 88.72H369.906C372.546 88.72 374.346 88.62 376.446 88.18L376.606 89.56C374.446 90.02 372.626 90.1 369.906 90.1H368.726V88.72ZM368.726 78.68H375.446V80.04H370.366V89.34H368.726V78.68ZM393.844 83.62H397.264V84.98H393.844V83.62ZM390.164 81.1H391.444V82.04C391.444 85.64 389.944 89.28 387.304 90.86L386.324 89.6C388.764 88.18 390.164 85 390.164 82.04V81.1ZM390.464 81.1H391.744V82.04C391.744 84.92 393.184 87.9 395.624 89.22L394.684 90.46C392.024 88.98 390.464 85.56 390.464 82.04V81.1ZM386.824 79.8H395.084V81.18H386.824V79.8ZM390.164 77.12H391.764V80.86H390.164V77.12ZM400.224 76.48H401.824V94.56H400.224V76.48ZM396.604 76.9H398.164V93.64H396.604V76.9ZM419.768 80.74H424.328V82.12H419.768V80.74ZM415.028 77.58H416.368V79.8C416.368 83.3 414.408 86.22 411.388 87.44L410.528 86.12C413.208 85.12 415.028 82.56 415.028 79.8V77.58ZM415.348 77.58H416.688V79.86C416.688 82.38 418.448 84.76 421.068 85.72L420.168 87C417.288 85.88 415.348 83.08 415.348 79.86V77.58ZM423.708 76.5H425.368V90.02H423.708V76.5ZM413.748 92.8H425.808V94.16H413.748V92.8ZM413.748 88.52H415.408V93.44H413.748V88.52ZM436.206 77.12H437.666V78.12C437.666 81.58 434.146 84.06 430.386 84.7L429.726 83.36C433.026 82.86 436.206 80.7 436.206 78.12V77.12ZM436.506 77.12H437.946V78.12C437.946 80.64 441.166 82.86 444.426 83.36L443.766 84.7C440.046 84.06 436.506 81.54 436.506 78.12V77.12ZM436.206 87.68H437.846V94.56H436.206V87.68ZM428.906 86.66H445.246V88.04H428.906V86.66ZM466.67 76.48H468.27V94.56H466.67V76.48ZM463.61 83.72H467.09V85.1H463.61V83.72ZM462.57 76.88H464.13V93.64H462.57V76.88ZM453.57 88.72H454.75C457.39 88.72 459.19 88.62 461.29 88.18L461.45 89.56C459.29 90.02 457.47 90.1 454.75 90.1H453.57V88.72ZM453.57 78.68H460.29V80.04H455.21V89.34H453.57V78.68ZM484.448 76.46H486.108V94.58H484.448V76.46ZM472.348 78H473.988V82.78H479.208V78H480.868V90.22H472.348V78ZM473.988 84.1V88.86H479.208V84.1H473.988ZM508.552 76.48H510.212V85.68H508.552V76.48ZM504.292 80.48H509.332V81.84H504.292V80.48ZM500.272 77.08C502.972 77.08 504.932 78.76 504.932 81.2C504.932 83.6 502.972 85.3 500.272 85.3C497.572 85.3 495.612 83.6 495.612 81.2C495.612 78.76 497.572 77.08 500.272 77.08ZM500.272 78.46C498.512 78.46 497.212 79.6 497.212 81.2C497.212 82.8 498.512 83.94 500.272 83.94C502.032 83.94 503.332 82.8 503.332 81.2C503.332 79.6 502.032 78.46 500.272 78.46ZM498.572 86.66H510.212V91.02H500.232V93.74H498.612V89.78H508.572V87.98H498.572V86.66ZM498.612 93H510.872V94.32H498.612V93ZM514.45 78.28H522.75V89.98H514.45V78.28ZM521.13 79.62H516.07V88.64H521.13V79.62ZM525.97 76.48H527.65V94.56H525.97V76.48ZM527.25 83.7H530.61V85.1H527.25V83.7ZM38.44 107.68H41.78V109.08H38.44V107.68ZM37.22 100.46H38.9V118.56H37.22V100.46ZM25.7 102.24H27.36V113.44H25.7V102.24ZM25.7 112.58H27.14C29.82 112.58 32.56 112.4 35.54 111.78L35.74 113.16C32.66 113.8 29.88 113.98 27.14 113.98H25.7V112.58ZM50.0634 108.84H51.5234C55.4234 108.84 57.5634 108.76 60.1034 108.32L60.2834 109.64C57.6634 110.1 55.4634 110.16 51.5234 110.16H50.0634V108.84ZM50.0634 101.58H58.6634V102.92H51.7034V109.52H50.0634V101.58ZM51.1634 105.14H58.1634V106.48H51.1634V105.14ZM62.1634 100.5H63.8434V111.26H62.1634V100.5ZM52.1634 112.16H63.8434V118.32H52.1634V112.16ZM62.2034 113.5H53.7834V116.98H62.2034V113.5ZM74.7419 107.5H78.1619V108.88H74.7419V107.5ZM81.1819 100.48H82.7819V118.56H81.1819V100.48ZM77.6019 100.86H79.1819V117.66H77.6019V100.86ZM71.4819 101.98C73.8219 101.98 75.3419 104.4 75.3419 108.28C75.3419 112.16 73.8219 114.58 71.4819 114.58C69.1419 114.58 67.6419 112.16 67.6419 108.28C67.6419 104.4 69.1419 101.98 71.4819 101.98ZM71.4819 103.52C70.0619 103.52 69.1619 105.36 69.1619 108.28C69.1619 111.2 70.0619 113.04 71.4819 113.04C72.9219 113.04 73.8219 111.2 73.8219 108.28C73.8219 105.36 72.9219 103.52 71.4819 103.52ZM104.605 100.48H106.265V118.56H104.605V100.48ZM99.3053 102.42H100.945C100.945 107.66 98.5853 112.24 92.5453 115.2L91.6653 113.86C96.8853 111.34 99.3053 107.5 99.3053 102.7V102.42ZM92.4853 102.42H100.025V103.78H92.4853V102.42ZM117.984 104.5H123.444V105.88H117.984V104.5ZM117.984 110.22H123.444V111.6H117.984V110.22ZM114.664 101.86C117.284 101.86 119.164 104.32 119.164 108.16C119.164 112.02 117.284 114.48 114.664 114.48C112.024 114.48 110.164 112.02 110.164 108.16C110.164 104.32 112.024 101.86 114.664 101.86ZM114.664 103.36C112.924 103.36 111.724 105.24 111.724 108.16C111.724 111.1 112.924 113.02 114.664 113.02C116.404 113.02 117.604 111.1 117.604 108.16C117.604 105.24 116.404 103.36 114.664 103.36ZM123.084 100.46H124.724V118.58H123.084V100.46ZM141.882 100.5H143.462V111.68H141.882V100.5ZM138.942 105.44H142.362V106.8H138.942V105.44ZM138.042 100.76H139.622V111.42H138.042V100.76ZM128.142 102.54H137.302V103.86H128.142V102.54ZM132.742 104.76C135.002 104.76 136.582 105.98 136.582 107.86C136.582 109.74 135.002 110.96 132.742 110.96C130.462 110.96 128.882 109.74 128.882 107.86C128.882 105.98 130.462 104.76 132.742 104.76ZM132.742 106.02C131.322 106.02 130.362 106.74 130.362 107.86C130.362 108.98 131.322 109.72 132.742 109.72C134.142 109.72 135.102 108.98 135.102 107.86C135.102 106.74 134.142 106.02 132.742 106.02ZM131.922 100.56H133.542V103.32H131.922V100.56ZM133.002 112.22H134.282V112.84C134.282 115.12 132.782 117.4 130.162 118.34L129.382 117.1C131.642 116.34 133.002 114.48 133.002 112.84V112.22ZM133.382 112.22H134.602V112.84C134.602 114.58 135.662 116.42 137.822 117.24L137.122 118.5C134.542 117.54 133.382 115.14 133.382 112.84V112.22ZM139.642 112.22H140.862V112.84C140.862 114.88 139.682 117.46 137.122 118.5L136.442 117.24C138.542 116.32 139.642 114.34 139.642 112.84V112.22ZM139.982 112.22H141.262V112.84C141.262 114.6 142.622 116.38 144.902 117.1L144.102 118.34C141.462 117.44 139.982 115.24 139.982 112.84V112.22ZM148.841 105.9H161.121V107.26H148.841V105.9ZM146.621 109.68H163.021V111.04H146.621V109.68ZM148.841 101.14H150.481V106.58H148.841V101.14ZM148.721 116.76H161.221V118.12H148.721V116.76ZM148.721 112.84H150.361V117.12H148.721V112.84ZM169.819 103.06H171.159V106C171.159 109.82 168.859 113.66 165.979 115.08L165.019 113.76C167.639 112.52 169.819 109.12 169.819 106V103.06ZM170.139 103.06H171.479V106C171.479 109.06 173.659 112.18 176.319 113.32L175.379 114.64C172.459 113.28 170.139 109.76 170.139 106V103.06ZM165.619 102.32H175.719V103.72H165.619V102.32ZM178.159 100.48H179.819V118.56H178.159V100.48ZM183.418 108.88H199.818V110.14H183.418V108.88ZM185.358 111.6H197.758V115.46H187.058V117.58H185.418V114.32H196.138V112.78H185.358V111.6ZM185.418 117.14H198.338V118.34H185.418V117.14ZM185.498 101H197.698V104.76H187.178V106.72H185.538V103.64H196.078V102.18H185.498V101ZM185.538 106.32H198.038V107.52H185.538V106.32ZM220.901 107.68H224.241V109.08H220.901V107.68ZM219.681 100.46H221.361V118.56H219.681V100.46ZM208.161 102.24H209.821V113.44H208.161V102.24ZM208.161 112.58H209.601C212.281 112.58 215.021 112.4 218.001 111.78L218.201 113.16C215.121 113.8 212.341 113.98 209.601 113.98H208.161V112.58ZM226.619 112.84H228.039C231.379 112.84 233.679 112.76 236.399 112.28L236.579 113.64C233.779 114.12 231.419 114.22 228.039 114.22H226.619V112.84ZM226.619 102.12H235.039V103.5H228.279V113.32H226.619V102.12ZM227.859 107.18H234.639V108.52H227.859V107.18ZM238.079 100.48H239.759V118.56H238.079V100.48ZM239.359 107.74H242.719V109.14H239.359V107.74ZM257.978 100.48H259.578V118.56H257.978V100.48ZM254.938 107.84H258.418V109.2H254.938V107.84ZM253.878 100.88H255.438V117.64H253.878V100.88ZM245.118 102.66H246.778V113.1H245.118V102.66ZM245.118 112.44H246.278C248.138 112.44 250.218 112.32 252.578 111.86L252.758 113.3C250.298 113.78 248.218 113.88 246.278 113.88H245.118V112.44ZM264.856 105.9H277.136V107.26H264.856V105.9ZM262.636 109.68H279.036V111.04H262.636V109.68ZM264.856 101.14H266.496V106.58H264.856V101.14ZM264.736 116.76H277.236V118.12H264.736V116.76ZM264.736 112.84H266.376V117.12H264.736V112.84ZM299.84 100.48H301.5V118.56H299.84V100.48ZM294.54 102.42H296.18C296.18 107.66 293.82 112.24 287.78 115.2L286.9 113.86C292.12 111.34 294.54 107.5 294.54 102.7V102.42ZM287.72 102.42H295.26V103.78H287.72V102.42ZM305.058 110.42H321.458V111.78H305.058V110.42ZM307.138 100.94H319.338V105.32H308.818V107.76H307.178V104.1H317.718V102.24H307.138V100.94ZM307.178 107.22H319.738V108.52H307.178V107.22ZM312.418 107.9H314.078V111.1H312.418V107.9ZM306.878 113.16H319.458V118.4H317.798V114.52H306.878V113.16ZM336.617 100.48H338.297V110.18H336.617V100.48ZM326.637 111.08H328.277V113.28H336.657V111.08H338.297V118.32H326.637V111.08ZM328.277 114.6V116.98H336.657V114.6H328.277ZM328.597 101.34C331.337 101.34 333.297 103.04 333.297 105.5C333.297 107.98 331.337 109.68 328.597 109.68C325.857 109.68 323.877 107.98 323.877 105.5C323.877 103.04 325.857 101.34 328.597 101.34ZM328.597 102.72C326.797 102.72 325.497 103.86 325.497 105.5C325.497 107.14 326.797 108.28 328.597 108.28C330.397 108.28 331.697 107.14 331.697 105.5C331.697 103.86 330.397 102.72 328.597 102.72ZM355.015 100.48H356.675V118.56H355.015V100.48ZM343.015 102.24H344.655V113.44H343.015V102.24ZM343.015 112.46H344.495C347.235 112.46 350.095 112.26 353.155 111.62L353.355 113.04C350.215 113.68 347.355 113.9 344.495 113.9H343.015V112.46ZM372.493 100.46H374.173V118.58H372.493V100.46ZM373.773 107.6H377.133V109H373.773V107.6ZM361.033 112.68H362.453C365.793 112.68 368.133 112.56 370.833 112.06L371.013 113.46C368.233 113.98 365.853 114.08 362.453 114.08H361.033V112.68ZM361.033 102.22H369.433V103.58H362.673V113.3H361.033V102.22ZM380.428 117.114C380.077 117.114 379.777 116.988 379.526 116.737C379.275 116.486 379.149 116.186 379.149 115.835C379.149 115.485 379.275 115.184 379.526 114.933C379.777 114.682 380.077 114.557 380.428 114.557C380.778 114.557 381.079 114.682 381.33 114.933C381.58 115.184 381.706 115.485 381.706 115.835C381.706 116.067 381.647 116.28 381.528 116.474C381.415 116.669 381.261 116.825 381.067 116.943C380.877 117.057 380.664 117.114 380.428 117.114Z" fill="black"/>
<g clip-path="url(#clip0_1377_354)">
<path d="M213 53C222.941 53 231 44.9411 231 35C231 25.0589 222.941 17 213 17C203.059 17 195 25.0589 195 35C195 44.9411 203.059 53 213 53Z" fill="#E1E8ED"/>
<path d="M226.802 46.5462C223.792 45.2212 222 41.0482 222 35.0002C222 28.9522 223.792 24.7792 226.802 23.4542C226.356 22.9258 225.879 22.4237 225.374 21.9502C222.406 23.6052 220 27.5782 220 35.0002C220 42.4212 222.406 46.3952 225.374 48.0502C225.876 47.5732 226.358 47.0772 226.802 46.5462ZM206 35.0002C206 27.5792 203.594 23.6052 200.626 21.9512C200.122 22.4243 199.645 22.9262 199.198 23.4542C202.208 24.7802 204 28.9522 204 35.0002C204 41.0482 202.208 45.2202 199.198 46.5462C199.643 47.0772 200.124 47.5732 200.626 48.0502C203.593 46.3952 206 42.4212 206 35.0002Z" fill="#B3BEC4"/>
<path d="M200.092 27.164C199.855 27.164 199.635 27.144 199.441 27.108C199.18 27.0592 198.95 26.9088 198.8 26.69C198.726 26.5816 198.674 26.4597 198.646 26.3312C198.619 26.2027 198.618 26.0701 198.642 25.941C198.666 25.8119 198.716 25.6888 198.787 25.5788C198.859 25.4688 198.952 25.374 199.06 25.2998C199.279 25.15 199.548 25.0932 199.809 25.142C200.239 25.219 202.5 25.148 202.957 22.866C203.009 22.606 203.162 22.3773 203.383 22.2302C203.492 22.1574 203.615 22.1069 203.744 22.0814C203.873 22.056 204.005 22.0562 204.134 22.082C204.263 22.1078 204.385 22.1587 204.494 22.2318C204.603 22.3049 204.697 22.3988 204.77 22.5081C204.843 22.6174 204.893 22.74 204.919 22.8688C204.944 22.9977 204.944 23.1302 204.918 23.259C204.335 26.171 201.779 27.164 200.092 27.164ZM201.792 31.125C201.262 31.125 200.84 30.802 200.814 30.266C200.788 29.715 201.214 29.355 201.766 29.329C201.766 29.329 204.33 29.294 205.635 27.035C205.701 26.9219 205.789 26.823 205.894 26.744C205.998 26.665 206.117 26.6075 206.244 26.5748C206.371 26.5421 206.503 26.5348 206.633 26.5533C206.763 26.5719 206.887 26.616 207 26.683C207.478 26.959 207.642 27.577 207.365 28.056C205.514 31.262 201.808 31.125 201.792 31.125ZM204 36.282C203.266 36.282 202.586 36.147 202.072 35.904C201.832 35.7905 201.647 35.5864 201.558 35.3366C201.469 35.0868 201.483 34.8118 201.596 34.572C201.71 34.3322 201.914 34.1474 202.163 34.0581C202.413 33.9689 202.688 33.9825 202.928 34.096C203.758 34.489 205.854 34.335 206.658 33.084C206.729 32.9735 206.821 32.878 206.929 32.8031C207.037 32.7282 207.158 32.6752 207.287 32.6473C207.415 32.6193 207.548 32.6169 207.677 32.6402C207.806 32.6635 207.93 32.712 208.04 32.783C208.151 32.854 208.246 32.946 208.321 33.0539C208.396 33.1618 208.449 33.2833 208.477 33.4117C208.505 33.54 208.507 33.6726 208.484 33.8018C208.461 33.9311 208.412 34.0545 208.341 34.165C207.377 35.666 205.565 36.282 204 36.282ZM205.161 41.807C203.607 41.807 202.166 41.108 201.235 40.331C201.134 40.247 201.051 40.1439 200.99 40.0276C200.929 39.9113 200.891 39.7842 200.879 39.6534C200.867 39.5226 200.881 39.3907 200.92 39.2653C200.959 39.1399 201.023 39.0234 201.107 38.9225C201.191 38.8216 201.294 38.7382 201.41 38.6771C201.526 38.616 201.653 38.5785 201.784 38.5665C201.915 38.5546 202.047 38.5686 202.172 38.6076C202.298 38.6466 202.414 38.71 202.515 38.794C202.709 38.957 204.467 40.36 206.297 39.579C206.418 39.5277 206.548 39.5008 206.679 39.4997C206.811 39.4986 206.941 39.5234 207.063 39.5726C207.184 39.6219 207.295 39.6947 207.389 39.7868C207.483 39.8789 207.557 39.9886 207.609 40.1095C207.66 40.2304 207.687 40.3603 207.688 40.4917C207.689 40.623 207.664 40.7533 207.615 40.8751C207.566 40.9969 207.493 41.1078 207.401 41.2015C207.309 41.2951 207.199 41.3697 207.078 41.421C206.471 41.6772 205.82 41.8084 205.161 41.807ZM204.75 47H204.722C202.218 47 200.043 45.43 199.188 43.892C198.919 43.41 199.094 42.848 199.576 42.58C200.059 42.311 200.668 42.51 200.936 42.992C201.42 43.863 202.932 45.126 204.777 45.177C205.329 45.193 205.764 45.565 205.749 46.116C205.734 46.658 205.29 47 204.75 47ZM222.188 47.188C222.04 47.1881 221.894 47.1553 221.76 47.092C221.626 47.0287 221.508 46.9364 221.414 46.8219C221.32 46.7073 221.253 46.5734 221.217 46.4297C221.181 46.286 221.178 46.1362 221.207 45.991C221.871 42.669 225.101 41.841 226.685 42.142C226.946 42.191 227.176 42.3415 227.326 42.5603C227.475 42.7791 227.532 43.0484 227.483 43.309C227.46 43.4384 227.411 43.5618 227.339 43.6721C227.267 43.7824 227.175 43.8774 227.066 43.9517C226.958 44.0259 226.835 44.0778 226.707 44.1045C226.578 44.1312 226.445 44.132 226.316 44.107C225.891 44.027 223.626 44.1 223.169 46.383C223.124 46.61 223.002 46.8143 222.823 46.961C222.644 47.1078 222.419 47.188 222.188 47.188ZM219.624 42.688C219.449 42.6881 219.276 42.642 219.124 42.5542C218.972 42.4664 218.846 42.3401 218.758 42.1881C218.67 42.036 218.624 41.8634 218.624 41.6879C218.625 41.5123 218.671 41.3399 218.759 41.188C220.611 37.982 222.743 37.884 224.153 37.819L224.264 37.814C224.529 37.8013 224.788 37.8943 224.985 38.0727C225.181 38.251 225.298 38.5 225.311 38.765C225.324 39.03 225.231 39.2891 225.052 39.4855C224.874 39.6818 224.625 39.7993 224.36 39.812L224.245 39.817C223.041 39.873 221.796 39.929 220.491 42.188C220.403 42.3402 220.277 42.4665 220.125 42.5543C219.972 42.642 219.8 42.6882 219.624 42.688ZM218.624 36.625C218.445 36.625 218.268 36.5767 218.114 36.4851C217.96 36.3935 217.833 36.262 217.747 36.1044C217.661 35.9468 217.619 35.769 217.626 35.5896C217.632 35.4102 217.687 35.2359 217.784 35.085C219.199 32.882 222.44 32.584 224.052 33.347C224.29 33.4612 224.474 33.6652 224.562 33.9143C224.651 34.1634 224.637 34.4373 224.524 34.6763C224.411 34.9152 224.208 35.0997 223.959 35.1894C223.711 35.2791 223.437 35.2667 223.197 35.155C222.368 34.762 220.271 34.916 219.465 36.167C219.374 36.3076 219.25 36.4232 219.103 36.5032C218.956 36.5832 218.791 36.6251 218.624 36.625ZM224.249 30.688C224.015 30.6879 223.789 30.6058 223.609 30.456C223.415 30.294 221.657 28.897 219.828 29.671C219.586 29.7618 219.319 29.7557 219.082 29.654C218.845 29.5523 218.656 29.3629 218.555 29.1253C218.454 28.8877 218.449 28.6203 218.54 28.3789C218.632 28.1376 218.813 27.9409 219.046 27.83C221.265 26.888 223.581 27.829 224.89 28.92C225.048 29.0516 225.161 29.2287 225.215 29.4271C225.269 29.6255 225.26 29.8356 225.19 30.0288C225.12 30.2221 224.992 30.389 224.823 30.507C224.655 30.6249 224.455 30.6881 224.249 30.688ZM226.063 26.75C225.885 26.7502 225.709 26.7026 225.556 26.6122C225.402 26.5219 225.275 26.392 225.188 26.236C224.704 25.364 223.192 24.113 221.347 24.062C220.794 24.047 220.36 23.556 220.374 23.003C220.391 22.461 220.835 22 221.374 22H221.402C223.907 22 226.082 23.694 226.936 25.232C227.065 25.4664 227.097 25.7423 227.024 25.9999C226.951 26.2575 226.78 26.476 226.547 26.608C226.401 26.6959 226.234 26.7448 226.063 26.75Z" fill="#DD2E44"/>
</g>
<defs>
<clipPath id="clip0_1377_354">
<rect width="36" height="36" fill="white" transform="translate(195 17)"/>
</clipPath>
</defs>
</svg>
