<svg width="570" height="170" viewBox="0 0 570 170" fill="none" xmlns="http://www.w3.org/2000/svg">
<rect x="0.5" y="0.5" width="569" height="169" rx="17.5" fill="white" stroke="#8A9A6B"/>
<path d="M40.7406 22.995H44.2414V41.2097H40.7406V22.995ZM43.2412 30.4177H47.479V33.2868H43.2412V30.4177ZM25.0529 25.5219H39.3982V28.2594H25.0529V25.5219ZM32.2387 29.128C35.7395 29.128 38.2138 31.0495 38.2138 33.8396C38.2138 36.6297 35.7395 38.5248 32.2387 38.5248C28.7116 38.5248 26.2373 36.6297 26.2373 33.8396C26.2373 31.0495 28.7116 29.128 32.2387 29.128ZM32.2387 31.7865C30.6857 31.7865 29.6065 32.5235 29.6065 33.8396C29.6065 35.1557 30.6857 35.8663 32.2387 35.8663C33.7917 35.8663 34.8709 35.1557 34.8709 33.8396C34.8709 32.5235 33.7917 31.7865 32.2387 31.7865ZM30.4752 22.9424H33.9759V26.8643H30.4752V22.9424ZM28.5273 44.1314H45.1101V46.9215H28.5273V44.1314ZM28.5273 39.8409H32.0281V45.3422H28.5273V39.8409ZM72.5365 22.9687H76.0636V36.0769H72.5365V22.9687ZM59.8494 37.1298H63.2976V39.3935H72.5892V37.1298H76.0636V47.0794H59.8494V37.1298ZM63.2976 42.0783V44.2893H72.5892V42.0783H63.2976ZM62.7975 23.9689C66.5878 23.9689 69.4042 26.3642 69.4042 29.7334C69.4042 33.1026 66.5878 35.4978 62.7975 35.4978C59.0071 35.4978 56.1644 33.1026 56.1644 29.7334C56.1644 26.3642 59.0071 23.9689 62.7975 23.9689ZM62.7975 26.8643C60.9286 26.8643 59.5862 27.9435 59.5862 29.7334C59.5862 31.5496 60.9286 32.6024 62.7975 32.6024C64.64 32.6024 65.9824 31.5496 65.9824 29.7334C65.9824 27.9435 64.64 26.8643 62.7975 26.8643ZM93.0667 24.6533C96.778 24.6533 99.4628 28.0225 99.4628 33.3395C99.4628 38.7091 96.778 42.0783 93.0667 42.0783C89.3553 42.0783 86.6705 38.7091 86.6705 33.3395C86.6705 28.0225 89.3553 24.6533 93.0667 24.6533ZM93.0667 27.8382C91.2505 27.8382 90.0397 29.7597 90.0397 33.3395C90.0397 36.9719 91.2505 38.9197 93.0667 38.9197C94.8829 38.9197 96.12 36.9719 96.12 33.3395C96.12 29.7597 94.8829 27.8382 93.0667 27.8382ZM104.701 28.6279H108.991V31.5233H104.701V28.6279ZM104.701 35.7874H108.991V38.6565H104.701V35.7874ZM102.121 22.9687H105.648V47.3426H102.121V22.9687ZM113.28 24.3901H128.573V27.1538H113.28V24.3901ZM110.779 34.7608H132.81V37.5773H110.779V34.7608ZM119.913 36.735H123.44V47.369H119.913V36.735ZM126.783 24.3901H130.231V26.5484C130.231 29.1806 130.231 32.1287 129.283 36.4454L125.835 36.0506C126.783 31.9707 126.783 29.0753 126.783 26.5484V24.3901ZM146.839 24.2848H149.708V26.4432C149.708 31.2864 147.602 35.5505 142.97 37.1561L141.101 34.3923C145.181 33.0236 146.839 29.7597 146.839 26.4432V24.2848ZM147.55 24.2848H150.393V26.7853C150.393 29.7071 152.025 32.5498 155.841 33.7343L154.025 36.4454C149.629 34.9714 147.55 31.1811 147.55 26.7853V24.2848ZM157.184 22.9687H160.684V37.3667H157.184V22.9687ZM159.71 28.6015H163.922V31.4969H159.71V28.6015ZM152.735 37.9194C157.789 37.9194 160.974 39.683 160.974 42.631C160.974 45.6054 157.789 47.3426 152.735 47.3426C147.655 47.3426 144.47 45.6054 144.47 42.631C144.47 39.683 147.655 37.9194 152.735 37.9194ZM152.735 40.6306C149.629 40.6306 147.945 41.2886 147.945 42.631C147.945 43.9998 149.629 44.6315 152.735 44.6315C155.841 44.6315 157.499 43.9998 157.499 42.631C157.499 41.2886 155.841 40.6306 152.735 40.6306ZM171.422 24.0742H174.317V26.4168C174.317 31.0231 172.08 35.2083 167.315 36.735L165.605 33.9712C169.711 32.6551 171.422 29.4965 171.422 26.4168V24.0742ZM172.132 24.0742H175.001V26.4168C175.001 29.4175 176.686 32.3656 180.661 33.5764L178.95 36.3138C174.291 34.8398 172.132 30.9442 172.132 26.4168V24.0742ZM169.342 38.5775H185.978V47.3426H182.45V41.3676H169.342V38.5775ZM182.45 22.9687H185.978V37.4983H182.45V22.9687Z" fill="black"/>
<path d="M25.52 88.44H27.08C30.2 88.44 32.58 88.4 35.34 87.96L35.58 90.08C32.78 90.52 30.26 90.6 27.08 90.6H25.52V88.44ZM25.52 77.8H34.22V79.96H28.2V89.14H25.52V77.8ZM27.56 82.94H33.96V85.02H27.56V82.94ZM36.64 76.26H39.32V94.78H36.64V76.26ZM38.72 83.28H42V85.48H38.72V83.28ZM47.3784 84.46H50.0184V88.02H47.3784V84.46ZM53.1584 84.46H55.7984V88.02H53.1584V84.46ZM51.5784 76.44C55.7984 76.44 58.2784 77.54 58.2784 79.58C58.2784 81.62 55.7984 82.74 51.5784 82.74C47.3384 82.74 44.8784 81.62 44.8784 79.58C44.8784 77.54 47.3384 76.44 51.5784 76.44ZM51.5784 78.38C48.8984 78.38 47.6384 78.76 47.6384 79.58C47.6384 80.44 48.8984 80.8 51.5784 80.8C54.2584 80.8 55.5184 80.44 55.5184 79.58C55.5184 78.76 54.2584 78.38 51.5784 78.38ZM43.1984 83.48H59.9384V85.56H43.1984V83.48ZM45.1184 86.84H57.9184V91.6H47.7584V93.24H45.1384V89.76H55.2984V88.82H45.1184V86.84ZM45.1384 92.66H58.3984V94.66H45.1384V92.66ZM61.7769 85.98H78.1169V87.34H61.7769V85.98ZM63.8969 92.8H76.3169V94.16H63.8969V92.8ZM63.8969 88.92H65.5569V93.22H63.8969V88.92ZM69.9569 77.08C73.8169 77.08 76.3169 78.44 76.3169 80.7C76.3169 82.94 73.8169 84.3 69.9569 84.3C66.0769 84.3 63.5969 82.94 63.5969 80.7C63.5969 78.44 66.0769 77.08 69.9569 77.08ZM69.9569 78.44C67.1169 78.44 65.2969 79.28 65.2969 80.7C65.2969 82.12 67.1169 82.96 69.9569 82.96C72.7969 82.96 74.6169 82.12 74.6169 80.7C74.6169 79.28 72.7969 78.44 69.9569 78.44ZM86.2483 88.84H87.6683C91.0083 88.84 93.3083 88.76 96.0283 88.28L96.2083 89.64C93.4083 90.12 91.0483 90.22 87.6683 90.22H86.2483V88.84ZM86.2483 78.12H94.6683V79.5H87.9083V89.32H86.2483V78.12ZM87.4883 83.18H94.2683V84.52H87.4883V83.18ZM97.7083 76.48H99.3883V94.56H97.7083V76.48ZM98.9883 83.74H102.348V85.14H98.9883V83.74ZM111.587 77.7H113.327C113.327 82.3 110.067 85.58 104.807 87.02L104.147 85.72C108.787 84.44 111.587 81.78 111.587 78.42V77.7ZM105.067 77.7H112.607V79.04H105.067V77.7ZM106.687 88.08H118.747V94.52H117.087V89.42H106.687V88.08ZM117.087 76.48H118.747V87.26H117.087V76.48ZM112.587 79.7H117.427V81.06H112.587V79.7ZM112.407 83.54H117.307V84.9H112.407V83.54ZM132.118 77.5H133.498V79.36C133.498 82.86 131.518 85.72 128.418 86.88L127.558 85.52C130.318 84.54 132.118 82.12 132.118 79.36V77.5ZM132.418 77.5H133.778V79.3C133.778 81.86 135.538 84.12 138.178 85.04L137.278 86.34C134.358 85.24 132.418 82.58 132.418 79.3V77.5ZM140.778 76.48H142.438V87.18H140.778V76.48ZM136.498 87.7C140.218 87.7 142.518 88.96 142.518 91.12C142.518 93.28 140.218 94.52 136.498 94.52C132.758 94.52 130.458 93.28 130.458 91.12C130.458 88.96 132.758 87.7 136.498 87.7ZM136.498 89.02C133.778 89.02 132.118 89.8 132.118 91.12C132.118 92.44 133.778 93.22 136.498 93.22C139.218 93.22 140.878 92.44 140.878 91.12C140.878 89.8 139.218 89.02 136.498 89.02ZM136.858 80.3H141.138V81.68H136.858V80.3ZM150.577 78.32H151.937V79.78C151.937 83.08 149.897 85.9 146.877 87.02L146.017 85.7C148.717 84.74 150.577 82.34 150.577 79.78V78.32ZM150.897 78.32H152.237V79.78C152.237 82.1 153.997 84.36 156.617 85.28L155.777 86.6C152.837 85.52 150.897 82.8 150.897 79.78V78.32ZM155.637 81.18H159.657V82.56H155.637V81.18ZM146.537 77.72H156.197V79.06H146.537V77.72ZM148.777 88.28H160.837V94.56H159.177V89.64H148.777V88.28ZM159.177 76.48H160.837V87.3H159.177V76.48ZM172.535 76.78C176.515 76.78 178.895 77.9 178.895 79.92C178.895 81.94 176.515 83.06 172.535 83.06C168.535 83.06 166.175 81.94 166.175 79.92C166.175 77.9 168.535 76.78 172.535 76.78ZM172.535 78.04C169.575 78.04 167.875 78.72 167.875 79.92C167.875 81.12 169.575 81.8 172.535 81.8C175.475 81.8 177.175 81.12 177.175 79.92C177.175 78.72 175.475 78.04 172.535 78.04ZM164.355 84.26H180.695V85.6H164.355V84.26ZM166.335 87.14H178.615V91.22H168.015V93.42H166.375V90.02H176.975V88.42H166.335V87.14ZM166.375 93.06H179.155V94.36H166.375V93.06ZM188.866 77.64H190.426V80.48H194.286V77.64H195.866V86.06H188.866V77.64ZM190.426 81.8V84.72H194.286V81.8H190.426ZM201.706 76.5H203.286V87.34H201.706V76.5ZM198.786 81.18H202.206V82.56H198.786V81.18ZM197.826 76.82H199.406V87.24H197.826V76.82ZM191.166 88.42H203.286V94.56H201.646V89.78H191.166V88.42ZM206.445 86.02H222.825V87.38H206.445V86.02ZM213.925 86.7H215.585V90.86H213.925V86.7ZM208.525 92.8H221.005V94.16H208.525V92.8ZM208.525 89.26H210.165V93.32H208.525V89.26ZM208.625 77.04H210.265V79.34H219.005V77.04H220.665V84.28H208.625V77.04ZM210.265 80.64V82.94H219.005V80.64H210.265ZM229.263 84.6H230.923V87.94H229.263V84.6ZM235.023 84.6H236.663V87.94H235.023V84.6ZM233.023 76.7C237.003 76.7 239.383 77.8 239.383 79.82C239.383 81.84 237.003 82.96 233.023 82.96C229.023 82.96 226.663 81.84 226.663 79.82C226.663 77.8 229.023 76.7 233.023 76.7ZM233.023 77.96C230.063 77.96 228.363 78.64 228.363 79.82C228.363 81.02 230.063 81.7 233.023 81.7C235.963 81.7 237.663 81.02 237.663 79.82C237.663 78.64 235.963 77.96 233.023 77.96ZM224.843 84.04H241.183V85.38H224.843V84.04ZM226.823 87.14H239.103V91.22H228.503V93.42H226.863V90.02H237.463V88.42H226.823V87.14ZM226.863 93.06H239.643V94.36H226.863V93.06ZM243.262 90.96H259.642V92.34H243.262V90.96ZM250.582 87.08H252.242V91.54H250.582V87.08ZM245.242 77.82H257.622V83.3H246.942V86.92H245.302V81.96H255.982V79.16H245.242V77.82ZM245.302 86.22H258.042V87.58H245.302V86.22ZM280.393 83.68H283.733V85.08H280.393V83.68ZM279.173 76.46H280.853V94.56H279.173V76.46ZM267.653 78.24H269.313V89.44H267.653V78.24ZM267.653 88.58H269.093C271.773 88.58 274.513 88.4 277.493 87.78L277.693 89.16C274.613 89.8 271.833 89.98 269.093 89.98H267.653V88.58ZM286.112 88.84H287.532C290.872 88.84 293.172 88.76 295.892 88.28L296.072 89.64C293.272 90.12 290.912 90.22 287.532 90.22H286.112V88.84ZM286.112 78.12H294.532V79.5H287.772V89.32H286.112V78.12ZM287.352 83.18H294.132V84.52H287.352V83.18ZM297.572 76.48H299.252V94.56H297.572V76.48ZM298.852 83.74H302.212V85.14H298.852V83.74ZM317.39 76.48H318.97V89.92H317.39V76.48ZM314.47 81.74H317.89V83.12H314.47V81.74ZM313.37 76.82H314.93V89.32H313.37V76.82ZM307.15 92.64H319.53V94H307.15V92.64ZM307.15 88.06H308.81V93.4H307.15V88.06ZM304.61 78.02H306.27V85.14H304.61V78.02ZM304.61 84.84H305.77C307.81 84.84 309.77 84.74 312.07 84.28L312.25 85.66C309.85 86.12 307.89 86.22 305.77 86.22H304.61V84.84ZM340.641 76.48H342.301V88.72H340.641V76.48ZM336.761 81.58H340.981V82.94H336.761V81.58ZM334.961 77.9H336.701C336.701 82.58 333.621 85.9 328.441 87.58L327.741 86.26C332.321 84.82 334.961 82.1 334.961 78.56V77.9ZM328.601 77.9H336.141V79.26H328.601V77.9ZM335.641 87.16H337.061V87.98C337.061 91.44 333.901 93.78 330.281 94.52L329.621 93.2C332.821 92.62 335.641 90.62 335.641 87.98V87.16ZM335.881 87.16H337.301V87.98C337.301 90.58 340.081 92.58 343.301 93.16L342.601 94.48C339.001 93.76 335.881 91.42 335.881 87.98V87.16ZM358.98 76.48H360.66V86.18H358.98V76.48ZM349 87.08H350.64V89.28H359.02V87.08H360.66V94.32H349V87.08ZM350.64 90.6V92.98H359.02V90.6H350.64ZM350.96 77.34C353.7 77.34 355.66 79.04 355.66 81.5C355.66 83.98 353.7 85.68 350.96 85.68C348.22 85.68 346.24 83.98 346.24 81.5C346.24 79.04 348.22 77.34 350.96 77.34ZM350.96 78.72C349.16 78.72 347.86 79.86 347.86 81.5C347.86 83.14 349.16 84.28 350.96 84.28C352.76 84.28 354.06 83.14 354.06 81.5C354.06 79.86 352.76 78.72 350.96 78.72ZM377.378 76.48H379.038V94.56H377.378V76.48ZM365.378 78.24H367.018V89.44H365.378V78.24ZM365.378 88.46H366.858C369.598 88.46 372.458 88.26 375.518 87.62L375.718 89.04C372.578 89.68 369.718 89.9 366.858 89.9H365.378V88.46ZM394.857 76.46H396.537V94.58H394.857V76.46ZM396.137 83.6H399.497V85H396.137V83.6ZM383.397 88.68H384.817C388.157 88.68 390.497 88.56 393.197 88.06L393.377 89.46C390.597 89.98 388.217 90.08 384.817 90.08H383.397V88.68ZM383.397 78.22H391.797V79.58H385.037V89.3H383.397V78.22ZM402.862 93.1349C402.474 93.1349 402.14 92.9976 401.86 92.723C401.581 92.4437 401.441 92.1075 401.441 91.7145C401.441 91.3262 401.581 90.9948 401.86 90.7202C402.14 90.4408 402.474 90.3011 402.862 90.3011C403.25 90.3011 403.584 90.4408 403.863 90.7202C404.143 90.9948 404.282 91.3262 404.282 91.7145C404.282 91.9749 404.216 92.214 404.083 92.4318C403.956 92.6449 403.785 92.8153 403.572 92.9432C403.359 93.071 403.122 93.1349 402.862 93.1349ZM412.518 88.84H413.938C417.278 88.84 419.578 88.76 422.298 88.28L422.478 89.64C419.678 90.12 417.318 90.22 413.938 90.22H412.518V88.84ZM412.518 78.12H420.938V79.5H414.178V89.32H412.518V78.12ZM413.758 83.18H420.538V84.52H413.758V83.18ZM423.978 76.48H425.658V94.56H423.978V76.48ZM425.258 83.74H428.618V85.14H425.258V83.74ZM434.556 84.6H436.216V87.94H434.556V84.6ZM440.316 84.6H441.956V87.94H440.316V84.6ZM438.316 76.7C442.296 76.7 444.676 77.8 444.676 79.82C444.676 81.84 442.296 82.96 438.316 82.96C434.316 82.96 431.956 81.84 431.956 79.82C431.956 77.8 434.316 76.7 438.316 76.7ZM438.316 77.96C435.356 77.96 433.656 78.64 433.656 79.82C433.656 81.02 435.356 81.7 438.316 81.7C441.256 81.7 442.956 81.02 442.956 79.82C442.956 78.64 441.256 77.96 438.316 77.96ZM430.136 84.04H446.476V85.38H430.136V84.04ZM432.116 87.14H444.396V91.22H433.796V93.42H432.156V90.02H442.756V88.42H432.116V87.14ZM432.156 93.06H444.936V94.36H432.156V93.06ZM448.535 85.98H464.875V87.34H448.535V85.98ZM450.655 92.8H463.075V94.16H450.655V92.8ZM450.655 88.92H452.315V93.22H450.655V88.92ZM456.715 77.08C460.575 77.08 463.075 78.44 463.075 80.7C463.075 82.94 460.575 84.3 456.715 84.3C452.835 84.3 450.355 82.94 450.355 80.7C450.355 78.44 452.835 77.08 456.715 77.08ZM456.715 78.44C453.875 78.44 452.055 79.28 452.055 80.7C452.055 82.12 453.875 82.96 456.715 82.96C459.555 82.96 461.375 82.12 461.375 80.7C461.375 79.28 459.555 78.44 456.715 78.44ZM473.292 86.9631C473.292 85.1828 473.526 83.5445 473.995 82.0483C474.463 80.5521 475.148 79.1719 476.047 77.9077H477.993C477.643 78.3764 477.316 78.9517 477.013 79.6335C476.71 80.3153 476.445 81.0634 476.218 81.8778C475.99 82.6875 475.813 83.5279 475.685 84.3991C475.557 85.2656 475.493 86.1203 475.493 86.9631C475.493 88.09 475.605 89.2311 475.827 90.3864C476.05 91.5417 476.35 92.6141 476.729 93.6037C477.108 94.5933 477.529 95.4006 477.993 96.0256H476.047C475.148 94.7614 474.463 93.3812 473.995 91.8849C473.526 90.3887 473.292 88.7481 473.292 86.9631ZM492.165 76.46H493.825V89.78H492.165V76.46ZM493.305 81.96H496.505V83.34H493.305V81.96ZM482.565 92.8H494.645V94.16H482.565V92.8ZM482.565 88.42H484.225V93.34H482.565V88.42ZM484.845 77.74C487.545 77.74 489.565 79.6 489.565 82.2C489.565 84.82 487.545 86.66 484.845 86.66C482.145 86.66 480.125 84.82 480.125 82.2C480.125 79.6 482.145 77.74 484.845 77.74ZM484.845 79.2C483.085 79.2 481.745 80.44 481.745 82.2C481.745 83.98 483.085 85.2 484.845 85.2C486.605 85.2 487.945 83.98 487.945 82.2C487.945 80.44 486.605 79.2 484.845 79.2ZM498.963 88.84H500.383C503.723 88.84 506.023 88.76 508.743 88.28L508.923 89.64C506.123 90.12 503.763 90.22 500.383 90.22H498.963V88.84ZM498.963 78.12H507.383V79.5H500.623V89.32H498.963V78.12ZM500.203 83.18H506.983V84.52H500.203V83.18ZM510.423 76.48H512.103V94.56H510.423V76.48ZM511.703 83.74H515.063V85.14H511.703V83.74ZM32.3 101.12H33.76V102.12C33.76 105.58 30.24 108.06 26.48 108.7L25.82 107.36C29.12 106.86 32.3 104.7 32.3 102.12V101.12ZM32.6 101.12H34.04V102.12C34.04 104.64 37.26 106.86 40.52 107.36L39.86 108.7C36.14 108.06 32.6 105.54 32.6 102.12V101.12ZM32.3 111.68H33.94V118.56H32.3V111.68ZM25 110.66H41.34V112.04H25V110.66ZM47.9098 110.963C47.9098 112.748 47.6754 114.389 47.2067 115.885C46.7379 117.381 46.0537 118.761 45.1541 120.026H43.2081C43.5585 119.557 43.8852 118.982 44.1882 118.3C44.4912 117.618 44.7564 116.872 44.9837 116.062C45.2109 115.248 45.3885 114.405 45.5163 113.534C45.6442 112.663 45.7081 111.806 45.7081 110.963C45.7081 109.841 45.5968 108.702 45.3743 107.547C45.1518 106.392 44.8511 105.319 44.4723 104.33C44.0935 103.34 43.6721 102.533 43.2081 101.908H45.1541C46.0537 103.172 46.7379 104.552 47.2067 106.048C47.6754 107.545 47.9098 109.183 47.9098 110.963ZM61.3065 110.338V112.206H51.9315V110.338H61.3065ZM56.619 116.453C56.2212 116.453 55.8827 116.316 55.6033 116.041C55.3287 115.762 55.1914 115.423 55.1914 115.026C55.1914 114.647 55.3287 114.32 55.6033 114.045C55.8827 113.771 56.2212 113.634 56.619 113.634C56.9978 113.634 57.3245 113.771 57.5991 114.045C57.8737 114.32 58.011 114.647 58.011 115.026C58.011 115.423 57.8737 115.762 57.5991 116.041C57.3245 116.316 56.9978 116.453 56.619 116.453ZM56.619 108.918C56.3538 108.918 56.1123 108.854 55.8945 108.726C55.6815 108.598 55.511 108.425 55.3832 108.207C55.2553 107.99 55.1914 107.75 55.1914 107.49C55.1914 107.107 55.3287 106.777 55.6033 106.503C55.8827 106.228 56.2212 106.091 56.619 106.091C57.0025 106.091 57.3292 106.228 57.5991 106.503C57.8737 106.777 58.011 107.107 58.011 107.49C58.011 107.883 57.8737 108.219 57.5991 108.499C57.3292 108.778 57.0025 108.918 56.619 108.918ZM65.3228 110.963C65.3228 109.183 65.5572 107.545 66.0259 106.048C66.4947 104.552 67.1789 103.172 68.0785 101.908H70.0245C69.6741 102.376 69.3474 102.952 69.0444 103.634C68.7414 104.315 68.4762 105.063 68.2489 105.878C68.0217 106.687 67.8441 107.528 67.7163 108.399C67.5884 109.266 67.5245 110.12 67.5245 110.963C67.5245 112.09 67.6358 113.231 67.8583 114.386C68.0808 115.542 68.3815 116.614 68.7603 117.604C69.1391 118.593 69.5605 119.401 70.0245 120.026H68.0785C67.1789 118.761 66.4947 117.381 66.0259 115.885C65.5572 114.389 65.3228 112.748 65.3228 110.963ZM72.5959 112.84H74.0159C77.3559 112.84 79.6559 112.76 82.3759 112.28L82.5559 113.64C79.7559 114.12 77.3959 114.22 74.0159 114.22H72.5959V112.84ZM72.5959 102.12H81.0159V103.5H74.2559V113.32H72.5959V102.12ZM73.8359 107.18H80.6159V108.52H73.8359V107.18ZM84.0559 100.48H85.7359V118.56H84.0559V100.48ZM85.3359 107.74H88.6959V109.14H85.3359V107.74ZM97.5344 101.12H98.9944V102.12C98.9944 105.58 95.4744 108.06 91.7144 108.7L91.0544 107.36C94.3544 106.86 97.5344 104.7 97.5344 102.12V101.12ZM97.8344 101.12H99.2744V102.12C99.2744 104.64 102.494 106.86 105.754 107.36L105.094 108.7C101.374 108.06 97.8344 105.54 97.8344 102.12V101.12ZM97.5344 111.68H99.1744V118.56H97.5344V111.68ZM90.2344 110.66H106.574V112.04H90.2344V110.66ZM113.144 110.963C113.144 112.748 112.91 114.389 112.441 115.885C111.972 117.381 111.288 118.761 110.388 120.026H108.442C108.793 119.557 109.12 118.982 109.423 118.3C109.726 117.618 109.991 116.872 110.218 116.062C110.445 115.248 110.623 114.405 110.751 113.534C110.879 112.663 110.942 111.806 110.942 110.963C110.942 109.841 110.831 108.702 110.609 107.547C110.386 106.392 110.085 105.319 109.707 104.33C109.328 103.34 108.906 102.533 108.442 101.908H110.388C111.288 103.172 111.972 104.552 112.441 106.048C112.91 107.545 113.144 109.183 113.144 110.963ZM129.584 111.88C133.424 111.88 135.884 113.14 135.884 115.22C135.884 117.28 133.424 118.52 129.584 118.52C125.724 118.52 123.284 117.28 123.284 115.22C123.284 113.14 125.724 111.88 129.584 111.88ZM129.584 113.18C126.744 113.18 124.924 113.96 124.924 115.22C124.924 116.46 126.744 117.24 129.584 117.24C132.424 117.24 134.224 116.46 134.224 115.22C134.224 113.96 132.424 113.18 129.584 113.18ZM123.424 101.38H135.064V102.74H123.424V101.38ZM121.484 108.9H137.804V110.24H121.484V108.9ZM128.184 105.42H129.824V109.28H128.184V105.42ZM134.104 101.38H135.724V102.92C135.724 104.38 135.724 105.84 135.244 107.72L133.604 107.52C134.104 105.66 134.104 104.34 134.104 102.92V101.38ZM144.583 101.34H145.963V103.1C145.963 106.52 143.923 109.46 140.863 110.62L140.023 109.3C142.763 108.3 144.583 105.8 144.583 103.1V101.34ZM144.883 101.34H146.243V103.1C146.243 105.7 148.103 108.04 150.783 108.98L149.943 110.28C146.923 109.18 144.883 106.42 144.883 103.1V101.34ZM142.623 112.28H154.703V118.56H153.023V113.64H142.623V112.28ZM153.023 100.48H154.703V111.36H153.023V100.48ZM166.441 101.62C170.201 101.62 173.001 103.62 173.001 106.62C173.001 109.64 170.201 111.62 166.441 111.62C162.681 111.62 159.861 109.64 159.861 106.62C159.861 103.62 162.681 101.62 166.441 101.62ZM166.441 102.98C163.581 102.98 161.461 104.44 161.461 106.62C161.461 108.78 163.581 110.26 166.441 110.26C169.301 110.26 171.421 108.78 171.421 106.62C171.421 104.44 169.301 102.98 166.441 102.98ZM158.281 114.78H174.661V116.18H158.281V114.78ZM176.68 114.96H193.06V116.34H176.68V114.96ZM184 111.08H185.66V115.54H184V111.08ZM178.66 101.82H191.04V107.3H180.36V110.92H178.72V105.96H189.4V103.16H178.66V101.82ZM178.72 110.22H191.46V111.58H178.72V110.22ZM202.411 101.66H213.711V103H202.411V101.66ZM200.371 109.42H216.711V110.78H200.371V109.42ZM207.671 110.32H209.331V118.58H207.671V110.32ZM212.931 101.66H214.551V103.22C214.551 105.1 214.551 107.22 213.871 110.28L212.231 110.06C212.931 107.14 212.931 105.04 212.931 103.22V101.66ZM231.01 100.48H232.67V118.56H231.01V100.48ZM232.27 107.9H235.63V109.3H232.27V107.9ZM218.67 103.36H229.33V104.72H218.67V103.36ZM224.07 106.22C226.63 106.22 228.47 107.94 228.47 110.38C228.47 112.82 226.63 114.54 224.07 114.54C221.53 114.54 219.67 112.82 219.67 110.38C219.67 107.94 221.53 106.22 224.07 106.22ZM224.07 107.6C222.43 107.6 221.25 108.74 221.25 110.38C221.25 112 222.43 113.16 224.07 113.16C225.71 113.16 226.89 112 226.89 110.38C226.89 108.74 225.71 107.6 224.07 107.6ZM223.21 100.7H224.87V103.98H223.21V100.7ZM245.468 104.8H251.048V106.16H245.468V104.8ZM245.468 109.78H251.048V111.16H245.468V109.78ZM237.888 102.24H246.108V114H237.888V102.24ZM244.468 103.58H239.508V112.66H244.468V103.58ZM250.408 100.46H252.048V118.58H250.408V100.46ZM260.859 114.84H277.239V116.22H260.859V114.84ZM268.139 110.46H269.779V115.3H268.139V110.46ZM268.099 101.68H269.539V103.08C269.539 106.94 265.839 109.92 262.199 110.68L261.499 109.3C264.679 108.72 268.099 106.06 268.099 103.08V101.68ZM268.399 101.68H269.839V103.08C269.839 106.08 273.279 108.72 276.459 109.3L275.739 110.68C272.099 109.92 268.399 106.94 268.399 103.08V101.68ZM286.558 101.12H288.018V102.12C288.018 105.58 284.498 108.06 280.738 108.7L280.078 107.36C283.378 106.86 286.558 104.7 286.558 102.12V101.12ZM286.858 101.12H288.298V102.12C288.298 104.64 291.518 106.86 294.778 107.36L294.118 108.7C290.398 108.06 286.858 105.54 286.858 102.12V101.12ZM286.558 111.68H288.198V118.56H286.558V111.68ZM279.258 110.66H295.598V112.04H279.258V110.66ZM307.296 105H311.316V106.38H307.296V105ZM310.856 100.48H312.516V111.06H310.856V100.48ZM300.796 111.94H312.516V118.32H300.796V111.94ZM310.896 113.26H302.416V116.98H310.896V113.26ZM302.256 102.2H303.616V103.66C303.616 106.96 301.576 109.78 298.556 110.9L297.696 109.58C300.396 108.62 302.256 106.22 302.256 103.66V102.2ZM302.576 102.2H303.916V103.64C303.916 105.98 305.676 108.24 308.296 109.16L307.456 110.48C304.516 109.42 302.576 106.68 302.576 103.64V102.2ZM298.216 101.64H307.876V102.98H298.216V101.64ZM326.148 101.86C328.808 101.86 330.688 104.32 330.688 108.16C330.688 112.02 328.808 114.48 326.148 114.48C323.488 114.48 321.608 112.02 321.608 108.16C321.608 104.32 323.488 101.86 326.148 101.86ZM326.148 103.36C324.388 103.36 323.188 105.24 323.188 108.16C323.188 111.1 324.388 113.02 326.148 113.02C327.888 113.02 329.108 111.1 329.108 108.16C329.108 105.24 327.888 103.36 326.148 103.36ZM333.568 100.48H335.248V118.56H333.568V100.48ZM334.848 107.7H338.208V109.1H334.848V107.7ZM340.326 112.86H341.526C343.726 112.86 345.726 112.78 348.166 112.36L348.306 113.74C345.806 114.18 343.766 114.24 341.526 114.24H340.326V112.86ZM340.286 102.44H347.066V108.8H341.946V113.38H340.326V107.44H345.446V103.8H340.286V102.44ZM353.486 100.48H355.086V118.56H353.486V100.48ZM350.426 107.62H353.906V108.98H350.426V107.62ZM349.386 100.88H350.946V117.64H349.386V100.88ZM370.738 104.6H374.158V105.98H370.738V104.6ZM377.078 100.48H378.658V112.8H377.078V100.48ZM373.538 100.86H375.118V111.16H373.538V100.86ZM371.898 111.94H373.318V112.5C373.318 115.66 370.038 117.88 366.398 118.5L365.758 117.18C368.958 116.72 371.898 114.82 371.898 112.5V111.94ZM372.138 111.94H373.558V112.5C373.558 114.82 376.518 116.72 379.698 117.18L379.078 118.5C375.438 117.88 372.138 115.66 372.138 112.5V111.94ZM367.178 101.56H368.498V103.92C368.498 106.64 366.958 109.5 364.338 110.68L363.438 109.4C365.778 108.34 367.178 105.98 367.178 103.92V101.56ZM367.478 101.56H368.778V103.92C368.778 106 370.078 108.08 372.318 109.06L371.418 110.34C368.878 109.2 367.478 106.64 367.478 103.92V101.56ZM395.856 100.48H397.416V118.56H395.856V100.48ZM393.316 107.84H396.416V109.2H393.316V107.84ZM392.356 100.86H393.896V117.66H392.356V100.86ZM383.956 103.48H385.116V105.9C385.116 108.62 384.656 112.44 382.416 114.22L381.476 113.08C383.536 111.42 383.956 108.12 383.956 105.9V103.48ZM384.276 103.48H385.416V105.9C385.416 107.68 385.536 111.3 387.616 113.22L386.776 114.42C384.456 112.44 384.276 108.12 384.276 105.9V103.48ZM388.136 103.48H389.276V105.9C389.276 108.48 389.056 112.52 386.776 114.42L385.916 113.22C387.996 111.42 388.136 108 388.136 105.9V103.48ZM388.436 103.48H389.576V105.9C389.576 108.22 389.996 111.44 392.076 113.08L391.116 114.22C388.896 112.46 388.436 108.72 388.436 105.9V103.48ZM382.076 102.68H386.496V104.02H382.076V102.68ZM387.056 102.68H391.336V104.02H387.056V102.68ZM409.987 103.06H411.307V106C411.307 109.76 409.007 113.64 406.187 115.08L405.227 113.76C407.807 112.5 409.987 109.06 409.987 106V103.06ZM410.287 103.06H411.607V106C411.607 108.86 413.647 112.08 416.267 113.32L415.327 114.64C412.467 113.22 410.287 109.58 410.287 106V103.06ZM405.867 102.32H415.607V103.72H405.867V102.32ZM417.747 100.48H419.427V118.56H417.747V100.48ZM419.027 107.78H422.387V109.18H419.027V107.78ZM437.086 100.46H438.746V118.58H437.086V100.46ZM424.966 112.84H426.466C429.486 112.84 432.186 112.72 435.386 112.2L435.566 113.56C432.286 114.1 429.566 114.22 426.466 114.22H424.966V112.84ZM424.926 102.16H433.286V108.62H426.626V113.36H424.966V107.26H431.606V103.52H424.926V102.16ZM454.864 100.48H456.504V118.56H454.864V100.48ZM455.984 107.92H459.204V109.32H455.984V107.92ZM446.204 102.42H447.724C447.724 106.78 446.804 111 443.564 114.5L442.224 113.56C445.204 110.46 446.204 106.7 446.204 102.6V102.42ZM442.804 102.42H446.824V103.8H442.804V102.42ZM451.124 102.42H452.664C452.664 106.8 452.044 111.76 448.724 115.7L447.384 114.78C450.444 111.24 451.124 106.76 451.124 102.58V102.42ZM448.304 102.42H451.804V103.8H448.304V102.42ZM465.503 103.06H466.843V106C466.843 109.82 464.543 113.66 461.663 115.08L460.703 113.76C463.323 112.52 465.503 109.12 465.503 106V103.06ZM465.823 103.06H467.163V106C467.163 109.06 469.343 112.18 472.003 113.32L471.063 114.64C468.143 113.28 465.823 109.76 465.823 106V103.06ZM461.303 102.32H471.403V103.72H461.303V102.32ZM473.843 100.48H475.503V118.56H473.843V100.48ZM488.934 110.28H490.594V115.44H488.934V110.28ZM494.514 110.28H496.154V115.44H494.514V110.28ZM484.414 115H500.794V116.38H484.414V115ZM485.834 102.14H499.254V103.5H485.834V102.14ZM485.874 109.38H499.234V110.72H485.874V109.38ZM488.654 103.24H490.314V109.66H488.654V103.24ZM494.814 103.24H496.454V109.66H494.814V103.24ZM507.573 102.04H508.933V105.28C508.933 109.44 506.693 113.3 503.733 114.8L502.713 113.44C505.393 112.16 507.573 108.7 507.573 105.28V102.04ZM507.853 102.04H509.213V105.28C509.213 108.58 511.373 111.9 514.053 113.14L513.053 114.46C510.113 113.02 507.853 109.3 507.853 105.28V102.04ZM515.933 100.46H517.593V118.58H515.933V100.46ZM533.571 100.48H535.231V110.98H533.571V100.48ZM534.511 105.08H537.911V106.48H534.511V105.08ZM523.871 111.78H525.491V113.7H533.591V111.78H535.231V118.32H523.871V111.78ZM525.491 114.98V116.98H533.591V114.98H525.491ZM521.251 102.32H531.931V103.68H521.251V102.32ZM526.591 104.5C529.171 104.5 530.911 105.76 530.911 107.68C530.911 109.6 529.171 110.86 526.591 110.86C523.991 110.86 522.251 109.6 522.251 107.68C522.251 105.76 523.991 104.5 526.591 104.5ZM526.591 105.76C524.931 105.76 523.831 106.52 523.831 107.68C523.831 108.84 524.931 109.6 526.591 109.6C528.211 109.6 529.331 108.84 529.331 107.68C529.331 106.52 528.211 105.76 526.591 105.76ZM525.751 100.3H527.411V103.06H525.751V100.3ZM38.14 124.48H39.8V142.56H38.14V124.48ZM26.14 126.24H27.78V137.44H26.14V126.24ZM26.14 136.46H27.62C30.36 136.46 33.22 136.26 36.28 135.62L36.48 137.04C33.34 137.68 30.48 137.9 27.62 137.9H26.14V136.46ZM55.6184 124.46H57.2984V142.58H55.6184V124.46ZM56.8984 131.6H60.2584V133H56.8984V131.6ZM44.1584 136.68H45.5784C48.9184 136.68 51.2584 136.56 53.9584 136.06L54.1384 137.46C51.3584 137.98 48.9784 138.08 45.5784 138.08H44.1584V136.68ZM44.1584 126.22H52.5584V127.58H45.7984V137.3H44.1584V126.22ZM63.6236 141.135C63.2353 141.135 62.9015 140.998 62.6222 140.723C62.3428 140.444 62.2031 140.107 62.2031 139.714C62.2031 139.326 62.3428 138.995 62.6222 138.72C62.9015 138.441 63.2353 138.301 63.6236 138.301C64.0118 138.301 64.3456 138.441 64.625 138.72C64.9044 138.995 65.044 139.326 65.044 139.714C65.044 139.975 64.9777 140.214 64.8452 140.432C64.7173 140.645 64.5469 140.815 64.3338 140.943C64.1207 141.071 63.884 141.135 63.6236 141.135Z" fill="black"/>
<g clip-path="url(#clip0_1377_171)">
<path d="M213 53C222.941 53 231 44.9411 231 35C231 25.0589 222.941 17 213 17C203.059 17 195 25.0589 195 35C195 44.9411 203.059 53 213 53Z" fill="#E1E8ED"/>
<path d="M226.802 46.5462C223.792 45.2212 222 41.0482 222 35.0002C222 28.9522 223.792 24.7792 226.802 23.4542C226.356 22.9258 225.879 22.4237 225.374 21.9502C222.406 23.6052 220 27.5782 220 35.0002C220 42.4212 222.406 46.3952 225.374 48.0502C225.876 47.5732 226.358 47.0772 226.802 46.5462ZM206 35.0002C206 27.5792 203.594 23.6052 200.626 21.9512C200.122 22.4243 199.645 22.9262 199.198 23.4542C202.208 24.7802 204 28.9522 204 35.0002C204 41.0482 202.208 45.2202 199.198 46.5462C199.643 47.0772 200.124 47.5732 200.626 48.0502C203.593 46.3952 206 42.4212 206 35.0002Z" fill="#B3BEC4"/>
<path d="M200.092 27.164C199.855 27.164 199.635 27.144 199.441 27.108C199.18 27.0592 198.95 26.9088 198.8 26.69C198.726 26.5816 198.674 26.4597 198.646 26.3312C198.619 26.2027 198.618 26.0701 198.642 25.941C198.666 25.8119 198.716 25.6888 198.787 25.5788C198.859 25.4688 198.952 25.374 199.06 25.2998C199.279 25.15 199.548 25.0932 199.809 25.142C200.239 25.219 202.5 25.148 202.957 22.866C203.009 22.606 203.162 22.3773 203.383 22.2302C203.492 22.1574 203.615 22.1069 203.744 22.0814C203.873 22.056 204.005 22.0562 204.134 22.082C204.263 22.1078 204.385 22.1587 204.494 22.2318C204.603 22.3049 204.697 22.3988 204.77 22.5081C204.843 22.6174 204.893 22.74 204.919 22.8688C204.944 22.9977 204.944 23.1302 204.918 23.259C204.335 26.171 201.779 27.164 200.092 27.164ZM201.792 31.125C201.262 31.125 200.84 30.802 200.814 30.266C200.788 29.715 201.214 29.355 201.766 29.329C201.766 29.329 204.33 29.294 205.635 27.035C205.701 26.9219 205.789 26.823 205.894 26.744C205.998 26.665 206.117 26.6075 206.244 26.5748C206.371 26.5421 206.503 26.5348 206.633 26.5533C206.763 26.5719 206.887 26.616 207 26.683C207.478 26.959 207.642 27.577 207.365 28.056C205.514 31.262 201.808 31.125 201.792 31.125ZM204 36.282C203.266 36.282 202.586 36.147 202.072 35.904C201.832 35.7905 201.647 35.5864 201.558 35.3366C201.469 35.0868 201.483 34.8118 201.596 34.572C201.71 34.3322 201.914 34.1474 202.163 34.0581C202.413 33.9689 202.688 33.9825 202.928 34.096C203.758 34.489 205.854 34.335 206.658 33.084C206.729 32.9735 206.821 32.878 206.929 32.8031C207.037 32.7282 207.158 32.6752 207.287 32.6473C207.415 32.6193 207.548 32.6169 207.677 32.6402C207.806 32.6635 207.93 32.712 208.04 32.783C208.151 32.854 208.246 32.946 208.321 33.0539C208.396 33.1618 208.449 33.2833 208.477 33.4117C208.505 33.54 208.507 33.6726 208.484 33.8018C208.461 33.9311 208.412 34.0545 208.341 34.165C207.377 35.666 205.565 36.282 204 36.282ZM205.161 41.807C203.607 41.807 202.166 41.108 201.235 40.331C201.134 40.247 201.051 40.1439 200.99 40.0276C200.929 39.9113 200.891 39.7842 200.879 39.6534C200.867 39.5226 200.881 39.3907 200.92 39.2653C200.959 39.1399 201.023 39.0234 201.107 38.9225C201.191 38.8216 201.294 38.7382 201.41 38.6771C201.526 38.616 201.653 38.5785 201.784 38.5665C201.915 38.5546 202.047 38.5686 202.172 38.6076C202.298 38.6466 202.414 38.71 202.515 38.794C202.709 38.957 204.467 40.36 206.297 39.579C206.418 39.5277 206.548 39.5008 206.679 39.4997C206.811 39.4986 206.941 39.5234 207.063 39.5726C207.184 39.6219 207.295 39.6947 207.389 39.7868C207.483 39.8789 207.557 39.9886 207.609 40.1095C207.66 40.2304 207.687 40.3603 207.688 40.4917C207.689 40.623 207.664 40.7533 207.615 40.8751C207.566 40.9969 207.493 41.1078 207.401 41.2015C207.309 41.2951 207.199 41.3697 207.078 41.421C206.471 41.6772 205.82 41.8084 205.161 41.807ZM204.75 47H204.722C202.218 47 200.043 45.43 199.188 43.892C198.919 43.41 199.094 42.848 199.576 42.58C200.059 42.311 200.668 42.51 200.936 42.992C201.42 43.863 202.932 45.126 204.777 45.177C205.329 45.193 205.764 45.565 205.749 46.116C205.734 46.658 205.29 47 204.75 47ZM222.188 47.188C222.04 47.1881 221.894 47.1553 221.76 47.092C221.626 47.0287 221.508 46.9364 221.414 46.8219C221.32 46.7073 221.253 46.5734 221.217 46.4297C221.181 46.286 221.178 46.1362 221.207 45.991C221.871 42.669 225.101 41.841 226.685 42.142C226.946 42.191 227.176 42.3415 227.326 42.5603C227.475 42.7791 227.532 43.0484 227.483 43.309C227.46 43.4384 227.411 43.5618 227.339 43.6721C227.267 43.7824 227.175 43.8774 227.066 43.9517C226.958 44.0259 226.835 44.0778 226.707 44.1045C226.578 44.1312 226.445 44.132 226.316 44.107C225.891 44.027 223.626 44.1 223.169 46.383C223.124 46.61 223.002 46.8143 222.823 46.961C222.644 47.1078 222.419 47.188 222.188 47.188ZM219.624 42.688C219.449 42.6881 219.276 42.642 219.124 42.5542C218.972 42.4664 218.846 42.3401 218.758 42.1881C218.67 42.036 218.624 41.8634 218.624 41.6879C218.625 41.5123 218.671 41.3399 218.759 41.188C220.611 37.982 222.743 37.884 224.153 37.819L224.264 37.814C224.529 37.8013 224.788 37.8943 224.985 38.0727C225.181 38.251 225.298 38.5 225.311 38.765C225.324 39.03 225.231 39.2891 225.052 39.4855C224.874 39.6818 224.625 39.7993 224.36 39.812L224.245 39.817C223.041 39.873 221.796 39.929 220.491 42.188C220.403 42.3402 220.277 42.4665 220.125 42.5543C219.972 42.642 219.8 42.6882 219.624 42.688ZM218.624 36.625C218.445 36.625 218.268 36.5767 218.114 36.4851C217.96 36.3935 217.833 36.262 217.747 36.1044C217.661 35.9468 217.619 35.769 217.626 35.5896C217.632 35.4102 217.687 35.2359 217.784 35.085C219.199 32.882 222.44 32.584 224.052 33.347C224.29 33.4612 224.474 33.6652 224.562 33.9143C224.651 34.1634 224.637 34.4373 224.524 34.6763C224.411 34.9152 224.208 35.0997 223.959 35.1894C223.711 35.2791 223.437 35.2667 223.197 35.155C222.368 34.762 220.271 34.916 219.465 36.167C219.374 36.3076 219.25 36.4232 219.103 36.5032C218.956 36.5832 218.791 36.6251 218.624 36.625ZM224.249 30.688C224.015 30.6879 223.789 30.6058 223.609 30.456C223.415 30.294 221.657 28.897 219.828 29.671C219.586 29.7618 219.319 29.7557 219.082 29.654C218.845 29.5523 218.656 29.3629 218.555 29.1253C218.454 28.8877 218.449 28.6203 218.54 28.3789C218.632 28.1376 218.813 27.9409 219.046 27.83C221.265 26.888 223.581 27.829 224.89 28.92C225.048 29.0516 225.161 29.2287 225.215 29.4271C225.269 29.6255 225.26 29.8356 225.19 30.0288C225.12 30.2221 224.992 30.389 224.823 30.507C224.655 30.6249 224.455 30.6881 224.249 30.688ZM226.063 26.75C225.885 26.7502 225.709 26.7026 225.556 26.6122C225.402 26.5219 225.275 26.392 225.188 26.236C224.704 25.364 223.192 24.113 221.347 24.062C220.794 24.047 220.36 23.556 220.374 23.003C220.391 22.461 220.835 22 221.374 22H221.402C223.907 22 226.082 23.694 226.936 25.232C227.065 25.4664 227.097 25.7423 227.024 25.9999C226.951 26.2575 226.78 26.476 226.547 26.608C226.401 26.6959 226.234 26.7448 226.063 26.75Z" fill="#DD2E44"/>
</g>
<defs>
<clipPath id="clip0_1377_171">
<rect width="36" height="36" fill="white" transform="translate(195 17)"/>
</clipPath>
</defs>
</svg>
