<svg width="570" height="207" viewBox="0 0 570 207" fill="none" xmlns="http://www.w3.org/2000/svg">
<rect x="0.5" y="0.5" width="569" height="206" rx="17.5" fill="white" stroke="#8A9A6B"/>
<path d="M40.7406 27.1307H44.2414V45.3454H40.7406V27.1307ZM43.2412 34.5535H47.479V37.4226H43.2412V34.5535ZM25.0529 29.6576H39.3982V32.3951H25.0529V29.6576ZM32.2387 33.2637C35.7395 33.2637 38.2138 35.1852 38.2138 37.9753C38.2138 40.7654 35.7395 42.6606 32.2387 42.6606C28.7116 42.6606 26.2373 40.7654 26.2373 37.9753C26.2373 35.1852 28.7116 33.2637 32.2387 33.2637ZM32.2387 35.9222C30.6857 35.9222 29.6065 36.6592 29.6065 37.9753C29.6065 39.2914 30.6857 40.0021 32.2387 40.0021C33.7917 40.0021 34.8709 39.2914 34.8709 37.9753C34.8709 36.6592 33.7917 35.9222 32.2387 35.9222ZM30.4752 27.0781H33.9759V31H30.4752V27.0781ZM28.5273 48.2671H45.1101V51.0572H28.5273V48.2671ZM28.5273 43.9767H32.0281V49.4779H28.5273V43.9767ZM72.5365 27.1044H76.0636V40.2127H72.5365V27.1044ZM59.8494 41.2655H63.2976V43.5292H72.5892V41.2655H76.0636V51.2152H59.8494V41.2655ZM63.2976 46.214V48.4251H72.5892V46.214H63.2976ZM62.7975 28.1047C66.5878 28.1047 69.4042 30.4999 69.4042 33.8691C69.4042 37.2383 66.5878 39.6336 62.7975 39.6336C59.0071 39.6336 56.1644 37.2383 56.1644 33.8691C56.1644 30.4999 59.0071 28.1047 62.7975 28.1047ZM62.7975 31C60.9286 31 59.5862 32.0792 59.5862 33.8691C59.5862 35.6853 60.9286 36.7382 62.7975 36.7382C64.64 36.7382 65.9824 35.6853 65.9824 33.8691C65.9824 32.0792 64.64 31 62.7975 31ZM93.0667 28.789C96.778 28.789 99.4628 32.1582 99.4628 37.4752C99.4628 42.8448 96.778 46.214 93.0667 46.214C89.3553 46.214 86.6705 42.8448 86.6705 37.4752C86.6705 32.1582 89.3553 28.789 93.0667 28.789ZM93.0667 31.974C91.2505 31.974 90.0397 33.8954 90.0397 37.4752C90.0397 41.1076 91.2505 43.0554 93.0667 43.0554C94.8829 43.0554 96.12 41.1076 96.12 37.4752C96.12 33.8954 94.8829 31.974 93.0667 31.974ZM104.701 32.7636H108.991V35.659H104.701V32.7636ZM104.701 39.9231H108.991V42.7922H104.701V39.9231ZM102.121 27.1044H105.648V51.4784H102.121V27.1044ZM113.28 28.5258H128.573V31.2896H113.28V28.5258ZM110.779 38.8966H132.81V41.713H110.779V38.8966ZM119.913 40.8707H123.44V51.5047H119.913V40.8707ZM126.783 28.5258H130.231V30.6842C130.231 33.3164 130.231 36.2644 129.283 40.5812L125.835 40.1863C126.783 36.1065 126.783 33.2111 126.783 30.6842V28.5258ZM146.839 28.4205H149.708V30.5789C149.708 35.4221 147.602 39.6862 142.97 41.2919L141.101 38.5281C145.181 37.1593 146.839 33.8954 146.839 30.5789V28.4205ZM147.55 28.4205H150.393V30.9211C150.393 33.8428 152.025 36.6855 155.841 37.87L154.025 40.5812C149.629 39.1072 147.55 35.3168 147.55 30.9211V28.4205ZM157.184 27.1044H160.684V41.5024H157.184V27.1044ZM159.71 32.7373H163.922V35.6327H159.71V32.7373ZM152.735 42.0552C157.789 42.0552 160.974 43.8187 160.974 46.7668C160.974 49.7411 157.789 51.4784 152.735 51.4784C147.655 51.4784 144.47 49.7411 144.47 46.7668C144.47 43.8187 147.655 42.0552 152.735 42.0552ZM152.735 44.7663C149.629 44.7663 147.945 45.4244 147.945 46.7668C147.945 48.1355 149.629 48.7672 152.735 48.7672C155.841 48.7672 157.499 48.1355 157.499 46.7668C157.499 45.4244 155.841 44.7663 152.735 44.7663ZM171.422 28.2099H174.317V30.5526C174.317 35.1589 172.08 39.344 167.315 40.8707L165.605 38.1069C169.711 36.7908 171.422 33.6322 171.422 30.5526V28.2099ZM172.132 28.2099H175.001V30.5526C175.001 33.5533 176.686 36.5013 180.661 37.7121L178.95 40.4496C174.291 38.9755 172.132 35.0799 172.132 30.5526V28.2099ZM169.342 42.7132H185.978V51.4784H182.45V45.5033H169.342V42.7132ZM182.45 27.1044H185.978V41.634H182.45V27.1044Z" fill="black"/>
<path d="M25.68 104.285H27.18C30.46 104.285 32.6 104.205 35 103.765L35.26 105.905C32.78 106.365 30.56 106.465 27.18 106.465H25.68V104.285ZM25.68 94.0055H34.06V96.1255H28.34V105.105H25.68V94.0055ZM37.7 92.3655H40.36V110.945H37.7V92.3655ZM33.16 98.7455H38.82V100.905H33.16V98.7455ZM44.9184 94.0655H56.6584V96.1655H44.9184V94.0655ZM43.2184 106.305H59.9584V108.465H43.2184V106.305ZM55.2584 94.0655H57.8984V96.2655C57.8984 98.8655 57.8984 101.385 57.2384 105.185L54.5784 104.965C55.2584 101.405 55.2584 98.7655 55.2584 96.2655V94.0655ZM66.5569 93.6455C69.3769 93.6455 71.4169 96.2055 71.4169 100.245C71.4169 104.325 69.3769 106.885 66.5569 106.885C63.7369 106.885 61.6969 104.325 61.6969 100.245C61.6969 96.2055 63.7369 93.6455 66.5569 93.6455ZM66.5569 96.0655C65.1769 96.0655 64.2569 97.5255 64.2569 100.245C64.2569 103.005 65.1769 104.485 66.5569 104.485C67.9369 104.485 68.8769 103.005 68.8769 100.245C68.8769 97.5255 67.9369 96.0655 66.5569 96.0655ZM73.4369 92.3655H76.1169V110.885H73.4369V92.3655ZM75.5169 99.3455H78.7969V101.545H75.5169V99.3455ZM79.9953 100.485H96.7553V102.625H79.9953V100.485ZM87.0153 101.425H89.6553V104.365H87.0153V101.425ZM86.9553 105.105H89.2153V105.425C89.2153 108.125 86.6953 110.385 81.9353 110.825L81.0753 108.825C85.1153 108.465 86.9553 106.845 86.9553 105.425V105.105ZM87.4353 105.105H89.6953V105.425C89.6953 106.945 91.4753 108.485 95.5753 108.825L94.7353 110.825C89.9953 110.385 87.4353 108.245 87.4353 105.425V105.105ZM88.3753 92.5655C92.4753 92.5655 95.0753 93.8655 95.0753 96.0655C95.0753 98.2655 92.4753 99.5655 88.3753 99.5655C84.2753 99.5655 81.6753 98.2655 81.6753 96.0655C81.6753 93.8655 84.2753 92.5655 88.3753 92.5655ZM88.3753 94.5455C85.8153 94.5455 84.4153 95.0455 84.4153 96.0655C84.4153 97.0455 85.8153 97.5655 88.3753 97.5655C90.9153 97.5655 92.3353 97.0455 92.3353 96.0655C92.3353 95.0455 90.9153 94.5455 88.3753 94.5455ZM111.714 92.5655H113.374V110.685H111.714V92.5655ZM103.834 93.9655C106.514 93.9655 108.434 96.4255 108.434 100.265C108.434 104.125 106.514 106.585 103.834 106.585C101.174 106.585 99.2538 104.125 99.2538 100.265C99.2538 96.4255 101.174 93.9655 103.834 93.9655ZM103.834 95.4655C102.074 95.4655 100.834 97.3455 100.834 100.265C100.834 103.205 102.074 105.125 103.834 105.125C105.614 105.125 106.834 103.205 106.834 100.265C106.834 97.3455 105.614 95.4655 103.834 95.4655ZM129.352 92.6055H131.012V105.925H129.352V92.6055ZM130.512 98.1255H133.692V99.5255H130.512V98.1255ZM119.872 108.905H131.832V110.265H119.872V108.905ZM119.872 104.885H121.532V109.405H119.872V104.885ZM117.772 101.745H119.192C122.472 101.745 124.812 101.645 127.632 101.145L127.772 102.525C124.912 103.005 122.532 103.105 119.192 103.105H117.772V101.745ZM117.732 93.7655H125.872V98.9455H119.392V102.225H117.772V97.6855H124.232V95.1255H117.732V93.7655ZM149.324 95.9055H154.164V97.2655H149.324V95.9055ZM149.164 99.6655H154.044V101.025H149.164V99.6655ZM153.884 92.5855H155.544V103.425H153.884V92.5855ZM148.224 93.9455H150.004C150.004 98.6055 146.784 101.865 141.584 103.425L140.904 102.085C145.524 100.745 148.224 98.0855 148.224 94.6655V93.9455ZM141.844 93.9455H149.364V95.3055H141.844V93.9455ZM149.664 103.625C153.324 103.625 155.644 104.925 155.644 107.105C155.644 109.285 153.324 110.585 149.664 110.585C146.004 110.585 143.684 109.285 143.684 107.105C143.684 104.925 146.004 103.625 149.664 103.625ZM149.664 104.925C147.024 104.925 145.324 105.745 145.324 107.105C145.324 108.465 147.024 109.265 149.664 109.265C152.324 109.265 154.024 108.465 154.024 107.105C154.024 105.745 152.324 104.925 149.664 104.925ZM172.242 92.5855H173.902V110.665H172.242V92.5855ZM166.942 94.5255H168.582C168.582 99.7655 166.222 104.345 160.182 107.305L159.302 105.965C164.522 103.445 166.942 99.6055 166.942 94.8055V94.5255ZM160.122 94.5255H167.662V95.8855H160.122V94.5255ZM189.7 92.5655H191.38V110.665H189.7V92.5655ZM190.92 99.9055H194.26V101.285H190.92V99.9055ZM185.08 94.5255H186.7C186.7 99.6655 184.34 104.305 178.5 107.245L177.58 105.965C182.58 103.425 185.08 99.5655 185.08 94.7855V94.5255ZM178.42 94.5255H185.94V95.8855H178.42V94.5255ZM205.972 94.5655H207.352V96.4055C207.352 99.7255 205.312 102.505 202.272 103.605L201.412 102.285C204.132 101.325 205.972 98.9855 205.972 96.4055V94.5655ZM206.292 94.5655H207.672V96.4055C207.672 98.8455 209.552 101.045 212.232 101.945L211.372 103.245C208.372 102.225 206.292 99.5855 206.292 96.4055V94.5655ZM201.852 94.0855H211.752V95.4255H201.852V94.0855ZM214.312 92.6055H215.992V105.825H214.312V92.6055ZM204.372 108.905H216.532V110.265H204.372V108.905ZM204.372 104.585H206.012V109.505H204.372V104.585ZM233.21 92.5855H234.79V104.025H233.21V92.5855ZM230.27 97.4855H233.69V98.8655H230.27V97.4855ZM229.35 92.9455H230.91V103.385H229.35V92.9455ZM219.47 94.7455H228.63V96.0655H219.47V94.7455ZM224.07 96.9855C226.33 96.9855 227.91 98.2255 227.91 100.085C227.91 101.965 226.33 103.185 224.07 103.185C221.79 103.185 220.21 101.965 220.21 100.085C220.21 98.2255 221.79 96.9855 224.07 96.9855ZM224.07 98.2255C222.65 98.2255 221.69 98.9655 221.69 100.085C221.69 101.225 222.65 101.945 224.07 101.945C225.47 101.945 226.43 101.225 226.43 100.085C226.43 98.9655 225.47 98.2255 224.07 98.2255ZM223.25 92.7255H224.87V95.4855H223.25V92.7255ZM228.87 104.345C232.63 104.345 234.89 105.465 234.89 107.485C234.89 109.485 232.63 110.625 228.87 110.625C225.07 110.625 222.83 109.485 222.83 107.485C222.83 105.465 225.07 104.345 228.87 104.345ZM228.87 105.625C226.09 105.625 224.47 106.285 224.47 107.485C224.47 108.685 226.09 109.365 228.87 109.365C231.61 109.365 233.25 108.685 233.25 107.485C233.25 106.285 231.61 105.625 228.87 105.625ZM239.389 100.365H248.649V101.725H239.389V100.365ZM243.089 101.445H244.769V105.605H243.089V101.445ZM239.389 94.2855H248.549V95.6455H241.049V100.845H239.389V94.2855ZM251.029 92.5655H252.689V110.685H251.029V92.5655ZM238.289 106.765L238.049 105.385C241.589 105.365 246.029 105.325 249.849 104.865L249.989 106.105C246.029 106.705 241.709 106.785 238.289 106.765ZM258.567 98.0055H270.847V99.3655H258.567V98.0055ZM256.347 101.785H272.747V103.145H256.347V101.785ZM258.567 93.2455H260.207V98.6855H258.567V93.2455ZM258.447 108.865H270.947V110.225H258.447V108.865ZM258.447 104.945H260.087V109.225H258.447V104.945ZM280.059 101.485H296.399V102.845H280.059V101.485ZM287.399 98.5855H289.039V102.045H287.399V98.5855ZM282.119 98.0655H294.499V99.4255H282.119V98.0655ZM282.119 93.4055H294.359V94.7455H283.759V98.8655H282.119V93.4055ZM288.199 104.145C292.059 104.145 294.399 105.325 294.399 107.385C294.399 109.485 292.059 110.645 288.199 110.645C284.339 110.645 281.999 109.485 281.999 107.385C281.999 105.325 284.339 104.145 288.199 104.145ZM288.199 105.425C285.379 105.425 283.679 106.145 283.679 107.385C283.679 108.645 285.379 109.345 288.199 109.345C291.039 109.345 292.719 108.645 292.719 107.385C292.719 106.145 291.039 105.425 288.199 105.425ZM310.817 92.5655H312.477V105.885H310.817V92.5655ZM311.957 98.0655H315.157V99.4455H311.957V98.0655ZM301.217 108.905H313.297V110.265H301.217V108.905ZM301.217 104.525H302.877V109.445H301.217V104.525ZM303.497 93.8455C306.197 93.8455 308.217 95.7055 308.217 98.3055C308.217 100.925 306.197 102.765 303.497 102.765C300.797 102.765 298.777 100.925 298.777 98.3055C298.777 95.7055 300.797 93.8455 303.497 93.8455ZM303.497 95.3055C301.737 95.3055 300.397 96.5455 300.397 98.3055C300.397 100.085 301.737 101.305 303.497 101.305C305.257 101.305 306.597 100.085 306.597 98.3055C306.597 96.5455 305.257 95.3055 303.497 95.3055ZM334.508 92.5855H336.168V102.825H334.508V92.5855ZM335.708 96.9855H338.848V98.3655H335.708V96.9855ZM329.508 93.7455H331.268C331.268 98.3055 328.088 101.585 322.768 103.025L322.128 101.705C326.808 100.425 329.508 97.8055 329.508 94.4855V93.7455ZM322.908 93.7455H330.428V95.0855H322.908V93.7455ZM324.788 103.685H336.168V110.425H324.788V103.685ZM334.528 105.025H326.428V109.065H334.528V105.025ZM340.547 101.605H356.887V102.925H340.547V101.605ZM347.887 98.4855H349.527V102.125H347.887V98.4855ZM342.347 104.685H354.887V110.805H353.227V106.045H342.347V104.685ZM342.607 98.0855H355.007V99.4455H342.607V98.0855ZM342.607 93.3055H354.847V94.6655H344.267V98.7855H342.607V93.3055ZM362.136 107.117L362.029 107.891C361.958 108.459 361.837 109.051 361.667 109.667C361.501 110.287 361.328 110.862 361.148 111.392C360.973 111.923 360.829 112.344 360.715 112.657H359.21C359.271 112.363 359.356 111.965 359.465 111.463C359.574 110.966 359.681 110.41 359.785 109.794C359.889 109.179 359.967 108.551 360.019 107.912L360.09 107.117H362.136ZM379.026 96.8455H383.586V98.2255H379.026V96.8455ZM374.286 93.6855H375.626V95.9055C375.626 99.4055 373.666 102.325 370.646 103.545L369.786 102.225C372.466 101.225 374.286 98.6655 374.286 95.9055V93.6855ZM374.606 93.6855H375.946V95.9655C375.946 98.4855 377.706 100.865 380.326 101.825L379.426 103.105C376.546 101.985 374.606 99.1855 374.606 95.9655V93.6855ZM382.966 92.6055H384.626V106.125H382.966V92.6055ZM373.006 108.905H385.066V110.265H373.006V108.905ZM373.006 104.625H374.666V109.545H373.006V104.625ZM395.464 93.2255H396.924V94.2255C396.924 97.6855 393.404 100.165 389.644 100.805L388.984 99.4655C392.284 98.9655 395.464 96.8055 395.464 94.2255V93.2255ZM395.764 93.2255H397.204V94.2255C397.204 96.7455 400.424 98.9655 403.684 99.4655L403.024 100.805C399.304 100.165 395.764 97.6455 395.764 94.2255V93.2255ZM395.464 103.785H397.104V110.665H395.464V103.785ZM388.164 102.765H404.504V104.145H388.164V102.765ZM409.753 107.117L409.646 107.891C409.575 108.459 409.455 109.051 409.284 109.667C409.118 110.287 408.946 110.862 408.766 111.392C408.59 111.923 408.446 112.344 408.332 112.657H406.827C406.888 112.363 406.973 111.965 407.082 111.463C407.191 110.966 407.298 110.41 407.402 109.794C407.506 109.179 407.584 108.551 407.636 107.912L407.707 107.117H409.753ZM419.323 94.3455H430.803V95.7055H419.323V94.3455ZM417.363 106.845H433.703V108.205H417.363V106.845ZM430.123 94.3455H431.743V96.0655C431.743 98.2655 431.743 100.745 431.003 104.445L429.343 104.245C430.123 100.745 430.123 98.2055 430.123 96.0655V94.3455ZM430.483 98.6855V99.9455L419.083 100.585L418.823 99.1455L430.483 98.6855ZM423.723 102.165H425.383V107.345H423.723V102.165ZM448.921 92.5855H450.581V110.665H448.921V92.5855ZM440.781 96.8855H442.121V98.4255C442.121 102.285 439.941 105.785 437.041 107.185L436.101 105.905C438.781 104.665 440.781 101.585 440.781 98.4255V96.8855ZM441.101 96.8855H442.421V98.4255C442.421 101.445 444.481 104.385 447.181 105.565L446.241 106.865C443.321 105.545 441.101 102.165 441.101 98.4255V96.8855ZM436.601 95.7255H446.561V97.0655H436.601V95.7255ZM440.781 92.9055H442.441V96.4655H440.781V92.9055ZM454.18 100.125H470.52V101.485H454.18V100.125ZM456.34 97.3255H468.58V98.6655H456.34V97.3255ZM456.34 93.1655H468.38V94.5255H457.98V98.4055H456.34V93.1655ZM456.14 103.045H468.42V107.305H457.82V109.585H456.18V106.065H466.78V104.345H456.14V103.045ZM456.18 109.145H468.96V110.465H456.18V109.145ZM485.698 92.5655H487.358V110.685H485.698V92.5655ZM477.818 93.9655C480.498 93.9655 482.418 96.4255 482.418 100.265C482.418 104.125 480.498 106.585 477.818 106.585C475.158 106.585 473.238 104.125 473.238 100.265C473.238 96.4255 475.158 93.9655 477.818 93.9655ZM477.818 95.4655C476.058 95.4655 474.818 97.3455 474.818 100.265C474.818 103.205 476.058 105.125 477.818 105.125C479.598 105.125 480.818 103.205 480.818 100.265C480.818 97.3455 479.598 95.4655 477.818 95.4655ZM510.01 92.5855H511.61V110.665H510.01V92.5855ZM506.95 99.8255H510.43V101.205H506.95V99.8255ZM505.91 92.9855H507.47V109.745H505.91V92.9855ZM496.91 104.825H498.09C500.73 104.825 502.53 104.725 504.63 104.285L504.79 105.665C502.63 106.125 500.81 106.205 498.09 106.205H496.91V104.825ZM496.91 94.7855H503.63V96.1455H498.55V105.445H496.91V94.7855ZM527.828 92.5855H529.488V110.665H527.828V92.5855ZM522.528 94.5255H524.168C524.168 99.7655 521.808 104.345 515.768 107.305L514.888 105.965C520.108 103.445 522.528 99.6055 522.528 94.8055V94.5255ZM515.708 94.5255H523.248V95.8855H515.708V94.5255ZM37.24 116.585H38.9V134.665H37.24V116.585ZM38.5 124.005H41.86V125.405H38.5V124.005ZM24.9 119.465H35.56V120.825H24.9V119.465ZM30.3 122.325C32.86 122.325 34.7 124.045 34.7 126.485C34.7 128.925 32.86 130.645 30.3 130.645C27.76 130.645 25.9 128.925 25.9 126.485C25.9 124.045 27.76 122.325 30.3 122.325ZM30.3 123.705C28.66 123.705 27.48 124.845 27.48 126.485C27.48 128.105 28.66 129.265 30.3 129.265C31.94 129.265 33.12 128.105 33.12 126.485C33.12 124.845 31.94 123.705 30.3 123.705ZM29.44 116.805H31.1V120.085H29.44V116.805ZM45.5984 122.005H57.8784V123.365H45.5984V122.005ZM43.3784 125.785H59.7784V127.145H43.3784V125.785ZM45.5984 117.245H47.2384V122.685H45.5984V117.245ZM45.4784 132.865H57.9784V134.225H45.4784V132.865ZM45.4784 128.945H47.1184V133.225H45.4784V128.945ZM71.5298 118.525H72.8898V119.985C72.8898 123.305 70.8898 126.085 67.8498 127.185L67.0098 125.865C69.7298 124.905 71.5298 122.565 71.5298 119.985V118.525ZM71.8298 118.525H73.1898V119.965C73.1898 122.325 74.9098 124.445 77.5698 125.325L76.7698 126.625C73.7498 125.625 71.8298 123.045 71.8298 119.965V118.525ZM67.5098 117.925H77.1698V119.285H67.5098V117.925ZM79.4498 116.585H81.1098V127.485H79.4498V116.585ZM80.6498 121.165H83.7898V122.565H80.6498V121.165ZM75.3498 127.965C79.0298 127.965 81.2898 129.185 81.2898 131.285C81.2898 133.405 79.0298 134.625 75.3498 134.625C71.6698 134.625 69.4098 133.405 69.4098 131.285C69.4098 129.185 71.6698 127.965 75.3498 127.965ZM75.3498 129.305C72.6698 129.305 71.0298 130.025 71.0298 131.285C71.0298 132.565 72.6698 133.325 75.3498 133.325C78.0298 133.325 79.6698 132.565 79.6698 131.285C79.6698 130.025 78.0298 129.305 75.3498 129.305ZM85.4883 130.945H101.868V132.325H85.4883V130.945ZM92.7683 126.565H94.4083V131.405H92.7683V126.565ZM92.7283 117.785H94.1683V119.185C94.1683 123.045 90.4683 126.025 86.8283 126.785L86.1283 125.405C89.3083 124.825 92.7283 122.165 92.7283 119.185V117.785ZM93.0283 117.785H94.4683V119.185C94.4683 122.185 97.9083 124.825 101.088 125.405L100.368 126.785C96.7283 126.025 93.0283 123.045 93.0283 119.185V117.785ZM103.887 131.065H120.267V132.445H103.887V131.065ZM111.207 127.185H112.867V131.645H111.207V127.185ZM105.867 117.925H118.247V123.405H107.567V127.025H105.927V122.065H116.607V119.265H105.867V117.925ZM105.927 126.325H118.667V127.685H105.927V126.325ZM137.818 119.805H141.698V121.165H137.818V119.805ZM137.818 123.045H141.698V124.405H137.818V123.045ZM128.098 117.945H137.618V119.305H128.098V117.945ZM127.798 126.665L127.618 125.265C130.578 125.265 134.798 125.225 138.178 124.825L138.278 126.065C134.798 126.625 130.738 126.665 127.798 126.665ZM129.898 119.005H131.498V125.725H129.898V119.005ZM134.218 119.005H135.818V125.725H134.218V119.005ZM140.778 116.585H142.438V127.745H140.778V116.585ZM136.498 128.105C140.238 128.105 142.518 129.285 142.518 131.365C142.518 133.445 140.238 134.625 136.498 134.625C132.738 134.625 130.458 133.445 130.458 131.365C130.458 129.285 132.738 128.105 136.498 128.105ZM136.498 129.405C133.758 129.405 132.118 130.125 132.118 131.365C132.118 132.605 133.758 133.345 136.498 133.345C139.238 133.345 140.878 132.605 140.878 131.365C140.878 130.125 139.238 129.405 136.498 129.405ZM150.757 119.165H152.097V122.105C152.097 125.925 149.797 129.765 146.917 131.185L145.957 129.865C148.577 128.625 150.757 125.225 150.757 122.105V119.165ZM151.077 119.165H152.417V122.105C152.417 125.165 154.597 128.285 157.257 129.425L156.317 130.745C153.397 129.385 151.077 125.865 151.077 122.105V119.165ZM146.557 118.425H156.657V119.825H146.557V118.425ZM159.097 116.585H160.757V134.665H159.097V116.585ZM164.355 124.985H180.755V126.245H164.355V124.985ZM166.295 127.705H178.695V131.565H167.995V133.685H166.355V130.425H177.075V128.885H166.295V127.705ZM166.355 133.245H179.275V134.445H166.355V133.245ZM166.435 117.105H178.635V120.865H168.115V122.825H166.475V119.745H177.015V118.285H166.435V117.105ZM166.475 122.425H178.975V123.625H166.475V122.425ZM188.066 130.965H204.446V132.345H188.066V130.965ZM195.426 126.585H197.066V131.425H195.426V126.585ZM195.386 118.865H196.786V119.985C196.786 123.685 193.086 126.485 189.526 127.225L188.846 125.905C191.966 125.385 195.386 122.845 195.386 119.985V118.865ZM195.686 118.865H197.086V119.985C197.086 122.845 200.526 125.325 203.686 125.845L203.026 127.165C199.406 126.445 195.686 123.685 195.686 119.985V118.865ZM189.406 118.225H203.066V119.585H189.406V118.225ZM208.545 117.525H220.185V118.885H208.545V117.525ZM206.465 124.185H222.845V125.545H206.465V124.185ZM219.105 117.525H220.725V118.865C220.725 120.405 220.725 122.165 220.125 124.665L218.505 124.585C219.105 122.105 219.105 120.365 219.105 118.865V117.525ZM208.465 128.005H220.785V134.425H208.465V128.005ZM219.165 129.325H210.085V133.085H219.165V129.325ZM230.376 118.525H240.436V119.885H230.376V118.525ZM230.116 130.205L229.916 128.785C233.176 128.785 237.556 128.745 241.276 128.285L241.376 129.525C237.596 130.145 233.296 130.205 230.116 130.205ZM232.316 119.545H233.936V129.165H232.316V119.545ZM236.876 119.545H238.496V129.165H236.876V119.545ZM242.376 116.585H244.056V134.665H242.376V116.585ZM243.656 123.805H247.016V125.205H243.656V123.805ZM257.575 122.705H262.615V124.065H257.575V122.705ZM253.215 118.145H254.575V121.365C254.575 125.425 252.435 129.305 249.575 130.845L248.515 129.525C251.175 128.205 253.215 124.725 253.215 121.365V118.145ZM253.535 118.145H254.875V121.365C254.875 124.665 256.915 127.945 259.535 129.185L258.555 130.525C255.635 129.045 253.535 125.325 253.535 121.365V118.145ZM261.795 116.565H263.435V134.685H261.795V116.565ZM274.006 118.505H285.646V119.845H274.006V118.505ZM272.246 130.645H288.586V132.025H272.246V130.645ZM284.766 118.505H286.386V120.305C286.386 122.625 286.386 125.205 285.706 129.105L284.046 128.945C284.766 125.245 284.766 122.545 284.766 120.305V118.505ZM302.885 116.565H304.545V134.685H302.885V116.565ZM304.145 123.765H307.505V125.165H304.145V123.765ZM291.365 128.945H292.805C296.205 128.945 298.565 128.825 301.305 128.305L301.485 129.685C298.665 130.185 296.265 130.325 292.805 130.325H291.365V128.945ZM291.325 118.265H299.505V124.745H293.005V129.505H291.365V123.385H297.865V119.625H291.325V118.265ZM309.023 125.745H325.423V127.105H309.023V125.745ZM316.503 126.605H318.183V130.765H316.503V126.605ZM311.103 132.885H323.603V134.265H311.103V132.885ZM311.103 128.985H312.763V133.265H311.103V128.985ZM317.203 117.025C321.023 117.025 323.543 118.425 323.543 120.665C323.543 122.905 321.023 124.305 317.203 124.305C313.363 124.305 310.863 122.905 310.863 120.665C310.863 118.425 313.363 117.025 317.203 117.025ZM317.203 118.385C314.443 118.385 312.623 119.265 312.623 120.665C312.623 122.085 314.443 122.945 317.203 122.945C319.963 122.945 321.783 122.085 321.783 120.665C321.783 119.265 319.963 118.385 317.203 118.385ZM329.501 125.245H341.921V126.605H329.501V125.245ZM327.441 130.845H343.821V132.225H327.441V130.845ZM329.501 118.245H341.741V119.625H331.161V125.845H329.501V118.245ZM345.84 130.985H362.22V132.365H345.84V130.985ZM353.16 126.665H354.82V131.385H353.16V126.665ZM347.76 117.865H349.4V121.085H358.62V117.865H360.26V127.105H347.76V117.865ZM349.4 122.425V125.745H358.62V122.425H349.4ZM376.458 116.565H378.138V134.685H376.458V116.565ZM377.738 123.705H381.098V125.105H377.738V123.705ZM364.998 128.785H366.418C369.758 128.785 372.098 128.665 374.798 128.165L374.978 129.565C372.198 130.085 369.818 130.185 366.418 130.185H364.998V128.785ZM364.998 118.325H373.398V119.685H366.638V129.405H364.998V118.325ZM400.29 116.545H401.95V126.805H400.29V116.545ZM401.49 120.985H404.63V122.365H401.49V120.985ZM388.79 117.565H390.45V124.845H388.79V117.565ZM388.79 124.005H390.21C392.81 124.005 395.51 123.825 398.47 123.225L398.67 124.605C395.61 125.205 392.91 125.405 390.21 125.405H388.79V124.005ZM395.47 128.405H396.89V128.965C396.89 131.825 393.91 133.965 390.39 134.565L389.73 133.305C392.85 132.825 395.47 131.025 395.47 128.965V128.405ZM395.81 128.405H397.23V128.965C397.23 130.985 399.89 132.825 402.95 133.305L402.31 134.585C398.79 133.985 395.81 131.785 395.81 128.965V128.405ZM390.41 127.725H402.27V129.085H390.41V127.725ZM420.088 116.585H421.688V134.665H420.088V116.585ZM412.248 123.965H416.808V125.305H412.248V123.965ZM416.328 117.045H417.888V133.745H416.328V117.045ZM412.468 118.865H414.068C414.068 123.605 412.168 127.865 407.288 130.765L406.308 129.585C410.568 127.025 412.468 123.425 412.468 119.165V118.865ZM407.108 118.865H413.088V120.225H407.108V118.865ZM439.3 119.845H443.92V121.225H439.3V119.845ZM443.22 116.585H444.88V125.905H443.22V116.585ZM433.24 126.845H444.88V131.165H434.92V133.905H433.3V129.925H443.24V128.165H433.24V126.845ZM433.3 133.105H445.56V134.425H433.3V133.105ZM434.52 117.145H435.88V118.845C435.88 122.185 433.88 124.885 430.86 125.965L430 124.645C432.72 123.725 434.52 121.465 434.52 118.845V117.145ZM434.8 117.145H436.14V118.845C436.14 121.205 437.96 123.385 440.58 124.245L439.72 125.545C436.8 124.505 434.8 121.905 434.8 118.845V117.145ZM461.558 116.585H463.218V134.665H461.558V116.585ZM453.418 120.885H454.758V122.425C454.758 126.285 452.578 129.785 449.678 131.185L448.738 129.905C451.418 128.665 453.418 125.585 453.418 122.425V120.885ZM453.738 120.885H455.058V122.425C455.058 125.445 457.118 128.385 459.818 129.565L458.878 130.865C455.958 129.545 453.738 126.165 453.738 122.425V120.885ZM449.238 119.725H459.198V121.065H449.238V119.725ZM453.418 116.905H455.078V120.465H453.418V116.905ZM468.236 124.365H477.496V125.725H468.236V124.365ZM471.936 125.445H473.616V129.605H471.936V125.445ZM468.236 118.285H477.396V119.645H469.896V124.845H468.236V118.285ZM479.876 116.565H481.536V134.685H479.876V116.565ZM467.136 130.765L466.896 129.385C470.436 129.365 474.876 129.325 478.696 128.865L478.836 130.105C474.876 130.705 470.556 130.785 467.136 130.765ZM490.035 117.965C492.655 117.965 494.535 120.425 494.535 124.265C494.535 128.125 492.655 130.585 490.035 130.585C487.395 130.585 485.535 128.125 485.535 124.265C485.535 120.425 487.395 117.965 490.035 117.965ZM490.035 119.465C488.295 119.465 487.115 121.345 487.115 124.265C487.115 127.205 488.295 129.125 490.035 129.125C491.775 129.125 492.955 127.205 492.955 124.265C492.955 121.345 491.775 119.465 490.035 119.465ZM498.455 116.565H500.095V134.685H498.455V116.565ZM493.995 123.465H499.175V124.825H493.995V123.465ZM513.406 127.705H514.686V128.685C514.686 131.045 513.206 133.425 510.606 134.425L509.766 133.185C512.046 132.365 513.406 130.425 513.406 128.685V127.705ZM513.766 127.705H515.006V128.685C515.006 130.505 516.086 132.445 518.246 133.325L517.546 134.585C514.946 133.565 513.766 131.085 513.766 128.685V127.705ZM520.086 127.705H521.326V128.685C521.326 130.805 520.126 133.485 517.546 134.585L516.846 133.325C518.986 132.345 520.086 130.245 520.086 128.685V127.705ZM520.426 127.705H521.706V128.685C521.706 130.545 523.046 132.405 525.346 133.185L524.506 134.425C521.866 133.465 520.426 131.185 520.426 128.685V127.705ZM522.046 116.605H523.726V126.925H522.046V116.605ZM514.026 117.645C516.766 117.645 518.726 119.365 518.726 121.865C518.726 124.365 516.766 126.065 514.026 126.065C511.286 126.065 509.306 124.365 509.306 121.865C509.306 119.365 511.286 117.645 514.026 117.645ZM514.026 119.025C512.226 119.025 510.926 120.185 510.926 121.865C510.926 123.545 512.226 124.685 514.026 124.685C515.826 124.685 517.126 123.545 517.126 121.865C517.126 120.185 515.826 119.025 514.026 119.025ZM529.365 127.425H531.005V129.525H539.845V127.425H541.505V134.425H529.365V127.425ZM531.005 130.805V133.085H539.845V130.805H531.005ZM527.285 124.825H543.625V126.165H527.285V124.825ZM534.625 116.785H536.045V117.585C536.045 120.725 532.545 122.985 528.825 123.545L528.225 122.245C531.485 121.805 534.625 119.865 534.625 117.585V116.785ZM534.885 116.785H536.305V117.585C536.305 119.825 539.485 121.805 542.705 122.245L542.085 123.545C538.405 122.985 534.885 120.685 534.885 117.585V116.785ZM38.14 140.585H39.8V158.665H38.14V140.585ZM26.14 142.345H27.78V153.545H26.14V142.345ZM26.14 152.565H27.62C30.36 152.565 33.22 152.365 36.28 151.725L36.48 153.145C33.34 153.785 30.48 154.005 27.62 154.005H26.14V152.565ZM55.6184 140.565H57.2984V158.685H55.6184V140.565ZM56.8984 147.705H60.2584V149.105H56.8984V147.705ZM44.1584 152.785H45.5784C48.9184 152.785 51.2584 152.665 53.9584 152.165L54.1384 153.565C51.3584 154.085 48.9784 154.185 45.5784 154.185H44.1584V152.785ZM44.1584 142.325H52.5584V143.685H45.7984V153.405H44.1584V142.325ZM63.6236 157.24C63.2353 157.24 62.9015 157.103 62.6222 156.828C62.3428 156.549 62.2031 156.213 62.2031 155.82C62.2031 155.432 62.3428 155.1 62.6222 154.826C62.9015 154.546 63.2353 154.407 63.6236 154.407C64.0118 154.407 64.3456 154.546 64.625 154.826C64.9044 155.1 65.044 155.432 65.044 155.82C65.044 156.08 64.9777 156.319 64.8452 156.537C64.7173 156.75 64.5469 156.921 64.3338 157.049C64.1207 157.176 63.884 157.24 63.6236 157.24ZM91.5525 140.585H93.1525V158.665H91.5525V140.585ZM88.4925 147.825H91.9725V149.205H88.4925V147.825ZM87.4525 140.985H89.0125V157.745H87.4525V140.985ZM78.4525 152.825H79.6325C82.2725 152.825 84.0725 152.725 86.1725 152.285L86.3325 153.665C84.1725 154.125 82.3525 154.205 79.6325 154.205H78.4525V152.825ZM78.4525 142.785H85.1725V144.145H80.0925V153.445H78.4525V142.785ZM109.371 140.585H111.031V158.665H109.371V140.585ZM104.071 142.525H105.711C105.711 147.765 103.351 152.345 97.3109 155.305L96.4309 153.965C101.651 151.445 104.071 147.605 104.071 142.805V142.525ZM97.2509 142.525H104.791V143.885H97.2509V142.525ZM124.342 142.525H125.702V143.985C125.702 147.305 123.702 150.085 120.662 151.185L119.822 149.865C122.542 148.905 124.342 146.565 124.342 143.985V142.525ZM124.642 142.525H126.002V143.965C126.002 146.325 127.722 148.445 130.382 149.325L129.582 150.625C126.562 149.625 124.642 147.045 124.642 143.965V142.525ZM120.322 141.925H129.982V143.285H120.322V141.925ZM132.262 140.585H133.922V151.485H132.262V140.585ZM133.462 145.165H136.602V146.565H133.462V145.165ZM128.162 151.965C131.842 151.965 134.102 153.185 134.102 155.285C134.102 157.405 131.842 158.625 128.162 158.625C124.482 158.625 122.222 157.405 122.222 155.285C122.222 153.185 124.482 151.965 128.162 151.965ZM128.162 153.305C125.482 153.305 123.842 154.025 123.842 155.285C123.842 156.565 125.482 157.325 128.162 157.325C130.842 157.325 132.482 156.565 132.482 155.285C132.482 154.025 130.842 153.305 128.162 153.305ZM138.301 154.945H154.681V156.325H138.301V154.945ZM145.581 150.565H147.221V155.405H145.581V150.565ZM145.541 141.785H146.981V143.185C146.981 147.045 143.281 150.025 139.641 150.785L138.941 149.405C142.121 148.825 145.541 146.165 145.541 143.185V141.785ZM145.841 141.785H147.281V143.185C147.281 146.185 150.721 148.825 153.901 149.405L153.181 150.785C149.541 150.025 145.841 147.045 145.841 143.185V141.785ZM168.919 140.565H170.599V158.665H168.919V140.565ZM170.139 147.905H173.479V149.285H170.139V147.905ZM164.299 142.525H165.919C165.919 147.665 163.559 152.305 157.719 155.245L156.799 153.965C161.799 151.425 164.299 147.565 164.299 142.785V142.525ZM157.639 142.525H165.159V143.885H157.639V142.525ZM185.171 143.165H186.511V146.105C186.511 149.925 184.211 153.765 181.331 155.185L180.371 153.865C182.991 152.625 185.171 149.225 185.171 146.105V143.165ZM185.491 143.165H186.831V146.105C186.831 149.165 189.011 152.285 191.671 153.425L190.731 154.745C187.811 153.385 185.491 149.865 185.491 146.105V143.165ZM180.971 142.425H191.071V143.825H180.971V142.425ZM193.511 140.585H195.171V158.665H193.511V140.585ZM207.449 143.765H212.509V145.125H207.449V143.765ZM207.449 147.625H212.549V149.005H207.449V147.625ZM199.609 142.145H207.869V150.625H199.609V142.145ZM206.229 143.485H201.229V149.285H206.229V143.485ZM211.989 140.605H213.649V153.805H211.989V140.605ZM202.029 156.905H214.089V158.265H202.029V156.905ZM202.029 152.605H203.689V157.525H202.029V152.605ZM217.988 142.565H226.168V143.905H217.988V142.565ZM220.808 147.725H222.448V153.845H220.808V147.725ZM225.488 142.565H227.108V143.525C227.108 145.005 227.108 147.365 226.588 150.725L224.948 150.565C225.488 147.305 225.488 144.985 225.488 143.525V142.565ZM229.388 140.585H231.028V158.665H229.388V140.585ZM230.588 148.145H233.928V149.545H230.588V148.145ZM217.188 154.725L216.988 153.325C220.268 153.325 224.628 153.265 228.288 152.805L228.368 154.025C224.628 154.625 220.388 154.705 217.188 154.725ZM253.239 140.585H254.899V150.245H253.239V140.585ZM254.439 144.765H257.579V146.145H254.439V144.765ZM248.239 141.845H250.079C250.079 146.405 246.899 149.365 241.599 150.585L240.939 149.245C245.699 148.185 248.239 145.765 248.239 142.745V141.845ZM241.679 141.845H249.199V143.205H241.679V141.845ZM243.519 151.065H254.999V152.325H245.159V157.805H243.519V151.065ZM243.519 157.165H255.399V158.425H243.519V157.165ZM244.599 154.085H254.779V155.305H244.599V154.085ZM259.257 150.085H275.597V151.445H259.257V150.085ZM261.377 156.905H273.797V158.265H261.377V156.905ZM261.377 153.025H263.037V157.325H261.377V153.025ZM267.437 141.185C271.297 141.185 273.797 142.545 273.797 144.805C273.797 147.045 271.297 148.405 267.437 148.405C263.557 148.405 261.077 147.045 261.077 144.805C261.077 142.545 263.557 141.185 267.437 141.185ZM267.437 142.545C264.597 142.545 262.777 143.385 262.777 144.805C262.777 146.225 264.597 147.065 267.437 147.065C270.277 147.065 272.097 146.225 272.097 144.805C272.097 143.385 270.277 142.545 267.437 142.545ZM285.189 145.205H297.469V146.545H285.189V145.205ZM285.189 140.985H286.829V146.065H285.189V140.985ZM282.969 148.825H299.309V150.145H282.969V148.825ZM290.309 146.085H291.949V149.725H290.309V146.085ZM284.789 151.945H297.509V153.285H284.789V151.945ZM284.609 157.085H297.669V158.425H284.609V157.085ZM287.529 152.345H289.169V157.705H287.529V152.345ZM293.109 152.345H294.749V157.705H293.109V152.345ZM314.487 140.565H316.147V158.685H314.487V140.565ZM306.607 141.965C309.287 141.965 311.207 144.425 311.207 148.265C311.207 152.125 309.287 154.585 306.607 154.585C303.947 154.585 302.027 152.125 302.027 148.265C302.027 144.425 303.947 141.965 306.607 141.965ZM306.607 143.465C304.847 143.465 303.607 145.345 303.607 148.265C303.607 151.205 304.847 153.125 306.607 153.125C308.387 153.125 309.607 151.205 309.607 148.265C309.607 145.345 308.387 143.465 306.607 143.465ZM327.086 147.605H330.506V148.985H327.086V147.605ZM333.526 140.585H335.126V158.665H333.526V140.585ZM329.946 140.965H331.526V157.765H329.946V140.965ZM323.826 142.085C326.166 142.085 327.686 144.505 327.686 148.385C327.686 152.265 326.166 154.685 323.826 154.685C321.486 154.685 319.986 152.265 319.986 148.385C319.986 144.505 321.486 142.085 323.826 142.085ZM323.826 143.625C322.406 143.625 321.506 145.465 321.506 148.385C321.506 151.305 322.406 153.145 323.826 153.145C325.266 153.145 326.166 151.305 326.166 148.385C326.166 145.465 325.266 143.625 323.826 143.625ZM347.957 151.705H349.237V152.685C349.237 155.045 347.757 157.425 345.157 158.425L344.317 157.185C346.597 156.365 347.957 154.425 347.957 152.685V151.705ZM348.317 151.705H349.557V152.685C349.557 154.505 350.637 156.445 352.797 157.325L352.097 158.585C349.497 157.565 348.317 155.085 348.317 152.685V151.705ZM354.637 151.705H355.877V152.685C355.877 154.805 354.677 157.485 352.097 158.585L351.397 157.325C353.537 156.345 354.637 154.245 354.637 152.685V151.705ZM354.977 151.705H356.257V152.685C356.257 154.545 357.597 156.405 359.897 157.185L359.057 158.425C356.417 157.465 354.977 155.185 354.977 152.685V151.705ZM356.597 140.605H358.277V150.925H356.597V140.605ZM348.577 141.645C351.317 141.645 353.277 143.365 353.277 145.865C353.277 148.365 351.317 150.065 348.577 150.065C345.837 150.065 343.857 148.365 343.857 145.865C343.857 143.365 345.837 141.645 348.577 141.645ZM348.577 143.025C346.777 143.025 345.477 144.185 345.477 145.865C345.477 147.545 346.777 148.685 348.577 148.685C350.377 148.685 351.677 147.545 351.677 145.865C351.677 144.185 350.377 143.025 348.577 143.025ZM370.015 140.885C373.995 140.885 376.375 142.005 376.375 144.025C376.375 146.045 373.995 147.165 370.015 147.165C366.015 147.165 363.655 146.045 363.655 144.025C363.655 142.005 366.015 140.885 370.015 140.885ZM370.015 142.145C367.055 142.145 365.355 142.825 365.355 144.025C365.355 145.225 367.055 145.905 370.015 145.905C372.955 145.905 374.655 145.225 374.655 144.025C374.655 142.825 372.955 142.145 370.015 142.145ZM361.835 148.365H378.175V149.705H361.835V148.365ZM363.815 151.245H376.095V155.325H365.495V157.525H363.855V154.125H374.455V152.525H363.815V151.245ZM363.855 157.165H376.635V158.465H363.855V157.165ZM395.887 140.965H397.427V157.765H395.887V140.965ZM396.787 147.945H400.127V149.305H396.787V147.945ZM386.067 152.585H386.787C387.487 152.585 388.667 152.565 390.067 152.225L390.207 153.605C388.707 153.965 387.547 153.965 386.787 153.965H386.067V152.585ZM386.067 142.845H389.927V144.205H387.607V153.365H386.067V142.845ZM390.707 152.585H391.467C392.427 152.585 393.687 152.545 395.067 152.165L395.227 153.545C393.747 153.945 392.507 153.965 391.467 153.965H390.707V152.585ZM390.707 142.845H394.687V144.205H392.227V153.305H390.707V142.845ZM399.547 140.585H401.127V158.665H399.547V140.585ZM406.145 146.005H418.425V147.365H406.145V146.005ZM403.925 149.785H420.325V151.145H403.925V149.785ZM406.145 141.245H407.785V146.685H406.145V141.245ZM406.025 156.865H418.525V158.225H406.025V156.865ZM406.025 152.945H407.665V157.225H406.025V152.945ZM428.537 152.825H429.917C433.277 152.825 435.437 152.745 437.957 152.265L438.137 153.625C435.537 154.105 433.357 154.225 429.917 154.225H428.537V152.825ZM428.537 142.305H436.757V143.665H430.177V153.345H428.537V142.305ZM440.877 140.585H442.537V158.705H440.877V140.585ZM435.697 147.125H441.557V148.505H435.697V147.125ZM447.795 142.505H459.435V143.845H447.795V142.505ZM446.035 154.645H462.375V156.025H446.035V154.645ZM458.555 142.505H460.175V144.305C460.175 146.625 460.175 149.205 459.495 153.105L457.835 152.945C458.555 149.245 458.555 146.545 458.555 144.305V142.505ZM469.234 141.965C471.894 141.965 473.774 144.425 473.774 148.265C473.774 152.125 471.894 154.585 469.234 154.585C466.574 154.585 464.694 152.125 464.694 148.265C464.694 144.425 466.574 141.965 469.234 141.965ZM469.234 143.465C467.474 143.465 466.274 145.345 466.274 148.265C466.274 151.205 467.474 153.125 469.234 153.125C470.974 153.125 472.194 151.205 472.194 148.265C472.194 145.345 470.974 143.465 469.234 143.465ZM476.654 140.585H478.334V158.665H476.654V140.585ZM477.934 147.805H481.294V149.205H477.934V147.805ZM482.812 148.845H499.212V150.205H482.812V148.845ZM490.152 149.425H491.772V152.185H490.152V149.425ZM490.112 153.025H491.532V153.585C491.532 156.345 488.332 158.165 484.552 158.605L484.012 157.325C487.272 156.985 490.112 155.505 490.112 153.585V153.025ZM490.392 153.025H491.812V153.585C491.812 155.565 494.632 157.005 497.912 157.325L497.372 158.605C493.612 158.165 490.392 156.405 490.392 153.585V153.025ZM490.992 140.845C494.912 140.845 497.352 142.065 497.352 144.165C497.352 146.265 494.912 147.485 490.992 147.485C487.052 147.485 484.632 146.265 484.632 144.165C484.632 142.065 487.052 140.845 490.992 140.845ZM490.992 142.125C488.092 142.125 486.332 142.865 486.332 144.165C486.332 145.445 488.092 146.205 490.992 146.205C493.872 146.205 495.652 145.445 495.652 144.165C495.652 142.865 493.872 142.125 490.992 142.125ZM520.263 140.585H521.863V158.665H520.263V140.585ZM517.203 147.825H520.683V149.205H517.203V147.825ZM516.163 140.985H517.723V157.745H516.163V140.985ZM507.163 152.825H508.343C510.983 152.825 512.783 152.725 514.883 152.285L515.043 153.665C512.883 154.125 511.063 154.205 508.343 154.205H507.163V152.825ZM507.163 142.785H513.883V144.145H508.803V153.445H507.163V142.785ZM538.062 140.605H539.742V153.845H538.062V140.605ZM528.122 156.905H540.282V158.265H528.122V156.905ZM528.122 152.625H529.762V157.545H528.122V152.625ZM529.622 141.585H531.002V143.425C531.002 146.945 529.002 150.025 525.962 151.265L525.102 149.925C527.822 148.865 529.622 146.225 529.622 143.425V141.585ZM529.922 141.585H531.282V143.425C531.282 146.145 533.102 148.605 535.802 149.585L534.922 150.925C531.922 149.765 529.922 146.865 529.922 143.425V141.585ZM38.06 164.365H40.58V178.345H38.06V164.365ZM32.08 169.485H35.02V171.605H32.08V169.485ZM34.34 164.665H36.84V177.785H34.34V164.665ZM25.44 165.785H27.94V168.585H30.3V165.785H32.78V175.145H25.44V165.785ZM27.94 170.625V173.045H30.3V170.625H27.94ZM28.12 180.445H41.06V182.565H28.12V180.445ZM28.12 176.525H30.78V181.705H28.12V176.525ZM55.9184 164.365H58.5984V182.885H55.9184V164.365ZM47.7584 169.165H49.8584V170.125C49.8584 174.045 48.1184 177.985 44.6984 179.465L43.2784 177.425C46.3184 176.065 47.7584 172.925 47.7584 170.125V169.165ZM48.3384 169.165H50.4184V170.125C50.4184 172.785 51.8784 175.825 54.9384 177.125L53.5184 179.165C50.0984 177.745 48.3384 173.925 48.3384 170.125V169.165ZM43.8984 167.385H54.1984V169.485H43.8984V167.385ZM47.7584 164.785H50.4184V168.465H47.7584V164.785ZM74.0369 164.565H75.6969V182.685H74.0369V164.565ZM75.2969 171.765H78.6569V173.165H75.2969V171.765ZM62.5169 176.945H63.9569C67.3569 176.945 69.7169 176.825 72.4569 176.305L72.6369 177.685C69.8169 178.185 67.4169 178.325 63.9569 178.325H62.5169V176.945ZM62.4769 166.265H70.6569V172.745H64.1569V177.505H62.5169V171.385H69.0169V167.625H62.4769V166.265ZM81.9153 166.385H93.5553V167.765H81.9153V166.385ZM80.1953 178.765H96.5353V180.145H80.1953V178.765ZM86.5353 172.305H88.1953V179.445H86.5353V172.305ZM92.9353 166.385H94.5753V168.185C94.5753 170.425 94.5753 172.905 93.9153 176.565L92.2553 176.345C92.9353 172.885 92.9353 170.345 92.9353 168.185V166.385ZM116.247 164.585H117.907V175.085H116.247V164.585ZM117.187 169.185H120.587V170.585H117.187V169.185ZM106.547 175.885H108.167V177.805H116.267V175.885H117.907V182.425H106.547V175.885ZM108.167 179.085V181.085H116.267V179.085H108.167ZM103.927 166.425H114.607V167.785H103.927V166.425ZM109.267 168.605C111.847 168.605 113.587 169.865 113.587 171.785C113.587 173.705 111.847 174.965 109.267 174.965C106.667 174.965 104.927 173.705 104.927 171.785C104.927 169.865 106.667 168.605 109.267 168.605ZM109.267 169.865C107.607 169.865 106.507 170.625 106.507 171.785C106.507 172.945 107.607 173.705 109.267 173.705C110.887 173.705 112.007 172.945 112.007 171.785C112.007 170.625 110.887 169.865 109.267 169.865ZM108.427 164.405H110.087V167.165H108.427V164.405ZM135.425 164.585H137.085V182.665H135.425V164.585ZM123.425 166.345H125.065V177.545H123.425V166.345ZM123.425 176.565H124.905C127.645 176.565 130.505 176.365 133.565 175.725L133.765 177.145C130.625 177.785 127.765 178.005 124.905 178.005H123.425V176.565ZM152.904 164.565H154.584V182.685H152.904V164.565ZM154.184 171.705H157.544V173.105H154.184V171.705ZM141.444 176.785H142.864C146.204 176.785 148.544 176.665 151.244 176.165L151.424 177.565C148.644 178.085 146.264 178.185 142.864 178.185H141.444V176.785ZM141.444 166.325H149.844V167.685H143.084V177.405H141.444V166.325ZM160.909 181.24C160.52 181.24 160.187 181.103 159.907 180.828C159.628 180.549 159.488 180.213 159.488 179.82C159.488 179.432 159.628 179.1 159.907 178.826C160.187 178.546 160.52 178.407 160.909 178.407C161.297 178.407 161.631 178.546 161.91 178.826C162.19 179.1 162.329 179.432 162.329 179.82C162.329 180.08 162.263 180.319 162.13 180.537C162.002 180.75 161.832 180.921 161.619 181.049C161.406 181.176 161.169 181.24 160.909 181.24Z" fill="black"/>
<g clip-path="url(#clip0_1377_180)">
<path d="M213 64.5355C222.941 64.5355 231 54.7226 231 42.6178C231 30.5131 222.941 20.7002 213 20.7002C203.059 20.7002 195 30.5131 195 42.6178C195 54.7226 203.059 64.5355 213 64.5355Z" fill="#E1E8ED"/>
<path d="M226.802 56.6768C223.792 55.0634 222 49.9822 222 42.6178C222 35.2535 223.792 30.1723 226.802 28.5589C226.356 27.9155 225.879 27.3041 225.374 26.7275C222.406 28.7427 220 33.5805 220 42.6178C220 51.654 222.406 56.4929 225.374 58.5081C225.876 57.9273 226.358 57.3234 226.802 56.6768ZM206 42.6178C206 33.5817 203.594 28.7427 200.626 26.7288C200.122 27.3049 199.645 27.9159 199.198 28.5589C202.208 30.1735 204 35.2535 204 42.6178C204 49.9822 202.208 55.0622 199.198 56.6768C199.643 57.3234 200.124 57.9273 200.626 58.5081C203.593 56.4929 206 51.654 206 42.6178Z" fill="#B3BEC4"/>
<path d="M200.092 33.076C199.855 33.076 199.635 33.0517 199.441 33.0078C199.18 32.9484 198.95 32.7653 198.8 32.4988C198.726 32.3669 198.674 32.2184 198.646 32.0619C198.619 31.9055 198.618 31.744 198.642 31.5868C198.666 31.4296 198.716 31.2798 198.787 31.1458C198.859 31.0119 198.952 30.8964 199.06 30.8061C199.279 30.6236 199.548 30.5545 199.809 30.6139C200.239 30.7077 202.5 30.6212 202.957 27.8426C203.009 27.5259 203.162 27.2475 203.383 27.0684C203.492 26.9798 203.615 26.9182 203.744 26.8872C203.873 26.8563 204.005 26.8565 204.134 26.8879C204.263 26.9194 204.385 26.9813 204.494 27.0704C204.603 27.1594 204.697 27.2737 204.77 27.4068C204.843 27.5399 204.893 27.6891 204.919 27.846C204.944 28.0029 204.944 28.1643 204.918 28.3211C204.335 31.8669 201.779 33.076 200.092 33.076ZM201.792 37.8991C201.262 37.8991 200.84 37.5058 200.814 36.8532C200.788 36.1822 201.214 35.7439 201.766 35.7122C201.766 35.7122 204.33 35.6696 205.635 32.9189C205.701 32.7812 205.789 32.6608 205.894 32.5646C205.998 32.4684 206.117 32.3984 206.244 32.3585C206.371 32.3187 206.503 32.3098 206.633 32.3325C206.763 32.3551 206.887 32.4087 207 32.4903C207.478 32.8264 207.642 33.5789 207.365 34.1622C205.514 38.0659 201.808 37.8991 201.792 37.8991ZM204 44.1785C203.266 44.1785 202.586 44.0141 202.072 43.7183C201.832 43.58 201.647 43.3315 201.558 43.0273C201.469 42.7232 201.483 42.3883 201.596 42.0963C201.71 41.8044 201.914 41.5793 202.163 41.4706C202.413 41.3619 202.688 41.3785 202.928 41.5167C203.758 41.9953 205.854 41.8078 206.658 40.2845C206.729 40.1499 206.821 40.0337 206.929 39.9425C207.037 39.8512 207.158 39.7867 207.287 39.7527C207.415 39.7187 207.548 39.7158 207.677 39.7441C207.806 39.7725 207.93 39.8315 208.04 39.918C208.151 40.0044 208.246 40.1165 208.321 40.2478C208.396 40.3792 208.449 40.5272 208.477 40.6835C208.505 40.8397 208.507 41.0012 208.484 41.1585C208.461 41.3159 208.412 41.4662 208.341 41.6008C207.377 43.4285 205.565 44.1785 204 44.1785ZM205.161 50.906C203.607 50.906 202.166 50.0549 201.235 49.1088C201.134 49.0064 201.051 48.8809 200.99 48.7393C200.929 48.5977 200.891 48.4429 200.879 48.2837C200.867 48.1244 200.881 47.9638 200.92 47.8111C200.959 47.6584 201.023 47.5166 201.107 47.3937C201.191 47.2708 201.294 47.1693 201.41 47.0949C201.526 47.0206 201.653 46.9748 201.784 46.9603C201.915 46.9458 202.047 46.9627 202.172 47.0103C202.298 47.0578 202.414 47.1349 202.515 47.2373C202.709 47.4357 204.467 49.1441 206.297 48.1931C206.418 48.1307 206.548 48.0978 206.679 48.0965C206.811 48.0952 206.941 48.1254 207.063 48.1853C207.184 48.2453 207.295 48.3339 207.389 48.4461C207.483 48.5583 207.557 48.6918 207.609 48.8391C207.66 48.9863 207.687 49.1445 207.688 49.3044C207.689 49.4644 207.664 49.623 207.615 49.7713C207.566 49.9196 207.493 50.0546 207.401 50.1687C207.309 50.2827 207.199 50.3736 207.078 50.436C206.471 50.7479 205.82 50.9078 205.161 50.906ZM204.75 57.2293H204.722C202.218 57.2293 200.043 55.3176 199.188 53.4448C198.919 52.8579 199.094 52.1736 199.576 51.8473C200.059 51.5197 200.668 51.762 200.936 52.3489C201.42 53.4095 202.932 54.9474 204.777 55.0095C205.329 55.029 205.764 55.4819 205.749 56.1529C205.734 56.8128 205.29 57.2293 204.75 57.2293ZM222.188 57.4582C222.04 57.4583 221.894 57.4184 221.76 57.3413C221.626 57.2642 221.508 57.1518 221.414 57.0124C221.32 56.8729 221.253 56.7098 221.217 56.5348C221.181 56.3599 221.178 56.1774 221.207 56.0007C221.871 51.9556 225.101 50.9474 226.685 51.3139C226.946 51.3736 227.176 51.5568 227.326 51.8233C227.475 52.0897 227.532 52.4177 227.483 52.7349C227.46 52.8925 227.411 53.0427 227.339 53.1771C227.267 53.3114 227.175 53.4271 227.066 53.5175C226.958 53.6078 226.835 53.6711 226.707 53.7036C226.578 53.736 226.445 53.7371 226.316 53.7066C225.891 53.6092 223.626 53.6981 223.169 56.478C223.124 56.7543 223.002 57.0031 222.823 57.1818C222.644 57.3606 222.419 57.4582 222.188 57.4582ZM219.624 51.9788C219.449 51.9789 219.276 51.9227 219.124 51.8159C218.972 51.709 218.846 51.5552 218.758 51.37C218.67 51.1848 218.624 50.9748 218.624 50.761C218.625 50.5472 218.671 50.3373 218.759 50.1523C220.611 46.2485 222.743 46.1292 224.153 46.05L224.264 46.044C224.529 46.0285 224.788 46.1417 224.985 46.3589C225.181 46.5761 225.298 46.8793 225.311 47.2019C225.324 47.5246 225.231 47.8401 225.052 48.0792C224.874 48.3183 224.625 48.4613 224.36 48.4768L224.245 48.4829C223.041 48.5511 221.796 48.6193 220.491 51.3699C220.403 51.5552 220.277 51.7091 220.125 51.8159C219.972 51.9228 219.8 51.979 219.624 51.9788ZM218.624 44.5962C218.445 44.5962 218.268 44.5374 218.114 44.4258C217.96 44.3142 217.833 44.1541 217.747 43.9622C217.661 43.7704 217.619 43.5538 217.626 43.3354C217.632 43.117 217.687 42.9047 217.784 42.721C219.199 40.0385 222.44 39.6757 224.052 40.6047C224.29 40.7438 224.474 40.9922 224.562 41.2955C224.651 41.5988 224.637 41.9324 224.524 42.2233C224.411 42.5142 224.208 42.7389 223.959 42.8481C223.711 42.9573 223.437 42.9423 223.197 42.8062C222.368 42.3277 220.271 42.5152 219.465 44.0385C219.374 44.2097 219.25 44.3505 219.103 44.4479C218.956 44.5453 218.791 44.5963 218.624 44.5962ZM224.249 37.367C224.015 37.3669 223.789 37.2669 223.609 37.0845C223.415 36.8873 221.657 35.1862 219.828 36.1287C219.586 36.2392 219.319 36.2317 219.082 36.1079C218.845 35.9841 218.656 35.7534 218.555 35.4641C218.454 35.1748 218.449 34.8493 218.54 34.5554C218.632 34.2615 218.813 34.022 219.046 33.887C221.265 32.7399 223.581 33.8858 224.89 35.2142C225.048 35.3745 225.161 35.5901 225.215 35.8317C225.269 36.0733 225.26 36.3291 225.19 36.5644C225.12 36.7997 224.992 37.0029 224.823 37.1466C224.655 37.2902 224.455 37.3671 224.249 37.367ZM226.063 32.5719C225.885 32.5721 225.709 32.5142 225.556 32.4042C225.402 32.2941 225.275 32.1359 225.188 31.946C224.704 30.8843 223.192 29.361 221.347 29.2989C220.794 29.2806 220.36 28.6827 220.374 28.0094C220.391 27.3494 220.835 26.7881 221.374 26.7881H221.402C223.907 26.7881 226.082 28.8508 226.936 30.7235C227.065 31.0089 227.097 31.3449 227.024 31.6586C226.951 31.9722 226.78 32.2383 226.547 32.399C226.401 32.506 226.234 32.5656 226.063 32.5719Z" fill="#DD2E44"/>
</g>
<defs>
<clipPath id="clip0_1377_180">
<rect width="36" height="43.8353" fill="white" transform="translate(195 20.7002)"/>
</clipPath>
</defs>
</svg>
