<svg width="570" height="170" viewBox="0 0 570 170" fill="none" xmlns="http://www.w3.org/2000/svg">
<rect x="0.5" y="0.5" width="569" height="169" rx="17.5" fill="white" stroke="#8A9A6B"/>
<path d="M40.7406 22.995H44.2414V41.2097H40.7406V22.995ZM43.2412 30.4177H47.479V33.2868H43.2412V30.4177ZM25.0529 25.5219H39.3982V28.2594H25.0529V25.5219ZM32.2387 29.128C35.7395 29.128 38.2138 31.0495 38.2138 33.8396C38.2138 36.6297 35.7395 38.5248 32.2387 38.5248C28.7116 38.5248 26.2373 36.6297 26.2373 33.8396C26.2373 31.0495 28.7116 29.128 32.2387 29.128ZM32.2387 31.7865C30.6857 31.7865 29.6065 32.5235 29.6065 33.8396C29.6065 35.1557 30.6857 35.8663 32.2387 35.8663C33.7917 35.8663 34.8709 35.1557 34.8709 33.8396C34.8709 32.5235 33.7917 31.7865 32.2387 31.7865ZM30.4752 22.9424H33.9759V26.8643H30.4752V22.9424ZM28.5273 44.1314H45.1101V46.9215H28.5273V44.1314ZM28.5273 39.8409H32.0281V45.3422H28.5273V39.8409ZM72.5365 22.9687H76.0636V36.0769H72.5365V22.9687ZM59.8494 37.1298H63.2976V39.3935H72.5892V37.1298H76.0636V47.0794H59.8494V37.1298ZM63.2976 42.0783V44.2893H72.5892V42.0783H63.2976ZM62.7975 23.9689C66.5878 23.9689 69.4042 26.3642 69.4042 29.7334C69.4042 33.1026 66.5878 35.4978 62.7975 35.4978C59.0071 35.4978 56.1644 33.1026 56.1644 29.7334C56.1644 26.3642 59.0071 23.9689 62.7975 23.9689ZM62.7975 26.8643C60.9286 26.8643 59.5862 27.9435 59.5862 29.7334C59.5862 31.5496 60.9286 32.6024 62.7975 32.6024C64.64 32.6024 65.9824 31.5496 65.9824 29.7334C65.9824 27.9435 64.64 26.8643 62.7975 26.8643ZM93.0667 24.6533C96.778 24.6533 99.4628 28.0225 99.4628 33.3395C99.4628 38.7091 96.778 42.0783 93.0667 42.0783C89.3553 42.0783 86.6705 38.7091 86.6705 33.3395C86.6705 28.0225 89.3553 24.6533 93.0667 24.6533ZM93.0667 27.8382C91.2505 27.8382 90.0397 29.7597 90.0397 33.3395C90.0397 36.9719 91.2505 38.9197 93.0667 38.9197C94.8829 38.9197 96.12 36.9719 96.12 33.3395C96.12 29.7597 94.8829 27.8382 93.0667 27.8382ZM104.701 28.6279H108.991V31.5233H104.701V28.6279ZM104.701 35.7874H108.991V38.6565H104.701V35.7874ZM102.121 22.9687H105.648V47.3426H102.121V22.9687ZM113.28 24.3901H128.573V27.1538H113.28V24.3901ZM110.779 34.7608H132.81V37.5773H110.779V34.7608ZM119.913 36.735H123.44V47.369H119.913V36.735ZM126.783 24.3901H130.231V26.5484C130.231 29.1806 130.231 32.1287 129.283 36.4454L125.835 36.0506C126.783 31.9707 126.783 29.0753 126.783 26.5484V24.3901ZM146.839 24.2848H149.708V26.4432C149.708 31.2864 147.602 35.5505 142.97 37.1561L141.101 34.3923C145.181 33.0236 146.839 29.7597 146.839 26.4432V24.2848ZM147.55 24.2848H150.393V26.7853C150.393 29.7071 152.025 32.5498 155.841 33.7343L154.025 36.4454C149.629 34.9714 147.55 31.1811 147.55 26.7853V24.2848ZM157.184 22.9687H160.684V37.3667H157.184V22.9687ZM159.71 28.6015H163.922V31.4969H159.71V28.6015ZM152.735 37.9194C157.789 37.9194 160.974 39.683 160.974 42.631C160.974 45.6054 157.789 47.3426 152.735 47.3426C147.655 47.3426 144.47 45.6054 144.47 42.631C144.47 39.683 147.655 37.9194 152.735 37.9194ZM152.735 40.6306C149.629 40.6306 147.945 41.2886 147.945 42.631C147.945 43.9998 149.629 44.6315 152.735 44.6315C155.841 44.6315 157.499 43.9998 157.499 42.631C157.499 41.2886 155.841 40.6306 152.735 40.6306ZM171.422 24.0742H174.317V26.4168C174.317 31.0231 172.08 35.2083 167.315 36.735L165.605 33.9712C169.711 32.6551 171.422 29.4965 171.422 26.4168V24.0742ZM172.132 24.0742H175.001V26.4168C175.001 29.4175 176.686 32.3656 180.661 33.5764L178.95 36.3138C174.291 34.8398 172.132 30.9442 172.132 26.4168V24.0742ZM169.342 38.5775H185.978V47.3426H182.45V41.3676H169.342V38.5775ZM182.45 22.9687H185.978V37.4983H182.45V22.9687Z" fill="black"/>
<path d="M28.96 77.68H31.12V80.38C31.12 84.96 29.52 89.26 26.02 90.98L24.42 88.84C27.54 87.38 28.96 83.82 28.96 80.38V77.68ZM29.5 77.68H31.62V80.38C31.62 83.7 32.94 87.08 35.9 88.52L34.3 90.64C30.96 88.94 29.5 84.82 29.5 80.38V77.68ZM36.64 76.26H39.32V94.78H36.64V76.26ZM38.72 83.38H42V85.6H38.72V83.38ZM43.1984 86.62H59.9784V88.76H43.1984V86.62ZM50.1984 88H52.8384V94.8H50.1984V88ZM51.5384 76.88C55.4984 76.88 58.2384 78.52 58.2384 81.06C58.2384 83.58 55.4984 85.2 51.5384 85.2C47.5984 85.2 44.8584 83.58 44.8584 81.06C44.8584 78.52 47.5984 76.88 51.5384 76.88ZM51.5384 79C49.1184 79 47.5784 79.72 47.5784 81.06C47.5784 82.38 49.1184 83.1 51.5384 83.1C53.9784 83.1 55.4984 82.38 55.4984 81.06C55.4984 79.72 53.9784 79 51.5384 79ZM68.4769 77.32H70.7969V78.66C70.7969 82.68 67.9369 86.24 63.1369 87.18L61.9969 84.98C66.1769 84.26 68.4769 81.32 68.4769 78.66V77.32ZM69.0169 77.32H71.3169V78.66C71.3169 81.38 73.5969 84.26 77.7969 84.98L76.6569 87.18C71.8569 86.24 69.0169 82.74 69.0169 78.66V77.32ZM61.6169 90.36H78.3769V92.52H61.6169V90.36ZM80.0153 90.54H96.7753V92.72H80.0153V90.54ZM87.0153 86.36H89.6753V91.52H87.0153V86.36ZM81.2953 77.78H95.3953V79.9H81.2953V77.78ZM81.3753 85.16H95.3353V87.24H81.3753V85.16ZM83.8153 79.54H86.4753V85.4H83.8153V79.54ZM90.2353 79.54H92.8753V85.4H90.2353V79.54ZM99.4688 85.7273C99.4688 83.9659 99.7031 82.3442 100.172 80.8622C100.645 79.3802 101.367 78.0071 102.338 76.7429H105.229C104.859 77.2116 104.516 77.7846 104.199 78.4616C103.882 79.134 103.605 79.8726 103.368 80.6776C103.131 81.4825 102.946 82.3158 102.814 83.1776C102.681 84.0346 102.615 84.8845 102.615 85.7273C102.615 86.8494 102.729 87.9834 102.956 89.1293C103.188 90.2704 103.5 91.331 103.893 92.3111C104.291 93.2912 104.736 94.0938 105.229 94.7188H102.338C101.367 93.4545 100.645 92.0814 100.172 90.5994C99.7031 89.1174 99.4688 87.4934 99.4688 85.7273ZM114.932 82.6378C114.875 82.0649 114.632 81.6198 114.201 81.3026C113.77 80.9853 113.185 80.8267 112.446 80.8267C111.944 80.8267 111.521 80.8977 111.175 81.0398C110.829 81.1771 110.564 81.3688 110.38 81.6151C110.2 81.8613 110.11 82.1406 110.11 82.4531C110.1 82.7135 110.155 82.9408 110.273 83.1349C110.396 83.3291 110.564 83.4972 110.777 83.6392C110.99 83.7765 111.237 83.8973 111.516 84.0014C111.795 84.1009 112.094 84.1861 112.411 84.2571L113.718 84.5696C114.352 84.7116 114.935 84.901 115.465 85.1378C115.995 85.3745 116.454 85.6657 116.843 86.0114C117.231 86.357 117.532 86.7642 117.745 87.233C117.962 87.7017 118.074 88.2391 118.078 88.8452C118.074 89.7353 117.846 90.5071 117.397 91.1605C116.952 91.8092 116.308 92.3134 115.465 92.6733C114.627 93.0284 113.616 93.206 112.432 93.206C111.258 93.206 110.235 93.026 109.364 92.6662C108.498 92.3063 107.82 91.7737 107.333 91.0682C106.85 90.358 106.596 89.4796 106.573 88.4332H109.549C109.582 88.9209 109.721 89.3281 109.968 89.6548C110.219 89.9768 110.552 90.2206 110.969 90.3864C111.391 90.5473 111.866 90.6278 112.397 90.6278C112.917 90.6278 113.37 90.5521 113.753 90.4006C114.141 90.2491 114.442 90.0384 114.655 89.7685C114.868 89.4986 114.975 89.1884 114.975 88.8381C114.975 88.5114 114.878 88.2367 114.684 88.0142C114.494 87.7917 114.215 87.6023 113.846 87.446C113.481 87.2898 113.033 87.1477 112.503 87.0199L110.919 86.6222C109.693 86.3239 108.725 85.8575 108.015 85.223C107.304 84.5885 106.952 83.7339 106.956 82.6591C106.952 81.7784 107.186 81.009 107.659 80.3509C108.138 79.6927 108.793 79.179 109.627 78.8097C110.46 78.4403 111.407 78.2557 112.468 78.2557C113.547 78.2557 114.489 78.4403 115.294 78.8097C116.104 79.179 116.734 79.6927 117.184 80.3509C117.633 81.009 117.865 81.7713 117.88 82.6378H114.932ZM125.019 93.2131C123.916 93.2131 122.962 92.9787 122.157 92.5099C121.357 92.0365 120.739 91.3783 120.303 90.5355C119.868 89.688 119.65 88.7055 119.65 87.5881C119.65 86.4612 119.868 85.4763 120.303 84.6335C120.739 83.786 121.357 83.1278 122.157 82.6591C122.962 82.1856 123.916 81.9489 125.019 81.9489C126.122 81.9489 127.074 82.1856 127.874 82.6591C128.679 83.1278 129.299 83.786 129.735 84.6335C130.171 85.4763 130.388 86.4612 130.388 87.5881C130.388 88.7055 130.171 89.688 129.735 90.5355C129.299 91.3783 128.679 92.0365 127.874 92.5099C127.074 92.9787 126.122 93.2131 125.019 93.2131ZM125.033 90.8693C125.535 90.8693 125.954 90.7273 126.29 90.4432C126.627 90.1544 126.88 89.7614 127.05 89.2642C127.226 88.767 127.313 88.2012 127.313 87.5668C127.313 86.9323 127.226 86.3665 127.05 85.8693C126.88 85.3722 126.627 84.9792 126.29 84.6903C125.954 84.4015 125.535 84.2571 125.033 84.2571C124.527 84.2571 124.101 84.4015 123.755 84.6903C123.414 84.9792 123.156 85.3722 122.981 85.8693C122.81 86.3665 122.725 86.9323 122.725 87.5668C122.725 88.2012 122.81 88.767 122.981 89.2642C123.156 89.7614 123.414 90.1544 123.755 90.4432C124.101 90.7273 124.527 90.8693 125.033 90.8693ZM139.352 88.3551V82.0909H142.377V93H139.472V91.0185H139.359C139.112 91.6577 138.703 92.1714 138.13 92.5597C137.562 92.9479 136.868 93.142 136.049 93.142C135.32 93.142 134.678 92.9763 134.124 92.6449C133.57 92.3134 133.137 91.8423 132.825 91.2315C132.517 90.6207 132.361 89.8892 132.356 89.0369V82.0909H135.381V88.4972C135.386 89.1411 135.559 89.6501 135.9 90.0241C136.241 90.3982 136.698 90.5852 137.271 90.5852C137.635 90.5852 137.976 90.5024 138.293 90.3366C138.611 90.1662 138.866 89.9152 139.06 89.5838C139.259 89.2524 139.356 88.8428 139.352 88.3551ZM150.6 82.0909V84.3636H144.03V82.0909H150.6ZM145.522 79.4773H148.547V89.6477C148.547 89.9271 148.59 90.1449 148.675 90.3011C148.76 90.4527 148.879 90.5592 149.03 90.6207C149.186 90.6823 149.366 90.7131 149.57 90.7131C149.712 90.7131 149.854 90.7012 149.996 90.6776C150.138 90.6491 150.247 90.6278 150.323 90.6136L150.799 92.8651C150.647 92.9124 150.434 92.9669 150.159 93.0284C149.885 93.0947 149.551 93.1349 149.158 93.1491C148.429 93.1776 147.79 93.0805 147.24 92.858C146.696 92.6354 146.272 92.2898 145.969 91.821C145.666 91.3523 145.517 90.7604 145.522 90.0455V79.4773ZM155.831 86.6932V93H152.805V78.4545H155.745V84.0156H155.873C156.119 83.3717 156.517 82.8674 157.066 82.5028C157.616 82.1335 158.305 81.9489 159.133 81.9489C159.891 81.9489 160.551 82.1146 161.115 82.446C161.683 82.7727 162.123 83.2438 162.436 83.8594C162.753 84.4702 162.909 85.2017 162.904 86.054V93H159.879V86.5938C159.884 85.9214 159.713 85.3982 159.368 85.0241C159.027 84.6501 158.548 84.4631 157.933 84.4631C157.521 84.4631 157.156 84.5507 156.839 84.7259C156.527 84.901 156.28 85.1567 156.1 85.4929C155.925 85.8243 155.835 86.2244 155.831 86.6932ZM165.286 97.0909V82.0909H168.268V83.9233H168.403C168.536 83.6297 168.728 83.3314 168.979 83.0284C169.234 82.7206 169.566 82.465 169.973 82.2614C170.385 82.053 170.896 81.9489 171.507 81.9489C172.303 81.9489 173.036 82.1572 173.709 82.5739C174.381 82.9858 174.919 83.6084 175.321 84.4418C175.723 85.2704 175.925 86.3097 175.925 87.5597C175.925 88.7765 175.728 89.804 175.335 90.642C174.947 91.4754 174.417 92.1075 173.744 92.5384C173.077 92.9645 172.329 93.1776 171.5 93.1776C170.913 93.1776 170.413 93.0805 170.001 92.8864C169.594 92.6922 169.26 92.4484 169 92.1548C168.74 91.8565 168.541 91.5559 168.403 91.2528H168.311V97.0909H165.286ZM168.247 87.5455C168.247 88.1941 168.337 88.7599 168.517 89.2429C168.697 89.7259 168.957 90.1023 169.298 90.3722C169.639 90.6373 170.054 90.7699 170.541 90.7699C171.034 90.7699 171.45 90.6349 171.791 90.3651C172.132 90.0904 172.39 89.7116 172.565 89.2287C172.745 88.741 172.835 88.1799 172.835 87.5455C172.835 86.9157 172.748 86.3617 172.572 85.8835C172.397 85.4053 172.139 85.0312 171.798 84.7614C171.457 84.4915 171.038 84.3565 170.541 84.3565C170.049 84.3565 169.632 84.4867 169.291 84.7472C168.955 85.0076 168.697 85.3769 168.517 85.8551C168.337 86.3333 168.247 86.8968 168.247 87.5455ZM181.053 93.206C180.357 93.206 179.736 93.0852 179.192 92.8438C178.647 92.5975 178.216 92.2353 177.899 91.7571C177.587 91.2741 177.43 90.6728 177.43 89.9531C177.43 89.3471 177.542 88.8381 177.764 88.4261C177.987 88.0142 178.29 87.6828 178.673 87.4318C179.057 87.1809 179.492 86.9915 179.98 86.8636C180.473 86.7358 180.989 86.6458 181.528 86.5938C182.163 86.5275 182.674 86.4659 183.062 86.4091C183.451 86.3475 183.732 86.2576 183.908 86.1392C184.083 86.0208 184.17 85.8456 184.17 85.6136V85.571C184.17 85.1212 184.028 84.7732 183.744 84.527C183.465 84.2808 183.067 84.1577 182.551 84.1577C182.007 84.1577 181.573 84.2784 181.251 84.5199C180.929 84.7566 180.716 85.0549 180.612 85.4148L177.814 85.1875C177.956 84.5246 178.235 83.9517 178.652 83.4688C179.069 82.9811 179.606 82.607 180.264 82.3466C180.927 82.0814 181.694 81.9489 182.565 81.9489C183.171 81.9489 183.751 82.0199 184.305 82.1619C184.864 82.304 185.359 82.5241 185.79 82.8224C186.225 83.1207 186.569 83.5043 186.82 83.973C187.071 84.437 187.196 84.9934 187.196 85.642V93H184.327V91.4872H184.241C184.066 91.8281 183.832 92.1288 183.538 92.3892C183.245 92.6449 182.892 92.8461 182.48 92.9929C182.068 93.1349 181.592 93.206 181.053 93.206ZM181.919 91.1179C182.364 91.1179 182.757 91.0303 183.098 90.8551C183.439 90.6752 183.706 90.4337 183.901 90.1307C184.095 89.8277 184.192 89.4844 184.192 89.1009V87.9432C184.097 88.0047 183.967 88.0616 183.801 88.1136C183.64 88.161 183.458 88.206 183.254 88.2486C183.051 88.2865 182.847 88.322 182.643 88.3551C182.44 88.3835 182.255 88.4096 182.089 88.4332C181.734 88.4853 181.424 88.5682 181.159 88.6818C180.894 88.7955 180.688 88.9493 180.541 89.1435C180.394 89.3329 180.321 89.5696 180.321 89.8537C180.321 90.2656 180.47 90.5805 180.768 90.7983C181.071 91.0114 181.455 91.1179 181.919 91.1179ZM191.695 93L188.727 82.0909H191.788L193.478 89.4205H193.577L195.339 82.0909H198.343L200.133 89.3778H200.225L201.887 82.0909H204.941L201.979 93H198.776L196.901 86.1392H196.766L194.891 93H191.695ZM211.654 87.169C211.654 88.9351 211.418 90.5592 210.944 92.0412C210.475 93.5232 209.756 94.8963 208.785 96.1605H205.895C206.264 95.6918 206.607 95.1188 206.924 94.4418C207.242 93.7647 207.519 93.026 207.755 92.2259C207.992 91.4209 208.177 90.5876 208.309 89.7259C208.442 88.8641 208.508 88.0118 208.508 87.169C208.508 86.0469 208.392 84.9152 208.16 83.7741C207.933 82.6283 207.62 81.5677 207.223 80.5923C206.83 79.6122 206.387 78.8097 205.895 78.1847H208.785C209.756 79.4489 210.475 80.822 210.944 82.304C211.418 83.786 211.654 85.4077 211.654 87.169ZM216.731 81.9H229.011V83.26H216.731V81.9ZM214.511 85.68H230.911V87.04H214.511V85.68ZM216.731 77.14H218.371V82.58H216.731V77.14ZM216.611 92.76H229.111V94.12H216.611V92.76ZM216.611 88.84H218.251V93.12H216.611V88.84ZM243.203 83.82H244.863V86.88H243.203V83.82ZM244.043 77.2C246.683 77.2 248.563 78.66 248.563 80.86C248.563 83.06 246.683 84.54 244.043 84.54C241.363 84.54 239.503 83.06 239.503 80.86C239.503 78.66 241.363 77.2 244.043 77.2ZM244.043 78.48C242.283 78.48 241.043 79.44 241.043 80.86C241.043 82.28 242.283 83.24 244.043 83.24C245.763 83.24 247.003 82.28 247.003 80.86C247.003 79.44 245.763 78.48 244.043 78.48ZM251.343 76.48H253.003V90H251.343V76.48ZM241.223 92.8H253.583V94.16H241.223V92.8ZM241.223 89.04H242.903V93.34H241.223V89.04ZM238.543 87.64L238.303 86.28C241.743 86.26 246.163 86.18 249.903 85.74L250.023 86.94C246.183 87.52 241.883 87.64 238.543 87.64ZM258.721 92.8H271.141V94.16H258.721V92.8ZM258.721 88.98H260.381V93.28H258.721V88.98ZM256.601 86.18H273.001V87.54H256.601V86.18ZM263.941 83.14H265.581V86.68H263.941V83.14ZM263.921 76.94H265.361V77.76C265.361 81.12 261.961 83.6 258.321 84.3L257.661 82.98C260.881 82.46 263.921 80.28 263.921 77.76V76.94ZM264.181 76.94H265.601V77.76C265.601 80.28 268.681 82.46 271.861 82.98L271.201 84.3C267.601 83.58 264.181 81.12 264.181 77.76V76.94ZM283.18 77.62C286.94 77.62 289.74 79.62 289.74 82.62C289.74 85.64 286.94 87.62 283.18 87.62C279.42 87.62 276.6 85.64 276.6 82.62C276.6 79.62 279.42 77.62 283.18 77.62ZM283.18 78.98C280.32 78.98 278.2 80.44 278.2 82.62C278.2 84.78 280.32 86.26 283.18 86.26C286.04 86.26 288.16 84.78 288.16 82.62C288.16 80.44 286.04 78.98 283.18 78.98ZM275.02 90.78H291.4V92.18H275.02V90.78ZM293.418 90.96H309.798V92.34H293.418V90.96ZM300.738 87.08H302.398V91.54H300.738V87.08ZM295.398 77.82H307.778V83.3H297.098V86.92H295.458V81.96H306.138V79.16H295.398V77.82ZM295.458 86.22H308.198V87.58H295.458V86.22ZM325.209 87.88C329.049 87.88 331.509 89.14 331.509 91.22C331.509 93.28 329.049 94.52 325.209 94.52C321.349 94.52 318.909 93.28 318.909 91.22C318.909 89.14 321.349 87.88 325.209 87.88ZM325.209 89.18C322.369 89.18 320.549 89.96 320.549 91.22C320.549 92.46 322.369 93.24 325.209 93.24C328.049 93.24 329.849 92.46 329.849 91.22C329.849 89.96 328.049 89.18 325.209 89.18ZM319.049 77.38H330.689V78.74H319.049V77.38ZM317.109 84.9H333.429V86.24H317.109V84.9ZM323.809 81.42H325.449V85.28H323.809V81.42ZM329.729 77.38H331.349V78.92C331.349 80.38 331.349 81.84 330.869 83.72L329.229 83.52C329.729 81.66 329.729 80.34 329.729 78.92V77.38ZM343.668 76.78C347.648 76.78 350.028 77.9 350.028 79.92C350.028 81.94 347.648 83.06 343.668 83.06C339.668 83.06 337.308 81.94 337.308 79.92C337.308 77.9 339.668 76.78 343.668 76.78ZM343.668 78.04C340.708 78.04 339.008 78.72 339.008 79.92C339.008 81.12 340.708 81.8 343.668 81.8C346.608 81.8 348.308 81.12 348.308 79.92C348.308 78.72 346.608 78.04 343.668 78.04ZM335.488 84.26H351.828V85.6H335.488V84.26ZM337.468 87.14H349.748V91.22H339.148V93.42H337.508V90.02H348.108V88.42H337.468V87.14ZM337.508 93.06H350.288V94.36H337.508V93.06ZM360.219 85.68H361.579C364.919 85.68 367.039 85.56 369.499 85.08L369.659 86.44C367.139 86.92 364.979 87.04 361.579 87.04H360.219V85.68ZM360.219 77.96H368.499V79.32H361.859V86.1H360.219V77.96ZM372.399 76.48H374.059V89.68H372.399V76.48ZM367.339 81.48H372.779V82.82H367.339V81.48ZM362.499 92.92H374.539V94.28H362.499V92.92ZM362.499 88.7H364.159V93.7H362.499V88.7ZM382.378 79.06H383.718V82C383.718 85.82 381.418 89.66 378.538 91.08L377.578 89.76C380.198 88.52 382.378 85.12 382.378 82V79.06ZM382.698 79.06H384.038V82C384.038 85.06 386.218 88.18 388.878 89.32L387.938 90.64C385.018 89.28 382.698 85.76 382.698 82V79.06ZM378.178 78.32H388.278V79.72H378.178V78.32ZM390.718 76.48H392.378V94.56H390.718V76.48ZM398.196 81.9H410.476V83.26H398.196V81.9ZM395.976 85.68H412.376V87.04H395.976V85.68ZM398.196 77.14H399.836V82.58H398.196V77.14ZM398.076 92.76H410.576V94.12H398.076V92.76ZM398.076 88.84H399.716V93.12H398.076V88.84ZM424.668 83.82H426.328V86.88H424.668V83.82ZM425.508 77.2C428.148 77.2 430.028 78.66 430.028 80.86C430.028 83.06 428.148 84.54 425.508 84.54C422.828 84.54 420.968 83.06 420.968 80.86C420.968 78.66 422.828 77.2 425.508 77.2ZM425.508 78.48C423.748 78.48 422.508 79.44 422.508 80.86C422.508 82.28 423.748 83.24 425.508 83.24C427.228 83.24 428.468 82.28 428.468 80.86C428.468 79.44 427.228 78.48 425.508 78.48ZM432.808 76.48H434.468V90H432.808V76.48ZM422.688 92.8H435.048V94.16H422.688V92.8ZM422.688 89.04H424.368V93.34H422.688V89.04ZM420.007 87.64L419.768 86.28C423.208 86.26 427.628 86.18 431.368 85.74L431.488 86.94C427.648 87.52 423.348 87.64 420.007 87.64ZM440.186 92.8H452.606V94.16H440.186V92.8ZM440.186 88.98H441.846V93.28H440.186V88.98ZM438.066 86.18H454.466V87.54H438.066V86.18ZM445.406 83.14H447.046V86.68H445.406V83.14ZM445.386 76.94H446.826V77.76C446.826 81.12 443.426 83.6 439.786 84.3L439.126 82.98C442.346 82.46 445.386 80.28 445.386 77.76V76.94ZM445.646 76.94H447.066V77.76C447.066 80.28 450.146 82.46 453.326 82.98L452.666 84.3C449.066 83.58 445.646 81.12 445.646 77.76V76.94ZM460.904 78.16H462.264V79.62C462.264 82.86 460.244 85.54 457.184 86.6L456.364 85.28C459.084 84.36 460.904 82.14 460.904 79.62V78.16ZM461.204 78.16H462.564V79.6C462.564 81.92 464.304 84.04 466.964 84.9L466.184 86.2C463.164 85.22 461.204 82.64 461.204 79.6V78.16ZM456.864 77.66H466.544V79.02H456.864V77.66ZM468.844 76.48H470.504V86.4H468.844V76.48ZM470.044 80.64H473.184V82.04H470.044V80.64ZM459.104 87.26H460.744V89.42H468.864V87.26H470.504V94.32H459.104V87.26ZM460.744 90.74V92.98H468.864V90.74H460.744ZM488.003 76.46H489.663V94.58H488.003V76.46ZM480.123 77.86C482.803 77.86 484.723 80.32 484.723 84.16C484.723 88.02 482.803 90.48 480.123 90.48C477.463 90.48 475.543 88.02 475.543 84.16C475.543 80.32 477.463 77.86 480.123 77.86ZM480.123 79.36C478.363 79.36 477.123 81.24 477.123 84.16C477.123 87.1 478.363 89.02 480.123 89.02C481.903 89.02 483.123 87.1 483.123 84.16C483.123 81.24 481.903 79.36 480.123 79.36ZM498.554 87.42H514.934V88.8H498.554V87.42ZM505.914 87.82H507.554V94.58H505.914V87.82ZM500.734 84.22H513.114V85.58H500.734V84.22ZM500.734 77.32H512.914V78.66H502.374V84.62H500.734V77.32ZM501.894 80.74H512.474V82.04H501.894V80.74ZM524.273 77.12H525.733V78.12C525.733 81.58 522.213 84.06 518.453 84.7L517.793 83.36C521.093 82.86 524.273 80.7 524.273 78.12V77.12ZM524.573 77.12H526.013V78.12C526.013 80.64 529.233 82.86 532.493 83.36L531.833 84.7C528.113 84.06 524.573 81.54 524.573 78.12V77.12ZM524.273 87.68H525.913V94.56H524.273V87.68ZM516.973 86.66H533.313V88.04H516.973V86.66ZM24.98 108.88H41.38V110.14H24.98V108.88ZM26.92 111.6H39.32V115.46H28.62V117.58H26.98V114.32H37.7V112.78H26.92V111.6ZM26.98 117.14H39.9V118.34H26.98V117.14ZM27.06 101H39.26V104.76H28.74V106.72H27.1V103.64H37.64V102.18H27.06V101ZM27.1 106.32H39.6V107.52H27.1V106.32ZM53.4714 103.06H54.8114V106C54.8114 109.82 52.5114 113.66 49.6314 115.08L48.6714 113.76C51.2914 112.52 53.4714 109.12 53.4714 106V103.06ZM53.7914 103.06H55.1314V106C55.1314 109.06 57.3114 112.18 59.9714 113.32L59.0314 114.64C56.1114 113.28 53.7914 109.76 53.7914 106V103.06ZM49.2714 102.32H59.3714V103.72H49.2714V102.32ZM61.8114 100.48H63.4714V118.56H61.8114V100.48ZM71.9898 103.46H73.3498V104.24C73.3498 107.42 71.2898 110.06 68.2298 111.06L67.4298 109.78C70.1298 108.9 71.9898 106.7 71.9898 104.24V103.46ZM72.2698 103.46H73.6298V104.24C73.6298 106.52 75.5498 108.56 78.2298 109.32L77.4698 110.64C74.3898 109.72 72.2698 107.26 72.2698 104.24V103.46ZM67.8698 102.7H77.7098V104.04H67.8698V102.7ZM71.9898 100.48H73.6298V103.28H71.9898V100.48ZM80.2298 100.5H81.9098V111.56H80.2298V100.5ZM75.8898 111.94C79.6698 111.94 81.9698 113.14 81.9698 115.22C81.9698 117.32 79.6698 118.52 75.8898 118.52C72.1098 118.52 69.8298 117.32 69.8298 115.22C69.8298 113.14 72.1098 111.94 75.8898 111.94ZM75.8898 113.26C73.1498 113.26 71.4898 113.98 71.4898 115.22C71.4898 116.5 73.1498 117.22 75.8898 117.22C78.6498 117.22 80.3098 116.5 80.3098 115.22C80.3098 113.98 78.6498 113.26 75.8898 113.26ZM97.7283 100.48H99.3883V118.56H97.7283V100.48ZM98.9883 107.9H102.348V109.3H98.9883V107.9ZM85.3883 103.36H96.0483V104.72H85.3883V103.36ZM90.7883 106.22C93.3483 106.22 95.1883 107.94 95.1883 110.38C95.1883 112.82 93.3483 114.54 90.7883 114.54C88.2483 114.54 86.3883 112.82 86.3883 110.38C86.3883 107.94 88.2483 106.22 90.7883 106.22ZM90.7883 107.6C89.1483 107.6 87.9683 108.74 87.9683 110.38C87.9683 112 89.1483 113.16 90.7883 113.16C92.4283 113.16 93.6083 112 93.6083 110.38C93.6083 108.74 92.4283 107.6 90.7883 107.6ZM89.9283 100.7H91.5883V103.98H89.9283V100.7ZM106.087 105.9H118.367V107.26H106.087V105.9ZM103.867 109.68H120.267V111.04H103.867V109.68ZM106.087 101.14H107.727V106.58H106.087V101.14ZM105.967 116.76H118.467V118.12H105.967V116.76ZM105.967 112.84H107.607V117.12H105.967V112.84ZM139.938 100.48H141.598V109.68H139.938V100.48ZM140.878 104.36H144.258V105.74H140.878V104.36ZM128.318 101.5H136.618V108.74H128.318V101.5ZM134.998 102.82H129.938V107.42H134.998V102.82ZM130.118 110.54H141.598V114.98H131.798V117.68H130.158V113.72H139.978V111.86H130.118V110.54ZM130.158 116.98H142.258V118.32H130.158V116.98ZM159.117 100.48H160.797V110.18H159.117V100.48ZM149.137 111.08H150.777V113.28H159.157V111.08H160.797V118.32H149.137V111.08ZM150.777 114.6V116.98H159.157V114.6H150.777ZM151.097 101.34C153.837 101.34 155.797 103.04 155.797 105.5C155.797 107.98 153.837 109.68 151.097 109.68C148.357 109.68 146.377 107.98 146.377 105.5C146.377 103.04 148.357 101.34 151.097 101.34ZM151.097 102.72C149.297 102.72 147.997 103.86 147.997 105.5C147.997 107.14 149.297 108.28 151.097 108.28C152.897 108.28 154.197 107.14 154.197 105.5C154.197 103.86 152.897 102.72 151.097 102.72ZM177.515 100.48H179.175V118.56H177.515V100.48ZM165.515 102.24H167.155V113.44H165.515V102.24ZM165.515 112.46H166.995C169.735 112.46 172.595 112.26 175.655 111.62L175.855 113.04C172.715 113.68 169.855 113.9 166.995 113.9H165.515V112.46ZM194.993 100.46H196.673V118.58H194.993V100.46ZM196.273 107.6H199.633V109H196.273V107.6ZM183.533 112.68H184.953C188.293 112.68 190.633 112.56 193.333 112.06L193.513 113.46C190.733 113.98 188.353 114.08 184.953 114.08H183.533V112.68ZM183.533 102.22H191.933V103.58H185.173V113.3H183.533V102.22ZM202.999 117.135C202.61 117.135 202.277 116.998 201.997 116.723C201.718 116.444 201.578 116.107 201.578 115.714C201.578 115.326 201.718 114.995 201.997 114.72C202.277 114.441 202.61 114.301 202.999 114.301C203.387 114.301 203.721 114.441 204 114.72C204.279 114.995 204.419 115.326 204.419 115.714C204.419 115.975 204.353 116.214 204.22 116.432C204.092 116.645 203.922 116.815 203.709 116.943C203.496 117.071 203.259 117.135 202.999 117.135ZM216.955 101.14C219.655 101.14 221.635 102.78 221.635 105.16C221.635 107.52 219.655 109.16 216.955 109.16C214.275 109.16 212.295 107.52 212.295 105.16C212.295 102.78 214.275 101.14 216.955 101.14ZM216.955 102.5C215.215 102.5 213.895 103.6 213.895 105.16C213.895 106.72 215.215 107.8 216.955 107.8C218.715 107.8 220.015 106.72 220.015 105.16C220.015 103.6 218.715 102.5 216.955 102.5ZM225.035 100.48H226.715V109.74H225.035V100.48ZM215.015 110.62H226.715V115.02H216.675V117.74H215.055V113.78H225.075V111.96H215.015V110.62ZM215.055 117H227.315V118.32H215.055V117ZM242.653 100.5H244.313V113.76H242.653V100.5ZM243.793 105.96H246.993V107.34H243.793V105.96ZM233.053 116.8H245.133V118.16H233.053V116.8ZM233.053 112.48H234.713V117.12H233.053V112.48ZM231.033 101.78H232.673V104.8H237.773V101.78H239.393V110.74H231.033V101.78ZM232.673 106.1V109.4H237.773V106.1H232.673ZM253.291 102.32H254.651V103.78C254.651 107.08 252.611 109.9 249.591 111.02L248.731 109.7C251.431 108.74 253.291 106.34 253.291 103.78V102.32ZM253.611 102.32H254.951V103.78C254.951 106.1 256.711 108.36 259.331 109.28L258.491 110.6C255.551 109.52 253.611 106.8 253.611 103.78V102.32ZM258.351 105.18H262.371V106.56H258.351V105.18ZM249.251 101.72H258.911V103.06H249.251V101.72ZM251.491 112.28H263.551V118.56H261.891V113.64H251.491V112.28ZM261.891 100.48H263.551V111.3H261.891V100.48ZM280.23 100.5H281.91V113.7H280.23V100.5ZM270.29 116.8H282.45V118.16H270.29V116.8ZM270.29 112.34H271.93V117.26H270.29V112.34ZM272.21 101.74C274.91 101.74 276.91 103.58 276.91 106.2C276.91 108.8 274.91 110.66 272.21 110.66C269.51 110.66 267.49 108.8 267.49 106.2C267.49 103.58 269.51 101.74 272.21 101.74ZM272.21 103.18C270.45 103.18 269.11 104.42 269.11 106.2C269.11 107.96 270.45 109.2 272.21 109.2C273.97 109.2 275.31 107.96 275.31 106.2C275.31 104.42 273.97 103.18 272.21 103.18ZM296.641 101.78C299.461 101.78 301.481 103.52 301.481 106.04C301.481 108.58 299.461 110.32 296.641 110.32C293.821 110.32 291.781 108.58 291.781 106.04C291.781 103.52 293.821 101.78 296.641 101.78ZM296.641 103.22C294.761 103.22 293.401 104.36 293.401 106.04C293.401 107.72 294.761 108.88 296.641 108.88C298.501 108.88 299.861 107.72 299.861 106.04C299.861 104.36 298.501 103.22 296.641 103.22ZM303.841 100.46H305.501V118.58H303.841V100.46ZM291.101 114.62L290.861 113.24C294.161 113.24 298.721 113.22 302.661 112.6L302.801 113.82C298.741 114.6 294.321 114.62 291.101 114.62ZM310.2 102.24H318.52V114.02H310.2V102.24ZM316.9 103.58H311.82V112.68H316.9V103.58ZM322.3 100.46H323.96V118.58H322.3V100.46ZM333.438 101.78C336.258 101.78 338.278 103.52 338.278 106.04C338.278 108.58 336.258 110.32 333.438 110.32C330.618 110.32 328.578 108.58 328.578 106.04C328.578 103.52 330.618 101.78 333.438 101.78ZM333.438 103.22C331.558 103.22 330.198 104.36 330.198 106.04C330.198 107.72 331.558 108.88 333.438 108.88C335.298 108.88 336.658 107.72 336.658 106.04C336.658 104.36 335.298 103.22 333.438 103.22ZM340.638 100.46H342.298V118.58H340.638V100.46ZM327.898 114.62L327.658 113.24C330.958 113.24 335.518 113.22 339.458 112.6L339.598 113.82C335.538 114.6 331.118 114.62 327.898 114.62ZM356.25 107.82H357.91V110.88H356.25V107.82ZM357.09 101.2C359.73 101.2 361.61 102.66 361.61 104.86C361.61 107.06 359.73 108.54 357.09 108.54C354.41 108.54 352.55 107.06 352.55 104.86C352.55 102.66 354.41 101.2 357.09 101.2ZM357.09 102.48C355.33 102.48 354.09 103.44 354.09 104.86C354.09 106.28 355.33 107.24 357.09 107.24C358.81 107.24 360.05 106.28 360.05 104.86C360.05 103.44 358.81 102.48 357.09 102.48ZM364.39 100.48H366.05V114H364.39V100.48ZM354.27 116.8H366.63V118.16H354.27V116.8ZM354.27 113.04H355.95V117.34H354.27V113.04ZM351.59 111.64L351.35 110.28C354.79 110.26 359.21 110.18 362.95 109.74L363.07 110.94C359.23 111.52 354.93 111.64 351.59 111.64ZM371.768 116.8H384.188V118.16H371.768V116.8ZM371.768 112.98H373.428V117.28H371.768V112.98ZM369.648 110.18H386.048V111.54H369.648V110.18ZM376.988 107.14H378.628V110.68H376.988V107.14ZM376.968 100.94H378.408V101.76C378.408 105.12 375.008 107.6 371.368 108.3L370.708 106.98C373.928 106.46 376.968 104.28 376.968 101.76V100.94ZM377.228 100.94H378.648V101.76C378.648 104.28 381.728 106.46 384.908 106.98L384.248 108.3C380.648 107.58 377.228 105.12 377.228 101.76V100.94ZM392.486 102.16H393.846V103.62C393.846 106.86 391.826 109.54 388.766 110.6L387.946 109.28C390.666 108.36 392.486 106.14 392.486 103.62V102.16ZM392.786 102.16H394.146V103.6C394.146 105.92 395.886 108.04 398.546 108.9L397.766 110.2C394.746 109.22 392.786 106.64 392.786 103.6V102.16ZM388.446 101.66H398.126V103.02H388.446V101.66ZM400.426 100.48H402.086V110.4H400.426V100.48ZM401.626 104.64H404.766V106.04H401.626V104.64ZM390.686 111.26H392.326V113.42H400.446V111.26H402.086V118.32H390.686V111.26ZM392.326 114.74V116.98H400.446V114.74H392.326ZM419.585 100.46H421.245V118.58H419.585V100.46ZM411.705 101.86C414.385 101.86 416.305 104.32 416.305 108.16C416.305 112.02 414.385 114.48 411.705 114.48C409.045 114.48 407.125 112.02 407.125 108.16C407.125 104.32 409.045 101.86 411.705 101.86ZM411.705 103.36C409.945 103.36 408.705 105.24 408.705 108.16C408.705 111.1 409.945 113.02 411.705 113.02C413.485 113.02 414.705 111.1 414.705 108.16C414.705 105.24 413.485 103.36 411.705 103.36ZM424.843 108.88H441.243V110.14H424.843V108.88ZM426.783 111.6H439.183V115.46H428.483V117.58H426.843V114.32H437.563V112.78H426.783V111.6ZM426.843 117.14H439.763V118.34H426.843V117.14ZM426.923 101H439.123V104.76H428.603V106.72H426.963V103.64H437.503V102.18H426.923V101ZM426.963 106.32H439.463V107.52H426.963V106.32ZM460.775 100.46H462.455V118.56H460.775V100.46ZM461.995 107.8H465.335V109.18H461.995V107.8ZM456.155 102.42H457.775C457.775 107.56 455.415 112.2 449.575 115.14L448.655 113.86C453.655 111.32 456.155 107.46 456.155 102.68V102.42ZM449.495 102.42H457.015V103.78H449.495V102.42ZM480.113 100.46H481.773V118.58H480.113V100.46ZM467.993 112.84H469.493C472.513 112.84 475.213 112.72 478.413 112.2L478.593 113.56C475.313 114.1 472.593 114.22 469.493 114.22H467.993V112.84ZM467.953 102.16H476.313V108.62H469.653V113.36H467.993V107.26H474.633V103.52H467.953V102.16ZM498.492 100.48H500.152V109.9H498.492V100.48ZM488.452 110.82H500.152V115.08H490.112V117.56H488.492V113.86H498.512V112.14H488.452V110.82ZM488.492 117.06H500.772V118.36H488.492V117.06ZM493.132 101.26H494.872C494.872 105.82 492.012 108.96 486.452 110.4L485.852 109.06C490.812 107.82 493.132 105.26 493.132 102.04V101.26ZM486.652 101.26H493.952V102.6H486.652V101.26ZM492.952 104.36V105.52L486.032 106.04L485.752 104.68L492.952 104.36ZM519.383 100.86H520.923V117.66H519.383V100.86ZM520.283 107.84H523.623V109.2H520.283V107.84ZM509.563 112.48H510.283C510.983 112.48 512.163 112.46 513.563 112.12L513.703 113.5C512.203 113.86 511.043 113.86 510.283 113.86H509.563V112.48ZM509.563 102.74H513.423V104.1H511.103V113.26H509.563V102.74ZM514.203 112.48H514.963C515.923 112.48 517.183 112.44 518.563 112.06L518.723 113.44C517.243 113.84 516.003 113.86 514.963 113.86H514.203V112.48ZM514.203 102.74H518.183V104.1H515.723V113.2H514.203V102.74ZM523.043 100.48H524.623V118.56H523.043V100.48ZM529.501 108.92H541.921V110.28H529.501V108.92ZM527.441 114.9H543.821V116.3H527.441V114.9ZM534.761 109.5H536.421V115.46H534.761V109.5ZM529.501 101.92H541.741V103.28H531.161V109.52H529.501V101.92ZM29.42 126.04H30.78V129.28C30.78 133.28 28.62 137.18 25.76 138.7L24.74 137.38C27.36 136.06 29.42 132.58 29.42 129.28V126.04ZM29.72 126.04H31.06V129.28C31.06 132.46 33.08 135.76 35.64 137.04L34.62 138.36C31.82 136.86 29.72 133.16 29.72 129.28V126.04ZM37.22 124.48H38.9V142.56H37.22V124.48ZM38.5 131.8H41.86V133.2H38.5V131.8ZM47.4184 130.6H49.0584V134.02H47.4184V130.6ZM54.0584 130.6H55.6984V134.02H54.0584V130.6ZM43.3784 133.42H59.7184V134.76H43.3784V133.42ZM51.5384 136.12C55.4184 136.12 57.7384 137.26 57.7384 139.32C57.7384 141.38 55.4184 142.54 51.5384 142.54C47.6584 142.54 45.3384 141.38 45.3384 139.32C45.3384 137.26 47.6584 136.12 51.5384 136.12ZM51.5384 137.4C48.7184 137.4 47.0184 138.1 47.0184 139.32C47.0184 140.56 48.7184 141.24 51.5384 141.24C54.3784 141.24 56.0584 140.56 56.0584 139.32C56.0584 138.1 54.3784 137.4 51.5384 137.4ZM51.5584 124.8C55.4784 124.8 57.9184 126.06 57.9184 128.18C57.9184 130.28 55.4784 131.52 51.5584 131.52C47.6184 131.52 45.1984 130.28 45.1984 128.18C45.1984 126.06 47.6184 124.8 51.5584 124.8ZM51.5584 126.1C48.6784 126.1 46.8984 126.86 46.8984 128.18C46.8984 129.48 48.6784 130.24 51.5584 130.24C54.4384 130.24 56.2184 129.48 56.2184 128.18C56.2184 126.86 54.4384 126.1 51.5584 126.1ZM66.9369 130.6H68.6169V133.6H66.9369V130.6ZM74.9569 124.48H76.6169V134.9H74.9569V124.48ZM62.0969 134.46L61.8569 133.12C65.1569 133.12 69.6569 133.08 73.4769 132.52L73.5969 133.7C69.6569 134.4 65.3169 134.46 62.0969 134.46ZM63.4769 129.76H72.1569V131.1H63.4769V129.76ZM63.4769 125.38H71.9969V126.74H65.1369V130.28H63.4769V125.38ZM64.7569 135.7H66.4169V137.6H74.9769V135.7H76.6169V142.32H64.7569V135.7ZM66.4169 138.9V140.98H74.9769V138.9H66.4169ZM93.3353 124.48H94.9953V142.56H93.3353V124.48ZM81.3353 126.24H82.9753V137.44H81.3353V126.24ZM81.3353 136.46H82.8153C85.5553 136.46 88.4153 136.26 91.4753 135.62L91.6753 137.04C88.5353 137.68 85.6753 137.9 82.8153 137.9H81.3353V136.46ZM110.814 124.46H112.494V142.58H110.814V124.46ZM112.094 131.6H115.454V133H112.094V131.6ZM99.3538 136.68H100.774C104.114 136.68 106.454 136.56 109.154 136.06L109.334 137.46C106.554 137.98 104.174 138.08 100.774 138.08H99.3538V136.68ZM99.3538 126.22H107.754V127.58H100.994V137.3H99.3538V126.22ZM118.819 141.135C118.431 141.135 118.097 140.998 117.817 140.723C117.538 140.444 117.398 140.107 117.398 139.714C117.398 139.326 117.538 138.995 117.817 138.72C118.097 138.441 118.431 138.301 118.819 138.301C119.207 138.301 119.541 138.441 119.82 138.72C120.1 138.995 120.239 139.326 120.239 139.714C120.239 139.975 120.173 140.214 120.04 140.432C119.913 140.645 119.742 140.815 119.529 140.943C119.316 141.071 119.079 141.135 118.819 141.135Z" fill="black"/>
<g clip-path="url(#clip0_1377_190)">
<path d="M213 53C222.941 53 231 44.9411 231 35C231 25.0589 222.941 17 213 17C203.059 17 195 25.0589 195 35C195 44.9411 203.059 53 213 53Z" fill="#E1E8ED"/>
<path d="M226.802 46.5462C223.792 45.2212 222 41.0482 222 35.0002C222 28.9522 223.792 24.7792 226.802 23.4542C226.356 22.9258 225.879 22.4237 225.374 21.9502C222.406 23.6052 220 27.5782 220 35.0002C220 42.4212 222.406 46.3952 225.374 48.0502C225.876 47.5732 226.358 47.0772 226.802 46.5462ZM206 35.0002C206 27.5792 203.594 23.6052 200.626 21.9512C200.122 22.4243 199.645 22.9262 199.198 23.4542C202.208 24.7802 204 28.9522 204 35.0002C204 41.0482 202.208 45.2202 199.198 46.5462C199.643 47.0772 200.124 47.5732 200.626 48.0502C203.593 46.3952 206 42.4212 206 35.0002Z" fill="#B3BEC4"/>
<path d="M200.092 27.164C199.855 27.164 199.635 27.144 199.441 27.108C199.18 27.0592 198.95 26.9088 198.8 26.69C198.726 26.5816 198.674 26.4597 198.646 26.3312C198.619 26.2027 198.618 26.0701 198.642 25.941C198.666 25.8119 198.716 25.6888 198.787 25.5788C198.859 25.4688 198.952 25.374 199.06 25.2998C199.279 25.15 199.548 25.0932 199.809 25.142C200.239 25.219 202.5 25.148 202.957 22.866C203.009 22.606 203.162 22.3773 203.383 22.2302C203.492 22.1574 203.615 22.1069 203.744 22.0814C203.873 22.056 204.005 22.0562 204.134 22.082C204.263 22.1078 204.385 22.1587 204.494 22.2318C204.603 22.3049 204.697 22.3988 204.77 22.5081C204.843 22.6174 204.893 22.74 204.919 22.8688C204.944 22.9977 204.944 23.1302 204.918 23.259C204.335 26.171 201.779 27.164 200.092 27.164ZM201.792 31.125C201.262 31.125 200.84 30.802 200.814 30.266C200.788 29.715 201.214 29.355 201.766 29.329C201.766 29.329 204.33 29.294 205.635 27.035C205.701 26.9219 205.789 26.823 205.894 26.744C205.998 26.665 206.117 26.6075 206.244 26.5748C206.371 26.5421 206.503 26.5348 206.633 26.5533C206.763 26.5719 206.887 26.616 207 26.683C207.478 26.959 207.642 27.577 207.365 28.056C205.514 31.262 201.808 31.125 201.792 31.125ZM204 36.282C203.266 36.282 202.586 36.147 202.072 35.904C201.832 35.7905 201.647 35.5864 201.558 35.3366C201.469 35.0868 201.483 34.8118 201.596 34.572C201.71 34.3322 201.914 34.1474 202.163 34.0581C202.413 33.9689 202.688 33.9825 202.928 34.096C203.758 34.489 205.854 34.335 206.658 33.084C206.729 32.9735 206.821 32.878 206.929 32.8031C207.037 32.7282 207.158 32.6752 207.287 32.6473C207.415 32.6193 207.548 32.6169 207.677 32.6402C207.806 32.6635 207.93 32.712 208.04 32.783C208.151 32.854 208.246 32.946 208.321 33.0539C208.396 33.1618 208.449 33.2833 208.477 33.4117C208.505 33.54 208.507 33.6726 208.484 33.8018C208.461 33.9311 208.412 34.0545 208.341 34.165C207.377 35.666 205.565 36.282 204 36.282ZM205.161 41.807C203.607 41.807 202.166 41.108 201.235 40.331C201.134 40.247 201.051 40.1439 200.99 40.0276C200.929 39.9113 200.891 39.7842 200.879 39.6534C200.867 39.5226 200.881 39.3907 200.92 39.2653C200.959 39.1399 201.023 39.0234 201.107 38.9225C201.191 38.8216 201.294 38.7382 201.41 38.6771C201.526 38.616 201.653 38.5785 201.784 38.5665C201.915 38.5546 202.047 38.5686 202.172 38.6076C202.298 38.6466 202.414 38.71 202.515 38.794C202.709 38.957 204.467 40.36 206.297 39.579C206.418 39.5277 206.548 39.5008 206.679 39.4997C206.811 39.4986 206.941 39.5234 207.063 39.5726C207.184 39.6219 207.295 39.6947 207.389 39.7868C207.483 39.8789 207.557 39.9886 207.609 40.1095C207.66 40.2304 207.687 40.3603 207.688 40.4917C207.689 40.623 207.664 40.7533 207.615 40.8751C207.566 40.9969 207.493 41.1078 207.401 41.2015C207.309 41.2951 207.199 41.3697 207.078 41.421C206.471 41.6772 205.82 41.8084 205.161 41.807ZM204.75 47H204.722C202.218 47 200.043 45.43 199.188 43.892C198.919 43.41 199.094 42.848 199.576 42.58C200.059 42.311 200.668 42.51 200.936 42.992C201.42 43.863 202.932 45.126 204.777 45.177C205.329 45.193 205.764 45.565 205.749 46.116C205.734 46.658 205.29 47 204.75 47ZM222.188 47.188C222.04 47.1881 221.894 47.1553 221.76 47.092C221.626 47.0287 221.508 46.9364 221.414 46.8219C221.32 46.7073 221.253 46.5734 221.217 46.4297C221.181 46.286 221.178 46.1362 221.207 45.991C221.871 42.669 225.101 41.841 226.685 42.142C226.946 42.191 227.176 42.3415 227.326 42.5603C227.475 42.7791 227.532 43.0484 227.483 43.309C227.46 43.4384 227.411 43.5618 227.339 43.6721C227.267 43.7824 227.175 43.8774 227.066 43.9517C226.958 44.0259 226.835 44.0778 226.707 44.1045C226.578 44.1312 226.445 44.132 226.316 44.107C225.891 44.027 223.626 44.1 223.169 46.383C223.124 46.61 223.002 46.8143 222.823 46.961C222.644 47.1078 222.419 47.188 222.188 47.188ZM219.624 42.688C219.449 42.6881 219.276 42.642 219.124 42.5542C218.972 42.4664 218.846 42.3401 218.758 42.1881C218.67 42.036 218.624 41.8634 218.624 41.6879C218.625 41.5123 218.671 41.3399 218.759 41.188C220.611 37.982 222.743 37.884 224.153 37.819L224.264 37.814C224.529 37.8013 224.788 37.8943 224.985 38.0727C225.181 38.251 225.298 38.5 225.311 38.765C225.324 39.03 225.231 39.2891 225.052 39.4855C224.874 39.6818 224.625 39.7993 224.36 39.812L224.245 39.817C223.041 39.873 221.796 39.929 220.491 42.188C220.403 42.3402 220.277 42.4665 220.125 42.5543C219.972 42.642 219.8 42.6882 219.624 42.688ZM218.624 36.625C218.445 36.625 218.268 36.5767 218.114 36.4851C217.96 36.3935 217.833 36.262 217.747 36.1044C217.661 35.9468 217.619 35.769 217.626 35.5896C217.632 35.4102 217.687 35.2359 217.784 35.085C219.199 32.882 222.44 32.584 224.052 33.347C224.29 33.4612 224.474 33.6652 224.562 33.9143C224.651 34.1634 224.637 34.4373 224.524 34.6763C224.411 34.9152 224.208 35.0997 223.959 35.1894C223.711 35.2791 223.437 35.2667 223.197 35.155C222.368 34.762 220.271 34.916 219.465 36.167C219.374 36.3076 219.25 36.4232 219.103 36.5032C218.956 36.5832 218.791 36.6251 218.624 36.625ZM224.249 30.688C224.015 30.6879 223.789 30.6058 223.609 30.456C223.415 30.294 221.657 28.897 219.828 29.671C219.586 29.7618 219.319 29.7557 219.082 29.654C218.845 29.5523 218.656 29.3629 218.555 29.1253C218.454 28.8877 218.449 28.6203 218.54 28.3789C218.632 28.1376 218.813 27.9409 219.046 27.83C221.265 26.888 223.581 27.829 224.89 28.92C225.048 29.0516 225.161 29.2287 225.215 29.4271C225.269 29.6255 225.26 29.8356 225.19 30.0288C225.12 30.2221 224.992 30.389 224.823 30.507C224.655 30.6249 224.455 30.6881 224.249 30.688ZM226.063 26.75C225.885 26.7502 225.709 26.7026 225.556 26.6122C225.402 26.5219 225.275 26.392 225.188 26.236C224.704 25.364 223.192 24.113 221.347 24.062C220.794 24.047 220.36 23.556 220.374 23.003C220.391 22.461 220.835 22 221.374 22H221.402C223.907 22 226.082 23.694 226.936 25.232C227.065 25.4664 227.097 25.7423 227.024 25.9999C226.951 26.2575 226.78 26.476 226.547 26.608C226.401 26.6959 226.234 26.7448 226.063 26.75Z" fill="#DD2E44"/>
</g>
<defs>
<clipPath id="clip0_1377_190">
<rect width="36" height="36" fill="white" transform="translate(195 17)"/>
</clipPath>
</defs>
</svg>
