<svg width="570" height="194" viewBox="0 0 570 194" fill="none" xmlns="http://www.w3.org/2000/svg">
<rect x="0.5" y="0.5" width="569" height="193" rx="17.5" fill="white" stroke="#8A9A6B"/>
<path d="M40.7406 22.995H44.2414V41.2097H40.7406V22.995ZM43.2412 30.4177H47.479V33.2868H43.2412V30.4177ZM25.0529 25.5219H39.3982V28.2594H25.0529V25.5219ZM32.2387 29.128C35.7395 29.128 38.2138 31.0495 38.2138 33.8396C38.2138 36.6297 35.7395 38.5248 32.2387 38.5248C28.7116 38.5248 26.2373 36.6297 26.2373 33.8396C26.2373 31.0495 28.7116 29.128 32.2387 29.128ZM32.2387 31.7865C30.6857 31.7865 29.6065 32.5235 29.6065 33.8396C29.6065 35.1557 30.6857 35.8663 32.2387 35.8663C33.7917 35.8663 34.8709 35.1557 34.8709 33.8396C34.8709 32.5235 33.7917 31.7865 32.2387 31.7865ZM30.4752 22.9424H33.9759V26.8643H30.4752V22.9424ZM28.5273 44.1314H45.1101V46.9215H28.5273V44.1314ZM28.5273 39.8409H32.0281V45.3422H28.5273V39.8409ZM72.5365 22.9687H76.0636V36.0769H72.5365V22.9687ZM59.8494 37.1298H63.2976V39.3935H72.5892V37.1298H76.0636V47.0794H59.8494V37.1298ZM63.2976 42.0783V44.2893H72.5892V42.0783H63.2976ZM62.7975 23.9689C66.5878 23.9689 69.4042 26.3642 69.4042 29.7334C69.4042 33.1026 66.5878 35.4978 62.7975 35.4978C59.0071 35.4978 56.1644 33.1026 56.1644 29.7334C56.1644 26.3642 59.0071 23.9689 62.7975 23.9689ZM62.7975 26.8643C60.9286 26.8643 59.5862 27.9435 59.5862 29.7334C59.5862 31.5496 60.9286 32.6024 62.7975 32.6024C64.64 32.6024 65.9824 31.5496 65.9824 29.7334C65.9824 27.9435 64.64 26.8643 62.7975 26.8643ZM93.0667 24.6533C96.778 24.6533 99.4628 28.0225 99.4628 33.3395C99.4628 38.7091 96.778 42.0783 93.0667 42.0783C89.3553 42.0783 86.6705 38.7091 86.6705 33.3395C86.6705 28.0225 89.3553 24.6533 93.0667 24.6533ZM93.0667 27.8382C91.2505 27.8382 90.0397 29.7597 90.0397 33.3395C90.0397 36.9719 91.2505 38.9197 93.0667 38.9197C94.8829 38.9197 96.12 36.9719 96.12 33.3395C96.12 29.7597 94.8829 27.8382 93.0667 27.8382ZM104.701 28.6279H108.991V31.5233H104.701V28.6279ZM104.701 35.7874H108.991V38.6565H104.701V35.7874ZM102.121 22.9687H105.648V47.3426H102.121V22.9687ZM113.28 24.3901H128.573V27.1538H113.28V24.3901ZM110.779 34.7608H132.81V37.5773H110.779V34.7608ZM119.913 36.735H123.44V47.369H119.913V36.735ZM126.783 24.3901H130.231V26.5484C130.231 29.1806 130.231 32.1287 129.283 36.4454L125.835 36.0506C126.783 31.9707 126.783 29.0753 126.783 26.5484V24.3901ZM146.839 24.2848H149.708V26.4432C149.708 31.2864 147.602 35.5505 142.97 37.1561L141.101 34.3923C145.181 33.0236 146.839 29.7597 146.839 26.4432V24.2848ZM147.55 24.2848H150.393V26.7853C150.393 29.7071 152.025 32.5498 155.841 33.7343L154.025 36.4454C149.629 34.9714 147.55 31.1811 147.55 26.7853V24.2848ZM157.184 22.9687H160.684V37.3667H157.184V22.9687ZM159.71 28.6015H163.922V31.4969H159.71V28.6015ZM152.735 37.9194C157.789 37.9194 160.974 39.683 160.974 42.631C160.974 45.6054 157.789 47.3426 152.735 47.3426C147.655 47.3426 144.47 45.6054 144.47 42.631C144.47 39.683 147.655 37.9194 152.735 37.9194ZM152.735 40.6306C149.629 40.6306 147.945 41.2886 147.945 42.631C147.945 43.9998 149.629 44.6315 152.735 44.6315C155.841 44.6315 157.499 43.9998 157.499 42.631C157.499 41.2886 155.841 40.6306 152.735 40.6306ZM171.422 24.0742H174.317V26.4168C174.317 31.0231 172.08 35.2083 167.315 36.735L165.605 33.9712C169.711 32.6551 171.422 29.4965 171.422 26.4168V24.0742ZM172.132 24.0742H175.001V26.4168C175.001 29.4175 176.686 32.3656 180.661 33.5764L178.95 36.3138C174.291 34.8398 172.132 30.9442 172.132 26.4168V24.0742ZM169.342 38.5775H185.978V47.3426H182.45V41.3676H169.342V38.5775ZM182.45 22.9687H185.978V37.4983H182.45V22.9687Z" fill="black"/>
<path d="M25.42 88.36H26.72C29.42 88.36 31.14 88.32 33.22 88L33.44 90.16C31.32 90.52 29.48 90.56 26.72 90.56H25.42V88.36ZM25.42 78.18H32.9V80.3H27.94V89.24H25.42V78.18ZM27.22 83.02H32.54V85.08H27.22V83.02ZM38.18 76.26H40.72V94.78H38.18V76.26ZM35.96 83.42H39.02V85.56H35.96V83.42ZM34.18 76.54H36.68V93.94H34.18V76.54ZM44.9184 77.96H56.6584V80.06H44.9184V77.96ZM43.2184 90.2H59.9584V92.36H43.2184V90.2ZM55.2584 77.96H57.8984V80.16C57.8984 82.76 57.8984 85.28 57.2384 89.08L54.5784 88.86C55.2584 85.3 55.2584 82.66 55.2584 80.16V77.96ZM70.9569 80.34H75.5969V82.48H70.9569V80.34ZM66.7169 77.02C69.4969 77.02 71.5969 78.88 71.5969 81.44C71.5969 84.02 69.4969 85.86 66.7169 85.86C63.9169 85.86 61.8169 84.02 61.8169 81.44C61.8169 78.88 63.9169 77.02 66.7169 77.02ZM66.7169 79.24C65.3569 79.24 64.3569 80.06 64.3569 81.44C64.3569 82.82 65.3569 83.66 66.7169 83.66C68.0769 83.66 69.0569 82.82 69.0569 81.44C69.0569 80.06 68.0769 79.24 66.7169 79.24ZM74.4369 76.26H77.0969V86.22H74.4369V76.26ZM64.7969 87.02H67.4369V88.78H74.4569V87.02H77.0969V94.58H64.7969V87.02ZM67.4369 90.82V92.46H74.4569V90.82H67.4369ZM80.1753 85.98H96.5153V87.34H80.1753V85.98ZM82.2953 92.8H94.7153V94.16H82.2953V92.8ZM82.2953 88.92H83.9553V93.22H82.2953V88.92ZM88.3553 77.08C92.2153 77.08 94.7153 78.44 94.7153 80.7C94.7153 82.94 92.2153 84.3 88.3553 84.3C84.4753 84.3 81.9953 82.94 81.9953 80.7C81.9953 78.44 84.4753 77.08 88.3553 77.08ZM88.3553 78.44C85.5153 78.44 83.6953 79.28 83.6953 80.7C83.6953 82.12 85.5153 82.96 88.3553 82.96C91.1953 82.96 93.0153 82.12 93.0153 80.7C93.0153 79.28 91.1953 78.44 88.3553 78.44ZM104.647 88.84H106.067C109.407 88.84 111.707 88.76 114.427 88.28L114.607 89.64C111.807 90.12 109.447 90.22 106.067 90.22H104.647V88.84ZM104.647 78.12H113.067V79.5H106.307V89.32H104.647V78.12ZM105.887 83.18H112.667V84.52H105.887V83.18ZM116.107 76.48H117.787V94.56H116.107V76.48ZM117.387 83.74H120.747V85.14H117.387V83.74ZM126.745 79.06H128.065V82C128.065 85.76 125.765 89.64 122.945 91.08L121.985 89.76C124.565 88.5 126.745 85.06 126.745 82V79.06ZM127.045 79.06H128.365V82C128.365 84.86 130.405 88.08 133.025 89.32L132.085 90.64C129.225 89.22 127.045 85.58 127.045 82V79.06ZM122.625 78.32H132.365V79.72H122.625V78.32ZM134.505 76.48H136.185V94.56H134.505V76.48ZM135.785 83.78H139.145V85.18H135.785V83.78ZM146.544 77.78C149.364 77.78 151.384 79.52 151.384 82.04C151.384 84.58 149.364 86.32 146.544 86.32C143.724 86.32 141.684 84.58 141.684 82.04C141.684 79.52 143.724 77.78 146.544 77.78ZM146.544 79.22C144.664 79.22 143.304 80.36 143.304 82.04C143.304 83.72 144.664 84.88 146.544 84.88C148.404 84.88 149.764 83.72 149.764 82.04C149.764 80.36 148.404 79.22 146.544 79.22ZM153.744 76.46H155.404V94.58H153.744V76.46ZM141.004 90.62L140.764 89.24C144.064 89.24 148.624 89.22 152.564 88.6L152.704 89.82C148.644 90.6 144.224 90.62 141.004 90.62ZM165.135 88.84H166.555C169.895 88.84 172.195 88.76 174.915 88.28L175.095 89.64C172.295 90.12 169.935 90.22 166.555 90.22H165.135V88.84ZM165.135 78.12H173.555V79.5H166.795V89.32H165.135V78.12ZM166.375 83.18H173.155V84.52H166.375V83.18ZM176.595 76.48H178.275V94.56H176.595V76.48ZM177.875 83.74H181.235V85.14H177.875V83.74ZM184.813 77.66H196.113V79H184.813V77.66ZM182.773 85.42H199.113V86.78H182.773V85.42ZM190.073 86.32H191.733V94.58H190.073V86.32ZM195.333 77.66H196.953V79.22C196.953 81.1 196.953 83.22 196.273 86.28L194.633 86.06C195.333 83.14 195.333 81.04 195.333 79.22V77.66ZM213.392 76.46H215.072V94.56H213.392V76.46ZM214.612 83.8H217.952V85.18H214.612V83.8ZM208.772 78.42H210.392C210.392 83.56 208.032 88.2 202.192 91.14L201.272 89.86C206.272 87.32 208.772 83.46 208.772 78.68V78.42ZM202.112 78.42H209.632V79.78H202.112V78.42ZM226.363 77.02H239.643V78.32H226.363V77.02ZM226.443 81.76H239.563V83.04H226.443V81.76ZM229.103 77.52H230.763V82.6H229.103V77.52ZM235.263 77.52H236.903V82.6H235.263V77.52ZM224.843 84.54H241.183V85.88H224.843V84.54ZM226.823 87.46H239.103V91.42H228.503V93.6H226.863V90.24H237.463V88.7H226.823V87.46ZM226.863 93.1H239.643V94.36H226.863V93.1ZM255.502 76.46H257.162V94.58H255.502V76.46ZM256.762 83.66H260.122V85.06H256.762V83.66ZM243.982 88.84H245.422C248.822 88.84 251.182 88.72 253.922 88.2L254.102 89.58C251.282 90.08 248.882 90.22 245.422 90.22H243.982V88.84ZM243.942 78.16H252.122V84.64H245.622V89.4H243.982V83.28H250.482V79.52H243.942V78.16ZM274.78 76.46H276.44V94.58H274.78V76.46ZM266.9 77.86C269.58 77.86 271.5 80.32 271.5 84.16C271.5 88.02 269.58 90.48 266.9 90.48C264.24 90.48 262.32 88.02 262.32 84.16C262.32 80.32 264.24 77.86 266.9 77.86ZM266.9 79.36C265.14 79.36 263.9 81.24 263.9 84.16C263.9 87.1 265.14 89.02 266.9 89.02C268.68 89.02 269.9 87.1 269.9 84.16C269.9 81.24 268.68 79.36 266.9 79.36ZM282.219 76.76H283.859V78.44H292.599V76.76H294.259V82.72H282.219V76.76ZM283.859 79.72V81.44H292.599V79.72H283.859ZM280.039 84.46H296.379V85.8H280.039V84.46ZM287.379 82.12H289.019V84.88H287.379V82.12ZM282.019 87.3H294.299V91.32H283.699V93.56H282.059V90.12H292.659V88.56H282.019V87.3ZM282.059 93.08H294.839V94.36H282.059V93.08ZM303.517 77.14C306.217 77.14 308.197 78.78 308.197 81.16C308.197 83.52 306.217 85.16 303.517 85.16C300.837 85.16 298.857 83.52 298.857 81.16C298.857 78.78 300.837 77.14 303.517 77.14ZM303.517 78.5C301.777 78.5 300.457 79.6 300.457 81.16C300.457 82.72 301.777 83.8 303.517 83.8C305.277 83.8 306.577 82.72 306.577 81.16C306.577 79.6 305.277 78.5 303.517 78.5ZM311.597 76.48H313.277V85.74H311.597V76.48ZM301.577 86.62H313.277V91.02H303.237V93.74H301.617V89.78H311.637V87.96H301.577V86.62ZM301.617 93H313.877V94.32H301.617V93ZM332.488 76.86H334.028V93.66H332.488V76.86ZM333.388 83.84H336.728V85.2H333.388V83.84ZM322.668 88.48H323.388C324.088 88.48 325.268 88.46 326.668 88.12L326.808 89.5C325.308 89.86 324.148 89.86 323.388 89.86H322.668V88.48ZM322.668 78.74H326.528V80.1H324.208V89.26H322.668V78.74ZM327.308 88.48H328.068C329.028 88.48 330.288 88.44 331.668 88.06L331.828 89.44C330.348 89.84 329.108 89.86 328.068 89.86H327.308V88.48ZM327.308 78.74H331.288V80.1H328.828V89.2H327.308V78.74ZM336.148 76.48H337.728V94.56H336.148V76.48ZM343.737 91.0114L343.631 91.7855C343.56 92.3537 343.439 92.9455 343.268 93.5611C343.103 94.1813 342.93 94.7566 342.75 95.2869C342.575 95.8172 342.43 96.2386 342.317 96.5511H340.811C340.873 96.2576 340.958 95.8598 341.067 95.358C341.176 94.8608 341.282 94.3045 341.386 93.6889C341.491 93.0734 341.569 92.446 341.621 91.8068L341.692 91.0114H343.737ZM358.607 78.26H360.047V79.02C360.047 82.26 356.607 84.64 352.967 85.26L352.327 83.94C355.507 83.48 358.607 81.4 358.607 79.02V78.26ZM359.027 78.26H360.447V79.02C360.447 81.4 363.567 83.48 366.727 83.94L366.107 85.26C362.447 84.64 359.027 82.26 359.027 79.02V78.26ZM358.667 87.66H360.307V94.56H358.667V87.66ZM351.367 86.78H367.707V88.14H351.367V86.78ZM352.887 77.6H366.127V78.94H352.887V77.6ZM374.226 79.06H375.546V82C375.546 85.76 373.246 89.64 370.426 91.08L369.466 89.76C372.046 88.5 374.226 85.06 374.226 82V79.06ZM374.526 79.06H375.846V82C375.846 84.86 377.886 88.08 380.506 89.32L379.566 90.64C376.706 89.22 374.526 85.58 374.526 82V79.06ZM370.106 78.32H379.846V79.72H370.106V78.32ZM381.986 76.48H383.666V94.56H381.986V76.48ZM383.266 83.78H386.626V85.18H383.266V83.78ZM400.384 76.46H402.064V94.56H400.384V76.46ZM401.604 83.8H404.944V85.18H401.604V83.8ZM395.764 78.42H397.384C397.384 83.56 395.024 88.2 389.184 91.14L388.264 89.86C393.264 87.32 395.764 83.46 395.764 78.68V78.42ZM389.104 78.42H396.624V79.78H389.104V78.42ZM412.495 78.26H414.075V82.66H417.875V78.26H419.415V90.02H412.495V78.26ZM414.075 84V88.66H417.875V84H414.075ZM425.615 76.48H427.215V94.56H425.615V76.48ZM419.135 83.34H422.615V84.72H419.135V83.34ZM422.035 76.86H423.615V93.66H422.035V76.86ZM443.374 76.46H445.034V94.58H443.374V76.46ZM435.494 77.86C438.174 77.86 440.094 80.32 440.094 84.16C440.094 88.02 438.174 90.48 435.494 90.48C432.834 90.48 430.914 88.02 430.914 84.16C430.914 80.32 432.834 77.86 435.494 77.86ZM435.494 79.36C433.734 79.36 432.494 81.24 432.494 84.16C432.494 87.1 433.734 89.02 435.494 89.02C437.274 89.02 438.494 87.1 438.494 84.16C438.494 81.24 437.274 79.36 435.494 79.36ZM455.892 77.72H457.332V79.1C457.332 83.04 453.672 86.1 450.052 86.92L449.312 85.54C452.492 84.94 455.892 82.18 455.892 79.1V77.72ZM456.192 77.72H457.632V79.1C457.632 82.2 461.052 84.94 464.212 85.54L463.472 86.92C459.872 86.1 456.192 83.06 456.192 79.1V77.72ZM448.652 90.76H465.032V92.12H448.652V90.76ZM467.031 84.88H483.431V86.14H467.031V84.88ZM468.971 87.6H481.371V91.46H470.671V93.58H469.031V90.32H479.751V88.78H468.971V87.6ZM469.031 93.14H481.951V94.34H469.031V93.14ZM469.111 77H481.311V80.76H470.791V82.72H469.151V79.64H479.691V78.18H469.111V77ZM469.151 82.32H481.651V83.52H469.151V82.32ZM499.022 86.82H500.542V89.16H503.262V86.82H504.762V94.32H499.022V86.82ZM500.542 90.42V93.02H503.262V90.42H500.542ZM491.482 77.28H493.122V79.84H498.222V77.28H499.842V85.1H491.482V77.28ZM493.122 81.14V83.78H498.222V81.14H493.122ZM503.102 76.48H504.762V85.86H503.102V76.48ZM504.042 80.3H507.422V81.68H504.042V80.3ZM492.282 87.02H497.942V91.12H493.922V93.66H492.322V89.94H496.322V88.26H492.282V87.02ZM492.322 93.06H493.262C495.522 93.06 496.742 93.04 498.342 92.72L498.502 94C496.822 94.3 495.562 94.32 493.262 94.32H492.322V93.06ZM509.121 85.98H525.461V87.34H509.121V85.98ZM511.241 92.8H523.661V94.16H511.241V92.8ZM511.241 88.92H512.901V93.22H511.241V88.92ZM517.301 77.08C521.161 77.08 523.661 78.44 523.661 80.7C523.661 82.94 521.161 84.3 517.301 84.3C513.421 84.3 510.941 82.94 510.941 80.7C510.941 78.44 513.421 77.08 517.301 77.08ZM517.301 78.44C514.461 78.44 512.641 79.28 512.641 80.7C512.641 82.12 514.461 82.96 517.301 82.96C520.141 82.96 521.961 82.12 521.961 80.7C521.961 79.28 520.141 78.44 517.301 78.44ZM29.38 101.42H30.76V103.26C30.76 106.74 28.8 109.62 25.78 110.8L24.9 109.46C27.62 108.46 29.38 106.02 29.38 103.26V101.42ZM29.68 101.42H31.04V103.38C31.04 105.82 32.84 108.08 35.44 108.98L34.56 110.28C31.66 109.2 29.68 106.52 29.68 103.38V101.42ZM37.36 100.48H39.02V111.44H37.36V100.48ZM38.56 105.14H41.7V106.54H38.56V105.14ZM33.26 111.94C36.96 111.94 39.2 113.16 39.2 115.24C39.2 117.32 36.96 118.52 33.26 118.52C29.56 118.52 27.32 117.32 27.32 115.24C27.32 113.16 29.56 111.94 33.26 111.94ZM33.26 113.26C30.58 113.26 28.94 113.98 28.94 115.24C28.94 116.5 30.58 117.22 33.26 117.22C35.94 117.22 37.58 116.5 37.58 115.24C37.58 113.98 35.94 113.26 33.26 113.26ZM44.0984 112.7H45.2784C48.1384 112.7 49.8384 112.64 51.8584 112.24L52.0384 113.62C49.9384 114.04 48.1784 114.1 45.2784 114.1H44.0984V112.7ZM44.0984 102.54H51.2184V103.9H45.6784V113.22H44.0984V102.54ZM45.1984 107.32H50.9384V108.66H45.1984V107.32ZM57.1584 100.48H58.7584V118.56H57.1584V100.48ZM54.2984 107.72H57.7584V109.1H54.2984V107.72ZM53.1784 100.86H54.7584V117.66H53.1784V100.86ZM69.1169 107.5H72.5369V108.88H69.1169V107.5ZM75.5569 100.48H77.1569V118.56H75.5569V100.48ZM71.9769 100.86H73.5569V117.66H71.9769V100.86ZM65.8569 101.98C68.1969 101.98 69.7169 104.4 69.7169 108.28C69.7169 112.16 68.1969 114.58 65.8569 114.58C63.5169 114.58 62.0169 112.16 62.0169 108.28C62.0169 104.4 63.5169 101.98 65.8569 101.98ZM65.8569 103.52C64.4369 103.52 63.5369 105.36 63.5369 108.28C63.5369 111.2 64.4369 113.04 65.8569 113.04C67.2969 113.04 68.1969 111.2 68.1969 108.28C68.1969 105.36 67.2969 103.52 65.8569 103.52ZM89.9883 111.6H91.2683V112.58C91.2683 114.94 89.7883 117.32 87.1883 118.32L86.3483 117.08C88.6283 116.26 89.9883 114.32 89.9883 112.58V111.6ZM90.3483 111.6H91.5883V112.58C91.5883 114.4 92.6683 116.34 94.8283 117.22L94.1283 118.48C91.5283 117.46 90.3483 114.98 90.3483 112.58V111.6ZM96.6683 111.6H97.9083V112.58C97.9083 114.7 96.7083 117.38 94.1283 118.48L93.4283 117.22C95.5683 116.24 96.6683 114.14 96.6683 112.58V111.6ZM97.0083 111.6H98.2883V112.58C98.2883 114.44 99.6283 116.3 101.928 117.08L101.088 118.32C98.4483 117.36 97.0083 115.08 97.0083 112.58V111.6ZM98.6283 100.5H100.308V110.82H98.6283V100.5ZM90.6083 101.54C93.3483 101.54 95.3083 103.26 95.3083 105.76C95.3083 108.26 93.3483 109.96 90.6083 109.96C87.8683 109.96 85.8883 108.26 85.8883 105.76C85.8883 103.26 87.8683 101.54 90.6083 101.54ZM90.6083 102.92C88.8083 102.92 87.5083 104.08 87.5083 105.76C87.5083 107.44 88.8083 108.58 90.6083 108.58C92.4083 108.58 93.7083 107.44 93.7083 105.76C93.7083 104.08 92.4083 102.92 90.6083 102.92ZM116.107 100.46H117.787V118.58H116.107V100.46ZM117.387 107.6H120.747V109H117.387V107.6ZM104.647 112.68H106.067C109.407 112.68 111.747 112.56 114.447 112.06L114.627 113.46C111.847 113.98 109.467 114.08 106.067 114.08H104.647V112.68ZM104.647 102.22H113.047V103.58H106.287V113.3H104.647V102.22ZM134.878 101.12H136.338V102.12C136.338 105.58 132.818 108.06 129.058 108.7L128.398 107.36C131.698 106.86 134.878 104.7 134.878 102.12V101.12ZM135.178 101.12H136.618V102.12C136.618 104.64 139.838 106.86 143.098 107.36L142.438 108.7C138.718 108.06 135.178 105.54 135.178 102.12V101.12ZM134.878 111.68H136.518V118.56H134.878V111.68ZM127.578 110.66H143.918V112.04H127.578V110.66ZM159.097 100.46H160.757V118.58H159.097V100.46ZM146.997 102H148.637V106.78H153.857V102H155.517V114.22H146.997V102ZM148.637 108.1V112.86H153.857V108.1H148.637ZM170.708 108.84H172.168C176.068 108.84 178.208 108.76 180.748 108.32L180.928 109.64C178.308 110.1 176.108 110.16 172.168 110.16H170.708V108.84ZM170.708 101.58H179.308V102.92H172.348V109.52H170.708V101.58ZM171.808 105.14H178.808V106.48H171.808V105.14ZM182.808 100.5H184.488V111.26H182.808V100.5ZM172.808 112.16H184.488V118.32H172.808V112.16ZM182.848 113.5H174.428V116.98H182.848V113.5ZM201.186 100.46H202.846V118.58H201.186V100.46ZM193.306 101.86C195.986 101.86 197.906 104.32 197.906 108.16C197.906 112.02 195.986 114.48 193.306 114.48C190.646 114.48 188.726 112.02 188.726 108.16C188.726 104.32 190.646 101.86 193.306 101.86ZM193.306 103.36C191.546 103.36 190.306 105.24 190.306 108.16C190.306 111.1 191.546 113.02 193.306 113.02C195.086 113.02 196.306 111.1 196.306 108.16C196.306 105.24 195.086 103.36 193.306 103.36ZM213.518 102.4H225.158V103.74H213.518V102.4ZM211.758 114.54H228.098V115.92H211.758V114.54ZM224.278 102.4H225.898V104.2C225.898 106.52 225.898 109.1 225.218 113L223.558 112.84C224.278 109.14 224.278 106.44 224.278 104.2V102.4ZM236.949 101.02H250.229V102.32H236.949V101.02ZM237.029 105.76H250.149V107.04H237.029V105.76ZM239.689 101.52H241.349V106.6H239.689V101.52ZM245.849 101.52H247.489V106.6H245.849V101.52ZM235.429 108.54H251.769V109.88H235.429V108.54ZM237.409 111.46H249.689V115.42H239.089V117.6H237.449V114.24H248.049V112.7H237.409V111.46ZM237.449 117.1H250.229V118.36H237.449V117.1ZM266.088 100.46H267.748V118.58H266.088V100.46ZM267.348 107.66H270.708V109.06H267.348V107.66ZM254.568 112.84H256.008C259.408 112.84 261.768 112.72 264.508 112.2L264.688 113.58C261.868 114.08 259.468 114.22 256.008 114.22H254.568V112.84ZM254.528 102.16H262.708V108.64H256.208V113.4H254.568V107.28H261.068V103.52H254.528V102.16ZM285.366 100.46H287.026V118.58H285.366V100.46ZM277.486 101.86C280.166 101.86 282.086 104.32 282.086 108.16C282.086 112.02 280.166 114.48 277.486 114.48C274.826 114.48 272.906 112.02 272.906 108.16C272.906 104.32 274.826 101.86 277.486 101.86ZM277.486 103.36C275.726 103.36 274.486 105.24 274.486 108.16C274.486 111.1 275.726 113.02 277.486 113.02C279.266 113.02 280.486 111.1 280.486 108.16C280.486 105.24 279.266 103.36 277.486 103.36ZM298.745 111.88C302.585 111.88 305.045 113.14 305.045 115.22C305.045 117.28 302.585 118.52 298.745 118.52C294.885 118.52 292.445 117.28 292.445 115.22C292.445 113.14 294.885 111.88 298.745 111.88ZM298.745 113.18C295.905 113.18 294.085 113.96 294.085 115.22C294.085 116.46 295.905 117.24 298.745 117.24C301.585 117.24 303.385 116.46 303.385 115.22C303.385 113.96 301.585 113.18 298.745 113.18ZM292.585 101.38H304.225V102.74H292.585V101.38ZM290.645 108.9H306.965V110.24H290.645V108.9ZM297.345 105.42H298.985V109.28H297.345V105.42ZM303.265 101.38H304.885V102.92C304.885 104.38 304.885 105.84 304.405 107.72L302.765 107.52C303.265 105.66 303.265 104.34 303.265 102.92V101.38ZM317.203 100.78C321.183 100.78 323.563 101.9 323.563 103.92C323.563 105.94 321.183 107.06 317.203 107.06C313.203 107.06 310.843 105.94 310.843 103.92C310.843 101.9 313.203 100.78 317.203 100.78ZM317.203 102.04C314.243 102.04 312.543 102.72 312.543 103.92C312.543 105.12 314.243 105.8 317.203 105.8C320.143 105.8 321.843 105.12 321.843 103.92C321.843 102.72 320.143 102.04 317.203 102.04ZM309.023 108.26H325.363V109.6H309.023V108.26ZM311.003 111.14H323.283V115.22H312.683V117.42H311.043V114.02H321.643V112.42H311.003V111.14ZM311.043 117.06H323.823V118.36H311.043V117.06ZM337.154 102.16H338.514V103.62C338.514 106.86 336.494 109.54 333.434 110.6L332.614 109.28C335.334 108.36 337.154 106.14 337.154 103.62V102.16ZM337.454 102.16H338.814V103.6C338.814 105.92 340.554 108.04 343.214 108.9L342.434 110.2C339.414 109.22 337.454 106.64 337.454 103.6V102.16ZM333.114 101.66H342.794V103.02H333.114V101.66ZM345.094 100.48H346.754V110.4H345.094V100.48ZM346.294 104.64H349.434V106.04H346.294V104.64ZM335.354 111.26H336.994V113.42H345.114V111.26H346.754V118.32H335.354V111.26ZM336.994 114.74V116.98H345.114V114.74H336.994ZM353.333 105.9H365.613V107.26H353.333V105.9ZM351.113 109.68H367.513V111.04H351.113V109.68ZM353.333 101.14H354.973V106.58H353.333V101.14ZM353.213 116.76H365.713V118.12H353.213V116.76ZM353.213 112.84H354.853V117.12H353.213V112.84ZM382.144 100.94H383.564V101.82C383.564 105.1 380.104 107.52 376.444 108.16L375.784 106.84C378.984 106.36 382.144 104.24 382.144 101.82V100.94ZM382.404 100.94H383.824V101.82C383.824 104.18 387.024 106.34 390.164 106.82L389.544 108.12C385.884 107.5 382.404 105.02 382.404 101.82V100.94ZM374.804 109.68H391.184V111.04H374.804V109.68ZM382.284 110.52H383.944V114.68H382.284V110.52ZM376.884 116.8H389.364V118.16H376.884V116.8ZM376.884 112.94H378.524V117.24H376.884V112.94ZM405.583 100.48H407.243V113.7H405.583V100.48ZM406.723 105.96H409.923V107.34H406.723V105.96ZM400.643 101.88H402.403C402.403 106.56 399.123 109.98 393.943 111.64L393.223 110.28C397.783 108.88 400.643 106.08 400.643 102.6V101.88ZM393.963 101.88H401.483V103.24H393.963V101.88ZM395.963 116.8H408.043V118.16H395.963V116.8ZM395.963 112.36H397.623V117.34H395.963V112.36ZM414.811 115.011L414.705 115.786C414.634 116.354 414.513 116.946 414.343 117.561C414.177 118.181 414.004 118.757 413.824 119.287C413.649 119.817 413.505 120.239 413.391 120.551H411.885C411.947 120.258 412.032 119.86 412.141 119.358C412.25 118.861 412.356 118.304 412.461 117.689C412.565 117.073 412.643 116.446 412.695 115.807L412.766 115.011H414.811ZM434.661 100.46H436.341V118.58H434.661V100.46ZM435.941 107.6H439.301V109H435.941V107.6ZM423.201 112.68H424.621C427.961 112.68 430.301 112.56 433.001 112.06L433.181 113.46C430.401 113.98 428.021 114.08 424.621 114.08H423.201V112.68ZM423.201 102.22H431.601V103.58H424.841V113.3H423.201V102.22ZM449 100.88C452.9 100.88 455.36 102.16 455.36 104.3C455.36 106.44 452.9 107.7 449 107.7C445.08 107.7 442.64 106.44 442.64 104.3C442.64 102.16 445.08 100.88 449 100.88ZM449 102.2C446.12 102.2 444.34 102.96 444.34 104.3C444.34 105.62 446.12 106.4 449 106.4C451.86 106.4 453.66 105.62 453.66 104.3C453.66 102.96 451.86 102.2 449 102.2ZM442.82 112.36H455.16V118.32H442.82V112.36ZM453.54 113.7H444.46V116.98H453.54V113.7ZM440.82 109.26H457.16V110.6H440.82V109.26ZM465.171 102.26H466.751V106.66H470.551V102.26H472.091V114.02H465.171V102.26ZM466.751 108V112.66H470.551V108H466.751ZM478.291 100.48H479.891V118.56H478.291V100.48ZM471.811 107.34H475.291V108.72H471.811V107.34ZM474.711 100.86H476.291V117.66H474.711V100.86ZM496.05 100.46H497.71V118.58H496.05V100.46ZM488.17 101.86C490.85 101.86 492.77 104.32 492.77 108.16C492.77 112.02 490.85 114.48 488.17 114.48C485.51 114.48 483.59 112.02 483.59 108.16C483.59 104.32 485.51 101.86 488.17 101.86ZM488.17 103.36C486.41 103.36 485.17 105.24 485.17 108.16C485.17 111.1 486.41 113.02 488.17 113.02C489.95 113.02 491.17 111.1 491.17 108.16C491.17 105.24 489.95 103.36 488.17 103.36ZM508.568 101.72H510.008V103.1C510.008 107.04 506.348 110.1 502.728 110.92L501.988 109.54C505.168 108.94 508.568 106.18 508.568 103.1V101.72ZM508.868 101.72H510.308V103.1C510.308 106.2 513.728 108.94 516.888 109.54L516.148 110.92C512.548 110.1 508.868 107.06 508.868 103.1V101.72ZM501.328 114.76H517.708V116.12H501.328V114.76ZM519.707 108.88H536.107V110.14H519.707V108.88ZM521.647 111.6H534.047V115.46H523.347V117.58H521.707V114.32H532.427V112.78H521.647V111.6ZM521.707 117.14H534.627V118.34H521.707V117.14ZM521.787 101H533.987V104.76H523.467V106.72H521.827V103.64H532.367V102.18H521.787V101ZM521.827 106.32H534.327V107.52H521.827V106.32ZM38.52 127.6H41.66V128.98H38.52V127.6ZM38.52 131.46H41.66V132.84H38.52V131.46ZM37.36 124.48H39.02V136.12H37.36V124.48ZM33.34 136.28C37 136.28 39.22 137.42 39.22 139.4C39.22 141.38 37 142.52 33.34 142.52C29.7 142.52 27.46 141.38 27.46 139.4C27.46 137.42 29.7 136.28 33.34 136.28ZM33.34 137.56C30.7 137.56 29.1 138.24 29.1 139.4C29.1 140.58 30.7 141.24 33.34 141.24C36 141.24 37.6 140.58 37.6 139.4C37.6 138.24 36 137.56 33.34 137.56ZM25.04 126.52H35.72V127.84H25.04V126.52ZM30.38 128.76C32.96 128.76 34.7 130 34.7 131.94C34.7 133.9 32.96 135.14 30.38 135.14C27.78 135.14 26.04 133.9 26.04 131.94C26.04 130 27.78 128.76 30.38 128.76ZM30.38 130.02C28.72 130.02 27.62 130.78 27.62 131.94C27.62 133.12 28.72 133.88 30.38 133.88C32 133.88 33.12 133.12 33.12 131.94C33.12 130.78 32 130.02 30.38 130.02ZM29.54 124.32H31.2V127.26H29.54V124.32ZM43.3584 127.56H52.3184V128.92H43.3584V127.56ZM47.8384 130.12C50.0984 130.12 51.7384 131.82 51.7384 134.26C51.7384 136.68 50.0984 138.38 47.8384 138.38C45.5984 138.38 43.9584 136.68 43.9584 134.26C43.9584 131.82 45.5984 130.12 47.8384 130.12ZM47.8384 131.54C46.4584 131.54 45.4584 132.66 45.4584 134.26C45.4584 135.86 46.4584 136.98 47.8384 136.98C49.2384 136.98 50.2584 135.86 50.2584 134.26C50.2584 132.66 49.2384 131.54 47.8384 131.54ZM57.0984 124.48H58.6984V142.56H57.0984V124.48ZM54.2184 132.08H57.6384V133.46H54.2184V132.08ZM53.2384 124.88H54.7984V141.68H53.2384V124.88ZM47.0384 125H48.6784V128.4H47.0384V125ZM67.8898 131.56H69.2898C72.9298 131.56 75.0698 131.44 77.5498 130.94L77.7498 132.28C75.1898 132.8 72.9898 132.92 69.2898 132.92H67.8898V131.56ZM67.8898 125.52H75.8698V126.86H69.5298V132.36H67.8898V125.52ZM79.4498 124.48H81.1098V133.58H79.4498V124.48ZM80.6498 128.28H83.7898V129.66H80.6498V128.28ZM69.6298 134.5H81.1098V138.96H71.3098V141.76H69.6698V137.68H79.4898V135.82H69.6298V134.5ZM69.6698 140.98H81.7698V142.32H69.6698V140.98ZM98.6883 124.46H100.348V142.58H98.6883V124.46ZM95.1283 128.6H99.1283V129.96H95.1283V128.6ZM86.1483 136.98H87.4883C90.2883 136.98 92.5883 136.9 95.3483 136.46L95.5083 137.84C92.6683 138.28 90.3483 138.38 87.4883 138.38H86.1483V136.98ZM86.1083 126.1H94.0083V132.58H87.7883V137.3H86.1483V131.22H92.3683V127.48H86.1083V126.1ZM95.0083 133.54H99.0083V134.9H95.0083V133.54ZM116.107 124.46H117.787V142.56H116.107V124.46ZM117.327 131.8H120.667V133.18H117.327V131.8ZM111.487 126.42H113.107C113.107 131.56 110.747 136.2 104.907 139.14L103.987 137.86C108.987 135.32 111.487 131.46 111.487 126.68V126.42ZM104.827 126.42H112.347V127.78H104.827V126.42ZM124.485 129.9H136.765V131.26H124.485V129.9ZM122.265 133.68H138.665V135.04H122.265V133.68ZM124.485 125.14H126.125V130.58H124.485V125.14ZM124.365 140.76H136.865V142.12H124.365V140.76ZM124.365 136.84H126.005V141.12H124.365V136.84ZM145.977 133.38H162.317V134.74H145.977V133.38ZM153.317 130.48H154.957V133.94H153.317V130.48ZM148.037 129.96H160.417V131.32H148.037V129.96ZM148.037 125.3H160.277V126.64H149.677V130.76H148.037V125.3ZM154.117 136.04C157.977 136.04 160.317 137.22 160.317 139.28C160.317 141.38 157.977 142.54 154.117 142.54C150.257 142.54 147.917 141.38 147.917 139.28C147.917 137.22 150.257 136.04 154.117 136.04ZM154.117 137.32C151.297 137.32 149.597 138.04 149.597 139.28C149.597 140.54 151.297 141.24 154.117 141.24C156.957 141.24 158.637 140.54 158.637 139.28C158.637 138.04 156.957 137.32 154.117 137.32ZM168.815 126.34H170.175V127.8C170.175 131.12 168.175 133.88 165.155 134.96L164.275 133.66C167.015 132.7 168.815 130.38 168.815 127.8V126.34ZM169.115 126.34H170.475V127.78C170.475 130.18 172.215 132.4 174.875 133.3L174.015 134.6C171.035 133.56 169.115 130.9 169.115 127.78V126.34ZM164.795 125.74H174.455V127.1H164.795V125.74ZM176.735 124.48H178.395V135.36H176.735V124.48ZM177.935 129.24H181.075V130.62H177.935V129.24ZM166.655 136.32H178.395V142.56H176.735V137.7H166.655V136.32ZM190.933 124.78C194.913 124.78 197.293 125.9 197.293 127.92C197.293 129.94 194.913 131.06 190.933 131.06C186.933 131.06 184.573 129.94 184.573 127.92C184.573 125.9 186.933 124.78 190.933 124.78ZM190.933 126.04C187.973 126.04 186.273 126.72 186.273 127.92C186.273 129.12 187.973 129.8 190.933 129.8C193.873 129.8 195.573 129.12 195.573 127.92C195.573 126.72 193.873 126.04 190.933 126.04ZM182.753 132.26H199.093V133.6H182.753V132.26ZM184.733 135.14H197.013V139.22H186.413V141.42H184.773V138.02H195.373V136.42H184.733V135.14ZM184.773 141.06H197.553V142.36H184.773V141.06ZM218.825 124.48H220.485V133.68H218.825V124.48ZM219.765 128.36H223.145V129.74H219.765V128.36ZM207.205 125.5H215.505V132.74H207.205V125.5ZM213.885 126.82H208.825V131.42H213.885V126.82ZM209.005 134.54H220.485V138.98H210.685V141.68H209.045V137.72H218.865V135.86H209.005V134.54ZM209.045 140.98H221.145V142.32H209.045V140.98ZM237.223 124.48H238.883V134.98H237.223V124.48ZM238.163 129.08H241.563V130.48H238.163V129.08ZM227.523 135.78H229.143V137.7H237.243V135.78H238.883V142.32H227.523V135.78ZM229.143 138.98V140.98H237.243V138.98H229.143ZM224.903 126.32H235.583V127.68H224.903V126.32ZM230.243 128.5C232.823 128.5 234.563 129.76 234.563 131.68C234.563 133.6 232.823 134.86 230.243 134.86C227.643 134.86 225.903 133.6 225.903 131.68C225.903 129.76 227.643 128.5 230.243 128.5ZM230.243 129.76C228.583 129.76 227.483 130.52 227.483 131.68C227.483 132.84 228.583 133.6 230.243 133.6C231.863 133.6 232.983 132.84 232.983 131.68C232.983 130.52 231.863 129.76 230.243 129.76ZM229.403 124.3H231.063V127.06H229.403V124.3ZM256.402 124.48H258.062V142.56H256.402V124.48ZM244.402 126.24H246.042V137.44H244.402V126.24ZM244.402 136.46H245.882C248.622 136.46 251.482 136.26 254.542 135.62L254.742 137.04C251.602 137.68 248.742 137.9 245.882 137.9H244.402V136.46ZM273.88 124.46H275.56V142.58H273.88V124.46ZM275.16 131.6H278.52V133H275.16V131.6ZM262.42 136.68H263.84C267.18 136.68 269.52 136.56 272.22 136.06L272.4 137.46C269.62 137.98 267.24 138.08 263.84 138.08H262.42V136.68ZM262.42 126.22H270.82V127.58H264.06V137.3H262.42V126.22ZM281.885 141.135C281.497 141.135 281.163 140.998 280.884 140.723C280.605 140.444 280.465 140.107 280.465 139.714C280.465 139.326 280.605 138.995 280.884 138.72C281.163 138.441 281.497 138.301 281.885 138.301C282.274 138.301 282.607 138.441 282.887 138.72C283.166 138.995 283.306 139.326 283.306 139.714C283.306 139.975 283.239 140.214 283.107 140.432C282.979 140.645 282.809 140.815 282.596 140.943C282.382 141.071 282.146 141.135 281.885 141.135ZM303.341 124.24H306.001V142.82H303.341V124.24ZM291.581 136.34H293.221C296.501 136.34 299.121 136.22 302.061 135.72L302.321 137.86C299.321 138.4 296.601 138.5 293.221 138.5H291.581V136.34ZM291.561 125.82H300.301V132.98H294.281V137.14H291.581V130.88H297.581V127.94H291.561V125.82ZM321.88 124.24H324.52V142.82H321.88V124.24ZM318.7 130.76H322.18V132.92H318.7V130.76ZM309.82 136.48H311.3C314.36 136.48 316.64 136.44 319.26 136.02L319.5 138.14C316.82 138.56 314.42 138.64 311.3 138.64H309.82V136.48ZM309.82 125.8H318.4V127.96H312.46V137.16H309.82V125.8ZM311.86 130.96H317.76V133.04H311.86V130.96ZM340.098 124.26H342.778V142.78H340.098V124.26ZM331.938 129.06H334.038V130.02C334.038 133.94 332.298 137.88 328.878 139.36L327.458 137.32C330.498 135.96 331.938 132.82 331.938 130.02V129.06ZM332.518 129.06H334.598V130.02C334.598 132.68 336.058 135.72 339.118 137.02L337.698 139.06C334.278 137.64 332.518 133.82 332.518 130.02V129.06ZM328.078 127.28H338.378V129.38H328.078V127.28ZM331.938 124.68H334.598V128.36H331.938V124.68ZM346.852 135.169C346.852 133.408 347.086 131.786 347.555 130.304C348.028 128.822 348.75 127.449 349.721 126.185H352.612C352.242 126.653 351.899 127.226 351.582 127.903C351.264 128.576 350.987 129.314 350.751 130.119C350.514 130.924 350.329 131.758 350.197 132.619C350.064 133.476 349.998 134.326 349.998 135.169C349.998 136.291 350.112 137.425 350.339 138.571C350.571 139.712 350.883 140.773 351.276 141.753C351.674 142.733 352.119 143.536 352.612 144.161H349.721C348.75 142.896 348.028 141.523 347.555 140.041C347.086 138.559 346.852 136.935 346.852 135.169ZM354.368 141V130.091H357.301V131.994H357.414C357.613 131.317 357.947 130.806 358.416 130.46C358.885 130.11 359.424 129.935 360.035 129.935C360.187 129.935 360.35 129.944 360.525 129.963C360.7 129.982 360.854 130.008 360.987 130.041V132.726C360.845 132.683 360.648 132.645 360.397 132.612C360.146 132.579 359.917 132.562 359.708 132.562C359.263 132.562 358.866 132.66 358.515 132.854C358.17 133.043 357.895 133.308 357.691 133.649C357.493 133.99 357.393 134.383 357.393 134.828V141H354.368ZM367.015 141.213C365.893 141.213 364.927 140.986 364.117 140.531C363.312 140.072 362.692 139.423 362.256 138.585C361.821 137.742 361.603 136.746 361.603 135.595C361.603 134.473 361.821 133.488 362.256 132.641C362.692 131.793 363.305 131.133 364.096 130.659C364.891 130.186 365.824 129.949 366.894 129.949C367.614 129.949 368.284 130.065 368.904 130.297C369.529 130.524 370.074 130.867 370.538 131.327C371.006 131.786 371.371 132.364 371.631 133.06C371.892 133.751 372.022 134.561 372.022 135.489V136.32H362.81V134.445H369.174C369.174 134.009 369.079 133.623 368.89 133.287C368.701 132.951 368.438 132.688 368.102 132.499C367.77 132.304 367.384 132.207 366.944 132.207C366.485 132.207 366.077 132.314 365.722 132.527C365.372 132.735 365.097 133.017 364.898 133.372C364.7 133.723 364.598 134.113 364.593 134.544V136.327C364.593 136.866 364.692 137.333 364.891 137.726C365.095 138.119 365.381 138.422 365.751 138.635C366.12 138.848 366.558 138.955 367.065 138.955C367.401 138.955 367.709 138.907 367.988 138.812C368.267 138.718 368.506 138.576 368.705 138.386C368.904 138.197 369.056 137.965 369.16 137.69L371.958 137.875C371.816 138.547 371.525 139.134 371.085 139.636C370.649 140.134 370.085 140.522 369.394 140.801C368.708 141.076 367.915 141.213 367.015 141.213ZM379.799 130.091V132.364H373.229V130.091H379.799ZM374.721 127.477H377.746V137.648C377.746 137.927 377.789 138.145 377.874 138.301C377.96 138.453 378.078 138.559 378.229 138.621C378.386 138.682 378.566 138.713 378.769 138.713C378.911 138.713 379.053 138.701 379.195 138.678C379.337 138.649 379.446 138.628 379.522 138.614L379.998 140.865C379.846 140.912 379.633 140.967 379.359 141.028C379.084 141.095 378.75 141.135 378.357 141.149C377.628 141.178 376.989 141.08 376.44 140.858C375.895 140.635 375.471 140.29 375.168 139.821C374.865 139.352 374.716 138.76 374.721 138.045V127.477ZM386.582 141.213C385.478 141.213 384.524 140.979 383.719 140.51C382.919 140.036 382.301 139.378 381.866 138.536C381.43 137.688 381.212 136.705 381.212 135.588C381.212 134.461 381.43 133.476 381.866 132.634C382.301 131.786 382.919 131.128 383.719 130.659C384.524 130.186 385.478 129.949 386.582 129.949C387.685 129.949 388.637 130.186 389.437 130.659C390.242 131.128 390.862 131.786 391.298 132.634C391.733 133.476 391.951 134.461 391.951 135.588C391.951 136.705 391.733 137.688 391.298 138.536C390.862 139.378 390.242 140.036 389.437 140.51C388.637 140.979 387.685 141.213 386.582 141.213ZM386.596 138.869C387.098 138.869 387.517 138.727 387.853 138.443C388.189 138.154 388.442 137.761 388.613 137.264C388.788 136.767 388.876 136.201 388.876 135.567C388.876 134.932 388.788 134.366 388.613 133.869C388.442 133.372 388.189 132.979 387.853 132.69C387.517 132.402 387.098 132.257 386.596 132.257C386.089 132.257 385.663 132.402 385.317 132.69C384.977 132.979 384.719 133.372 384.543 133.869C384.373 134.366 384.288 134.932 384.288 135.567C384.288 136.201 384.373 136.767 384.543 137.264C384.719 137.761 384.977 138.154 385.317 138.443C385.663 138.727 386.089 138.869 386.596 138.869ZM400.914 136.355V130.091H403.94V141H401.035V139.018H400.921C400.675 139.658 400.265 140.171 399.692 140.56C399.124 140.948 398.431 141.142 397.612 141.142C396.882 141.142 396.241 140.976 395.687 140.645C395.133 140.313 394.7 139.842 394.387 139.232C394.079 138.621 393.923 137.889 393.918 137.037V130.091H396.944V136.497C396.949 137.141 397.121 137.65 397.462 138.024C397.803 138.398 398.26 138.585 398.833 138.585C399.198 138.585 399.539 138.502 399.856 138.337C400.173 138.166 400.429 137.915 400.623 137.584C400.822 137.252 400.919 136.843 400.914 136.355ZM411.289 141.213C410.171 141.213 409.21 140.976 408.405 140.503C407.605 140.025 406.989 139.362 406.559 138.514C406.132 137.667 405.919 136.691 405.919 135.588C405.919 134.471 406.135 133.491 406.566 132.648C407.001 131.8 407.619 131.14 408.419 130.666C409.22 130.188 410.171 129.949 411.275 129.949C412.226 129.949 413.06 130.122 413.775 130.467C414.489 130.813 415.055 131.298 415.472 131.923C415.889 132.548 416.118 133.282 416.161 134.125H413.306C413.225 133.58 413.012 133.143 412.667 132.811C412.326 132.475 411.878 132.307 411.324 132.307C410.855 132.307 410.446 132.435 410.096 132.69C409.75 132.941 409.48 133.308 409.286 133.791C409.092 134.274 408.995 134.859 408.995 135.545C408.995 136.241 409.089 136.833 409.279 137.321C409.473 137.809 409.745 138.18 410.096 138.436C410.446 138.692 410.855 138.82 411.324 138.82C411.67 138.82 411.98 138.749 412.255 138.607C412.534 138.464 412.764 138.259 412.944 137.989C413.128 137.714 413.249 137.385 413.306 137.001H416.161C416.114 137.835 415.886 138.569 415.479 139.203C415.077 139.833 414.52 140.325 413.81 140.68C413.1 141.036 412.259 141.213 411.289 141.213ZM421.124 134.693V141H418.098V126.455H421.038V132.016H421.166C421.412 131.372 421.81 130.867 422.359 130.503C422.909 130.134 423.598 129.949 424.426 129.949C425.184 129.949 425.844 130.115 426.408 130.446C426.976 130.773 427.416 131.244 427.729 131.859C428.046 132.47 428.202 133.202 428.197 134.054V141H425.172V134.594C425.177 133.921 425.006 133.398 424.661 133.024C424.32 132.65 423.841 132.463 423.226 132.463C422.814 132.463 422.449 132.551 422.132 132.726C421.82 132.901 421.573 133.157 421.393 133.493C421.218 133.824 421.128 134.224 421.124 134.693ZM435.678 135.169C435.678 136.935 435.441 138.559 434.968 140.041C434.499 141.523 433.779 142.896 432.809 144.161H429.918C430.287 143.692 430.631 143.119 430.948 142.442C431.265 141.765 431.542 141.026 431.779 140.226C432.016 139.421 432.2 138.588 432.333 137.726C432.465 136.864 432.532 136.012 432.532 135.169C432.532 134.047 432.416 132.915 432.184 131.774C431.956 130.628 431.644 129.568 431.246 128.592C430.853 127.612 430.41 126.81 429.918 126.185H432.809C433.779 127.449 434.499 128.822 434.968 130.304C435.441 131.786 435.678 133.408 435.678 135.169ZM452.448 132.84H458.948V134.2H452.448V132.84ZM443.848 138.88H460.228V140.26H443.848V138.88ZM451.168 135.08H452.808V139.54H451.168V135.08ZM452.448 126.16H458.768V127.52H454.108V133.56H452.448V126.16ZM445.248 126.18H451.368V127.54H446.908V133.48H445.248V126.18ZM445.248 132.8H446.248C448.008 132.8 449.648 132.74 451.528 132.3L451.688 133.7C449.728 134.12 448.068 134.2 446.248 134.2H445.248V132.8ZM464.446 129.9H476.726V131.26H464.446V129.9ZM462.226 133.68H478.626V135.04H462.226V133.68ZM464.446 125.14H466.086V130.58H464.446V125.14ZM464.326 140.76H476.826V142.12H464.326V140.76ZM464.326 136.84H465.966V141.12H464.326V136.84ZM498.638 124.24H501.278V142.82H498.638V124.24ZM495.458 130.76H498.938V132.92H495.458V130.76ZM486.578 136.48H488.058C491.118 136.48 493.398 136.44 496.018 136.02L496.258 138.14C493.578 138.56 491.178 138.64 488.058 138.64H486.578V136.48ZM486.578 125.8H495.158V127.96H489.218V137.16H486.578V125.8ZM488.618 130.96H494.518V133.04H488.618V130.96ZM516.856 124.26H519.536V142.78H516.856V124.26ZM508.696 129.06H510.796V130.02C510.796 133.94 509.056 137.88 505.636 139.36L504.216 137.32C507.256 135.96 508.696 132.82 508.696 130.02V129.06ZM509.276 129.06H511.356V130.02C511.356 132.68 512.816 135.72 515.876 137.02L514.456 139.06C511.036 137.64 509.276 133.82 509.276 130.02V129.06ZM504.836 127.28H515.136V129.38H504.836V127.28ZM508.696 124.68H511.356V128.36H508.696V124.68ZM531.894 128.34H536.534V130.48H531.894V128.34ZM527.654 125.02C530.434 125.02 532.534 126.88 532.534 129.44C532.534 132.02 530.434 133.86 527.654 133.86C524.854 133.86 522.754 132.02 522.754 129.44C522.754 126.88 524.854 125.02 527.654 125.02ZM527.654 127.24C526.294 127.24 525.294 128.06 525.294 129.44C525.294 130.82 526.294 131.66 527.654 131.66C529.014 131.66 529.994 130.82 529.994 129.44C529.994 128.06 529.014 127.24 527.654 127.24ZM535.374 124.26H538.034V134.22H535.374V124.26ZM525.734 135.02H528.374V136.78H535.394V135.02H538.034V142.58H525.734V135.02ZM528.374 138.82V140.46H535.394V138.82H528.374ZM25.875 159.169C25.875 157.408 26.1094 155.786 26.5781 154.304C27.0516 152.822 27.7737 151.449 28.7443 150.185H31.6349C31.2656 150.653 30.9223 151.226 30.6051 151.903C30.2879 152.576 30.0109 153.314 29.7741 154.119C29.5374 154.924 29.3527 155.758 29.2202 156.619C29.0876 157.476 29.0213 158.326 29.0213 159.169C29.0213 160.291 29.1349 161.425 29.3622 162.571C29.5942 163.712 29.9067 164.773 30.2997 165.753C30.6974 166.733 31.1425 167.536 31.6349 168.161H28.7443C27.7737 166.896 27.0516 165.523 26.5781 164.041C26.1094 162.559 25.875 160.935 25.875 159.169ZM39.1935 154.091V156.364H32.6239V154.091H39.1935ZM34.1154 151.477H37.141V161.648C37.141 161.927 37.1836 162.145 37.2688 162.301C37.354 162.453 37.4724 162.559 37.6239 162.621C37.7802 162.682 37.9601 162.713 38.1637 162.713C38.3058 162.713 38.4478 162.701 38.5898 162.678C38.7319 162.649 38.8408 162.628 38.9165 162.614L39.3924 164.865C39.2409 164.912 39.0278 164.967 38.7532 165.028C38.4786 165.095 38.1448 165.135 37.7518 165.149C37.0226 165.178 36.3834 165.08 35.8342 164.858C35.2897 164.635 34.8659 164.29 34.5629 163.821C34.2598 163.352 34.1107 162.76 34.1154 162.045V151.477ZM45.9762 165.213C44.873 165.213 43.9189 164.979 43.114 164.51C42.3138 164.036 41.6959 163.378 41.2603 162.536C40.8247 161.688 40.6069 160.705 40.6069 159.588C40.6069 158.461 40.8247 157.476 41.2603 156.634C41.6959 155.786 42.3138 155.128 43.114 154.659C43.9189 154.186 44.873 153.949 45.9762 153.949C47.0794 153.949 48.0311 154.186 48.8313 154.659C49.6362 155.128 50.2565 155.786 50.6921 156.634C51.1277 157.476 51.3455 158.461 51.3455 159.588C51.3455 160.705 51.1277 161.688 50.6921 162.536C50.2565 163.378 49.6362 164.036 48.8313 164.51C48.0311 164.979 47.0794 165.213 45.9762 165.213ZM45.9904 162.869C46.4923 162.869 46.9113 162.727 47.2475 162.443C47.5837 162.154 47.837 161.761 48.0075 161.264C48.1826 160.767 48.2702 160.201 48.2702 159.567C48.2702 158.932 48.1826 158.366 48.0075 157.869C47.837 157.372 47.5837 156.979 47.2475 156.69C46.9113 156.402 46.4923 156.257 45.9904 156.257C45.4838 156.257 45.0576 156.402 44.712 156.69C44.3711 156.979 44.113 157.372 43.9379 157.869C43.7674 158.366 43.6822 158.932 43.6822 159.567C43.6822 160.201 43.7674 160.767 43.9379 161.264C44.113 161.761 44.3711 162.154 44.712 162.443C45.0576 162.727 45.4838 162.869 45.9904 162.869ZM60.3086 160.355V154.091H63.3342V165H60.4293V163.018H60.3157C60.0695 163.658 59.6599 164.171 59.087 164.56C58.5188 164.948 57.8252 165.142 57.006 165.142C56.2769 165.142 55.6353 164.976 55.0813 164.645C54.5273 164.313 54.0941 163.842 53.7816 163.232C53.4738 162.621 53.3176 161.889 53.3129 161.037V154.091H56.3384V160.497C56.3432 161.141 56.516 161.65 56.8569 162.024C57.1978 162.398 57.6547 162.585 58.2276 162.585C58.5922 162.585 58.9331 162.502 59.2504 162.337C59.5676 162.166 59.8233 161.915 60.0174 161.584C60.2163 161.252 60.3133 160.843 60.3086 160.355ZM70.6832 165.213C69.5658 165.213 68.6046 164.976 67.7997 164.503C66.9995 164.025 66.384 163.362 65.9531 162.514C65.527 161.667 65.3139 160.691 65.3139 159.588C65.3139 158.471 65.5294 157.491 65.9602 156.648C66.3958 155.8 67.0137 155.14 67.8139 154.666C68.6141 154.188 69.5658 153.949 70.669 153.949C71.6207 153.949 72.4541 154.122 73.169 154.467C73.884 154.813 74.4498 155.298 74.8665 155.923C75.2831 156.548 75.5128 157.282 75.5554 158.125H72.7003C72.6198 157.58 72.4067 157.143 72.0611 156.811C71.7202 156.475 71.2727 156.307 70.7188 156.307C70.25 156.307 69.8404 156.435 69.4901 156.69C69.1444 156.941 68.8745 157.308 68.6804 157.791C68.4863 158.274 68.3892 158.859 68.3892 159.545C68.3892 160.241 68.4839 160.833 68.6733 161.321C68.8674 161.809 69.1397 162.18 69.4901 162.436C69.8404 162.692 70.25 162.82 70.7188 162.82C71.0644 162.82 71.3745 162.749 71.6491 162.607C71.9285 162.464 72.1581 162.259 72.3381 161.989C72.5227 161.714 72.6435 161.385 72.7003 161.001H75.5554C75.508 161.835 75.2808 162.569 74.8736 163.203C74.4711 163.833 73.9148 164.325 73.2045 164.68C72.4943 165.036 71.6539 165.213 70.6832 165.213ZM80.5181 158.693V165H77.4925V150.455H80.4329V156.016H80.5607C80.8069 155.372 81.2047 154.867 81.7539 154.503C82.3031 154.134 82.9921 153.949 83.8207 153.949C84.5782 153.949 85.2388 154.115 85.8022 154.446C86.3704 154.773 86.8107 155.244 87.1232 155.859C87.4405 156.47 87.5967 157.202 87.592 158.054V165H84.5664V158.594C84.5711 157.921 84.4007 157.398 84.055 157.024C83.7141 156.65 83.2359 156.463 82.6204 156.463C82.2085 156.463 81.8439 156.551 81.5266 156.726C81.2141 156.901 80.9679 157.157 80.788 157.493C80.6128 157.824 80.5228 158.224 80.5181 158.693ZM101.598 160.355V154.091H104.623V165H101.718V163.018H101.605C101.359 163.658 100.949 164.171 100.376 164.56C99.8079 164.948 99.1142 165.142 98.2951 165.142C97.5659 165.142 96.9244 164.976 96.3704 164.645C95.8164 164.313 95.3832 163.842 95.0707 163.232C94.7629 162.621 94.6067 161.889 94.6019 161.037V154.091H97.6275V160.497C97.6322 161.141 97.805 161.65 98.146 162.024C98.4869 162.398 98.9438 162.585 99.5167 162.585C99.8813 162.585 100.222 162.502 100.539 162.337C100.857 162.166 101.112 161.915 101.306 161.584C101.505 161.252 101.602 160.843 101.598 160.355ZM107.043 169.091V154.091H110.026V155.923H110.161C110.294 155.63 110.486 155.331 110.737 155.028C110.992 154.721 111.324 154.465 111.731 154.261C112.143 154.053 112.654 153.949 113.265 153.949C114.06 153.949 114.794 154.157 115.467 154.574C116.139 154.986 116.676 155.608 117.079 156.442C117.481 157.27 117.683 158.31 117.683 159.56C117.683 160.777 117.486 161.804 117.093 162.642C116.705 163.475 116.174 164.107 115.502 164.538C114.835 164.964 114.086 165.178 113.258 165.178C112.671 165.178 112.171 165.08 111.759 164.886C111.352 164.692 111.018 164.448 110.758 164.155C110.497 163.857 110.299 163.556 110.161 163.253H110.069V169.091H107.043ZM110.005 159.545C110.005 160.194 110.095 160.76 110.275 161.243C110.455 161.726 110.715 162.102 111.056 162.372C111.397 162.637 111.811 162.77 112.299 162.77C112.791 162.77 113.208 162.635 113.549 162.365C113.89 162.09 114.148 161.712 114.323 161.229C114.503 160.741 114.593 160.18 114.593 159.545C114.593 158.916 114.505 158.362 114.33 157.884C114.155 157.405 113.897 157.031 113.556 156.761C113.215 156.491 112.796 156.357 112.299 156.357C111.807 156.357 111.39 156.487 111.049 156.747C110.713 157.008 110.455 157.377 110.275 157.855C110.095 158.333 110.005 158.897 110.005 159.545ZM124.526 159.169C124.526 160.935 124.289 162.559 123.815 164.041C123.347 165.523 122.627 166.896 121.656 168.161H118.766C119.135 167.692 119.478 167.119 119.795 166.442C120.113 165.765 120.39 165.026 120.626 164.226C120.863 163.421 121.048 162.588 121.18 161.726C121.313 160.864 121.379 160.012 121.379 159.169C121.379 158.047 121.263 156.915 121.031 155.774C120.804 154.628 120.491 153.568 120.094 152.592C119.701 151.612 119.258 150.81 118.766 150.185H121.656C122.627 151.449 123.347 152.822 123.815 154.304C124.289 155.786 124.526 157.408 124.526 159.169ZM140.522 148.46H142.182V166.58H140.522V148.46ZM132.642 149.86C135.322 149.86 137.242 152.32 137.242 156.16C137.242 160.02 135.322 162.48 132.642 162.48C129.982 162.48 128.062 160.02 128.062 156.16C128.062 152.32 129.982 149.86 132.642 149.86ZM132.642 151.36C130.882 151.36 129.642 153.24 129.642 156.16C129.642 159.1 130.882 161.02 132.642 161.02C134.422 161.02 135.642 159.1 135.642 156.16C135.642 153.24 134.422 151.36 132.642 151.36ZM158.041 148.46H159.701V166.58H158.041V148.46ZM159.301 155.66H162.661V157.06H159.301V155.66ZM146.521 160.84H147.961C151.361 160.84 153.721 160.72 156.461 160.2L156.641 161.58C153.821 162.08 151.421 162.22 147.961 162.22H146.521V160.84ZM146.481 150.16H154.661V156.64H148.161V161.4H146.521V155.28H153.021V151.52H146.481V150.16ZM165.919 150.28H177.559V151.66H165.919V150.28ZM164.199 162.66H180.539V164.04H164.199V162.66ZM170.539 156.2H172.199V163.34H170.539V156.2ZM176.939 150.28H178.579V152.08C178.579 154.32 178.579 156.8 177.919 160.46L176.259 160.24C176.939 156.78 176.939 154.24 176.939 152.08V150.28ZM184.658 156.92H197.078V158.28H184.658V156.92ZM182.598 162.9H198.978V164.3H182.598V162.9ZM189.918 157.5H191.578V163.46H189.918V157.5ZM184.658 149.92H196.898V151.28H186.318V157.52H184.658V149.92ZM218.649 148.48H220.309V158.98H218.649V148.48ZM219.589 153.08H222.989V154.48H219.589V153.08ZM208.949 159.78H210.569V161.7H218.669V159.78H220.309V166.32H208.949V159.78ZM210.569 162.98V164.98H218.669V162.98H210.569ZM206.329 150.32H217.009V151.68H206.329V150.32ZM211.669 152.5C214.249 152.5 215.989 153.76 215.989 155.68C215.989 157.6 214.249 158.86 211.669 158.86C209.069 158.86 207.329 157.6 207.329 155.68C207.329 153.76 209.069 152.5 211.669 152.5ZM211.669 153.76C210.009 153.76 208.909 154.52 208.909 155.68C208.909 156.84 210.009 157.6 211.669 157.6C213.289 157.6 214.409 156.84 214.409 155.68C214.409 154.52 213.289 153.76 211.669 153.76ZM210.829 148.3H212.489V151.06H210.829V148.3ZM237.828 148.48H239.488V166.56H237.828V148.48ZM225.828 150.24H227.468V161.44H225.828V150.24ZM225.828 160.46H227.308C230.048 160.46 232.908 160.26 235.968 159.62L236.168 161.04C233.028 161.68 230.168 161.9 227.308 161.9H225.828V160.46ZM255.306 148.46H256.986V166.58H255.306V148.46ZM256.586 155.6H259.946V157H256.586V155.6ZM243.846 160.68H245.266C248.606 160.68 250.946 160.56 253.646 160.06L253.826 161.46C251.046 161.98 248.666 162.08 245.266 162.08H243.846V160.68ZM243.846 150.22H252.246V151.58H245.486V161.3H243.846V150.22ZM263.311 165.135C262.923 165.135 262.589 164.998 262.31 164.723C262.03 164.444 261.891 164.107 261.891 163.714C261.891 163.326 262.03 162.995 262.31 162.72C262.589 162.441 262.923 162.301 263.311 162.301C263.699 162.301 264.033 162.441 264.312 162.72C264.592 162.995 264.732 163.326 264.732 163.714C264.732 163.975 264.665 164.214 264.533 164.432C264.405 164.645 264.234 164.815 264.021 164.943C263.808 165.071 263.571 165.135 263.311 165.135Z" fill="black"/>
<g clip-path="url(#clip0_1377_199)">
<path d="M213 53C222.941 53 231 44.9411 231 35C231 25.0589 222.941 17 213 17C203.059 17 195 25.0589 195 35C195 44.9411 203.059 53 213 53Z" fill="#E1E8ED"/>
<path d="M226.802 46.5462C223.792 45.2212 222 41.0482 222 35.0002C222 28.9522 223.792 24.7792 226.802 23.4542C226.356 22.9258 225.879 22.4237 225.374 21.9502C222.406 23.6052 220 27.5782 220 35.0002C220 42.4212 222.406 46.3952 225.374 48.0502C225.876 47.5732 226.358 47.0772 226.802 46.5462ZM206 35.0002C206 27.5792 203.594 23.6052 200.626 21.9512C200.122 22.4243 199.645 22.9262 199.198 23.4542C202.208 24.7802 204 28.9522 204 35.0002C204 41.0482 202.208 45.2202 199.198 46.5462C199.643 47.0772 200.124 47.5732 200.626 48.0502C203.593 46.3952 206 42.4212 206 35.0002Z" fill="#B3BEC4"/>
<path d="M200.092 27.164C199.855 27.164 199.635 27.144 199.441 27.108C199.18 27.0592 198.95 26.9088 198.8 26.69C198.726 26.5816 198.674 26.4597 198.646 26.3312C198.619 26.2027 198.618 26.0701 198.642 25.941C198.666 25.8119 198.716 25.6888 198.787 25.5788C198.859 25.4688 198.952 25.374 199.06 25.2998C199.279 25.15 199.548 25.0932 199.809 25.142C200.239 25.219 202.5 25.148 202.957 22.866C203.009 22.606 203.162 22.3773 203.383 22.2302C203.492 22.1574 203.615 22.1069 203.744 22.0814C203.873 22.056 204.005 22.0562 204.134 22.082C204.263 22.1078 204.385 22.1587 204.494 22.2318C204.603 22.3049 204.697 22.3988 204.77 22.5081C204.843 22.6174 204.893 22.74 204.919 22.8688C204.944 22.9977 204.944 23.1302 204.918 23.259C204.335 26.171 201.779 27.164 200.092 27.164ZM201.792 31.125C201.262 31.125 200.84 30.802 200.814 30.266C200.788 29.715 201.214 29.355 201.766 29.329C201.766 29.329 204.33 29.294 205.635 27.035C205.701 26.9219 205.789 26.823 205.894 26.744C205.998 26.665 206.117 26.6075 206.244 26.5748C206.371 26.5421 206.503 26.5348 206.633 26.5533C206.763 26.5719 206.887 26.616 207 26.683C207.478 26.959 207.642 27.577 207.365 28.056C205.514 31.262 201.808 31.125 201.792 31.125ZM204 36.282C203.266 36.282 202.586 36.147 202.072 35.904C201.832 35.7905 201.647 35.5864 201.558 35.3366C201.469 35.0868 201.483 34.8118 201.596 34.572C201.71 34.3322 201.914 34.1474 202.163 34.0581C202.413 33.9689 202.688 33.9825 202.928 34.096C203.758 34.489 205.854 34.335 206.658 33.084C206.729 32.9735 206.821 32.878 206.929 32.8031C207.037 32.7282 207.158 32.6752 207.287 32.6473C207.415 32.6193 207.548 32.6169 207.677 32.6402C207.806 32.6635 207.93 32.712 208.04 32.783C208.151 32.854 208.246 32.946 208.321 33.0539C208.396 33.1618 208.449 33.2833 208.477 33.4117C208.505 33.54 208.507 33.6726 208.484 33.8018C208.461 33.9311 208.412 34.0545 208.341 34.165C207.377 35.666 205.565 36.282 204 36.282ZM205.161 41.807C203.607 41.807 202.166 41.108 201.235 40.331C201.134 40.247 201.051 40.1439 200.99 40.0276C200.929 39.9113 200.891 39.7842 200.879 39.6534C200.867 39.5226 200.881 39.3907 200.92 39.2653C200.959 39.1399 201.023 39.0234 201.107 38.9225C201.191 38.8216 201.294 38.7382 201.41 38.6771C201.526 38.616 201.653 38.5785 201.784 38.5665C201.915 38.5546 202.047 38.5686 202.172 38.6076C202.298 38.6466 202.414 38.71 202.515 38.794C202.709 38.957 204.467 40.36 206.297 39.579C206.418 39.5277 206.548 39.5008 206.679 39.4997C206.811 39.4986 206.941 39.5234 207.063 39.5726C207.184 39.6219 207.295 39.6947 207.389 39.7868C207.483 39.8789 207.557 39.9886 207.609 40.1095C207.66 40.2304 207.687 40.3603 207.688 40.4917C207.689 40.623 207.664 40.7533 207.615 40.8751C207.566 40.9969 207.493 41.1078 207.401 41.2015C207.309 41.2951 207.199 41.3697 207.078 41.421C206.471 41.6772 205.82 41.8084 205.161 41.807ZM204.75 47H204.722C202.218 47 200.043 45.43 199.188 43.892C198.919 43.41 199.094 42.848 199.576 42.58C200.059 42.311 200.668 42.51 200.936 42.992C201.42 43.863 202.932 45.126 204.777 45.177C205.329 45.193 205.764 45.565 205.749 46.116C205.734 46.658 205.29 47 204.75 47ZM222.188 47.188C222.04 47.1881 221.894 47.1553 221.76 47.092C221.626 47.0287 221.508 46.9364 221.414 46.8219C221.32 46.7073 221.253 46.5734 221.217 46.4297C221.181 46.286 221.178 46.1362 221.207 45.991C221.871 42.669 225.101 41.841 226.685 42.142C226.946 42.191 227.176 42.3415 227.326 42.5603C227.475 42.7791 227.532 43.0484 227.483 43.309C227.46 43.4384 227.411 43.5618 227.339 43.6721C227.267 43.7824 227.175 43.8774 227.066 43.9517C226.958 44.0259 226.835 44.0778 226.707 44.1045C226.578 44.1312 226.445 44.132 226.316 44.107C225.891 44.027 223.626 44.1 223.169 46.383C223.124 46.61 223.002 46.8143 222.823 46.961C222.644 47.1078 222.419 47.188 222.188 47.188ZM219.624 42.688C219.449 42.6881 219.276 42.642 219.124 42.5542C218.972 42.4664 218.846 42.3401 218.758 42.1881C218.67 42.036 218.624 41.8634 218.624 41.6879C218.625 41.5123 218.671 41.3399 218.759 41.188C220.611 37.982 222.743 37.884 224.153 37.819L224.264 37.814C224.529 37.8013 224.788 37.8943 224.985 38.0727C225.181 38.251 225.298 38.5 225.311 38.765C225.324 39.03 225.231 39.2891 225.052 39.4855C224.874 39.6818 224.625 39.7993 224.36 39.812L224.245 39.817C223.041 39.873 221.796 39.929 220.491 42.188C220.403 42.3402 220.277 42.4665 220.125 42.5543C219.972 42.642 219.8 42.6882 219.624 42.688ZM218.624 36.625C218.445 36.625 218.268 36.5767 218.114 36.4851C217.96 36.3935 217.833 36.262 217.747 36.1044C217.661 35.9468 217.619 35.769 217.626 35.5896C217.632 35.4102 217.687 35.2359 217.784 35.085C219.199 32.882 222.44 32.584 224.052 33.347C224.29 33.4612 224.474 33.6652 224.562 33.9143C224.651 34.1634 224.637 34.4373 224.524 34.6763C224.411 34.9152 224.208 35.0997 223.959 35.1894C223.711 35.2791 223.437 35.2667 223.197 35.155C222.368 34.762 220.271 34.916 219.465 36.167C219.374 36.3076 219.25 36.4232 219.103 36.5032C218.956 36.5832 218.791 36.6251 218.624 36.625ZM224.249 30.688C224.015 30.6879 223.789 30.6058 223.609 30.456C223.415 30.294 221.657 28.897 219.828 29.671C219.586 29.7618 219.319 29.7557 219.082 29.654C218.845 29.5523 218.656 29.3629 218.555 29.1253C218.454 28.8877 218.449 28.6203 218.54 28.3789C218.632 28.1376 218.813 27.9409 219.046 27.83C221.265 26.888 223.581 27.829 224.89 28.92C225.048 29.0516 225.161 29.2287 225.215 29.4271C225.269 29.6255 225.26 29.8356 225.19 30.0288C225.12 30.2221 224.992 30.389 224.823 30.507C224.655 30.6249 224.455 30.6881 224.249 30.688ZM226.063 26.75C225.885 26.7502 225.709 26.7026 225.556 26.6122C225.402 26.5219 225.275 26.392 225.188 26.236C224.704 25.364 223.192 24.113 221.347 24.062C220.794 24.047 220.36 23.556 220.374 23.003C220.391 22.461 220.835 22 221.374 22H221.402C223.907 22 226.082 23.694 226.936 25.232C227.065 25.4664 227.097 25.7423 227.024 25.9999C226.951 26.2575 226.78 26.476 226.547 26.608C226.401 26.6959 226.234 26.7448 226.063 26.75Z" fill="#DD2E44"/>
</g>
<defs>
<clipPath id="clip0_1377_199">
<rect width="36" height="36" fill="white" transform="translate(195 17)"/>
</clipPath>
</defs>
</svg>
