<svg width="570" height="201" viewBox="0 0 570 201" fill="none" xmlns="http://www.w3.org/2000/svg">
<rect x="0.5" y="0.5" width="569" height="200" rx="17.5" fill="white" stroke="#8A9A6B"/>
<path d="M40.7406 23.6806H44.2414V41.8952H40.7406V23.6806ZM43.2412 31.1033H47.479V33.9724H43.2412V31.1033ZM25.0529 26.2074H39.3982V28.9449H25.0529V26.2074ZM32.2387 29.8135C35.7395 29.8135 38.2138 31.735 38.2138 34.5251C38.2138 37.3152 35.7395 39.2104 32.2387 39.2104C28.7116 39.2104 26.2373 37.3152 26.2373 34.5251C26.2373 31.735 28.7116 29.8135 32.2387 29.8135ZM32.2387 32.472C30.6857 32.472 29.6065 33.209 29.6065 34.5251C29.6065 35.8412 30.6857 36.5519 32.2387 36.5519C33.7917 36.5519 34.8709 35.8412 34.8709 34.5251C34.8709 33.209 33.7917 32.472 32.2387 32.472ZM30.4752 23.6279H33.9759V27.5499H30.4752V23.6279ZM28.5273 44.8169H45.1101V47.607H28.5273V44.8169ZM28.5273 40.5265H32.0281V46.0277H28.5273V40.5265ZM72.5365 23.6542H76.0636V36.7625H72.5365V23.6542ZM59.8494 37.8153H63.2976V40.079H72.5892V37.8153H76.0636V47.765H59.8494V37.8153ZM63.2976 42.7638V44.9749H72.5892V42.7638H63.2976ZM62.7975 24.6545C66.5878 24.6545 69.4042 27.0497 69.4042 30.4189C69.4042 33.7881 66.5878 36.1834 62.7975 36.1834C59.0071 36.1834 56.1644 33.7881 56.1644 30.4189C56.1644 27.0497 59.0071 24.6545 62.7975 24.6545ZM62.7975 27.5499C60.9286 27.5499 59.5862 28.629 59.5862 30.4189C59.5862 32.2351 60.9286 33.288 62.7975 33.288C64.64 33.288 65.9824 32.2351 65.9824 30.4189C65.9824 28.629 64.64 27.5499 62.7975 27.5499ZM93.0667 25.3388C96.778 25.3388 99.4628 28.708 99.4628 34.025C99.4628 39.3946 96.778 42.7638 93.0667 42.7638C89.3553 42.7638 86.6705 39.3946 86.6705 34.025C86.6705 28.708 89.3553 25.3388 93.0667 25.3388ZM93.0667 28.5238C91.2505 28.5238 90.0397 30.4452 90.0397 34.025C90.0397 37.6574 91.2505 39.6052 93.0667 39.6052C94.8829 39.6052 96.12 37.6574 96.12 34.025C96.12 30.4452 94.8829 28.5238 93.0667 28.5238ZM104.701 29.3134H108.991V32.2088H104.701V29.3134ZM104.701 36.4729H108.991V39.342H104.701V36.4729ZM102.121 23.6542H105.648V48.0282H102.121V23.6542ZM113.28 25.0756H128.573V27.8394H113.28V25.0756ZM110.779 35.4464H132.81V38.2628H110.779V35.4464ZM119.913 37.4205H123.44V48.0545H119.913V37.4205ZM126.783 25.0756H130.231V27.234C130.231 29.8662 130.231 32.8142 129.283 37.131L125.835 36.7361C126.783 32.6563 126.783 29.7609 126.783 27.234V25.0756ZM146.839 24.9703H149.708V27.1287C149.708 31.9719 147.602 36.236 142.97 37.8417L141.101 35.0779C145.181 33.7091 146.839 30.4452 146.839 27.1287V24.9703ZM147.55 24.9703H150.393V27.4709C150.393 30.3926 152.025 33.2354 155.841 34.4198L154.025 37.131C149.629 35.657 147.55 31.8666 147.55 27.4709V24.9703ZM157.184 23.6542H160.684V38.0522H157.184V23.6542ZM159.71 29.2871H163.922V32.1825H159.71V29.2871ZM152.735 38.605C157.789 38.605 160.974 40.3686 160.974 43.3166C160.974 46.2909 157.789 48.0282 152.735 48.0282C147.655 48.0282 144.47 46.2909 144.47 43.3166C144.47 40.3686 147.655 38.605 152.735 38.605ZM152.735 41.3161C149.629 41.3161 147.945 41.9742 147.945 43.3166C147.945 44.6853 149.629 45.317 152.735 45.317C155.841 45.317 157.499 44.6853 157.499 43.3166C157.499 41.9742 155.841 41.3161 152.735 41.3161ZM171.422 24.7597H174.317V27.1024C174.317 31.7087 172.08 35.8939 167.315 37.4205L165.605 34.6567C169.711 33.3406 171.422 30.182 171.422 27.1024V24.7597ZM172.132 24.7597H175.001V27.1024C175.001 30.1031 176.686 33.0511 180.661 34.2619L178.95 36.9994C174.291 35.5253 172.132 31.6297 172.132 27.1024V24.7597ZM169.342 39.263H185.978V48.0282H182.45V42.0531H169.342V39.263ZM182.45 23.6542H185.978V38.1838H182.45V23.6542Z" fill="black"/>
<path d="M29.02 86.4299H31.68V89.2299H29.02V86.4299ZM30.32 79.6699C33 79.6699 34.94 81.2099 34.94 83.4499C34.94 85.6499 33 87.1899 30.32 87.1899C27.64 87.1899 25.7 85.6499 25.7 83.4499C25.7 81.2099 27.64 79.6699 30.32 79.6699ZM30.32 81.6699C29.06 81.6699 28.18 82.3099 28.18 83.4499C28.18 84.5699 29.06 85.2099 30.32 85.2099C31.6 85.2099 32.46 84.5699 32.46 83.4499C32.46 82.3099 31.6 81.6699 30.32 81.6699ZM36.84 78.9499H39.5V93.0699H36.84V78.9499ZM38.56 84.7499H41.82V86.9299H38.56V84.7499ZM27.14 94.9899H40.12V97.1299H27.14V94.9899ZM27.14 91.8499H29.82V95.9099H27.14V91.8499ZM25.04 90.6699L24.74 88.5499C27.88 88.5499 32.22 88.5299 35.86 88.0099L36.04 89.9099C32.3 90.6099 28.1 90.6699 25.04 90.6699ZM43.1984 87.8699H59.9384V89.9699H43.1984V87.8699ZM50.2184 85.6899H52.8784V88.4299H50.2184V85.6899ZM51.5384 90.8499C55.5584 90.8499 57.9584 92.0499 57.9584 94.1499C57.9584 96.2899 55.5584 97.4499 51.5384 97.4499C47.5184 97.4499 45.1184 96.2899 45.1184 94.1499C45.1184 92.0499 47.5184 90.8499 51.5384 90.8499ZM51.5384 92.8499C49.0384 92.8499 47.7984 93.2499 47.7984 94.1499C47.7984 95.0699 49.0384 95.4699 51.5384 95.4699C54.0184 95.4699 55.2584 95.0699 55.2584 94.1499C55.2584 93.2499 54.0184 92.8499 51.5384 92.8499ZM45.3384 79.4499H47.9584V81.0099H55.1784V79.4499H57.8184V86.4699H45.3384V79.4499ZM47.9584 83.0099V84.3899H55.1784V83.0099H47.9584ZM61.7769 88.6499H78.1169V90.0099H61.7769V88.6499ZM63.8969 95.4699H76.3169V96.8299H63.8969V95.4699ZM63.8969 91.5899H65.5569V95.8899H63.8969V91.5899ZM69.9569 79.7499C73.8169 79.7499 76.3169 81.1099 76.3169 83.3699C76.3169 85.6099 73.8169 86.9699 69.9569 86.9699C66.0769 86.9699 63.5969 85.6099 63.5969 83.3699C63.5969 81.1099 66.0769 79.7499 69.9569 79.7499ZM69.9569 81.1099C67.1169 81.1099 65.2969 81.9499 65.2969 83.3699C65.2969 84.7899 67.1169 85.6299 69.9569 85.6299C72.7969 85.6299 74.6169 84.7899 74.6169 83.3699C74.6169 81.9499 72.7969 81.1099 69.9569 81.1099ZM85.4683 90.0899H101.848V91.4699H85.4683V90.0899ZM92.8283 90.4899H94.4683V97.2499H92.8283V90.4899ZM87.6483 86.8899H100.028V88.2499H87.6483V86.8899ZM87.6483 79.9899H99.8283V81.3299H89.2883V87.2899H87.6483V79.9899ZM88.8083 83.4099H99.3883V84.7099H88.8083V83.4099ZM111.187 79.7899H112.647V80.7899C112.647 84.2499 109.127 86.7299 105.367 87.3699L104.707 86.0299C108.007 85.5299 111.187 83.3699 111.187 80.7899V79.7899ZM111.487 79.7899H112.927V80.7899C112.927 83.3099 116.147 85.5299 119.407 86.0299L118.747 87.3699C115.027 86.7299 111.487 84.2099 111.487 80.7899V79.7899ZM111.187 90.3499H112.827V97.2299H111.187V90.3499ZM103.887 89.3299H120.227V90.7099H103.887V89.3299ZM134.505 79.1299H136.185V97.2299H134.505V79.1299ZM135.725 86.4699H139.065V87.8499H135.725V86.4699ZM129.885 81.0899H131.505C131.505 86.2299 129.145 90.8699 123.305 93.8099L122.385 92.5299C127.385 89.9899 129.885 86.1299 129.885 81.3499V81.0899ZM123.225 81.0899H130.745V82.4499H123.225V81.0899ZM158.337 79.1699H159.997V92.7299H158.337V79.1699ZM159.477 85.0899H162.677V86.4899H159.477V85.0899ZM146.017 81.3499H156.697V82.6899H146.017V81.3499ZM151.357 83.6899C153.917 83.6899 155.677 85.0299 155.677 87.0699C155.677 89.0899 153.917 90.4299 151.357 90.4299C148.777 90.4299 147.017 89.0899 147.017 87.0699C147.017 85.0299 148.777 83.6899 151.357 83.6899ZM151.357 84.9899C149.717 84.9899 148.597 85.8099 148.597 87.0699C148.597 88.3099 149.717 89.1299 151.357 89.1299C152.977 89.1299 154.097 88.3099 154.097 87.0699C154.097 85.8099 152.977 84.9899 151.357 84.9899ZM150.517 79.1499H152.177V82.0499H150.517V79.1499ZM148.737 95.4699H160.817V96.8299H148.737V95.4699ZM148.737 91.6499H150.397V96.0499H148.737V91.6499ZM178.308 82.4699H183.148V83.8299H178.308V82.4699ZM178.148 86.2299H183.028V87.5899H178.148V86.2299ZM182.868 79.1499H184.528V89.9899H182.868V79.1499ZM177.208 80.5099H178.988C178.988 85.1699 175.768 88.4299 170.568 89.9899L169.888 88.6499C174.508 87.3099 177.208 84.6499 177.208 81.2299V80.5099ZM170.828 80.5099H178.348V81.8699H170.828V80.5099ZM178.648 90.1899C182.308 90.1899 184.628 91.4899 184.628 93.6699C184.628 95.8499 182.308 97.1499 178.648 97.1499C174.988 97.1499 172.668 95.8499 172.668 93.6699C172.668 91.4899 174.988 90.1899 178.648 90.1899ZM178.648 91.4899C176.008 91.4899 174.308 92.3099 174.308 93.6699C174.308 95.0299 176.008 95.8299 178.648 95.8299C181.308 95.8299 183.008 95.0299 183.008 93.6699C183.008 92.3099 181.308 91.4899 178.648 91.4899ZM201.226 79.1499H202.886V97.2299H201.226V79.1499ZM195.926 81.0899H197.566C197.566 86.3299 195.206 90.9099 189.166 93.8699L188.286 92.5299C193.506 90.0099 195.926 86.1699 195.926 81.3699V81.0899ZM189.106 81.0899H196.646V82.4499H189.106V81.0899ZM206.445 87.5499H222.845V88.8099H206.445V87.5499ZM208.385 90.2699H220.785V94.1299H210.085V96.2499H208.445V92.9899H219.165V91.4499H208.385V90.2699ZM208.445 95.8099H221.365V97.0099H208.445V95.8099ZM208.525 79.6699H220.725V83.4299H210.205V85.3899H208.565V82.3099H219.105V80.8499H208.525V79.6699ZM208.565 84.9899H221.065V86.1899H208.565V84.9899ZM234.816 86.6499H236.476V89.3899H234.816V86.6499ZM235.596 79.9699C238.216 79.9699 240.056 81.4099 240.056 83.5499C240.056 85.6899 238.216 87.1099 235.596 87.1099C232.996 87.1099 231.156 85.6899 231.156 83.5499C231.156 81.4099 232.996 79.9699 235.596 79.9699ZM235.596 81.2499C233.896 81.2499 232.716 82.1899 232.716 83.5499C232.716 84.9299 233.896 85.8499 235.596 85.8499C237.316 85.8499 238.496 84.9299 238.496 83.5499C238.496 82.1899 237.316 81.2499 235.596 81.2499ZM242.496 79.1699H244.156V92.9899H242.496V79.1699ZM243.456 85.2699H246.796V86.6499H243.456V85.2699ZM232.716 95.4499H244.796V96.8299H232.716V95.4499ZM232.716 91.8099H234.376V96.0499H232.716V91.8099ZM230.336 90.3099L230.116 88.9499C233.296 88.9499 237.696 88.9099 241.376 88.3499L241.496 89.5699C237.716 90.2699 233.436 90.3099 230.336 90.3099ZM248.535 90.0899H264.915V91.4699H248.535V90.0899ZM255.895 90.4899H257.535V97.2499H255.895V90.4899ZM250.715 86.8899H263.095V88.2499H250.715V86.8899ZM250.715 79.9899H262.895V81.3299H252.355V87.2899H250.715V79.9899ZM251.875 83.4099H262.455V84.7099H251.875V83.4099ZM267.999 88.3972C267.999 86.6169 268.233 84.9786 268.702 83.4824C269.17 81.9862 269.855 80.606 270.754 79.3418H272.7C272.35 79.8105 272.023 80.3858 271.72 81.0676C271.417 81.7495 271.152 82.4976 270.925 83.312C270.697 84.1216 270.52 84.9621 270.392 85.8333C270.264 86.6998 270.2 87.5544 270.2 88.3972C270.2 89.5241 270.312 90.6652 270.534 91.8205C270.757 92.9758 271.057 94.0482 271.436 95.0378C271.815 96.0274 272.236 96.8347 272.7 97.4597H270.754C269.855 96.1955 269.17 94.8153 268.702 93.3191C268.233 91.8229 267.999 90.1822 267.999 88.3972ZM279.748 80.9256C280.396 80.9303 281.035 81.0487 281.665 81.2807C282.295 81.5127 282.863 81.8915 283.37 82.4171C283.881 82.9426 284.288 83.6529 284.591 84.5478C284.899 85.4379 285.055 86.5459 285.06 87.8716C285.06 89.1453 284.932 90.2793 284.676 91.2736C284.421 92.2632 284.054 93.0989 283.576 93.7807C283.102 94.4625 282.527 94.981 281.85 95.3361C281.173 95.6912 280.41 95.8688 279.563 95.8688C278.696 95.8688 277.927 95.6983 277.255 95.3574C276.582 95.0165 276.035 94.5454 275.614 93.9441C275.193 93.338 274.93 92.642 274.826 91.856H276.992C277.134 92.481 277.423 92.9876 277.858 93.3759C278.299 93.7594 278.867 93.9512 279.563 93.9512C280.628 93.9512 281.459 93.4872 282.056 92.5591C282.652 91.6264 282.953 90.3243 282.958 88.6529H282.844C282.598 89.0601 282.29 89.4105 281.921 89.704C281.556 89.9976 281.147 90.2248 280.692 90.3858C280.238 90.5468 279.752 90.6273 279.236 90.6273C278.398 90.6273 277.636 90.4213 276.949 90.0094C276.263 89.5975 275.716 89.0317 275.309 88.312C274.901 87.5923 274.698 86.7708 274.698 85.8475C274.698 84.9289 274.906 84.0956 275.323 83.3475C275.744 82.5994 276.331 82.0075 277.084 81.5719C277.842 81.1316 278.73 80.9161 279.748 80.9256ZM279.755 82.7722C279.201 82.7722 278.701 82.9095 278.256 83.1841C277.816 83.454 277.468 83.821 277.212 84.285C276.956 84.7443 276.828 85.2556 276.828 85.8191C276.828 86.3825 276.952 86.8939 277.198 87.3532C277.449 87.8077 277.79 88.1699 278.221 88.4398C278.656 88.705 279.153 88.8375 279.712 88.8375C280.129 88.8375 280.517 88.757 280.877 88.5961C281.237 88.4351 281.551 88.2125 281.821 87.9284C282.091 87.6396 282.302 87.3129 282.453 86.9483C282.605 86.5837 282.681 86.2002 282.681 85.7978C282.681 85.2627 282.553 84.7656 282.297 84.3063C282.046 83.847 281.701 83.4777 281.26 83.1983C280.82 82.9142 280.318 82.7722 279.755 82.7722ZM300.347 79.1299H302.007V97.2499H300.347V79.1299ZM292.467 80.5299C295.147 80.5299 297.067 82.9899 297.067 86.8299C297.067 90.6899 295.147 93.1499 292.467 93.1499C289.807 93.1499 287.887 90.6899 287.887 86.8299C287.887 82.9899 289.807 80.5299 292.467 80.5299ZM292.467 82.0299C290.707 82.0299 289.467 83.9099 289.467 86.8299C289.467 89.7699 290.707 91.6899 292.467 91.6899C294.247 91.6899 295.467 89.7699 295.467 86.8299C295.467 83.9099 294.247 82.0299 292.467 82.0299ZM318.745 79.1499H320.405V89.9699H318.745V79.1499ZM306.745 80.3499H308.385V87.8099H306.745V80.3499ZM306.745 86.9899H308.205C311.385 86.9899 314.005 86.8099 316.825 86.2099L317.045 87.5899C314.105 88.2099 311.465 88.3899 308.205 88.3899H306.745V86.9899ZM314.405 90.1099C318.145 90.1099 320.485 91.4299 320.485 93.6499C320.485 95.8899 318.145 97.1899 314.405 97.1899C310.665 97.1899 308.345 95.8899 308.345 93.6499C308.345 91.4299 310.665 90.1099 314.405 90.1099ZM314.405 91.4499C311.665 91.4499 310.005 92.2499 310.005 93.6499C310.005 95.0499 311.665 95.8499 314.405 95.8499C317.145 95.8499 318.825 95.0499 318.825 93.6499C318.825 92.2499 317.145 91.4499 314.405 91.4499ZM327.214 93.6813L327.107 94.4554C327.036 95.0236 326.915 95.6155 326.745 96.231C326.579 96.8513 326.406 97.4266 326.227 97.9569C326.051 98.4872 325.907 98.9086 325.793 99.2211H324.288C324.349 98.9275 324.434 98.5298 324.543 98.0279C324.652 97.5307 324.759 96.9744 324.863 96.3588C324.967 95.7433 325.045 95.1159 325.097 94.4767L325.168 93.6813H327.214ZM335.684 80.6899H350.224V81.9899H335.684V80.6899ZM343.004 82.7299C346.724 82.7299 348.844 83.6299 348.844 85.3499C348.844 87.0699 346.724 87.9699 343.004 87.9699C339.284 87.9699 337.164 87.0699 337.164 85.3499C337.164 83.6299 339.284 82.7299 343.004 82.7299ZM343.004 83.8899C340.344 83.8899 338.864 84.4099 338.864 85.3499C338.864 86.2699 340.344 86.7699 343.004 86.7699C345.664 86.7699 347.144 86.2699 347.144 85.3499C347.144 84.4099 345.664 83.8899 343.004 83.8899ZM342.184 78.8699H343.824V81.4699H342.184V78.8699ZM334.824 89.4099H351.164V90.7499H334.824V89.4099ZM342.184 87.5099H343.824V90.0299H342.184V87.5099ZM336.604 92.1899H349.004V97.2299H347.364V93.4899H336.604V92.1899ZM353.222 88.6499H369.562V90.0099H353.222V88.6499ZM355.342 95.4699H367.762V96.8299H355.342V95.4699ZM355.342 91.5899H357.002V95.8899H355.342V91.5899ZM361.402 79.7499C365.262 79.7499 367.762 81.1099 367.762 83.3699C367.762 85.6099 365.262 86.9699 361.402 86.9699C357.522 86.9699 355.042 85.6099 355.042 83.3699C355.042 81.1099 357.522 79.7499 361.402 79.7499ZM361.402 81.1099C358.562 81.1099 356.742 81.9499 356.742 83.3699C356.742 84.7899 358.562 85.6299 361.402 85.6299C364.242 85.6299 366.062 84.7899 366.062 83.3699C366.062 81.9499 364.242 81.1099 361.402 81.1099ZM385.294 81.9699H390.734V83.3299H385.294V81.9699ZM385.294 86.3099H390.734V87.6699H385.294V86.3099ZM390.134 79.1699H391.794V92.5299H390.134V79.1699ZM380.254 95.4699H392.294V96.8299H380.254V95.4699ZM380.254 91.1499H381.914V96.0699H380.254V91.1499ZM381.854 80.3099C384.514 80.3099 386.514 82.1699 386.514 84.8299C386.514 87.4899 384.514 89.3499 381.854 89.3499C379.194 89.3499 377.194 87.4899 377.194 84.8299C377.194 82.1699 379.194 80.3099 381.854 80.3099ZM381.854 81.7699C380.094 81.7699 378.794 83.0499 378.794 84.8299C378.794 86.6299 380.094 87.9099 381.854 87.9099C383.614 87.9099 384.934 86.6299 384.934 84.8299C384.934 83.0499 383.614 81.7699 381.854 81.7699ZM399.772 81.0899H401.132V82.5499C401.132 85.8699 399.132 88.6499 396.092 89.7499L395.252 88.4299C397.972 87.4699 399.772 85.1299 399.772 82.5499V81.0899ZM400.072 81.0899H401.432V82.5299C401.432 84.8899 403.152 87.0099 405.812 87.8899L405.012 89.1899C401.992 88.1899 400.072 85.6099 400.072 82.5299V81.0899ZM395.752 80.4899H405.412V81.8499H395.752V80.4899ZM407.692 79.1499H409.352V90.0499H407.692V79.1499ZM408.892 83.7299H412.032V85.1299H408.892V83.7299ZM403.592 90.5299C407.272 90.5299 409.532 91.7499 409.532 93.8499C409.532 95.9699 407.272 97.1899 403.592 97.1899C399.912 97.1899 397.652 95.9699 397.652 93.8499C397.652 91.7499 399.912 90.5299 403.592 90.5299ZM403.592 91.8699C400.912 91.8699 399.272 92.5899 399.272 93.8499C399.272 95.1299 400.912 95.8899 403.592 95.8899C406.272 95.8899 407.912 95.1299 407.912 93.8499C407.912 92.5899 406.272 91.8699 403.592 91.8699ZM419.023 93.6099H435.403V94.9899H419.023V93.6099ZM426.323 88.9299H427.983V94.2299H426.323V88.9299ZM420.443 80.8699H433.863V82.2299H420.443V80.8699ZM420.483 88.1499H433.843V89.4899H420.483V88.1499ZM423.263 81.9699H424.923V88.3899H423.263V81.9699ZM429.423 81.9699H431.063V88.3899H429.423V81.9699ZM449.782 79.1499H451.442V90.0299H449.782V79.1499ZM450.982 83.9499H454.122V85.3299H450.982V83.9499ZM440.082 91.0499H451.442V96.9899H440.082V91.0499ZM449.822 92.3899H441.702V95.6499H449.822V92.3899ZM437.462 81.0499H448.142V82.4099H437.462V81.0499ZM442.802 83.2899C445.382 83.2899 447.122 84.5699 447.122 86.5299C447.122 88.4899 445.382 89.7299 442.802 89.7299C440.202 89.7299 438.462 88.4899 438.462 86.5299C438.462 84.5699 440.202 83.2899 442.802 83.2899ZM442.802 84.5699C441.142 84.5699 440.042 85.3299 440.042 86.5299C440.042 87.7099 441.142 88.4699 442.802 88.4699C444.422 88.4699 445.542 87.7099 445.542 86.5299C445.542 85.3299 444.422 84.5699 442.802 84.5699ZM441.962 78.9899H443.622V81.7499H441.962V78.9899ZM460.332 89.633C460.332 91.418 460.097 93.0587 459.629 94.5549C459.16 96.0511 458.476 97.4313 457.576 98.6955H455.63C455.98 98.2267 456.307 97.6515 456.61 96.9696C456.913 96.2878 457.178 95.5421 457.406 94.7324C457.633 93.918 457.81 93.0752 457.938 92.204C458.066 91.3328 458.13 90.4758 458.13 89.633C458.13 88.5108 458.019 87.3721 457.796 86.2168C457.574 85.0615 457.273 83.9891 456.894 82.9995C456.515 82.0099 456.094 81.2026 455.63 80.5776H457.576C458.476 81.8418 459.16 83.222 459.629 84.7182C460.097 86.2144 460.332 87.8527 460.332 89.633ZM477.019 79.1699H478.599V90.3499H477.019V79.1699ZM474.079 84.1099H477.499V85.4699H474.079V84.1099ZM473.179 79.4299H474.759V90.0899H473.179V79.4299ZM463.279 81.2099H472.439V82.5299H463.279V81.2099ZM467.879 83.4299C470.139 83.4299 471.719 84.6499 471.719 86.5299C471.719 88.4099 470.139 89.6299 467.879 89.6299C465.599 89.6299 464.019 88.4099 464.019 86.5299C464.019 84.6499 465.599 83.4299 467.879 83.4299ZM467.879 84.6899C466.459 84.6899 465.499 85.4099 465.499 86.5299C465.499 87.6499 466.459 88.3899 467.879 88.3899C469.279 88.3899 470.239 87.6499 470.239 86.5299C470.239 85.4099 469.279 84.6899 467.879 84.6899ZM467.059 79.2299H468.679V81.9899H467.059V79.2299ZM468.139 90.8899H469.419V91.5099C469.419 93.7899 467.919 96.0699 465.299 97.0099L464.519 95.7699C466.779 95.0099 468.139 93.1499 468.139 91.5099V90.8899ZM468.519 90.8899H469.739V91.5099C469.739 93.2499 470.799 95.0899 472.959 95.9099L472.259 97.1699C469.679 96.2099 468.519 93.8099 468.519 91.5099V90.8899ZM474.779 90.8899H475.999V91.5099C475.999 93.5499 474.819 96.1299 472.259 97.1699L471.579 95.9099C473.679 94.9899 474.779 93.0099 474.779 91.5099V90.8899ZM475.119 90.8899H476.399V91.5099C476.399 93.2699 477.759 95.0499 480.039 95.7699L479.239 97.0099C476.599 96.1099 475.119 93.9099 475.119 91.5099V90.8899ZM489.937 79.4499C493.917 79.4499 496.297 80.5699 496.297 82.5899C496.297 84.6099 493.917 85.7299 489.937 85.7299C485.937 85.7299 483.577 84.6099 483.577 82.5899C483.577 80.5699 485.937 79.4499 489.937 79.4499ZM489.937 80.7099C486.977 80.7099 485.277 81.3899 485.277 82.5899C485.277 83.7899 486.977 84.4699 489.937 84.4699C492.877 84.4699 494.577 83.7899 494.577 82.5899C494.577 81.3899 492.877 80.7099 489.937 80.7099ZM481.757 86.9299H498.097V88.2699H481.757V86.9299ZM483.737 89.8099H496.017V93.8899H485.417V96.0899H483.777V92.6899H494.377V91.0899H483.737V89.8099ZM483.777 95.7299H496.557V97.0299H483.777V95.7299ZM515.809 79.5299H517.349V96.3299H515.809V79.5299ZM516.709 86.5099H520.049V87.8699H516.709V86.5099ZM505.989 91.1499H506.709C507.409 91.1499 508.589 91.1299 509.989 90.7899L510.129 92.1699C508.629 92.5299 507.469 92.5299 506.709 92.5299H505.989V91.1499ZM505.989 81.4099H509.849V82.7699H507.529V91.9299H505.989V81.4099ZM510.629 91.1499H511.389C512.349 91.1499 513.609 91.1099 514.989 90.7299L515.149 92.1099C513.669 92.5099 512.429 92.5299 511.389 92.5299H510.629V91.1499ZM510.629 81.4099H514.609V82.7699H512.149V91.8699H510.629V81.4099ZM519.469 79.1499H521.049V97.2299H519.469V79.1499ZM29.38 104.09H30.76V105.93C30.76 109.41 28.8 112.29 25.78 113.47L24.9 112.13C27.62 111.13 29.38 108.69 29.38 105.93V104.09ZM29.68 104.09H31.04V106.05C31.04 108.49 32.84 110.75 35.44 111.65L34.56 112.95C31.66 111.87 29.68 109.19 29.68 106.05V104.09ZM37.36 103.15H39.02V114.11H37.36V103.15ZM38.56 107.81H41.7V109.21H38.56V107.81ZM33.26 114.61C36.96 114.61 39.2 115.83 39.2 117.91C39.2 119.99 36.96 121.19 33.26 121.19C29.56 121.19 27.32 119.99 27.32 117.91C27.32 115.83 29.56 114.61 33.26 114.61ZM33.26 115.93C30.58 115.93 28.94 116.65 28.94 117.91C28.94 119.17 30.58 119.89 33.26 119.89C35.94 119.89 37.58 119.17 37.58 117.91C37.58 116.65 35.94 115.93 33.26 115.93ZM57.1384 103.15H58.7384V121.23H57.1384V103.15ZM54.0784 110.39H57.5584V111.77H54.0784V110.39ZM53.0384 103.55H54.5984V120.31H53.0384V103.55ZM44.0384 115.39H45.2184C47.8584 115.39 49.6584 115.29 51.7584 114.85L51.9184 116.23C49.7584 116.69 47.9384 116.77 45.2184 116.77H44.0384V115.39ZM44.0384 105.35H50.7584V106.71H45.6784V116.01H44.0384V105.35ZM62.8369 111.51H64.2969C68.1969 111.51 70.3369 111.43 72.8769 110.99L73.0569 112.31C70.4369 112.77 68.2369 112.83 64.2969 112.83H62.8369V111.51ZM62.8369 104.25H71.4369V105.59H64.4769V112.19H62.8369V104.25ZM63.9369 107.81H70.9369V109.15H63.9369V107.81ZM74.9369 103.17H76.6169V113.93H74.9369V103.17ZM64.9369 114.83H76.6169V120.99H64.9369V114.83ZM74.9769 116.17H66.5569V119.65H74.9769V116.17ZM87.5153 110.17H90.9353V111.55H87.5153V110.17ZM93.9553 103.15H95.5553V121.23H93.9553V103.15ZM90.3753 103.53H91.9553V120.33H90.3753V103.53ZM84.2553 104.65C86.5953 104.65 88.1153 107.07 88.1153 110.95C88.1153 114.83 86.5953 117.25 84.2553 117.25C81.9153 117.25 80.4153 114.83 80.4153 110.95C80.4153 107.07 81.9153 104.65 84.2553 104.65ZM84.2553 106.19C82.8353 106.19 81.9353 108.03 81.9353 110.95C81.9353 113.87 82.8353 115.71 84.2553 115.71C85.6953 115.71 86.5953 113.87 86.5953 110.95C86.5953 108.03 85.6953 106.19 84.2553 106.19ZM112.354 103.15H113.954V121.23H112.354V103.15ZM104.514 110.53H109.074V111.87H104.514V110.53ZM108.594 103.61H110.154V120.31H108.594V103.61ZM104.734 105.43H106.334C106.334 110.17 104.434 114.43 99.5538 117.33L98.5738 116.15C102.834 113.59 104.734 109.99 104.734 105.73V105.43ZM99.3738 105.43H105.354V106.79H99.3738V105.43ZM128.203 105.124V119.67H126.001V107.326H125.916L122.436 109.599V107.497L126.065 105.124H128.203ZM141.378 107.67H145.398V109.05H141.378V107.67ZM144.938 103.15H146.598V113.73H144.938V103.15ZM134.878 114.61H146.598V120.99H134.878V114.61ZM144.978 115.93H136.498V119.65H144.978V115.93ZM136.338 104.87H137.698V106.33C137.698 109.63 135.658 112.45 132.638 113.57L131.778 112.25C134.478 111.29 136.338 108.89 136.338 106.33V104.87ZM136.658 104.87H137.998V106.31C137.998 108.65 139.758 110.91 142.378 111.83L141.538 113.15C138.598 112.09 136.658 109.35 136.658 106.31V104.87ZM132.298 104.31H141.958V105.65H132.298V104.31ZM152.197 111.59H164.617V112.95H152.197V111.59ZM150.137 117.57H166.517V118.97H150.137V117.57ZM157.457 112.17H159.117V118.13H157.457V112.17ZM152.197 104.59H164.437V105.95H153.857V112.19H152.197V104.59ZM173.808 106.03H184.468V107.41H173.808V106.03ZM179.148 108.89C181.588 108.89 183.388 110.61 183.388 113.05C183.388 115.47 181.588 117.21 179.148 117.21C176.728 117.21 174.908 115.47 174.908 113.05C174.908 110.61 176.728 108.89 179.148 108.89ZM179.148 110.29C177.608 110.29 176.448 111.43 176.448 113.05C176.448 114.65 177.608 115.79 179.148 115.79C180.708 115.79 181.868 114.65 181.868 113.05C181.868 111.43 180.708 110.29 179.148 110.29ZM178.328 103.37H179.988V106.69H178.328V103.37ZM187.068 103.15H188.708V121.23H187.068V103.15ZM184.108 110.71H188.288V112.09H184.108V110.71ZM196.247 109.27H197.887V112.69H196.247V109.27ZM202.887 109.27H204.527V112.69H202.887V109.27ZM192.207 112.09H208.547V113.43H192.207V112.09ZM200.367 114.79C204.247 114.79 206.567 115.93 206.567 117.99C206.567 120.05 204.247 121.21 200.367 121.21C196.487 121.21 194.167 120.05 194.167 117.99C194.167 115.93 196.487 114.79 200.367 114.79ZM200.367 116.07C197.547 116.07 195.847 116.77 195.847 117.99C195.847 119.23 197.547 119.91 200.367 119.91C203.207 119.91 204.887 119.23 204.887 117.99C204.887 116.77 203.207 116.07 200.367 116.07ZM200.387 103.47C204.307 103.47 206.747 104.73 206.747 106.85C206.747 108.95 204.307 110.19 200.387 110.19C196.447 110.19 194.027 108.95 194.027 106.85C194.027 104.73 196.447 103.47 200.387 103.47ZM200.387 104.77C197.507 104.77 195.727 105.53 195.727 106.85C195.727 108.15 197.507 108.91 200.387 108.91C203.267 108.91 205.047 108.15 205.047 106.85C205.047 105.53 203.267 104.77 200.387 104.77ZM222.865 103.15H224.525V121.23H222.865V103.15ZM224.125 110.57H227.485V111.97H224.125V110.57ZM210.525 106.03H221.185V107.39H210.525V106.03ZM215.925 108.89C218.485 108.89 220.325 110.61 220.325 113.05C220.325 115.49 218.485 117.21 215.925 117.21C213.385 117.21 211.525 115.49 211.525 113.05C211.525 110.61 213.385 108.89 215.925 108.89ZM215.925 110.27C214.285 110.27 213.105 111.41 213.105 113.05C213.105 114.67 214.285 115.83 215.925 115.83C217.565 115.83 218.745 114.67 218.745 113.05C218.745 111.41 217.565 110.27 215.925 110.27ZM215.065 103.37H216.725V106.65H215.065V103.37ZM233.803 105.73H235.143V108.67C235.143 112.49 232.843 116.33 229.963 117.75L229.003 116.43C231.623 115.19 233.803 111.79 233.803 108.67V105.73ZM234.123 105.73H235.463V108.67C235.463 111.73 237.643 114.85 240.303 115.99L239.363 117.31C236.443 115.95 234.123 112.43 234.123 108.67V105.73ZM229.603 104.99H239.703V106.39H229.603V104.99ZM242.143 103.15H243.803V121.23H242.143V103.15ZM257.695 104.17C260.395 104.17 262.375 105.89 262.375 108.35C262.375 110.81 260.395 112.53 257.695 112.53C255.015 112.53 253.035 110.81 253.035 108.35C253.035 105.89 255.015 104.17 257.695 104.17ZM257.695 105.53C255.975 105.53 254.655 106.71 254.655 108.35C254.655 109.99 255.975 111.17 257.695 111.17C259.455 111.17 260.775 109.99 260.775 108.35C260.775 106.71 259.455 105.53 257.695 105.53ZM265.075 103.15H266.735V112.15H265.075V103.15ZM266.015 107.21H269.415V108.57H266.015V107.21ZM254.595 119.39H255.455C256.535 119.39 258.275 119.29 259.815 118.77L260.095 120.11C258.355 120.67 256.695 120.75 255.455 120.75H254.595V119.39ZM254.595 114.11H256.215V119.87H254.595V114.11ZM259.435 114.23H268.515V115.47H259.435V114.23ZM263.995 116.11C265.955 116.11 267.335 117.09 267.335 118.65C267.335 120.23 265.955 121.21 263.995 121.21C262.015 121.21 260.635 120.23 260.635 118.65C260.635 117.09 262.015 116.11 263.995 116.11ZM263.995 117.29C262.875 117.29 262.115 117.83 262.115 118.65C262.115 119.49 262.875 120.03 263.995 120.03C265.075 120.03 265.855 119.49 265.855 118.65C265.855 117.83 265.075 117.29 263.995 117.29ZM263.175 112.61H264.795V115.19H263.175V112.61ZM272.833 104.95H284.473V106.33H272.833V104.95ZM271.113 117.33H287.453V118.71H271.113V117.33ZM277.453 110.87H279.113V118.01H277.453V110.87ZM283.853 104.95H285.493V106.75C285.493 108.99 285.493 111.47 284.833 115.13L283.173 114.91C283.853 111.45 283.853 108.91 283.853 106.75V104.95ZM302.125 103.45H303.545V104.25C303.545 107.45 300.065 109.75 296.365 110.35L295.745 109.03C298.985 108.59 302.125 106.59 302.125 104.25V103.45ZM302.385 103.45H303.805V104.25C303.805 106.55 306.985 108.59 310.185 109.03L309.565 110.35C305.885 109.75 302.385 107.39 302.385 104.25V103.45ZM294.785 111.77H311.125V113.13H294.785V111.77ZM302.945 114.79C306.825 114.79 309.145 115.95 309.145 117.99C309.145 120.07 306.825 121.21 302.945 121.21C299.065 121.21 296.745 120.07 296.745 117.99C296.745 115.95 299.065 114.79 302.945 114.79ZM302.945 116.07C300.125 116.07 298.425 116.79 298.425 117.99C298.425 119.23 300.125 119.93 302.945 119.93C305.785 119.93 307.465 119.23 307.465 117.99C307.465 116.79 305.785 116.07 302.945 116.07ZM326.363 103.13H328.023V121.25H326.363V103.13ZM314.243 115.51H315.743C318.763 115.51 321.463 115.39 324.663 114.87L324.843 116.23C321.563 116.77 318.843 116.89 315.743 116.89H314.243V115.51ZM314.203 104.83H322.563V111.29H315.903V116.03H314.243V109.93H320.883V106.19H314.203V104.83ZM345.242 103.17H346.822V114.35H345.242V103.17ZM342.302 108.11H345.722V109.47H342.302V108.11ZM341.402 103.43H342.982V114.09H341.402V103.43ZM331.502 105.21H340.662V106.53H331.502V105.21ZM336.102 107.43C338.362 107.43 339.942 108.65 339.942 110.53C339.942 112.41 338.362 113.63 336.102 113.63C333.822 113.63 332.242 112.41 332.242 110.53C332.242 108.65 333.822 107.43 336.102 107.43ZM336.102 108.69C334.682 108.69 333.722 109.41 333.722 110.53C333.722 111.65 334.682 112.39 336.102 112.39C337.502 112.39 338.462 111.65 338.462 110.53C338.462 109.41 337.502 108.69 336.102 108.69ZM335.282 103.23H336.902V105.99H335.282V103.23ZM336.362 114.89H337.642V115.51C337.642 117.79 336.142 120.07 333.522 121.01L332.742 119.77C335.002 119.01 336.362 117.15 336.362 115.51V114.89ZM336.742 114.89H337.962V115.51C337.962 117.25 339.022 119.09 341.182 119.91L340.482 121.17C337.902 120.21 336.742 117.81 336.742 115.51V114.89ZM343.002 114.89H344.222V115.51C344.222 117.55 343.042 120.13 340.482 121.17L339.802 119.91C341.902 118.99 343.002 117.01 343.002 115.51V114.89ZM343.342 114.89H344.622V115.51C344.622 117.27 345.982 119.05 348.262 119.77L347.462 121.01C344.822 120.11 343.342 117.91 343.342 115.51V114.89ZM358.16 103.45C362.14 103.45 364.52 104.57 364.52 106.59C364.52 108.61 362.14 109.73 358.16 109.73C354.16 109.73 351.8 108.61 351.8 106.59C351.8 104.57 354.16 103.45 358.16 103.45ZM358.16 104.71C355.2 104.71 353.5 105.39 353.5 106.59C353.5 107.79 355.2 108.47 358.16 108.47C361.1 108.47 362.8 107.79 362.8 106.59C362.8 105.39 361.1 104.71 358.16 104.71ZM349.98 110.93H366.32V112.27H349.98V110.93ZM351.96 113.81H364.24V117.89H353.64V120.09H352V116.69H362.6V115.09H351.96V113.81ZM352 119.73H364.78V121.03H352V119.73ZM382.331 106.47H387.171V107.83H382.331V106.47ZM382.171 110.23H387.051V111.59H382.171V110.23ZM386.891 103.15H388.551V113.99H386.891V103.15ZM381.231 104.51H383.011C383.011 109.17 379.791 112.43 374.591 113.99L373.911 112.65C378.531 111.31 381.231 108.65 381.231 105.23V104.51ZM374.851 104.51H382.371V105.87H374.851V104.51ZM382.671 114.19C386.331 114.19 388.651 115.49 388.651 117.67C388.651 119.85 386.331 121.15 382.671 121.15C379.011 121.15 376.691 119.85 376.691 117.67C376.691 115.49 379.011 114.19 382.671 114.19ZM382.671 115.49C380.031 115.49 378.331 116.31 378.331 117.67C378.331 119.03 380.031 119.83 382.671 119.83C385.331 119.83 387.031 119.03 387.031 117.67C387.031 116.31 385.331 115.49 382.671 115.49ZM392.07 113.51H408.47V114.87H392.07V113.51ZM399.39 114.35H401.03V121.23H399.39V114.35ZM400.23 103.87C404.01 103.87 406.55 105.41 406.55 107.83C406.55 110.25 404.01 111.79 400.23 111.79C396.47 111.79 393.91 110.25 393.91 107.83C393.91 105.41 396.47 103.87 400.23 103.87ZM400.23 105.21C397.47 105.21 395.59 106.23 395.59 107.83C395.59 109.43 397.47 110.45 400.23 110.45C402.99 110.45 404.85 109.43 404.85 107.83C404.85 106.23 402.99 105.21 400.23 105.21ZM415.761 114.09H432.141V115.47H415.761V114.09ZM423.121 114.49H424.761V121.25H423.121V114.49ZM417.941 110.89H430.321V112.25H417.941V110.89ZM417.941 103.99H430.121V105.33H419.581V111.29H417.941V103.99ZM419.101 107.41H429.681V108.71H419.101V107.41ZM441.48 103.79H442.94V104.79C442.94 108.25 439.42 110.73 435.66 111.37L435 110.03C438.3 109.53 441.48 107.37 441.48 104.79V103.79ZM441.78 103.79H443.22V104.79C443.22 107.31 446.44 109.53 449.7 110.03L449.04 111.37C445.32 110.73 441.78 108.21 441.78 104.79V103.79ZM441.48 114.35H443.12V121.23H441.48V114.35ZM434.18 113.33H450.52V114.71H434.18V113.33ZM459.898 110.17H463.318V111.55H459.898V110.17ZM466.338 103.15H467.938V121.23H466.338V103.15ZM462.758 103.53H464.338V120.33H462.758V103.53ZM456.638 104.65C458.978 104.65 460.498 107.07 460.498 110.95C460.498 114.83 458.978 117.25 456.638 117.25C454.298 117.25 452.798 114.83 452.798 110.95C452.798 107.07 454.298 104.65 456.638 104.65ZM456.638 106.19C455.218 106.19 454.318 108.03 454.318 110.95C454.318 113.87 455.218 115.71 456.638 115.71C458.078 115.71 458.978 113.87 458.978 110.95C458.978 108.03 458.078 106.19 456.638 106.19ZM484.737 103.15H486.337V121.23H484.737V103.15ZM476.897 110.53H481.457V111.87H476.897V110.53ZM480.977 103.61H482.537V120.31H480.977V103.61ZM477.117 105.43H478.717C478.717 110.17 476.817 114.43 471.937 117.33L470.957 116.15C475.217 113.59 477.117 109.99 477.117 105.73V105.43ZM471.757 105.43H477.737V106.79H471.757V105.43ZM501.908 104.93H503.348V105.69C503.348 108.93 499.908 111.31 496.268 111.93L495.628 110.61C498.808 110.15 501.908 108.07 501.908 105.69V104.93ZM502.328 104.93H503.748V105.69C503.748 108.07 506.868 110.15 510.028 110.61L509.408 111.93C505.748 111.31 502.328 108.93 502.328 105.69V104.93ZM501.968 114.33H503.608V121.23H501.968V114.33ZM494.668 113.45H511.008V114.81H494.668V113.45ZM496.188 104.27H509.428V105.61H496.188V104.27ZM517.886 104.53C520.506 104.53 522.386 106.99 522.386 110.83C522.386 114.69 520.506 117.15 517.886 117.15C515.246 117.15 513.386 114.69 513.386 110.83C513.386 106.99 515.246 104.53 517.886 104.53ZM517.886 106.03C516.146 106.03 514.966 107.91 514.966 110.83C514.966 113.77 516.146 115.69 517.886 115.69C519.626 115.69 520.806 113.77 520.806 110.83C520.806 107.91 519.626 106.03 517.886 106.03ZM526.306 103.13H527.946V121.25H526.306V103.13ZM521.846 110.03H527.026V111.39H521.846V110.03ZM29.78 129.73H31.12V132.67C31.12 136.49 28.82 140.33 25.94 141.75L24.98 140.43C27.6 139.19 29.78 135.79 29.78 132.67V129.73ZM30.1 129.73H31.44V132.67C31.44 135.73 33.62 138.85 36.28 139.99L35.34 141.31C32.42 139.95 30.1 136.43 30.1 132.67V129.73ZM25.58 128.99H35.68V130.39H25.58V128.99ZM38.12 127.15H39.78V145.23H38.12V127.15ZM45.5984 132.57H57.8784V133.93H45.5984V132.57ZM43.3784 136.35H59.7784V137.71H43.3784V136.35ZM45.5984 127.81H47.2384V133.25H45.5984V127.81ZM45.4784 143.43H57.9784V144.79H45.4784V143.43ZM45.4784 139.51H47.1184V143.79H45.4784V139.51ZM80.2498 127.15H81.9098V145.23H80.2498V127.15ZM74.9498 129.09H76.5898C76.5898 134.33 74.2298 138.91 68.1898 141.87L67.3098 140.53C72.5298 138.01 74.9498 134.17 74.9498 129.37V129.09ZM68.1298 129.09H75.6698V130.45H68.1298V129.09ZM85.4683 137.09H101.868V138.45H85.4683V137.09ZM87.5483 127.61H99.7483V131.99H89.2283V134.43H87.5883V130.77H98.1283V128.91H87.5483V127.61ZM87.5883 133.89H100.148V135.19H87.5883V133.89ZM92.8283 134.57H94.4883V137.77H92.8283V134.57ZM87.2883 139.83H99.8683V145.07H98.2083V141.19H87.2883V139.83ZM117.027 127.15H118.707V136.85H117.027V127.15ZM107.047 137.75H108.687V139.95H117.067V137.75H118.707V144.99H107.047V137.75ZM108.687 141.27V143.65H117.067V141.27H108.687ZM109.007 128.01C111.747 128.01 113.707 129.71 113.707 132.17C113.707 134.65 111.747 136.35 109.007 136.35C106.267 136.35 104.287 134.65 104.287 132.17C104.287 129.71 106.267 128.01 109.007 128.01ZM109.007 129.39C107.207 129.39 105.907 130.53 105.907 132.17C105.907 133.81 107.207 134.95 109.007 134.95C110.807 134.95 112.107 133.81 112.107 132.17C112.107 130.53 110.807 129.39 109.007 129.39ZM135.425 127.15H137.085V145.23H135.425V127.15ZM123.425 128.91H125.065V140.11H123.425V128.91ZM123.425 139.13H124.905C127.645 139.13 130.505 138.93 133.565 138.29L133.765 139.71C130.625 140.35 127.765 140.57 124.905 140.57H123.425V139.13ZM152.904 127.13H154.584V145.25H152.904V127.13ZM154.184 134.27H157.544V135.67H154.184V134.27ZM141.444 139.35H142.864C146.204 139.35 148.544 139.23 151.244 138.73L151.424 140.13C148.644 140.65 146.264 140.75 142.864 140.75H141.444V139.35ZM141.444 128.89H149.844V130.25H143.084V139.97H141.444V128.89ZM160.909 143.805C160.52 143.805 160.187 143.668 159.907 143.393C159.628 143.114 159.488 142.777 159.488 142.384C159.488 141.996 159.628 141.665 159.907 141.39C160.187 141.111 160.52 140.971 160.909 140.971C161.297 140.971 161.631 141.111 161.91 141.39C162.19 141.665 162.329 141.996 162.329 142.384C162.329 142.645 162.263 142.884 162.13 143.102C162.002 143.315 161.832 143.485 161.619 143.613C161.406 143.741 161.169 143.805 160.909 143.805ZM174.465 134.65H176.125V137.39H174.465V134.65ZM175.245 127.97C177.865 127.97 179.705 129.41 179.705 131.55C179.705 133.69 177.865 135.11 175.245 135.11C172.645 135.11 170.805 133.69 170.805 131.55C170.805 129.41 172.645 127.97 175.245 127.97ZM175.245 129.25C173.545 129.25 172.365 130.19 172.365 131.55C172.365 132.93 173.545 133.85 175.245 133.85C176.965 133.85 178.145 132.93 178.145 131.55C178.145 130.19 176.965 129.25 175.245 129.25ZM182.145 127.17H183.805V140.99H182.145V127.17ZM183.105 133.27H186.445V134.65H183.105V133.27ZM172.365 143.45H184.445V144.83H172.365V143.45ZM172.365 139.81H174.025V144.05H172.365V139.81ZM169.985 138.31L169.765 136.95C172.945 136.95 177.345 136.91 181.025 136.35L181.145 137.57C177.365 138.27 173.085 138.31 169.985 138.31ZM188.183 136.21H204.523V137.55H188.183V136.21ZM195.543 133.69H197.183V136.65H195.543V133.69ZM196.343 138.89C200.223 138.89 202.523 140.03 202.523 142.05C202.523 144.07 200.223 145.19 196.343 145.19C192.483 145.19 190.163 144.07 190.163 142.05C190.163 140.03 192.483 138.89 196.343 138.89ZM196.343 140.17C193.503 140.17 191.843 140.85 191.843 142.05C191.843 143.25 193.503 143.93 196.343 143.93C199.183 143.93 200.843 143.25 200.843 142.05C200.843 140.85 199.183 140.17 196.343 140.17ZM190.363 127.61H192.003V129.61H200.743V127.61H202.403V134.29H190.363V127.61ZM192.003 130.91V132.95H200.743V130.91H192.003ZM206.582 136.65H222.922V138.01H206.582V136.65ZM208.702 143.47H221.122V144.83H208.702V143.47ZM208.702 139.59H210.362V143.89H208.702V139.59ZM214.762 127.75C218.622 127.75 221.122 129.11 221.122 131.37C221.122 133.61 218.622 134.97 214.762 134.97C210.882 134.97 208.402 133.61 208.402 131.37C208.402 129.11 210.882 127.75 214.762 127.75ZM214.762 129.11C211.922 129.11 210.102 129.95 210.102 131.37C210.102 132.79 211.922 133.63 214.762 133.63C217.602 133.63 219.422 132.79 219.422 131.37C219.422 129.95 217.602 129.11 214.762 129.11ZM238.513 129.75H244.033V131.11H238.513V129.75ZM238.513 133.91H244.033V135.29H238.513V133.91ZM235.213 128.21C237.873 128.21 239.873 130.01 239.873 132.51C239.873 135.03 237.873 136.81 235.213 136.81C232.533 136.81 230.553 135.03 230.553 132.51C230.553 130.01 232.533 128.21 235.213 128.21ZM235.213 129.63C233.453 129.63 232.153 130.81 232.153 132.51C232.153 134.21 233.453 135.39 235.213 135.39C236.973 135.39 238.293 134.21 238.293 132.51C238.293 130.81 236.973 129.63 235.213 129.63ZM243.493 127.15H245.153V137.85H243.493V127.15ZM239.213 138.27C242.933 138.27 245.233 139.55 245.233 141.73C245.233 143.93 242.933 145.19 239.213 145.19C235.473 145.19 233.173 143.93 233.173 141.73C233.173 139.55 235.473 138.27 239.213 138.27ZM239.213 139.59C236.473 139.59 234.813 140.39 234.813 141.73C234.813 143.09 236.473 143.89 239.213 143.89C241.933 143.89 243.593 143.09 243.593 141.73C243.593 140.39 241.933 139.59 239.213 139.59ZM253.511 128.53C256.131 128.53 258.011 130.99 258.011 134.83C258.011 138.69 256.131 141.15 253.511 141.15C250.871 141.15 249.011 138.69 249.011 134.83C249.011 130.99 250.871 128.53 253.511 128.53ZM253.511 130.03C251.771 130.03 250.591 131.91 250.591 134.83C250.591 137.77 251.771 139.69 253.511 139.69C255.251 139.69 256.431 137.77 256.431 134.83C256.431 131.91 255.251 130.03 253.511 130.03ZM261.931 127.13H263.571V145.25H261.931V127.13ZM257.471 134.03H262.651V135.39H257.471V134.03ZM267.09 141.63H283.47V143.01H267.09V141.63ZM274.41 137.75H276.07V142.21H274.41V137.75ZM269.07 128.49H281.45V133.97H270.77V137.59H269.13V132.63H279.81V129.83H269.07V128.49ZM269.13 136.89H281.87V138.25H269.13V136.89ZM290.79 133.67V132.306C290.79 131.904 290.866 131.48 291.017 131.035C291.169 130.59 291.379 130.164 291.649 129.757C291.919 129.349 292.236 129.001 292.601 128.713L293.652 129.465C293.363 129.887 293.117 130.327 292.913 130.786C292.71 131.246 292.608 131.745 292.608 132.285V133.67H290.79ZM304.739 128.95H308.439V131.07H304.739V128.95ZM304.739 132.45H308.439V134.57H304.739V132.45ZM307.699 126.93H310.359V139.69H307.699V126.93ZM302.799 138.59H305.059V138.97C305.059 141.99 302.519 144.77 297.899 145.39L296.939 143.33C300.839 142.81 302.799 140.71 302.799 138.97V138.59ZM303.259 138.59H305.519V138.97C305.519 140.83 307.379 142.81 311.379 143.33L310.419 145.39C305.779 144.75 303.259 142.13 303.259 138.97V138.59ZM299.099 127.79H301.279V129.53C301.279 133.33 299.699 136.65 296.219 137.95L294.759 135.87C297.839 134.77 299.099 132.17 299.099 129.53V127.79ZM299.619 127.79H301.779V129.53C301.779 132.05 302.979 134.53 305.899 135.61L304.439 137.69C301.119 136.41 299.619 133.17 299.619 129.53V127.79ZM318.217 128.21C321.037 128.21 323.077 130.77 323.077 134.81C323.077 138.89 321.037 141.45 318.217 141.45C315.397 141.45 313.357 138.89 313.357 134.81C313.357 130.77 315.397 128.21 318.217 128.21ZM318.217 130.63C316.837 130.63 315.917 132.09 315.917 134.81C315.917 137.57 316.837 139.05 318.217 139.05C319.597 139.05 320.537 137.57 320.537 134.81C320.537 132.09 319.597 130.63 318.217 130.63ZM325.097 126.93H327.777V145.45H325.097V126.93ZM327.177 133.91H330.457V136.11H327.177V133.91ZM331.655 135.05H348.415V137.19H331.655V135.05ZM338.675 135.99H341.315V138.93H338.675V135.99ZM338.615 139.67H340.875V139.99C340.875 142.69 338.355 144.95 333.595 145.39L332.735 143.39C336.775 143.03 338.615 141.41 338.615 139.99V139.67ZM339.095 139.67H341.355V139.99C341.355 141.51 343.135 143.05 347.235 143.39L346.395 145.39C341.655 144.95 339.095 142.81 339.095 139.99V139.67ZM340.035 127.13C344.135 127.13 346.735 128.43 346.735 130.63C346.735 132.83 344.135 134.13 340.035 134.13C335.935 134.13 333.335 132.83 333.335 130.63C333.335 128.43 335.935 127.13 340.035 127.13ZM340.035 129.11C337.475 129.11 336.075 129.61 336.075 130.63C336.075 131.61 337.475 132.13 340.035 132.13C342.575 132.13 343.995 131.61 343.995 130.63C343.995 129.61 342.575 129.11 340.035 129.11ZM351.129 137.839C351.129 136.078 351.363 134.456 351.832 132.974C352.306 131.492 353.028 130.119 353.998 128.855H356.889C356.52 129.323 356.176 129.896 355.859 130.573C355.542 131.246 355.265 131.984 355.028 132.789C354.791 133.594 354.607 134.427 354.474 135.289C354.342 136.146 354.275 136.996 354.275 137.839C354.275 138.961 354.389 140.095 354.616 141.241C354.848 142.382 355.161 143.443 355.554 144.423C355.951 145.403 356.396 146.205 356.889 146.83H353.998C353.028 145.566 352.306 144.193 351.832 142.711C351.363 141.229 351.129 139.605 351.129 137.839ZM367.722 135.872L364.952 136.042C364.904 135.805 364.803 135.592 364.646 135.403C364.49 135.209 364.284 135.055 364.028 134.941C363.777 134.823 363.477 134.764 363.126 134.764C362.658 134.764 362.262 134.863 361.94 135.062C361.618 135.256 361.457 135.517 361.457 135.843C361.457 136.104 361.562 136.324 361.77 136.504C361.978 136.684 362.336 136.828 362.842 136.937L364.817 137.335C365.877 137.552 366.668 137.903 367.189 138.386C367.71 138.869 367.97 139.503 367.97 140.289C367.97 141.004 367.759 141.632 367.338 142.171C366.921 142.711 366.348 143.133 365.619 143.436C364.895 143.734 364.059 143.883 363.112 143.883C361.668 143.883 360.518 143.582 359.661 142.981C358.808 142.375 358.309 141.551 358.162 140.509L361.138 140.353C361.228 140.794 361.446 141.13 361.791 141.362C362.137 141.589 362.58 141.703 363.119 141.703C363.65 141.703 364.076 141.601 364.398 141.397C364.724 141.189 364.89 140.921 364.895 140.595C364.89 140.32 364.774 140.095 364.547 139.92C364.32 139.74 363.969 139.603 363.496 139.508L361.607 139.132C360.541 138.919 359.748 138.549 359.227 138.024C358.711 137.498 358.453 136.828 358.453 136.014C358.453 135.313 358.643 134.709 359.021 134.203C359.405 133.696 359.942 133.305 360.634 133.031C361.33 132.756 362.144 132.619 363.077 132.619C364.455 132.619 365.539 132.91 366.33 133.492C367.125 134.075 367.589 134.868 367.722 135.872ZM372.901 137.363V143.67H369.875V129.124H372.816V134.686H372.944C373.19 134.042 373.587 133.537 374.137 133.173C374.686 132.803 375.375 132.619 376.203 132.619C376.961 132.619 377.622 132.785 378.185 133.116C378.753 133.443 379.194 133.914 379.506 134.529C379.823 135.14 379.98 135.872 379.975 136.724V143.67H376.949V137.264C376.954 136.591 376.783 136.068 376.438 135.694C376.097 135.32 375.619 135.133 375.003 135.133C374.591 135.133 374.227 135.221 373.909 135.396C373.597 135.571 373.351 135.827 373.171 136.163C372.996 136.494 372.906 136.894 372.901 137.363ZM389.352 139.025V132.761H392.377V143.67H389.472V141.688H389.359C389.112 142.328 388.703 142.841 388.13 143.23C387.562 143.618 386.868 143.812 386.049 143.812C385.32 143.812 384.678 143.646 384.124 143.315C383.57 142.983 383.137 142.512 382.825 141.901C382.517 141.291 382.361 140.559 382.356 139.707V132.761H385.381V139.167C385.386 139.811 385.559 140.32 385.9 140.694C386.241 141.068 386.698 141.255 387.271 141.255C387.635 141.255 387.976 141.172 388.293 141.007C388.611 140.836 388.866 140.585 389.06 140.254C389.259 139.922 389.356 139.513 389.352 139.025ZM400.6 132.761V135.034H394.03V132.761H400.6ZM395.522 130.147H398.547V140.318C398.547 140.597 398.59 140.815 398.675 140.971C398.76 141.123 398.879 141.229 399.03 141.291C399.186 141.352 399.366 141.383 399.57 141.383C399.712 141.383 399.854 141.371 399.996 141.347C400.138 141.319 400.247 141.298 400.323 141.284L400.799 143.535C400.647 143.582 400.434 143.637 400.159 143.698C399.885 143.765 399.551 143.805 399.158 143.819C398.429 143.847 397.79 143.75 397.24 143.528C396.696 143.305 396.272 142.96 395.969 142.491C395.666 142.022 395.517 141.43 395.522 140.715V130.147ZM407.382 143.883C406.279 143.883 405.325 143.649 404.52 143.18C403.72 142.706 403.102 142.048 402.667 141.205C402.231 140.358 402.013 139.375 402.013 138.258C402.013 137.131 402.231 136.146 402.667 135.303C403.102 134.456 403.72 133.798 404.52 133.329C405.325 132.856 406.279 132.619 407.382 132.619C408.486 132.619 409.437 132.856 410.238 133.329C411.042 133.798 411.663 134.456 412.098 135.303C412.534 136.146 412.752 137.131 412.752 138.258C412.752 139.375 412.534 140.358 412.098 141.205C411.663 142.048 411.042 142.706 410.238 143.18C409.437 143.649 408.486 143.883 407.382 143.883ZM407.397 141.539C407.899 141.539 408.318 141.397 408.654 141.113C408.99 140.824 409.243 140.431 409.414 139.934C409.589 139.437 409.676 138.871 409.676 138.237C409.676 137.602 409.589 137.036 409.414 136.539C409.243 136.042 408.99 135.649 408.654 135.36C408.318 135.071 407.899 134.927 407.397 134.927C406.89 134.927 406.464 135.071 406.118 135.36C405.777 135.649 405.519 136.042 405.344 136.539C405.174 137.036 405.088 137.602 405.088 138.237C405.088 138.871 405.174 139.437 405.344 139.934C405.519 140.431 405.777 140.824 406.118 141.113C406.464 141.397 406.89 141.539 407.397 141.539ZM421.715 139.025V132.761H424.74V143.67H421.836V141.688H421.722C421.476 142.328 421.066 142.841 420.493 143.23C419.925 143.618 419.231 143.812 418.412 143.812C417.683 143.812 417.042 143.646 416.488 143.315C415.934 142.983 415.5 142.512 415.188 141.901C414.88 141.291 414.724 140.559 414.719 139.707V132.761H417.745V139.167C417.749 139.811 417.922 140.32 418.263 140.694C418.604 141.068 419.061 141.255 419.634 141.255C419.998 141.255 420.339 141.172 420.657 141.007C420.974 140.836 421.23 140.585 421.424 140.254C421.623 139.922 421.72 139.513 421.715 139.025ZM432.963 132.761V135.034H426.393V132.761H432.963ZM427.885 130.147H430.911V140.318C430.911 140.597 430.953 140.815 431.038 140.971C431.124 141.123 431.242 141.229 431.393 141.291C431.55 141.352 431.73 141.383 431.933 141.383C432.075 141.383 432.217 141.371 432.359 141.347C432.501 141.319 432.61 141.298 432.686 141.284L433.162 143.535C433.01 143.582 432.797 143.637 432.523 143.698C432.248 143.765 431.914 143.805 431.521 143.819C430.792 143.847 430.153 143.75 429.604 143.528C429.059 143.305 428.635 142.96 428.332 142.491C428.029 142.022 427.88 141.43 427.885 140.715V130.147ZM440.033 137.839C440.033 139.605 439.797 141.229 439.323 142.711C438.854 144.193 438.135 145.566 437.164 146.83H434.273C434.643 146.362 434.986 145.789 435.303 145.112C435.621 144.435 435.897 143.696 436.134 142.896C436.371 142.091 436.556 141.258 436.688 140.396C436.821 139.534 436.887 138.682 436.887 137.839C436.887 136.717 436.771 135.585 436.539 134.444C436.312 133.298 435.999 132.238 435.602 131.262C435.209 130.282 434.766 129.48 434.273 128.855H437.164C438.135 130.119 438.854 131.492 439.323 132.974C439.797 134.456 440.033 136.078 440.033 137.839ZM445.163 129.124V130.488C445.163 130.891 445.087 131.314 444.936 131.759C444.789 132.2 444.581 132.624 444.311 133.031C444.041 133.438 443.724 133.788 443.359 134.082L442.308 133.329C442.587 132.922 442.829 132.489 443.032 132.029C443.241 131.57 443.345 131.063 443.345 130.509V129.124H445.163ZM460.015 127.13H461.675V145.25H460.015V127.13ZM452.135 128.53C454.815 128.53 456.735 130.99 456.735 134.83C456.735 138.69 454.815 141.15 452.135 141.15C449.475 141.15 447.555 138.69 447.555 134.83C447.555 130.99 449.475 128.53 452.135 128.53ZM452.135 130.03C450.375 130.03 449.135 131.91 449.135 134.83C449.135 137.77 450.375 139.69 452.135 139.69C453.915 139.69 455.135 137.77 455.135 134.83C455.135 131.91 453.915 130.03 452.135 130.03ZM477.533 127.13H479.193V145.25H477.533V127.13ZM478.793 134.33H482.153V135.73H478.793V134.33ZM466.013 139.51H467.453C470.853 139.51 473.213 139.39 475.953 138.87L476.133 140.25C473.313 140.75 470.913 140.89 467.453 140.89H466.013V139.51ZM465.973 128.83H474.153V135.31H467.653V140.07H466.013V133.95H472.513V130.19H465.973V128.83ZM485.411 128.95H497.051V130.33H485.411V128.95ZM483.691 141.33H500.031V142.71H483.691V141.33ZM490.031 134.87H491.691V142.01H490.031V134.87ZM496.431 128.95H498.071V130.75C498.071 132.99 498.071 135.47 497.411 139.13L495.751 138.91C496.431 135.45 496.431 132.91 496.431 130.75V128.95ZM519.623 127.15H521.283V145.23H519.623V127.15ZM520.883 134.57H524.243V135.97H520.883V134.57ZM507.283 130.03H517.943V131.39H507.283V130.03ZM512.683 132.89C515.243 132.89 517.083 134.61 517.083 137.05C517.083 139.49 515.243 141.21 512.683 141.21C510.143 141.21 508.283 139.49 508.283 137.05C508.283 134.61 510.143 132.89 512.683 132.89ZM512.683 134.27C511.043 134.27 509.863 135.41 509.863 137.05C509.863 138.67 511.043 139.83 512.683 139.83C514.323 139.83 515.503 138.67 515.503 137.05C515.503 135.41 514.323 134.27 512.683 134.27ZM511.823 127.37H513.483V130.65H511.823V127.37ZM534.081 131.47H539.661V132.83H534.081V131.47ZM534.081 136.45H539.661V137.83H534.081V136.45ZM526.501 128.91H534.721V140.67H526.501V128.91ZM533.081 130.25H528.121V139.33H533.081V130.25ZM539.021 127.13H540.661V145.25H539.021V127.13ZM29.66 158.65H31.32V161.39H29.66V158.65ZM30.44 151.97C33.06 151.97 34.9 153.41 34.9 155.55C34.9 157.69 33.06 159.11 30.44 159.11C27.84 159.11 26 157.69 26 155.55C26 153.41 27.84 151.97 30.44 151.97ZM30.44 153.25C28.74 153.25 27.56 154.19 27.56 155.55C27.56 156.93 28.74 157.85 30.44 157.85C32.16 157.85 33.34 156.93 33.34 155.55C33.34 154.19 32.16 153.25 30.44 153.25ZM37.34 151.17H39V164.99H37.34V151.17ZM38.3 157.27H41.64V158.65H38.3V157.27ZM27.56 167.45H39.64V168.83H27.56V167.45ZM27.56 163.81H29.22V168.05H27.56V163.81ZM25.18 162.31L24.96 160.95C28.14 160.95 32.54 160.91 36.22 160.35L36.34 161.57C32.56 162.27 28.28 162.31 25.18 162.31ZM43.3784 160.21H59.7184V161.55H43.3784V160.21ZM50.7384 157.69H52.3784V160.65H50.7384V157.69ZM51.5384 162.89C55.4184 162.89 57.7184 164.03 57.7184 166.05C57.7184 168.07 55.4184 169.19 51.5384 169.19C47.6784 169.19 45.3584 168.07 45.3584 166.05C45.3584 164.03 47.6784 162.89 51.5384 162.89ZM51.5384 164.17C48.6984 164.17 47.0384 164.85 47.0384 166.05C47.0384 167.25 48.6984 167.93 51.5384 167.93C54.3784 167.93 56.0384 167.25 56.0384 166.05C56.0384 164.85 54.3784 164.17 51.5384 164.17ZM45.5584 151.61H47.1984V153.61H55.9384V151.61H57.5984V158.29H45.5584V151.61ZM47.1984 154.91V156.95H55.9384V154.91H47.1984ZM70.4369 154.47H75.2769V155.83H70.4369V154.47ZM70.2769 158.23H75.1569V159.59H70.2769V158.23ZM74.9969 151.15H76.6569V161.99H74.9969V151.15ZM69.3369 152.51H71.1169C71.1169 157.17 67.8969 160.43 62.6969 161.99L62.0169 160.65C66.6369 159.31 69.3369 156.65 69.3369 153.23V152.51ZM62.9569 152.51H70.4769V153.87H62.9569V152.51ZM70.7769 162.19C74.4369 162.19 76.7569 163.49 76.7569 165.67C76.7569 167.85 74.4369 169.15 70.7769 169.15C67.1169 169.15 64.7969 167.85 64.7969 165.67C64.7969 163.49 67.1169 162.19 70.7769 162.19ZM70.7769 163.49C68.1369 163.49 66.4369 164.31 66.4369 165.67C66.4369 167.03 68.1369 167.83 70.7769 167.83C73.4369 167.83 75.1369 167.03 75.1369 165.67C75.1369 164.31 73.4369 163.49 70.7769 163.49ZM93.3553 151.15H95.0153V169.23H93.3553V151.15ZM88.0553 153.09H89.6953C89.6953 158.33 87.3353 162.91 81.2953 165.87L80.4153 164.53C85.6353 162.01 88.0553 158.17 88.0553 153.37V153.09ZM81.2353 153.09H88.7753V154.45H81.2353V153.09ZM100.794 156.57H113.074V157.93H100.794V156.57ZM98.5738 160.35H114.974V161.71H98.5738V160.35ZM100.794 151.81H102.434V157.25H100.794V151.81ZM100.674 167.43H113.174V168.79H100.674V167.43ZM100.674 163.51H102.314V167.79H100.674V163.51ZM122.294 157.67V156.306C122.294 155.904 122.369 155.48 122.521 155.035C122.672 154.59 122.883 154.164 123.153 153.757C123.423 153.349 123.74 153.001 124.105 152.713L125.156 153.465C124.867 153.887 124.621 154.327 124.417 154.786C124.214 155.246 124.112 155.745 124.112 156.285V157.67H122.294ZM136.223 153.57H140.283V154.93H136.223V153.57ZM136.223 157.19H140.283V158.55H136.223V157.19ZM139.783 151.15H141.443V163.79H139.783V151.15ZM134.763 162.53H136.183V163.01C136.183 166.23 132.983 168.53 129.303 169.17L128.683 167.85C131.883 167.35 134.763 165.41 134.763 163.01V162.53ZM135.043 162.53H136.463V163.01C136.463 165.47 139.303 167.35 142.563 167.85L141.923 169.17C138.243 168.53 135.043 166.31 135.043 163.01V162.53ZM131.063 151.99H132.423V153.87C132.423 157.49 130.523 160.45 127.543 161.69L126.623 160.39C129.343 159.33 131.063 156.77 131.063 153.87V151.99ZM131.343 151.99H132.683V153.87C132.683 156.55 134.423 159.03 137.043 160.07L136.122 161.37C133.223 160.19 131.343 157.25 131.343 153.87V151.99ZM149.761 152.53C152.421 152.53 154.301 154.99 154.301 158.83C154.301 162.69 152.421 165.15 149.761 165.15C147.101 165.15 145.221 162.69 145.221 158.83C145.221 154.99 147.101 152.53 149.761 152.53ZM149.761 154.03C148.001 154.03 146.801 155.91 146.801 158.83C146.801 161.77 148.001 163.69 149.761 163.69C151.501 163.69 152.721 161.77 152.721 158.83C152.721 155.91 151.501 154.03 149.761 154.03ZM157.181 151.15H158.861V169.23H157.181V151.15ZM158.461 158.37H161.821V159.77H158.461V158.37ZM163.339 159.41H179.739V160.77H163.339V159.41ZM170.679 159.99H172.299V162.75H170.679V159.99ZM170.639 163.59H172.059V164.15C172.059 166.91 168.859 168.73 165.079 169.17L164.539 167.89C167.799 167.55 170.639 166.07 170.639 164.15V163.59ZM170.919 163.59H172.339V164.15C172.339 166.13 175.159 167.57 178.439 167.89L177.899 169.17C174.139 168.73 170.919 166.97 170.919 164.15V163.59ZM171.519 151.41C175.439 151.41 177.879 152.63 177.879 154.73C177.879 156.83 175.439 158.05 171.519 158.05C167.579 158.05 165.159 156.83 165.159 154.73C165.159 152.63 167.579 151.41 171.519 151.41ZM171.519 152.69C168.619 152.69 166.859 153.43 166.859 154.73C166.859 156.01 168.619 156.77 171.519 156.77C174.399 156.77 176.179 156.01 176.179 154.73C176.179 153.43 174.399 152.69 171.519 152.69ZM195.518 151.15H197.118V169.23H195.518V151.15ZM187.678 158.53H192.238V159.87H187.678V158.53ZM191.758 151.61H193.318V168.31H191.758V151.61ZM187.898 153.43H189.498C189.498 158.17 187.598 162.43 182.718 165.33L181.738 164.15C185.998 161.59 187.898 157.99 187.898 153.73V153.43ZM182.538 153.43H188.518V154.79H182.538V153.43ZM213.296 151.17H214.976V161.49H213.296V151.17ZM203.296 162.47H214.976V168.99H203.296V162.47ZM213.336 163.79H204.916V167.65H213.336V163.79ZM205.276 152.11C208.016 152.11 209.976 153.83 209.976 156.33C209.976 158.83 208.016 160.55 205.276 160.55C202.536 160.55 200.556 158.83 200.556 156.33C200.556 153.83 202.536 152.11 205.276 152.11ZM205.276 153.49C203.476 153.49 202.176 154.65 202.176 156.33C202.176 158.01 203.476 159.15 205.276 159.15C207.076 159.15 208.376 158.01 208.376 156.33C208.376 154.65 207.076 153.49 205.276 153.49ZM220.808 153.124V154.488C220.808 154.891 220.732 155.314 220.58 155.759C220.433 156.2 220.225 156.624 219.955 157.031C219.685 157.438 219.368 157.788 219.004 158.082L217.952 157.329C218.232 156.922 218.473 156.489 218.677 156.029C218.885 155.57 218.989 155.063 218.989 154.509V153.124H220.808ZM235.659 151.13H237.319V169.25H235.659V151.13ZM227.779 152.53C230.459 152.53 232.379 154.99 232.379 158.83C232.379 162.69 230.459 165.15 227.779 165.15C225.119 165.15 223.199 162.69 223.199 158.83C223.199 154.99 225.119 152.53 227.779 152.53ZM227.779 154.03C226.019 154.03 224.779 155.91 224.779 158.83C224.779 161.77 226.019 163.69 227.779 163.69C229.559 163.69 230.779 161.77 230.779 158.83C230.779 155.91 229.559 154.03 227.779 154.03ZM253.178 151.13H254.838V169.25H253.178V151.13ZM254.438 158.33H257.798V159.73H254.438V158.33ZM241.658 163.51H243.098C246.498 163.51 248.858 163.39 251.598 162.87L251.778 164.25C248.958 164.75 246.558 164.89 243.098 164.89H241.658V163.51ZM241.618 152.83H249.798V159.31H243.298V164.07H241.658V157.95H248.158V154.19H241.618V152.83ZM261.056 152.95H272.696V154.33H261.056V152.95ZM259.336 165.33H275.676V166.71H259.336V165.33ZM265.676 158.87H267.336V166.01H265.676V158.87ZM272.076 152.95H273.716V154.75C273.716 156.99 273.716 159.47 273.056 163.13L271.396 162.91C272.076 159.45 272.076 156.91 272.076 154.75V152.95ZM295.387 151.17H297.047V164.73H295.387V151.17ZM296.527 157.09H299.727V158.49H296.527V157.09ZM283.067 153.35H293.747V154.69H283.067V153.35ZM288.407 155.69C290.967 155.69 292.727 157.03 292.727 159.07C292.727 161.09 290.967 162.43 288.407 162.43C285.827 162.43 284.067 161.09 284.067 159.07C284.067 157.03 285.827 155.69 288.407 155.69ZM288.407 156.99C286.767 156.99 285.647 157.81 285.647 159.07C285.647 160.31 286.767 161.13 288.407 161.13C290.027 161.13 291.147 160.31 291.147 159.07C291.147 157.81 290.027 156.99 288.407 156.99ZM287.567 151.15H289.227V154.05H287.567V151.15ZM285.787 167.47H297.867V168.83H285.787V167.47ZM285.787 163.65H287.447V168.05H285.787V163.65ZM313.646 151.13H315.326V169.25H313.646V151.13ZM314.926 158.27H318.286V159.67H314.926V158.27ZM302.186 163.35H303.606C306.946 163.35 309.286 163.23 311.986 162.73L312.166 164.13C309.386 164.65 307.006 164.75 303.606 164.75H302.186V163.35ZM302.186 152.89H310.586V154.25H303.826V163.97H302.186V152.89ZM321.651 167.805C321.263 167.805 320.929 167.668 320.65 167.393C320.37 167.114 320.23 166.777 320.23 166.384C320.23 165.996 320.37 165.665 320.65 165.39C320.929 165.111 321.263 164.971 321.651 164.971C322.039 164.971 322.373 165.111 322.652 165.39C322.932 165.665 323.071 165.996 323.071 166.384C323.071 166.645 323.005 166.884 322.873 167.102C322.745 167.315 322.574 167.485 322.361 167.613C322.148 167.741 321.911 167.805 321.651 167.805Z" fill="black"/>
<g clip-path="url(#clip0_1377_208)">
<path d="M213 54.9123C222.941 54.9123 231 46.5626 231 36.2628C231 25.9629 222.941 17.6133 213 17.6133C203.059 17.6133 195 25.9629 195 36.2628C195 46.5626 203.059 54.9123 213 54.9123Z" fill="#E1E8ED"/>
<path d="M226.802 48.2257C223.792 46.8529 222 42.5293 222 36.2631C222 29.9968 223.792 25.6733 226.802 24.3005C226.356 23.753 225.879 23.2327 225.374 22.7422C222.406 24.4569 220 28.5733 220 36.2631C220 43.9518 222.406 48.0692 225.374 49.7839C225.876 49.2897 226.358 48.7758 226.802 48.2257ZM206 36.2631C206 28.5743 203.594 24.4569 200.626 22.7432C200.122 23.2334 199.645 23.7534 199.198 24.3005C202.208 25.6743 204 29.9968 204 36.2631C204 42.5293 202.208 46.8518 199.198 48.2257C199.643 48.7758 200.124 49.2897 200.626 49.7839C203.593 48.0692 206 43.9518 206 36.2631Z" fill="#B3BEC4"/>
<path d="M200.092 28.1443C199.855 28.1443 199.635 28.1236 199.441 28.0863C199.18 28.0357 198.95 27.8799 198.8 27.6532C198.726 27.5409 198.674 27.4146 198.646 27.2814C198.619 27.1483 198.618 27.0109 198.642 26.8771C198.666 26.7434 198.716 26.6159 198.787 26.5019C198.859 26.3879 198.952 26.2897 199.06 26.2128C199.279 26.0576 199.548 25.9988 199.809 26.0493C200.239 26.1291 202.5 26.0555 202.957 23.6912C203.009 23.4218 203.162 23.1848 203.383 23.0325C203.492 22.9571 203.615 22.9047 203.744 22.8783C203.873 22.852 204.005 22.8522 204.134 22.8789C204.263 22.9056 204.385 22.9584 204.494 23.0341C204.603 23.1099 204.697 23.2072 204.77 23.3204C204.843 23.4336 204.893 23.5606 204.919 23.6941C204.944 23.8276 204.944 23.965 204.918 24.0984C204.335 27.1154 201.779 28.1443 200.092 28.1443ZM201.792 32.2482C201.262 32.2482 200.84 31.9135 200.814 31.3582C200.788 30.7873 201.214 30.4143 201.766 30.3874C201.766 30.3874 204.33 30.3511 205.635 28.0106C205.701 27.8934 205.789 27.791 205.894 27.7091C205.998 27.6273 206.117 27.5677 206.244 27.5338C206.371 27.4999 206.503 27.4923 206.633 27.5116C206.763 27.5308 206.887 27.5765 207 27.6459C207.478 27.9319 207.642 28.5722 207.365 29.0685C205.514 32.3901 201.808 32.2482 201.792 32.2482ZM204 37.5913C203.266 37.5913 202.586 37.4514 202.072 37.1996C201.832 37.082 201.647 36.8706 201.558 36.6117C201.469 36.3529 201.483 36.068 201.596 35.8196C201.71 35.5712 201.914 35.3797 202.163 35.2872C202.413 35.1947 202.688 35.2088 202.928 35.3264C203.758 35.7336 205.854 35.574 206.658 34.2779C206.729 34.1634 206.821 34.0645 206.929 33.9869C207.037 33.9092 207.158 33.8544 207.287 33.8254C207.415 33.7964 207.548 33.794 207.677 33.8181C207.806 33.8422 207.93 33.8925 208.04 33.966C208.151 34.0396 208.246 34.1349 208.321 34.2467C208.396 34.3585 208.449 34.4844 208.477 34.6174C208.505 34.7503 208.507 34.8877 208.484 35.0216C208.461 35.1555 208.412 35.2834 208.341 35.3979C207.377 36.953 205.565 37.5913 204 37.5913ZM205.161 43.3156C203.607 43.3156 202.166 42.5914 201.235 41.7864C201.134 41.6993 201.051 41.5925 200.99 41.472C200.929 41.3515 200.891 41.2198 200.879 41.0843C200.867 40.9488 200.881 40.8122 200.92 40.6822C200.959 40.5523 201.023 40.4316 201.107 40.3271C201.191 40.2225 201.294 40.1361 201.41 40.0728C201.526 40.0095 201.653 39.9706 201.784 39.9582C201.915 39.9459 202.047 39.9603 202.172 40.0008C202.298 40.0412 202.414 40.1068 202.515 40.1939C202.709 40.3628 204.467 41.8164 206.297 41.0072C206.418 40.9541 206.548 40.9262 206.679 40.925C206.811 40.9239 206.941 40.9496 207.063 41.0006C207.184 41.0517 207.295 41.1271 207.389 41.2225C207.483 41.318 207.557 41.4316 207.609 41.5569C207.66 41.6822 207.687 41.8167 207.688 41.9528C207.689 42.089 207.664 42.2239 207.615 42.3501C207.566 42.4763 207.493 42.5912 207.401 42.6882C207.309 42.7853 207.199 42.8626 207.078 42.9157C206.471 43.1811 205.82 43.3171 205.161 43.3156ZM204.75 48.696H204.722C202.218 48.696 200.043 47.0694 199.188 45.4759C198.919 44.9765 199.094 44.3942 199.576 44.1165C200.059 43.8378 200.668 44.044 200.936 44.5434C201.42 45.4458 202.932 46.7544 204.777 46.8072C205.329 46.8238 205.764 47.2092 205.749 47.7801C205.734 48.3417 205.29 48.696 204.75 48.696ZM222.188 48.8908C222.04 48.8909 221.894 48.8569 221.76 48.7913C221.626 48.7257 221.508 48.6301 221.414 48.5115C221.32 48.3928 221.253 48.254 221.217 48.1051C221.181 47.9563 221.178 47.801 221.207 47.6506C221.871 44.2087 225.101 43.3509 226.685 43.6627C226.946 43.7135 227.176 43.8694 227.326 44.0961C227.475 44.3228 227.532 44.6019 227.483 44.8718C227.46 45.0059 227.411 45.1337 227.339 45.248C227.267 45.3623 227.175 45.4608 227.066 45.5377C226.958 45.6146 226.835 45.6684 226.707 45.696C226.578 45.7236 226.445 45.7245 226.316 45.6986C225.891 45.6157 223.626 45.6914 223.169 48.0567C223.124 48.2919 223.002 48.5036 222.823 48.6556C222.644 48.8077 222.419 48.8908 222.188 48.8908ZM219.624 44.2284C219.449 44.2285 219.276 44.1807 219.124 44.0898C218.972 43.9989 218.846 43.868 218.758 43.7104C218.67 43.5529 218.624 43.3741 218.624 43.1922C218.625 43.0103 218.671 42.8317 218.759 42.6743C220.611 39.3526 222.743 39.2511 224.153 39.1837L224.264 39.1786C224.529 39.1654 224.788 39.2618 224.985 39.4465C225.181 39.6313 225.298 39.8894 225.311 40.1639C225.324 40.4384 225.231 40.7069 225.052 40.9103C224.874 41.1138 224.625 41.2355 224.36 41.2486L224.245 41.2538C223.041 41.3118 221.796 41.3699 220.491 43.7104C220.403 43.868 220.277 43.9989 220.125 44.0899C219.972 44.1808 219.8 44.2286 219.624 44.2284ZM218.624 37.9467C218.445 37.9467 218.268 37.8966 218.114 37.8017C217.96 37.7068 217.833 37.5705 217.747 37.4072C217.661 37.244 217.619 37.0597 217.626 36.8739C217.632 36.688 217.687 36.5074 217.784 36.3511C219.199 34.0686 222.44 33.7598 224.052 34.5504C224.29 34.6687 224.474 34.8801 224.562 35.1381C224.651 35.3962 224.637 35.68 224.524 35.9276C224.411 36.1751 224.208 36.3663 223.959 36.4592C223.711 36.5522 223.437 36.5394 223.197 36.4236C222.368 36.0164 220.271 36.176 219.465 37.4721C219.374 37.6178 219.25 37.7376 219.103 37.8205C218.956 37.9034 218.791 37.9468 218.624 37.9467ZM224.249 31.7954C224.015 31.7953 223.789 31.7103 223.609 31.5551C223.415 31.3872 221.657 29.9398 219.828 30.7417C219.586 30.8358 219.319 30.8294 219.082 30.7241C218.845 30.6187 218.656 30.4225 218.555 30.1763C218.454 29.9301 218.449 29.6531 218.54 29.403C218.632 29.153 218.813 28.9492 219.046 28.8343C221.265 27.8583 223.581 28.8333 224.89 29.9636C225.048 30.1 225.161 30.2835 225.215 30.489C225.269 30.6946 225.26 30.9123 225.19 31.1125C225.12 31.3127 224.992 31.4857 224.823 31.6078C224.655 31.73 224.455 31.7955 224.249 31.7954ZM226.063 27.7153C225.885 27.7155 225.709 27.6662 225.556 27.5726C225.402 27.479 225.275 27.3444 225.188 27.1828C224.704 26.2793 223.192 24.9832 221.347 24.9303C220.794 24.9148 220.36 24.4061 220.374 23.8331C220.391 23.2716 220.835 22.7939 221.374 22.7939H221.402C223.907 22.7939 226.082 24.5491 226.936 26.1426C227.065 26.3854 227.097 26.6713 227.024 26.9382C226.951 27.2051 226.78 27.4315 226.547 27.5682C226.401 27.6593 226.234 27.71 226.063 27.7153Z" fill="#DD2E44"/>
</g>
<defs>
<clipPath id="clip0_1377_208">
<rect width="36" height="37.299" fill="white" transform="translate(195 17.6133)"/>
</clipPath>
</defs>
</svg>
