<svg width="570" height="205" viewBox="0 0 570 205" fill="none" xmlns="http://www.w3.org/2000/svg">
<rect x="0.5" y="0.5" width="569" height="204" rx="17.5" fill="white" stroke="#8A9A6B"/>
<path d="M40.7406 25.9008H44.2414V44.1154H40.7406V25.9008ZM43.2412 33.3235H47.479V36.1926H43.2412V33.3235ZM25.0529 28.4277H39.3982V31.1651H25.0529V28.4277ZM32.2387 32.0337C35.7395 32.0337 38.2138 33.9552 38.2138 36.7453C38.2138 39.5354 35.7395 41.4306 32.2387 41.4306C28.7116 41.4306 26.2373 39.5354 26.2373 36.7453C26.2373 33.9552 28.7116 32.0337 32.2387 32.0337ZM32.2387 34.6922C30.6857 34.6922 29.6065 35.4292 29.6065 36.7453C29.6065 38.0614 30.6857 38.7721 32.2387 38.7721C33.7917 38.7721 34.8709 38.0614 34.8709 36.7453C34.8709 35.4292 33.7917 34.6922 32.2387 34.6922ZM30.4752 25.8481H33.9759V29.7701H30.4752V25.8481ZM28.5273 47.0371H45.1101V49.8273H28.5273V47.0371ZM28.5273 42.7467H32.0281V48.2479H28.5273V42.7467ZM72.5365 25.8744H76.0636V38.9827H72.5365V25.8744ZM59.8494 40.0356H63.2976V42.2992H72.5892V40.0356H76.0636V49.9852H59.8494V40.0356ZM63.2976 44.984V47.1951H72.5892V44.984H63.2976ZM62.7975 26.8747C66.5878 26.8747 69.4042 29.27 69.4042 32.6391C69.4042 36.0083 66.5878 38.4036 62.7975 38.4036C59.0071 38.4036 56.1644 36.0083 56.1644 32.6391C56.1644 29.27 59.0071 26.8747 62.7975 26.8747ZM62.7975 29.7701C60.9286 29.7701 59.5862 30.8493 59.5862 32.6391C59.5862 34.4553 60.9286 35.5082 62.7975 35.5082C64.64 35.5082 65.9824 34.4553 65.9824 32.6391C65.9824 30.8493 64.64 29.7701 62.7975 29.7701ZM93.0667 27.559C96.778 27.559 99.4628 30.9282 99.4628 36.2452C99.4628 41.6149 96.778 44.984 93.0667 44.984C89.3553 44.984 86.6705 41.6149 86.6705 36.2452C86.6705 30.9282 89.3553 27.559 93.0667 27.559ZM93.0667 30.744C91.2505 30.744 90.0397 32.6655 90.0397 36.2452C90.0397 39.8776 91.2505 41.8254 93.0667 41.8254C94.8829 41.8254 96.12 39.8776 96.12 36.2452C96.12 32.6655 94.8829 30.744 93.0667 30.744ZM104.701 31.5336H108.991V34.429H104.701V31.5336ZM104.701 38.6931H108.991V41.5622H104.701V38.6931ZM102.121 25.8744H105.648V50.2484H102.121V25.8744ZM113.28 27.2958H128.573V30.0596H113.28V27.2958ZM110.779 37.6666H132.81V40.483H110.779V37.6666ZM119.913 39.6407H123.44V50.2747H119.913V39.6407ZM126.783 27.2958H130.231V29.4542C130.231 32.0864 130.231 35.0344 129.283 39.3512L125.835 38.9564C126.783 34.8765 126.783 31.9811 126.783 29.4542V27.2958ZM146.839 27.1905H149.708V29.3489C149.708 34.1921 147.602 38.4562 142.97 40.0619L141.101 37.2981C145.181 35.9294 146.839 32.6655 146.839 29.3489V27.1905ZM147.55 27.1905H150.393V29.6911C150.393 32.6128 152.025 35.4556 155.841 36.64L154.025 39.3512C149.629 37.8772 147.55 34.0868 147.55 29.6911V27.1905ZM157.184 25.8744H160.684V40.2725H157.184V25.8744ZM159.71 31.5073H163.922V34.4027H159.71V31.5073ZM152.735 40.8252C157.789 40.8252 160.974 42.5888 160.974 45.5368C160.974 48.5112 157.789 50.2484 152.735 50.2484C147.655 50.2484 144.47 48.5112 144.47 45.5368C144.47 42.5888 147.655 40.8252 152.735 40.8252ZM152.735 43.5363C149.629 43.5363 147.945 44.1944 147.945 45.5368C147.945 46.9055 149.629 47.5373 152.735 47.5373C155.841 47.5373 157.499 46.9055 157.499 45.5368C157.499 44.1944 155.841 43.5363 152.735 43.5363ZM171.422 26.98H174.317V29.3226C174.317 33.9289 172.08 38.1141 167.315 39.6407L165.605 36.8769C169.711 35.5609 171.422 32.4022 171.422 29.3226V26.98ZM172.132 26.98H175.001V29.3226C175.001 32.3233 176.686 35.2713 180.661 36.4821L178.95 39.2196C174.291 37.7456 172.132 33.8499 172.132 29.3226V26.98ZM169.342 41.4833H185.978V50.2484H182.45V44.2734H169.342V41.4833ZM182.45 25.8744H185.978V40.4041H182.45V25.8744Z" fill="black"/>
<path d="M24.82 101.857H41.58V104.037H24.82V101.857ZM31.82 97.6774H34.48V102.837H31.82V97.6774ZM26.1 89.0974H40.2V91.2174H26.1V89.0974ZM26.18 96.4774H40.14V98.5574H26.18V96.4774ZM28.62 90.8574H31.28V96.7174H28.62V90.8574ZM35.04 90.8574H37.68V96.7174H35.04V90.8574ZM50.0784 88.6374H52.3984V89.9774C52.3984 93.9974 49.5384 97.5574 44.7384 98.4974L43.5984 96.2974C47.7784 95.5774 50.0784 92.6374 50.0784 89.9774V88.6374ZM50.6184 88.6374H52.9184V89.9774C52.9184 92.6974 55.1984 95.5774 59.3984 96.2974L58.2584 98.4974C53.4584 97.5574 50.6184 94.0574 50.6184 89.9774V88.6374ZM43.2184 101.677H59.9784V103.837H43.2184V101.677ZM63.5769 97.1174H76.5969V99.1974H63.5769V97.1174ZM61.6169 101.817H78.3769V103.977H61.6169V101.817ZM63.5769 88.9174H76.4369V91.0574H66.2769V97.6974H63.5769V88.9174ZM65.4569 92.9974H76.0169V95.0574H65.4569V92.9974ZM84.5153 88.9974H86.6753V91.6974C86.6753 96.4574 85.0353 100.757 81.3553 102.457L79.7753 100.257C82.9953 98.8574 84.5153 95.2974 84.5153 91.6974V88.9974ZM85.0353 88.9974H87.1953V91.6974C87.1953 95.1174 88.6553 98.5174 91.8153 99.8774L90.2553 102.017C86.6753 100.377 85.0353 96.2574 85.0353 91.6974V88.9974ZM92.6953 87.5574H95.3753V106.137H92.6953V87.5574ZM104.934 89.5974H107.294V90.0574C107.294 93.0174 104.814 95.5174 100.094 96.0774L99.1338 93.9574C103.154 93.5174 104.934 91.6974 104.934 90.0574V89.5974ZM106.234 89.5974H108.594V90.0574C108.594 91.6974 110.394 93.5174 114.414 93.9574L113.434 96.0774C108.734 95.5174 106.234 93.0174 106.234 90.0574V89.5974ZM99.9138 88.4374H113.634V90.5374H99.9138V88.4374ZM100.414 103.657H113.254V105.777H100.414V103.657ZM100.414 100.317H103.074V104.277H100.414V100.317ZM98.3938 96.9974H115.154V99.1174H98.3938V96.9974ZM117.867 97.0447C117.867 95.2833 118.102 93.6616 118.57 92.1796C119.044 90.6976 119.766 89.3245 120.737 88.0603H123.627C123.258 88.529 122.915 89.1019 122.597 89.779C122.28 90.4514 122.003 91.19 121.766 91.9949C121.53 92.7999 121.345 93.6332 121.212 94.4949C121.08 95.3519 121.013 96.2019 121.013 97.0447C121.013 98.1668 121.127 99.3008 121.354 100.447C121.586 101.588 121.899 102.648 122.292 103.628C122.69 104.609 123.135 105.411 123.627 106.036H120.737C119.766 104.772 119.044 103.399 118.57 101.917C118.102 100.435 117.867 98.8108 117.867 97.0447ZM125.44 104.317V89.7719H131.179C132.282 89.7719 133.222 89.9826 133.998 90.404C134.775 90.8207 135.367 91.4007 135.774 92.1441C136.186 92.8827 136.392 93.735 136.392 94.7009C136.392 95.6668 136.183 96.5191 135.767 97.2577C135.35 97.9964 134.746 98.5716 133.956 98.9836C133.17 99.3955 132.218 99.6015 131.1 99.6015H127.443V97.137H130.603C131.195 97.137 131.683 97.0352 132.066 96.8316C132.455 96.6233 132.743 96.3368 132.933 95.9722C133.127 95.6029 133.224 95.1791 133.224 94.7009C133.224 94.218 133.127 93.7965 132.933 93.4367C132.743 93.0721 132.455 92.7904 132.066 92.5915C131.678 92.3879 131.186 92.2861 130.589 92.2861H128.515V104.317H125.44ZM143.086 104.53C141.982 104.53 141.028 104.296 140.223 103.827C139.423 103.354 138.805 102.696 138.37 101.853C137.934 101.005 137.716 100.023 137.716 98.9055C137.716 97.7786 137.934 96.7937 138.37 95.9509C138.805 95.1034 139.423 94.4452 140.223 93.9765C141.028 93.503 141.982 93.2662 143.086 93.2662C144.189 93.2662 145.141 93.503 145.941 93.9765C146.746 94.4452 147.366 95.1034 147.801 95.9509C148.237 96.7937 148.455 97.7786 148.455 98.9055C148.455 100.023 148.237 101.005 147.801 101.853C147.366 102.696 146.746 103.354 145.941 103.827C145.141 104.296 144.189 104.53 143.086 104.53ZM143.1 102.187C143.602 102.187 144.021 102.045 144.357 101.761C144.693 101.472 144.946 101.079 145.117 100.582C145.292 100.084 145.38 99.5186 145.38 98.8841C145.38 98.2497 145.292 97.6839 145.117 97.1867C144.946 96.6895 144.693 96.2965 144.357 96.0077C144.021 95.7189 143.602 95.5745 143.1 95.5745C142.593 95.5745 142.167 95.7189 141.821 96.0077C141.48 96.2965 141.222 96.6895 141.047 97.1867C140.877 97.6839 140.792 98.2497 140.792 98.8841C140.792 99.5186 140.877 100.084 141.047 100.582C141.222 101.079 141.48 101.472 141.821 101.761C142.167 102.045 142.593 102.187 143.1 102.187ZM159.499 96.5191L156.729 96.6895C156.682 96.4528 156.58 96.2397 156.424 96.0503C156.267 95.8562 156.061 95.7023 155.806 95.5887C155.555 95.4703 155.254 95.4111 154.904 95.4111C154.435 95.4111 154.04 95.5106 153.718 95.7094C153.396 95.9036 153.235 96.164 153.235 96.4907C153.235 96.7511 153.339 96.9713 153.547 97.1512C153.756 97.3311 154.113 97.4755 154.62 97.5844L156.594 97.9822C157.655 98.2 158.445 98.5503 158.966 99.0333C159.487 99.5162 159.748 100.151 159.748 100.937C159.748 101.652 159.537 102.279 159.115 102.819C158.699 103.359 158.126 103.78 157.397 104.083C156.672 104.381 155.837 104.53 154.89 104.53C153.445 104.53 152.295 104.23 151.438 103.628C150.586 103.022 150.086 102.199 149.939 101.157L152.915 101.001C153.005 101.441 153.223 101.777 153.569 102.009C153.914 102.236 154.357 102.35 154.897 102.35C155.427 102.35 155.853 102.248 156.175 102.045C156.502 101.836 156.667 101.569 156.672 101.242C156.667 100.967 156.551 100.743 156.324 100.567C156.097 100.387 155.747 100.25 155.273 100.155L153.384 99.779C152.319 99.566 151.525 99.1966 151.005 98.6711C150.489 98.1455 150.23 97.4755 150.23 96.6611C150.23 95.9604 150.42 95.3567 150.799 94.8501C151.182 94.3434 151.72 93.9528 152.411 93.6782C153.107 93.4036 153.921 93.2662 154.854 93.2662C156.232 93.2662 157.316 93.5574 158.107 94.1398C158.902 94.7222 159.366 95.5153 159.499 96.5191ZM167.455 93.4083V95.681H160.886V93.4083H167.455ZM162.377 90.7947H165.403V100.965C165.403 101.244 165.445 101.462 165.531 101.619C165.616 101.77 165.734 101.877 165.886 101.938C166.042 102 166.222 102.03 166.425 102.03C166.567 102.03 166.71 102.019 166.852 101.995C166.994 101.967 167.103 101.945 167.178 101.931L167.654 104.182C167.503 104.23 167.29 104.284 167.015 104.346C166.74 104.412 166.406 104.452 166.013 104.467C165.284 104.495 164.645 104.398 164.096 104.175C163.551 103.953 163.128 103.607 162.825 103.138C162.522 102.67 162.372 102.078 162.377 101.363V90.7947ZM178.366 96.5191L175.596 96.6895C175.549 96.4528 175.447 96.2397 175.291 96.0503C175.135 95.8562 174.929 95.7023 174.673 95.5887C174.422 95.4703 174.121 95.4111 173.771 95.4111C173.302 95.4111 172.907 95.5106 172.585 95.7094C172.263 95.9036 172.102 96.164 172.102 96.4907C172.102 96.7511 172.206 96.9713 172.414 97.1512C172.623 97.3311 172.98 97.4755 173.487 97.5844L175.461 97.9822C176.522 98.2 177.313 98.5503 177.833 99.0333C178.354 99.5162 178.615 100.151 178.615 100.937C178.615 101.652 178.404 102.279 177.983 102.819C177.566 103.359 176.993 103.78 176.264 104.083C175.539 104.381 174.704 104.53 173.757 104.53C172.313 104.53 171.162 104.23 170.305 103.628C169.453 103.022 168.953 102.199 168.806 101.157L171.782 101.001C171.872 101.441 172.09 101.777 172.436 102.009C172.781 102.236 173.224 102.35 173.764 102.35C174.294 102.35 174.72 102.248 175.042 102.045C175.369 101.836 175.535 101.569 175.539 101.242C175.535 100.967 175.419 100.743 175.191 100.567C174.964 100.387 174.614 100.25 174.14 100.155L172.251 99.779C171.186 99.566 170.393 99.1966 169.872 98.6711C169.356 98.1455 169.098 97.4755 169.098 96.6611C169.098 95.9604 169.287 95.3567 169.666 94.8501C170.049 94.3434 170.587 93.9528 171.278 93.6782C171.974 93.4036 172.788 93.2662 173.721 93.2662C175.099 93.2662 176.183 93.5574 176.974 94.1398C177.77 94.7222 178.234 95.5153 178.366 96.5191ZM185.491 104.53C184.369 104.53 183.403 104.303 182.594 103.849C181.789 103.389 181.169 102.741 180.733 101.903C180.297 101.06 180.08 100.063 180.08 98.9126C180.08 97.7904 180.297 96.8055 180.733 95.958C181.169 95.1105 181.782 94.45 182.572 93.9765C183.368 93.503 184.301 93.2662 185.371 93.2662C186.09 93.2662 186.76 93.3823 187.381 93.6143C188.006 93.8415 188.55 94.1848 189.014 94.6441C189.483 95.1034 189.848 95.681 190.108 96.377C190.368 97.0683 190.499 97.878 190.499 98.806V99.637H181.287V97.762H187.651C187.651 97.3264 187.556 96.9405 187.366 96.6043C187.177 96.2681 186.914 96.0054 186.578 95.816C186.247 95.6218 185.861 95.5248 185.42 95.5248C184.961 95.5248 184.554 95.6313 184.199 95.8444C183.848 96.0527 183.574 96.3344 183.375 96.6895C183.176 97.0399 183.074 97.4305 183.07 97.8614V99.6441C183.07 100.184 183.169 100.65 183.368 101.043C183.571 101.436 183.858 101.739 184.227 101.952C184.597 102.165 185.035 102.272 185.541 102.272C185.877 102.272 186.185 102.225 186.464 102.13C186.744 102.035 186.983 101.893 187.182 101.704C187.381 101.514 187.532 101.282 187.636 101.008L190.435 101.192C190.293 101.865 190.001 102.452 189.561 102.954C189.125 103.451 188.562 103.839 187.871 104.119C187.184 104.393 186.391 104.53 185.491 104.53ZM195.584 104.523C194.888 104.523 194.268 104.403 193.723 104.161C193.179 103.915 192.748 103.553 192.43 103.074C192.118 102.592 191.962 101.99 191.962 101.271C191.962 100.664 192.073 100.155 192.295 99.7435C192.518 99.3316 192.821 99.0001 193.205 98.7492C193.588 98.4983 194.024 98.3089 194.511 98.181C195.004 98.0532 195.52 97.9632 196.06 97.9111C196.694 97.8448 197.205 97.7833 197.594 97.7265C197.982 97.6649 198.264 97.575 198.439 97.4566C198.614 97.3382 198.702 97.163 198.702 96.931V96.8884C198.702 96.4386 198.56 96.0906 198.276 95.8444C197.996 95.5982 197.598 95.4751 197.082 95.4751C196.538 95.4751 196.105 95.5958 195.783 95.8373C195.461 96.074 195.248 96.3723 195.143 96.7322L192.345 96.5049C192.487 95.842 192.767 95.2691 193.183 94.7861C193.6 94.2984 194.137 93.9244 194.795 93.664C195.458 93.3988 196.225 93.2662 197.097 93.2662C197.703 93.2662 198.283 93.3373 198.837 93.4793C199.395 93.6214 199.89 93.8415 200.321 94.1398C200.757 94.4381 201.1 94.8216 201.351 95.2904C201.602 95.7544 201.727 96.3108 201.727 96.9594V104.317H198.858V102.805H198.773C198.598 103.146 198.363 103.446 198.07 103.707C197.776 103.962 197.423 104.164 197.011 104.31C196.599 104.452 196.124 104.523 195.584 104.523ZM196.45 102.435C196.895 102.435 197.288 102.348 197.629 102.172C197.97 101.993 198.238 101.751 198.432 101.448C198.626 101.145 198.723 100.802 198.723 100.418V99.2606C198.628 99.3221 198.498 99.3789 198.332 99.431C198.171 99.4784 197.989 99.5233 197.786 99.566C197.582 99.6038 197.378 99.6394 197.175 99.6725C196.971 99.7009 196.786 99.7269 196.621 99.7506C196.266 99.8027 195.955 99.8856 195.69 99.9992C195.425 100.113 195.219 100.267 195.072 100.461C194.926 100.65 194.852 100.887 194.852 101.171C194.852 101.583 195.001 101.898 195.3 102.116C195.603 102.329 195.986 102.435 196.45 102.435ZM213.151 96.5191L210.381 96.6895C210.334 96.4528 210.232 96.2397 210.076 96.0503C209.92 95.8562 209.714 95.7023 209.458 95.5887C209.207 95.4703 208.906 95.4111 208.556 95.4111C208.087 95.4111 207.692 95.5106 207.37 95.7094C207.048 95.9036 206.887 96.164 206.887 96.4907C206.887 96.7511 206.991 96.9713 207.2 97.1512C207.408 97.3311 207.765 97.4755 208.272 97.5844L210.246 97.9822C211.307 98.2 212.098 98.5503 212.619 99.0333C213.139 99.5162 213.4 100.151 213.4 100.937C213.4 101.652 213.189 102.279 212.768 102.819C212.351 103.359 211.778 103.78 211.049 104.083C210.325 104.381 209.489 104.53 208.542 104.53C207.098 104.53 205.947 104.23 205.09 103.628C204.238 103.022 203.738 102.199 203.592 101.157L206.567 101.001C206.657 101.441 206.875 101.777 207.221 102.009C207.567 102.236 208.009 102.35 208.549 102.35C209.079 102.35 209.505 102.248 209.827 102.045C210.154 101.836 210.32 101.569 210.325 101.242C210.32 100.967 210.204 100.743 209.977 100.567C209.749 100.387 209.399 100.25 208.925 100.155L207.036 99.779C205.971 99.566 205.178 99.1966 204.657 98.6711C204.141 98.1455 203.883 97.4755 203.883 96.6611C203.883 95.9604 204.072 95.3567 204.451 94.8501C204.835 94.3434 205.372 93.9528 206.063 93.6782C206.759 93.4036 207.574 93.2662 208.506 93.2662C209.884 93.2662 210.969 93.5574 211.759 94.1398C212.555 94.7222 213.019 95.5153 213.151 96.5191ZM220.234 104.53C219.131 104.53 218.177 104.296 217.372 103.827C216.572 103.354 215.954 102.696 215.518 101.853C215.083 101.005 214.865 100.023 214.865 98.9055C214.865 97.7786 215.083 96.7937 215.518 95.9509C215.954 95.1034 216.572 94.4452 217.372 93.9765C218.177 93.503 219.131 93.2662 220.234 93.2662C221.337 93.2662 222.289 93.503 223.089 93.9765C223.894 94.4452 224.514 95.1034 224.95 95.9509C225.386 96.7937 225.603 97.7786 225.603 98.9055C225.603 100.023 225.386 101.005 224.95 101.853C224.514 102.696 223.894 103.354 223.089 103.827C222.289 104.296 221.337 104.53 220.234 104.53ZM220.248 102.187C220.75 102.187 221.169 102.045 221.505 101.761C221.842 101.472 222.095 101.079 222.265 100.582C222.44 100.084 222.528 99.5186 222.528 98.8841C222.528 98.2497 222.44 97.6839 222.265 97.1867C222.095 96.6895 221.842 96.2965 221.505 96.0077C221.169 95.7189 220.75 95.5745 220.248 95.5745C219.742 95.5745 219.315 95.7189 218.97 96.0077C218.629 96.2965 218.371 96.6895 218.196 97.1867C218.025 97.6839 217.94 98.2497 217.94 98.8841C217.94 99.5186 218.025 100.084 218.196 100.582C218.371 101.079 218.629 101.472 218.97 101.761C219.315 102.045 219.742 102.187 220.248 102.187ZM230.596 98.0106V104.317H227.571V93.4083H230.454V95.333H230.582C230.824 94.6985 231.228 94.1966 231.797 93.8273C232.365 93.4533 233.054 93.2662 233.863 93.2662C234.621 93.2662 235.281 93.432 235.845 93.7634C236.408 94.0948 236.846 94.5683 237.159 95.1839C237.471 95.7947 237.627 96.5238 237.627 97.3714V104.317H234.602V97.9111C234.607 97.2435 234.436 96.7227 234.091 96.3486C233.745 95.9698 233.269 95.7805 232.663 95.7805C232.256 95.7805 231.896 95.868 231.583 96.0432C231.276 96.2184 231.034 96.4741 230.859 96.8103C230.689 97.1417 230.601 97.5418 230.596 98.0106ZM245.112 98.4864C245.112 100.253 244.875 101.877 244.401 103.359C243.933 104.841 243.213 106.214 242.242 107.478H239.352C239.721 107.009 240.064 106.436 240.381 105.759C240.699 105.082 240.976 104.343 241.212 103.543C241.449 102.738 241.634 101.905 241.766 101.043C241.899 100.181 241.965 99.3292 241.965 98.4864C241.965 97.3643 241.849 96.2326 241.617 95.0915C241.39 93.9457 241.077 92.8851 240.68 91.9097C240.287 90.9296 239.844 90.127 239.352 89.502H242.242C243.213 90.7662 243.933 92.1394 244.401 93.6214C244.875 95.1034 245.112 96.7251 245.112 98.4864ZM250.188 93.2174H262.468V94.5774H250.188V93.2174ZM247.968 96.9974H264.368V98.3574H247.968V96.9974ZM250.188 88.4574H251.828V93.8974H250.188V88.4574ZM250.068 104.077H262.568V105.437H250.068V104.077ZM250.068 100.157H251.708V104.437H250.068V100.157ZM281.32 92.4774H285.4V93.8574H281.32V92.4774ZM284.88 87.7974H286.54V98.5774H284.88V87.7974ZM280.6 99.1174C284.32 99.1174 286.62 100.377 286.62 102.497C286.62 104.637 284.32 105.857 280.6 105.857C276.86 105.857 274.56 104.637 274.56 102.497C274.56 100.377 276.86 99.1174 280.6 99.1174ZM280.6 100.417C277.88 100.417 276.22 101.177 276.22 102.497C276.22 103.797 277.88 104.557 280.6 104.557C283.32 104.557 284.98 103.797 284.98 102.497C284.98 101.177 283.32 100.417 280.6 100.417ZM276.28 89.6174H277.64V91.0774C277.64 94.4174 275.6 97.2774 272.6 98.3974L271.74 97.0774C274.42 96.0974 276.28 93.6774 276.28 91.0774V89.6174ZM276.6 89.6174H277.94V91.0774C277.94 93.4174 279.7 95.6574 282.32 96.5774L281.48 97.8974C278.54 96.8374 276.6 94.1174 276.6 91.0774V89.6174ZM272.24 89.1174H281.9V90.4774H272.24V89.1174ZM292.138 88.9574H303.438V90.3174H292.138V88.9574ZM290.078 96.8374H306.418V98.1974H290.078V96.8374ZM294.278 97.6774H295.938V105.877H294.278V97.6774ZM302.538 88.9574H304.178V90.2974C304.178 91.9974 304.178 94.1774 303.558 97.2774L301.918 97.1174C302.538 94.1174 302.538 91.9574 302.538 90.2974V88.9574ZM300.458 97.6774H302.118V105.877H300.458V97.6774ZM318.53 89.3574H319.89V92.5974C319.89 96.7574 317.65 100.617 314.69 102.117L313.67 100.757C316.35 99.4774 318.53 96.0174 318.53 92.5974V89.3574ZM318.81 89.3574H320.17V92.5974C320.17 95.8974 322.33 99.2174 325.01 100.457L324.01 101.777C321.07 100.337 318.81 96.6174 318.81 92.5974V89.3574ZM326.89 87.7774H328.55V105.897H326.89V87.7774ZM339.248 89.5774H340.728V90.1174C340.728 93.1774 337.468 95.3374 333.768 95.8974L333.148 94.5574C336.348 94.1174 339.248 92.3374 339.248 90.1174V89.5774ZM339.948 89.5774H341.408V90.1174C341.408 92.3174 344.328 94.1174 347.528 94.5574L346.888 95.8974C343.208 95.3374 339.948 93.1574 339.948 90.1174V89.5774ZM333.648 88.7574H347.028V90.0974H333.648V88.7574ZM334.268 104.117H346.688V105.477H334.268V104.117ZM334.268 100.237H335.928V104.537H334.268V100.237ZM332.148 97.2174H348.548V98.5774H332.148V97.2174ZM360.239 88.7374H361.619V90.5774C361.619 94.0574 359.659 96.9374 356.639 98.1174L355.759 96.7774C358.479 95.7774 360.239 93.3374 360.239 90.5774V88.7374ZM360.539 88.7374H361.899V90.6974C361.899 93.1374 363.699 95.3974 366.299 96.2974L365.419 97.5974C362.519 96.5174 360.539 93.8374 360.539 90.6974V88.7374ZM368.219 87.7974H369.879V98.7574H368.219V87.7974ZM369.419 92.4574H372.559V93.8574H369.419V92.4574ZM364.119 99.2574C367.819 99.2574 370.059 100.477 370.059 102.557C370.059 104.637 367.819 105.837 364.119 105.837C360.419 105.837 358.179 104.637 358.179 102.557C358.179 100.477 360.419 99.2574 364.119 99.2574ZM364.119 100.577C361.439 100.577 359.799 101.297 359.799 102.557C359.799 103.817 361.439 104.537 364.119 104.537C366.799 104.537 368.439 103.817 368.439 102.557C368.439 101.297 366.799 100.577 364.119 100.577ZM380.158 88.6374C382.858 88.6374 384.778 90.1374 384.778 92.3574C384.778 94.5574 382.858 96.0974 380.158 96.0974C377.478 96.0974 375.558 94.5574 375.558 92.3574C375.558 90.1374 377.478 88.6374 380.158 88.6374ZM380.158 90.0174C378.398 90.0174 377.138 90.9774 377.138 92.3574C377.138 93.7574 378.398 94.6974 380.158 94.6974C381.918 94.6974 383.178 93.7574 383.178 92.3574C383.178 90.9774 381.918 90.0174 380.158 90.0174ZM379.418 98.0974H381.078V105.317H379.418V98.0974ZM387.418 87.7974H389.058V105.897H387.418V87.7974ZM374.438 98.9974L374.218 97.5974C377.578 97.5974 382.158 97.5574 386.138 96.9574L386.258 98.1974C382.178 98.9374 377.738 98.9974 374.438 98.9974ZM403.15 104.516C402.259 104.516 401.459 104.346 400.749 104.005C400.043 103.659 399.48 103.186 399.059 102.584C398.637 101.983 398.412 101.297 398.384 100.525H400.515C400.567 101.15 400.844 101.664 401.346 102.066C401.847 102.468 402.449 102.67 403.15 102.67C403.708 102.67 404.203 102.542 404.634 102.286C405.069 102.026 405.41 101.668 405.657 101.214C405.908 100.759 406.033 100.241 406.033 99.6583C406.033 99.0664 405.905 98.5385 405.65 98.0745C405.394 97.6105 405.041 97.2459 404.591 96.9807C404.146 96.7156 403.635 96.5806 403.057 96.5759C402.617 96.5759 402.174 96.6517 401.729 96.8032C401.284 96.9547 400.924 97.1536 400.65 97.3998L398.64 97.1015L399.456 89.7719H407.453V91.654H401.282L400.82 95.7236H400.905C401.189 95.449 401.566 95.2194 402.034 95.0347C402.508 94.8501 403.015 94.7577 403.554 94.7577C404.44 94.7577 405.228 94.9684 405.919 95.3898C406.615 95.8112 407.162 96.3865 407.56 97.1157C407.962 97.8401 408.161 98.6734 408.157 99.6157C408.161 100.558 407.948 101.398 407.517 102.137C407.091 102.876 406.499 103.458 405.742 103.884C404.989 104.306 404.125 104.516 403.15 104.516ZM424.072 87.7974H425.672V105.877H424.072V87.7974ZM421.152 95.0574H424.612V96.4174H421.152V95.0574ZM416.472 90.1174H418.072C418.072 94.7774 416.472 99.0974 411.312 101.997L410.332 100.817C414.872 98.2774 416.472 94.6174 416.472 90.4374V90.1174ZM411.032 90.1174H417.032V91.4974H411.032V90.1174ZM420.052 88.2774H421.632V104.997H420.052V88.2774ZM435.083 96.1574H436.543C440.443 96.1574 442.583 96.0774 445.123 95.6374L445.303 96.9574C442.683 97.4174 440.483 97.4774 436.543 97.4774H435.083V96.1574ZM435.083 88.8974H443.683V90.2374H436.723V96.8374H435.083V88.8974ZM436.183 92.4574H443.183V93.7974H436.183V92.4574ZM447.183 87.8174H448.863V98.5774H447.183V87.8174ZM437.183 99.4774H448.863V105.637H437.183V99.4774ZM447.223 100.817H438.803V104.297H447.223V100.817ZM465.561 87.7774H467.221V105.897H465.561V87.7774ZM457.681 89.1774C460.361 89.1774 462.281 91.6374 462.281 95.4774C462.281 99.3374 460.361 101.797 457.681 101.797C455.021 101.797 453.101 99.3374 453.101 95.4774C453.101 91.6374 455.021 89.1774 457.681 89.1774ZM457.681 90.6774C455.921 90.6774 454.681 92.5574 454.681 95.4774C454.681 98.4174 455.921 100.337 457.681 100.337C459.461 100.337 460.681 98.4174 460.681 95.4774C460.681 92.5574 459.461 90.6774 457.681 90.6774ZM483.453 96.7974H485.113V99.5374H483.453V96.7974ZM476.133 95.8174H492.453V97.0974H476.133V95.8174ZM483.473 87.6774H485.113V89.8774H483.473V87.6774ZM483.393 90.0374H484.853V90.3174C484.853 93.1574 481.473 94.6774 477.473 95.0174L476.993 93.7374C480.553 93.5174 483.393 92.2574 483.393 90.3174V90.0374ZM483.733 90.0374H485.193V90.3174C485.193 92.2574 488.033 93.5174 491.573 93.7374L491.093 95.0174C487.093 94.6774 483.733 93.1574 483.733 90.3174V90.0374ZM477.793 89.3774H490.793V90.6374H477.793V89.3774ZM478.093 98.7374H490.373V102.717H479.773V104.897H478.133V101.537H488.733V99.9974H478.093V98.7374ZM478.133 104.417H490.913V105.677H478.133V104.417ZM504.111 92.7774H508.671V94.1374H504.111V92.7774ZM507.731 87.8174H509.391V101.057H507.731V87.8174ZM497.851 104.117H509.891V105.477H497.851V104.117ZM497.851 99.8974H499.511V104.817H497.851V99.8974ZM499.131 90.0574H500.491V91.5174C500.491 94.7974 498.451 97.6374 495.431 98.7574L494.571 97.4374C497.271 96.4774 499.131 94.0774 499.131 91.5174V90.0574ZM499.451 90.0574H500.791V91.4974C500.791 93.8374 502.551 96.1174 505.171 97.0374L504.331 98.3374C501.391 97.2774 499.451 94.5574 499.451 91.4974V90.0574ZM495.091 89.2774H504.751V90.6174H495.091V89.2774ZM525.17 87.7974H526.83V105.877H525.17V87.7974ZM526.43 95.2174H529.79V96.6174H526.43V95.2174ZM512.83 90.6774H523.49V92.0374H512.83V90.6774ZM518.23 93.5374C520.79 93.5374 522.63 95.2574 522.63 97.6974C522.63 100.137 520.79 101.857 518.23 101.857C515.69 101.857 513.83 100.137 513.83 97.6974C513.83 95.2574 515.69 93.5374 518.23 93.5374ZM518.23 94.9174C516.59 94.9174 515.41 96.0574 515.41 97.6974C515.41 99.3174 516.59 100.477 518.23 100.477C519.87 100.477 521.05 99.3174 521.05 97.6974C521.05 96.0574 519.87 94.9174 518.23 94.9174ZM517.37 88.0174H519.03V91.2974H517.37V88.0174ZM27.2 117.217H39.48V118.577H27.2V117.217ZM24.98 120.997H41.38V122.357H24.98V120.997ZM27.2 112.457H28.84V117.897H27.2V112.457ZM27.08 128.077H39.58V129.437H27.08V128.077ZM27.08 124.157H28.72V128.437H27.08V124.157ZM50.7914 121.177H63.2114V122.517H50.7914V121.177ZM48.6914 126.257H65.0714V127.637H48.6914V126.257ZM56.0314 121.877H57.6714V126.897H56.0314V121.877ZM50.7914 113.257H63.0114V114.617H52.4714V121.677H50.7914V113.257ZM51.9314 117.137H62.6314V118.477H51.9314V117.137ZM80.3298 111.797H81.9898V129.917H80.3298V111.797ZM74.7698 117.757H80.8698V119.117H74.7698V117.757ZM68.0698 113.817H69.7098V125.017H68.0698V113.817ZM68.0698 124.137H69.4698C72.2698 124.137 74.7698 123.977 77.5498 123.397L77.7498 124.797C74.8698 125.357 72.3298 125.537 69.4698 125.537H68.0698V124.137ZM86.3083 113.357H94.5683V121.777H86.3083V113.357ZM92.9283 114.697H87.9283V120.437H92.9283V114.697ZM98.6883 111.817H100.348V125.017H98.6883V111.817ZM94.0883 116.817H99.1683V118.177H94.0883V116.817ZM88.8083 128.117H100.848V129.477H88.8083V128.117ZM88.8083 123.797H90.4683V128.717H88.8083V123.797ZM105.987 121.537H118.407V122.877H105.987V121.537ZM103.887 126.177H120.267V127.557H103.887V126.177ZM105.987 113.337H118.207V114.697H107.667V121.957H105.987V113.337ZM107.127 117.377H117.827V118.697H107.127V117.377ZM135.838 123.137C139.518 123.137 141.778 124.377 141.778 126.497C141.778 128.617 139.518 129.857 135.838 129.857C132.158 129.857 129.898 128.617 129.898 126.497C129.898 124.377 132.158 123.137 135.838 123.137ZM135.838 124.477C133.158 124.477 131.518 125.217 131.518 126.497C131.518 127.797 133.158 128.537 135.838 128.537C138.518 128.537 140.158 127.797 140.158 126.497C140.158 125.217 138.518 124.477 135.838 124.477ZM139.938 111.797H141.598V122.657H139.938V111.797ZM141.138 116.337H144.278V117.737H141.138V116.337ZM128.318 112.937H129.958V115.637H135.058V112.937H136.678V121.277H128.318V112.937ZM129.958 116.957V119.937H135.058V116.957H129.958ZM150.677 112.657H152.057V114.417C152.057 117.837 150.017 120.777 146.957 121.937L146.117 120.617C148.857 119.617 150.677 117.117 150.677 114.417V112.657ZM150.977 112.657H152.337V114.417C152.337 117.017 154.197 119.357 156.877 120.297L156.037 121.597C153.017 120.497 150.977 117.737 150.977 114.417V112.657ZM148.717 123.597H160.797V129.877H159.117V124.957H148.717V123.597ZM159.117 111.797H160.797V122.677H159.117V111.797ZM172.535 112.937C176.295 112.937 179.095 114.937 179.095 117.937C179.095 120.957 176.295 122.937 172.535 122.937C168.775 122.937 165.955 120.957 165.955 117.937C165.955 114.937 168.775 112.937 172.535 112.937ZM172.535 114.297C169.675 114.297 167.555 115.757 167.555 117.937C167.555 120.097 169.675 121.577 172.535 121.577C175.395 121.577 177.515 120.097 177.515 117.937C177.515 115.757 175.395 114.297 172.535 114.297ZM164.375 126.097H180.755V127.497H164.375V126.097ZM182.773 126.277H199.153V127.657H182.773V126.277ZM190.093 122.397H191.753V126.857H190.093V122.397ZM184.753 113.137H197.133V118.617H186.453V122.237H184.813V117.277H195.493V114.477H184.753V113.137ZM184.813 121.537H197.553V122.897H184.813V121.537ZM204.362 126.329L204.256 127.103C204.185 127.671 204.064 128.263 203.893 128.878C203.728 129.499 203.555 130.074 203.375 130.604C203.2 131.135 203.055 131.556 202.942 131.869H201.436C201.498 131.575 201.583 131.177 201.692 130.675C201.801 130.178 201.907 129.622 202.011 129.006C202.116 128.391 202.194 127.763 202.246 127.124L202.317 126.329H204.362ZM216.552 120.917H218.212V125.237H216.552V120.917ZM217.372 112.957C220.152 112.957 222.152 114.697 222.152 117.217C222.152 119.737 220.152 121.477 217.372 121.477C214.592 121.477 212.592 119.737 212.592 117.217C212.592 114.697 214.592 112.957 217.372 112.957ZM217.372 114.377C215.532 114.377 214.212 115.537 214.212 117.217C214.212 118.897 215.532 120.057 217.372 120.057C219.212 120.057 220.532 118.897 220.532 117.217C220.532 115.537 219.212 114.377 217.372 114.377ZM224.212 111.797H225.872V129.877H224.212V111.797ZM225.392 119.237H228.732V120.637H225.392V119.237ZM212.012 125.977L211.772 124.597C215.032 124.577 219.392 124.557 223.072 124.057L223.212 125.297C219.392 125.937 215.172 125.977 212.012 125.977ZM235.451 112.457C238.151 112.457 240.131 114.097 240.131 116.477C240.131 118.837 238.151 120.477 235.451 120.477C232.771 120.477 230.791 118.837 230.791 116.477C230.791 114.097 232.771 112.457 235.451 112.457ZM235.451 113.817C233.711 113.817 232.391 114.917 232.391 116.477C232.391 118.037 233.711 119.117 235.451 119.117C237.211 119.117 238.511 118.037 238.511 116.477C238.511 114.917 237.211 113.817 235.451 113.817ZM243.531 111.797H245.211V121.057H243.531V111.797ZM233.511 121.937H245.211V126.337H235.171V129.057H233.551V125.097H243.571V123.277H233.511V121.937ZM233.551 128.317H245.811V129.637H233.551V128.317ZM250.849 120.457H263.269V121.817H250.849V120.457ZM248.789 126.057H265.169V127.437H248.789V126.057ZM250.849 113.457H263.089V114.837H252.509V121.057H250.849V113.457ZM274.868 113.677H276.488C276.488 118.897 274.728 123.697 268.248 126.917L267.348 125.637C273.068 122.817 274.868 118.777 274.868 113.857V113.677ZM268.328 113.677H275.848V115.017H268.328V113.677ZM274.608 118.157V119.437L267.688 120.117L267.428 118.637L274.608 118.157ZM279.408 111.777H281.088V129.877H279.408V111.777ZM280.628 119.117H283.968V120.497H280.628V119.117ZM287.646 120.457H300.066V121.817H287.646V120.457ZM285.586 126.057H301.966V127.437H285.586V126.057ZM287.646 113.457H299.886V114.837H289.306V121.057H287.646V113.457ZM322.477 111.797H324.137V121.017H322.477V111.797ZM316.757 112.677H318.557C318.557 117.237 315.417 120.157 310.137 121.437L309.557 120.077C314.237 118.997 316.757 116.617 316.757 113.497V112.677ZM310.497 112.677H317.517V114.037H310.497V112.677ZM317.917 114.397H322.757V115.717H317.917V114.397ZM317.757 117.857H322.657V119.157H317.757V117.857ZM312.497 121.857H324.137V126.297H314.197V129.177H312.557V125.017H322.497V123.197H312.497V121.857ZM312.557 128.377H324.737V129.697H312.557V128.377ZM337.316 116.477H341.396V117.857H337.316V116.477ZM340.876 111.797H342.536V122.577H340.876V111.797ZM336.596 123.117C340.316 123.117 342.616 124.377 342.616 126.497C342.616 128.637 340.316 129.857 336.596 129.857C332.856 129.857 330.556 128.637 330.556 126.497C330.556 124.377 332.856 123.117 336.596 123.117ZM336.596 124.417C333.876 124.417 332.216 125.177 332.216 126.497C332.216 127.797 333.876 128.557 336.596 128.557C339.316 128.557 340.976 127.797 340.976 126.497C340.976 125.177 339.316 124.417 336.596 124.417ZM332.276 113.617H333.636V115.077C333.636 118.417 331.596 121.277 328.596 122.397L327.736 121.077C330.416 120.097 332.276 117.677 332.276 115.077V113.617ZM332.596 113.617H333.936V115.077C333.936 117.417 335.696 119.657 338.316 120.577L337.476 121.897C334.536 120.837 332.596 118.117 332.596 115.077V113.617ZM328.236 113.117H337.896V114.477H328.236V113.117ZM355.654 116.777H360.214V118.137H355.654V116.777ZM359.274 111.817H360.934V125.057H359.274V111.817ZM349.394 128.117H361.434V129.477H349.394V128.117ZM349.394 123.897H351.054V128.817H349.394V123.897ZM350.674 114.057H352.034V115.517C352.034 118.797 349.994 121.637 346.974 122.757L346.114 121.437C348.814 120.477 350.674 118.077 350.674 115.517V114.057ZM350.994 114.057H352.334V115.497C352.334 117.837 354.094 120.117 356.714 121.037L355.874 122.337C352.934 121.277 350.994 118.557 350.994 115.497V114.057ZM346.634 113.277H356.294V114.617H346.634V113.277ZM367.663 126.329L367.556 127.103C367.485 127.671 367.365 128.263 367.194 128.878C367.029 129.499 366.856 130.074 366.676 130.604C366.501 131.135 366.356 131.556 366.243 131.869H364.737C364.798 131.575 364.884 131.177 364.993 130.675C365.101 130.178 365.208 129.622 365.312 129.006C365.416 128.391 365.494 127.763 365.547 127.124L365.618 126.329H367.663ZM382.373 113.497H383.853V114.037C383.853 117.097 380.593 119.237 376.893 119.797L376.273 118.457C379.473 118.037 382.373 116.237 382.373 114.037V113.497ZM383.073 113.497H384.533V114.037C384.533 116.237 387.453 118.037 390.653 118.457L390.013 119.797C386.333 119.237 383.073 117.097 383.073 114.037V113.497ZM376.773 112.697H390.153V114.037H376.773V112.697ZM375.273 121.097H391.653V122.457H375.273V121.097ZM382.753 121.937H384.413V126.097H382.753V121.937ZM377.353 128.117H389.833V129.477H377.353V128.117ZM377.353 124.357H378.993V128.637H377.353V124.357ZM395.191 112.337H408.471V113.637H395.191V112.337ZM395.271 117.077H408.391V118.357H395.271V117.077ZM397.931 112.837H399.591V117.917H397.931V112.837ZM404.091 112.837H405.731V117.917H404.091V112.837ZM393.671 119.857H410.011V121.197H393.671V119.857ZM395.651 122.777H407.931V126.737H397.331V128.917H395.691V125.557H406.291V124.017H395.651V122.777ZM395.691 128.417H408.471V129.677H395.691V128.417ZM412.67 124.057H413.87C416.07 124.057 418.11 123.977 420.59 123.557L420.73 124.917C418.19 125.357 416.15 125.437 413.87 125.437H412.67V124.057ZM412.63 113.777H419.09V120.077H414.29V124.617H412.67V118.737H417.49V115.137H412.63V113.777ZM425.83 111.797H427.43V129.877H425.83V111.797ZM419.95 118.277H422.87V119.657H419.95V118.277ZM422.19 112.237H423.73V128.937H422.19V112.237ZM443.608 111.777H445.268V129.897H443.608V111.777ZM435.728 113.177C438.408 113.177 440.328 115.637 440.328 119.477C440.328 123.337 438.408 125.797 435.728 125.797C433.068 125.797 431.148 123.337 431.148 119.477C431.148 115.637 433.068 113.177 435.728 113.177ZM435.728 114.677C433.968 114.677 432.728 116.557 432.728 119.477C432.728 122.417 433.968 124.337 435.728 124.337C437.508 124.337 438.728 122.417 438.728 119.477C438.728 116.557 437.508 114.677 435.728 114.677ZM456.207 122.017H457.867V126.517H456.207V122.017ZM457.047 112.977C460.867 112.977 463.607 114.837 463.607 117.717C463.607 120.597 460.867 122.457 457.047 122.457C453.227 122.457 450.467 120.597 450.467 117.717C450.467 114.837 453.227 112.977 457.047 112.977ZM457.047 114.297C454.167 114.297 452.067 115.657 452.067 117.717C452.067 119.777 454.167 121.137 457.047 121.137C459.907 121.137 462.007 119.777 462.007 117.717C462.007 115.657 459.907 114.297 457.047 114.297ZM448.887 126.197H465.267V127.577H448.887V126.197ZM467.285 126.177H483.665V127.557H467.285V126.177ZM468.705 113.597H482.125V114.957H468.705V113.597ZM468.745 121.237H482.105V122.597H468.745V121.237ZM471.525 114.857H473.185V121.377H471.525V114.857ZM477.685 114.857H479.325V121.377H477.685V114.857ZM488.874 126.329L488.767 127.103C488.696 127.671 488.576 128.263 488.405 128.878C488.239 129.499 488.067 130.074 487.887 130.604C487.712 131.135 487.567 131.556 487.453 131.869H485.948C486.009 131.575 486.095 131.177 486.203 130.675C486.312 130.178 486.419 129.622 486.523 129.006C486.627 128.391 486.705 127.763 486.757 127.124L486.828 126.329H488.874ZM498.004 112.337H511.284V113.637H498.004V112.337ZM498.084 117.077H511.204V118.357H498.084V117.077ZM500.744 112.837H502.404V117.917H500.744V112.837ZM506.904 112.837H508.544V117.917H506.904V112.837ZM496.484 119.857H512.824V121.197H496.484V119.857ZM498.464 122.777H510.744V126.737H500.144V128.917H498.504V125.557H509.104V124.017H498.464V122.777ZM498.504 128.417H511.284V129.677H498.504V128.417ZM515.482 124.057H516.682C518.882 124.057 520.922 123.977 523.402 123.557L523.542 124.917C521.002 125.357 518.962 125.437 516.682 125.437H515.482V124.057ZM515.442 113.777H521.902V120.077H517.102V124.617H515.482V118.737H520.302V115.137H515.442V113.777ZM528.642 111.797H530.242V129.877H528.642V111.797ZM522.762 118.277H525.682V119.657H522.762V118.277ZM525.002 112.237H526.542V128.937H525.002V112.237ZM38.12 135.777H39.78V153.897H38.12V135.777ZM30.24 137.177C32.92 137.177 34.84 139.637 34.84 143.477C34.84 147.337 32.92 149.797 30.24 149.797C27.58 149.797 25.66 147.337 25.66 143.477C25.66 139.637 27.58 137.177 30.24 137.177ZM30.24 138.677C28.48 138.677 27.24 140.557 27.24 143.477C27.24 146.417 28.48 148.337 30.24 148.337C32.02 148.337 33.24 146.417 33.24 143.477C33.24 140.557 32.02 138.677 30.24 138.677ZM50.7184 146.017H52.3784V150.517H50.7184V146.017ZM51.5584 136.977C55.3784 136.977 58.1184 138.837 58.1184 141.717C58.1184 144.597 55.3784 146.457 51.5584 146.457C47.7384 146.457 44.9784 144.597 44.9784 141.717C44.9784 138.837 47.7384 136.977 51.5584 136.977ZM51.5584 138.297C48.6784 138.297 46.5784 139.657 46.5784 141.717C46.5784 143.777 48.6784 145.137 51.5584 145.137C54.4184 145.137 56.5184 143.777 56.5184 141.717C56.5184 139.657 54.4184 138.297 51.5584 138.297ZM43.3984 150.197H59.7784V151.577H43.3984V150.197ZM61.7969 150.177H78.1769V151.557H61.7969V150.177ZM63.2169 137.597H76.6369V138.957H63.2169V137.597ZM63.2569 145.237H76.6169V146.597H63.2569V145.237ZM66.0369 138.857H67.6969V145.377H66.0369V138.857ZM72.1969 138.857H73.8369V145.377H72.1969V138.857ZM83.3857 150.329L83.2791 151.103C83.2081 151.671 83.0874 152.263 82.9169 152.878C82.7512 153.499 82.5784 154.074 82.3984 154.604C82.2232 155.135 82.0788 155.556 81.9652 155.869H80.4595C80.5211 155.575 80.6063 155.177 80.7152 154.675C80.8241 154.178 80.9306 153.622 81.0348 153.006C81.139 152.391 81.2171 151.763 81.2692 151.124L81.3402 150.329H83.3857ZM103.376 135.817H105.036V149.377H103.376V135.817ZM104.516 141.737H107.716V143.137H104.516V141.737ZM91.0556 137.997H101.736V139.337H91.0556V137.997ZM96.3956 140.337C98.9556 140.337 100.716 141.677 100.716 143.717C100.716 145.737 98.9556 147.077 96.3956 147.077C93.8156 147.077 92.0556 145.737 92.0556 143.717C92.0556 141.677 93.8156 140.337 96.3956 140.337ZM96.3956 141.637C94.7556 141.637 93.6356 142.457 93.6356 143.717C93.6356 144.957 94.7556 145.777 96.3956 145.777C98.0156 145.777 99.1356 144.957 99.1356 143.717C99.1356 142.457 98.0156 141.637 96.3956 141.637ZM95.5556 135.797H97.2156V138.697H95.5556V135.797ZM93.7756 152.117H105.856V153.477H93.7756V152.117ZM93.7756 148.297H95.4356V152.697H93.7756V148.297ZM111.494 136.637H123.134V137.997H111.494V136.637ZM109.414 143.117H125.794V144.477H109.414V143.117ZM116.754 144.037H118.394V148.297H116.754V144.037ZM122.054 136.637H123.674V137.977C123.674 139.477 123.674 141.297 123.074 143.777L121.454 143.577C122.054 141.157 122.054 139.437 122.054 137.977V136.637ZM111.114 147.757H123.794V153.877H122.134V149.117H111.114V147.757ZM132.573 137.357H133.933V140.597C133.933 144.757 131.693 148.617 128.733 150.117L127.713 148.757C130.393 147.477 132.573 144.017 132.573 140.597V137.357ZM132.853 137.357H134.213V140.597C134.213 143.897 136.373 147.217 139.053 148.457L138.053 149.777C135.113 148.337 132.853 144.617 132.853 140.597V137.357ZM140.933 135.777H142.593V153.897H140.933V135.777ZM159.371 135.777H161.031V153.897H159.371V135.777ZM147.251 148.157H148.751C151.771 148.157 154.471 148.037 157.671 147.517L157.851 148.877C154.571 149.417 151.851 149.537 148.751 149.537H147.251V148.157ZM147.211 137.477H155.571V143.937H148.911V148.677H147.251V142.577H153.891V138.837H147.211V137.477ZM164.609 150.097H180.989V151.477H164.609V150.097ZM171.929 138.237H173.329V139.737C173.329 143.437 169.629 146.237 166.069 146.977L165.389 145.657C168.509 145.117 171.929 142.597 171.929 139.737V138.237ZM172.229 138.237H173.629V139.737C173.629 142.597 177.069 145.077 180.229 145.577L179.569 146.917C175.949 146.197 172.229 143.437 172.229 139.737V138.237ZM165.949 137.577H179.609V138.957H165.949V137.577ZM183.008 150.277H199.388V151.657H183.008V150.277ZM190.328 146.397H191.988V150.857H190.328V146.397ZM184.988 137.137H197.368V142.617H186.688V146.237H185.048V141.277H195.728V138.477H184.988V137.137ZM185.048 145.537H197.788V146.897H185.048V145.537ZM208.739 136.977H220.039V138.317H208.739V136.977ZM206.699 144.737H223.039V146.097H206.699V144.737ZM213.999 145.637H215.659V153.897H213.999V145.637ZM219.259 136.977H220.879V138.537C220.879 140.417 220.879 142.537 220.199 145.597L218.559 145.377C219.259 142.457 219.259 140.357 219.259 138.537V136.977ZM229.638 136.817H231.018V138.677C231.018 142.177 229.038 145.037 225.938 146.197L225.078 144.837C227.838 143.857 229.638 141.437 229.638 138.677V136.817ZM229.938 136.817H231.298V138.617C231.298 141.177 233.058 143.437 235.698 144.357L234.798 145.657C231.878 144.557 229.938 141.897 229.938 138.617V136.817ZM238.298 135.797H239.958V146.497H238.298V135.797ZM234.018 147.017C237.738 147.017 240.038 148.277 240.038 150.437C240.038 152.597 237.738 153.837 234.018 153.837C230.278 153.837 227.978 152.597 227.978 150.437C227.978 148.277 230.278 147.017 234.018 147.017ZM234.018 148.337C231.298 148.337 229.638 149.117 229.638 150.437C229.638 151.757 231.298 152.537 234.018 152.537C236.738 152.537 238.398 151.757 238.398 150.437C238.398 149.117 236.738 148.337 234.018 148.337ZM234.378 139.617H238.658V140.997H234.378V139.617ZM248.636 141.917H250.316V144.917H248.636V141.917ZM256.656 135.797H258.316V146.217H256.656V135.797ZM243.796 145.777L243.556 144.437C246.856 144.437 251.356 144.397 255.176 143.837L255.296 145.017C251.356 145.717 247.016 145.777 243.796 145.777ZM245.176 141.077H253.856V142.417H245.176V141.077ZM245.176 136.697H253.696V138.057H246.836V141.597H245.176V136.697ZM246.456 147.017H248.116V148.917H256.676V147.017H258.316V153.637H246.456V147.017ZM248.116 150.217V152.297H256.676V150.217H248.116ZM275.035 135.797H276.695V153.877H275.035V135.797ZM263.035 137.557H264.675V148.757H263.035V137.557ZM263.035 147.777H264.515C267.255 147.777 270.115 147.577 273.175 146.937L273.375 148.357C270.235 148.997 267.375 149.217 264.515 149.217H263.035V147.777ZM292.513 135.777H294.193V153.897H292.513V135.777ZM293.793 142.917H297.153V144.317H293.793V142.917ZM281.053 147.997H282.473C285.813 147.997 288.153 147.877 290.853 147.377L291.033 148.777C288.253 149.297 285.873 149.397 282.473 149.397H281.053V147.997ZM281.053 137.537H289.453V138.897H282.693V148.617H281.053V137.537ZM300.518 152.452C300.13 152.452 299.796 152.315 299.517 152.04C299.237 151.761 299.098 151.425 299.098 151.032C299.098 150.644 299.237 150.312 299.517 150.038C299.796 149.758 300.13 149.619 300.518 149.619C300.906 149.619 301.24 149.758 301.52 150.038C301.799 150.312 301.939 150.644 301.939 151.032C301.939 151.292 301.872 151.531 301.74 151.749C301.612 151.962 301.441 152.133 301.228 152.261C301.015 152.388 300.779 152.452 300.518 152.452ZM314.574 145.357H316.254V149.277H314.574V145.357ZM314.574 138.997H315.914V139.397C315.914 142.557 313.854 144.997 310.814 145.957L310.054 144.657C312.734 143.857 314.574 141.837 314.574 139.397V138.997ZM314.894 138.997H316.234V139.397C316.234 141.737 318.134 143.697 320.794 144.477L320.034 145.757C316.994 144.857 314.894 142.457 314.894 139.397V138.997ZM310.474 138.157H320.414V139.497H310.474V138.157ZM314.574 135.917H316.254V138.737H314.574V135.917ZM322.474 135.777H324.134V153.897H322.474V135.777ZM309.734 150.177L309.494 148.777C312.794 148.777 317.354 148.757 321.294 148.157L321.434 149.377C317.374 150.137 312.954 150.157 309.734 150.177ZM335.133 142.217H336.773V145.577H335.133V142.217ZM327.793 144.797H344.133V146.137H327.793V144.797ZM335.953 147.617C339.833 147.617 342.153 148.737 342.153 150.737C342.153 152.737 339.833 153.837 335.953 153.837C332.073 153.837 329.752 152.737 329.752 150.737C329.752 148.737 332.073 147.617 335.953 147.617ZM335.953 148.897C333.113 148.897 331.433 149.557 331.433 150.737C331.433 151.917 333.113 152.557 335.953 152.557C338.813 152.557 340.473 151.917 340.473 150.737C340.473 149.557 338.813 148.897 335.953 148.897ZM334.893 137.277H336.373V137.817C336.373 140.717 333.053 142.677 329.293 143.137L328.693 141.797C331.952 141.477 334.893 139.857 334.893 137.817V137.277ZM335.593 137.277H337.053V137.817C337.053 139.857 339.993 141.477 343.253 141.797L342.653 143.137C338.913 142.677 335.593 140.717 335.593 137.817V137.277ZM329.293 136.617H342.673V137.957H329.293V136.617ZM350.811 137.637H352.171V139.097C352.171 142.397 350.131 145.217 347.111 146.337L346.251 145.017C348.951 144.057 350.811 141.657 350.811 139.097V137.637ZM351.131 137.637H352.471V139.097C352.471 141.417 354.231 143.677 356.851 144.597L356.011 145.917C353.071 144.837 351.131 142.117 351.131 139.097V137.637ZM355.871 140.497H359.891V141.877H355.871V140.497ZM346.771 137.037H356.431V138.377H346.771V137.037ZM349.011 147.597H361.071V153.877H359.411V148.957H349.011V147.597ZM359.411 135.797H361.071V146.617H359.411V135.797ZM372.769 136.937C376.529 136.937 379.329 138.937 379.329 141.937C379.329 144.957 376.529 146.937 372.769 146.937C369.009 146.937 366.189 144.957 366.189 141.937C366.189 138.937 369.009 136.937 372.769 136.937ZM372.769 138.297C369.909 138.297 367.789 139.757 367.789 141.937C367.789 144.097 369.909 145.577 372.769 145.577C375.629 145.577 377.749 144.097 377.749 141.937C377.749 139.757 375.629 138.297 372.769 138.297ZM364.609 150.097H380.989V151.497H364.609V150.097ZM383.008 150.277H399.388V151.657H383.008V150.277ZM390.328 146.397H391.988V150.857H390.328V146.397ZM384.988 137.137H397.368V142.617H386.688V146.237H385.048V141.277H395.728V138.477H384.988V137.137ZM385.048 145.537H397.788V146.897H385.048V145.537ZM419.059 135.817H420.719V149.377H419.059V135.817ZM420.199 141.737H423.399V143.137H420.199V141.737ZM406.739 137.997H417.419V139.337H406.739V137.997ZM412.079 140.337C414.639 140.337 416.399 141.677 416.399 143.717C416.399 145.737 414.639 147.077 412.079 147.077C409.499 147.077 407.739 145.737 407.739 143.717C407.739 141.677 409.499 140.337 412.079 140.337ZM412.079 141.637C410.439 141.637 409.319 142.457 409.319 143.717C409.319 144.957 410.439 145.777 412.079 145.777C413.699 145.777 414.819 144.957 414.819 143.717C414.819 142.457 413.699 141.637 412.079 141.637ZM411.239 135.797H412.899V138.697H411.239V135.797ZM409.459 152.117H421.539V153.477H409.459V152.117ZM409.459 148.297H411.119V152.697H409.459V148.297ZM427.178 136.637H438.818V137.997H427.178V136.637ZM425.098 143.117H441.478V144.477H425.098V143.117ZM432.438 144.037H434.078V148.297H432.438V144.037ZM437.738 136.637H439.358V137.977C439.358 139.477 439.358 141.297 438.758 143.777L437.138 143.577C437.738 141.157 437.738 139.437 437.738 137.977V136.637ZM426.798 147.757H439.478V153.877H437.818V149.117H426.798V147.757ZM448.256 137.357H449.616V140.597C449.616 144.757 447.376 148.617 444.416 150.117L443.396 148.757C446.076 147.477 448.256 144.017 448.256 140.597V137.357ZM448.536 137.357H449.896V140.597C449.896 143.897 452.056 147.217 454.736 148.457L453.736 149.777C450.796 148.337 448.536 144.617 448.536 140.597V137.357ZM456.616 135.777H458.276V153.897H456.616V135.777ZM475.055 135.777H476.715V153.897H475.055V135.777ZM462.935 148.157H464.435C467.455 148.157 470.155 148.037 473.355 147.517L473.535 148.877C470.255 149.417 467.535 149.537 464.435 149.537H462.935V148.157ZM462.895 137.477H471.255V143.937H464.595V148.677H462.935V142.577H469.575V138.837H462.895V137.477ZM480.293 150.097H496.673V151.477H480.293V150.097ZM487.613 138.237H489.013V139.737C489.013 143.437 485.313 146.237 481.753 146.977L481.073 145.657C484.193 145.117 487.613 142.597 487.613 139.737V138.237ZM487.913 138.237H489.313V139.737C489.313 142.597 492.753 145.077 495.913 145.577L495.253 146.917C491.633 146.197 487.913 143.437 487.913 139.737V138.237ZM481.633 137.577H495.293V138.957H481.633V137.577ZM506.011 142.817H509.431V144.197H506.011V142.817ZM512.451 135.797H514.051V153.877H512.451V135.797ZM508.871 136.177H510.451V152.977H508.871V136.177ZM502.751 137.297C505.091 137.297 506.611 139.717 506.611 143.597C506.611 147.477 505.091 149.897 502.751 149.897C500.411 149.897 498.911 147.477 498.911 143.597C498.911 139.717 500.411 137.297 502.751 137.297ZM502.751 138.837C501.331 138.837 500.431 140.677 500.431 143.597C500.431 146.517 501.331 148.357 502.751 148.357C504.191 148.357 505.091 146.517 505.091 143.597C505.091 140.677 504.191 138.837 502.751 138.837ZM526.11 141.917H531.15V143.277H526.11V141.917ZM521.75 137.357H523.11V140.577C523.11 144.637 520.97 148.517 518.11 150.057L517.05 148.737C519.71 147.417 521.75 143.937 521.75 140.577V137.357ZM522.07 137.357H523.41V140.577C523.41 143.877 525.45 147.157 528.07 148.397L527.09 149.737C524.17 148.257 522.07 144.537 522.07 140.577V137.357ZM530.33 135.777H531.97V153.897H530.33V135.777ZM24.98 170.157H41.38V171.517H24.98V170.157ZM32.3 170.997H33.94V177.877H32.3V170.997ZM33.14 160.517C36.92 160.517 39.46 162.057 39.46 164.477C39.46 166.897 36.92 168.437 33.14 168.437C29.38 168.437 26.82 166.897 26.82 164.477C26.82 162.057 29.38 160.517 33.14 160.517ZM33.14 161.857C30.38 161.857 28.5 162.877 28.5 164.477C28.5 166.077 30.38 167.097 33.14 167.097C35.9 167.097 37.76 166.077 37.76 164.477C37.76 162.877 35.9 161.857 33.14 161.857ZM50.7184 160.097H52.1384V160.897C52.1384 164.097 48.6584 166.397 44.9584 166.997L44.3384 165.677C47.5784 165.237 50.7184 163.237 50.7184 160.897V160.097ZM50.9784 160.097H52.3984V160.897C52.3984 163.197 55.5784 165.237 58.7784 165.677L58.1584 166.997C54.4784 166.397 50.9784 164.037 50.9784 160.897V160.097ZM43.3784 168.417H59.7184V169.777H43.3784V168.417ZM51.5384 171.437C55.4184 171.437 57.7384 172.597 57.7384 174.637C57.7384 176.717 55.4184 177.857 51.5384 177.857C47.6584 177.857 45.3384 176.717 45.3384 174.637C45.3384 172.597 47.6584 171.437 51.5384 171.437ZM51.5384 172.717C48.7184 172.717 47.0184 173.437 47.0184 174.637C47.0184 175.877 48.7184 176.577 51.5384 176.577C54.3784 176.577 56.0584 175.877 56.0584 174.637C56.0584 173.437 54.3784 172.717 51.5384 172.717ZM74.0369 159.797H75.6969V177.877H74.0369V159.797ZM75.2969 167.217H78.6569V168.617H75.2969V167.217ZM61.6969 162.677H72.3569V164.037H61.6969V162.677ZM67.0969 165.537C69.6569 165.537 71.4969 167.257 71.4969 169.697C71.4969 172.137 69.6569 173.857 67.0969 173.857C64.5569 173.857 62.6969 172.137 62.6969 169.697C62.6969 167.257 64.5569 165.537 67.0969 165.537ZM67.0969 166.917C65.4569 166.917 64.2769 168.057 64.2769 169.697C64.2769 171.317 65.4569 172.477 67.0969 172.477C68.7369 172.477 69.9169 171.317 69.9169 169.697C69.9169 168.057 68.7369 166.917 67.0969 166.917ZM66.2369 160.017H67.8969V163.297H66.2369V160.017ZM82.3953 165.217H94.6753V166.577H82.3953V165.217ZM80.1753 168.997H96.5753V170.357H80.1753V168.997ZM82.3953 160.457H84.0353V165.897H82.3953V160.457ZM82.2753 176.077H94.7753V177.437H82.2753V176.077ZM82.2753 172.157H83.9153V176.437H82.2753V172.157ZM104.927 168.157H106.387C110.287 168.157 112.427 168.077 114.967 167.637L115.147 168.957C112.527 169.417 110.327 169.477 106.387 169.477H104.927V168.157ZM104.927 160.897H113.527V162.237H106.567V168.837H104.927V160.897ZM106.027 164.457H113.027V165.797H106.027V164.457ZM117.027 159.817H118.707V170.577H117.027V159.817ZM107.027 171.477H118.707V177.637H107.027V171.477ZM117.067 172.817H108.647V176.297H117.067V172.817ZM135.405 159.777H137.065V177.897H135.405V159.777ZM127.525 161.177C130.205 161.177 132.125 163.637 132.125 167.477C132.125 171.337 130.205 173.797 127.525 173.797C124.865 173.797 122.945 171.337 122.945 167.477C122.945 163.637 124.865 161.177 127.525 161.177ZM127.525 162.677C125.765 162.677 124.525 164.557 124.525 167.477C124.525 170.417 125.765 172.337 127.525 172.337C129.305 172.337 130.525 170.417 130.525 167.477C130.525 164.557 129.305 162.677 127.525 162.677ZM146.575 176.317V161.772H148.769V168.718H148.947L155.048 161.772H157.81L151.944 168.32L157.832 176.317H155.19L150.488 169.819L148.769 171.793V176.317H146.575ZM159.856 176.317V161.772H165.183C166.215 161.772 167.069 161.942 167.746 162.283C168.424 162.619 168.93 163.076 169.266 163.654C169.603 164.227 169.771 164.873 169.771 165.593C169.771 166.199 169.659 166.71 169.437 167.127C169.214 167.539 168.916 167.87 168.542 168.121C168.173 168.368 167.765 168.547 167.32 168.661V168.803C167.803 168.827 168.274 168.983 168.734 169.272C169.198 169.556 169.581 169.961 169.884 170.486C170.187 171.012 170.339 171.651 170.339 172.404C170.339 173.147 170.164 173.815 169.813 174.407C169.468 174.994 168.933 175.46 168.208 175.806C167.484 176.147 166.558 176.317 165.431 176.317H159.856ZM162.05 174.435H165.218C166.269 174.435 167.022 174.232 167.477 173.824C167.931 173.417 168.158 172.908 168.158 172.297C168.158 171.838 168.042 171.417 167.81 171.033C167.578 170.65 167.247 170.344 166.816 170.117C166.39 169.89 165.883 169.776 165.296 169.776H162.05V174.435ZM162.05 168.065H164.991C165.483 168.065 165.926 167.97 166.319 167.78C166.717 167.591 167.031 167.326 167.263 166.985C167.5 166.639 167.619 166.232 167.619 165.763C167.619 165.162 167.408 164.658 166.987 164.251C166.565 163.843 165.919 163.64 165.048 163.64H162.05V168.065ZM185.577 169.045C185.577 170.598 185.293 171.933 184.724 173.05C184.156 174.163 183.377 175.02 182.388 175.621C181.403 176.218 180.283 176.516 179.028 176.516C177.769 176.516 176.644 176.218 175.655 175.621C174.67 175.02 173.893 174.161 173.325 173.043C172.757 171.926 172.473 170.593 172.473 169.045C172.473 167.492 172.757 166.159 173.325 165.046C173.893 163.929 174.67 163.072 175.655 162.475C176.644 161.874 177.769 161.573 179.028 161.573C180.283 161.573 181.403 161.874 182.388 162.475C183.377 163.072 184.156 163.929 184.724 165.046C185.293 166.159 185.577 167.492 185.577 169.045ZM183.403 169.045C183.403 167.861 183.212 166.864 182.828 166.055C182.449 165.24 181.929 164.625 181.266 164.208C180.607 163.787 179.862 163.576 179.028 163.576C178.19 163.576 177.442 163.787 176.784 164.208C176.126 164.625 175.605 165.24 175.222 166.055C174.843 166.864 174.653 167.861 174.653 169.045C174.653 170.228 174.843 171.227 175.222 172.042C175.605 172.851 176.126 173.467 176.784 173.888C177.442 174.305 178.19 174.513 179.028 174.513C179.862 174.513 180.607 174.305 181.266 173.888C181.929 173.467 182.449 172.851 182.828 172.042C183.212 171.227 183.403 170.228 183.403 169.045ZM206.168 159.777H207.828V177.897H206.168V159.777ZM194.048 172.157H195.548C198.568 172.157 201.268 172.037 204.468 171.517L204.648 172.877C201.368 173.417 198.648 173.537 195.548 173.537H194.048V172.157ZM194.008 161.477H202.368V167.937H195.708V172.677H194.048V166.577H200.688V162.837H194.008V161.477ZM213.166 161.717H224.806V163.057H213.166V161.717ZM211.406 173.857H227.746V175.237H211.406V173.857ZM223.926 161.717H225.546V163.517C225.546 165.837 225.546 168.417 224.866 172.317L223.206 172.157C223.926 168.457 223.926 165.757 223.926 163.517V161.717ZM248.738 159.817H250.318V170.457H248.738V159.817ZM245.918 164.417H249.398V165.797H245.918V164.417ZM244.898 160.117H246.458V170.277H244.898V160.117ZM238.458 171.397H250.318V177.637H238.458V171.397ZM248.718 172.717H240.078V176.297H248.718V172.717ZM238.858 162.937H240.118V163.457C240.118 166.297 238.658 168.977 236.038 170.117L235.218 168.857C237.498 167.897 238.858 165.657 238.858 163.457V162.937ZM239.178 162.937H240.418V163.457C240.418 165.537 241.818 167.637 244.078 168.537L243.298 169.777C240.658 168.717 239.178 166.157 239.178 163.457V162.937ZM235.578 162.057H243.638V163.397H235.578V162.057ZM238.858 159.937H240.418V162.677H238.858V159.937ZM266.656 159.797H268.316V177.877H266.656V159.797ZM253.936 161.737H264.176V163.097H253.936V161.737ZM253.656 173.417L253.456 171.997C256.816 171.997 261.256 171.957 265.096 171.497L265.196 172.717C261.296 173.337 256.956 173.397 253.656 173.417ZM255.936 162.757H257.536V172.377H255.936V162.757ZM260.556 162.757H262.176V172.377H260.556V162.757ZM280.895 164.817H285.855V166.157H280.895V164.817ZM285.095 159.817H286.755V173.117H285.095V159.817ZM275.215 176.117H287.255V177.477H275.215V176.117ZM275.215 171.777H276.875V176.697H275.215V171.777ZM276.815 160.957C279.475 160.957 281.475 162.817 281.475 165.437C281.475 168.057 279.475 169.917 276.815 169.917C274.155 169.917 272.155 168.057 272.155 165.437C272.155 162.817 274.155 160.957 276.815 160.957ZM276.815 162.417C275.055 162.417 273.755 163.657 273.755 165.437C273.755 167.217 275.055 168.457 276.815 168.457C278.555 168.457 279.875 167.217 279.875 165.437C279.875 163.657 278.555 162.417 276.815 162.417ZM303.413 159.777H305.073V177.897H303.413V159.777ZM295.533 161.177C298.213 161.177 300.133 163.637 300.133 167.477C300.133 171.337 298.213 173.797 295.533 173.797C292.873 173.797 290.953 171.337 290.953 167.477C290.953 163.637 292.873 161.177 295.533 161.177ZM295.533 162.677C293.773 162.677 292.533 164.557 292.533 167.477C292.533 170.417 293.773 172.337 295.533 172.337C297.313 172.337 298.533 170.417 298.533 167.477C298.533 164.557 297.313 162.677 295.533 162.677ZM319.124 165.917H320.804V168.917H319.124V165.917ZM327.144 159.797H328.804V170.217H327.144V159.797ZM314.284 169.777L314.044 168.437C317.344 168.437 321.844 168.397 325.664 167.837L325.784 169.017C321.844 169.717 317.504 169.777 314.284 169.777ZM315.664 165.077H324.344V166.417H315.664V165.077ZM315.664 160.697H324.184V162.057H317.324V165.597H315.664V160.697ZM316.944 171.017H318.604V172.917H327.164V171.017H328.804V177.637H316.944V171.017ZM318.604 174.217V176.297H327.164V174.217H318.604ZM345.523 159.797H347.183V177.877H345.523V159.797ZM333.523 161.557H335.163V172.757H333.523V161.557ZM333.523 171.777H335.003C337.743 171.777 340.603 171.577 343.663 170.937L343.863 172.357C340.723 172.997 337.863 173.217 335.003 173.217H333.523V171.777ZM363.001 159.777H364.681V177.897H363.001V159.777ZM364.281 166.917H367.641V168.317H364.281V166.917ZM351.541 171.997H352.961C356.301 171.997 358.641 171.877 361.341 171.377L361.521 172.777C358.741 173.297 356.361 173.397 352.961 173.397H351.541V171.997ZM351.541 161.537H359.941V162.897H353.181V172.617H351.541V161.537ZM371.006 176.452C370.618 176.452 370.284 176.315 370.005 176.04C369.726 175.761 369.586 175.425 369.586 175.032C369.586 174.644 369.726 174.312 370.005 174.038C370.284 173.758 370.618 173.619 371.006 173.619C371.395 173.619 371.728 173.758 372.008 174.038C372.287 174.312 372.427 174.644 372.427 175.032C372.427 175.292 372.361 175.531 372.228 175.749C372.1 175.962 371.93 176.133 371.717 176.261C371.504 176.388 371.267 176.452 371.006 176.452Z" fill="black"/>
<g clip-path="url(#clip0_1377_218)">
<path d="M213 61.106C222.941 61.106 231 51.8146 231 40.353C231 28.8915 222.941 19.6001 213 19.6001C203.059 19.6001 195 28.8915 195 40.353C195 51.8146 203.059 61.106 213 61.106Z" fill="#E1E8ED"/>
<path d="M226.802 53.6649C223.792 52.1372 222 47.326 222 40.353C222 33.38 223.792 28.5688 226.802 27.0412C226.356 26.432 225.879 25.853 225.374 25.3071C222.406 27.2152 220 31.7959 220 40.353C220 48.909 222.406 53.4908 225.374 55.3989C225.876 54.8489 226.358 54.2771 226.802 53.6649ZM206 40.353C206 31.797 203.594 27.2152 200.626 25.3083C200.122 25.8538 199.645 26.4324 199.198 27.0412C202.208 28.57 204 33.38 204 40.353C204 47.326 202.208 52.1361 199.198 53.6649C199.643 54.2771 200.124 54.8489 200.626 55.3989C203.593 53.4908 206 48.909 206 40.353Z" fill="#B3BEC4"/>
<path d="M200.092 31.3185C199.855 31.3185 199.635 31.2955 199.441 31.254C199.18 31.1977 198.95 31.0243 198.8 30.772C198.726 30.6471 198.674 30.5065 198.646 30.3583C198.619 30.2102 198.618 30.0573 198.642 29.9085C198.666 29.7597 198.716 29.6178 198.787 29.4909C198.859 29.3641 198.952 29.2548 199.06 29.1692C199.279 28.9965 199.548 28.931 199.809 28.9873C200.239 29.0761 202.5 28.9942 202.957 26.3632C203.009 26.0634 203.162 25.7997 203.383 25.6302C203.492 25.5463 203.615 25.488 203.744 25.4586C203.873 25.4293 204.005 25.4295 204.134 25.4593C204.263 25.489 204.385 25.5477 204.494 25.632C204.603 25.7163 204.697 25.8246 204.77 25.9506C204.843 26.0766 204.893 26.2179 204.919 26.3664C204.944 26.515 204.944 26.6678 204.918 26.8163C204.335 30.1737 201.779 31.3185 200.092 31.3185ZM201.792 35.8853C201.262 35.8853 200.84 35.5129 200.814 34.895C200.788 34.2597 201.214 33.8446 201.766 33.8147C201.766 33.8147 204.33 33.7743 205.635 31.1698C205.701 31.0394 205.789 30.9254 205.894 30.8343C205.998 30.7432 206.117 30.6769 206.244 30.6392C206.371 30.6015 206.503 30.5931 206.633 30.6145C206.763 30.6359 206.887 30.6867 207 30.764C207.478 31.0822 207.642 31.7947 207.365 32.347C205.514 36.0433 201.808 35.8853 201.792 35.8853ZM204 41.8311C203.266 41.8311 202.586 41.6754 202.072 41.3952C201.832 41.2644 201.647 41.029 201.558 40.741C201.469 40.453 201.483 40.1359 201.596 39.8595C201.71 39.5831 201.914 39.37 202.163 39.2671C202.413 39.1641 202.688 39.1798 202.928 39.3107C203.758 39.7638 205.854 39.5863 206.658 38.1439C206.729 38.0165 206.821 37.9065 206.929 37.8201C207.037 37.7337 207.158 37.6727 207.287 37.6404C207.415 37.6082 207.548 37.6054 207.677 37.6323C207.806 37.6591 207.93 37.7151 208.04 37.7969C208.151 37.8787 208.246 37.9849 208.321 38.1092C208.396 38.2336 208.449 38.3738 208.477 38.5217C208.505 38.6697 208.507 38.8225 208.484 38.9716C208.461 39.1206 208.412 39.2629 208.341 39.3903C207.377 41.1208 205.565 41.8311 204 41.8311ZM205.161 48.201C203.607 48.201 202.166 47.3951 201.235 46.4993C201.134 46.4024 201.051 46.2835 200.99 46.1495C200.929 46.0154 200.891 45.8688 200.879 45.718C200.867 45.5672 200.881 45.4152 200.92 45.2706C200.959 45.126 201.023 44.9917 201.107 44.8754C201.191 44.759 201.294 44.6629 201.41 44.5925C201.526 44.5221 201.653 44.4787 201.784 44.465C201.915 44.4512 202.047 44.4673 202.172 44.5123C202.298 44.5573 202.414 44.6303 202.515 44.7272C202.709 44.9152 204.467 46.5327 206.297 45.6323C206.418 45.5732 206.548 45.5421 206.679 45.5408C206.811 45.5396 206.941 45.5682 207.063 45.625C207.184 45.6817 207.295 45.7656 207.389 45.8718C207.483 45.9781 207.557 46.1045 207.609 46.2439C207.66 46.3834 207.687 46.5331 207.688 46.6846C207.689 46.836 207.664 46.9862 207.615 47.1266C207.566 47.2671 207.493 47.3949 207.401 47.5029C207.309 47.6109 207.199 47.6969 207.078 47.756C206.471 48.0514 205.82 48.2027 205.161 48.201ZM204.75 54.1883H204.722C202.218 54.1883 200.043 52.3782 199.188 50.6049C198.919 50.0492 199.094 49.4013 199.576 49.0923C200.059 48.7821 200.668 49.0116 200.936 49.5673C201.42 50.5715 202.932 52.0277 204.777 52.0865C205.329 52.1049 205.764 52.5338 205.749 53.1691C205.734 53.794 205.29 54.1883 204.75 54.1883ZM222.188 54.405C222.04 54.4051 221.894 54.3673 221.76 54.2943C221.626 54.2213 221.508 54.1149 221.414 53.9829C221.32 53.8509 221.253 53.6964 221.217 53.5308C221.181 53.3651 221.178 53.1923 221.207 53.025C221.871 49.1949 225.101 48.2403 226.685 48.5873C226.946 48.6438 227.176 48.8173 227.326 49.0696C227.475 49.3219 227.532 49.6324 227.483 49.9328C227.46 50.0819 227.411 50.2242 227.339 50.3514C227.267 50.4786 227.175 50.5881 227.066 50.6737C226.958 50.7593 226.835 50.8192 226.707 50.8499C226.578 50.8807 226.445 50.8816 226.316 50.8528C225.891 50.7606 223.626 50.8447 223.169 53.4769C223.124 53.7386 223.002 53.9741 222.823 54.1434C222.644 54.3126 222.419 54.4051 222.188 54.405ZM219.624 49.2168C219.449 49.2169 219.276 49.1637 219.124 49.0625C218.972 48.9613 218.846 48.8157 218.758 48.6404C218.67 48.465 218.624 48.2661 218.624 48.0637C218.625 47.8613 218.671 47.6625 218.759 47.4874C220.611 43.7911 222.743 43.6781 224.153 43.6031L224.264 43.5974C224.529 43.5827 224.788 43.69 224.985 43.8956C225.181 44.1012 225.298 44.3883 225.311 44.6938C225.324 44.9993 225.231 45.2981 225.052 45.5244C224.874 45.7508 224.625 45.8863 224.36 45.9009L224.245 45.9067C223.041 45.9713 221.796 46.0358 220.491 48.6403C220.403 48.8158 220.277 48.9614 220.125 49.0626C219.972 49.1638 219.8 49.217 219.624 49.2168ZM218.624 42.2265C218.445 42.2265 218.268 42.1708 218.114 42.0652C217.96 41.9596 217.833 41.8079 217.747 41.6263C217.661 41.4446 217.619 41.2395 217.626 41.0327C217.632 40.8259 217.687 40.625 217.784 40.451C219.199 37.9111 222.44 37.5675 224.052 38.4472C224.29 38.5789 224.474 38.814 224.562 39.1012C224.651 39.3884 224.637 39.7042 224.524 39.9797C224.411 40.2552 224.208 40.4679 223.959 40.5713C223.711 40.6748 223.437 40.6605 223.197 40.5317C222.368 40.0786 220.271 40.2561 219.465 41.6985C219.374 41.8606 219.25 41.9938 219.103 42.0861C218.956 42.1784 218.791 42.2266 218.624 42.2265ZM224.249 35.3815C224.015 35.3814 223.789 35.2867 223.609 35.114C223.415 34.9272 221.657 33.3166 219.828 34.209C219.586 34.3136 219.319 34.3066 219.082 34.1893C218.845 34.0721 218.656 33.8537 218.555 33.5798C218.454 33.3058 218.449 32.9975 218.54 32.7193C218.632 32.441 218.813 32.2143 219.046 32.0864C221.265 31.0003 223.581 32.0852 224.89 33.3431C225.048 33.4949 225.161 33.699 225.215 33.9278C225.269 34.1565 225.26 34.3988 225.19 34.6215C225.12 34.8443 224.992 35.0368 224.823 35.1728C224.655 35.3087 224.455 35.3816 224.249 35.3815ZM226.063 30.8412C225.885 30.8414 225.709 30.7866 225.556 30.6824C225.402 30.5782 225.275 30.4284 225.188 30.2486C224.704 29.2432 223.192 27.8009 221.347 27.7421C220.794 27.7248 220.36 27.1587 220.374 26.5211C220.391 25.8963 220.835 25.3647 221.374 25.3647H221.402C223.907 25.3647 226.082 27.3178 226.936 29.0911C227.065 29.3613 227.097 29.6794 227.024 29.9764C226.951 30.2734 226.78 30.5253 226.547 30.6775C226.401 30.7789 226.234 30.8352 226.063 30.8412Z" fill="#DD2E44"/>
</g>
<defs>
<clipPath id="clip0_1377_218">
<rect width="36" height="41.5059" fill="white" transform="translate(195 19.6001)"/>
</clipPath>
</defs>
</svg>
