<svg width="570" height="170" viewBox="0 0 570 170" fill="none" xmlns="http://www.w3.org/2000/svg">
<rect x="0.5" y="0.5" width="569" height="169" rx="17.5" fill="white" stroke="#8A9A6B"/>
<rect x="0.5" y="0.5" width="569" height="169" rx="17.5" fill="white" stroke="#8A9A6B"/>
<path d="M40.7406 22.995H44.2414V41.2097H40.7406V22.995ZM43.2412 30.4177H47.479V33.2868H43.2412V30.4177ZM25.0529 25.5219H39.3982V28.2594H25.0529V25.5219ZM32.2387 29.128C35.7395 29.128 38.2138 31.0495 38.2138 33.8396C38.2138 36.6297 35.7395 38.5248 32.2387 38.5248C28.7116 38.5248 26.2373 36.6297 26.2373 33.8396C26.2373 31.0495 28.7116 29.128 32.2387 29.128ZM32.2387 31.7865C30.6857 31.7865 29.6065 32.5235 29.6065 33.8396C29.6065 35.1557 30.6857 35.8663 32.2387 35.8663C33.7917 35.8663 34.8709 35.1557 34.8709 33.8396C34.8709 32.5235 33.7917 31.7865 32.2387 31.7865ZM30.4752 22.9424H33.9759V26.8643H30.4752V22.9424ZM28.5273 44.1314H45.1101V46.9215H28.5273V44.1314ZM28.5273 39.8409H32.0281V45.3422H28.5273V39.8409ZM72.5365 22.9687H76.0636V36.0769H72.5365V22.9687ZM59.8494 37.1298H63.2976V39.3935H72.5892V37.1298H76.0636V47.0794H59.8494V37.1298ZM63.2976 42.0783V44.2893H72.5892V42.0783H63.2976ZM62.7975 23.9689C66.5878 23.9689 69.4042 26.3642 69.4042 29.7334C69.4042 33.1026 66.5878 35.4978 62.7975 35.4978C59.0071 35.4978 56.1644 33.1026 56.1644 29.7334C56.1644 26.3642 59.0071 23.9689 62.7975 23.9689ZM62.7975 26.8643C60.9286 26.8643 59.5862 27.9435 59.5862 29.7334C59.5862 31.5496 60.9286 32.6024 62.7975 32.6024C64.64 32.6024 65.9824 31.5496 65.9824 29.7334C65.9824 27.9435 64.64 26.8643 62.7975 26.8643ZM93.0667 24.6533C96.778 24.6533 99.4628 28.0225 99.4628 33.3395C99.4628 38.7091 96.778 42.0783 93.0667 42.0783C89.3553 42.0783 86.6705 38.7091 86.6705 33.3395C86.6705 28.0225 89.3553 24.6533 93.0667 24.6533ZM93.0667 27.8382C91.2505 27.8382 90.0397 29.7597 90.0397 33.3395C90.0397 36.9719 91.2505 38.9197 93.0667 38.9197C94.8829 38.9197 96.12 36.9719 96.12 33.3395C96.12 29.7597 94.8829 27.8382 93.0667 27.8382ZM104.701 28.6279H108.991V31.5233H104.701V28.6279ZM104.701 35.7874H108.991V38.6565H104.701V35.7874ZM102.121 22.9687H105.648V47.3426H102.121V22.9687ZM113.28 24.3901H128.573V27.1538H113.28V24.3901ZM110.779 34.7608H132.81V37.5773H110.779V34.7608ZM119.913 36.735H123.44V47.369H119.913V36.735ZM126.783 24.3901H130.231V26.5484C130.231 29.1806 130.231 32.1287 129.283 36.4454L125.835 36.0506C126.783 31.9707 126.783 29.0753 126.783 26.5484V24.3901ZM146.839 24.2848H149.708V26.4432C149.708 31.2864 147.602 35.5505 142.97 37.1561L141.101 34.3923C145.181 33.0236 146.839 29.7597 146.839 26.4432V24.2848ZM147.55 24.2848H150.393V26.7853C150.393 29.7071 152.025 32.5498 155.841 33.7343L154.025 36.4454C149.629 34.9714 147.55 31.1811 147.55 26.7853V24.2848ZM157.184 22.9687H160.684V37.3667H157.184V22.9687ZM159.71 28.6015H163.922V31.4969H159.71V28.6015ZM152.735 37.9194C157.789 37.9194 160.974 39.683 160.974 42.631C160.974 45.6054 157.789 47.3426 152.735 47.3426C147.655 47.3426 144.47 45.6054 144.47 42.631C144.47 39.683 147.655 37.9194 152.735 37.9194ZM152.735 40.6306C149.629 40.6306 147.945 41.2886 147.945 42.631C147.945 43.9998 149.629 44.6315 152.735 44.6315C155.841 44.6315 157.499 43.9998 157.499 42.631C157.499 41.2886 155.841 40.6306 152.735 40.6306ZM171.422 24.0742H174.317V26.4168C174.317 31.0231 172.08 35.2083 167.315 36.735L165.605 33.9712C169.711 32.6551 171.422 29.4965 171.422 26.4168V24.0742ZM172.132 24.0742H175.001V26.4168C175.001 29.4175 176.686 32.3656 180.661 33.5764L178.95 36.3138C174.291 34.8398 172.132 30.9442 172.132 26.4168V24.0742ZM169.342 38.5775H185.978V47.3426H182.45V41.3676H169.342V38.5775ZM182.45 22.9687H185.978V37.4983H182.45V22.9687Z" fill="black"/>
<path d="M30.4631 93.1989C29.4877 93.1989 28.6165 93.0308 27.8494 92.6946C27.0871 92.3584 26.4834 91.892 26.0384 91.2955C25.598 90.6941 25.3613 89.9981 25.3281 89.2074H27.5582C27.5866 89.6383 27.7311 90.0123 27.9915 90.3295C28.2566 90.642 28.6023 90.8835 29.0284 91.054C29.4545 91.2244 29.928 91.3097 30.4489 91.3097C31.0218 91.3097 31.5284 91.2102 31.9688 91.0114C32.4138 90.8125 32.7618 90.5355 33.0128 90.1804C33.2637 89.8205 33.3892 89.4062 33.3892 88.9375C33.3892 88.4498 33.2637 88.0213 33.0128 87.652C32.7666 87.2779 32.4044 86.9844 31.9261 86.7713C31.4527 86.5582 30.8797 86.4517 30.2074 86.4517H28.9787V84.6619H30.2074C30.7472 84.6619 31.2206 84.5649 31.6278 84.3707C32.0398 84.1766 32.3617 83.9067 32.5938 83.5611C32.8258 83.2107 32.9418 82.8011 32.9418 82.3324C32.9418 81.8826 32.84 81.492 32.6364 81.1605C32.4375 80.8243 32.1534 80.5616 31.7841 80.3722C31.4195 80.1828 30.9886 80.0881 30.4915 80.0881C30.018 80.0881 29.5753 80.1757 29.1634 80.3509C28.7562 80.5213 28.4247 80.7675 28.169 81.0895C27.9134 81.4067 27.776 81.7879 27.7571 82.233H25.6335C25.6572 81.447 25.8892 80.7557 26.3295 80.1591C26.7746 79.5625 27.3617 79.0961 28.0909 78.7599C28.8201 78.4238 29.6297 78.2557 30.5199 78.2557C31.4527 78.2557 32.2576 78.438 32.9347 78.8026C33.6165 79.1624 34.142 79.643 34.5114 80.2443C34.8854 80.8456 35.0701 81.5038 35.0653 82.2188C35.0701 83.0331 34.8428 83.7244 34.3835 84.2926C33.929 84.8608 33.3229 85.242 32.5653 85.4361V85.5497C33.5313 85.6965 34.2794 86.08 34.8097 86.7003C35.3447 87.3205 35.6098 88.09 35.6051 89.0085C35.6098 89.8087 35.3873 90.526 34.9375 91.1605C34.4924 91.795 33.884 92.2945 33.1122 92.6591C32.3404 93.0189 31.4574 93.1989 30.4631 93.1989ZM46.4106 81.58H51.6106V82.94H46.4106V81.58ZM51.0906 76.5H52.7506V89.88H51.0906V76.5ZM41.1306 92.8H53.1906V94.16H41.1306V92.8ZM41.1306 88.58H42.7906V93.5H41.1306V88.58ZM38.7706 77.68H40.4106V80.88H45.3106V77.68H46.9306V86.8H38.7706V77.68ZM40.4106 82.18V85.44H45.3106V82.18H40.4106ZM59.4794 91.0114L59.3729 91.7855C59.3018 92.3537 59.1811 92.9455 59.0107 93.5611C58.8449 94.1813 58.6721 94.7566 58.4922 95.2869C58.317 95.8172 58.1726 96.2386 58.0589 96.5511H56.5533C56.6148 96.2576 56.7 95.8598 56.8089 95.358C56.9179 94.8608 57.0244 94.3045 57.1286 93.6889C57.2327 93.0734 57.3108 92.446 57.3629 91.8068L57.4339 91.0114H59.4794ZM67.2031 90.1591V88.3835L73.4886 78.4545H74.8878V81.0682H74L69.5043 88.1847V88.2983H78.1193V90.1591H67.2031ZM74.0994 93V89.6193L74.1136 88.8097V78.4545H76.1946V93H74.0994ZM88.7153 81.58H93.9153V82.94H88.7153V81.58ZM93.3953 76.5H95.0553V89.88H93.3953V76.5ZM83.4353 92.8H95.4953V94.16H83.4353V92.8ZM83.4353 88.58H85.0953V93.5H83.4353V88.58ZM81.0753 77.68H82.7153V80.88H87.6153V77.68H89.2353V86.8H81.0753V77.68ZM82.7153 82.18V85.44H87.6153V82.18H82.7153ZM101.784 91.0114L101.678 91.7855C101.607 92.3537 101.486 92.9455 101.315 93.5611C101.15 94.1813 100.977 94.7566 100.797 95.2869C100.622 95.8172 100.477 96.2386 100.364 96.5511H98.858C98.9195 96.2576 99.0047 95.8598 99.1136 95.358C99.2225 94.8608 99.3291 94.3045 99.4332 93.6889C99.5374 93.0734 99.6155 92.446 99.6676 91.8068L99.7386 91.0114H101.784ZM114.614 93.1989C113.724 93.1989 112.924 93.0284 112.214 92.6875C111.508 92.3419 110.945 91.8684 110.523 91.267C110.102 90.6657 109.877 89.9792 109.849 89.2074H111.979C112.031 89.8324 112.308 90.3461 112.81 90.7486C113.312 91.151 113.914 91.3523 114.614 91.3523C115.173 91.3523 115.668 91.2244 116.099 90.9688C116.534 90.7083 116.875 90.3509 117.121 89.8963C117.372 89.4418 117.498 88.9233 117.498 88.3409C117.498 87.7491 117.37 87.2211 117.114 86.7571C116.859 86.2931 116.506 85.9285 116.056 85.6634C115.611 85.3982 115.1 85.2633 114.522 85.2585C114.082 85.2585 113.639 85.3343 113.194 85.4858C112.749 85.6373 112.389 85.8362 112.114 86.0824L110.104 85.7841L110.921 78.4545H118.918V80.3366H112.746L112.285 84.4062H112.37C112.654 84.1316 113.031 83.902 113.499 83.7173C113.973 83.5327 114.479 83.4403 115.019 83.4403C115.905 83.4403 116.693 83.651 117.384 84.0724C118.08 84.4938 118.627 85.0691 119.025 85.7983C119.427 86.5227 119.626 87.3561 119.621 88.2983C119.626 89.2405 119.413 90.081 118.982 90.8196C118.556 91.5582 117.964 92.1406 117.207 92.5668C116.454 92.9882 115.59 93.1989 114.614 93.1989ZM130.336 81.58H135.536V82.94H130.336V81.58ZM135.016 76.5H136.676V89.88H135.016V76.5ZM125.056 92.8H137.116V94.16H125.056V92.8ZM125.056 88.58H126.716V93.5H125.056V88.58ZM122.696 77.68H124.336V80.88H129.236V77.68H130.856V86.8H122.696V77.68ZM124.336 82.18V85.44H129.236V82.18H124.336ZM146.268 88.84H147.688C151.028 88.84 153.328 88.76 156.048 88.28L156.228 89.64C153.428 90.12 151.068 90.22 147.688 90.22H146.268V88.84ZM146.268 78.12H154.688V79.5H147.928V89.32H146.268V78.12ZM147.508 83.18H154.288V84.52H147.508V83.18ZM157.728 76.48H159.408V94.56H157.728V76.48ZM159.008 83.74H162.368V85.14H159.008V83.74ZM171.226 76.94H172.646V77.82C172.646 81.1 169.186 83.52 165.526 84.16L164.866 82.84C168.066 82.36 171.226 80.24 171.226 77.82V76.94ZM171.486 76.94H172.906V77.82C172.906 80.18 176.106 82.34 179.246 82.82L178.626 84.12C174.966 83.5 171.486 81.02 171.486 77.82V76.94ZM163.886 85.68H180.266V87.04H163.886V85.68ZM171.366 86.52H173.026V90.68H171.366V86.52ZM165.966 92.8H178.446V94.16H165.966V92.8ZM165.966 88.94H167.606V93.24H165.966V88.94ZM189.625 83.5H193.045V84.88H189.625V83.5ZM196.065 76.48H197.665V94.56H196.065V76.48ZM192.485 76.86H194.065V93.66H192.485V76.86ZM186.365 77.98C188.705 77.98 190.225 80.4 190.225 84.28C190.225 88.16 188.705 90.58 186.365 90.58C184.025 90.58 182.525 88.16 182.525 84.28C182.525 80.4 184.025 77.98 186.365 77.98ZM186.365 79.52C184.945 79.52 184.045 81.36 184.045 84.28C184.045 87.2 184.945 89.04 186.365 89.04C187.805 89.04 188.705 87.2 188.705 84.28C188.705 81.36 187.805 79.52 186.365 79.52ZM206.636 78.18H208.216V82.6H211.996V78.18H213.536V90.04H206.636V78.18ZM208.216 83.94V88.68H211.996V83.94H208.216ZM219.756 76.48H221.356V94.56H219.756V76.48ZM216.856 83.64H220.336V85H216.856V83.64ZM215.756 76.86H217.336V93.66H215.756V76.86ZM237.535 76.48H239.195V94.56H237.535V76.48ZM229.395 80.78H230.735V82.32C230.735 86.18 228.555 89.68 225.655 91.08L224.715 89.8C227.395 88.56 229.395 85.48 229.395 82.32V80.78ZM229.715 80.78H231.035V82.32C231.035 85.34 233.095 88.28 235.795 89.46L234.855 90.76C231.935 89.44 229.715 86.06 229.715 82.32V80.78ZM225.215 79.62H235.175V80.96H225.215V79.62ZM229.395 76.8H231.055V80.36H229.395V76.8ZM244.473 82.38H253.193V83.74H244.473V82.38ZM247.953 83.2H249.613V86.82H247.953V83.2ZM244.473 77.66H253.073V79.02H246.133V82.98H244.473V77.66ZM255.913 76.48H257.573V90H255.913V76.48ZM245.893 92.8H258.173V94.16H245.893V92.8ZM245.893 89.12H247.533V93.38H245.893V89.12ZM243.093 87.72L242.873 86.36C246.353 86.36 250.753 86.28 254.473 85.84L254.573 87.06C250.753 87.62 246.473 87.72 243.093 87.72ZM278.844 76.48H280.504V87.3H278.844V76.48ZM280.044 81.14H283.184V82.54H280.044V81.14ZM273.844 77.8H275.624C275.624 82.44 272.404 85.82 267.184 87.36L266.484 86.02C271.084 84.66 273.844 81.94 273.844 78.56V77.8ZM267.284 77.8H274.784V79.18H267.284V77.8ZM274.844 87.52C278.424 87.52 280.704 88.84 280.704 91.02C280.704 93.2 278.424 94.52 274.844 94.52C271.244 94.52 268.944 93.2 268.944 91.02C268.944 88.84 271.244 87.52 274.844 87.52ZM274.844 88.84C272.244 88.84 270.584 89.66 270.584 91.02C270.584 92.38 272.244 93.2 274.844 93.2C277.444 93.2 279.104 92.38 279.104 91.02C279.104 89.66 277.444 88.84 274.844 88.84ZM285.643 88.84H287.063C290.403 88.84 292.703 88.76 295.423 88.28L295.603 89.64C292.803 90.12 290.443 90.22 287.063 90.22H285.643V88.84ZM285.643 78.12H294.063V79.5H287.303V89.32H285.643V78.12ZM286.883 83.18H293.663V84.52H286.883V83.18ZM297.103 76.48H298.783V94.56H297.103V76.48ZM298.383 83.74H301.743V85.14H298.383V83.74ZM307.741 79.06H309.061V82C309.061 85.76 306.761 89.64 303.941 91.08L302.981 89.76C305.561 88.5 307.741 85.06 307.741 82V79.06ZM308.041 79.06H309.361V82C309.361 84.86 311.401 88.08 314.021 89.32L313.081 90.64C310.221 89.22 308.041 85.58 308.041 82V79.06ZM303.621 78.32H313.361V79.72H303.621V78.32ZM315.501 76.48H317.181V94.56H315.501V76.48ZM316.781 83.78H320.141V85.18H316.781V83.78ZM321.68 84.02H338.02V85.38H321.68V84.02ZM323.84 81.22H336.08V82.56H323.84V81.22ZM323.84 77.06H335.88V78.42H325.48V82.3H323.84V77.06ZM323.64 86.94H335.92V91.2H325.32V93.48H323.68V89.96H334.28V88.24H323.64V86.94ZM323.68 93.04H336.46V94.36H323.68V93.04ZM348.238 76.78C352.218 76.78 354.598 77.9 354.598 79.92C354.598 81.94 352.218 83.06 348.238 83.06C344.238 83.06 341.878 81.94 341.878 79.92C341.878 77.9 344.238 76.78 348.238 76.78ZM348.238 78.04C345.278 78.04 343.578 78.72 343.578 79.92C343.578 81.12 345.278 81.8 348.238 81.8C351.178 81.8 352.878 81.12 352.878 79.92C352.878 78.72 351.178 78.04 348.238 78.04ZM340.058 84.26H356.398V85.6H340.058V84.26ZM342.038 87.14H354.318V91.22H343.718V93.42H342.078V90.02H352.678V88.42H342.038V87.14ZM342.078 93.06H354.858V94.36H342.078V93.06ZM365.63 76.9H377.37V78.98H365.63V76.9ZM375.77 76.9H378.39V78.54C378.39 80.16 378.39 81.9 377.91 84.08L375.29 83.84C375.77 81.7 375.77 80.14 375.77 78.54V76.9ZM376.57 80.02V81.84L365.41 82.28L365.11 80.26L376.57 80.02ZM363.61 83.4H380.29V85.48H363.61V83.4ZM365.41 86.56H378.49V91.46H368.07V93.46H365.43V89.58H375.85V88.56H365.41V86.56ZM365.43 92.56H379.11V94.58H365.43V92.56ZM394.688 76.28H397.368V89.92H394.688V76.28ZM384.968 92.34H397.808V94.46H384.968V92.34ZM384.968 88.78H387.628V93.42H384.968V88.78ZM382.928 85.44H384.548C388.408 85.44 390.668 85.34 393.188 84.86L393.468 86.98C390.868 87.48 388.508 87.58 384.548 87.58H382.928V85.44ZM382.908 77.48H391.428V83.4H385.548V86.04H382.928V81.44H388.808V79.6H382.908V77.48ZM409.726 80.34H414.366V82.48H409.726V80.34ZM405.486 77.02C408.266 77.02 410.366 78.88 410.366 81.44C410.366 84.02 408.266 85.86 405.486 85.86C402.686 85.86 400.586 84.02 400.586 81.44C400.586 78.88 402.686 77.02 405.486 77.02ZM405.486 79.24C404.126 79.24 403.126 80.06 403.126 81.44C403.126 82.82 404.126 83.66 405.486 83.66C406.846 83.66 407.826 82.82 407.826 81.44C407.826 80.06 406.846 79.24 405.486 79.24ZM413.206 76.26H415.866V86.22H413.206V76.26ZM403.566 87.02H406.206V88.78H413.226V87.02H415.866V94.58H403.566V87.02ZM406.206 90.82V92.46H413.226V90.82H406.206ZM425.374 85.8H438.394V87.88H425.374V85.8ZM423.414 90.5H440.174V92.66H423.414V90.5ZM425.374 77.6H438.234V79.74H428.074V86.38H425.374V77.6ZM427.254 81.68H437.814V83.74H427.254V81.68ZM454.552 76.24H457.212V94.82H454.552V76.24ZM442.792 88.34H444.432C447.712 88.34 450.332 88.22 453.272 87.72L453.532 89.86C450.532 90.4 447.812 90.5 444.432 90.5H442.792V88.34ZM442.772 77.82H451.512V84.98H445.492V89.14H442.792V82.88H448.792V79.94H442.772V77.82ZM467.231 86.68H469.891V90.9H467.231V86.68ZM468.571 77.2C472.531 77.2 475.491 79.22 475.491 82.3C475.491 85.42 472.531 87.42 468.571 87.42C464.611 87.42 461.651 85.42 461.651 82.3C461.651 79.22 464.611 77.2 468.571 77.2ZM468.571 79.3C466.031 79.3 464.271 80.42 464.271 82.3C464.271 84.22 466.031 85.32 468.571 85.32C471.111 85.32 472.871 84.22 472.871 82.3C472.871 80.42 471.111 79.3 468.571 79.3ZM460.211 90.48H476.971V92.64H460.211V90.48ZM491.029 76.46H492.689V94.58H491.029V76.46ZM492.289 83.66H495.649V85.06H492.289V83.66ZM479.509 88.84H480.949C484.349 88.84 486.709 88.72 489.449 88.2L489.629 89.58C486.809 90.08 484.409 90.22 480.949 90.22H479.509V88.84ZM479.469 78.16H487.649V84.64H481.149V89.4H479.509V83.28H486.009V79.52H479.469V78.16ZM498.908 78.28H510.548V79.66H498.908V78.28ZM497.188 90.66H513.528V92.04H497.188V90.66ZM503.528 84.2H505.188V91.34H503.528V84.2ZM509.928 78.28H511.568V80.08C511.568 82.32 511.568 84.8 510.908 88.46L509.248 88.24C509.928 84.78 509.928 82.24 509.928 80.08V78.28ZM520.859 87.18H537.259V88.54H520.859V87.18ZM528.179 87.82H529.819V94.56H528.179V87.82ZM522.919 77.2H524.579V79.68H533.519V77.2H535.159V85.02H522.919V77.2ZM524.579 81.02V83.68H533.519V81.02H524.579ZM24.98 109.44H41.38V110.8H24.98V109.44ZM27.18 111.96H28.82V113.72H37.64V111.96H39.28V118.32H27.18V111.96ZM28.82 115V117H37.64V115H28.82ZM27.06 100.88H39.26V105.04H28.74V107.42H27.1V103.8H37.64V102.18H27.06V100.88ZM27.1 106.74H39.66V108.04H27.1V106.74ZM56.5384 100.48H58.1984V118.56H56.5384V100.48ZM44.5384 102.24H46.1784V113.44H44.5384V102.24ZM44.5384 112.46H46.0184C48.7584 112.46 51.6184 112.26 54.6784 111.62L54.8784 113.04C51.7384 113.68 48.8784 113.9 46.0184 113.9H44.5384V112.46ZM74.0169 100.46H75.6969V118.58H74.0169V100.46ZM75.2969 107.6H78.6569V109H75.2969V107.6ZM62.5569 112.68H63.9769C67.3169 112.68 69.6569 112.56 72.3569 112.06L72.5369 113.46C69.7569 113.98 67.3769 114.08 63.9769 114.08H62.5569V112.68ZM62.5569 102.22H70.9569V103.58H64.1969V113.3H62.5569V102.22ZM82.022 117.135C81.6338 117.135 81.3 116.998 81.0206 116.723C80.7412 116.444 80.6016 116.107 80.6016 115.714C80.6016 115.326 80.7412 114.995 81.0206 114.72C81.3 114.441 81.6338 114.301 82.022 114.301C82.4103 114.301 82.7441 114.441 83.0234 114.72C83.3028 114.995 83.4425 115.326 83.4425 115.714C83.4425 115.975 83.3762 116.214 83.2436 116.432C83.1158 116.645 82.9453 116.815 82.7322 116.943C82.5192 117.071 82.2824 117.135 82.022 117.135ZM104.038 100.46H105.698V118.58H104.038V100.46ZM96.158 101.86C98.838 101.86 100.758 104.32 100.758 108.16C100.758 112.02 98.838 114.48 96.158 114.48C93.498 114.48 91.578 112.02 91.578 108.16C91.578 104.32 93.498 101.86 96.158 101.86ZM96.158 103.36C94.398 103.36 93.158 105.24 93.158 108.16C93.158 111.1 94.398 113.02 96.158 113.02C97.938 113.02 99.158 111.1 99.158 108.16C99.158 105.24 97.938 103.36 96.158 103.36ZM109.316 108.02H125.656V109.38H109.316V108.02ZM111.476 105.22H123.716V106.56H111.476V105.22ZM111.476 101.06H123.516V102.42H113.116V106.3H111.476V101.06ZM111.276 110.94H123.556V115.2H112.956V117.48H111.316V113.96H121.916V112.24H111.276V110.94ZM111.316 117.04H124.096V118.36H111.316V117.04ZM127.695 109.98H144.035V111.34H127.695V109.98ZM129.815 116.8H142.235V118.16H129.815V116.8ZM129.815 112.92H131.475V117.22H129.815V112.92ZM135.875 101.08C139.735 101.08 142.235 102.44 142.235 104.7C142.235 106.94 139.735 108.3 135.875 108.3C131.995 108.3 129.515 106.94 129.515 104.7C129.515 102.44 131.995 101.08 135.875 101.08ZM135.875 102.44C133.035 102.44 131.215 103.28 131.215 104.7C131.215 106.12 133.035 106.96 135.875 106.96C138.715 106.96 140.535 106.12 140.535 104.7C140.535 103.28 138.715 102.44 135.875 102.44ZM158.646 102.26H160.086V103.02C160.086 106.26 156.646 108.64 153.006 109.26L152.366 107.94C155.546 107.48 158.646 105.4 158.646 103.02V102.26ZM159.066 102.26H160.486V103.02C160.486 105.4 163.606 107.48 166.766 107.94L166.146 109.26C162.486 108.64 159.066 106.26 159.066 103.02V102.26ZM158.706 111.66H160.346V118.56H158.706V111.66ZM151.406 110.78H167.746V112.14H151.406V110.78ZM152.926 101.6H166.166V102.94H152.926V101.6ZM169.805 114.96H186.185V116.34H169.805V114.96ZM177.125 111.08H178.785V115.54H177.125V111.08ZM171.785 101.82H184.165V107.3H173.485V110.92H171.845V105.96H182.525V103.16H171.785V101.82ZM171.845 110.22H184.585V111.58H171.845V110.22ZM194.536 108.84H195.996C199.896 108.84 202.036 108.76 204.576 108.32L204.756 109.64C202.136 110.1 199.936 110.16 195.996 110.16H194.536V108.84ZM194.536 101.58H203.136V102.92H196.176V109.52H194.536V101.58ZM195.636 105.14H202.636V106.48H195.636V105.14ZM206.636 100.5H208.316V111.26H206.636V100.5ZM196.636 112.16H208.316V118.32H196.636V112.16ZM206.676 113.5H198.256V116.98H206.676V113.5ZM217.755 101.78C220.575 101.78 222.595 103.52 222.595 106.04C222.595 108.58 220.575 110.32 217.755 110.32C214.935 110.32 212.895 108.58 212.895 106.04C212.895 103.52 214.935 101.78 217.755 101.78ZM217.755 103.22C215.875 103.22 214.515 104.36 214.515 106.04C214.515 107.72 215.875 108.88 217.755 108.88C219.615 108.88 220.975 107.72 220.975 106.04C220.975 104.36 219.615 103.22 217.755 103.22ZM224.955 100.46H226.615V118.58H224.955V100.46ZM212.215 114.62L211.975 113.24C215.275 113.24 219.835 113.22 223.775 112.6L223.915 113.82C219.855 114.6 215.435 114.62 212.215 114.62ZM235.586 109.28H251.926V110.62H235.586V109.28ZM237.386 112.78H249.926V118.66H248.266V114.14H237.386V112.78ZM237.646 105.94H250.046V107.28H237.646V105.94ZM237.646 101.16H249.886V102.52H239.306V106.62H237.646V101.16ZM263.624 105H267.644V106.38H263.624V105ZM267.184 100.48H268.844V111.06H267.184V100.48ZM257.124 111.94H268.844V118.32H257.124V111.94ZM267.224 113.26H258.744V116.98H267.224V113.26ZM258.584 102.2H259.944V103.66C259.944 106.96 257.904 109.78 254.884 110.9L254.024 109.58C256.724 108.62 258.584 106.22 258.584 103.66V102.2ZM258.904 102.2H260.244V103.64C260.244 105.98 262.004 108.24 264.624 109.16L263.784 110.48C260.844 109.42 258.904 106.68 258.904 103.64V102.2ZM254.544 101.64H264.204V102.98H254.544V101.64ZM280.543 100.78C284.523 100.78 286.903 101.9 286.903 103.92C286.903 105.94 284.523 107.06 280.543 107.06C276.543 107.06 274.183 105.94 274.183 103.92C274.183 101.9 276.543 100.78 280.543 100.78ZM280.543 102.04C277.583 102.04 275.883 102.72 275.883 103.92C275.883 105.12 277.583 105.8 280.543 105.8C283.483 105.8 285.183 105.12 285.183 103.92C285.183 102.72 283.483 102.04 280.543 102.04ZM272.363 108.26H288.703V109.6H272.363V108.26ZM274.343 111.14H286.623V115.22H276.023V117.42H274.383V114.02H284.983V112.42H274.343V111.14ZM274.383 117.06H287.163V118.36H274.383V117.06ZM299.834 103.8H301.094V104.38C301.094 107.3 299.634 109.92 297.014 111.02L296.194 109.78C298.494 108.86 299.834 106.68 299.834 104.38V103.8ZM300.154 103.8H301.394V104.38C301.394 106.54 302.774 108.58 305.054 109.46L304.274 110.7C301.614 109.66 300.154 107.16 300.154 104.38V103.8ZM296.554 102.86H304.614V104.2H296.554V102.86ZM299.834 100.68H301.394V103.42H299.834V100.68ZM309.714 100.5H311.294V111.58H309.714V100.5ZM306.794 105.3H310.214V106.66H306.794V105.3ZM305.874 100.8H307.434V111.46H305.874V100.8ZM299.174 112.54H311.294V118.56H309.654V113.88H299.174V112.54ZM327.613 100.5H329.293V110.82H327.613V100.5ZM317.613 111.8H329.293V118.32H317.613V111.8ZM327.653 113.12H319.233V116.98H327.653V113.12ZM319.593 101.44C322.333 101.44 324.293 103.16 324.293 105.66C324.293 108.16 322.333 109.88 319.593 109.88C316.853 109.88 314.873 108.16 314.873 105.66C314.873 103.16 316.853 101.44 319.593 101.44ZM319.593 102.82C317.793 102.82 316.493 103.98 316.493 105.66C316.493 107.34 317.793 108.48 319.593 108.48C321.393 108.48 322.693 107.34 322.693 105.66C322.693 103.98 321.393 102.82 319.593 102.82ZM337.651 103.06H338.991V106C338.991 109.82 336.691 113.66 333.811 115.08L332.851 113.76C335.471 112.52 337.651 109.12 337.651 106V103.06ZM337.971 103.06H339.311V106C339.311 109.06 341.491 112.18 344.151 113.32L343.211 114.64C340.291 113.28 337.971 109.76 337.971 106V103.06ZM333.451 102.32H343.551V103.72H333.451V102.32ZM345.991 100.48H347.651V118.56H345.991V100.48ZM353.47 105.9H365.75V107.26H353.47V105.9ZM351.25 109.68H367.65V111.04H351.25V109.68ZM353.47 101.14H355.11V106.58H353.47V101.14ZM353.35 116.76H365.85V118.12H353.35V116.76ZM353.35 112.84H354.99V117.12H353.35V112.84ZM382.281 109.52H383.941V112.68H382.281V109.52ZM374.941 108.94H391.281V110.28H374.941V108.94ZM383.101 112.18C386.981 112.18 389.301 113.32 389.301 115.36C389.301 117.38 386.981 118.52 383.101 118.52C379.221 118.52 376.901 117.38 376.901 115.36C376.901 113.32 379.221 112.18 383.101 112.18ZM383.101 113.46C380.281 113.46 378.581 114.14 378.581 115.36C378.581 116.56 380.281 117.24 383.101 117.24C385.941 117.24 387.621 116.56 387.621 115.36C387.621 114.14 385.941 113.46 383.101 113.46ZM382.041 101.96H383.521V102.5C383.521 105.42 380.201 107.38 376.461 107.84L375.861 106.52C379.101 106.18 382.041 104.56 382.041 102.5V101.96ZM382.741 101.96H384.201V102.5C384.201 104.56 387.141 106.18 390.381 106.52L389.781 107.84C386.041 107.38 382.741 105.42 382.741 102.5V101.96ZM376.441 101.3H389.821V102.64H376.441V101.3ZM397.359 109.78H398.999V115.2H397.359V109.78ZM404.039 109.78H405.699V115.2H404.039V109.78ZM393.359 114.88H409.739V116.26H393.359V114.88ZM401.519 101.62C405.339 101.62 408.079 103.44 408.079 106.28C408.079 109.1 405.339 110.92 401.519 110.92C397.679 110.92 394.939 109.1 394.939 106.28C394.939 103.44 397.679 101.62 401.519 101.62ZM401.519 102.94C398.619 102.94 396.539 104.26 396.539 106.28C396.539 108.28 398.619 109.6 401.519 109.6C404.419 109.6 406.479 108.28 406.479 106.28C406.479 104.26 404.419 102.94 401.519 102.94ZM424.118 100.5H425.778V114.06H424.118V100.5ZM425.258 106.42H428.458V107.82H425.258V106.42ZM411.798 102.68H422.478V104.02H411.798V102.68ZM417.138 105.02C419.698 105.02 421.458 106.36 421.458 108.4C421.458 110.42 419.698 111.76 417.138 111.76C414.558 111.76 412.798 110.42 412.798 108.4C412.798 106.36 414.558 105.02 417.138 105.02ZM417.138 106.32C415.498 106.32 414.378 107.14 414.378 108.4C414.378 109.64 415.498 110.46 417.138 110.46C418.758 110.46 419.878 109.64 419.878 108.4C419.878 107.14 418.758 106.32 417.138 106.32ZM416.298 100.48H417.958V103.38H416.298V100.48ZM414.518 116.8H426.598V118.16H414.518V116.8ZM414.518 112.98H416.178V117.38H414.518V112.98ZM443.669 103.14H449.189V104.5H443.669V103.14ZM443.669 107.18H449.189V108.56H443.669V107.18ZM438.249 112.14H450.309V118.56H448.649V113.48H438.249V112.14ZM448.649 100.48H450.309V111.14H448.649V100.48ZM440.369 101.48C443.029 101.48 445.029 103.28 445.029 105.84C445.029 108.4 443.029 110.18 440.369 110.18C437.689 110.18 435.709 108.4 435.709 105.84C435.709 103.28 437.689 101.48 440.369 101.48ZM440.369 102.9C438.609 102.9 437.309 104.12 437.309 105.84C437.309 107.56 438.609 108.76 440.369 108.76C442.129 108.76 443.449 107.56 443.449 105.84C443.449 104.12 442.129 102.9 440.369 102.9ZM466.208 100.42H467.868V110.4H466.208V100.42ZM467.168 104.76H470.548V106.16H467.168V104.76ZM456.388 111.32H467.868V115.36H458.068V117.56H456.428V114.16H466.248V112.58H456.388V111.32ZM456.428 117.08H468.528V118.36H456.428V117.08ZM453.888 102.1H464.568V103.4H453.888V102.1ZM459.228 104.2C461.828 104.2 463.548 105.34 463.548 107.18C463.548 109 461.828 110.12 459.228 110.12C456.588 110.12 454.888 109 454.888 107.18C454.888 105.34 456.588 104.2 459.228 104.2ZM459.228 105.42C457.548 105.42 456.468 106.1 456.468 107.18C456.468 108.24 457.548 108.92 459.228 108.92C460.888 108.92 461.968 108.24 461.968 107.18C461.968 106.1 460.888 105.42 459.228 105.42ZM458.388 100.28H460.048V103H458.388V100.28ZM480.406 100.78C484.386 100.78 486.766 101.9 486.766 103.92C486.766 105.94 484.386 107.06 480.406 107.06C476.406 107.06 474.046 105.94 474.046 103.92C474.046 101.9 476.406 100.78 480.406 100.78ZM480.406 102.04C477.446 102.04 475.746 102.72 475.746 103.92C475.746 105.12 477.446 105.8 480.406 105.8C483.346 105.8 485.046 105.12 485.046 103.92C485.046 102.72 483.346 102.04 480.406 102.04ZM472.226 108.26H488.566V109.6H472.226V108.26ZM474.206 111.14H486.486V115.22H475.886V117.42H474.246V114.02H484.846V112.42H474.206V111.14ZM474.246 117.06H487.026V118.36H474.246V117.06ZM508.298 100.48H509.958V110.98H508.298V100.48ZM509.238 105.08H512.638V106.48H509.238V105.08ZM498.598 111.78H500.217V113.7H508.318V111.78H509.958V118.32H498.598V111.78ZM500.217 114.98V116.98H508.318V114.98H500.217ZM495.978 102.32H506.658V103.68H495.978V102.32ZM501.318 104.5C503.898 104.5 505.638 105.76 505.638 107.68C505.638 109.6 503.898 110.86 501.318 110.86C498.718 110.86 496.978 109.6 496.978 107.68C496.978 105.76 498.718 104.5 501.318 104.5ZM501.318 105.76C499.658 105.76 498.558 106.52 498.558 107.68C498.558 108.84 499.658 109.6 501.318 109.6C502.938 109.6 504.058 108.84 504.058 107.68C504.058 106.52 502.938 105.76 501.318 105.76ZM500.478 100.3H502.138V103.06H500.478V100.3ZM527.476 100.48H529.136V118.56H527.476V100.48ZM515.476 102.24H517.116V113.44H515.476V102.24ZM515.476 112.46H516.956C519.696 112.46 522.556 112.26 525.616 111.62L525.816 113.04C522.676 113.68 519.816 113.9 516.956 113.9H515.476V112.46ZM37.22 124.46H38.9V142.58H37.22V124.46ZM38.5 131.6H41.86V133H38.5V131.6ZM25.76 136.68H27.18C30.52 136.68 32.86 136.56 35.56 136.06L35.74 137.46C32.96 137.98 30.58 138.08 27.18 138.08H25.76V136.68ZM25.76 126.22H34.16V127.58H27.4V137.3H25.76V126.22ZM45.2251 141.135C44.8369 141.135 44.5031 140.998 44.2237 140.723C43.9444 140.444 43.8047 140.107 43.8047 139.714C43.8047 139.326 43.9444 138.995 44.2237 138.72C44.5031 138.441 44.8369 138.301 45.2251 138.301C45.6134 138.301 45.9472 138.441 46.2266 138.72C46.5059 138.995 46.6456 139.326 46.6456 139.714C46.6456 139.975 46.5793 140.214 46.4467 140.432C46.3189 140.645 46.1484 140.815 45.9354 140.943C45.7223 141.071 45.4856 141.135 45.2251 141.135Z" fill="black"/>
<g clip-path="url(#clip0_1377_227)">
<path d="M213 53C222.941 53 231 44.9411 231 35C231 25.0589 222.941 17 213 17C203.059 17 195 25.0589 195 35C195 44.9411 203.059 53 213 53Z" fill="#E1E8ED"/>
<path d="M226.802 46.5462C223.792 45.2212 222 41.0482 222 35.0002C222 28.9522 223.792 24.7792 226.802 23.4542C226.356 22.9258 225.879 22.4237 225.374 21.9502C222.406 23.6052 220 27.5782 220 35.0002C220 42.4212 222.406 46.3952 225.374 48.0502C225.876 47.5732 226.358 47.0772 226.802 46.5462ZM206 35.0002C206 27.5792 203.594 23.6052 200.626 21.9512C200.122 22.4243 199.645 22.9262 199.198 23.4542C202.208 24.7802 204 28.9522 204 35.0002C204 41.0482 202.208 45.2202 199.198 46.5462C199.643 47.0772 200.124 47.5732 200.626 48.0502C203.593 46.3952 206 42.4212 206 35.0002Z" fill="#B3BEC4"/>
<path d="M200.092 27.164C199.855 27.164 199.635 27.144 199.441 27.108C199.18 27.0592 198.95 26.9088 198.8 26.69C198.726 26.5816 198.674 26.4597 198.646 26.3312C198.619 26.2027 198.618 26.0701 198.642 25.941C198.666 25.8119 198.716 25.6888 198.787 25.5788C198.859 25.4688 198.952 25.374 199.06 25.2998C199.279 25.15 199.548 25.0932 199.809 25.142C200.239 25.219 202.5 25.148 202.957 22.866C203.009 22.606 203.162 22.3773 203.383 22.2302C203.492 22.1574 203.615 22.1069 203.744 22.0814C203.873 22.056 204.005 22.0562 204.134 22.082C204.263 22.1078 204.385 22.1587 204.494 22.2318C204.603 22.3049 204.697 22.3988 204.77 22.5081C204.843 22.6174 204.893 22.74 204.919 22.8688C204.944 22.9977 204.944 23.1302 204.918 23.259C204.335 26.171 201.779 27.164 200.092 27.164ZM201.792 31.125C201.262 31.125 200.84 30.802 200.814 30.266C200.788 29.715 201.214 29.355 201.766 29.329C201.766 29.329 204.33 29.294 205.635 27.035C205.701 26.9219 205.789 26.823 205.894 26.744C205.998 26.665 206.117 26.6075 206.244 26.5748C206.371 26.5421 206.503 26.5348 206.633 26.5533C206.763 26.5719 206.887 26.616 207 26.683C207.478 26.959 207.642 27.577 207.365 28.056C205.514 31.262 201.808 31.125 201.792 31.125ZM204 36.282C203.266 36.282 202.586 36.147 202.072 35.904C201.832 35.7905 201.647 35.5864 201.558 35.3366C201.469 35.0868 201.483 34.8118 201.596 34.572C201.71 34.3322 201.914 34.1474 202.163 34.0581C202.413 33.9689 202.688 33.9825 202.928 34.096C203.758 34.489 205.854 34.335 206.658 33.084C206.729 32.9735 206.821 32.878 206.929 32.8031C207.037 32.7282 207.158 32.6752 207.287 32.6473C207.415 32.6193 207.548 32.6169 207.677 32.6402C207.806 32.6635 207.93 32.712 208.04 32.783C208.151 32.854 208.246 32.946 208.321 33.0539C208.396 33.1618 208.449 33.2833 208.477 33.4117C208.505 33.54 208.507 33.6726 208.484 33.8018C208.461 33.9311 208.412 34.0545 208.341 34.165C207.377 35.666 205.565 36.282 204 36.282ZM205.161 41.807C203.607 41.807 202.166 41.108 201.235 40.331C201.134 40.247 201.051 40.1439 200.99 40.0276C200.929 39.9113 200.891 39.7842 200.879 39.6534C200.867 39.5226 200.881 39.3907 200.92 39.2653C200.959 39.1399 201.023 39.0234 201.107 38.9225C201.191 38.8216 201.294 38.7382 201.41 38.6771C201.526 38.616 201.653 38.5785 201.784 38.5665C201.915 38.5546 202.047 38.5686 202.172 38.6076C202.298 38.6466 202.414 38.71 202.515 38.794C202.709 38.957 204.467 40.36 206.297 39.579C206.418 39.5277 206.548 39.5008 206.679 39.4997C206.811 39.4986 206.941 39.5234 207.063 39.5726C207.184 39.6219 207.295 39.6947 207.389 39.7868C207.483 39.8789 207.557 39.9886 207.609 40.1095C207.66 40.2304 207.687 40.3603 207.688 40.4917C207.689 40.623 207.664 40.7533 207.615 40.8751C207.566 40.9969 207.493 41.1078 207.401 41.2015C207.309 41.2951 207.199 41.3697 207.078 41.421C206.471 41.6772 205.82 41.8084 205.161 41.807ZM204.75 47H204.722C202.218 47 200.043 45.43 199.188 43.892C198.919 43.41 199.094 42.848 199.576 42.58C200.059 42.311 200.668 42.51 200.936 42.992C201.42 43.863 202.932 45.126 204.777 45.177C205.329 45.193 205.764 45.565 205.749 46.116C205.734 46.658 205.29 47 204.75 47ZM222.188 47.188C222.04 47.1881 221.894 47.1553 221.76 47.092C221.626 47.0287 221.508 46.9364 221.414 46.8219C221.32 46.7073 221.253 46.5734 221.217 46.4297C221.181 46.286 221.178 46.1362 221.207 45.991C221.871 42.669 225.101 41.841 226.685 42.142C226.946 42.191 227.176 42.3415 227.326 42.5603C227.475 42.7791 227.532 43.0484 227.483 43.309C227.46 43.4384 227.411 43.5618 227.339 43.6721C227.267 43.7824 227.175 43.8774 227.066 43.9517C226.958 44.0259 226.835 44.0778 226.707 44.1045C226.578 44.1312 226.445 44.132 226.316 44.107C225.891 44.027 223.626 44.1 223.169 46.383C223.124 46.61 223.002 46.8143 222.823 46.961C222.644 47.1078 222.419 47.188 222.188 47.188ZM219.624 42.688C219.449 42.6881 219.276 42.642 219.124 42.5542C218.972 42.4664 218.846 42.3401 218.758 42.1881C218.67 42.036 218.624 41.8634 218.624 41.6879C218.625 41.5123 218.671 41.3399 218.759 41.188C220.611 37.982 222.743 37.884 224.153 37.819L224.264 37.814C224.529 37.8013 224.788 37.8943 224.985 38.0727C225.181 38.251 225.298 38.5 225.311 38.765C225.324 39.03 225.231 39.2891 225.052 39.4855C224.874 39.6818 224.625 39.7993 224.36 39.812L224.245 39.817C223.041 39.873 221.796 39.929 220.491 42.188C220.403 42.3402 220.277 42.4665 220.125 42.5543C219.972 42.642 219.8 42.6882 219.624 42.688ZM218.624 36.625C218.445 36.625 218.268 36.5767 218.114 36.4851C217.96 36.3935 217.833 36.262 217.747 36.1044C217.661 35.9468 217.619 35.769 217.626 35.5896C217.632 35.4102 217.687 35.2359 217.784 35.085C219.199 32.882 222.44 32.584 224.052 33.347C224.29 33.4612 224.474 33.6652 224.562 33.9143C224.651 34.1634 224.637 34.4373 224.524 34.6763C224.411 34.9152 224.208 35.0997 223.959 35.1894C223.711 35.2791 223.437 35.2667 223.197 35.155C222.368 34.762 220.271 34.916 219.465 36.167C219.374 36.3076 219.25 36.4232 219.103 36.5032C218.956 36.5832 218.791 36.6251 218.624 36.625ZM224.249 30.688C224.015 30.6879 223.789 30.6058 223.609 30.456C223.415 30.294 221.657 28.897 219.828 29.671C219.586 29.7618 219.319 29.7557 219.082 29.654C218.845 29.5523 218.656 29.3629 218.555 29.1253C218.454 28.8877 218.449 28.6203 218.54 28.3789C218.632 28.1376 218.813 27.9409 219.046 27.83C221.265 26.888 223.581 27.829 224.89 28.92C225.048 29.0516 225.161 29.2287 225.215 29.4271C225.269 29.6255 225.26 29.8356 225.19 30.0288C225.12 30.2221 224.992 30.389 224.823 30.507C224.655 30.6249 224.455 30.6881 224.249 30.688ZM226.063 26.75C225.885 26.7502 225.709 26.7026 225.556 26.6122C225.402 26.5219 225.275 26.392 225.188 26.236C224.704 25.364 223.192 24.113 221.347 24.062C220.794 24.047 220.36 23.556 220.374 23.003C220.391 22.461 220.835 22 221.374 22H221.402C223.907 22 226.082 23.694 226.936 25.232C227.065 25.4664 227.097 25.7423 227.024 25.9999C226.951 26.2575 226.78 26.476 226.547 26.608C226.401 26.6959 226.234 26.7448 226.063 26.75Z" fill="#DD2E44"/>
</g>
<defs>
<clipPath id="clip0_1377_227">
<rect width="36" height="36" fill="white" transform="translate(195 17)"/>
</clipPath>
</defs>
</svg>
